<svg width="20" height="11" viewBox="0 0 20 11" fill="none" xmlns="http://www.w3.org/2000/svg">
<g id="&#240;&#159;&#166;&#134; icon &#34;chevron down&#34;">
<path id="Vector" d="M0.558261 0.405551C0.810742 0.156511 1.15313 0.0166082 1.51014 0.0166082C1.86715 0.0166082 2.20954 0.156511 2.46202 0.405551L9.58835 7.43686L16.7147 0.405551C16.8389 0.278673 16.9874 0.177471 17.1517 0.10785C17.316 0.038229 17.4926 0.0015829 17.6714 5.01553e-05C17.8502 -0.00148259 18.0275 0.0321296 18.1929 0.0989235C18.3584 0.165717 18.5087 0.264357 18.6351 0.389085C18.7615 0.513814 18.8615 0.662134 18.9292 0.825391C18.9969 0.988649 19.031 1.16357 19.0294 1.33996C19.0279 1.51635 18.9907 1.69066 18.9202 1.85273C18.8496 2.01481 18.747 2.16139 18.6184 2.28393L10.5402 10.2544C10.2878 10.5035 9.94536 10.6434 9.58835 10.6434C9.23134 10.6434 8.88895 10.5035 8.63647 10.2544L0.558261 2.28393C0.305856 2.03482 0.164062 1.69699 0.164062 1.34474C0.164062 0.992492 0.305856 0.654666 0.558261 0.405551Z" fill="#5C3F2D"/>
</g>
</svg>
