<svg width="21" height="13" viewBox="0 0 21 13" fill="none" xmlns="http://www.w3.org/2000/svg">
<g id="&#240;&#159;&#166;&#134; icon &#34;chevron down&#34;">
<path id="Vector" d="M0.84175 0.876531C1.11443 0.603933 1.48421 0.450796 1.86978 0.450796C2.25535 0.450796 2.62513 0.603933 2.89781 0.876531L10.5942 8.57296L18.2907 0.876531C18.4248 0.737652 18.5853 0.626876 18.7627 0.550669C18.9401 0.474462 19.1309 0.43435 19.3239 0.432672C19.517 0.430994 19.7085 0.467786 19.8872 0.540898C20.0659 0.614011 20.2282 0.72198 20.3648 0.858508C20.5013 0.995035 20.6093 1.15738 20.6824 1.33609C20.7555 1.51479 20.7923 1.70626 20.7906 1.89933C20.7889 2.0924 20.7488 2.28321 20.6726 2.46061C20.5964 2.63801 20.4856 2.79846 20.3467 2.9326L11.6223 11.6571C11.3496 11.9297 10.9798 12.0828 10.5942 12.0828C10.2087 12.0828 9.83889 11.9297 9.56621 11.6571L0.84175 2.9326C0.569153 2.65992 0.416016 2.29013 0.416016 1.90456C0.416016 1.51899 0.569153 1.14921 0.84175 0.876531Z" fill="#F8F2E2"/>
</g>
</svg>
