<?xml version="1.0" standalone="no"?>
<!DOCTYPE svg PUBLIC "-//W3C//DTD SVG 1.1//EN" "http://www.w3.org/Graphics/SVG/1.1/DTD/svg11.dtd" >
<svg xmlns="http://www.w3.org/2000/svg" xmlns:xlink="http://www.w3.org/1999/xlink" version="1.1">
<metadata>
Created by FontForge 20201107 at Mon Nov 29 18:22:49 2021
 By 
Copyright (c) 2020 by Colophon Foundry. All rights reserved.
</metadata>
<defs>
<font id="GrenettePro-Light" horiz-adv-x="650" >
  <font-face 
    font-family="Grenette Pro Light"
    font-weight="300"
    font-stretch="normal"
    units-per-em="1000"
    panose-1="2 2 3 2 4 2 2 4 1 3"
    ascent="800"
    descent="-200"
    x-height="490"
    cap-height="700"
    bbox="-678 -277 2500 999"
    underline-thickness="50"
    underline-position="-100"
    unicode-range="U+000D-FB02"
  />
<missing-glyph horiz-adv-x="940" 
d="M124 0q-11 0 -17.5 6.5t-6.5 17.5v692q0 11 6.5 17.5t17.5 6.5h692q11 0 17.5 -6.5t6.5 -17.5v-692q0 -11 -6.5 -17.5t-17.5 -6.5h-692zM776 46q5 0 8.5 3.5t3.5 8.5v624q0 5 -3.5 8.5t-8.5 3.5h-612q-5 0 -8.5 -3.5t-3.5 -8.5v-624q0 -5 3.5 -8.5t8.5 -3.5h612zM622 215
q-7 -7 -17 -7q-9 0 -17 7l-110 110q-3 4 -8 4q-4 0 -8 -4l-110 -110q-7 -7 -17 -7q-9 0 -17 7l-3 3q-7 8 -7 17q0 10 7 17l110 110q5 5 5 8t-5 8l-110 110q-7 8 -7 17q0 10 7 17l3 3q10 8 17 8q9 0 17 -8l110 -110q6 -4 8 -4q4 0 8 4l110 110q10 8 17 8q9 0 17 -8l3 -3
q8 -8 8 -17q0 -7 -8 -17l-110 -110q-4 -4 -4 -8t4 -8l110 -110q8 -8 8 -17q0 -7 -8 -17z" />
    <glyph glyph-name="f_b" unicode="fb" horiz-adv-x="907" 
d="M557.5 -3.5q-25.5 6.5 -47.5 21.5q-5 4 -10 4q-4 0 -9 -5l-14 -15q-9 -10 -21 -10q-7 0 -12 4.5t-5 13.5v593q0 13 -5.5 22.5t-18.5 19.5q-28 22 -67 34t-78 12q-53 0 -79 -26.5t-26 -74.5q0 -50 26.5 -75t87.5 -25h17q11 0 17.5 -6.5t6.5 -17.5v-10q0 -11 -6.5 -17.5
t-17.5 -6.5h-96q-5 0 -9 -3.5t-4 -8.5v-326q0 -16 6.5 -25.5t21.5 -12.5l32 -6q20 -4 20 -24v-2q0 -11 -6.5 -17.5t-17.5 -6.5h-169q-11 0 -17.5 6.5t-6.5 17.5v2q0 18 21 24l22 6q14 4 20.5 12.5t6.5 25.5v326q0 5 -3.5 8.5t-8.5 3.5h-37q-10 0 -16.5 7t-6.5 18v3
q0 18 18 26l10 5q13 7 17 14t6 21l5 49q18 175 195 175q29 0 58 -6.5t51 -16.5l8 -2q3 0 9 2l43 19q8 4 16 4q22 0 22 -28v-250q0 -9 7 -9q4 0 8 3q51 31 113 31q64 0 114 -28.5t78.5 -83.5t28.5 -133q0 -81 -33 -140.5t-87.5 -90.5t-118.5 -31q-33 0 -58.5 6.5zM731.5 98
q48.5 49 48.5 146q0 90 -46.5 141.5t-123.5 51.5q-53 0 -80 -18q-14 -10 -19 -20t-5 -31v-257q0 -31 19 -43q12 -8 32.5 -13.5t38.5 -5.5q87 0 135.5 49z" />
    <glyph glyph-name="f_f" unicode="ff" horiz-adv-x="658" 
d="M74 0q-11 0 -17.5 6.5t-6.5 17.5v2q0 18 21 24l21 6q16 4 22 12.5t6 25.5v326q0 5 -3.5 8.5t-8.5 3.5h-37q-10 0 -16.5 7t-6.5 18v3q0 18 18 26l10 5q13 7 17 14t6 21l6 58q7 77 51.5 116.5t118.5 39.5q52 0 83 -15q17 -8 17 -20q0 -3 -4 -15l-18 -42q-7 -15 -19 -15
q-10 0 -25 12q-23 18 -40.5 27t-37.5 9q-30 0 -48 -23.5t-18 -65.5q0 -52 25 -77t83 -25h119q23 0 25 23l6 76q6 79 54 120t121 41q60 0 91 -15q17 -8 17 -20q0 -3 -4 -15l-18 -42q-7 -15 -19 -15q-5 0 -11.5 3.5t-13.5 8.5q-25 18 -44.5 27t-40.5 9q-34 0 -53 -24t-19 -70
q0 -56 26 -81.5t89 -25.5h17q11 0 17.5 -6.5t6.5 -17.5v-10q0 -11 -6.5 -17.5t-17.5 -6.5h-96q-5 0 -9 -3.5t-4 -8.5v-326q0 -17 6 -25.5t22 -12.5l21 -6q21 -6 21 -24v-2q0 -11 -6.5 -17.5t-17.5 -6.5h-159q-11 0 -17.5 6.5t-6.5 17.5v2q0 18 21 24l21 6q16 4 22 12.5
t6 25.5v326q0 5 -3.5 8.5t-8.5 3.5h-227q-5 0 -9 -3.5t-4 -8.5v-326q0 -17 6 -25.5t22 -12.5l21 -6q21 -6 21 -24v-2q0 -11 -6.5 -17.5t-17.5 -6.5h-159z" />
    <glyph glyph-name="f_f_b" unicode="ffb" horiz-adv-x="1226" 
d="M876.5 -3.5q-25.5 6.5 -47.5 21.5q-5 4 -10 4q-4 0 -9 -5l-14 -15q-9 -10 -21 -10q-7 0 -12 4.5t-5 13.5v593q0 13 -5.5 22.5t-18.5 19.5q-28 22 -67 34t-78 12q-53 0 -79 -26.5t-26 -74.5q0 -50 26.5 -75t87.5 -25h17q11 0 17.5 -6.5t6.5 -17.5v-10q0 -11 -6.5 -17.5
t-17.5 -6.5h-96q-5 0 -9 -3.5t-4 -8.5v-326q0 -17 6 -25.5t22 -12.5l21 -6q21 -6 21 -24v-2q0 -11 -6.5 -17.5t-17.5 -6.5h-159q-11 0 -17.5 6.5t-6.5 17.5v2q0 18 21 24l21 6q16 4 22 12.5t6 25.5v326q0 5 -3.5 8.5t-8.5 3.5h-227q-5 0 -9 -3.5t-4 -8.5v-326q0 -17 6 -25.5
t22 -12.5l21 -6q21 -6 21 -24v-2q0 -11 -6.5 -17.5t-17.5 -6.5h-159q-11 0 -17.5 6.5t-6.5 17.5v2q0 18 21 24l21 6q16 4 22 12.5t6 25.5v326q0 5 -3.5 8.5t-8.5 3.5h-37q-10 0 -16.5 7t-6.5 18v3q0 18 18 26l10 5q13 7 17 14t6 21l6 58q7 77 51.5 116.5t118.5 39.5
q52 0 83 -15q17 -8 17 -20q0 -3 -4 -15l-18 -42q-7 -15 -19 -15q-10 0 -25 12q-23 18 -40.5 27t-37.5 9q-30 0 -48 -23.5t-18 -65.5q0 -52 25 -77t83 -25h119q23 0 25 23l6 62q8 87 57 131t138 44q29 0 58 -6.5t51 -16.5l8 -2q3 0 9 2l43 19q8 4 16 4q22 0 22 -28v-250
q0 -9 7 -9q4 0 8 3q51 31 113 31q64 0 114 -28.5t78.5 -83.5t28.5 -133q0 -81 -33 -140.5t-87.5 -90.5t-118.5 -31q-33 0 -58.5 6.5zM1050.5 98q48.5 49 48.5 146q0 90 -46.5 141.5t-123.5 51.5q-53 0 -80 -18q-14 -10 -19 -20t-5 -31v-257q0 -31 19 -43q12 -8 32.5 -13.5
t38.5 -5.5q87 0 135.5 49z" />
    <glyph glyph-name="f_f_h" unicode="ffh" horiz-adv-x="1239" 
d="M74 0q-11 0 -17.5 6.5t-6.5 17.5v2q0 18 21 24l21 6q16 4 22 12.5t6 25.5v326q0 5 -3.5 8.5t-8.5 3.5h-37q-10 0 -16.5 7t-6.5 18v3q0 18 18 26l10 5q13 7 17 14t6 21l6 58q7 77 51.5 116.5t118.5 39.5q52 0 83 -15q17 -8 17 -20q0 -3 -4 -15l-18 -42q-7 -15 -19 -15
q-10 0 -25 12q-23 18 -40.5 27t-37.5 9q-30 0 -48 -23.5t-18 -65.5q0 -52 25 -77t83 -25h119q23 0 25 23l6 62q8 87 57 131t138 44q29 0 58 -6.5t51 -16.5l8 -2q3 0 9 2l43 19q8 4 16 4q22 0 22 -28v-271q0 -10 9 -10q3 0 8 3l14 9q75 48 154 48q61 0 93 -36t32 -103v-268
q0 -17 6 -25.5t22 -12.5l21 -6q21 -6 21 -24v-2q0 -11 -6.5 -17.5t-17.5 -6.5h-91q-11 0 -17.5 6.5t-6.5 17.5v318q0 51 -15.5 74t-56.5 23q-39 0 -78.5 -12.5t-66.5 -28.5q-14 -8 -19 -17t-5 -24v-263q0 -17 6 -25.5t22 -12.5l21 -6q21 -6 21 -24v-2q0 -11 -6.5 -17.5
t-17.5 -6.5h-159q-11 0 -17.5 6.5t-6.5 17.5v2q0 18 21 24l21 6q16 4 22 12.5t6 25.5v509q0 13 -5.5 22.5t-18.5 19.5q-28 22 -67 34t-78 12q-53 0 -79 -26.5t-26 -74.5q0 -50 26.5 -75t87.5 -25h17q11 0 17.5 -6.5t6.5 -17.5v-10q0 -11 -6.5 -17.5t-17.5 -6.5h-96
q-5 0 -9 -3.5t-4 -8.5v-326q0 -17 6 -25.5t22 -12.5l21 -6q21 -6 21 -24v-2q0 -11 -6.5 -17.5t-17.5 -6.5h-159q-11 0 -17.5 6.5t-6.5 17.5v2q0 18 21 24l21 6q16 4 22 12.5t6 25.5v326q0 5 -3.5 8.5t-8.5 3.5h-227q-5 0 -9 -3.5t-4 -8.5v-326q0 -17 6 -25.5t22 -12.5l21 -6
q21 -6 21 -24v-2q0 -11 -6.5 -17.5t-17.5 -6.5h-159z" />
    <glyph glyph-name="f_f_i" unicode="ffi" horiz-adv-x="932" 
d="M74 0q-11 0 -17.5 6.5t-6.5 17.5v2q0 18 21 24l21 6q16 4 22 12.5t6 25.5v326q0 5 -3.5 8.5t-8.5 3.5h-37q-10 0 -16.5 7t-6.5 18v3q0 18 18 26l10 5q13 7 17 14t6 21l6 58q7 77 51.5 116.5t118.5 39.5q52 0 83 -15q17 -8 17 -20q0 -3 -4 -15l-18 -42q-7 -15 -19 -15
q-10 0 -25 12q-23 19 -40 27.5t-39 8.5q-30 0 -47.5 -23.5t-17.5 -65.5q0 -52 25 -77t83 -25h119q23 0 25 23l5 56q8 92 56 136.5t140 44.5q38 0 73.5 -9.5t55.5 -19.5q17 -9 17 -21q0 -2 -4 -14l-18 -42q-7 -15 -19 -15q-10 0 -25 12q-64 50 -124 50q-42 0 -66 -24.5
t-24 -76.5q0 -50 26 -75t83 -25h172q8 0 15 3l7 3q8 4 17 4q10 0 15.5 -7.5t5.5 -20.5v-378q0 -17 6 -25.5t22 -12.5l21 -6q21 -6 21 -24v-2q0 -11 -6.5 -17.5t-17.5 -6.5h-159q-11 0 -17.5 6.5t-6.5 17.5v2q0 18 21 24l21 6q16 4 22 12.5t6 25.5v326q0 5 -3.5 8.5t-8.5 3.5
h-227q-5 0 -9 -3.5t-4 -8.5v-326q0 -17 6 -25.5t22 -12.5l21 -6q21 -6 21 -24v-2q0 -11 -6.5 -17.5t-17.5 -6.5h-159q-11 0 -17.5 6.5t-6.5 17.5v2q0 18 21 24l21 6q16 4 22 12.5t6 25.5v326q0 5 -3.5 8.5t-8.5 3.5h-227q-5 0 -9 -3.5t-4 -8.5v-326q0 -17 6 -25.5t22 -12.5
l21 -6q21 -6 21 -24v-2q0 -11 -6.5 -17.5t-17.5 -6.5h-159z" />
    <glyph glyph-name="f_f_j" unicode="ffj" horiz-adv-x="925" 
d="M659.5 -220q-9.5 6 -9.5 18q0 8 3.5 12t12.5 7q52 17 72 46.5t20 79.5v477q0 5 -3.5 8.5t-8.5 3.5h-227q-5 0 -9 -3.5t-4 -8.5v-326q0 -17 6 -25.5t22 -12.5l21 -6q21 -6 21 -24v-2q0 -11 -6.5 -17.5t-17.5 -6.5h-159q-11 0 -17.5 6.5t-6.5 17.5v2q0 18 21 24l21 6
q16 4 22 12.5t6 25.5v326q0 5 -3.5 8.5t-8.5 3.5h-227q-5 0 -9 -3.5t-4 -8.5v-326q0 -17 6 -25.5t22 -12.5l21 -6q21 -6 21 -24v-2q0 -11 -6.5 -17.5t-17.5 -6.5h-159q-11 0 -17.5 6.5t-6.5 17.5v2q0 18 21 24l21 6q16 4 22 12.5t6 25.5v326q0 5 -3.5 8.5t-8.5 3.5h-37
q-10 0 -16.5 7t-6.5 18v3q0 18 18 26l10 5q13 7 17 14t6 21l6 58q7 77 51.5 116.5t118.5 39.5q52 0 83 -15q17 -8 17 -20q0 -3 -4 -15l-18 -42q-7 -15 -19 -15q-10 0 -25 12q-23 18 -40.5 27t-37.5 9q-30 0 -48 -23.5t-18 -65.5q0 -52 25 -77t83 -25h119q23 0 25 23l5 56
q8 92 56 136.5t140 44.5q38 0 73.5 -9.5t55.5 -19.5q17 -9 17 -21q0 -2 -4 -14l-18 -42q-7 -15 -19 -15q-10 0 -25 12q-64 50 -125 50q-42 0 -65.5 -25t-23.5 -76q0 -50 26 -75t83 -25h172q8 0 15 3l7 3q8 4 17 4q10 0 15.5 -7.5t5.5 -20.5v-540q0 -49 -19.5 -84.5
t-52 -54.5t-70.5 -19q-14 0 -23.5 6z" />
    <glyph glyph-name="f_f_k" unicode="ffk" horiz-adv-x="1202" 
d="M74 0q-11 0 -17.5 6.5t-6.5 17.5v2q0 18 21 24l21 6q16 4 22 12.5t6 25.5v326q0 5 -3.5 8.5t-8.5 3.5h-37q-10 0 -16.5 7t-6.5 18v3q0 18 18 26l10 5q13 7 17 14t6 21l6 58q7 77 51.5 116.5t118.5 39.5q52 0 83 -15q17 -8 17 -20q0 -3 -4 -15l-18 -42q-7 -15 -19 -15
q-10 0 -25 12q-23 18 -40.5 27t-37.5 9q-30 0 -48 -23.5t-18 -65.5q0 -52 25 -77t83 -25h119q23 0 25 23l6 62q8 87 57 131t138 44q29 0 58 -6.5t51 -16.5l8 -2q3 0 9 2l43 19q8 4 16 4q22 0 22 -28v-448q0 -5 2.5 -8t6.5 -3t8 4l160 147q6 5 6 11q0 7 -9 10l-24 9
q-15 5 -15 20v2q0 11 7 17.5t18 6.5h168q24 0 24 -24v-2q0 -10 -3.5 -15.5t-12.5 -8.5l-35 -11q-38 -12 -93 -62l-69 -62q-4 -4 -4 -8q0 -3 3 -8l116 -169q23 -34 34.5 -45t31.5 -17l25 -7q22 -6 22 -25v-1q0 -12 -7 -18.5t-18 -6.5h-68q-17 0 -29 16l-156 226q-5 6 -9 6
q-5 0 -9 -4l-64 -58q-7 -7 -7 -16v-76q0 -15 6 -24.5t22 -13.5l22 -6q20 -6 20 -24v-1q0 -11 -6.5 -18t-17.5 -7h-158q-11 0 -18 6.5t-7 18.5v1q0 18 21 24l21 6q15 4 21.5 13t6.5 25v509q0 13 -5.5 22.5t-18.5 19.5q-28 22 -67 34t-78 12q-53 0 -79 -26.5t-26 -74.5
q0 -50 26.5 -75t87.5 -25h17q11 0 17.5 -6.5t6.5 -17.5v-10q0 -11 -6.5 -17.5t-17.5 -6.5h-96q-5 0 -9 -3.5t-4 -8.5v-326q0 -17 6 -25.5t22 -12.5l21 -6q21 -6 21 -24v-2q0 -11 -6.5 -17.5t-17.5 -6.5h-159q-11 0 -17.5 6.5t-6.5 17.5v2q0 18 21 24l21 6q16 4 22 12.5
t6 25.5v326q0 5 -3.5 8.5t-8.5 3.5h-227q-5 0 -9 -3.5t-4 -8.5v-326q0 -17 6 -25.5t22 -12.5l21 -6q21 -6 21 -24v-2q0 -11 -6.5 -17.5t-17.5 -6.5h-159z" />
    <glyph glyph-name="f_f_l" unicode="ffl" horiz-adv-x="932" 
d="M74 0q-11 0 -17.5 6.5t-6.5 17.5v2q0 18 21 24l21 6q16 4 22 12.5t6 25.5v326q0 5 -3.5 8.5t-8.5 3.5h-37q-10 0 -16.5 7t-6.5 18v3q0 18 18 26l10 5q13 7 17 14t6 21l6 58q7 77 51.5 116.5t118.5 39.5q52 0 83 -15q17 -8 17 -20q0 -3 -4 -15l-18 -42q-7 -15 -19 -15
q-10 0 -25 12q-23 18 -40.5 27t-37.5 9q-30 0 -48 -23.5t-18 -65.5q0 -52 25 -77t83 -25h119q23 0 25 23l6 62q8 87 57 131t138 44q29 0 58 -6.5t51 -16.5l8 -2q3 0 9 2l43 19q8 4 16 4q22 0 22 -28v-628q0 -17 6 -25.5t22 -12.5l21 -6q21 -6 21 -24v-2q0 -11 -6.5 -17.5
t-17.5 -6.5h-159q-11 0 -17.5 6.5t-6.5 17.5v2q0 18 21 24l21 6q16 4 22 12.5t6 25.5v509q0 13 -5.5 22.5t-18.5 19.5q-28 22 -67 34t-78 12q-53 0 -79 -26.5t-26 -74.5q0 -50 26.5 -75t87.5 -25h17q11 0 17.5 -6.5t6.5 -17.5v-10q0 -11 -6.5 -17.5t-17.5 -6.5h-96
q-5 0 -9 -3.5t-4 -8.5v-326q0 -17 6 -25.5t22 -12.5l21 -6q21 -6 21 -24v-2q0 -11 -6.5 -17.5t-17.5 -6.5h-159q-11 0 -17.5 6.5t-6.5 17.5v2q0 18 21 24l21 6q16 4 22 12.5t6 25.5v326q0 5 -3.5 8.5t-8.5 3.5h-227q-5 0 -9 -3.5t-4 -8.5v-326q0 -17 6 -25.5t22 -12.5l21 -6
q21 -6 21 -24v-2q0 -11 -6.5 -17.5t-17.5 -6.5h-159z" />
    <glyph glyph-name="f_h" unicode="fh" horiz-adv-x="920" 
d="M74 0q-11 0 -17.5 6.5t-6.5 17.5v2q0 18 21 24l22 6q14 4 20.5 12.5t6.5 25.5v326q0 5 -3.5 8.5t-8.5 3.5h-37q-10 0 -16.5 7t-6.5 18v3q0 18 18 26l10 5q13 7 17 14t6 21l5 49q18 175 195 175q29 0 58 -6.5t51 -16.5l8 -2q3 0 9 2l43 19q8 4 16 4q22 0 22 -28v-271
q0 -10 9 -10q4 0 8 3l14 9q75 48 154 48q61 0 93 -36t32 -103v-268q0 -17 6 -25.5t22 -12.5l21 -6q21 -6 21 -24v-2q0 -11 -6.5 -17.5t-17.5 -6.5h-91q-11 0 -17.5 6.5t-6.5 17.5v318q0 51 -15.5 74t-56.5 23q-39 0 -78.5 -12.5t-66.5 -28.5q-14 -8 -19 -17t-5 -24v-263
q0 -17 6 -25.5t22 -12.5l21 -6q21 -6 21 -24v-2q0 -11 -6.5 -17.5t-17.5 -6.5h-159q-11 0 -17.5 6.5t-6.5 17.5v2q0 18 21 24l21 6q16 4 22 12.5t6 25.5v509q0 13 -5.5 22.5t-18.5 19.5q-28 22 -67 34t-78 12q-53 0 -79 -26.5t-26 -74.5q0 -50 26.5 -75t87.5 -25h17
q11 0 17.5 -6.5t6.5 -17.5v-10q0 -11 -6.5 -17.5t-17.5 -6.5h-96q-5 0 -9 -3.5t-4 -8.5v-326q0 -16 6.5 -25.5t21.5 -12.5l32 -6q20 -4 20 -24v-2q0 -11 -6.5 -17.5t-17.5 -6.5h-169z" />
    <glyph glyph-name="f_i" unicode="fi" horiz-adv-x="613" 
d="M74 0q-11 0 -17.5 6.5t-6.5 17.5v2q0 18 21 24l21 6q16 4 22 12.5t6 25.5v326q0 5 -3.5 8.5t-8.5 3.5h-37q-10 0 -16.5 7t-6.5 18v3q0 18 18 26l10 5q13 7 17 14t6 21l4 43q8 92 56 136.5t140 44.5q38 0 73.5 -9.5t55.5 -19.5q17 -9 17 -21q0 -2 -4 -14l-18 -42
q-7 -15 -19 -15q-10 0 -25 12q-64 50 -125 50q-42 0 -65.5 -25t-23.5 -76q0 -50 26 -75t83 -25h172q7 0 15 3l7 3q8 4 17 4q10 0 15.5 -7.5t5.5 -20.5v-378q0 -17 6 -25.5t22 -12.5l21 -6q21 -6 21 -24v-2q0 -11 -6.5 -17.5t-17.5 -6.5h-159q-11 0 -17.5 6.5t-6.5 17.5v2
q0 18 21 24l21 6q16 4 22 12.5t6 25.5v326q0 5 -3.5 8.5t-8.5 3.5h-227q-5 0 -9 -3.5t-4 -8.5v-326q0 -17 6 -25.5t22 -12.5l21 -6q21 -6 21 -24v-2q0 -11 -6.5 -17.5t-17.5 -6.5h-159z" />
    <glyph glyph-name="f_j" unicode="fj" horiz-adv-x="606" 
d="M340.5 -220q-9.5 6 -9.5 18q0 8 3.5 12t12.5 7q52 17 72 46.5t20 79.5v477q0 5 -3.5 8.5t-8.5 3.5h-227q-5 0 -9 -3.5t-4 -8.5v-326q0 -17 6 -25.5t22 -12.5l21 -6q21 -6 21 -24v-2q0 -11 -6.5 -17.5t-17.5 -6.5h-159q-11 0 -17.5 6.5t-6.5 17.5v2q0 18 21 24l21 6
q16 4 22 12.5t6 25.5v326q0 5 -3.5 8.5t-8.5 3.5h-37q-10 0 -16.5 7t-6.5 18v3q0 18 18 26l10 5q13 7 17 14t6 21l4 43q8 92 56 136.5t140 44.5q38 0 73.5 -9.5t55.5 -19.5q17 -9 17 -21q0 -2 -4 -14l-18 -42q-7 -15 -19 -15q-10 0 -25 12q-64 50 -125 50q-42 0 -65.5 -25
t-23.5 -76q0 -50 26 -75t83 -25h172q7 0 15 3l7 3q8 4 17 4q10 0 15.5 -7.5t5.5 -20.5v-540q0 -49 -19.5 -84.5t-52 -54.5t-70.5 -19q-14 0 -23.5 6z" />
    <glyph glyph-name="f_k" unicode="fk" horiz-adv-x="883" 
d="M74 0q-11 0 -17.5 6.5t-6.5 17.5v2q0 18 21 24l21 6q16 4 22 12.5t6 25.5v326q0 5 -3.5 8.5t-8.5 3.5h-37q-10 0 -16.5 7t-6.5 18v3q0 18 18 26l10 5q13 7 17 14t6 21l5 49q18 175 195 175q29 0 58 -6.5t51 -16.5l8 -2q3 0 9 2l43 19q8 4 16 4q22 0 22 -28v-448
q0 -5 2.5 -8t6.5 -3t8 4l160 147q6 5 6 11q0 7 -9 10l-24 9q-15 5 -15 20v2q0 11 7 17.5t18 6.5h168q24 0 24 -24v-2q0 -10 -3.5 -15.5t-12.5 -8.5l-35 -11q-38 -12 -93 -62l-69 -62q-4 -4 -4 -8q0 -3 3 -8l116 -169q23 -34 34.5 -45t31.5 -17l25 -7q22 -6 22 -25v-1
q0 -12 -7 -18.5t-18 -6.5h-68q-17 0 -29 16l-156 226q-4 6 -9 6t-9 -4l-64 -58q-7 -7 -7 -16v-76q0 -15 6 -24.5t22 -13.5l22 -6q20 -6 20 -24v-1q0 -11 -6.5 -18t-17.5 -7h-158q-11 0 -18 6.5t-7 18.5v1q0 18 21 24l21 6q15 4 21.5 13t6.5 25v509q0 13 -5.5 22.5
t-18.5 19.5q-28 22 -67 34t-78 12q-53 0 -79 -26.5t-26 -74.5q0 -50 26.5 -75t87.5 -25h17q11 0 17.5 -6.5t6.5 -17.5v-10q0 -11 -6.5 -17.5t-17.5 -6.5h-96q-5 0 -9 -3.5t-4 -8.5v-326q0 -17 6 -25.5t22 -12.5l21 -6q21 -6 21 -24v-2q0 -11 -6.5 -17.5t-17.5 -6.5h-159z
" />
    <glyph glyph-name="f_l" unicode="fl" horiz-adv-x="613" 
d="M74 0q-11 0 -17.5 6.5t-6.5 17.5v2q0 18 21 24l21 6q16 4 22 12.5t6 25.5v326q0 5 -3.5 8.5t-8.5 3.5h-37q-10 0 -16.5 7t-6.5 18v3q0 18 18 26l10 5q13 7 17 14t6 21l5 49q18 175 195 175q29 0 58 -6.5t51 -16.5l8 -2q3 0 9 2l43 19q8 4 16 4q22 0 22 -28v-628
q0 -17 6 -25.5t22 -12.5l21 -6q21 -6 21 -24v-2q0 -11 -6.5 -17.5t-17.5 -6.5h-159q-11 0 -17.5 6.5t-6.5 17.5v2q0 18 21 24l21 6q16 4 22 12.5t6 25.5v509q0 13 -5.5 22.5t-18.5 19.5q-28 22 -67 34t-78 12q-53 0 -79 -26.5t-26 -74.5q0 -50 26.5 -75t87.5 -25h17
q11 0 17.5 -6.5t6.5 -17.5v-10q0 -11 -6.5 -17.5t-17.5 -6.5h-96q-5 0 -9 -3.5t-4 -8.5v-326q0 -17 6 -25.5t22 -12.5l21 -6q21 -6 21 -24v-2q0 -11 -6.5 -17.5t-17.5 -6.5h-159z" />
    <glyph glyph-name=".notdef" horiz-adv-x="940" 
d="M124 0q-11 0 -17.5 6.5t-6.5 17.5v692q0 11 6.5 17.5t17.5 6.5h692q11 0 17.5 -6.5t6.5 -17.5v-692q0 -11 -6.5 -17.5t-17.5 -6.5h-692zM776 46q5 0 8.5 3.5t3.5 8.5v624q0 5 -3.5 8.5t-8.5 3.5h-612q-5 0 -8.5 -3.5t-3.5 -8.5v-624q0 -5 3.5 -8.5t8.5 -3.5h612zM622 215
q-7 -7 -17 -7q-9 0 -17 7l-110 110q-3 4 -8 4q-4 0 -8 -4l-110 -110q-7 -7 -17 -7q-9 0 -17 7l-3 3q-7 8 -7 17q0 10 7 17l110 110q5 5 5 8t-5 8l-110 110q-7 8 -7 17q0 10 7 17l3 3q10 8 17 8q9 0 17 -8l110 -110q6 -4 8 -4q4 0 8 4l110 110q10 8 17 8q9 0 17 -8l3 -3
q8 -8 8 -17q0 -7 -8 -17l-110 -110q-4 -4 -4 -8t4 -8l110 -110q8 -8 8 -17q0 -7 -8 -17z" />
    <glyph glyph-name=".null" horiz-adv-x="0" 
 />
    <glyph glyph-name="nonmarkingreturn" unicode="&#xd;" horiz-adv-x="190" 
 />
    <glyph glyph-name="space" unicode=" " horiz-adv-x="190" 
 />
    <glyph glyph-name="exclam" unicode="!" horiz-adv-x="308" 
d="M151 203q-21 0 -22 21q-14 206 -14 386v66q0 11 6.5 17.5t17.5 6.5h30q11 0 17.5 -6.5t6.5 -17.5v-65q0 -183 -14 -387q-1 -21 -22 -21h-6zM111 6.5q-17 16.5 -17 41.5t17 41.5t43 16.5t43 -16.5t17 -41.5t-17 -41.5t-43 -16.5t-43 16.5z" />
    <glyph glyph-name="quotedbl" unicode="&#x22;" horiz-adv-x="364" 
d="M102 522q-22 0 -24 24l-8 170q-1 11 6 17.5t18 6.5h26q11 0 18 -6.5t6 -17.5l-8 -170q-2 -24 -24 -24h-10zM252 522q-22 0 -24 24l-8 170q-1 11 6 17.5t18 6.5h26q11 0 18 -6.5t6 -17.5l-8 -170q-2 -24 -24 -24h-10z" />
    <glyph glyph-name="numbersign" unicode="#" horiz-adv-x="642" 
d="M593 476q10 0 15 -6.5t3 -17.5l-2 -10q-5 -23 -25 -23h-102q-12 0 -13 -11l-20 -114v-3q0 -10 11 -10h98q10 0 15 -6.5t3 -17.5l-2 -10q-5 -23 -25 -23h-101q-12 0 -13 -11l-34 -191q-1 -10 -8 -16t-18 -6h-16q-11 0 -16.5 6.5t-3.5 19.5l33 185v2q0 11 -11 11h-126
q-12 0 -13 -11l-34 -191q-1 -10 -8 -16t-18 -6h-16q-11 0 -16.5 6.5t-3.5 19.5l33 185v2q0 11 -11 11h-99q-10 0 -15 6t-3 17l2 10q5 24 25 24h102q12 0 13 11l20 114v3q0 10 -11 10h-98q-10 0 -15 6t-3 17l2 10q5 24 25 24h101q12 0 13 11l34 191q1 10 8 16t18 6h16
q11 0 16.5 -6.5t3.5 -19.5l-33 -185v-2q0 -11 11 -11h126q12 0 13 11l34 191q1 10 8 16t18 6h16q11 0 16.5 -6.5t3.5 -19.5l-33 -185v-2q0 -11 11 -11h99zM373 281q12 0 13 11l20 114v3q0 10 -11 10h-126q-12 0 -13 -11l-20 -114v-3q0 -10 11 -10h126z" />
    <glyph glyph-name="dollar" unicode="$" horiz-adv-x="633" 
d="M310 -130q-11 0 -17.5 6.5t-6.5 17.5v93q0 10 -11 13q-31 7 -50 7q-13 0 -38 -9q-16 -7 -28 -7h-5q-10 0 -17 6t-14 19l-79 163q-4 8 -4 16q0 15 16 23l4 2q10 5 17 5q12 0 23 -17q44 -74 111.5 -117t137.5 -43q72 0 110.5 33t38.5 91q0 55 -35.5 88.5t-107.5 57.5
l-116 39q-84 28 -128.5 68.5t-44.5 113.5q0 69 49 116.5t140 54.5q9 1 12 3.5t3 8.5v84q0 11 6.5 17.5t17.5 6.5h16q11 0 17.5 -6.5t6.5 -17.5v-91q0 -10 11 -13q20 -5 37 -5q18 0 35.5 6.5t23.5 6.5h4q10 0 14.5 -4.5t10.5 -16.5l72 -151q2 -6 2 -9q0 -11 -13 -20l-3 -2
q-8 -5 -16 -5q-13 0 -20 10q-62 76 -110 109t-105 33q-65 0 -99.5 -29t-34.5 -79q0 -42 32.5 -70t95.5 -50l116 -39q88 -29 140 -75t52 -132q0 -88 -60 -139t-156 -51q-13 0 -13 -12v-84q0 -11 -6.5 -17.5t-17.5 -6.5h-16z" />
    <glyph glyph-name="percent" unicode="%" horiz-adv-x="916" 
d="M132.5 373q-40.5 23 -63.5 64t-23 93t23 93t63.5 64t90.5 23t90.5 -23t63.5 -64t23 -93t-23 -93t-63.5 -64t-90.5 -23t-90.5 23zM479 385q-9 6 -9 16q0 7 5 15l188 281q7 12 20 12q7 0 15 -5l22 -16q11 -8 11 -18q0 -8 -6 -16l-211 -266q-9 -10 -18 -10q-6 0 -14 5z
M305.5 435q28.5 30 28.5 83q0 60 -31.5 98.5t-86.5 38.5q-47 0 -75.5 -30t-28.5 -83q0 -59 32 -98t86 -39q47 0 75.5 30zM602.5 13q-40.5 23 -63.5 64t-23 93t23 93t63.5 64t90.5 23t90.5 -23t63.5 -64t23 -93t-23 -93t-63.5 -64t-90.5 -23t-90.5 23zM195 13q-11 8 -11 18
q0 9 6 16l211 266q9 10 18 10q6 0 14 -5l3 -2q9 -6 9 -16q0 -7 -5 -15l-188 -281q-7 -12 -20 -12q-7 0 -15 5zM775.5 75q28.5 30 28.5 83q0 60 -31.5 98.5t-86.5 38.5q-47 0 -75.5 -30t-28.5 -83q0 -59 32 -98t86 -39q47 0 75.5 30z" />
    <glyph glyph-name="ampersand" unicode="&#x26;" horiz-adv-x="747" 
d="M117.5 41.5q-67.5 51.5 -67.5 155.5q0 67 35.5 119.5t111.5 95.5q12 7 6 14q-29 36 -41.5 68t-12.5 69q0 68 44 107.5t119 39.5q57 0 107 -26q23 -11 25 -30l14 -91q1 -4 1 -10q0 -15 -16 -19l-4 -1q-3 -1 -9 -1q-7 0 -11.5 4.5t-8.5 14.5q-20 53 -46.5 78t-60.5 25
q-37 0 -58.5 -20.5t-21.5 -56.5q0 -57 68 -137l211 -247q2 -2 4.5 -1.5t4.5 3.5q25 50 35 103q1 5 1 13q0 10 -4.5 15.5t-14.5 9.5l-28 10q-10 4 -15 10t-5 17v2q0 11 6.5 17.5t17.5 6.5h165q11 0 17.5 -6.5t6.5 -17.5v-2q0 -11 -5 -17t-15 -10l-27 -10q-13 -5 -20 -13.5
t-11 -24.5q-23 -93 -61 -157q-3 -5 1 -9q30 -32 56 -48t67 -27l25 -7q20 -6 20 -24v-2q0 -11 -6.5 -17.5t-17.5 -6.5h-108q-13 0 -23.5 4.5t-21.5 17.5l-39 46q-5 6 -10 1q-39 -38 -92.5 -58.5t-117.5 -20.5q-102 0 -169.5 51.5zM387 73q39 16 68 45q5 5 1 10l-204 240
q-5 5 -9 5q-6 0 -14 -6q-54 -38 -75.5 -73t-21.5 -86q0 -70 47 -110.5t124 -40.5q45 0 84 16z" />
    <glyph glyph-name="quotesingle" unicode="'" horiz-adv-x="214" 
d="M102 522q-22 0 -24 24l-8 170q-1 11 6 17.5t18 6.5h26q11 0 18 -6.5t6 -17.5l-8 -170q-2 -24 -24 -24h-10z" />
    <glyph glyph-name="parenleft" unicode="(" horiz-adv-x="329" 
d="M244 -180q-12 0 -20 12q-65 94 -100.5 204.5t-35.5 248.5t35.5 248.5t100.5 204.5q8 12 20 12q7 0 15 -5q10 -7 10 -17q0 -7 -5 -17q-44 -77 -72.5 -188t-28.5 -238t28.5 -238t72.5 -188q5 -10 5 -17q0 -10 -10 -17q-8 -5 -15 -5z" />
    <glyph glyph-name="parenright" unicode=")" horiz-adv-x="329" 
d="M60 -158q0 7 5 17q44 77 72.5 188t28.5 238t-28.5 238t-72.5 188q-5 10 -5 17q0 10 10 17q8 5 15 5q13 0 20 -12q65 -94 100.5 -204.5t35.5 -248.5t-35.5 -248.5t-100.5 -204.5q-7 -12 -20 -12q-7 0 -15 5q-10 7 -10 17z" />
    <glyph glyph-name="asterisk" unicode="*" horiz-adv-x="450" 
d="M211 370q-22 0 -19 23l14 119v2q0 4 -2.5 5t-5.5 -2l-97 -72q-6 -5 -14 -5q-9 0 -15 10l-14 25q-4 5 -4 12q0 11 14 16l110 47q5 2 5 5t-5 5l-110 47q-14 5 -14 16q0 7 4 12l14 25q6 11 15 11q6 0 14 -6l97 -72q4 -2 6.5 -0.5t1.5 5.5l-15 119v5q0 18 20 18h28
q23 0 20 -23l-15 -119v-2q0 -3 2.5 -4t5.5 1l96 72q8 6 15 6q9 0 15 -11l14 -25q4 -5 4 -12q0 -11 -14 -16l-110 -47q-4 -2 -4 -5t4 -5l110 -47q14 -5 14 -16q0 -7 -4 -12l-14 -25q-6 -10 -15 -10q-8 0 -14 5l-97 72q-4 3 -6.5 1.5t-1.5 -6.5l14 -119v-5q0 -18 -19 -18h-28z
" />
    <glyph glyph-name="plus" unicode="+" horiz-adv-x="654" 
d="M319 95q-11 0 -17.5 6.5t-6.5 17.5v162q0 5 -3.5 8.5t-8.5 3.5h-159q-11 0 -17.5 6.5t-6.5 17.5v10q0 11 6.5 17.5t17.5 6.5h159q5 0 8.5 3.5t3.5 8.5v162q0 11 6.5 17.5t17.5 6.5h16q11 0 17.5 -6.5t6.5 -17.5v-162q0 -5 3.5 -8.5t8.5 -3.5h159q11 0 17.5 -6.5
t6.5 -17.5v-10q0 -11 -6.5 -17.5t-17.5 -6.5h-159q-5 0 -8.5 -3.5t-3.5 -8.5v-162q0 -11 -6.5 -17.5t-17.5 -6.5h-16z" />
    <glyph glyph-name="comma" unicode="," horiz-adv-x="293" 
d="M100 -121q-14 0 -19 13q-2 6 -2 9q0 12 13 18q31 15 45 30t14 36q0 10 -8 10l-11 -1q-20 0 -35 15t-15 39t17 41t43 17q29 0 49 -21t20 -59q0 -60 -27 -96t-72 -49q-8 -2 -12 -2z" />
    <glyph glyph-name="hyphen" unicode="-" horiz-adv-x="382" 
d="M78 271q-11 0 -17.5 6.5t-6.5 17.5v14q0 11 6.5 17.5t17.5 6.5h226q11 0 17.5 -6.5t6.5 -17.5v-14q0 -11 -6.5 -17.5t-17.5 -6.5h-226z" />
    <glyph glyph-name="period" unicode="." horiz-adv-x="284" 
d="M99 6.5q-17 16.5 -17 41.5t17 41.5t43 16.5t43 -16.5t17 -41.5t-17 -41.5t-43 -16.5t-43 16.5z" />
    <glyph glyph-name="slash" unicode="/" horiz-adv-x="372" 
d="M49 -144q-9 0 -14 4.5t-5 12.5q0 2 2 10l246 837q6 20 27 20h18q9 0 14 -4.5t5 -12.5q0 -4 -2 -10l-246 -837q-6 -20 -27 -20h-18z" />
    <glyph glyph-name="zero" unicode="0" horiz-adv-x="674" 
d="M197 32q-63 42 -100 123.5t-37 194.5t37 194.5t100 123.5t140 42t140 -42t100 -123.5t37 -194.5t-37 -194.5t-100 -123.5t-140 -42t-140 42zM485.5 125q50.5 65 50.5 192q0 102 -29 175t-78 110.5t-107 37.5q-83 0 -133.5 -65t-50.5 -192q0 -102 29 -175t78 -110.5
t107 -37.5q83 0 133.5 65z" />
    <glyph glyph-name="one" unicode="1" horiz-adv-x="387" 
d="M77 0q-11 0 -17.5 6.5t-6.5 17.5v2q0 22 20 27l71 14q15 3 21 11.5t6 24.5v465q0 19 -15 19q-7 0 -14 -3l-73 -27q-9 -3 -17 -3q-16 0 -21 13l-1 2q-4 8 -4 16q0 11 13 20l142 85q8 5 14.5 7.5t13.5 2.5h10q11 0 17.5 -6.5t6.5 -17.5v-573q0 -16 6 -24t21 -12l61 -14
q20 -5 20 -27v-2q0 -11 -6.5 -17.5t-17.5 -6.5h-250z" />
    <glyph glyph-name="two" unicode="2" horiz-adv-x="569" 
d="M445 -20q-8 0 -13.5 2t-13.5 8q-9 5 -19 7.5t-27 2.5h-310q-11 0 -17.5 6.5t-6.5 17.5v10q0 25 15 37q180 149 262.5 258t82.5 194q0 56 -32.5 91t-90.5 35q-48 0 -90.5 -35t-91.5 -116q-8 -14 -19 -14q-6 0 -13 3l-3 1q-17 6 -17 21q0 3 2 11l44 135q4 11 10 16.5
t17 9.5q29 11 75.5 20t86.5 9q95 0 149.5 -49.5t54.5 -137.5q0 -67 -39.5 -134.5t-108.5 -138t-187 -173.5q-5 -5 -5 -8q0 -7 10 -7h123q48 0 78.5 10t54 33t49.5 67q5 9 10.5 13t12.5 4l12 -2l4 -1q17 -4 17 -19q0 -4 -2 -14l-38 -154q-2 -9 -8.5 -14t-14.5 -5h-3z" />
    <glyph glyph-name="three" unicode="3" horiz-adv-x="562" 
d="M160 5.5q-46 15.5 -76.5 39.5t-41.5 49q-4 9 -4 18q0 17 14 25q8 5 17 5q14 0 22 -11q30 -35 69 -54.5t97 -19.5q77 0 119.5 42.5t42.5 114.5q0 135 -152 168l-6 1q-9 0 -17 -8l-30 -27q-7 -7 -16 -7q-8 0 -16 8l-6 6q-7 7 -7 16q0 8 8 18l214 236q4 4 4 8q0 7 -10 7
h-121q-39 0 -63 -8.5t-44.5 -29.5t-48.5 -65q-11 -17 -24 -17q-8 0 -15 4l-2 1q-16 9 -16 21q0 6 3 13l57 142q8 19 23 19h3q8 0 13.5 -2t13.5 -8q9 -5 19 -7.5t27 -2.5h260q11 0 17.5 -6.5t6.5 -17.5v-13q0 -14 -13 -29l-168 -190q-4 -4 -4 -8q0 -6 10 -7q89 -17 136 -76
t47 -142q0 -104 -64.5 -162.5t-174.5 -58.5q-57 0 -103 15.5z" />
    <glyph glyph-name="four" unicode="4" horiz-adv-x="584" 
d="M295 0q-11 0 -17.5 6.5t-6.5 17.5v2q0 11 5 17t15 10l31 11q15 5 21 13t6 24v95q0 5 -3.5 8.5t-8.5 3.5h-289q-11 0 -17.5 5.5t-6.5 15.5v10q0 14 9 26l316 419q7 9 13.5 12.5t17.5 3.5h91q11 0 17.5 -6.5t6.5 -17.5v-2q0 -11 -5 -17t-15 -10l-27 -10q-15 -5 -21 -13
t-6 -24v-322q0 -5 3.5 -8.5t8.5 -3.5h79q11 0 17.5 -6.5t6.5 -17.5v-10q0 -11 -6.5 -17.5t-17.5 -6.5h-79q-5 0 -8.5 -3.5t-3.5 -8.5v-95q0 -16 6 -24t21 -13l31 -11q10 -4 15 -10t5 -17v-2q0 -11 -6.5 -17.5t-17.5 -6.5h-180zM337 266q5 0 8.5 3.5t3.5 8.5v282q0 4 -2 7
t-4 3q-4 0 -9 -6l-213 -283q-3 -3 -3 -7t3 -6t8 -2h208z" />
    <glyph glyph-name="five" unicode="5" horiz-adv-x="554" 
d="M129 20q-59 30 -79 69q-6 12 -6 22q0 16 15 26q8 5 16 5q14 0 22 -11q63 -74 163 -74q77 0 120 45.5t43 122.5q0 79 -47 125t-125 46q-61 0 -108 -23q-9 -5 -12 -17l-7 -26q-6 -21 -29 -16l-13 3q-22 4 -18 26l68 335q4 22 26 22h217q17 0 27 2.5t19 7.5q14 10 27 10h4
q9 0 14 -5.5t4 -14.5l-7 -46q-3 -22 -26 -22h-238q-10 0 -13 -11l-36 -168v-3q0 -8 7 -8q3 0 9 2q48 14 102 14q75 0 128.5 -30t81.5 -82t28 -119q0 -74 -30 -127.5t-83.5 -81.5t-123.5 -28q-81 0 -140 30z" />
    <glyph glyph-name="six" unicode="6" horiz-adv-x="589" 
d="M173.5 26q-56.5 36 -86 102t-29.5 153q0 109 44 196t118 145t164 85q9 3 18 3q13 0 21 -7.5t8 -22.5q0 -19 -25 -27q-100 -34 -159 -96t-88 -148l-1 -4q0 -4 4 -4.5t8 2.5q35 29 74 45t88 16q60 0 109 -29.5t77.5 -83.5t28.5 -124q0 -71 -30 -125t-84 -83t-125 -29
q-78 0 -134.5 36zM433 99q41 42 41 116q0 53 -22 94t-62 64.5t-92 23.5q-73 0 -114 -42t-41 -116q0 -53 22 -94t62 -64.5t92 -23.5q73 0 114 42z" />
    <glyph glyph-name="seven" unicode="7" horiz-adv-x="533" 
d="M178 0q-10 0 -16 4.5t-6 12.5q0 3 2 9q152 405 255 598q2 4 2 7q0 7 -8 7h-134q-71 0 -110 -23t-74 -87q-10 -17 -22 -17l-12 2l-4 1q-9 2 -13 6.5t-4 12.5q0 9 2 14l44 154q2 9 8.5 14t14.5 5h3q8 0 13.5 -2t13.5 -8q9 -5 19 -7.5t27 -2.5h292q11 0 17.5 -6.5t6.5 -17.5
v-11q0 -11 -6.5 -22t-8.5 -15q-52 -94 -119.5 -265t-112.5 -341q-6 -22 -26 -22h-44z" />
    <glyph glyph-name="eight" unicode="8" horiz-adv-x="584" 
d="M166.5 13.5q-55.5 23.5 -86 66.5t-30.5 102q0 122 134 182q7 3 7.5 7t-4.5 7q-45 27 -70.5 66.5t-25.5 87.5q0 51 25.5 91.5t71 63.5t105.5 23q94 0 148.5 -46t54.5 -119q0 -100 -109 -163q-5 -3 -5 -7t7 -7q78 -34 112.5 -77.5t34.5 -108.5q0 -59 -32.5 -102.5
t-88 -66.5t-122.5 -23q-71 0 -126.5 23.5zM312 400q7 0 14 4q95 52 95 138q0 49 -33.5 80t-94.5 31q-59 0 -93 -29.5t-34 -78.5q0 -46 30 -79t99 -62q9 -4 17 -4zM410 87.5q41 33.5 41 87.5q0 52 -36 89.5t-128 71.5q-7 3 -14 3q-4 0 -18 -4q-69 -23 -98 -59.5t-29 -86.5
q0 -60 43.5 -97.5t121.5 -37.5q76 0 117 33.5z" />
    <glyph glyph-name="nine" unicode="9" horiz-adv-x="589" 
d="M187 -10q-13 0 -21 7.5t-8 22.5q0 19 25 27q100 34 159 96t88 148l1 4q0 4 -4 4.5t-8 -2.5q-35 -29 -74 -45t-88 -16q-60 0 -109 29.5t-77.5 83.5t-28.5 124q0 71 30 125t84 83t125 29q77 0 133.5 -36t86.5 -102t30 -153q0 -109 -44 -196t-118 -145t-164 -85
q-9 -3 -18 -3zM405 345q41 42 41 116q0 53 -22 94t-62 64.5t-92 23.5q-73 0 -114 -42t-41 -116q0 -53 22 -94t62 -64.5t92 -23.5q73 0 114 42z" />
    <glyph glyph-name="colon" unicode=":" horiz-adv-x="284" 
d="M99 396.5q-17 16.5 -17 41.5t17 41.5t43 16.5t43 -16.5t17 -41.5t-17 -41.5t-43 -16.5t-43 16.5zM99 6.5q-17 16.5 -17 41.5t17 41.5t43 16.5t43 -16.5t17 -41.5t-17 -41.5t-43 -16.5t-43 16.5z" />
    <glyph glyph-name="semicolon" unicode=";" horiz-adv-x="296" 
d="M106 396.5q-17 16.5 -17 41.5t17 41.5t43 16.5t43 -16.5t17 -41.5t-17 -41.5t-43 -16.5t-43 16.5zM103 -121q-14 0 -19 13q-2 6 -2 9q0 12 13 18q31 15 45 30t14 36q0 10 -8 10l-11 -1q-20 0 -35 15t-15 39t17 41t43 17q29 0 49 -21t20 -59q0 -60 -27 -96t-72 -49
q-8 -2 -12 -2z" />
    <glyph glyph-name="less" unicode="&#x3c;" horiz-adv-x="652" 
d="M544 139q0 -18 -14 -18q-8 0 -12 2l-399 160q-19 7 -19 27v24q0 20 19 27l399 160q4 2 12 2q14 0 14 -18v-25q0 -10 -4.5 -16t-14.5 -10l-326 -125q-6 -1 -6 -7q0 -4 6 -7l326 -125q10 -4 14.5 -10t4.5 -16v-25z" />
    <glyph glyph-name="equal" unicode="=" horiz-adv-x="654" 
d="M124 393q-11 0 -17.5 6.5t-6.5 17.5v10q0 11 6.5 17.5t17.5 6.5h406q11 0 17.5 -6.5t6.5 -17.5v-10q0 -11 -6.5 -17.5t-17.5 -6.5h-406zM124 193q-11 0 -17.5 6.5t-6.5 17.5v10q0 11 6.5 17.5t17.5 6.5h406q11 0 17.5 -6.5t6.5 -17.5v-10q0 -11 -6.5 -17.5t-17.5 -6.5
h-406z" />
    <glyph glyph-name="greater" unicode="&#x3e;" horiz-adv-x="652" 
d="M108 164q0 10 4.5 16t14.5 10l326 125q6 3 6 7q0 6 -6 7l-326 125q-10 4 -14.5 10t-4.5 16v25q0 18 14 18q8 0 12 -2l399 -160q19 -7 19 -27v-24q0 -20 -19 -27l-399 -160q-4 -2 -12 -2q-14 0 -14 18v25z" />
    <glyph glyph-name="question" unicode="?" horiz-adv-x="512" 
d="M198 226q0 11 9 21l28 35q56 70 83.5 108.5t43.5 75t16 72.5q0 52 -29.5 81.5t-88.5 29.5q-46 0 -82.5 -31t-76.5 -102q-8 -15 -19 -15q-5 0 -13 3l-3 1q-18 6 -18 21q0 3 2 11l33 122q3 10 9.5 16t18.5 10q24 9 74 17t76 8q95 0 147 -43t52 -123q0 -54 -27 -106
t-66.5 -98t-120.5 -130q-10 -10 -20 -10q-9 0 -19 8q-9 8 -9 18zM185 6.5q-17 16.5 -17 41.5t17 41.5t43 16.5t43 -16.5t17 -41.5t-17 -41.5t-43 -16.5t-43 16.5z" />
    <glyph glyph-name="at" unicode="@" horiz-adv-x="945" 
d="M238.5 -138.5q-85.5 44.5 -132 129t-46.5 201.5q0 139 59.5 249.5t166.5 173.5t246 63q110 0 192.5 -45.5t126.5 -125t44 -178.5q0 -89 -30 -162.5t-82 -116t-113 -42.5q-83 0 -104 68q-3 9 -9 9q-5 0 -10 -6q-53 -71 -130 -71q-63 0 -105.5 45.5t-42.5 134.5
q0 85 35 153t92.5 106.5t122.5 38.5q24 0 55 -9q15 -5 23 -5q13 0 22 4l9 4q2 1 7.5 3.5t13.5 2.5q9 0 14 -6.5t4 -17.5l-38 -336q-1 -6 -1 -17q0 -50 47 -50q41 0 76.5 34t56.5 92.5t21 128.5q0 88 -38 157.5t-109.5 109.5t-167.5 40q-113 0 -200 -55t-135.5 -150
t-48.5 -212q0 -103 41 -176.5t112 -111t160 -37.5q58 0 111.5 14t94.5 37q12 6 21 6q11 0 18 -10q5 -8 5 -16q0 -14 -14 -24q-41 -30 -106.5 -49.5t-135.5 -19.5q-113 0 -198.5 44.5zM532 126q42 54 54 166l10 95q4 32 -30 41q-24 6 -41 6q-49 0 -90.5 -29t-66 -81.5
t-24.5 -120.5q0 -66 24 -98.5t69 -32.5q53 0 95 54z" />
    <glyph glyph-name="A" unicode="A" horiz-adv-x="688" 
d="M42 0q-11 0 -17.5 6.5t-6.5 17.5v2q0 10 4 15t14 9l22 8q20 7 30.5 18t17.5 29l180 477q3 9 3 17q0 21 -24 30l-36 13q-23 8 -23 24q0 6 1 9l1 4q6 21 28 21h102q24 0 31 -21l220 -563q10 -24 21 -36.5t29 -20.5l21 -9q18 -7 18 -24v-2q0 -11 -6.5 -17.5t-17.5 -6.5h-168
q-11 0 -17.5 6.5t-6.5 17.5v2q0 17 18 23l20 7q13 4 18 9t5 12q0 8 -4 17l-36 98q-3 10 -14 10h-250q-10 0 -13 -10l-34 -92q-3 -9 -3 -15q0 -20 29 -30l20 -7q18 -6 18 -22v-2q0 -11 -6.5 -17.5t-17.5 -6.5h-170zM443 258q15 0 10 14l-103 273q-3 8 -8 8t-8 -8l-100 -273
q-1 -2 -1 -5q0 -9 11 -9h199z" />
    <glyph glyph-name="B" unicode="B" horiz-adv-x="654" 
d="M76 0q-11 0 -17.5 6.5t-6.5 17.5v2q0 11 5 17t15 10l31 11q15 5 21 13t6 24v493q0 16 -6 24t-21 13l-31 11q-10 4 -15 10t-5 17v2q0 10 6.5 16t17.5 8q95 11 190 11t159.5 -25t96 -67.5t31.5 -96.5q0 -77 -78 -122q-5 -3 -5 -6q0 -4 6 -7q66 -28 99 -77.5t33 -109.5
q0 -90 -59.5 -142.5t-160.5 -52.5h-312zM362 412q55 -2 85.5 24t30.5 71q0 70 -55.5 107t-145.5 37q-24 0 -46 -3q-16 -2 -22.5 -10.5t-6.5 -23.5v-183q0 -5 3.5 -9t8.5 -4zM369 56q74 0 115.5 36t41.5 99q0 73 -49.5 117.5t-138.5 48.5l-124 5q-12 0 -12 -12v-249
q0 -22 11.5 -33.5t33.5 -11.5h122z" />
    <glyph glyph-name="C" unicode="C" horiz-adv-x="678" 
d="M217 34q-78 44 -122.5 128t-44.5 198q0 101 39 179.5t110.5 122.5t165.5 44q25 0 70 -9q7 -1 19.5 -3t19.5 -2q21 0 38 5.5t23 5.5h3q10 0 16 -5.5t12 -17.5l70 -154q4 -9 4 -16q0 -9 -12 -18l-3 -2q-8 -5 -16 -5q-12 0 -20 11q-42 53 -73.5 84t-69 48t-85.5 17
q-65 0 -117.5 -31t-83.5 -89.5t-31 -136.5q0 -94 34.5 -166.5t98 -113t146.5 -40.5q64 0 107 19.5t76 52.5q17 17 31 17q6 0 12 -3q16 -7 16 -25q0 -23 -31.5 -56.5t-89.5 -58t-134 -24.5q-100 0 -178 44z" />
    <glyph glyph-name="D" unicode="D" horiz-adv-x="732" 
d="M76 0q-11 0 -17.5 6.5t-6.5 17.5v2q0 11 5 17t15 10l31 11q15 5 21 13t6 24v493q0 16 -6 24t-21 13l-31 11q-10 4 -15 10t-5 17v2q0 10 6.5 16t17.5 8q83 11 183 11q133 0 228 -51.5t144 -140.5t49 -199q0 -97 -39 -168.5t-107 -109t-152 -37.5h-306zM318 56
q135 0 206.5 67.5t71.5 197.5q0 95 -41 169.5t-110 115.5t-148 41q-26 0 -50 -4q-26 -4 -35.5 -14.5t-9.5 -33.5v-494q0 -22 11.5 -33.5t33.5 -11.5h71z" />
    <glyph glyph-name="E" unicode="E" horiz-adv-x="649" 
d="M532 -18q-11 0 -27 8q-10 5 -16.5 7.5t-16.5 2.5h-396q-11 0 -17.5 6.5t-6.5 17.5v2q0 11 5 17t15 10l31 11q15 5 21 13t6 24v498q0 16 -6 24t-21 13l-31 11q-10 4 -15 10t-5 17v2q0 11 6.5 17.5t17.5 6.5h355q18 0 34 10q8 6 13.5 8t13.5 2h3q18 0 26 -18l62 -129
q3 -6 3 -10q0 -10 -12 -18l-3 -2q-8 -5 -15 -5q-10 0 -19 10q-39 42 -68.5 61.5t-74.5 27t-129 7.5q-35 0 -49 -10t-14 -31v-150q0 -5 3.5 -8.5t8.5 -3.5h120q25 0 40 3.5t18 4.5q14 4 20 4q9 0 13.5 -4t9.5 -15l59 -114q3 -6 3 -11q0 -10 -12 -17l-5 -3q-5 -4 -12 -4
q-10 0 -19 11q-43 52 -83 70.5t-100 18.5h-52q-5 0 -8.5 -3.5t-3.5 -8.5v-276q0 -20 17.5 -30.5t48.5 -10.5q92 0 143 9.5t86.5 35.5t71.5 81q8 12 19 12q7 0 15 -4l4 -2q14 -7 14 -20q0 -5 -2 -11l-54 -154q-8 -21 -30 -21h-3z" />
    <glyph glyph-name="F" unicode="F" horiz-adv-x="585" 
d="M76 0q-11 0 -17.5 6.5t-6.5 17.5v2q0 11 5 17t15 10l31 11q15 5 21 13t6 24v498q0 16 -6 24t-21 13l-31 11q-10 4 -15 10t-5 17v2q0 11 6.5 17.5t17.5 6.5h339q18 0 34 10q8 6 13.5 8t13.5 2h3q18 0 26 -18l59 -129q3 -6 3 -10q0 -10 -12 -18l-3 -2q-8 -5 -15 -5
q-10 0 -19 10q-38 41 -68.5 61t-71.5 27.5t-113 7.5q-35 0 -49 -10t-14 -31v-177q0 -5 3.5 -8.5t8.5 -3.5h122q25 0 40 3.5t18 4.5q14 4 20 4q9 0 13.5 -4t9.5 -15l52 -104q3 -6 3 -11q0 -10 -12 -17l-5 -3q-5 -4 -12 -4q-10 0 -19 11q-37 46 -76 62.5t-100 16.5h-54
q-5 0 -8.5 -3.5t-3.5 -8.5v-245q0 -16 6 -24t21 -12l45 -12q20 -5 20 -27v-2q0 -11 -6.5 -17.5t-17.5 -6.5h-194z" />
    <glyph glyph-name="G" unicode="G" horiz-adv-x="754" 
d="M213 32.5q-75 42.5 -119 125t-44 198.5q0 103 41 183t113.5 123.5t162.5 43.5q22 0 40.5 -3t23.5 -4q30 -7 53 -7q14 0 40 7q16 4 22 4h4q9 0 15 -6t12 -19l69 -150q4 -9 4 -16q0 -9 -12 -18l-3 -2q-12 -6 -17 -6q-12 0 -21 13q-50 74 -106 110t-128 36q-68 0 -121.5 -35
t-83 -96.5t-29.5 -137.5q0 -148 73 -231t203 -83q80 0 121.5 30t41.5 84v72q0 15 -6 23.5t-21 13.5l-55 20q-18 6 -18 26v2q0 11 6.5 17.5t17.5 6.5h208q11 0 17.5 -6.5t6.5 -17.5v-2q0 -11 -4 -16.5t-14 -9.5l-39 -16q-15 -6 -21 -14t-6 -23v-228q0 -11 -6.5 -17.5
t-17.5 -6.5h-3q-9 0 -15 4.5t-12 14.5l-9 17q-6 10 -12 10q-5 0 -22 -10q-32 -19 -68.5 -32.5t-93.5 -13.5q-93 0 -168 42.5z" />
    <glyph glyph-name="H" unicode="H" horiz-adv-x="770" 
d="M76 0q-11 0 -17.5 6.5t-6.5 17.5v2q0 11 5 17t15 10l31 11q15 5 21 13t6 24v498q0 16 -6 24t-21 13l-31 11q-10 4 -15 10t-5 17v2q0 11 6.5 17.5t17.5 6.5h180q11 0 17.5 -6.5t6.5 -17.5v-2q0 -11 -5 -17t-15 -10l-31 -11q-15 -5 -21 -13t-6 -24v-186q0 -5 3.5 -8.5
t8.5 -3.5h342q5 0 8.5 3.5t3.5 8.5v186q0 16 -6 24t-21 13l-31 11q-10 4 -15 10t-5 17v2q0 11 6.5 17.5t17.5 6.5h180q11 0 17.5 -6.5t6.5 -17.5v-2q0 -11 -5 -17t-15 -10l-31 -11q-15 -5 -21 -13t-6 -24v-498q0 -16 6 -24t21 -13l31 -11q10 -4 15 -10t5 -17v-2
q0 -11 -6.5 -17.5t-17.5 -6.5h-180q-11 0 -17.5 6.5t-6.5 17.5v2q0 11 5 17t15 10l31 11q15 5 21 13t6 24v230q0 5 -3.5 8.5t-8.5 3.5h-342q-5 0 -8.5 -3.5t-3.5 -8.5v-230q0 -16 6 -24t21 -13l31 -11q10 -4 15 -10t5 -17v-2q0 -11 -6.5 -17.5t-17.5 -6.5h-180z" />
    <glyph glyph-name="I" unicode="I" horiz-adv-x="332" 
d="M76 0q-11 0 -17.5 6.5t-6.5 17.5v2q0 11 5 17t15 10l31 11q15 5 21 13t6 24v498q0 16 -6 24t-21 13l-31 11q-10 4 -15 10t-5 17v2q0 11 6.5 17.5t17.5 6.5h180q11 0 17.5 -6.5t6.5 -17.5v-2q0 -11 -5 -17t-15 -10l-31 -11q-15 -5 -21 -13t-6 -24v-498q0 -16 6 -24t21 -13
l31 -11q10 -4 15 -10t5 -17v-2q0 -11 -6.5 -17.5t-17.5 -6.5h-180z" />
    <glyph glyph-name="J" unicode="J" horiz-adv-x="316" 
d="M51 -164q-11 0 -20 14l-2 3q-5 8 -5 14q0 10 16 22q45 31 64.5 64t19.5 78v568q0 16 -6 24t-21 13l-31 11q-10 4 -15 10t-5 17v2q0 11 6.5 17.5t17.5 6.5h180q11 0 17.5 -6.5t6.5 -17.5v-2q0 -11 -5 -17t-15 -10l-31 -11q-15 -5 -21 -13t-6 -24v-558q0 -53 -13 -87
t-41 -59.5t-79 -54.5q-8 -4 -12 -4z" />
    <glyph glyph-name="K" unicode="K" horiz-adv-x="673" 
d="M76 0q-11 0 -17.5 6.5t-6.5 17.5v2q0 11 5 17t15 10l31 11q15 5 21 13t6 24v498q0 16 -6 24t-21 13l-31 11q-10 4 -15 10t-5 17v2q0 11 6.5 17.5t17.5 6.5h180q11 0 17.5 -6.5t6.5 -17.5v-2q0 -11 -5 -17t-15 -10l-31 -11q-15 -5 -21 -13t-6 -24v-239q0 -11 7 -11
q3 0 8 5l247 264q5 5 5 11q0 8 -10 12l-24 11q-16 7 -16 22v2q0 11 6.5 17.5t17.5 6.5h183q24 0 24 -24v-2q0 -10 -3.5 -15t-12.5 -9l-34 -13q-31 -12 -49 -24t-39 -35l-146 -154q-4 -4 -4 -9q0 -2 2 -8l163 -272q17 -28 36.5 -44.5t43.5 -26.5l36 -14q20 -7 20 -24v-2
q0 -11 -6.5 -17.5t-17.5 -6.5h-98q-20 0 -29 16l-198 332q-3 6 -9 6q-4 0 -8 -4l-89 -95q-6 -7 -6 -15v-139q0 -16 6 -24t21 -13l31 -11q10 -4 15 -10t5 -17v-2q0 -11 -6.5 -17.5t-17.5 -6.5h-180z" />
    <glyph glyph-name="L" unicode="L" horiz-adv-x="592" 
d="M493 -18q-11 0 -27 8q-10 5 -16.5 7.5t-16.5 2.5h-357q-11 0 -17.5 6.5t-6.5 17.5v2q0 11 5 17t15 10l31 11q15 5 21 13t6 24v498q0 16 -6 24t-21 13l-31 11q-10 4 -15 10t-5 17v2q0 11 6.5 17.5t17.5 6.5h180q11 0 17.5 -6.5t6.5 -17.5v-2q0 -11 -5 -17t-15 -10l-31 -11
q-15 -5 -21 -13t-6 -24v-502q0 -20 17.5 -30.5t48.5 -10.5q76 0 121.5 10.5t77 37t62.5 77.5q9 13 20 13q8 0 15 -4l4 -2q14 -7 14 -20q0 -5 -2 -11l-54 -154q-8 -21 -30 -21h-3z" />
    <glyph glyph-name="M" unicode="M" horiz-adv-x="888" 
d="M74 0q-11 0 -17.5 6.5t-6.5 17.5v2q0 20 20 26l31 10q15 5 21 13t6 24v502q0 16 -6 24t-21 13l-31 10q-20 6 -20 26v2q0 11 6.5 17.5t17.5 6.5h77q30 0 46 -27l240 -407q5 -7 8 -7q5 0 8 7l243 407q17 27 46 27h70q11 0 17.5 -6.5t6.5 -17.5v-2q0 -11 -5 -17t-15 -10
l-31 -11q-15 -5 -21 -13t-6 -24v-498q0 -16 6 -24t21 -13l31 -11q10 -4 15 -10t5 -17v-2q0 -11 -6.5 -17.5t-17.5 -6.5h-180q-11 0 -17.5 6.5t-6.5 17.5v2q0 11 5 17t15 10l31 11q15 5 21 13t6 24v402q0 10 -6 10q-3 0 -8 -6l-210 -344q-9 -15 -25 -15t-25 15l-204 344
q-5 6 -8 6q-6 0 -6 -10v-404q0 -16 6 -24t21 -13l31 -10q20 -6 20 -26v-2q0 -11 -6.5 -17.5t-17.5 -6.5h-174z" />
    <glyph glyph-name="N" unicode="N" horiz-adv-x="772" 
d="M74 0q-11 0 -17.5 6.5t-6.5 17.5v2q0 20 20 26l31 10q15 5 21 13t6 24v502q0 16 -6 24t-21 13l-31 10q-20 6 -20 26v2q0 11 6.5 17.5t17.5 6.5h90q19 0 36 -17l364 -398q5 -5 8 -5q7 0 7 11v310q0 16 -6 24t-21 13l-31 10q-20 6 -20 26v2q0 11 6.5 17.5t17.5 6.5h173
q11 0 17.5 -6.5t6.5 -17.5v-2q0 -20 -20 -26l-31 -10q-15 -5 -21 -13t-6 -24v-502q0 -16 6 -24t21 -13l31 -10q20 -6 20 -26v-2q0 -11 -6.5 -17.5t-17.5 -6.5h-173q-11 0 -17.5 6.5t-6.5 17.5v2q0 20 20 26l31 10q15 5 21 13t6 24v38q0 21 -15 37l-355 385q-5 5 -8 5
q-7 0 -7 -11v-454q0 -16 6 -24t21 -13l31 -10q20 -6 20 -26v-2q0 -11 -6.5 -17.5t-17.5 -6.5h-174z" />
    <glyph glyph-name="O" unicode="O" horiz-adv-x="770" 
d="M214.5 35.5q-76.5 45.5 -120.5 127.5t-44 187t44 187t120.5 127.5t170.5 45.5t170.5 -45.5t120.5 -127.5t44 -187t-44 -187t-120.5 -127.5t-170.5 -45.5t-170.5 45.5zM528 92.5q54 32.5 83.5 92.5t29.5 138q0 85 -31.5 157.5t-93.5 116t-148 43.5q-67 0 -121.5 -30.5
t-86 -89.5t-31.5 -142q0 -86 31.5 -158.5t93.5 -116t148 -43.5q72 0 126 32.5z" />
    <glyph glyph-name="P" unicode="P" horiz-adv-x="598" 
d="M76 0q-11 0 -17.5 6.5t-6.5 17.5v2q0 11 5 17t15 10l31 11q15 5 21 13t6 24v493q0 16 -6 24t-21 13l-31 11q-10 4 -15 10t-5 17v2q0 10 6.5 16t17.5 8q97 13 168 13q152 0 234 -63t82 -180q0 -83 -54 -133t-160 -50q-47 0 -131 12h-2q-11 0 -11 -12v-181q0 -16 6 -24
t21 -12l45 -12q20 -5 20 -27v-2q0 -11 -6.5 -17.5t-17.5 -6.5h-194zM443 372q39 33 39 97q0 87 -61.5 135t-163.5 48q-30 0 -42.5 -9.5t-12.5 -31.5v-247q0 -10 11 -13q21 -5 52.5 -8.5t61.5 -3.5q77 0 116 33z" />
    <glyph glyph-name="Q" unicode="Q" horiz-adv-x="796" 
d="M633.5 -29q-33.5 16 -71.5 56q-9 7 -17 3q-72 -40 -160 -40q-94 0 -170.5 45.5t-120.5 127.5t-44 187t44 187t120.5 127.5t170.5 45.5t170.5 -45.5t120.5 -127.5t44 -187q0 -79 -26 -146.5t-73 -115.5q-4 -6 -4 -9q0 -4 5 -9q44 -39 82 -39q17 0 27.5 4.5t20.5 12.5
q14 9 22 9q9 0 15.5 -7t6.5 -19q0 -32 -27 -54t-66 -22q-36 0 -69.5 16zM571 131q4 0 8 4q62 71 62 188q0 85 -31.5 157.5t-93.5 116t-148 43.5q-67 0 -121.5 -30.5t-86 -89.5t-31.5 -142q0 -108 45 -185q3 -5 8 -5q6 0 10 6q28 36 69.5 57.5t83.5 21.5q56 0 103.5 -30
t113.5 -107q4 -5 9 -5zM499 78q7 3 7 10q0 4 -3 7q-42 49 -66.5 73t-46 34t-48.5 10q-65 0 -119 -69q-2 -2 -2 -7t4 -9q72 -67 177 -67q54 0 97 18z" />
    <glyph glyph-name="R" unicode="R" horiz-adv-x="670" 
d="M76 0q-11 0 -17.5 6.5t-6.5 17.5v2q0 11 5 17t15 10l31 11q15 5 21 13t6 24v493q0 16 -6 24t-21 13l-31 11q-10 4 -15 10t-5 17v2q0 10 6.5 16t17.5 8q97 13 182 13q152 0 232 -58t80 -158q0 -64 -39 -106.5t-114 -54.5q-8 -2 -8 -7q0 -3 3 -9l106 -184q19 -33 41.5 -49
t58.5 -26l14 -4q15 -4 19.5 -9.5t4.5 -18.5v-2q0 -22 -24 -22h-89q-21 0 -32 6.5t-18 20.5l-112 205q-32 59 -72 82t-95 23q-12 0 -12 -12v-224q0 -16 6 -24t21 -13l31 -11q10 -4 15 -10t5 -17v-2q0 -11 -6.5 -17.5t-17.5 -6.5h-180zM460 411q32 29 32 81q0 74 -58 117
t-164 43q-38 0 -53 -8.5t-15 -32.5v-203q0 -10 11 -12l61 -8q50 -6 95 -6q59 0 91 29z" />
    <glyph glyph-name="S" unicode="S" horiz-adv-x="633" 
d="M304 -5.5q-26 4.5 -31 5.5q-30 7 -48 7q-13 0 -38 -9q-16 -7 -28 -7h-5q-10 0 -17 6t-14 19l-79 163q-4 8 -4 16q0 15 16 23l4 2q10 5 17 5q12 0 23 -17q44 -74 111.5 -117t137.5 -43q72 0 110.5 33t38.5 91q0 55 -35.5 88.5t-107.5 57.5l-116 39q-83 28 -128 70t-45 112
q0 48 24.5 86.5t72 61.5t114.5 23q22 0 62 -7q30 -6 43 -6q18 0 35.5 6.5t23.5 6.5h4q10 0 14.5 -4.5t10.5 -16.5l72 -151q2 -6 2 -9q0 -11 -13 -20l-3 -2q-8 -5 -16 -5q-13 0 -20 10q-62 76 -110 109t-105 33q-65 0 -99.5 -29t-34.5 -79q0 -42 32.5 -70t95.5 -50l116 -39
q89 -29 140.5 -75t51.5 -132q0 -88 -60 -139t-156 -51q-33 0 -59 4.5z" />
    <glyph glyph-name="T" unicode="T" horiz-adv-x="642" 
d="M217 0q-11 0 -17.5 6.5t-6.5 17.5v2q0 22 20 27l45 12q15 4 21 12t6 24v499q0 24 -9 36.5t-31 13.5h-11q-47 0 -84 -30.5t-84 -114.5q-5 -11 -17 -11q-6 0 -13 3l-5 2q-13 6 -13 16q0 2 2 12l55 175q2 8 9 13t17 5h3q8 0 13.5 -2t13.5 -8q16 -10 34 -10h312q18 0 34 10
q8 6 13.5 8t13.5 2h3q10 0 17 -5t9 -13l55 -175q2 -10 2 -12q0 -10 -13 -16l-5 -2q-7 -3 -13 -3q-11 0 -17 11q-47 84 -84 114.5t-84 30.5h-7q-24 0 -34 -12.5t-10 -37.5v-499q0 -16 6 -24t21 -12l45 -12q20 -5 20 -27v-2q0 -11 -6.5 -17.5t-17.5 -6.5h-208z" />
    <glyph glyph-name="U" unicode="U" horiz-adv-x="727" 
d="M166 52q-66 62 -58 205l20 342q1 15 -5.5 23.5t-21.5 13.5l-31 11q-10 4 -15 10t-5 17v2q0 11 6.5 17.5t17.5 6.5h182q11 0 17.5 -6.5t6.5 -17.5v-2q0 -11 -5 -17t-15 -10l-31 -11q-15 -5 -20.5 -13t-6.5 -24l-19 -342q-6 -111 41.5 -157t150.5 -46q95 0 139 45t39 145
l-17 357q-1 16 -6.5 24t-20.5 13l-31 10q-20 6 -20 26v2q0 11 6.5 17.5t17.5 6.5h173q11 0 17.5 -6.5t6.5 -17.5v-2q0 -20 -20 -26l-31 -10q-15 -5 -21.5 -13.5t-5.5 -23.5l18 -357q6 -134 -59 -194t-194 -60q-134 0 -200 62z" />
    <glyph glyph-name="V" unicode="V" horiz-adv-x="688" 
d="M330 0q-20 0 -27 20l-204 562q-8 23 -19.5 35t-31.5 23l-18 10q-10 5 -14 10.5t-4 13.5v2q0 11 6.5 17.5t17.5 6.5h164q11 0 17.5 -6.5t6.5 -17.5v-2q0 -8 -4 -13t-14 -10l-20 -9q-23 -9 -23 -21q0 -8 4 -17l174 -478q3 -8 8 -8t8 8l169 472q3 9 3 15q0 10 -7 16.5
t-22 13.5l-20 9q-10 5 -14 10t-4 12v2q0 11 6.5 17.5t17.5 6.5h168q11 0 17.5 -6.5t6.5 -17.5v-2q0 -9 -4 -14t-14 -10l-19 -9q-20 -9 -31 -20.5t-18 -31.5l-209 -569q-8 -20 -27 -20h-26z" />
    <glyph glyph-name="W" unicode="W" horiz-adv-x="1002" 
d="M300 0q-21 0 -27 20l-166 562q-7 22 -18.5 34t-32.5 24l-18 10q-10 5 -14 10.5t-4 13.5v2q0 11 6.5 17.5t17.5 6.5h164q11 0 17.5 -6.5t6.5 -17.5v-2q0 -8 -4 -13t-14 -10l-20 -9q-12 -5 -16.5 -10.5t-4.5 -13.5q0 -9 2 -14l133 -455q3 -8 8 -8q2 0 4.5 2t3.5 6l132 444
q3 12 3 19q0 9 -6 15.5t-21 13.5l-24 11q-10 5 -14 10t-4 12v2q0 11 6.5 17.5t17.5 6.5h103q10 0 15.5 -5t8.5 -15l150 -531q3 -8 8 -8q2 0 4.5 2t3.5 6l127 449q2 12 2 15q0 10 -6.5 16.5t-21.5 13.5l-20 9q-10 5 -14 10t-4 12v2q0 11 6.5 17.5t17.5 6.5h166
q11 0 17.5 -6.5t6.5 -17.5v-2q0 -9 -4 -14t-14 -10l-19 -9q-21 -9 -32 -21t-17 -31l-164 -569q-6 -20 -27 -20h-26q-21 0 -27 20l-139 500q-1 4 -3 6.5t-5 2.5q-5 0 -8 -9l-146 -500q-6 -20 -27 -20h-26z" />
    <glyph glyph-name="X" unicode="X" horiz-adv-x="684" 
d="M44 0q-11 0 -17.5 6.5t-6.5 17.5v2q0 16 18 24l17 8q19 9 34 22t30 36l172 247q3 5 3 8q0 5 -3 8l-142 199q-18 25 -32.5 39.5t-31.5 21.5l-24 11q-18 8 -18 24v2q0 11 6.5 17.5t17.5 6.5h179q11 0 17.5 -6.5t6.5 -17.5v-2q0 -8 -4 -13t-14 -10l-20 -9q-22 -10 -22 -22
q0 -8 7 -16l126 -177q3 -6 8 -6t9 6l116 178q6 9 6 16q0 6 -5 11t-16 11l-16 8q-10 5 -14 10t-4 13v2q0 11 6.5 17.5t17.5 6.5h164q11 0 17.5 -6.5t6.5 -17.5v-2q0 -16 -18 -24l-17 -8q-19 -9 -33.5 -22t-30.5 -36l-143 -215q-3 -3 -3 -8q0 -3 3 -8l165 -231q34 -48 64 -61
l24 -11q18 -8 18 -24v-2q0 -11 -6.5 -17.5t-17.5 -6.5h-179q-11 0 -17.5 6.5t-6.5 17.5v2q0 8 4 13t14 10l20 9q21 10 21 22q0 7 -6 16l-148 207q-3 6 -8 6q-4 0 -9 -6l-145 -208q-6 -9 -6 -16q0 -6 5 -11t16 -11l16 -8q10 -5 14 -10t4 -13v-2q0 -11 -6.5 -17.5t-17.5 -6.5
h-165z" />
    <glyph glyph-name="Y" unicode="Y" horiz-adv-x="642" 
d="M217 0q-11 0 -17.5 6.5t-6.5 17.5v2q0 22 20 27l45 12q15 4 21 12t6 24v157q0 18 -11 37l-172 287q-13 22 -25 34.5t-28 21.5l-21 12q-10 5 -14 10.5t-4 13.5v2q0 11 6.5 17.5t17.5 6.5h174q11 0 17.5 -6.5t6.5 -17.5v-2q0 -17 -18 -23l-20 -7q-24 -9 -24 -24q0 -7 6 -18
l142 -245q5 -6 8 -6q5 0 8 6l142 239q5 8 5 17q0 20 -28 31l-20 8q-18 7 -18 22v2q0 11 6.5 17.5t17.5 6.5h171q11 0 17.5 -6.5t6.5 -17.5v-2q0 -9 -4 -14t-14 -10l-22 -10q-18 -8 -28 -19t-23 -32l-174 -287q-12 -21 -12 -36v-165q0 -16 6 -24t21 -12l45 -12q20 -5 20 -27
v-2q0 -11 -6.5 -17.5t-17.5 -6.5h-208z" />
    <glyph glyph-name="Z" unicode="Z" horiz-adv-x="653" 
d="M521 -20q-8 0 -13.5 2t-13.5 8q-9 5 -19 7.5t-27 2.5h-378q-11 0 -17.5 6.5t-6.5 17.5v10q0 18 15 37l426 558q3 5 3 7q0 8 -11 8h-137q-53 0 -85 -11.5t-60 -41t-70 -92.5q-6 -8 -10.5 -11.5t-11.5 -3.5q-3 0 -13 2l-4 1q-9 2 -13 6.5t-4 12.5q0 9 2 14l58 181
q6 19 23 19h3q8 0 13.5 -2t13.5 -8q9 -5 19 -7.5t27 -2.5h338q11 0 17.5 -6.5t6.5 -17.5v-11q0 -10 -3.5 -18.5t-11.5 -18.5l-425 -557q-3 -4 -3 -8q0 -7 10 -7h172q53 0 88 14t65 46t70 94q10 15 22 15l13 -2l4 -1q18 -4 18 -19q0 -5 -3 -14l-61 -190q-6 -19 -23 -19h-3z
" />
    <glyph glyph-name="bracketleft" unicode="[" horiz-adv-x="380" 
d="M144 -170q-11 0 -17.5 6.5t-6.5 17.5v862q0 11 6.5 17.5t17.5 6.5h162q11 0 17.5 -6.5t6.5 -17.5v-2q0 -11 -6.5 -17.5t-17.5 -6.5h-102q-5 0 -8.5 -3.5t-3.5 -8.5v-786q0 -5 3.5 -8.5t8.5 -3.5h102q11 0 17.5 -6.5t6.5 -17.5v-2q0 -11 -6.5 -17.5t-17.5 -6.5h-162z" />
    <glyph glyph-name="backslash" unicode="\" horiz-adv-x="372" 
d="M305 -144q-21 0 -27 20l-246 837q-2 6 -2 10q0 8 5 12.5t14 4.5h18q21 0 27 -20l246 -837q2 -8 2 -10q0 -8 -5 -12.5t-14 -4.5h-18z" />
    <glyph glyph-name="bracketright" unicode="]" horiz-adv-x="380" 
d="M74 -170q-11 0 -17.5 6.5t-6.5 17.5v2q0 11 6.5 17.5t17.5 6.5h102q5 0 8.5 3.5t3.5 8.5v786q0 5 -3.5 8.5t-8.5 3.5h-102q-11 0 -17.5 6.5t-6.5 17.5v2q0 11 6.5 17.5t17.5 6.5h162q11 0 17.5 -6.5t6.5 -17.5v-862q0 -11 -6.5 -17.5t-17.5 -6.5h-162z" />
    <glyph glyph-name="asciicircum" unicode="^" horiz-adv-x="426" 
d="M47 484q-13 0 -13 9q0 5 3 9l138 185q5 7 10.5 10t13.5 3h28q8 0 13.5 -3t10.5 -10l138 -185q3 -4 3 -9q0 -9 -13 -9h-30q-13 0 -22 10l-106 129q-3 5 -8 5q-3 0 -8 -5l-106 -129q-9 -10 -22 -10h-30z" />
    <glyph glyph-name="underscore" unicode="_" horiz-adv-x="464" 
d="M-16 -139q-11 0 -17.5 6.5t-6.5 17.5v10q0 11 6.5 17.5t17.5 6.5h496q11 0 17.5 -6.5t6.5 -17.5v-10q0 -11 -6.5 -17.5t-17.5 -6.5h-496z" />
    <glyph glyph-name="grave" unicode="`" horiz-adv-x="294" 
d="M58 682q-8 7 -8 16q0 8 7 14l31 30q7 7 15 7q10 0 17 -10l118 -144q6 -7 6 -15t-8 -16l-4 -4q-7 -7 -15 -7q-9 0 -16 7z" />
    <glyph glyph-name="a" unicode="a" horiz-adv-x="541" 
d="M92 26.5q-44 36.5 -44 108.5q0 75 60 117t163 42q34 0 78 -4h3q11 0 11 10v42q0 106 -100 106q-68 0 -119 -71q-7 -10 -12.5 -13.5t-13.5 -3.5t-12.5 4t-8.5 12l-23 48q-4 8 -4 17q0 14 16 22q31 17 79 27t94 10q89 0 130.5 -44t42.5 -132l2 -239q0 -18 7 -26t21 -8
q11 0 17.5 4.5t15.5 15.5q5 6 10.5 10.5t11.5 4.5q9 0 14.5 -6.5t5.5 -16.5q0 -29 -22 -50t-57 -21q-30 0 -48.5 13t-33.5 44q-3 6 -9 6q-4 0 -9 -5q-23 -28 -60.5 -44t-81.5 -16q-80 0 -124 36.5zM302 66.5q30 16.5 48 37.5q7 9 10 18t3 24v76q0 11 -12 14q-29 7 -75 7
q-81 0 -116 -27t-35 -76q0 -44 27 -67t78 -23q42 0 72 16.5z" />
    <glyph glyph-name="b" unicode="b" horiz-adv-x="565" 
d="M215.5 -3.5q-25.5 6.5 -47.5 21.5q-5 4 -10 4q-4 0 -9 -5l-14 -15q-9 -10 -21 -10q-7 0 -12 4.5t-5 13.5v605q0 22 -8.5 32.5t-39.5 17.5q-13 3 -17.5 8t-4.5 14v1q0 9 4.5 13.5t15.5 9.5l79 35q8 4 16 4q22 0 22 -28v-250q0 -9 7 -9q3 0 8 3q51 31 113 31
q64 0 114 -28.5t78.5 -83.5t28.5 -133q0 -81 -33 -140.5t-87.5 -90.5t-118.5 -31q-33 0 -58.5 6.5zM389.5 98q48.5 49 48.5 146q0 90 -46.5 141.5t-123.5 51.5q-53 0 -80 -18q-14 -10 -19 -20t-5 -31v-257q0 -31 19 -43q12 -8 32.5 -13.5t38.5 -5.5q87 0 135.5 49z" />
    <glyph glyph-name="c" unicode="c" horiz-adv-x="487" 
d="M163.5 21q-55.5 31 -85.5 89t-30 135q0 75 28 132t78.5 89t115.5 32q22 0 42 -5q5 -1 12 -2t15 -1q15 0 28 4.5t18 4.5q9 0 13.5 -4t9.5 -14l48 -102q3 -7 3 -13q0 -15 -12 -20l-2 -1q-6 -3 -12 -3q-12 0 -21 11q-41 49 -71.5 69.5t-69.5 20.5q-41 0 -75.5 -21t-55.5 -61
t-21 -94q0 -59 22 -106t63.5 -73.5t97.5 -26.5q42 0 70 10.5t49 31.5q16 16 26 16q3 0 11 -4q11 -7 11 -17q0 -11 -8 -24q-21 -37 -66.5 -60.5t-102.5 -23.5q-73 0 -128.5 31z" />
    <glyph glyph-name="d" unicode="d" horiz-adv-x="574" 
d="M158.5 18.5q-48.5 28.5 -77.5 83.5t-29 130q0 82 35 142t95.5 91.5t137.5 31.5q35 0 67 -7l4 -1q9 0 9 10v116q0 15 -3.5 23.5t-16.5 15t-40 10.5q-22 3 -22 23v1q0 9 4.5 13.5t16.5 9.5l90 35q9 3 16 3q22 0 22 -27v-629q0 -14 6 -23.5t22 -13.5l19 -5q11 -3 17 -8.5
t6 -16.5v-1q0 -11 -6.5 -18t-17.5 -7h-79q-21 0 -25 18l-3 12q-2 8 -8 8q-3 0 -10 -5q-48 -43 -123 -43q-58 0 -106.5 28.5zM379 72q21 14 21 36v284q0 31 -33 41q-22 7 -53 7q-84 0 -135.5 -51.5t-51.5 -143.5q0 -56 22.5 -100t61 -68.5t86.5 -24.5q51 0 82 20z" />
    <glyph glyph-name="e" unicode="e" horiz-adv-x="508" 
d="M484 115q0 -8 -6 -22q-19 -42 -68.5 -72.5t-123.5 -30.5q-67 0 -121.5 31.5t-85.5 89.5t-31 134t29.5 134t80.5 89.5t113 31.5q73 0 125 -40t67 -111q1 -4 1 -10q0 -15 -18 -22l-304 -113q-10 -4 -7 -15q16 -58 59 -92.5t105 -34.5q47 0 81.5 16t56.5 42q13 16 26 16
q7 0 12 -4q9 -6 9 -17zM162.5 395.5q-42.5 -44.5 -42.5 -117.5q0 -8 1 -14q2 -9 13 -5l233 88q8 3 11 7t0 12q-12 36 -41 55t-67 19q-65 0 -107.5 -44.5z" />
    <glyph glyph-name="f" unicode="f" horiz-adv-x="339" 
d="M74 0q-11 0 -17.5 6.5t-6.5 17.5v2q0 18 21 24l22 6q14 4 20.5 12.5t6.5 25.5v326q0 5 -3.5 8.5t-8.5 3.5h-37q-10 0 -16.5 7t-6.5 18v3q0 18 18 26l10 5q13 7 17 14t6 21l5 63q6 79 54 120t121 41q59 0 91 -15q17 -8 17 -20q0 -3 -4 -15l-18 -42q-7 -15 -19 -15
q-10 0 -25 12q-44 36 -85 36q-31 0 -51.5 -24t-20.5 -63q0 -58 30 -86t85 -28h17q11 0 17.5 -6.5t6.5 -17.5v-10q0 -11 -6.5 -17.5t-17.5 -6.5h-96q-5 0 -9 -3.5t-4 -8.5v-326q0 -16 6.5 -25.5t21.5 -12.5l32 -6q20 -4 20 -24v-2q0 -11 -6.5 -17.5t-17.5 -6.5h-169z" />
    <glyph glyph-name="g" unicode="g" horiz-adv-x="548" 
d="M85 -192q-53 34 -53 91q0 27 15.5 52.5t38.5 43.5q7 6 7 9t-6 7q-33 24 -33 69q0 32 21.5 56.5t60.5 37.5q7 4 7 7t-5 8q-25 25 -39.5 59t-14.5 69q0 49 24.5 91t68.5 67t99 25q49 0 91 -22q3 -2 8 -2q8 0 11 9q12 31 33.5 56t41.5 25q16 0 25 -18l14 -26q8 -16 8 -24
t-5 -13.5t-17 -10.5l-56 -26q-8 -3 -8 -9q0 -4 4 -8q19 -22 30.5 -52t11.5 -62q0 -49 -25.5 -91t-69.5 -67t-97 -25q-27 0 -48 3q-28 2 -45 2q-27 0 -44 -12t-17 -35t20.5 -35.5t57.5 -12.5q20 0 53 2t49 3q60 5 97 5q61 0 96 -30t35 -86q0 -71 -69.5 -117.5t-224.5 -46.5
q-98 0 -151 34zM364.5 222.5q31.5 33.5 31.5 84.5q0 62 -35.5 100t-92.5 38q-48 0 -79.5 -33.5t-31.5 -84.5q0 -63 34 -100.5t94 -37.5q48 0 79.5 33.5zM403 -143q52 27 52 74q0 35 -21.5 49.5t-68.5 14.5q-39 0 -91 -5q-60 -4 -87 -4q-20 0 -29 1h-5q-6 0 -11 -4
q-19 -15 -27.5 -31.5t-8.5 -40.5q0 -36 35.5 -58.5t104.5 -22.5q105 0 157 27z" />
    <glyph glyph-name="h" unicode="h" horiz-adv-x="588" 
d="M61 0q-11 0 -17.5 6.5t-6.5 17.5v2q0 18 21 24l21 6q16 4 22 12.5t6 25.5v518q0 24 -9.5 35t-38.5 17q-21 4 -21 22v2q0 9 4.5 13.5t15.5 9.5l79 35q12 4 16 4q9 0 15 -7t6 -20v-272q0 -10 9 -10q3 0 8 3l14 9q75 48 154 48q61 0 93 -36t32 -103v-268q0 -17 6 -25.5
t22 -12.5l21 -6q21 -6 21 -24v-2q0 -11 -6.5 -17.5t-17.5 -6.5h-91q-11 0 -17.5 6.5t-6.5 17.5v318q0 51 -15.5 74t-56.5 23q-39 0 -78.5 -12.5t-66.5 -28.5q-14 -8 -19 -17t-5 -24v-263q0 -17 6 -25.5t22 -12.5l21 -6q21 -6 21 -24v-2q0 -11 -6.5 -17.5t-17.5 -6.5h-159z
" />
    <glyph glyph-name="i" unicode="i" horiz-adv-x="294" 
d="M74 0q-11 0 -17.5 6.5t-6.5 17.5v2q0 18 21 24l21 6q16 4 22 12.5t6 25.5v269q0 24 -9.5 34t-38.5 17q-12 3 -17 8t-5 15v1q0 16 21 24l78 34q8 4 17 4q10 0 15.5 -7.5t5.5 -20.5v-378q0 -17 6 -25.5t22 -12.5l21 -6q21 -6 21 -24v-2q0 -11 -6.5 -17.5t-17.5 -6.5h-159z
M101 610.5q-17 16.5 -17 39.5t16.5 39.5t41.5 16.5t41.5 -16.5t16.5 -39.5t-16.5 -39.5t-41.5 -16.5q-24 0 -41 16.5z" />
    <glyph glyph-name="j" unicode="j" horiz-adv-x="281" 
d="M15.5 -220q-9.5 6 -9.5 18q0 8 3.5 12t12.5 7q52 17 72 46.5t20 79.5v420q0 23 -9.5 33.5t-38.5 17.5q-12 3 -17 8t-5 15v1q0 16 21 24l78 34q8 4 17 4q10 0 15.5 -7.5t5.5 -20.5v-540q0 -49 -19.5 -84.5t-52 -54.5t-70.5 -19q-14 0 -23.5 6zM95 610.5q-17 16.5 -17 39.5
t16.5 39.5t41.5 16.5t41.5 -16.5t16.5 -39.5t-16.5 -39.5t-41.5 -16.5q-24 0 -41 16.5z" />
    <glyph glyph-name="k" unicode="k" horiz-adv-x="551" 
d="M62 0q-11 0 -18 6.5t-7 18.5v1q0 18 21 24l21 6q15 4 21.5 13t6.5 25v518q0 22 -9 34t-39 19q-13 3 -17.5 8t-4.5 14v1q0 9 4.5 13.5t15.5 9.5l79 35q8 4 16 4q22 0 22 -28v-448q0 -5 2.5 -8t6.5 -3t8 4l160 147q6 5 6 11q0 7 -9 10l-24 9q-15 5 -15 20v2q0 11 7 17.5
t18 6.5h168q24 0 24 -24v-2q0 -10 -3.5 -15.5t-12.5 -8.5l-35 -11q-24 -7 -46 -23.5t-47 -38.5l-69 -62q-4 -4 -4 -8q0 -3 3 -8l116 -169q23 -34 34.5 -45t31.5 -17l25 -7q22 -6 22 -25v-1q0 -12 -7 -18.5t-18 -6.5h-68q-17 0 -29 16l-156 226q-4 6 -9 6t-9 -4l-64 -58
q-7 -7 -7 -16v-76q0 -15 6 -24.5t22 -13.5l22 -6q20 -6 20 -24v-1q0 -11 -6.5 -18t-17.5 -7h-158z" />
    <glyph glyph-name="l" unicode="l" horiz-adv-x="281" 
d="M62 0q-11 0 -18 6.5t-7 18.5v1q0 18 21 24l21 6q15 4 21.5 13t6.5 25v518q0 22 -9 34t-39 19q-13 3 -17.5 8t-4.5 14v1q0 9 4.5 13.5t15.5 9.5l79 35q8 4 16 4q22 0 22 -28v-628q0 -15 6 -24.5t22 -13.5l22 -6q20 -6 20 -24v-1q0 -11 -6.5 -18t-17.5 -7h-158z" />
    <glyph glyph-name="m" unicode="m" horiz-adv-x="876" 
d="M74 0q-11 0 -17.5 6.5t-6.5 17.5v2q0 18 21 24l21 6q16 4 22 12.5t6 25.5v271q0 24 -9.5 34t-38.5 17q-12 3 -17 8t-5 15v1q0 16 21 24l74 32q8 4 16 4q22 0 22 -28v-24q0 -7 5 -9.5t11 1.5l14 9q79 51 147 51q66 0 106 -53q4 -5 7 -8t6 -3t9 4l17 11q77 49 147 49
q58 0 89 -34.5t31 -98.5v-273q0 -17 6 -25.5t22 -12.5l21 -6q21 -6 21 -24v-2q0 -11 -6.5 -17.5t-17.5 -6.5h-91q-11 0 -17.5 6.5t-6.5 17.5v323q0 48 -15.5 69.5t-51.5 21.5q-65 0 -134 -41q-13 -7 -18 -16.5t-5 -24.5v-262q0 -17 6 -25.5t22 -12.5l21 -6q21 -6 21 -24v-2
q0 -11 -6.5 -17.5t-17.5 -6.5h-91q-11 0 -17.5 6.5t-6.5 17.5v323q0 48 -15.5 69.5t-51.5 21.5q-35 0 -69.5 -12t-62.5 -29q-14 -8 -19 -17t-5 -24v-262q0 -17 6 -25.5t22 -12.5l21 -6q21 -6 21 -24v-2q0 -11 -6.5 -17.5t-17.5 -6.5h-159z" />
    <glyph glyph-name="n" unicode="n" horiz-adv-x="601" 
d="M74 0q-11 0 -17.5 6.5t-6.5 17.5v2q0 18 21 24l21 6q16 4 22 12.5t6 25.5v271q0 24 -9.5 34t-38.5 17q-12 3 -17 8t-5 15v1q0 16 21 24l74 32q8 4 17 4q10 0 15.5 -7.5t5.5 -20.5v-24q0 -7 5 -9.5t11 1.5l14 9q80 51 159 51q61 0 93 -36t32 -103v-267q0 -17 6 -25.5
t22 -12.5l21 -6q21 -6 21 -24v-2q0 -11 -6.5 -17.5t-17.5 -6.5h-91q-11 0 -17.5 6.5t-6.5 17.5v317q0 51 -15.5 74t-56.5 23q-39 0 -78.5 -12.5t-66.5 -28.5q-14 -8 -19 -17t-5 -24v-262q0 -17 6 -25.5t22 -12.5l21 -6q21 -6 21 -24v-2q0 -11 -6.5 -17.5t-17.5 -6.5h-159z
" />
    <glyph glyph-name="o" unicode="o" horiz-adv-x="564" 
d="M163.5 22q-53.5 32 -84.5 90.5t-31 132.5t31 132.5t84.5 90.5t118.5 32t118.5 -32t84.5 -90.5t31 -132.5t-31 -132.5t-84.5 -90.5t-118.5 -32t-118.5 32zM404 102.5q42 46.5 42 127.5q0 88 -45.5 146t-130.5 58q-68 0 -110 -46t-42 -127q0 -88 46 -146.5t130 -58.5
q68 0 110 46.5z" />
    <glyph glyph-name="p" unicode="p" horiz-adv-x="580" 
d="M67 -216q-11 0 -18 6.5t-7 17.5v2q0 18 21 24l21 6q15 4 21.5 13t6.5 25v487q0 23 -9.5 33.5t-38.5 17.5q-12 3 -17 8t-5 15v1q0 16 21 24l74 32q8 4 17 4q10 0 15.5 -7.5t5.5 -20.5v-15q0 -3 1.5 -5.5t3.5 -2.5q4 0 8 4q25 22 53.5 33t68.5 11q62 0 111.5 -27.5t78 -82
t28.5 -133.5q0 -82 -32 -142t-86 -91t-119 -31q-52 0 -98 18q-2 1 -6 1q-8 0 -8 -10v-121q0 -16 6.5 -25.5t21.5 -12.5l32 -6q20 -4 20 -24v-2q0 -11 -6.5 -17.5t-17.5 -6.5h-168zM404 95.5q49 46.5 49 149.5q0 90 -45.5 141t-122.5 51q-54 0 -82 -18q-12 -8 -18 -18.5
t-6 -27.5v-260q0 -20 5 -31.5t17 -17.5q30 -15 74 -15q80 0 129 46.5z" />
    <glyph glyph-name="q" unicode="q" horiz-adv-x="564" 
d="M344 -216q-11 0 -17.5 6.5t-6.5 17.5v2q0 20 20 24l32 6q15 3 21.5 12.5t6.5 25.5v143q0 9 -6 9q-3 0 -8 -3q-21 -16 -54.5 -26.5t-66.5 -10.5q-99 0 -156 61t-57 177q0 81 35 142t92.5 94t122.5 33q31 0 52.5 -6t43.5 -19q4 -3 8 -3q5 0 11 6l12 13q9 10 21 10
q7 0 12 -4.5t5 -13.5v-602q0 -15 5.5 -23.5t22.5 -14.5l22 -7q11 -3 15.5 -8t4.5 -15v-2q0 -11 -6.5 -17.5t-17.5 -6.5h-169zM375 71q13 8 19 20t6 32v264q0 18 -8 28t-24 16q-27 9 -54 9q-85 0 -136 -52t-51 -145q0 -92 44.5 -141.5t121.5 -49.5q53 0 82 19z" />
    <glyph glyph-name="r" unicode="r" horiz-adv-x="391" 
d="M74 0q-11 0 -17.5 6.5t-6.5 17.5v2q0 18 21 24l21 6q16 4 22 12.5t6 25.5v271q0 24 -9.5 34t-38.5 17q-12 3 -17 8t-5 15v1q0 16 21 24l74 32q8 4 16 4q22 0 22 -28v-23q0 -5 2.5 -8t6.5 -3t11 5q27 24 62.5 39.5t68.5 15.5q35 0 32 -33l-5 -53q-3 -24 -21 -24
q-7 0 -13.5 2t-11.5 5t-8 4q-16 7 -28 11t-27 4q-33 0 -49 -17.5t-16 -54.5v-248q0 -16 6.5 -25.5t21.5 -12.5l32 -6q20 -4 20 -24v-2q0 -11 -6.5 -17.5t-17.5 -6.5h-169z" />
    <glyph glyph-name="s" unicode="s" horiz-adv-x="480" 
d="M214 -3q-22 5 -35 5q-12 0 -26.5 -5.5t-20.5 -5.5q-10 0 -15 4t-10 13l-63 120q-4 7 -4 15q0 15 13 21l4 2q6 3 12 3q13 0 23 -14q73 -109 178 -109q49 0 73.5 20.5t24.5 57.5q0 32 -24 53.5t-74 36.5l-84 26q-64 20 -96 50t-32 81q0 56 42 91.5t114 35.5q17 0 43 -4
q24 -4 35 -4q13 0 26 4.5t17 4.5q7 0 10.5 -2.5t7.5 -9.5l55 -106q4 -10 4 -13q0 -12 -12 -18l-2 -1q-10 -4 -15 -4q-10 0 -20 11q-45 49 -78.5 70t-71.5 21q-44 0 -66 -18t-22 -47t22 -47t74 -34l84 -26q68 -21 101.5 -55.5t33.5 -89.5q0 -66 -46.5 -103t-118.5 -37
q-24 0 -61 7z" />
    <glyph glyph-name="t" unicode="t" horiz-adv-x="338" 
d="M126 15.5q-26 25.5 -26 70.5v334q0 5 -3.5 8.5t-8.5 3.5h-37q-11 0 -17.5 6t-6.5 16v3q0 16 16 28q22 16 40 38.5t39 56.5q11 18 26 18q11 0 17 -6.5t6 -17.5v-72q0 -5 3.5 -8.5t8.5 -3.5h96q11 0 17.5 -6.5t6.5 -17.5v-10q0 -11 -6.5 -17.5t-17.5 -6.5h-100
q-5 0 -8.5 -3.5t-3.5 -8.5v-320q0 -50 48 -50q22 0 35 4.5t24 12.5q14 8 22 8t13 -5t5 -14q0 -26 -30 -46t-78 -20q-54 0 -80 25.5z" />
    <glyph glyph-name="u" unicode="u" horiz-adv-x="584" 
d="M130 25q-31 35 -31 99v243q0 23 -9.5 32.5t-39.5 15.5q-21 4 -21 23v1q0 7 4 12.5t17 10.5l81 35q12 4 15 4q10 0 16 -7.5t6 -20.5v-329q0 -49 16.5 -71t63.5 -22q39 0 75.5 11.5t61.5 30.5q14 11 19 20t5 24v230q0 23 -9.5 32.5t-38.5 15.5q-12 2 -17 7.5t-5 15.5v1
q0 7 4 12t17 11l79 35q12 4 16 4q21 0 21 -28v-380q0 -16 6 -24.5t22 -12.5l19 -5q12 -3 18 -8.5t6 -16.5v-1q0 -12 -7 -18.5t-18 -6.5h-80q-12 0 -18 6t-8 18l-2 14q-3 19 -16 9l-13 -10q-29 -22 -69 -34.5t-82 -12.5q-73 0 -104 35z" />
    <glyph glyph-name="v" unicode="v" horiz-adv-x="505" 
d="M244 0q-22 0 -29 19l-132 349q-12 32 -21 45.5t-22 17.5l-23 8q-9 3 -13 9t-4 16v2q0 11 6.5 17.5t17.5 6.5h71q11 0 17 -4.5t10 -14.5l127 -356q3 -7 8 -7t8 7l105 296q2 6 2 9q0 9 -11 14l-26 10q-15 5 -15 20v2q0 11 6.5 17.5t17.5 6.5h133q11 0 17.5 -6.5t6.5 -17.5
v-2q0 -16 -16 -22l-19 -7q-13 -5 -22.5 -19t-21.5 -46l-132 -350q-8 -20 -28 -20h-18z" />
    <glyph glyph-name="w" unicode="w" horiz-adv-x="780" 
d="M230 0q-20 0 -27 20l-114 349q-10 31 -19 44.5t-25 18.5l-20 7q-9 3 -13 9t-4 16v2q0 11 6.5 17.5t17.5 6.5h69q21 0 27 -20l108 -350q3 -9 9 -9q5 0 8 8l97 285q2 8 2 12q0 11 -14 17l-29 12q-15 5 -15 19v2q0 11 6.5 17.5t17.5 6.5h74q21 0 27 -20l115 -351q3 -8 8 -8
t8 9l91 293q1 3 1 8q0 9 -10 13l-26 10q-15 5 -15 20v2q0 11 6.5 17.5t17.5 6.5h129q24 0 24 -24v-2q0 -16 -16 -22l-19 -7q-14 -5 -23.5 -19t-19.5 -46l-114 -350q-7 -20 -27 -20h-21q-20 0 -27 20l-104 309q-1 7 -7 7q-5 0 -8 -7l-104 -309q-7 -20 -27 -20h-21z" />
    <glyph glyph-name="x" unicode="x" horiz-adv-x="521" 
d="M43 0q-25 0 -25 25v1q0 9 3.5 14t12.5 9l22 10q19 10 32.5 19.5t33.5 37.5l93 132q3 5 3 8q0 5 -3 8l-73 105q-20 28 -34 41t-30 18l-29 10q-11 4 -15 9.5t-4 16.5v2q0 11 6.5 17.5t17.5 6.5h69q19 0 29 -14l113 -165q3 -6 8 -6t9 6l72 100q6 9 6 13q0 5 -10 10l-20 9
q-16 7 -16 23v2q0 10 7 16t18 6h129q12 0 18.5 -6.5t6.5 -17.5v-2q0 -9 -4 -14t-13 -9l-21 -9q-15 -7 -28.5 -20t-35.5 -43l-80 -109q-3 -3 -3 -8q0 -3 3 -8l86 -123q20 -28 34 -41t30 -18l29 -10q11 -4 15 -9.5t4 -16.5v-2q0 -11 -6.5 -17.5t-17.5 -6.5h-68q-20 0 -30 14
l-124 181q-3 6 -8 6q-4 0 -9 -6l-83 -115q-5 -7 -5 -12q0 -7 9 -12l20 -9q16 -7 16 -23v-1q0 -10 -7 -16.5t-18 -6.5h-135z" />
    <glyph glyph-name="y" unicode="y" horiz-adv-x="508" 
d="M123 -215q-9 0 -14.5 4.5t-5.5 11.5q0 6 3 12l86 155q15 27 15 49q0 16 -8 37l-117 315q-12 31 -20.5 44.5t-22.5 18.5l-20 7q-9 3 -13 9t-4 16v2q0 11 6.5 17.5t17.5 6.5h68q21 0 28 -19l127 -354q2 -5 5.5 -5t5.5 5l118 295l2 8q0 9 -11 14l-26 10q-15 5 -15 20v2
q0 11 6.5 17.5t17.5 6.5h128q24 0 24 -24v-2q0 -8 -3.5 -12.5t-12.5 -9.5l-19 -9q-13 -6 -20 -17t-22 -46l-144 -341l-94 -225q-5 -10 -11 -14.5t-16 -4.5h-39z" />
    <glyph glyph-name="z" unicode="z" horiz-adv-x="486" 
d="M365 -4q-28 4 -59 4h-239q-11 0 -18 6.5t-7 18.5v10q0 15 9 26l295 366q2 2 2 6q0 2 -2 4t-6 2h-53q-44 0 -72 -6.5t-51.5 -25.5t-47.5 -57l-10 -16q-7 -12 -21 -12q-3 0 -9 2l-3 1q-12 4 -12 18q0 6 1 10l28 117q6 26 28 26q6 0 24 -2q30 -4 58 -4h213q11 0 18 -6.5
t7 -17.5v-12q0 -16 -9 -26l-296 -365q-3 -3 -3 -6q0 -6 10 -6h84q42 0 70 6t52.5 25.5t46.5 59.5l12 22q7 14 22 14q5 0 8 -1l3 -1q13 -4 13 -17q0 -3 -2 -11l-33 -128q-3 -12 -10.5 -19t-17.5 -7q-5 0 -23 2z" />
    <glyph glyph-name="braceleft" unicode="{" horiz-adv-x="407" 
d="M321 -170q-171 0 -171 155q0 34 13 92q14 64 14 103q0 34 -25.5 52t-75.5 18h-8q-11 0 -17.5 6.5t-6.5 17.5v22q0 11 6.5 17.5t17.5 6.5h8q50 0 75.5 18t25.5 52q0 39 -14 103q-13 58 -13 92q0 155 171 155h12q13 0 20.5 -6.5t7.5 -17.5v-2q0 -11 -7.5 -17t-20.5 -7
l-17 -1q-51 -3 -72.5 -26t-21.5 -71q0 -39 13 -100q12 -62 12 -95q0 -44 -18.5 -69t-56.5 -37q-5 -1 -5 -5.5t5 -6.5q38 -12 56.5 -37t18.5 -69q0 -33 -12 -95q-13 -61 -13 -100q0 -48 21.5 -71t72.5 -26l17 -1q13 -1 20.5 -7t7.5 -17v-2q0 -11 -7.5 -17.5t-20.5 -6.5h-12z
" />
    <glyph glyph-name="bar" unicode="|" horiz-adv-x="324" 
d="M154 -100q-11 0 -17.5 6.5t-6.5 17.5v792q0 11 6.5 17.5t17.5 6.5h16q11 0 17.5 -6.5t6.5 -17.5v-792q0 -11 -6.5 -17.5t-17.5 -6.5h-16z" />
    <glyph glyph-name="braceright" unicode="}" horiz-adv-x="407" 
d="M74 -170q-13 0 -20.5 6.5t-7.5 17.5v2q0 11 7.5 17t20.5 7l17 1q51 3 72.5 26t21.5 71q0 39 -13 100q-12 62 -12 95q0 44 18.5 69t56.5 37q5 2 5 6.5t-5 5.5q-38 12 -56.5 37t-18.5 69q0 33 12 95q13 61 13 100q0 48 -21.5 71t-72.5 26l-17 1q-13 1 -20.5 7t-7.5 17v2
q0 11 7.5 17.5t20.5 6.5h12q171 0 171 -155q0 -34 -13 -92q-14 -64 -14 -103q0 -34 25.5 -52t75.5 -18h8q11 0 17.5 -6.5t6.5 -17.5v-22q0 -11 -6.5 -17.5t-17.5 -6.5h-8q-50 0 -75.5 -18t-25.5 -52q0 -39 14 -103q13 -58 13 -92q0 -155 -171 -155h-12z" />
    <glyph glyph-name="asciitilde" unicode="~" horiz-adv-x="637" 
d="M102.5 272q-6.5 6 -6.5 17q0 3 2 11q13 48 43.5 74.5t72.5 26.5q41 0 89 -23l54 -27q24 -11 40.5 -17t31.5 -6q21 0 36.5 12.5t26.5 41.5q8 20 24 20q25 0 25 -22l-2 -12q-13 -49 -43.5 -75t-71.5 -26t-89 23l-54 27q-24 11 -40.5 17t-31.5 6q-21 0 -36.5 -12.5
t-26.5 -41.5q-8 -20 -24 -20q-13 0 -19.5 6z" />
    <glyph glyph-name="uni00A0" unicode="&#xa0;" horiz-adv-x="190" 
 />
    <glyph glyph-name="exclamdown" unicode="&#xa1;" horiz-adv-x="308" 
d="M197 483.5q17 -16.5 17 -41.5t-17 -41.5t-43 -16.5t-43 16.5t-17 41.5t17 41.5t43 16.5t43 -16.5zM157 287q21 0 22 -21q14 -206 14 -386v-66q0 -11 -6.5 -17.5t-17.5 -6.5h-30q-11 0 -17.5 6.5t-6.5 17.5v65q0 183 14 387q1 21 22 21h6z" />
    <glyph glyph-name="cent" unicode="&#xa2;" horiz-adv-x="494" 
d="M260 0q-11 0 -17.5 6.5t-6.5 17.5v85q0 10 -11 13q-83 20 -130 85.5t-47 162.5q0 99 48.5 166t128.5 83q7 1 9 4.5t2 8.5v84q0 11 6.5 17.5t17.5 6.5h12q11 0 17.5 -6.5t6.5 -17.5v-84q0 -10 11 -13q20 -4 32 -4q15 0 28 4.5t18 4.5q9 0 13.5 -4t9.5 -14l48 -102
q3 -7 3 -13q0 -15 -12 -20l-2 -1q-6 -3 -12 -3q-12 0 -21 11q-40 48 -72.5 69t-72.5 21q-38 0 -72 -19.5t-55 -59t-21 -97.5q0 -90 47 -148t136 -58q43 0 70.5 10.5t48.5 31.5q16 16 26 16q3 0 11 -4q11 -7 11 -17q0 -11 -8 -24q-20 -34 -59 -56t-94 -28q-12 -1 -12 -12v-79
q0 -11 -6.5 -17.5t-17.5 -6.5h-12z" />
    <glyph glyph-name="sterling" unicode="&#xa3;" horiz-adv-x="618" 
d="M499 -18q-11 0 -27 8q-10 5 -16.5 7.5t-16.5 2.5h-343q-11 0 -17.5 6.5t-6.5 17.5v7v9q0 8 2 13.5t10 13.5l61 60q27 27 37.5 54t10.5 60q0 31 -7 61q-3 11 -14 11h-78q-11 0 -17.5 6.5t-6.5 17.5v10q0 11 6.5 17.5t17.5 6.5h53q15 0 10 14q-15 37 -23 68.5t-8 69.5
q0 87 57.5 137t146.5 50q70 0 139 -25q11 -4 17.5 -9.5t10.5 -16.5l32 -95q3 -7 3 -13q0 -13 -16 -19l-3 -1q-7 -3 -13 -3q-12 0 -20 15q-33 58 -68 82t-84 24q-55 0 -87.5 -32.5t-32.5 -83.5q0 -34 7 -64t15.5 -55t11.5 -33q3 -10 13 -10h195q11 0 17.5 -6.5t6.5 -17.5v-10
q0 -11 -6.5 -17.5t-17.5 -6.5h-176q-6 0 -8.5 -3.5t-1.5 -9.5q5 -30 5 -59q0 -83 -74 -146l-25 -21q-3 -3 -3 -6q0 -2 2.5 -4t6.5 -2h83q85 0 136 11.5t82 37t58 72.5q8 12 18 12q7 0 17 -5l4 -2q14 -7 14 -20q0 -5 -2 -11l-54 -154q-8 -21 -30 -21h-3z" />
    <glyph glyph-name="currency" unicode="&#xa4;" horiz-adv-x="618" 
d="M82 111q-7 7 -7 16q0 10 8 17l69 61q8 8 2 17q-28 45 -28 100t28 100q2 3 2 7q0 6 -4 10l-69 61q-8 7 -8 17q0 9 7 16l16 16q7 7 16 7q10 0 17 -8l61 -69q8 -8 17 -2q45 28 100 28t100 -28q3 -2 7 -2q6 0 10 4l61 69q7 8 17 8q9 0 16 -7l16 -16q7 -7 7 -16q0 -10 -8 -17
l-69 -61q-8 -8 -2 -17q28 -45 28 -100t-28 -100q-2 -3 -2 -7q0 -6 4 -10l69 -61q8 -7 8 -17q0 -9 -7 -16l-16 -16q-7 -7 -16 -7q-10 0 -17 8l-61 69q-8 8 -17 2q-45 -28 -100 -28t-100 28q-3 2 -7 2q-6 0 -10 -4l-61 -69q-7 -8 -17 -8q-9 0 -16 7zM393.5 229
q29.5 31 29.5 83q0 58 -31.5 96t-87.5 38q-50 0 -79.5 -31t-29.5 -83q0 -58 32 -96t87 -38q50 0 79.5 31z" />
    <glyph glyph-name="yen" unicode="&#xa5;" horiz-adv-x="658" 
d="M225 0q-11 0 -17.5 6.5t-6.5 17.5v2q0 22 20 27l45 12q15 4 21 12t6 24v58q0 5 -3.5 8.5t-8.5 3.5h-138q-11 0 -17.5 6.5t-6.5 17.5v10q0 11 6.5 17.5t17.5 6.5h138q5 0 8.5 3.5t3.5 8.5v17q0 11 -3 20t-14 9h-133q-11 0 -17.5 6.5t-6.5 17.5v10q0 11 6.5 17.5t17.5 6.5
h92q7 0 9.5 3.5t-1.5 10.5l-133 223q-13 22 -25 34.5t-28 21.5l-21 12q-10 5 -14 10.5t-4 13.5v2q0 11 6.5 17.5t17.5 6.5h169q11 0 17.5 -6.5t6.5 -17.5v-2q0 -17 -18 -23l-20 -7q-24 -9 -24 -24q0 -7 6 -18l146 -250q4 -6 8 -6q5 0 8 6l143 244q5 8 5 17q0 20 -28 31
l-20 8q-18 7 -18 22v2q0 11 6.5 17.5t17.5 6.5h171q11 0 17.5 -6.5t6.5 -17.5v-2q0 -9 -4 -14t-14 -10l-22 -10q-18 -8 -28 -19t-23 -32l-139 -230q-2 -6 -2 -7q0 -7 10 -7h98q11 0 17.5 -6.5t6.5 -17.5v-10q0 -11 -6.5 -17.5t-17.5 -6.5h-139q-12 0 -13 -10q-1 -3 -1 -11
v-25q0 -5 3.5 -8.5t8.5 -3.5h141q11 0 17.5 -6.5t6.5 -17.5v-10q0 -11 -6.5 -17.5t-17.5 -6.5h-141q-5 0 -8.5 -3.5t-3.5 -8.5v-58q0 -16 6 -24t21 -12l45 -12q20 -5 20 -27v-2q0 -11 -6.5 -17.5t-17.5 -6.5h-208z" />
    <glyph glyph-name="brokenbar" unicode="&#xa6;" horiz-adv-x="324" 
d="M154 370q-11 0 -17.5 6.5t-6.5 17.5v322q0 11 6.5 17.5t17.5 6.5h16q11 0 17.5 -6.5t6.5 -17.5v-322q0 -11 -6.5 -17.5t-17.5 -6.5h-16zM154 -100q-11 0 -17.5 6.5t-6.5 17.5v322q0 11 6.5 17.5t17.5 6.5h16q11 0 17.5 -6.5t6.5 -17.5v-322q0 -11 -6.5 -17.5t-17.5 -6.5
h-16z" />
    <glyph glyph-name="section" unicode="&#xa7;" horiz-adv-x="563" 
d="M253 -104q-24 4 -35 4q-15 0 -29 -5t-19 -5h-4q-9 0 -13.5 3.5t-9.5 13.5l-57 122q-3 6 -3 11q0 10 11 17l3 2q5 4 15 4q12 0 19 -9q47 -58 88 -85.5t82 -27.5q50 0 75 23t25 59q0 34 -26 55.5t-77 40.5l-108 39q-67 24 -101.5 62t-34.5 99q0 76 75 128q5 4 5 8q0 5 -4 9
q-44 41 -44 104q0 61 45 101.5t126 40.5q21 0 51 -6q24 -4 35 -4q15 0 29 5t19 5h4q9 0 13.5 -3.5t9.5 -13.5l57 -122q3 -6 3 -11q0 -10 -11 -17l-3 -2q-5 -4 -15 -4q-11 0 -19 9q-47 58 -88 85.5t-82 27.5q-50 0 -75 -23t-25 -59q0 -34 26 -55.5t77 -40.5l108 -39
q67 -24 101.5 -62t34.5 -99q0 -76 -75 -128q-5 -4 -5 -8q0 -5 4 -9q44 -41 44 -104q0 -61 -45 -101.5t-126 -40.5q-21 0 -51 6zM358 179q2 -1 7 -1q4 0 10 3q52 37 52 92q0 37 -24 60.5t-77 42.5l-123 45q-2 1 -7 1q-4 0 -10 -3q-52 -37 -52 -92q0 -37 24 -60.5t77 -42.5z
" />
    <glyph glyph-name="dieresis" unicode="&#xa8;" horiz-adv-x="388" 
d="M65.5 613.5q-15.5 15.5 -15.5 36.5q0 22 15.5 37t38.5 15t38.5 -15t15.5 -37t-15.5 -37t-38.5 -15t-38.5 15.5zM246 613.5q-16 15.5 -16 36.5t16 36.5t38 15.5t38 -15.5t16 -36.5t-16 -36.5t-38 -15.5t-38 15.5z" />
    <glyph glyph-name="copyright" unicode="&#xa9;" horiz-adv-x="820" 
d="M224 36q-82 46 -128 128t-46 186t46 186t128 128t186 46t186 -46t128 -128t46 -186t-46 -186t-128 -128t-186 -46t-186 46zM571.5 78.5q60.5 36.5 95.5 102t35 149.5q0 96 -38.5 170.5t-111 116t-170.5 41.5q-73 0 -133.5 -36.5t-95.5 -102t-35 -149.5q0 -96 38.5 -170.5
t111 -116t170.5 -41.5q73 0 133.5 36.5zM294 207q-51 53 -51 142q0 57 22.5 101.5t62 69t89.5 24.5q14 0 26 -3q4 0 11.5 -1.5t14.5 -1.5q11 0 21 4t14 4q7 0 11 -3.5t8 -11.5l39 -84q3 -7 3 -12q0 -10 -9 -15l-2 -1q-6 -3 -12 -3q-10 0 -17 8q-38 43 -61 59t-53 16
q-46 0 -77.5 -34t-31.5 -99q0 -68 36.5 -111t101.5 -43q30 0 51 9.5t41 29.5q10 10 17 10q4 0 10 -3q9 -4 9 -14q0 -9 -7 -22q-17 -31 -52.5 -49.5t-77.5 -18.5q-86 0 -137 53z" />
    <glyph glyph-name="ordfeminine" unicode="&#xaa;" horiz-adv-x="411" 
d="M77.5 358.5q-32.5 28.5 -32.5 81.5q0 56 41.5 87t114.5 31q27 0 53 -3h2q9 0 9 9v31q0 32 -18 49.5t-47 17.5q-26 0 -46 -12.5t-39 -39.5q-5 -8 -9 -10.5t-11 -2.5q-12 0 -17 12l-20 42q-3 6 -3 12q0 10 12 17q22 12 60 19t74 7q67 0 98 -32t32 -97l2 -172q0 -21 17 -21
q9 0 19 9.5t16 9.5q8 0 12 -5t4 -12q0 -22 -15.5 -37.5t-41.5 -15.5q-38 0 -57 29l-5 8q-3 5 -8 5q-4 0 -8 -4q-41 -41 -98 -41q-58 0 -90.5 28.5zM257 420q8 11 8 26v50q0 9 -11 12q-22 5 -46 5q-44 0 -70 -19t-26 -49q0 -29 17.5 -45.5t47.5 -16.5q52 0 80 37zM75 218
q-11 0 -17.5 6.5t-6.5 17.5v4q0 11 6.5 17.5t17.5 6.5h270q11 0 17.5 -6.5t6.5 -17.5v-4q0 -11 -6.5 -17.5t-17.5 -6.5h-270z" />
    <glyph glyph-name="guillemotleft" unicode="&#xab;" horiz-adv-x="517" 
d="M242 50q-7 -4 -15 -4q-11 0 -18 10l-143 180q-6 9 -6 17q0 10 6 17l143 180q7 10 18 10q8 0 15 -4l2 -1q11 -5 11 -17q0 -6 -5 -16l-96 -161q-2 -6 -2 -8l2 -8l96 -161q5 -10 5 -16q0 -11 -11 -17zM432 50q-7 -4 -15 -4q-11 0 -18 10l-143 180q-6 9 -6 17q0 10 6 17
l143 180q7 10 18 10q8 0 15 -4l2 -1q11 -5 11 -17q0 -6 -5 -16l-96 -161q-2 -6 -2 -8l2 -8l96 -161q5 -10 5 -16q0 -11 -11 -17z" />
    <glyph glyph-name="logicalnot" unicode="&#xac;" horiz-adv-x="684" 
d="M516 165q-11 0 -17.5 6.5t-6.5 17.5v142q0 5 -3.5 8.5t-8.5 3.5h-356q-11 0 -17.5 6.5t-6.5 17.5v10q0 11 6.5 17.5t17.5 6.5h406q11 0 17.5 -6.5t6.5 -17.5v-188q0 -11 -6.5 -17.5t-17.5 -6.5h-14z" />
    <glyph glyph-name="uni00AD" unicode="&#xad;" horiz-adv-x="382" 
d="M78 271q-11 0 -17.5 6.5t-6.5 17.5v14q0 11 6.5 17.5t17.5 6.5h226q11 0 17.5 -6.5t6.5 -17.5v-14q0 -11 -6.5 -17.5t-17.5 -6.5h-226z" />
    <glyph glyph-name="registered" unicode="&#xae;" horiz-adv-x="820" 
d="M224 36q-82 46 -128 128t-46 186t46 186t128 128t186 46t186 -46t128 -128t46 -186t-46 -186t-128 -128t-186 -46t-186 46zM571.5 78.5q60.5 36.5 95.5 102t35 149.5q0 96 -38.5 170.5t-111 116t-170.5 41.5q-73 0 -133.5 -36.5t-95.5 -102t-35 -149.5q0 -96 38.5 -170.5
t111 -116t170.5 -41.5q73 0 133.5 36.5zM269 165q-7 0 -11 4t-4 11v2q0 7 3 11t10 6l17 5q9 3 12.5 8t3.5 13v247q0 11 -3.5 16t-13.5 9l-17 7q-12 5 -12 16v2q0 13 15 16q41 8 106 8q85 0 130 -31t45 -85q0 -35 -20 -57.5t-57 -31.5q-10 -2 -4 -12l56 -92q9 -15 18 -22.5
t22 -11.5l13 -4q14 -4 14 -18v-1q0 -7 -4 -11t-11 -4h-55q-21 0 -31 18l-59 106q-16 29 -32 40.5t-35 11.5q-10 0 -10 -10v-106q0 -8 3.5 -13t12.5 -8l17 -5q7 -2 10 -6t3 -11v-2q0 -7 -4 -11t-11 -4h-117zM475 389q17 14 17 41q0 36 -29.5 56t-76.5 20q-17 0 -24 -6.5
t-7 -22.5v-83q0 -9 14 -12q36 -7 59 -7q30 0 47 14z" />
    <glyph glyph-name="macron" unicode="&#xaf;" horiz-adv-x="374" 
d="M74 595q-11 0 -17.5 6.5t-6.5 17.5v12q0 11 6.5 17.5t17.5 6.5h226q11 0 17.5 -6.5t6.5 -17.5v-12q0 -11 -6.5 -17.5t-17.5 -6.5h-226z" />
    <glyph glyph-name="degree" unicode="&#xb0;" horiz-adv-x="400" 
d="M123.5 429.5q-34.5 19.5 -54 53.5t-19.5 77t19.5 77t54 53.5t76.5 19.5t76.5 -19.5t54 -53.5t19.5 -77t-19.5 -77t-54 -53.5t-76.5 -19.5t-76.5 19.5zM264.5 485.5q22.5 23.5 22.5 63.5q0 47 -24.5 78t-67.5 31q-36 0 -58.5 -23.5t-22.5 -63.5q0 -47 24.5 -78t67.5 -31
q36 0 58.5 23.5z" />
    <glyph glyph-name="plusminus" unicode="&#xb1;" horiz-adv-x="654" 
d="M319 172q-11 0 -17.5 6.5t-6.5 17.5v162q0 5 -3.5 8.5t-8.5 3.5h-159q-11 0 -17.5 6.5t-6.5 17.5v10q0 11 6.5 17.5t17.5 6.5h159q5 0 8.5 3.5t3.5 8.5v162q0 11 6.5 17.5t17.5 6.5h16q11 0 17.5 -6.5t6.5 -17.5v-162q0 -5 3.5 -8.5t8.5 -3.5h159q11 0 17.5 -6.5
t6.5 -17.5v-10q0 -11 -6.5 -17.5t-17.5 -6.5h-159q-5 0 -8.5 -3.5t-3.5 -8.5v-162q0 -11 -6.5 -17.5t-17.5 -6.5h-16zM124 0q-11 0 -17.5 6.5t-6.5 17.5v10q0 11 6.5 17.5t17.5 6.5h406q11 0 17.5 -6.5t6.5 -17.5v-10q0 -11 -6.5 -17.5t-17.5 -6.5h-406z" />
    <glyph glyph-name="uni00B2" unicode="&#xb2;" horiz-adv-x="336" 
d="M257 395q-8 0 -19 6q-9 5 -27 5h-163q-20 0 -20 20v10q0 8 3.5 14t12.5 14q91 77 128.5 124t37.5 90q0 25 -12 38t-35 13q-27 0 -48 -18t-49 -64q-9 -14 -23 -9l-5 2q-12 5 -12 15l2 8l28 78q3 9 7.5 13t13.5 8q12 5 36.5 9t50.5 4q55 0 84.5 -25.5t29.5 -71.5
q0 -35 -20 -68t-53 -64.5t-92 -80.5q-4 -4 -4 -6q0 -5 7 -5h40q30 0 47 4.5t30 17t28 40.5q8 14 22 10l4 -1q17 -4 12 -22l-24 -94q-4 -14 -16 -14h-2z" />
    <glyph glyph-name="uni00B3" unicode="&#xb3;" horiz-adv-x="318" 
d="M74 418q-32 17 -42 43q-2 8 -2 10q0 10 9 17q8 4 11 4q8 0 15 -7q16 -16 35 -25t47 -9q31 0 49 19t18 48q0 32 -16.5 51t-45.5 24h-3q-5 0 -9 -4l-8 -8q-7 -7 -14 -7q-6 0 -11 5l-6 6q-7 7 -7 13q0 4 5 11l101 108q3 3 2 5.5t-5 2.5h-43q-29 0 -47 -11t-43 -43
q-6 -7 -11 -9.5t-11 1.5l-2 1q-9 5 -9 12l2 8l31 84q4 13 16 13h1q8 0 18 -5q12 -6 27 -6h134q20 0 20 -20v-8q0 -8 -8 -16l-85 -88q-2 -2 -2 -5t6 -5q45 -13 68 -40t23 -72q0 -51 -35 -83t-97 -32q-44 0 -76 17z" />
    <glyph glyph-name="acute" unicode="&#xb4;" horiz-adv-x="294" 
d="M93 560q-7 -7 -16 -7q-8 0 -15 7l-4 4q-8 8 -8 16t6 15l118 144q7 10 17 10q8 0 15 -7l31 -30q7 -6 7 -14q0 -9 -8 -16z" />
    <glyph glyph-name="uni00B5" unicode="&#xb5;" horiz-adv-x="584" 
d="M118 -216q-16 0 -25 10t-8 27l10 205l4 98v243q0 23 -9.5 32.5t-39.5 15.5q-21 4 -21 23v1q0 7 4 12.5t17 10.5l81 35q12 4 15 4q10 0 16 -7.5t6 -20.5v-319q0 -54 18.5 -77.5t68.5 -23.5q35 0 70.5 11t59.5 29q14 11 19 20t5 24v230q0 23 -9.5 32.5t-38.5 15.5
q-12 2 -17 7.5t-5 15.5v1q0 7 4 12t17 11l79 35q12 4 16 4q21 0 21 -28v-380q0 -16 6 -24.5t22 -12.5l19 -5q12 -3 18 -8.5t6 -16.5v-1q0 -12 -7 -18.5t-18 -6.5h-80q-12 0 -18 6t-8 18l-2 14q-3 19 -16 9l-13 -10q-61 -47 -127 -47q-49 0 -91 31q-5 3 -8 3q-7 0 -6 -9
l10 -194q1 -17 -8.5 -27t-25.5 -10h-11z" />
    <glyph glyph-name="paragraph" unicode="&#xb6;" horiz-adv-x="666" 
d="M256 -100q-11 0 -17.5 6.5t-6.5 17.5v2q0 11 5 17t15 10l31 11q15 5 21 13t6 24v321q0 6 -3.5 9.5t-9.5 2.5q-38 -6 -89 -6q-81 0 -125.5 45.5t-44.5 116.5q0 103 67 156.5t183 53.5h302q11 0 17.5 -6.5t6.5 -17.5v-2q0 -11 -5 -17t-15 -10l-31 -11q-15 -5 -21 -13
t-6 -24v-598q0 -16 6 -24t21 -13l31 -11q10 -4 15 -10t5 -17v-2q0 -11 -6.5 -17.5t-17.5 -6.5h-334zM446 -37q13 4 17.5 12.5t4.5 25.5v598q0 17 -4.5 25.5t-17.5 12.5q-9 3 -23 3t-23 -3q-13 -4 -17.5 -12.5t-4.5 -25.5v-598q0 -17 4.5 -25.5t17.5 -12.5q9 -3 23 -3t23 3z
" />
    <glyph glyph-name="periodcentered" unicode="&#xb7;" horiz-adv-x="284" 
d="M99 322.5q-17 16.5 -17 41.5t17 41.5t43 16.5t43 -16.5t17 -41.5t-17 -41.5t-43 -16.5t-43 16.5z" />
    <glyph glyph-name="cedilla" unicode="&#xb8;" horiz-adv-x="291" 
d="M93.5 -194q-24.5 11 -36.5 26q-7 10 -7 17q0 8 6 14q5 5 12 5q9 0 16 -6q27 -21 55 -21q19 0 28 9.5t9 25.5q0 15 -8 24.5t-26 16.5l-19 7q-9 3 -12.5 6.5t-3.5 10.5q0 3 2 11l23 68l46 -6l-15 -46l-1 -4q0 -5 9 -8l7 -3q32 -14 47.5 -32.5t15.5 -46.5q0 -36 -25 -57.5
t-69 -21.5q-29 0 -53.5 11z" />
    <glyph glyph-name="uni00B9" unicode="&#xb9;" horiz-adv-x="272" 
d="M68 406q-20 0 -20 20v3q0 8 4.5 12.5t13.5 7.5l27 9q15 5 20 10.5t5 19.5v182q0 14 -12 14l-9 -2l-46 -14l-9 -2q-10 0 -16 11l-1 2q-3 6 -3 11q0 11 13 18l89 53q15 9 25 9h9q20 0 20 -20v-262q0 -14 5 -19.5t20 -10.5l27 -9q10 -3 14 -7.5t4 -12.5v-3q0 -20 -20 -20
h-160z" />
    <glyph glyph-name="ordmasculine" unicode="&#xba;" horiz-adv-x="422" 
d="M123.5 354q-39.5 24 -62.5 66.5t-23 97.5t23 98t62.5 66.5t87.5 23.5t87.5 -23.5t62.5 -66.5t23 -98t-23 -97.5t-62.5 -66.5t-87.5 -24t-87.5 24zM294.5 421q27.5 30 27.5 87q0 60 -32 98.5t-88 38.5q-46 0 -74 -30t-28 -86q0 -60 32.5 -99t87.5 -39q47 0 74.5 30z
M76 218q-11 0 -17.5 6.5t-6.5 17.5v4q0 11 6.5 17.5t17.5 6.5h270q11 0 17.5 -6.5t6.5 -17.5v-4q0 -11 -6.5 -17.5t-17.5 -6.5h-270z" />
    <glyph glyph-name="guillemotright" unicode="&#xbb;" horiz-adv-x="517" 
d="M83 51q-11 6 -11 17q0 6 5 16l96 161q2 3 2 8t-2 8l-96 161q-5 10 -5 16q0 12 11 17l2 1q7 4 15 4q11 0 18 -10l143 -180q6 -7 6 -17q0 -8 -6 -17l-143 -180q-7 -10 -18 -10q-8 0 -15 4zM273 51q-11 6 -11 17q0 6 5 16l96 161q2 3 2 8t-2 8l-96 161q-5 10 -5 16
q0 12 11 17l2 1q7 4 15 4q11 0 18 -10l143 -180q6 -7 6 -17q0 -8 -6 -17l-143 -180q-7 -10 -18 -10q-8 0 -15 4z" />
    <glyph glyph-name="onequarter" unicode="&#xbc;" horiz-adv-x="741" 
d="M68 336q-20 0 -20 20v3q0 8 4.5 12.5t13.5 7.5l27 9q15 5 20 10.5t5 19.5v182q0 14 -12 14l-9 -2l-46 -14l-9 -2q-10 0 -16 11l-1 2q-3 6 -3 11q0 11 13 18l89 53q15 9 25 9h9q20 0 20 -20v-262q0 -14 5 -19.5t20 -10.5l27 -9q10 -3 14 -7.5t4 -12.5v-3q0 -20 -20 -20
h-160zM385 385q-9 6 -9 16q0 7 5 15l188 281q8 12 20 12q7 0 15 -5l22 -16q11 -8 11 -18q0 -8 -6 -16l-211 -266q-9 -10 -18 -10q-6 0 -14 5zM101 13q-11 8 -11 18q0 9 6 16l211 266q9 10 18 10q6 0 14 -5l3 -2q9 -6 9 -16q0 -7 -5 -15l-188 -281q-8 -12 -20 -12q-7 0 -15 5
zM547 0q-21 0 -21 20v2q0 14 17 20l16 6q15 5 20 11.5t5 19.5v21q0 10 -10 10h-132q-10 0 -15 4t-5 11v4q0 11 8 22l148 200q9 13 25 13h74q20 0 20 -19v-2q0 -7 -4 -11.5t-13 -8.5l-16 -6q-13 -5 -18 -12t-5 -21v-120q0 -10 10 -10h42q20 0 20 -20v-4q0 -20 -20 -20h-42
q-10 0 -10 -10v-21q0 -13 5 -19.5t20 -11.5l16 -6q17 -6 17 -20v-2q0 -20 -20 -20h-132zM574 154q10 0 10 10v109q0 6 -4 7t-7 -4l-80 -113q-2 -4 -0.5 -6.5t5.5 -2.5h76z" />
    <glyph glyph-name="onehalf" unicode="&#xbd;" horiz-adv-x="781" 
d="M68 336q-20 0 -20 20v3q0 8 4.5 12.5t13.5 7.5l27 9q15 5 20 10.5t5 19.5v182q0 14 -12 14l-9 -2l-46 -14l-9 -2q-10 0 -16 11l-1 2q-3 6 -3 11q0 11 13 18l89 53q15 9 25 9h9q20 0 20 -20v-262q0 -14 5 -19.5t20 -10.5l27 -9q10 -3 14 -7.5t4 -12.5v-3q0 -20 -20 -20
h-160zM385 385q-9 6 -9 16q0 7 5 15l188 281q8 12 20 12q7 0 15 -5l22 -16q11 -8 11 -18q0 -8 -6 -16l-211 -266q-9 -10 -18 -10q-6 0 -14 5zM101 13q-11 8 -11 18q0 9 6 16l211 266q9 10 18 10q6 0 14 -5l3 -2q9 -6 9 -16q0 -7 -5 -15l-188 -281q-8 -12 -20 -12q-7 0 -15 5
zM702 -11q-8 0 -19 6q-9 5 -27 5h-163q-20 0 -20 20v10q0 8 3.5 14t12.5 14q91 77 128.5 124t37.5 90q0 25 -12 38t-35 13q-27 0 -48 -18t-49 -64q-9 -14 -23 -9l-5 2q-12 5 -12 15l2 8l28 78q3 9 7.5 13t13.5 8q12 5 36.5 9t50.5 4q55 0 84.5 -25.5t29.5 -71.5
q0 -35 -20 -68t-53 -64.5t-92 -80.5q-4 -4 -4 -6q0 -5 7 -5h40q30 0 47 4.5t30 17t28 40.5q8 14 22 10l4 -1q17 -4 12 -22l-24 -94q-4 -14 -16 -14h-2z" />
    <glyph glyph-name="threequarters" unicode="&#xbe;" horiz-adv-x="769" 
d="M74 348q-32 17 -42 43q-2 8 -2 10q0 10 9 17q8 4 11 4q8 0 15 -7q16 -16 35 -25t47 -9q31 0 49 19t18 48q0 32 -16.5 51t-45.5 24h-3q-5 0 -9 -4l-8 -8q-7 -7 -14 -7q-6 0 -11 5l-6 6q-7 7 -7 13q0 4 5 11l101 108q3 3 2 5.5t-5 2.5h-43q-29 0 -47 -11t-43 -43
q-6 -7 -11 -9.5t-11 1.5l-2 1q-9 5 -9 12l2 8l31 84q4 13 16 13h1q8 0 18 -5q12 -6 27 -6h134q20 0 20 -20v-8q0 -8 -8 -16l-85 -88q-2 -2 -2 -5t6 -5q45 -13 68 -40t23 -72q0 -51 -35 -83t-97 -32q-44 0 -76 17zM413 385q-9 6 -9 16q0 7 5 15l188 281q8 12 20 12q7 0 15 -5
l22 -16q11 -8 11 -18q0 -8 -6 -16l-211 -266q-9 -10 -18 -10q-6 0 -14 5zM129 13q-11 8 -11 18q0 9 6 16l211 266q9 10 18 10q6 0 14 -5l3 -2q9 -6 9 -16q0 -7 -5 -15l-188 -281q-8 -12 -20 -12q-7 0 -15 5zM575 0q-21 0 -21 20v2q0 14 17 20l16 6q15 5 20 11.5t5 19.5v21
q0 10 -10 10h-132q-10 0 -15 4t-5 11v4q0 11 8 22l148 200q9 13 25 13h74q20 0 20 -19v-2q0 -7 -4 -11.5t-13 -8.5l-16 -6q-13 -5 -18 -12t-5 -21v-120q0 -10 10 -10h42q20 0 20 -20v-4q0 -20 -20 -20h-42q-10 0 -10 -10v-21q0 -13 5 -19.5t20 -11.5l16 -6q17 -6 17 -20v-2
q0 -20 -20 -20h-132zM602 154q10 0 10 10v109q0 6 -4 7t-7 -4l-80 -113q-2 -4 -0.5 -6.5t5.5 -2.5h76z" />
    <glyph glyph-name="questiondown" unicode="&#xbf;" horiz-adv-x="512" 
d="M327 483.5q17 -16.5 17 -41.5t-17 -41.5t-43 -16.5t-43 16.5t-17 41.5t17 41.5t43 16.5t43 -16.5zM314 264q0 -9 -9 -21l-28 -35q-56 -70 -83.5 -108.5t-43.5 -75t-16 -72.5q0 -52 29.5 -81.5t88.5 -29.5q46 0 82.5 31t76.5 102q8 15 19 15q6 0 13 -3l3 -1q18 -6 18 -21
q0 -3 -2 -11l-33 -122q-3 -10 -9.5 -16t-18.5 -10q-24 -9 -74 -17t-76 -8q-95 0 -147 43t-52 123q0 54 27 106t66.5 98t120.5 130q10 10 20 10q9 0 19 -8q9 -7 9 -18z" />
    <glyph glyph-name="Agrave" unicode="&#xc0;" horiz-adv-x="688" 
d="M42 0q-11 0 -17.5 6.5t-6.5 17.5v2q0 10 4 15t14 9l22 8q20 7 30.5 18t17.5 29l180 477q3 9 3 17q0 21 -24 30l-36 13q-23 8 -23 24q0 6 1 9l1 4q6 21 28 21h102q24 0 31 -21l220 -563q10 -24 21 -36.5t29 -20.5l21 -9q18 -7 18 -24v-2q0 -11 -6.5 -17.5t-17.5 -6.5h-168
q-11 0 -17.5 6.5t-6.5 17.5v2q0 17 18 23l20 7q13 4 18 9t5 12q0 8 -4 17l-36 98q-3 10 -14 10h-250q-10 0 -13 -10l-34 -92q-3 -9 -3 -15q0 -20 29 -30l20 -7q18 -6 18 -22v-2q0 -11 -6.5 -17.5t-17.5 -6.5h-170zM443 258q15 0 10 14l-103 273q-3 8 -8 8t-8 -8l-100 -273
q-1 -2 -1 -5q0 -9 11 -9h199zM214 846q-13 7 -13 17q0 4 4 12l21 37q8 12 17 12q7 0 15 -6l153 -106q11 -6 11 -17q0 -6 -4 -13l-3 -5q-6 -12 -18 -12q-6 0 -12 3z" />
    <glyph glyph-name="Aacute" unicode="&#xc1;" horiz-adv-x="688" 
d="M42 0q-11 0 -17.5 6.5t-6.5 17.5v2q0 10 4 15t14 9l22 8q20 7 30.5 18t17.5 29l180 477q3 9 3 17q0 21 -24 30l-36 13q-23 8 -23 24q0 6 1 9l1 4q6 21 28 21h102q24 0 31 -21l220 -563q10 -24 21 -36.5t29 -20.5l21 -9q18 -7 18 -24v-2q0 -11 -6.5 -17.5t-17.5 -6.5h-168
q-11 0 -17.5 6.5t-6.5 17.5v2q0 17 18 23l20 7q13 4 18 9t5 12q0 8 -4 17l-36 98q-3 10 -14 10h-250q-10 0 -13 -10l-34 -92q-3 -9 -3 -15q0 -20 29 -30l20 -7q18 -6 18 -22v-2q0 -11 -6.5 -17.5t-17.5 -6.5h-170zM443 258q15 0 10 14l-103 273q-3 8 -8 8t-8 -8l-100 -273
q-1 -2 -1 -5q0 -9 11 -9h199zM263 768q-6 -3 -12 -3q-12 0 -18 12l-3 5q-4 7 -4 13q0 11 11 17l153 106q7 6 15 6q9 0 17 -12l21 -37q4 -8 4 -12q0 -10 -13 -17z" />
    <glyph glyph-name="Acircumflex" unicode="&#xc2;" horiz-adv-x="688" 
d="M42 0q-11 0 -17.5 6.5t-6.5 17.5v2q0 10 4 15t14 9l22 8q20 7 30.5 18t17.5 29l180 477q3 9 3 17q0 21 -24 30l-36 13q-23 8 -23 24q0 6 1 9l1 4q6 21 28 21h102q24 0 31 -21l220 -563q10 -24 21 -36.5t29 -20.5l21 -9q18 -7 18 -24v-2q0 -11 -6.5 -17.5t-17.5 -6.5h-168
q-11 0 -17.5 6.5t-6.5 17.5v2q0 17 18 23l20 7q13 4 18 9t5 12q0 8 -4 17l-36 98q-3 10 -14 10h-250q-10 0 -13 -10l-34 -92q-3 -9 -3 -15q0 -20 29 -30l20 -7q18 -6 18 -22v-2q0 -11 -6.5 -17.5t-17.5 -6.5h-170zM443 258q15 0 10 14l-103 273q-3 8 -8 8t-8 -8l-100 -273
q-1 -2 -1 -5q0 -9 11 -9h199zM209 770q-8 -5 -14 -5q-9 0 -15 9l-2 3q-5 8 -5 14q0 7 9 16l104 97q8 7 15 10.5t16 3.5h14q9 0 16 -3.5t15 -10.5l104 -97q9 -9 9 -16q0 -6 -5 -14l-2 -3q-6 -9 -15 -9q-6 0 -14 5l-107 64q-3 2 -8 2t-8 -2z" />
    <glyph glyph-name="Atilde" unicode="&#xc3;" horiz-adv-x="688" 
d="M42 0q-11 0 -17.5 6.5t-6.5 17.5v2q0 10 4 15t14 9l22 8q20 7 30.5 18t17.5 29l180 477q3 9 3 17q0 21 -24 30l-36 13q-23 8 -23 24q0 6 1 9l1 4q6 21 28 21h102q24 0 31 -21l220 -563q10 -24 21 -36.5t29 -20.5l21 -9q18 -7 18 -24v-2q0 -11 -6.5 -17.5t-17.5 -6.5h-168
q-11 0 -17.5 6.5t-6.5 17.5v2q0 17 18 23l20 7q13 4 18 9t5 12q0 8 -4 17l-36 98q-3 10 -14 10h-250q-10 0 -13 -10l-34 -92q-3 -9 -3 -15q0 -20 29 -30l20 -7q18 -6 18 -22v-2q0 -11 -6.5 -17.5t-17.5 -6.5h-170zM443 258q15 0 10 14l-103 273q-3 8 -8 8t-8 -8l-100 -273
q-1 -2 -1 -5q0 -9 11 -9h199zM165 807q0 7 2 12q13 37 38.5 58.5t56.5 21.5q30 0 58 -14l29 -15q24 -13 42 -13q28 0 45 29q11 18 25 18q3 0 9 -2q13 -4 13 -18q0 -7 -2 -12q-13 -37 -38.5 -58.5t-56.5 -21.5q-30 0 -58 14l-29 15q-24 13 -42 13q-28 0 -45 -29
q-10 -18 -25 -18q-22 0 -22 20z" />
    <glyph glyph-name="Adieresis" unicode="&#xc4;" horiz-adv-x="688" 
d="M42 0q-11 0 -17.5 6.5t-6.5 17.5v2q0 10 4 15t14 9l22 8q20 7 30.5 18t17.5 29l180 477q3 9 3 17q0 21 -24 30l-36 13q-23 8 -23 24q0 6 1 9l1 4q6 21 28 21h102q24 0 31 -21l220 -563q10 -24 21 -36.5t29 -20.5l21 -9q18 -7 18 -24v-2q0 -11 -6.5 -17.5t-17.5 -6.5h-168
q-11 0 -17.5 6.5t-6.5 17.5v2q0 17 18 23l20 7q13 4 18 9t5 12q0 8 -4 17l-36 98q-3 10 -14 10h-250q-10 0 -13 -10l-34 -92q-3 -9 -3 -15q0 -20 29 -30l20 -7q18 -6 18 -22v-2q0 -11 -6.5 -17.5t-17.5 -6.5h-170zM443 258q15 0 10 14l-103 273q-3 8 -8 8t-8 -8l-100 -273
q-1 -2 -1 -5q0 -9 11 -9h199zM195.5 806.5q-15.5 15.5 -15.5 36.5q0 22 15.5 37t38.5 15t38.5 -15t15.5 -37t-15.5 -37t-38.5 -15t-38.5 15.5zM376 806.5q-16 15.5 -16 36.5t16 36.5t38 15.5t38 -15.5t16 -36.5t-16 -36.5t-38 -15.5t-38 15.5z" />
    <glyph glyph-name="Aring" unicode="&#xc5;" horiz-adv-x="688" 
d="M42 0q-11 0 -17.5 6.5t-6.5 17.5v2q0 10 4 15t14 9l22 8q20 7 30.5 18t17.5 29l180 477q3 9 3 17q0 21 -24 30l-36 13q-23 8 -23 24q0 6 1 9l1 4q6 21 28 21h102q24 0 31 -21l220 -563q10 -24 21 -36.5t29 -20.5l21 -9q18 -7 18 -24v-2q0 -11 -6.5 -17.5t-17.5 -6.5h-168
q-11 0 -17.5 6.5t-6.5 17.5v2q0 17 18 23l20 7q13 4 18 9t5 12q0 8 -4 17l-36 98q-3 10 -14 10h-250q-10 0 -13 -10l-34 -92q-3 -9 -3 -15q0 -20 29 -30l20 -7q18 -6 18 -22v-2q0 -11 -6.5 -17.5t-17.5 -6.5h-170zM443 258q15 0 10 14l-103 273q-3 8 -8 8t-8 -8l-100 -273
q-1 -2 -1 -5q0 -9 11 -9h199zM251 768.5q-29 28.5 -29 70.5t29 70.5t73 28.5t73 -28.5t29 -70.5t-29 -70.5t-73 -28.5t-73 28.5zM362 795q13 14 13 39q0 27 -14.5 45t-39.5 18q-22 0 -35 -14t-13 -39q0 -27 14.5 -45t39.5 -18q22 0 35 14z" />
    <glyph glyph-name="AE" unicode="&#xc6;" horiz-adv-x="1009" 
d="M892 -18q-11 0 -27 8q-10 5 -16.5 7.5t-16.5 2.5h-396q-11 0 -17.5 6.5t-6.5 17.5v2q0 11 5 17t15 10l31 11q15 5 21 13t6 24v89q0 5 -3.5 8.5t-8.5 3.5h-227q-9 0 -14 -8l-60 -94q-7 -10 -7 -19t7 -14.5t21 -11.5l20 -7q18 -6 18 -22v-2q0 -11 -6.5 -17.5t-17.5 -6.5
h-180q-11 0 -17.5 6.5t-6.5 17.5v2q0 10 4 15t14 9l24 9q19 7 30 17t23 29l309 477q7 11 7 22q0 17 -22 25l-33 13q-23 8 -23 24q0 6 1 9l1 4q6 21 28 21h420q18 0 34 10q8 6 13.5 8t13.5 2h3q18 0 26 -18l62 -129q3 -6 3 -10q0 -10 -12 -18l-3 -2q-8 -5 -15 -5
q-10 0 -19 10q-39 42 -68.5 61.5t-74.5 27t-129 7.5q-35 0 -49 -10t-14 -31v-150q0 -5 3.5 -8.5t8.5 -3.5h120q25 0 40 3.5t18 4.5q14 4 20 4q9 0 13.5 -4t9.5 -15l59 -114q3 -6 3 -11q0 -10 -12 -17l-5 -3q-5 -4 -12 -4q-10 0 -19 11q-43 52 -83 70.5t-100 18.5h-52
q-5 0 -8.5 -3.5t-3.5 -8.5v-276q0 -20 17.5 -30.5t48.5 -10.5q88 0 138.5 10.5t85.5 37t76 79.5q8 11 19 11q8 0 16 -4l4 -2q14 -7 14 -20q0 -5 -2 -11l-54 -154q-8 -21 -30 -21h-3zM478 258q5 0 8.5 3.5t3.5 8.5v297q0 9 -6 9q-3 0 -8 -6l-190 -298q-2 -6 -2 -7q0 -7 10 -7
h184z" />
    <glyph glyph-name="Ccedilla" unicode="&#xc7;" horiz-adv-x="678" 
d="M309.5 -194q-24.5 11 -36.5 26q-7 10 -7 17q0 8 6 14q5 5 12 5q9 0 16 -6q27 -21 55 -21q19 0 28 9.5t9 25.5q0 15 -8 24.5t-26 16.5l-19 7q-9 3 -12.5 6.5t-3.5 10.5q0 3 2 11l10 30q1 2 1 5q0 8 -11 9q-127 23 -201 118.5t-74 245.5q0 101 39 179.5t110.5 122.5
t165.5 44q25 0 70 -9q7 -1 19.5 -3t19.5 -2q21 0 38 5.5t23 5.5h3q10 0 16 -5.5t12 -17.5l70 -154q4 -9 4 -16q0 -9 -12 -18l-3 -2q-8 -5 -16 -5q-12 0 -20 11q-42 53 -73.5 84t-69 48t-85.5 17q-65 0 -117.5 -31t-83.5 -89.5t-31 -136.5q0 -94 34.5 -166.5t98 -113
t146.5 -40.5q64 0 107 19.5t76 52.5q17 17 31 17q6 0 12 -3q16 -7 16 -25q0 -23 -31.5 -56.5t-89.5 -58t-134 -24.5q-9 0 -12 -10l-4 -12l-1 -4q0 -5 9 -8l7 -3q32 -14 47.5 -32.5t15.5 -46.5q0 -36 -25 -57.5t-69 -21.5q-29 0 -53.5 11z" />
    <glyph glyph-name="Egrave" unicode="&#xc8;" horiz-adv-x="649" 
d="M532 -18q-11 0 -27 8q-10 5 -16.5 7.5t-16.5 2.5h-396q-11 0 -17.5 6.5t-6.5 17.5v2q0 11 5 17t15 10l31 11q15 5 21 13t6 24v498q0 16 -6 24t-21 13l-31 11q-10 4 -15 10t-5 17v2q0 11 6.5 17.5t17.5 6.5h355q18 0 34 10q8 6 13.5 8t13.5 2h3q18 0 26 -18l62 -129
q3 -6 3 -10q0 -10 -12 -18l-3 -2q-8 -5 -15 -5q-10 0 -19 10q-39 42 -68.5 61.5t-74.5 27t-129 7.5q-35 0 -49 -10t-14 -31v-150q0 -5 3.5 -8.5t8.5 -3.5h120q25 0 40 3.5t18 4.5q14 4 20 4q9 0 13.5 -4t9.5 -15l59 -114q3 -6 3 -11q0 -10 -12 -17l-5 -3q-5 -4 -12 -4
q-10 0 -19 11q-43 52 -83 70.5t-100 18.5h-52q-5 0 -8.5 -3.5t-3.5 -8.5v-276q0 -20 17.5 -30.5t48.5 -10.5q92 0 143 9.5t86.5 35.5t71.5 81q8 12 19 12q7 0 15 -4l4 -2q14 -7 14 -20q0 -5 -2 -11l-54 -154q-8 -21 -30 -21h-3zM215 846q-13 7 -13 17q0 4 4 12l21 37
q8 12 17 12q7 0 15 -6l153 -106q11 -6 11 -17q0 -6 -4 -13l-3 -5q-6 -12 -18 -12q-6 0 -12 3z" />
    <glyph glyph-name="Eacute" unicode="&#xc9;" horiz-adv-x="649" 
d="M532 -18q-11 0 -27 8q-10 5 -16.5 7.5t-16.5 2.5h-396q-11 0 -17.5 6.5t-6.5 17.5v2q0 11 5 17t15 10l31 11q15 5 21 13t6 24v498q0 16 -6 24t-21 13l-31 11q-10 4 -15 10t-5 17v2q0 11 6.5 17.5t17.5 6.5h355q18 0 34 10q8 6 13.5 8t13.5 2h3q18 0 26 -18l62 -129
q3 -6 3 -10q0 -10 -12 -18l-3 -2q-8 -5 -15 -5q-10 0 -19 10q-39 42 -68.5 61.5t-74.5 27t-129 7.5q-35 0 -49 -10t-14 -31v-150q0 -5 3.5 -8.5t8.5 -3.5h120q25 0 40 3.5t18 4.5q14 4 20 4q9 0 13.5 -4t9.5 -15l59 -114q3 -6 3 -11q0 -10 -12 -17l-5 -3q-5 -4 -12 -4
q-10 0 -19 11q-43 52 -83 70.5t-100 18.5h-52q-5 0 -8.5 -3.5t-3.5 -8.5v-276q0 -20 17.5 -30.5t48.5 -10.5q92 0 143 9.5t86.5 35.5t71.5 81q8 12 19 12q7 0 15 -4l4 -2q14 -7 14 -20q0 -5 -2 -11l-54 -154q-8 -21 -30 -21h-3zM264 768q-6 -3 -12 -3q-12 0 -18 12l-3 5
q-4 7 -4 13q0 11 11 17l153 106q7 6 15 6q9 0 17 -12l21 -37q4 -8 4 -12q0 -10 -13 -17z" />
    <glyph glyph-name="Ecircumflex" unicode="&#xca;" horiz-adv-x="649" 
d="M532 -18q-11 0 -27 8q-10 5 -16.5 7.5t-16.5 2.5h-396q-11 0 -17.5 6.5t-6.5 17.5v2q0 11 5 17t15 10l31 11q15 5 21 13t6 24v498q0 16 -6 24t-21 13l-31 11q-10 4 -15 10t-5 17v2q0 11 6.5 17.5t17.5 6.5h355q18 0 34 10q8 6 13.5 8t13.5 2h3q18 0 26 -18l62 -129
q3 -6 3 -10q0 -10 -12 -18l-3 -2q-8 -5 -15 -5q-10 0 -19 10q-39 42 -68.5 61.5t-74.5 27t-129 7.5q-35 0 -49 -10t-14 -31v-150q0 -5 3.5 -8.5t8.5 -3.5h120q25 0 40 3.5t18 4.5q14 4 20 4q9 0 13.5 -4t9.5 -15l59 -114q3 -6 3 -11q0 -10 -12 -17l-5 -3q-5 -4 -12 -4
q-10 0 -19 11q-43 52 -83 70.5t-100 18.5h-52q-5 0 -8.5 -3.5t-3.5 -8.5v-276q0 -20 17.5 -30.5t48.5 -10.5q92 0 143 9.5t86.5 35.5t71.5 81q8 12 19 12q7 0 15 -4l4 -2q14 -7 14 -20q0 -5 -2 -11l-54 -154q-8 -21 -30 -21h-3zM210 770q-8 -5 -14 -5q-9 0 -15 9l-2 3
q-5 8 -5 14q0 7 9 16l104 97q8 7 15 10.5t16 3.5h14q9 0 16 -3.5t15 -10.5l104 -97q9 -9 9 -16q0 -6 -5 -14l-2 -3q-6 -9 -15 -9q-6 0 -14 5l-107 64q-3 2 -8 2t-8 -2z" />
    <glyph glyph-name="Edieresis" unicode="&#xcb;" horiz-adv-x="649" 
d="M532 -18q-11 0 -27 8q-10 5 -16.5 7.5t-16.5 2.5h-396q-11 0 -17.5 6.5t-6.5 17.5v2q0 11 5 17t15 10l31 11q15 5 21 13t6 24v498q0 16 -6 24t-21 13l-31 11q-10 4 -15 10t-5 17v2q0 11 6.5 17.5t17.5 6.5h355q18 0 34 10q8 6 13.5 8t13.5 2h3q18 0 26 -18l62 -129
q3 -6 3 -10q0 -10 -12 -18l-3 -2q-8 -5 -15 -5q-10 0 -19 10q-39 42 -68.5 61.5t-74.5 27t-129 7.5q-35 0 -49 -10t-14 -31v-150q0 -5 3.5 -8.5t8.5 -3.5h120q25 0 40 3.5t18 4.5q14 4 20 4q9 0 13.5 -4t9.5 -15l59 -114q3 -6 3 -11q0 -10 -12 -17l-5 -3q-5 -4 -12 -4
q-10 0 -19 11q-43 52 -83 70.5t-100 18.5h-52q-5 0 -8.5 -3.5t-3.5 -8.5v-276q0 -20 17.5 -30.5t48.5 -10.5q92 0 143 9.5t86.5 35.5t71.5 81q8 12 19 12q7 0 15 -4l4 -2q14 -7 14 -20q0 -5 -2 -11l-54 -154q-8 -21 -30 -21h-3zM196.5 806.5q-15.5 15.5 -15.5 36.5
q0 22 15.5 37t38.5 15t38.5 -15t15.5 -37t-15.5 -37t-38.5 -15t-38.5 15.5zM377 806.5q-16 15.5 -16 36.5t16 36.5t38 15.5t38 -15.5t16 -36.5t-16 -36.5t-38 -15.5t-38 15.5z" />
    <glyph glyph-name="Igrave" unicode="&#xcc;" horiz-adv-x="332" 
d="M76 0q-11 0 -17.5 6.5t-6.5 17.5v2q0 11 5 17t15 10l31 11q15 5 21 13t6 24v498q0 16 -6 24t-21 13l-31 11q-10 4 -15 10t-5 17v2q0 11 6.5 17.5t17.5 6.5h180q11 0 17.5 -6.5t6.5 -17.5v-2q0 -11 -5 -17t-15 -10l-31 -11q-15 -5 -21 -13t-6 -24v-498q0 -16 6 -24t21 -13
l31 -11q10 -4 15 -10t5 -17v-2q0 -11 -6.5 -17.5t-17.5 -6.5h-180zM56 846q-13 7 -13 17q0 4 4 12l21 37q8 12 17 12q7 0 15 -6l153 -106q11 -6 11 -17q0 -6 -4 -13l-3 -5q-6 -12 -18 -12q-6 0 -12 3z" />
    <glyph glyph-name="Iacute" unicode="&#xcd;" horiz-adv-x="332" 
d="M76 0q-11 0 -17.5 6.5t-6.5 17.5v2q0 11 5 17t15 10l31 11q15 5 21 13t6 24v498q0 16 -6 24t-21 13l-31 11q-10 4 -15 10t-5 17v2q0 11 6.5 17.5t17.5 6.5h180q11 0 17.5 -6.5t6.5 -17.5v-2q0 -11 -5 -17t-15 -10l-31 -11q-15 -5 -21 -13t-6 -24v-498q0 -16 6 -24t21 -13
l31 -11q10 -4 15 -10t5 -17v-2q0 -11 -6.5 -17.5t-17.5 -6.5h-180zM105 768q-6 -3 -12 -3q-12 0 -18 12l-3 5q-4 7 -4 13q0 11 11 17l153 106q7 6 15 6q9 0 17 -12l21 -37q4 -8 4 -12q0 -10 -13 -17z" />
    <glyph glyph-name="Icircumflex" unicode="&#xce;" horiz-adv-x="332" 
d="M76 0q-11 0 -17.5 6.5t-6.5 17.5v2q0 11 5 17t15 10l31 11q15 5 21 13t6 24v498q0 16 -6 24t-21 13l-31 11q-10 4 -15 10t-5 17v2q0 11 6.5 17.5t17.5 6.5h180q11 0 17.5 -6.5t6.5 -17.5v-2q0 -11 -5 -17t-15 -10l-31 -11q-15 -5 -21 -13t-6 -24v-498q0 -16 6 -24t21 -13
l31 -11q10 -4 15 -10t5 -17v-2q0 -11 -6.5 -17.5t-17.5 -6.5h-180zM51 770q-8 -5 -14 -5q-9 0 -15 9l-2 3q-5 8 -5 14q0 7 9 16l104 97q8 7 15 10.5t16 3.5h14q9 0 16 -3.5t15 -10.5l104 -97q9 -9 9 -16q0 -6 -5 -14l-2 -3q-6 -9 -15 -9q-6 0 -14 5l-107 64q-3 2 -8 2t-8 -2
z" />
    <glyph glyph-name="Idieresis" unicode="&#xcf;" horiz-adv-x="332" 
d="M76 0q-11 0 -17.5 6.5t-6.5 17.5v2q0 11 5 17t15 10l31 11q15 5 21 13t6 24v498q0 16 -6 24t-21 13l-31 11q-10 4 -15 10t-5 17v2q0 11 6.5 17.5t17.5 6.5h180q11 0 17.5 -6.5t6.5 -17.5v-2q0 -11 -5 -17t-15 -10l-31 -11q-15 -5 -21 -13t-6 -24v-498q0 -16 6 -24t21 -13
l31 -11q10 -4 15 -10t5 -17v-2q0 -11 -6.5 -17.5t-17.5 -6.5h-180zM37.5 806.5q-15.5 15.5 -15.5 36.5q0 22 15.5 37t38.5 15t38.5 -15t15.5 -37t-15.5 -37t-38.5 -15t-38.5 15.5zM218 806.5q-16 15.5 -16 36.5t16 36.5t38 15.5t38 -15.5t16 -36.5t-16 -36.5t-38 -15.5
t-38 15.5z" />
    <glyph glyph-name="Eth" unicode="&#xd0;" horiz-adv-x="732" 
d="M76 0q-11 0 -17.5 6.5t-6.5 17.5v2q0 11 5 17t15 10l31 11q15 5 21 13t6 24v214q0 5 -3.5 8.5t-8.5 3.5h-46q-11 0 -17.5 6.5t-6.5 17.5v4q0 11 6.5 17.5t17.5 6.5h46q5 0 8.5 3.5t3.5 8.5v203q0 16 -6 24t-21 13l-31 11q-10 4 -15 10t-5 17v2q0 10 6.5 16t17.5 8
q83 11 183 11q133 0 228 -51.5t144 -140.5t49 -199q0 -97 -39 -168.5t-107 -109t-152 -37.5h-306zM318 56q135 0 206.5 67.5t71.5 197.5q0 95 -41 169.5t-110 115.5t-148 41q-26 0 -50 -4q-26 -4 -35.5 -14.5t-9.5 -33.5v-204q0 -5 3.5 -8.5t8.5 -3.5h162q11 0 17.5 -6.5
t6.5 -17.5v-4q0 -11 -6.5 -17.5t-17.5 -6.5h-162q-5 0 -8.5 -3.5t-3.5 -8.5v-214q0 -22 11.5 -33.5t33.5 -11.5h71z" />
    <glyph glyph-name="Ntilde" unicode="&#xd1;" horiz-adv-x="772" 
d="M74 0q-11 0 -17.5 6.5t-6.5 17.5v2q0 20 20 26l31 10q15 5 21 13t6 24v502q0 16 -6 24t-21 13l-31 10q-20 6 -20 26v2q0 11 6.5 17.5t17.5 6.5h90q19 0 36 -17l364 -398q5 -5 8 -5q7 0 7 11v310q0 16 -6 24t-21 13l-31 10q-20 6 -20 26v2q0 11 6.5 17.5t17.5 6.5h173
q11 0 17.5 -6.5t6.5 -17.5v-2q0 -20 -20 -26l-31 -10q-15 -5 -21 -13t-6 -24v-502q0 -16 6 -24t21 -13l31 -10q20 -6 20 -26v-2q0 -11 -6.5 -17.5t-17.5 -6.5h-173q-11 0 -17.5 6.5t-6.5 17.5v2q0 20 20 26l31 10q15 5 21 13t6 24v38q0 21 -15 37l-355 385q-5 5 -8 5
q-7 0 -7 -11v-454q0 -16 6 -24t21 -13l31 -10q20 -6 20 -26v-2q0 -11 -6.5 -17.5t-17.5 -6.5h-174zM227 807q0 7 2 12q13 37 38.5 58.5t56.5 21.5q30 0 58 -14l29 -15q24 -13 42 -13q28 0 45 29q11 18 25 18q3 0 9 -2q13 -4 13 -18q0 -7 -2 -12q-13 -37 -38.5 -58.5
t-56.5 -21.5q-30 0 -58 14l-29 15q-24 13 -42 13q-28 0 -45 -29q-10 -18 -25 -18q-22 0 -22 20z" />
    <glyph glyph-name="Ograve" unicode="&#xd2;" horiz-adv-x="770" 
d="M214.5 35.5q-76.5 45.5 -120.5 127.5t-44 187t44 187t120.5 127.5t170.5 45.5t170.5 -45.5t120.5 -127.5t44 -187t-44 -187t-120.5 -127.5t-170.5 -45.5t-170.5 45.5zM528 92.5q54 32.5 83.5 92.5t29.5 138q0 85 -31.5 157.5t-93.5 116t-148 43.5q-67 0 -121.5 -30.5
t-86 -89.5t-31.5 -142q0 -86 31.5 -158.5t93.5 -116t148 -43.5q72 0 126 32.5zM275 846q-13 7 -13 17q0 4 4 12l21 37q8 12 17 12q7 0 15 -6l153 -106q11 -6 11 -17q0 -6 -4 -13l-3 -5q-6 -12 -18 -12q-6 0 -12 3z" />
    <glyph glyph-name="Oacute" unicode="&#xd3;" horiz-adv-x="770" 
d="M214.5 35.5q-76.5 45.5 -120.5 127.5t-44 187t44 187t120.5 127.5t170.5 45.5t170.5 -45.5t120.5 -127.5t44 -187t-44 -187t-120.5 -127.5t-170.5 -45.5t-170.5 45.5zM528 92.5q54 32.5 83.5 92.5t29.5 138q0 85 -31.5 157.5t-93.5 116t-148 43.5q-67 0 -121.5 -30.5
t-86 -89.5t-31.5 -142q0 -86 31.5 -158.5t93.5 -116t148 -43.5q72 0 126 32.5zM324 768q-6 -3 -12 -3q-12 0 -18 12l-3 5q-4 7 -4 13q0 11 11 17l153 106q7 6 15 6q9 0 17 -12l21 -37q4 -8 4 -12q0 -10 -13 -17z" />
    <glyph glyph-name="Ocircumflex" unicode="&#xd4;" horiz-adv-x="770" 
d="M214.5 35.5q-76.5 45.5 -120.5 127.5t-44 187t44 187t120.5 127.5t170.5 45.5t170.5 -45.5t120.5 -127.5t44 -187t-44 -187t-120.5 -127.5t-170.5 -45.5t-170.5 45.5zM528 92.5q54 32.5 83.5 92.5t29.5 138q0 85 -31.5 157.5t-93.5 116t-148 43.5q-67 0 -121.5 -30.5
t-86 -89.5t-31.5 -142q0 -86 31.5 -158.5t93.5 -116t148 -43.5q72 0 126 32.5zM270 770q-8 -5 -14 -5q-9 0 -15 9l-2 3q-5 8 -5 14q0 7 9 16l104 97q8 7 15 10.5t16 3.5h14q9 0 16 -3.5t15 -10.5l104 -97q9 -9 9 -16q0 -6 -5 -14l-2 -3q-6 -9 -15 -9q-6 0 -14 5l-107 64
q-3 2 -8 2t-8 -2z" />
    <glyph glyph-name="Otilde" unicode="&#xd5;" horiz-adv-x="770" 
d="M214.5 35.5q-76.5 45.5 -120.5 127.5t-44 187t44 187t120.5 127.5t170.5 45.5t170.5 -45.5t120.5 -127.5t44 -187t-44 -187t-120.5 -127.5t-170.5 -45.5t-170.5 45.5zM528 92.5q54 32.5 83.5 92.5t29.5 138q0 85 -31.5 157.5t-93.5 116t-148 43.5q-67 0 -121.5 -30.5
t-86 -89.5t-31.5 -142q0 -86 31.5 -158.5t93.5 -116t148 -43.5q72 0 126 32.5zM226 807q0 7 2 12q13 37 38.5 58.5t56.5 21.5q30 0 58 -14l29 -15q24 -13 42 -13q28 0 45 29q11 18 25 18q3 0 9 -2q13 -4 13 -18q0 -7 -2 -12q-13 -37 -38.5 -58.5t-56.5 -21.5q-30 0 -58 14
l-29 15q-24 13 -42 13q-28 0 -45 -29q-10 -18 -25 -18q-22 0 -22 20z" />
    <glyph glyph-name="Odieresis" unicode="&#xd6;" horiz-adv-x="770" 
d="M214.5 35.5q-76.5 45.5 -120.5 127.5t-44 187t44 187t120.5 127.5t170.5 45.5t170.5 -45.5t120.5 -127.5t44 -187t-44 -187t-120.5 -127.5t-170.5 -45.5t-170.5 45.5zM528 92.5q54 32.5 83.5 92.5t29.5 138q0 85 -31.5 157.5t-93.5 116t-148 43.5q-67 0 -121.5 -30.5
t-86 -89.5t-31.5 -142q0 -86 31.5 -158.5t93.5 -116t148 -43.5q72 0 126 32.5zM256.5 806.5q-15.5 15.5 -15.5 36.5q0 22 15.5 37t38.5 15t38.5 -15t15.5 -37t-15.5 -37t-38.5 -15t-38.5 15.5zM437 806.5q-16 15.5 -16 36.5t16 36.5t38 15.5t38 -15.5t16 -36.5t-16 -36.5
t-38 -15.5t-38 15.5z" />
    <glyph glyph-name="multiply" unicode="&#xd7;" horiz-adv-x="540" 
d="M100 161q-8 10 -8 17q0 9 8 17l119 119q4 4 4 8q0 5 -4 8l-119 119q-8 8 -8 17t8 17l9 9q8 8 17 8q10 0 17 -8l119 -119q6 -4 8 -4q4 0 8 4l119 119q7 8 17 8t17 -8l9 -9q8 -7 8 -17t-8 -17l-119 -119q-4 -4 -4 -8q0 -2 4 -8l119 -119q8 -7 8 -17q0 -9 -8 -17l-9 -9
q-8 -8 -17 -8t-17 8l-119 119q-3 4 -8 4q-4 0 -8 -4l-119 -119q-8 -8 -17 -8q-7 0 -17 8z" />
    <glyph glyph-name="Oslash" unicode="&#xd8;" horiz-adv-x="770" 
d="M102 -13q-11 8 -11 18q0 8 6 15l44 59q3 5 3 9q0 5 -3 8q-44 48 -67.5 112.5t-23.5 141.5q0 105 44 187t120.5 127.5t170.5 45.5q99 0 181 -52q4 -3 8 -3q6 0 9 5l42 56q7 10 18 10q9 0 16 -6l9 -7q11 -8 11 -18q0 -6 -6 -14l-45 -59q-3 -4 -3 -8q0 -5 4 -9
q44 -49 67.5 -114t23.5 -141q0 -105 -44 -187t-120.5 -127.5t-170.5 -45.5q-100 0 -182 52q-5 3 -8 3q-6 0 -9 -5l-41 -55q-9 -11 -19 -11q-7 0 -15 6zM200 161q5 0 8 5l313 412q3 5 3 8q0 6 -6 9q-64 45 -150 45q-67 0 -121.5 -30.5t-86 -89.5t-31.5 -142q0 -60 16 -114.5
t46 -97.5q5 -5 9 -5zM528 92.5q54 32.5 83.5 92.5t29.5 138q0 60 -16 114.5t-47 97.5q-2 5 -8 5q-4 0 -8 -5l-313 -412q-3 -4 -3 -8q0 -5 4 -8q66 -47 152 -47q72 0 126 32.5z" />
    <glyph glyph-name="Ugrave" unicode="&#xd9;" horiz-adv-x="727" 
d="M166 52q-66 62 -58 205l20 342q1 15 -5.5 23.5t-21.5 13.5l-31 11q-10 4 -15 10t-5 17v2q0 11 6.5 17.5t17.5 6.5h182q11 0 17.5 -6.5t6.5 -17.5v-2q0 -11 -5 -17t-15 -10l-31 -11q-15 -5 -20.5 -13t-6.5 -24l-19 -342q-6 -111 41.5 -157t150.5 -46q95 0 139 45t39 145
l-17 357q-1 16 -6.5 24t-20.5 13l-31 10q-20 6 -20 26v2q0 11 6.5 17.5t17.5 6.5h173q11 0 17.5 -6.5t6.5 -17.5v-2q0 -20 -20 -26l-31 -10q-15 -5 -21.5 -13.5t-5.5 -23.5l18 -357q6 -134 -59 -194t-194 -60q-134 0 -200 62zM265 846q-13 7 -13 17q0 4 4 12l21 37
q8 12 17 12q7 0 15 -6l153 -106q11 -6 11 -17q0 -6 -4 -13l-3 -5q-6 -12 -18 -12q-6 0 -12 3z" />
    <glyph glyph-name="Uacute" unicode="&#xda;" horiz-adv-x="727" 
d="M166 52q-66 62 -58 205l20 342q1 15 -5.5 23.5t-21.5 13.5l-31 11q-10 4 -15 10t-5 17v2q0 11 6.5 17.5t17.5 6.5h182q11 0 17.5 -6.5t6.5 -17.5v-2q0 -11 -5 -17t-15 -10l-31 -11q-15 -5 -20.5 -13t-6.5 -24l-19 -342q-6 -111 41.5 -157t150.5 -46q95 0 139 45t39 145
l-17 357q-1 16 -6.5 24t-20.5 13l-31 10q-20 6 -20 26v2q0 11 6.5 17.5t17.5 6.5h173q11 0 17.5 -6.5t6.5 -17.5v-2q0 -20 -20 -26l-31 -10q-15 -5 -21.5 -13.5t-5.5 -23.5l18 -357q6 -134 -59 -194t-194 -60q-134 0 -200 62zM314 768q-6 -3 -12 -3q-12 0 -18 12l-3 5
q-4 7 -4 13q0 11 11 17l153 106q7 6 15 6q9 0 17 -12l21 -37q4 -8 4 -12q0 -10 -13 -17z" />
    <glyph glyph-name="Ucircumflex" unicode="&#xdb;" horiz-adv-x="727" 
d="M166 52q-66 62 -58 205l20 342q1 15 -5.5 23.5t-21.5 13.5l-31 11q-10 4 -15 10t-5 17v2q0 11 6.5 17.5t17.5 6.5h182q11 0 17.5 -6.5t6.5 -17.5v-2q0 -11 -5 -17t-15 -10l-31 -11q-15 -5 -20.5 -13t-6.5 -24l-19 -342q-6 -111 41.5 -157t150.5 -46q95 0 139 45t39 145
l-17 357q-1 16 -6.5 24t-20.5 13l-31 10q-20 6 -20 26v2q0 11 6.5 17.5t17.5 6.5h173q11 0 17.5 -6.5t6.5 -17.5v-2q0 -20 -20 -26l-31 -10q-15 -5 -21.5 -13.5t-5.5 -23.5l18 -357q6 -134 -59 -194t-194 -60q-134 0 -200 62zM260 770q-8 -5 -14 -5q-9 0 -15 9l-2 3
q-5 8 -5 14q0 7 9 16l104 97q8 7 15 10.5t16 3.5h14q9 0 16 -3.5t15 -10.5l104 -97q9 -9 9 -16q0 -6 -5 -14l-2 -3q-6 -9 -15 -9q-6 0 -14 5l-107 64q-3 2 -8 2t-8 -2z" />
    <glyph glyph-name="Udieresis" unicode="&#xdc;" horiz-adv-x="727" 
d="M166 52q-66 62 -58 205l20 342q1 15 -5.5 23.5t-21.5 13.5l-31 11q-10 4 -15 10t-5 17v2q0 11 6.5 17.5t17.5 6.5h182q11 0 17.5 -6.5t6.5 -17.5v-2q0 -11 -5 -17t-15 -10l-31 -11q-15 -5 -20.5 -13t-6.5 -24l-19 -342q-6 -111 41.5 -157t150.5 -46q95 0 139 45t39 145
l-17 357q-1 16 -6.5 24t-20.5 13l-31 10q-20 6 -20 26v2q0 11 6.5 17.5t17.5 6.5h173q11 0 17.5 -6.5t6.5 -17.5v-2q0 -20 -20 -26l-31 -10q-15 -5 -21.5 -13.5t-5.5 -23.5l18 -357q6 -134 -59 -194t-194 -60q-134 0 -200 62zM246.5 806.5q-15.5 15.5 -15.5 36.5
q0 22 15.5 37t38.5 15t38.5 -15t15.5 -37t-15.5 -37t-38.5 -15t-38.5 15.5zM427 806.5q-16 15.5 -16 36.5t16 36.5t38 15.5t38 -15.5t16 -36.5t-16 -36.5t-38 -15.5t-38 15.5z" />
    <glyph glyph-name="Yacute" unicode="&#xdd;" horiz-adv-x="642" 
d="M217 0q-11 0 -17.5 6.5t-6.5 17.5v2q0 22 20 27l45 12q15 4 21 12t6 24v157q0 18 -11 37l-172 287q-13 22 -25 34.5t-28 21.5l-21 12q-10 5 -14 10.5t-4 13.5v2q0 11 6.5 17.5t17.5 6.5h174q11 0 17.5 -6.5t6.5 -17.5v-2q0 -17 -18 -23l-20 -7q-24 -9 -24 -24q0 -7 6 -18
l142 -245q5 -6 8 -6q5 0 8 6l142 239q5 8 5 17q0 20 -28 31l-20 8q-18 7 -18 22v2q0 11 6.5 17.5t17.5 6.5h171q11 0 17.5 -6.5t6.5 -17.5v-2q0 -9 -4 -14t-14 -10l-22 -10q-18 -8 -28 -19t-23 -32l-174 -287q-12 -21 -12 -36v-165q0 -16 6 -24t21 -12l45 -12q20 -5 20 -27
v-2q0 -11 -6.5 -17.5t-17.5 -6.5h-208zM262 768q-6 -3 -12 -3q-12 0 -18 12l-3 5q-4 7 -4 13q0 11 11 17l153 106q7 6 15 6q9 0 17 -12l21 -37q4 -8 4 -12q0 -10 -13 -17z" />
    <glyph glyph-name="Thorn" unicode="&#xde;" horiz-adv-x="598" 
d="M76 0q-11 0 -17.5 6.5t-6.5 17.5v2q0 11 5 17t15 10l31 11q15 5 21 13t6 24v498q0 16 -6 24t-21 13l-31 11q-10 4 -15 10t-5 17v2q0 11 6.5 17.5t17.5 6.5h180q11 0 17.5 -6.5t6.5 -17.5v-2q0 -11 -5 -17t-15 -10l-31 -11q-15 -5 -21 -13t-6 -24v-35q0 -13 11 -11
q33 3 68 3q84 0 147 -28t97.5 -79.5t34.5 -119.5q0 -78 -54 -124.5t-160 -46.5q-47 0 -131 12h-2q-11 0 -11 -12v-57q0 -16 6 -24t21 -13l31 -11q10 -4 15 -10t5 -17v-2q0 -11 -6.5 -17.5t-17.5 -6.5h-180zM482 333q0 82 -61 124.5t-167 42.5q-28 0 -40 -9.5t-12 -31.5v-220
q0 -9 11 -12q21 -5 52.5 -8.5t61.5 -3.5q155 0 155 118z" />
    <glyph glyph-name="germandbls" unicode="&#xdf;" horiz-adv-x="655" 
d="M448 -4q-22 4 -33 4q-12 0 -26.5 -4.5t-20.5 -4.5q-10 0 -16 4t-10 12l-51 108q-5 12 -5 19q0 13 14 20l4 2q6 3 13 3q14 0 22 -14q32 -53 60 -76t75 -23q39 0 60.5 20.5t21.5 58.5q0 33 -17.5 58t-59.5 50l-82 50q-30 19 -46 41t-16 52q0 34 15.5 60.5t45.5 60.5
q28 32 42 55t14 52q0 41 -31 67.5t-84 26.5q-70 0 -110 -39.5t-40 -108.5v-456q0 -17 6.5 -25.5t20.5 -12.5l22 -6q21 -6 21 -24v-2q0 -11 -6.5 -17.5t-17.5 -6.5h-159q-11 0 -17.5 6.5t-6.5 17.5v2q0 18 21 24l22 6q14 4 20.5 12.5t6.5 25.5v326q0 5 -3.5 8.5t-8.5 3.5h-37
q-10 0 -16.5 7t-6.5 18v3q0 10 4.5 15.5t14.5 10.5l30 13q13 5 18 13t5 22v5q0 68 30 115.5t80 71.5t111 24q93 0 140 -37.5t47 -102.5q0 -38 -18.5 -67.5t-52.5 -67.5q-26 -28 -38.5 -46.5t-12.5 -38.5q0 -17 10.5 -30t38.5 -30l59 -36q61 -37 87.5 -75t26.5 -88
q0 -44 -19 -76t-50 -48.5t-66 -16.5q-19 0 -45 6z" />
    <glyph glyph-name="agrave" unicode="&#xe0;" horiz-adv-x="541" 
d="M92 26.5q-44 36.5 -44 108.5q0 75 60 117t163 42q34 0 78 -4h3q11 0 11 10v42q0 106 -100 106q-68 0 -119 -71q-7 -10 -12.5 -13.5t-13.5 -3.5t-12.5 4t-8.5 12l-23 48q-4 8 -4 17q0 14 16 22q31 17 79 27t94 10q89 0 130.5 -44t42.5 -132l2 -239q0 -18 7 -26t21 -8
q11 0 17.5 4.5t15.5 15.5q5 6 10.5 10.5t11.5 4.5q9 0 14.5 -6.5t5.5 -16.5q0 -29 -22 -50t-57 -21q-30 0 -48.5 13t-33.5 44q-3 6 -9 6q-4 0 -9 -5q-23 -28 -60.5 -44t-81.5 -16q-80 0 -124 36.5zM302 66.5q30 16.5 48 37.5q7 9 10 18t3 24v76q0 11 -12 14q-29 7 -75 7
q-81 0 -116 -27t-35 -76q0 -44 27 -67t78 -23q42 0 72 16.5zM148 682q-8 7 -8 16q0 8 7 14l31 30q7 7 15 7q10 0 17 -10l118 -144q6 -7 6 -15t-8 -16l-4 -4q-7 -7 -15 -7q-9 0 -16 7z" />
    <glyph glyph-name="aacute" unicode="&#xe1;" horiz-adv-x="541" 
d="M92 26.5q-44 36.5 -44 108.5q0 75 60 117t163 42q34 0 78 -4h3q11 0 11 10v42q0 106 -100 106q-68 0 -119 -71q-7 -10 -12.5 -13.5t-13.5 -3.5t-12.5 4t-8.5 12l-23 48q-4 8 -4 17q0 14 16 22q31 17 79 27t94 10q89 0 130.5 -44t42.5 -132l2 -239q0 -18 7 -26t21 -8
q11 0 17.5 4.5t15.5 15.5q5 6 10.5 10.5t11.5 4.5q9 0 14.5 -6.5t5.5 -16.5q0 -29 -22 -50t-57 -21q-30 0 -48.5 13t-33.5 44q-3 6 -9 6q-4 0 -9 -5q-23 -28 -60.5 -44t-81.5 -16q-80 0 -124 36.5zM302 66.5q30 16.5 48 37.5q7 9 10 18t3 24v76q0 11 -12 14q-29 7 -75 7
q-81 0 -116 -27t-35 -76q0 -44 27 -67t78 -23q42 0 72 16.5zM221 560q-7 -7 -16 -7q-8 0 -15 7l-4 4q-8 8 -8 16t6 15l118 144q7 10 17 10q8 0 15 -7l31 -30q7 -6 7 -14q0 -9 -8 -16z" />
    <glyph glyph-name="acircumflex" unicode="&#xe2;" horiz-adv-x="541" 
d="M92 26.5q-44 36.5 -44 108.5q0 75 60 117t163 42q34 0 78 -4h3q11 0 11 10v42q0 106 -100 106q-68 0 -119 -71q-7 -10 -12.5 -13.5t-13.5 -3.5t-12.5 4t-8.5 12l-23 48q-4 8 -4 17q0 14 16 22q31 17 79 27t94 10q89 0 130.5 -44t42.5 -132l2 -239q0 -18 7 -26t21 -8
q11 0 17.5 4.5t15.5 15.5q5 6 10.5 10.5t11.5 4.5q9 0 14.5 -6.5t5.5 -16.5q0 -29 -22 -50t-57 -21q-30 0 -48.5 13t-33.5 44q-3 6 -9 6q-4 0 -9 -5q-23 -28 -60.5 -44t-81.5 -16q-80 0 -124 36.5zM302 66.5q30 16.5 48 37.5q7 9 10 18t3 24v76q0 11 -12 14q-29 7 -75 7
q-81 0 -116 -27t-35 -76q0 -44 27 -67t78 -23q42 0 72 16.5zM154 563q-8 -7 -16 -7t-15 7l-1 1q-8 10 -8 16q0 7 7 16l100 116q6 8 12 11t16 3h14q10 0 16 -3t12 -11l100 -116q7 -7 7 -16q0 -8 -8 -16l-1 -1q-7 -7 -15 -7t-16 7l-94 79q-3 3 -8 3q-4 0 -8 -3z" />
    <glyph glyph-name="atilde" unicode="&#xe3;" horiz-adv-x="541" 
d="M92 26.5q-44 36.5 -44 108.5q0 75 60 117t163 42q34 0 78 -4h3q11 0 11 10v42q0 106 -100 106q-68 0 -119 -71q-7 -10 -12.5 -13.5t-13.5 -3.5t-12.5 4t-8.5 12l-23 48q-4 8 -4 17q0 14 16 22q31 17 79 27t94 10q89 0 130.5 -44t42.5 -132l2 -239q0 -18 7 -26t21 -8
q11 0 17.5 4.5t15.5 15.5q5 6 10.5 10.5t11.5 4.5q9 0 14.5 -6.5t5.5 -16.5q0 -29 -22 -50t-57 -21q-30 0 -48.5 13t-33.5 44q-3 6 -9 6q-4 0 -9 -5q-23 -28 -60.5 -44t-81.5 -16q-80 0 -124 36.5zM302 66.5q30 16.5 48 37.5q7 9 10 18t3 24v76q0 11 -12 14q-29 7 -75 7
q-81 0 -116 -27t-35 -76q0 -44 27 -67t78 -23q42 0 72 16.5zM97 614q0 7 2 12q13 37 38.5 58.5t56.5 21.5q30 0 58 -14l29 -15q24 -13 42 -13q28 0 45 29q11 18 25 18q3 0 9 -2q13 -4 13 -18q0 -7 -2 -12q-13 -37 -38.5 -58.5t-56.5 -21.5q-30 0 -58 14l-29 15
q-24 13 -42 13q-28 0 -45 -29q-10 -18 -25 -18q-22 0 -22 20z" />
    <glyph glyph-name="adieresis" unicode="&#xe4;" horiz-adv-x="541" 
d="M92 26.5q-44 36.5 -44 108.5q0 75 60 117t163 42q34 0 78 -4h3q11 0 11 10v42q0 106 -100 106q-68 0 -119 -71q-7 -10 -12.5 -13.5t-13.5 -3.5t-12.5 4t-8.5 12l-23 48q-4 8 -4 17q0 14 16 22q31 17 79 27t94 10q89 0 130.5 -44t42.5 -132l2 -239q0 -18 7 -26t21 -8
q11 0 17.5 4.5t15.5 15.5q5 6 10.5 10.5t11.5 4.5q9 0 14.5 -6.5t5.5 -16.5q0 -29 -22 -50t-57 -21q-30 0 -48.5 13t-33.5 44q-3 6 -9 6q-4 0 -9 -5q-23 -28 -60.5 -44t-81.5 -16q-80 0 -124 36.5zM302 66.5q30 16.5 48 37.5q7 9 10 18t3 24v76q0 11 -12 14q-29 7 -75 7
q-81 0 -116 -27t-35 -76q0 -44 27 -67t78 -23q42 0 72 16.5zM127.5 613.5q-15.5 15.5 -15.5 36.5q0 22 15.5 37t38.5 15t38.5 -15t15.5 -37t-15.5 -37t-38.5 -15t-38.5 15.5zM308 613.5q-16 15.5 -16 36.5t16 36.5t38 15.5t38 -15.5t16 -36.5t-16 -36.5t-38 -15.5t-38 15.5z
" />
    <glyph glyph-name="aring" unicode="&#xe5;" horiz-adv-x="541" 
d="M92 26.5q-44 36.5 -44 108.5q0 75 60 117t163 42q34 0 78 -4h3q11 0 11 10v42q0 106 -100 106q-68 0 -119 -71q-7 -10 -12.5 -13.5t-13.5 -3.5t-12.5 4t-8.5 12l-23 48q-4 8 -4 17q0 14 16 22q31 17 79 27t94 10q89 0 130.5 -44t42.5 -132l2 -239q0 -18 7 -26t21 -8
q11 0 17.5 4.5t15.5 15.5q5 6 10.5 10.5t11.5 4.5q9 0 14.5 -6.5t5.5 -16.5q0 -29 -22 -50t-57 -21q-30 0 -48.5 13t-33.5 44q-3 6 -9 6q-4 0 -9 -5q-23 -28 -60.5 -44t-81.5 -16q-80 0 -124 36.5zM302 66.5q30 16.5 48 37.5q7 9 10 18t3 24v76q0 11 -12 14q-29 7 -75 7
q-81 0 -116 -27t-35 -76q0 -44 27 -67t78 -23q42 0 72 16.5zM183 575.5q-29 28.5 -29 70.5t29 70.5t73 28.5t73 -28.5t29 -70.5t-29 -70.5t-73 -28.5t-73 28.5zM294 602q13 14 13 39q0 27 -14.5 45t-39.5 18q-22 0 -35 -14t-13 -39q0 -27 14.5 -45t39.5 -18q22 0 35 14z" />
    <glyph glyph-name="ae" unicode="&#xe6;" horiz-adv-x="821" 
d="M92.5 26q-44.5 36 -44.5 109t60 116t166 43q26 0 74 -4h3q10 0 10 11v16q0 75 -24 103t-72 28q-38 0 -65.5 -17.5t-55.5 -53.5q-8 -10 -13 -13.5t-13 -3.5t-12.5 4t-8.5 12l-23 48q-4 8 -4 17q0 14 16 22q31 17 78.5 27t94.5 10q57 0 93 -18t55 -54q3 -6 7 -6q5 0 8 5
q27 33 68.5 53t93.5 20q72 0 124.5 -39.5t67.5 -111.5q1 -3 1 -9q0 -16 -18 -23l-306 -114q-11 -4 -8 -15q17 -59 58.5 -92.5t108.5 -33.5q47 0 81.5 16t56.5 42q13 16 26 16q7 0 12 -4q9 -6 9 -17q0 -8 -6 -22q-19 -42 -68.5 -72.5t-123.5 -30.5q-59 0 -106 23.5t-81 64.5
q-4 5 -9 5t-9 -5q-40 -45 -83.5 -66.5t-97.5 -21.5q-76 0 -120.5 36zM680 347q16 5 11 19q-12 36 -41 55t-67 19q-63 0 -106.5 -41.5t-43.5 -120.5q0 -9 1 -14q2 -9 13 -5zM310 70.5q39 20.5 63 65.5q4 9 2 16q-10 28 -13 68q-1 13 -11 16q-35 7 -75 7q-81 0 -116 -27
t-35 -76q0 -45 27.5 -67.5t73.5 -22.5q45 0 84 20.5z" />
    <glyph glyph-name="ccedilla" unicode="&#xe7;" horiz-adv-x="487" 
d="M214.5 -194q-24.5 11 -36.5 26q-7 10 -7 17q0 8 6 14q5 5 12 5q9 0 16 -6q27 -21 55 -21q19 0 28 9.5t9 25.5q0 15 -8 24.5t-26 16.5l-19 7q-9 3 -12.5 6.5t-3.5 10.5q0 3 2 11l10 30l1 5q0 6 -10 9q-86 19 -134.5 84.5t-48.5 164.5q0 75 28 132t78.5 89t115.5 32
q18 0 38 -4t31 -4q15 0 28 4.5t18 4.5q9 0 13.5 -4t9.5 -14l48 -102q3 -7 3 -13q0 -15 -12 -20l-2 -1q-6 -3 -12 -3q-12 0 -21 11q-41 49 -71.5 69.5t-69.5 20.5q-41 0 -75.5 -21t-55.5 -61t-21 -94q0 -59 22 -106t63.5 -73.5t97.5 -26.5q42 0 70 10.5t49 31.5q16 16 26 16
q3 0 11 -4q11 -7 11 -17q0 -11 -8 -24q-20 -36 -65.5 -60t-97.5 -24q-7 0 -10 -10l-4 -12l-1 -4q0 -5 9 -8l7 -3q32 -14 47.5 -32.5t15.5 -46.5q0 -36 -25 -57.5t-69 -21.5q-29 0 -53.5 11z" />
    <glyph glyph-name="egrave" unicode="&#xe8;" horiz-adv-x="508" 
d="M484 115q0 -8 -6 -22q-19 -42 -68.5 -72.5t-123.5 -30.5q-67 0 -121.5 31.5t-85.5 89.5t-31 134t29.5 134t80.5 89.5t113 31.5q73 0 125 -40t67 -111q1 -4 1 -10q0 -15 -18 -22l-304 -113q-10 -4 -7 -15q16 -58 59 -92.5t105 -34.5q47 0 81.5 16t56.5 42q13 16 26 16
q7 0 12 -4q9 -6 9 -17zM162.5 395.5q-42.5 -44.5 -42.5 -117.5q0 -8 1 -14q2 -9 13 -5l233 88q8 3 11 7t0 12q-12 36 -41 55t-67 19q-65 0 -107.5 -44.5zM159 682q-8 7 -8 16q0 8 7 14l31 30q7 7 15 7q10 0 17 -10l118 -144q6 -7 6 -15t-8 -16l-4 -4q-7 -7 -15 -7
q-9 0 -16 7z" />
    <glyph glyph-name="eacute" unicode="&#xe9;" horiz-adv-x="508" 
d="M484 115q0 -8 -6 -22q-19 -42 -68.5 -72.5t-123.5 -30.5q-67 0 -121.5 31.5t-85.5 89.5t-31 134t29.5 134t80.5 89.5t113 31.5q73 0 125 -40t67 -111q1 -4 1 -10q0 -15 -18 -22l-304 -113q-10 -4 -7 -15q16 -58 59 -92.5t105 -34.5q47 0 81.5 16t56.5 42q13 16 26 16
q7 0 12 -4q9 -6 9 -17zM162.5 395.5q-42.5 -44.5 -42.5 -117.5q0 -8 1 -14q2 -9 13 -5l233 88q8 3 11 7t0 12q-12 36 -41 55t-67 19q-65 0 -107.5 -44.5zM232 560q-7 -7 -16 -7q-8 0 -15 7l-4 4q-8 8 -8 16t6 15l118 144q7 10 17 10q8 0 15 -7l31 -30q7 -6 7 -14
q0 -9 -8 -16z" />
    <glyph glyph-name="ecircumflex" unicode="&#xea;" horiz-adv-x="508" 
d="M484 115q0 -8 -6 -22q-19 -42 -68.5 -72.5t-123.5 -30.5q-67 0 -121.5 31.5t-85.5 89.5t-31 134t29.5 134t80.5 89.5t113 31.5q73 0 125 -40t67 -111q1 -4 1 -10q0 -15 -18 -22l-304 -113q-10 -4 -7 -15q16 -58 59 -92.5t105 -34.5q47 0 81.5 16t56.5 42q13 16 26 16
q7 0 12 -4q9 -6 9 -17zM162.5 395.5q-42.5 -44.5 -42.5 -117.5q0 -8 1 -14q2 -9 13 -5l233 88q8 3 11 7t0 12q-12 36 -41 55t-67 19q-65 0 -107.5 -44.5zM165 563q-8 -7 -16 -7t-15 7l-1 1q-8 10 -8 16q0 7 7 16l100 116q6 8 12 11t16 3h14q10 0 16 -3t12 -11l100 -116
q7 -7 7 -16q0 -8 -8 -16l-1 -1q-7 -7 -15 -7t-16 7l-94 79q-3 3 -8 3q-4 0 -8 -3z" />
    <glyph glyph-name="edieresis" unicode="&#xeb;" horiz-adv-x="508" 
d="M484 115q0 -8 -6 -22q-19 -42 -68.5 -72.5t-123.5 -30.5q-67 0 -121.5 31.5t-85.5 89.5t-31 134t29.5 134t80.5 89.5t113 31.5q73 0 125 -40t67 -111q1 -4 1 -10q0 -15 -18 -22l-304 -113q-10 -4 -7 -15q16 -58 59 -92.5t105 -34.5q47 0 81.5 16t56.5 42q13 16 26 16
q7 0 12 -4q9 -6 9 -17zM162.5 395.5q-42.5 -44.5 -42.5 -117.5q0 -8 1 -14q2 -9 13 -5l233 88q8 3 11 7t0 12q-12 36 -41 55t-67 19q-65 0 -107.5 -44.5zM138.5 613.5q-15.5 15.5 -15.5 36.5q0 22 15.5 37t38.5 15t38.5 -15t15.5 -37t-15.5 -37t-38.5 -15t-38.5 15.5z
M319 613.5q-16 15.5 -16 36.5t16 36.5t38 15.5t38 -15.5t16 -36.5t-16 -36.5t-38 -15.5t-38 15.5z" />
    <glyph glyph-name="igrave" unicode="&#xec;" horiz-adv-x="294" 
d="M74 0q-11 0 -17.5 6.5t-6.5 17.5v2q0 18 21 24l21 6q16 4 22 12.5t6 25.5v269q0 24 -9.5 34t-38.5 17q-12 3 -17 8t-5 15v1q0 16 21 24l78 34q8 4 17 4q10 0 15.5 -7.5t5.5 -20.5v-378q0 -17 6 -25.5t22 -12.5l21 -6q21 -6 21 -24v-2q0 -11 -6.5 -17.5t-17.5 -6.5h-159z
M34 682q-8 7 -8 16q0 8 7 14l31 30q7 7 15 7q10 0 17 -10l118 -144q6 -7 6 -15t-8 -16l-4 -4q-7 -7 -15 -7q-9 0 -16 7z" />
    <glyph glyph-name="iacute" unicode="&#xed;" horiz-adv-x="294" 
d="M74 0q-11 0 -17.5 6.5t-6.5 17.5v2q0 18 21 24l21 6q16 4 22 12.5t6 25.5v269q0 24 -9.5 34t-38.5 17q-12 3 -17 8t-5 15v1q0 16 21 24l78 34q8 4 17 4q10 0 15.5 -7.5t5.5 -20.5v-378q0 -17 6 -25.5t22 -12.5l21 -6q21 -6 21 -24v-2q0 -11 -6.5 -17.5t-17.5 -6.5h-159z
M107 560q-7 -7 -16 -7q-8 0 -15 7l-4 4q-8 8 -8 16t6 15l118 144q7 10 17 10q8 0 15 -7l31 -30q7 -6 7 -14q0 -9 -8 -16z" />
    <glyph glyph-name="icircumflex" unicode="&#xee;" horiz-adv-x="294" 
d="M74 0q-11 0 -17.5 6.5t-6.5 17.5v2q0 18 21 24l21 6q16 4 22 12.5t6 25.5v269q0 24 -9.5 34t-38.5 17q-12 3 -17 8t-5 15v1q0 16 21 24l78 34q8 4 17 4q10 0 15.5 -7.5t5.5 -20.5v-378q0 -17 6 -25.5t22 -12.5l21 -6q21 -6 21 -24v-2q0 -11 -6.5 -17.5t-17.5 -6.5h-159z
M40 563q-8 -7 -16 -7t-15 7l-1 1q-8 10 -8 16q0 7 7 16l100 116q6 8 12 11t16 3h14q10 0 16 -3t12 -11l100 -116q7 -7 7 -16q0 -8 -8 -16l-1 -1q-7 -7 -15 -7t-16 7l-94 79q-3 3 -8 3q-4 0 -8 -3z" />
    <glyph glyph-name="idieresis" unicode="&#xef;" horiz-adv-x="294" 
d="M74 0q-11 0 -17.5 6.5t-6.5 17.5v2q0 18 21 24l21 6q16 4 22 12.5t6 25.5v269q0 24 -9.5 34t-38.5 17q-12 3 -17 8t-5 15v1q0 16 21 24l78 34q8 4 17 4q10 0 15.5 -7.5t5.5 -20.5v-378q0 -17 6 -25.5t22 -12.5l21 -6q21 -6 21 -24v-2q0 -11 -6.5 -17.5t-17.5 -6.5h-159z
M13.5 613.5q-15.5 15.5 -15.5 36.5q0 22 15.5 37t38.5 15t38.5 -15t15.5 -37t-15.5 -37t-38.5 -15t-38.5 15.5zM194 613.5q-16 15.5 -16 36.5t16 36.5t38 15.5t38 -15.5t16 -36.5t-16 -36.5t-38 -15.5t-38 15.5z" />
    <glyph glyph-name="eth" unicode="&#xf0;" horiz-adv-x="571" 
d="M163.5 22q-53.5 32 -84.5 90.5t-31 132.5q0 77 29.5 134t78.5 87t105 30q86 0 144 -58q4 -4 7 -4t4.5 3t0.5 7q-25 77 -82 145q-6 8 -16 3l-103 -50q-10 -4 -13 -4q-11 0 -19 15l-3 6q-3 6 -3 12q0 14 14 20l79 39q7 4 7 8t-6 8q-38 29 -86 51q-23 12 -23 27q0 12 7.5 19
t19.5 7t21 -4q72 -27 128 -72q9 -7 17 -3l80 40q10 4 13 4q12 0 19 -15l3 -6q3 -6 3 -12q0 -14 -14 -20l-58 -29q-11 -6 -3 -16q120 -139 120 -355q0 -70 -27.5 -132.5t-81 -101t-128.5 -38.5q-65 0 -118.5 32zM404 102.5q42 46.5 42 127.5q0 92 -49 147t-135 55
q-63 0 -103.5 -45.5t-40.5 -125.5q0 -56 20 -103t60 -74.5t97 -27.5q67 0 109 46.5z" />
    <glyph glyph-name="ntilde" unicode="&#xf1;" horiz-adv-x="601" 
d="M74 0q-11 0 -17.5 6.5t-6.5 17.5v2q0 18 21 24l21 6q16 4 22 12.5t6 25.5v271q0 24 -9.5 34t-38.5 17q-12 3 -17 8t-5 15v1q0 16 21 24l74 32q8 4 17 4q10 0 15.5 -7.5t5.5 -20.5v-24q0 -7 5 -9.5t11 1.5l14 9q80 51 159 51q61 0 93 -36t32 -103v-267q0 -17 6 -25.5
t22 -12.5l21 -6q21 -6 21 -24v-2q0 -11 -6.5 -17.5t-17.5 -6.5h-91q-11 0 -17.5 6.5t-6.5 17.5v317q0 51 -15.5 74t-56.5 23q-39 0 -78.5 -12.5t-66.5 -28.5q-14 -8 -19 -17t-5 -24v-262q0 -17 6 -25.5t22 -12.5l21 -6q21 -6 21 -24v-2q0 -11 -6.5 -17.5t-17.5 -6.5h-159z
M149 614q0 7 2 12q13 37 38.5 58.5t56.5 21.5q30 0 58 -14l29 -15q24 -13 42 -13q28 0 45 29q11 18 25 18q3 0 9 -2q13 -4 13 -18q0 -7 -2 -12q-13 -37 -38.5 -58.5t-56.5 -21.5q-30 0 -58 14l-29 15q-24 13 -42 13q-28 0 -45 -29q-10 -18 -25 -18q-22 0 -22 20z" />
    <glyph glyph-name="ograve" unicode="&#xf2;" horiz-adv-x="564" 
d="M163.5 22q-53.5 32 -84.5 90.5t-31 132.5t31 132.5t84.5 90.5t118.5 32t118.5 -32t84.5 -90.5t31 -132.5t-31 -132.5t-84.5 -90.5t-118.5 -32t-118.5 32zM404 102.5q42 46.5 42 127.5q0 88 -45.5 146t-130.5 58q-68 0 -110 -46t-42 -127q0 -88 46 -146.5t130 -58.5
q68 0 110 46.5zM174 682q-8 7 -8 16q0 8 7 14l31 30q7 7 15 7q10 0 17 -10l118 -144q6 -7 6 -15t-8 -16l-4 -4q-7 -7 -15 -7q-9 0 -16 7z" />
    <glyph glyph-name="oacute" unicode="&#xf3;" horiz-adv-x="564" 
d="M163.5 22q-53.5 32 -84.5 90.5t-31 132.5t31 132.5t84.5 90.5t118.5 32t118.5 -32t84.5 -90.5t31 -132.5t-31 -132.5t-84.5 -90.5t-118.5 -32t-118.5 32zM404 102.5q42 46.5 42 127.5q0 88 -45.5 146t-130.5 58q-68 0 -110 -46t-42 -127q0 -88 46 -146.5t130 -58.5
q68 0 110 46.5zM247 560q-7 -7 -16 -7q-8 0 -15 7l-4 4q-8 8 -8 16t6 15l118 144q7 10 17 10q8 0 15 -7l31 -30q7 -6 7 -14q0 -9 -8 -16z" />
    <glyph glyph-name="ocircumflex" unicode="&#xf4;" horiz-adv-x="564" 
d="M163.5 22q-53.5 32 -84.5 90.5t-31 132.5t31 132.5t84.5 90.5t118.5 32t118.5 -32t84.5 -90.5t31 -132.5t-31 -132.5t-84.5 -90.5t-118.5 -32t-118.5 32zM404 102.5q42 46.5 42 127.5q0 88 -45.5 146t-130.5 58q-68 0 -110 -46t-42 -127q0 -88 46 -146.5t130 -58.5
q68 0 110 46.5zM180 563q-8 -7 -16 -7t-15 7l-1 1q-8 10 -8 16q0 7 7 16l100 116q6 8 12 11t16 3h14q10 0 16 -3t12 -11l100 -116q7 -7 7 -16q0 -8 -8 -16l-1 -1q-7 -7 -15 -7t-16 7l-94 79q-3 3 -8 3q-4 0 -8 -3z" />
    <glyph glyph-name="otilde" unicode="&#xf5;" horiz-adv-x="564" 
d="M163.5 22q-53.5 32 -84.5 90.5t-31 132.5t31 132.5t84.5 90.5t118.5 32t118.5 -32t84.5 -90.5t31 -132.5t-31 -132.5t-84.5 -90.5t-118.5 -32t-118.5 32zM404 102.5q42 46.5 42 127.5q0 88 -45.5 146t-130.5 58q-68 0 -110 -46t-42 -127q0 -88 46 -146.5t130 -58.5
q68 0 110 46.5zM123 614q0 7 2 12q13 37 38.5 58.5t56.5 21.5q30 0 58 -14l29 -15q24 -13 42 -13q28 0 45 29q11 18 25 18q3 0 9 -2q13 -4 13 -18q0 -7 -2 -12q-13 -37 -38.5 -58.5t-56.5 -21.5q-30 0 -58 14l-29 15q-24 13 -42 13q-28 0 -45 -29q-10 -18 -25 -18
q-22 0 -22 20z" />
    <glyph glyph-name="odieresis" unicode="&#xf6;" horiz-adv-x="564" 
d="M163.5 22q-53.5 32 -84.5 90.5t-31 132.5t31 132.5t84.5 90.5t118.5 32t118.5 -32t84.5 -90.5t31 -132.5t-31 -132.5t-84.5 -90.5t-118.5 -32t-118.5 32zM404 102.5q42 46.5 42 127.5q0 88 -45.5 146t-130.5 58q-68 0 -110 -46t-42 -127q0 -88 46 -146.5t130 -58.5
q68 0 110 46.5zM153.5 613.5q-15.5 15.5 -15.5 36.5q0 22 15.5 37t38.5 15t38.5 -15t15.5 -37t-15.5 -37t-38.5 -15t-38.5 15.5zM334 613.5q-16 15.5 -16 36.5t16 36.5t38 15.5t38 -15.5t16 -36.5t-16 -36.5t-38 -15.5t-38 15.5z" />
    <glyph glyph-name="divide" unicode="&#xf7;" horiz-adv-x="654" 
d="M124 293q-11 0 -17.5 6.5t-6.5 17.5v10q0 11 6.5 17.5t17.5 6.5h406q11 0 17.5 -6.5t6.5 -17.5v-10q0 -11 -6.5 -17.5t-17.5 -6.5h-406zM284 457.5q-17 16.5 -17 41.5t17 41.5t43 16.5t43 -16.5t17 -41.5t-17 -41.5t-43 -16.5t-43 16.5zM284 103.5q-17 16.5 -17 41.5
t17 41.5t43 16.5t43 -16.5t17 -41.5t-17 -41.5t-43 -16.5t-43 16.5z" />
    <glyph glyph-name="oslash" unicode="&#xf8;" horiz-adv-x="564" 
d="M78 -15q-10 7 -10 18q0 7 6 16l30 39q3 5 3 8q0 5 -4 9q-55 68 -55 170q0 74 31 132.5t84.5 90.5t118.5 32q64 0 118 -32q3 -2 8 -2q7 0 9 5l28 36q7 10 17 10q9 0 16 -6l8 -6q10 -7 10 -17q0 -7 -6 -16l-30 -39q-3 -4 -3 -9t3 -8q56 -70 56 -171q0 -74 -31 -132.5
t-84.5 -90.5t-118.5 -32q-64 0 -119 33q-3 2 -8 2q-6 0 -9 -5l-27 -36q-8 -11 -18 -11q-8 0 -15 6zM156 133q5 0 8 5l196 258q3 5 3 8q0 6 -6 9q-39 21 -87 21q-68 0 -110 -46t-42 -127q0 -72 29 -123q5 -5 9 -5zM404 102.5q42 46.5 42 127.5q0 71 -30 123q-2 5 -8 5
q-5 0 -9 -5l-195 -258q-4 -6 -4 -9q0 -4 5 -7q39 -23 89 -23q68 0 110 46.5z" />
    <glyph glyph-name="ugrave" unicode="&#xf9;" horiz-adv-x="584" 
d="M130 25q-31 35 -31 99v243q0 23 -9.5 32.5t-39.5 15.5q-21 4 -21 23v1q0 7 4 12.5t17 10.5l81 35q12 4 15 4q10 0 16 -7.5t6 -20.5v-329q0 -49 16.5 -71t63.5 -22q39 0 75.5 11.5t61.5 30.5q14 11 19 20t5 24v230q0 23 -9.5 32.5t-38.5 15.5q-12 2 -17 7.5t-5 15.5v1
q0 7 4 12t17 11l79 35q12 4 16 4q21 0 21 -28v-380q0 -16 6 -24.5t22 -12.5l19 -5q12 -3 18 -8.5t6 -16.5v-1q0 -12 -7 -18.5t-18 -6.5h-80q-12 0 -18 6t-8 18l-2 14q-3 19 -16 9l-13 -10q-29 -22 -69 -34.5t-82 -12.5q-73 0 -104 35zM180 682q-8 7 -8 16q0 8 7 14l31 30
q7 7 15 7q10 0 17 -10l118 -144q6 -7 6 -15t-8 -16l-4 -4q-7 -7 -15 -7q-9 0 -16 7z" />
    <glyph glyph-name="uacute" unicode="&#xfa;" horiz-adv-x="584" 
d="M130 25q-31 35 -31 99v243q0 23 -9.5 32.5t-39.5 15.5q-21 4 -21 23v1q0 7 4 12.5t17 10.5l81 35q12 4 15 4q10 0 16 -7.5t6 -20.5v-329q0 -49 16.5 -71t63.5 -22q39 0 75.5 11.5t61.5 30.5q14 11 19 20t5 24v230q0 23 -9.5 32.5t-38.5 15.5q-12 2 -17 7.5t-5 15.5v1
q0 7 4 12t17 11l79 35q12 4 16 4q21 0 21 -28v-380q0 -16 6 -24.5t22 -12.5l19 -5q12 -3 18 -8.5t6 -16.5v-1q0 -12 -7 -18.5t-18 -6.5h-80q-12 0 -18 6t-8 18l-2 14q-3 19 -16 9l-13 -10q-29 -22 -69 -34.5t-82 -12.5q-73 0 -104 35zM253 560q-7 -7 -16 -7q-8 0 -15 7l-4 4
q-8 8 -8 16t6 15l118 144q7 10 17 10q8 0 15 -7l31 -30q7 -6 7 -14q0 -9 -8 -16z" />
    <glyph glyph-name="ucircumflex" unicode="&#xfb;" horiz-adv-x="584" 
d="M130 25q-31 35 -31 99v243q0 23 -9.5 32.5t-39.5 15.5q-21 4 -21 23v1q0 7 4 12.5t17 10.5l81 35q12 4 15 4q10 0 16 -7.5t6 -20.5v-329q0 -49 16.5 -71t63.5 -22q39 0 75.5 11.5t61.5 30.5q14 11 19 20t5 24v230q0 23 -9.5 32.5t-38.5 15.5q-12 2 -17 7.5t-5 15.5v1
q0 7 4 12t17 11l79 35q12 4 16 4q21 0 21 -28v-380q0 -16 6 -24.5t22 -12.5l19 -5q12 -3 18 -8.5t6 -16.5v-1q0 -12 -7 -18.5t-18 -6.5h-80q-12 0 -18 6t-8 18l-2 14q-3 19 -16 9l-13 -10q-29 -22 -69 -34.5t-82 -12.5q-73 0 -104 35zM186 563q-8 -7 -16 -7t-15 7l-1 1
q-8 10 -8 16q0 7 7 16l100 116q6 8 12 11t16 3h14q10 0 16 -3t12 -11l100 -116q7 -7 7 -16q0 -8 -8 -16l-1 -1q-7 -7 -15 -7t-16 7l-94 79q-3 3 -8 3q-4 0 -8 -3z" />
    <glyph glyph-name="udieresis" unicode="&#xfc;" horiz-adv-x="584" 
d="M130 25q-31 35 -31 99v243q0 23 -9.5 32.5t-39.5 15.5q-21 4 -21 23v1q0 7 4 12.5t17 10.5l81 35q12 4 15 4q10 0 16 -7.5t6 -20.5v-329q0 -49 16.5 -71t63.5 -22q39 0 75.5 11.5t61.5 30.5q14 11 19 20t5 24v230q0 23 -9.5 32.5t-38.5 15.5q-12 2 -17 7.5t-5 15.5v1
q0 7 4 12t17 11l79 35q12 4 16 4q21 0 21 -28v-380q0 -16 6 -24.5t22 -12.5l19 -5q12 -3 18 -8.5t6 -16.5v-1q0 -12 -7 -18.5t-18 -6.5h-80q-12 0 -18 6t-8 18l-2 14q-3 19 -16 9l-13 -10q-29 -22 -69 -34.5t-82 -12.5q-73 0 -104 35zM159.5 613.5q-15.5 15.5 -15.5 36.5
q0 22 15.5 37t38.5 15t38.5 -15t15.5 -37t-15.5 -37t-38.5 -15t-38.5 15.5zM340 613.5q-16 15.5 -16 36.5t16 36.5t38 15.5t38 -15.5t16 -36.5t-16 -36.5t-38 -15.5t-38 15.5z" />
    <glyph glyph-name="yacute" unicode="&#xfd;" horiz-adv-x="508" 
d="M123 -215q-9 0 -14.5 4.5t-5.5 11.5q0 6 3 12l86 155q15 27 15 49q0 16 -8 37l-117 315q-12 31 -20.5 44.5t-22.5 18.5l-20 7q-9 3 -13 9t-4 16v2q0 11 6.5 17.5t17.5 6.5h68q21 0 28 -19l127 -354q2 -5 5.5 -5t5.5 5l118 295l2 8q0 9 -11 14l-26 10q-15 5 -15 20v2
q0 11 6.5 17.5t17.5 6.5h128q24 0 24 -24v-2q0 -8 -3.5 -12.5t-12.5 -9.5l-19 -9q-13 -6 -20 -17t-22 -46l-144 -341l-94 -225q-5 -10 -11 -14.5t-16 -4.5h-39zM219 560q-7 -7 -16 -7q-8 0 -15 7l-4 4q-8 8 -8 16t6 15l118 144q7 10 17 10q8 0 15 -7l31 -30q7 -6 7 -14
q0 -9 -8 -16z" />
    <glyph glyph-name="thorn" unicode="&#xfe;" horiz-adv-x="565" 
d="M52 -216q-11 0 -18 6.5t-7 17.5v2q0 18 21 24l21 6q15 4 21.5 13t6.5 25v737q0 22 -8.5 32.5t-39.5 17.5q-13 3 -17.5 8t-4.5 14v1q0 9 4.5 13.5t15.5 9.5l79 35q8 4 16 4q22 0 22 -28v-250q0 -9 7 -9q3 0 8 3q51 31 113 31q64 0 114 -28t78.5 -83t28.5 -132
q0 -82 -32 -142t-86 -91t-119 -31q-52 0 -98 18q-2 1 -6 1q-8 0 -8 -10v-121q0 -16 6.5 -25.5t21.5 -12.5l32 -6q20 -4 20 -24v-2q0 -11 -6.5 -17.5t-17.5 -6.5h-168zM389 95.5q49 46.5 49 149.5q0 90 -46.5 141t-123.5 51q-52 0 -80 -18q-13 -8 -18.5 -18.5t-5.5 -27.5
v-260q0 -20 5 -31.5t17 -17.5q30 -15 74 -15q80 0 129 46.5z" />
    <glyph glyph-name="ydieresis" unicode="&#xff;" horiz-adv-x="508" 
d="M123 -215q-9 0 -14.5 4.5t-5.5 11.5q0 6 3 12l86 155q15 27 15 49q0 16 -8 37l-117 315q-12 31 -20.5 44.5t-22.5 18.5l-20 7q-9 3 -13 9t-4 16v2q0 11 6.5 17.5t17.5 6.5h68q21 0 28 -19l127 -354q2 -5 5.5 -5t5.5 5l118 295l2 8q0 9 -11 14l-26 10q-15 5 -15 20v2
q0 11 6.5 17.5t17.5 6.5h128q24 0 24 -24v-2q0 -8 -3.5 -12.5t-12.5 -9.5l-19 -9q-13 -6 -20 -17t-22 -46l-144 -341l-94 -225q-5 -10 -11 -14.5t-16 -4.5h-39zM125.5 613.5q-15.5 15.5 -15.5 36.5q0 22 15.5 37t38.5 15t38.5 -15t15.5 -37t-15.5 -37t-38.5 -15t-38.5 15.5z
M306 613.5q-16 15.5 -16 36.5t16 36.5t38 15.5t38 -15.5t16 -36.5t-16 -36.5t-38 -15.5t-38 15.5z" />
    <glyph glyph-name="Amacron" unicode="&#x100;" horiz-adv-x="688" 
d="M42 0q-11 0 -17.5 6.5t-6.5 17.5v2q0 10 4 15t14 9l22 8q20 7 30.5 18t17.5 29l180 477q3 9 3 17q0 21 -24 30l-36 13q-23 8 -23 24q0 6 1 9l1 4q6 21 28 21h102q24 0 31 -21l220 -563q10 -24 21 -36.5t29 -20.5l21 -9q18 -7 18 -24v-2q0 -11 -6.5 -17.5t-17.5 -6.5h-168
q-11 0 -17.5 6.5t-6.5 17.5v2q0 17 18 23l20 7q13 4 18 9t5 12q0 8 -4 17l-36 98q-3 10 -14 10h-250q-10 0 -13 -10l-34 -92q-3 -9 -3 -15q0 -20 29 -30l20 -7q18 -6 18 -22v-2q0 -11 -6.5 -17.5t-17.5 -6.5h-170zM443 258q15 0 10 14l-103 273q-3 8 -8 8t-8 -8l-100 -273
q-1 -2 -1 -5q0 -9 11 -9h199zM211 788q-11 0 -17.5 6.5t-6.5 17.5v12q0 11 6.5 17.5t17.5 6.5h226q11 0 17.5 -6.5t6.5 -17.5v-12q0 -11 -6.5 -17.5t-17.5 -6.5h-226z" />
    <glyph glyph-name="amacron" unicode="&#x101;" horiz-adv-x="541" 
d="M92 26.5q-44 36.5 -44 108.5q0 75 60 117t163 42q34 0 78 -4h3q11 0 11 10v42q0 106 -100 106q-68 0 -119 -71q-7 -10 -12.5 -13.5t-13.5 -3.5t-12.5 4t-8.5 12l-23 48q-4 8 -4 17q0 14 16 22q31 17 79 27t94 10q89 0 130.5 -44t42.5 -132l2 -239q0 -18 7 -26t21 -8
q11 0 17.5 4.5t15.5 15.5q5 6 10.5 10.5t11.5 4.5q9 0 14.5 -6.5t5.5 -16.5q0 -29 -22 -50t-57 -21q-30 0 -48.5 13t-33.5 44q-3 6 -9 6q-4 0 -9 -5q-23 -28 -60.5 -44t-81.5 -16q-80 0 -124 36.5zM302 66.5q30 16.5 48 37.5q7 9 10 18t3 24v76q0 11 -12 14q-29 7 -75 7
q-81 0 -116 -27t-35 -76q0 -44 27 -67t78 -23q42 0 72 16.5zM143 595q-11 0 -17.5 6.5t-6.5 17.5v12q0 11 6.5 17.5t17.5 6.5h226q11 0 17.5 -6.5t6.5 -17.5v-12q0 -11 -6.5 -17.5t-17.5 -6.5h-226z" />
    <glyph glyph-name="Abreve" unicode="&#x102;" horiz-adv-x="688" 
d="M42 0q-11 0 -17.5 6.5t-6.5 17.5v2q0 10 4 15t14 9l22 8q20 7 30.5 18t17.5 29l180 477q3 9 3 17q0 21 -24 30l-36 13q-23 8 -23 24q0 6 1 9l1 4q6 21 28 21h102q24 0 31 -21l220 -563q10 -24 21 -36.5t29 -20.5l21 -9q18 -7 18 -24v-2q0 -11 -6.5 -17.5t-17.5 -6.5h-168
q-11 0 -17.5 6.5t-6.5 17.5v2q0 17 18 23l20 7q13 4 18 9t5 12q0 8 -4 17l-36 98q-3 10 -14 10h-250q-10 0 -13 -10l-34 -92q-3 -9 -3 -15q0 -20 29 -30l20 -7q18 -6 18 -22v-2q0 -11 -6.5 -17.5t-17.5 -6.5h-170zM443 258q15 0 10 14l-103 273q-3 8 -8 8t-8 -8l-100 -273
q-1 -2 -1 -5q0 -9 11 -9h199zM229.5 802q-35.5 28 -39.5 79q-1 12 4 19.5t16 8.5h3q13 0 19 -18q6 -22 29 -35t63 -13t63 13t29 35q6 18 19 18q12 0 18 -7.5t5 -20.5q-4 -51 -39.5 -79t-94.5 -28t-94.5 28z" />
    <glyph glyph-name="abreve" unicode="&#x103;" horiz-adv-x="541" 
d="M92 26.5q-44 36.5 -44 108.5q0 75 60 117t163 42q34 0 78 -4h3q11 0 11 10v42q0 106 -100 106q-68 0 -119 -71q-7 -10 -12.5 -13.5t-13.5 -3.5t-12.5 4t-8.5 12l-23 48q-4 8 -4 17q0 14 16 22q31 17 79 27t94 10q89 0 130.5 -44t42.5 -132l2 -239q0 -18 7 -26t21 -8
q11 0 17.5 4.5t15.5 15.5q5 6 10.5 10.5t11.5 4.5q9 0 14.5 -6.5t5.5 -16.5q0 -29 -22 -50t-57 -21q-30 0 -48.5 13t-33.5 44q-3 6 -9 6q-4 0 -9 -5q-23 -28 -60.5 -44t-81.5 -16q-80 0 -124 36.5zM302 66.5q30 16.5 48 37.5q7 9 10 18t3 24v76q0 11 -12 14q-29 7 -75 7
q-81 0 -116 -27t-35 -76q0 -44 27 -67t78 -23q42 0 72 16.5zM165.5 599.5q-35.5 30.5 -39.5 89.5q-1 12 4 19.5t16 8.5h3q15 0 19 -18q13 -61 88 -61t88 61q4 18 19 18q12 0 18 -7.5t5 -20.5q-4 -59 -39.5 -89.5t-90.5 -30.5t-90.5 30.5z" />
    <glyph glyph-name="Aogonek" unicode="&#x104;" horiz-adv-x="688" 
d="M42 0q-11 0 -17.5 6.5t-6.5 17.5v2q0 10 4 15t14 9l22 8q20 7 30.5 18t17.5 29l180 477q3 9 3 17q0 21 -24 30l-36 13q-23 8 -23 24q0 6 1 9l1 4q6 21 28 21h102q24 0 31 -21l220 -563q10 -24 21 -36.5t29 -20.5l21 -9q18 -7 18 -24v-2q0 -11 -6.5 -17.5t-17.5 -6.5h-168
q-11 0 -17.5 6.5t-6.5 17.5v2q0 17 18 23l20 7q13 4 18 9t5 12q0 8 -4 17l-36 98q-3 10 -14 10h-250q-10 0 -13 -10l-34 -92q-3 -9 -3 -15q0 -20 29 -30l20 -7q18 -6 18 -22v-2q0 -11 -6.5 -17.5t-17.5 -6.5h-170zM443 258q15 0 10 14l-103 273q-3 8 -8 8t-8 -8l-100 -273
q-1 -2 -1 -5q0 -9 11 -9h199zM649 -168q0 -11 -12 -23q-25 -25 -68 -25t-67 23.5t-24 60.5q0 31 14.5 57.5t49.5 61.5q3 3 3 7q0 2 -2 4t-6 2h80q-10 0 -20 -10q-32 -33 -43.5 -55.5t-11.5 -49.5q0 -22 12.5 -34.5t33.5 -12.5q16 0 29 5t17 5q8 0 13 -8q2 -4 2 -8z" />
    <glyph glyph-name="aogonek" unicode="&#x105;" horiz-adv-x="541" 
d="M382 -192.5q-24 23.5 -24 60.5q0 31 14.5 57.5t49.5 61.5q3 3 2.5 6.5t-4.5 5.5q-25 13 -44 50q-3 6 -9 6q-4 0 -9 -5q-23 -28 -60.5 -44t-81.5 -16q-80 0 -124 36.5t-44 108.5q0 75 60 117t163 42q34 0 78 -4h3q11 0 11 10v42q0 106 -100 106q-68 0 -119 -71
q-7 -10 -12.5 -13.5t-13.5 -3.5t-12.5 4t-8.5 12l-23 48q-4 8 -4 17q0 14 16 22q31 17 79 27t94 10q89 0 130.5 -44t42.5 -132l2 -239q0 -18 7 -26t21 -8q11 0 17.5 4.5t15.5 15.5q5 6 10.5 10.5t11.5 4.5q9 0 14.5 -6.5t5.5 -16.5q0 -21 -11.5 -38t-31.5 -26
q-14 -7 -19 -12q-31 -31 -42 -53.5t-11 -48.5q0 -22 12.5 -34.5t33.5 -12.5q16 0 29 5t17 5q8 0 13 -8q2 -4 2 -8q0 -11 -12 -23q-25 -25 -68 -25t-67 23.5zM302 66.5q30 16.5 48 37.5q7 9 10 18t3 24v76q0 11 -12 14q-29 7 -75 7q-81 0 -116 -27t-35 -76q0 -44 27 -67
t78 -23q42 0 72 16.5z" />
    <glyph glyph-name="Cacute" unicode="&#x106;" horiz-adv-x="678" 
d="M217 34q-78 44 -122.5 128t-44.5 198q0 101 39 179.5t110.5 122.5t165.5 44q25 0 70 -9q7 -1 19.5 -3t19.5 -2q21 0 38 5.5t23 5.5h3q10 0 16 -5.5t12 -17.5l70 -154q4 -9 4 -16q0 -9 -12 -18l-3 -2q-8 -5 -16 -5q-12 0 -20 11q-42 53 -73.5 84t-69 48t-85.5 17
q-65 0 -117.5 -31t-83.5 -89.5t-31 -136.5q0 -94 34.5 -166.5t98 -113t146.5 -40.5q64 0 107 19.5t76 52.5q17 17 31 17q6 0 12 -3q16 -7 16 -25q0 -23 -31.5 -56.5t-89.5 -58t-134 -24.5q-100 0 -178 44zM298 768q-6 -3 -12 -3q-12 0 -18 12l-3 5q-4 7 -4 13q0 11 11 17
l153 106q7 6 15 6q9 0 17 -12l21 -37q4 -8 4 -12q0 -10 -13 -17z" />
    <glyph glyph-name="cacute" unicode="&#x107;" horiz-adv-x="487" 
d="M163.5 21q-55.5 31 -85.5 89t-30 135q0 75 28 132t78.5 89t115.5 32q22 0 42 -5q5 -1 12 -2t15 -1q15 0 28 4.5t18 4.5q9 0 13.5 -4t9.5 -14l48 -102q3 -7 3 -13q0 -15 -12 -20l-2 -1q-6 -3 -12 -3q-12 0 -21 11q-41 49 -71.5 69.5t-69.5 20.5q-41 0 -75.5 -21t-55.5 -61
t-21 -94q0 -59 22 -106t63.5 -73.5t97.5 -26.5q42 0 70 10.5t49 31.5q16 16 26 16q3 0 11 -4q11 -7 11 -17q0 -11 -8 -24q-21 -37 -66.5 -60.5t-102.5 -23.5q-73 0 -128.5 31zM224 560q-7 -7 -16 -7q-8 0 -15 7l-4 4q-8 8 -8 16t6 15l118 144q7 10 17 10q8 0 15 -7l31 -30
q7 -6 7 -14q0 -9 -8 -16z" />
    <glyph glyph-name="Ccircumflex" unicode="&#x108;" horiz-adv-x="678" 
d="M217 34q-78 44 -122.5 128t-44.5 198q0 101 39 179.5t110.5 122.5t165.5 44q25 0 70 -9q7 -1 19.5 -3t19.5 -2q21 0 38 5.5t23 5.5h3q10 0 16 -5.5t12 -17.5l70 -154q4 -9 4 -16q0 -9 -12 -18l-3 -2q-8 -5 -16 -5q-12 0 -20 11q-42 53 -73.5 84t-69 48t-85.5 17
q-65 0 -117.5 -31t-83.5 -89.5t-31 -136.5q0 -94 34.5 -166.5t98 -113t146.5 -40.5q64 0 107 19.5t76 52.5q17 17 31 17q6 0 12 -3q16 -7 16 -25q0 -23 -31.5 -56.5t-89.5 -58t-134 -24.5q-100 0 -178 44zM244 770q-8 -5 -14 -5q-9 0 -15 9l-2 3q-5 8 -5 14q0 7 9 16l104 97
q8 7 15 10.5t16 3.5h14q9 0 16 -3.5t15 -10.5l104 -97q9 -9 9 -16q0 -6 -5 -14l-2 -3q-6 -9 -15 -9q-6 0 -14 5l-107 64q-3 2 -8 2t-8 -2z" />
    <glyph glyph-name="ccircumflex" unicode="&#x109;" horiz-adv-x="487" 
d="M163.5 21q-55.5 31 -85.5 89t-30 135q0 75 28 132t78.5 89t115.5 32q22 0 42 -5q5 -1 12 -2t15 -1q15 0 28 4.5t18 4.5q9 0 13.5 -4t9.5 -14l48 -102q3 -7 3 -13q0 -15 -12 -20l-2 -1q-6 -3 -12 -3q-12 0 -21 11q-41 49 -71.5 69.5t-69.5 20.5q-41 0 -75.5 -21t-55.5 -61
t-21 -94q0 -59 22 -106t63.5 -73.5t97.5 -26.5q42 0 70 10.5t49 31.5q16 16 26 16q3 0 11 -4q11 -7 11 -17q0 -11 -8 -24q-21 -37 -66.5 -60.5t-102.5 -23.5q-73 0 -128.5 31zM157 563q-8 -7 -16 -7t-15 7l-1 1q-8 10 -8 16q0 7 7 16l100 116q6 8 12 11t16 3h14q10 0 16 -3
t12 -11l100 -116q7 -7 7 -16q0 -8 -8 -16l-1 -1q-7 -7 -15 -7t-16 7l-94 79q-3 3 -8 3q-4 0 -8 -3z" />
    <glyph glyph-name="Cdotaccent" unicode="&#x10a;" horiz-adv-x="678" 
d="M217 34q-78 44 -122.5 128t-44.5 198q0 101 39 179.5t110.5 122.5t165.5 44q25 0 70 -9q7 -1 19.5 -3t19.5 -2q21 0 38 5.5t23 5.5h3q10 0 16 -5.5t12 -17.5l70 -154q4 -9 4 -16q0 -9 -12 -18l-3 -2q-8 -5 -16 -5q-12 0 -20 11q-42 53 -73.5 84t-69 48t-85.5 17
q-65 0 -117.5 -31t-83.5 -89.5t-31 -136.5q0 -94 34.5 -166.5t98 -113t146.5 -40.5q64 0 107 19.5t76 52.5q17 17 31 17q6 0 12 -3q16 -7 16 -25q0 -23 -31.5 -56.5t-89.5 -58t-134 -24.5q-100 0 -178 44zM318 803.5q-17 16.5 -17 39.5t16.5 39.5t41.5 16.5t41.5 -16.5
t16.5 -39.5t-16.5 -39.5t-41.5 -16.5q-24 0 -41 16.5z" />
    <glyph glyph-name="cdotaccent" unicode="&#x10b;" horiz-adv-x="487" 
d="M163.5 21q-55.5 31 -85.5 89t-30 135q0 75 28 132t78.5 89t115.5 32q22 0 42 -5q5 -1 12 -2t15 -1q15 0 28 4.5t18 4.5q9 0 13.5 -4t9.5 -14l48 -102q3 -7 3 -13q0 -15 -12 -20l-2 -1q-6 -3 -12 -3q-12 0 -21 11q-41 49 -71.5 69.5t-69.5 20.5q-41 0 -75.5 -21t-55.5 -61
t-21 -94q0 -59 22 -106t63.5 -73.5t97.5 -26.5q42 0 70 10.5t49 31.5q16 16 26 16q3 0 11 -4q11 -7 11 -17q0 -11 -8 -24q-21 -37 -66.5 -60.5t-102.5 -23.5q-73 0 -128.5 31zM218 610.5q-17 16.5 -17 39.5t16.5 39.5t41.5 16.5t41.5 -16.5t16.5 -39.5t-16.5 -39.5
t-41.5 -16.5q-24 0 -41 16.5z" />
    <glyph glyph-name="Ccaron" unicode="&#x10c;" horiz-adv-x="678" 
d="M217 34q-78 44 -122.5 128t-44.5 198q0 101 39 179.5t110.5 122.5t165.5 44q25 0 70 -9q7 -1 19.5 -3t19.5 -2q21 0 38 5.5t23 5.5h3q10 0 16 -5.5t12 -17.5l70 -154q4 -9 4 -16q0 -9 -12 -18l-3 -2q-8 -5 -16 -5q-12 0 -20 11q-42 53 -73.5 84t-69 48t-85.5 17
q-65 0 -117.5 -31t-83.5 -89.5t-31 -136.5q0 -94 34.5 -166.5t98 -113t146.5 -40.5q64 0 107 19.5t76 52.5q17 17 31 17q6 0 12 -3q16 -7 16 -25q0 -23 -31.5 -56.5t-89.5 -58t-134 -24.5q-100 0 -178 44zM352 769q-9 0 -16 3.5t-15 10.5l-104 97q-9 9 -9 16q0 6 5 14l2 3
q6 9 15 9q6 0 14 -5l107 -64q6 -2 8 -2l8 2l107 64q8 5 14 5q9 0 15 -9l2 -3q5 -8 5 -14q0 -7 -9 -16l-104 -97q-8 -7 -15 -10.5t-16 -3.5h-14z" />
    <glyph glyph-name="ccaron" unicode="&#x10d;" horiz-adv-x="487" 
d="M163.5 21q-55.5 31 -85.5 89t-30 135q0 75 28 132t78.5 89t115.5 32q22 0 42 -5q5 -1 12 -2t15 -1q15 0 28 4.5t18 4.5q9 0 13.5 -4t9.5 -14l48 -102q3 -7 3 -13q0 -15 -12 -20l-2 -1q-6 -3 -12 -3q-12 0 -21 11q-41 49 -71.5 69.5t-69.5 20.5q-41 0 -75.5 -21t-55.5 -61
t-21 -94q0 -59 22 -106t63.5 -73.5t97.5 -26.5q42 0 70 10.5t49 31.5q16 16 26 16q3 0 11 -4q11 -7 11 -17q0 -11 -8 -24q-21 -37 -66.5 -60.5t-102.5 -23.5q-73 0 -128.5 31zM252 560q-10 0 -16 3t-12 11l-100 116q-7 11 -7 16q0 8 8 16l1 1q7 7 15 7t16 -7l94 -79
q4 -3 8 -3q5 0 8 3l94 79q8 7 16 7t15 -7l1 -1q8 -7 8 -16q0 -8 -7 -16l-100 -116q-6 -8 -12 -11t-16 -3h-14z" />
    <glyph glyph-name="Dcaron" unicode="&#x10e;" horiz-adv-x="732" 
d="M76 0q-11 0 -17.5 6.5t-6.5 17.5v2q0 11 5 17t15 10l31 11q15 5 21 13t6 24v493q0 16 -6 24t-21 13l-31 11q-10 4 -15 10t-5 17v2q0 10 6.5 16t17.5 8q83 11 183 11q133 0 228 -51.5t144 -140.5t49 -199q0 -97 -39 -168.5t-107 -109t-152 -37.5h-306zM318 56
q135 0 206.5 67.5t71.5 197.5q0 95 -41 169.5t-110 115.5t-148 41q-26 0 -50 -4q-26 -4 -35.5 -14.5t-9.5 -33.5v-494q0 -22 11.5 -33.5t33.5 -11.5h71zM329 769q-9 0 -16 3.5t-15 10.5l-104 97q-9 9 -9 16q0 6 5 14l2 3q6 9 15 9q6 0 14 -5l107 -64q6 -2 8 -2l8 2l107 64
q8 5 14 5q9 0 15 -9l2 -3q5 -8 5 -14q0 -7 -9 -16l-104 -97q-8 -7 -15 -10.5t-16 -3.5h-14z" />
    <glyph glyph-name="dcaron" unicode="&#x10f;" horiz-adv-x="581" 
d="M158.5 18.5q-48.5 28.5 -77.5 83.5t-29 130q0 82 35 142t95.5 91.5t137.5 31.5q35 0 67 -7l4 -1q9 0 9 10v116q0 15 -3.5 23.5t-16.5 15t-40 10.5q-22 3 -22 23v1q0 9 4.5 13.5t16.5 9.5l90 35q9 3 16 3q22 0 22 -27v-629q0 -14 6 -23.5t22 -13.5l19 -5q11 -3 17 -8.5
t6 -16.5v-1q0 -11 -6.5 -18t-17.5 -7h-79q-21 0 -25 18l-3 12q-2 8 -8 8q-3 0 -10 -5q-48 -43 -123 -43q-58 0 -106.5 28.5zM379 72q21 14 21 36v284q0 31 -33 41q-22 7 -53 7q-84 0 -135.5 -51.5t-51.5 -143.5q0 -56 22.5 -100t61 -68.5t86.5 -24.5q51 0 82 20zM534 542
q-11 3 -14.5 9t-1.5 16l29 162q3 19 19 19q6 0 9 -1l36 -9q16 -3 16 -17q0 -2 -2 -10l-59 -155q-5 -16 -20 -16q-5 0 -8 1z" />
    <glyph glyph-name="Dcroat" unicode="&#x110;" horiz-adv-x="732" 
d="M76 0q-11 0 -17.5 6.5t-6.5 17.5v2q0 11 5 17t15 10l31 11q15 5 21 13t6 24v214q0 5 -3.5 8.5t-8.5 3.5h-46q-11 0 -17.5 6.5t-6.5 17.5v4q0 11 6.5 17.5t17.5 6.5h46q5 0 8.5 3.5t3.5 8.5v203q0 16 -6 24t-21 13l-31 11q-10 4 -15 10t-5 17v2q0 10 6.5 16t17.5 8
q83 11 183 11q133 0 228 -51.5t144 -140.5t49 -199q0 -97 -39 -168.5t-107 -109t-152 -37.5h-306zM318 56q135 0 206.5 67.5t71.5 197.5q0 95 -41 169.5t-110 115.5t-148 41q-26 0 -50 -4q-26 -4 -35.5 -14.5t-9.5 -33.5v-204q0 -5 3.5 -8.5t8.5 -3.5h162q11 0 17.5 -6.5
t6.5 -17.5v-4q0 -11 -6.5 -17.5t-17.5 -6.5h-162q-5 0 -8.5 -3.5t-3.5 -8.5v-214q0 -22 11.5 -33.5t33.5 -11.5h71z" />
    <glyph glyph-name="dcroat" unicode="&#x111;" horiz-adv-x="578" 
d="M467 93q0 -14 6 -23.5t22 -13.5l19 -5q11 -3 17 -8.5t6 -16.5v-1q0 -11 -6.5 -18t-17.5 -7h-79q-21 0 -25 18l-3 12q-2 8 -8 8q-3 0 -10 -5q-48 -43 -123 -43q-58 0 -106.5 28.5t-77.5 83.5t-29 130q0 82 35 142t95.5 91.5t137.5 31.5q35 0 67 -7l4 -1q9 0 9 10v35
q0 5 -3.5 8.5t-8.5 3.5h-125q-11 0 -17.5 6.5t-6.5 17.5v4q0 11 6.5 17.5t17.5 6.5h125q5 0 8.5 3.5t3.5 8.5v5q0 15 -3.5 23.5t-16.5 15t-40 10.5q-22 3 -22 23v1q0 9 4.5 13.5t16.5 9.5l90 35q9 3 16 3q22 0 22 -27v-112q0 -5 3.5 -8.5t8.5 -3.5h34q11 0 17.5 -6.5
t6.5 -17.5v-4q0 -11 -6.5 -17.5t-17.5 -6.5h-34q-5 0 -8.5 -3.5t-3.5 -8.5v-441zM400 392q0 31 -33 41q-22 7 -53 7q-84 0 -135.5 -51.5t-51.5 -143.5q0 -56 22.5 -100t61 -68.5t86.5 -24.5q51 0 82 20q21 14 21 36v284z" />
    <glyph glyph-name="Emacron" unicode="&#x112;" horiz-adv-x="649" 
d="M532 -18q-11 0 -27 8q-10 5 -16.5 7.5t-16.5 2.5h-396q-11 0 -17.5 6.5t-6.5 17.5v2q0 11 5 17t15 10l31 11q15 5 21 13t6 24v498q0 16 -6 24t-21 13l-31 11q-10 4 -15 10t-5 17v2q0 11 6.5 17.5t17.5 6.5h355q18 0 34 10q8 6 13.5 8t13.5 2h3q18 0 26 -18l62 -129
q3 -6 3 -10q0 -10 -12 -18l-3 -2q-8 -5 -15 -5q-10 0 -19 10q-39 42 -68.5 61.5t-74.5 27t-129 7.5q-35 0 -49 -10t-14 -31v-150q0 -5 3.5 -8.5t8.5 -3.5h120q25 0 40 3.5t18 4.5q14 4 20 4q9 0 13.5 -4t9.5 -15l59 -114q3 -6 3 -11q0 -10 -12 -17l-5 -3q-5 -4 -12 -4
q-10 0 -19 11q-43 52 -83 70.5t-100 18.5h-52q-5 0 -8.5 -3.5t-3.5 -8.5v-276q0 -20 17.5 -30.5t48.5 -10.5q92 0 143 9.5t86.5 35.5t71.5 81q8 12 19 12q7 0 15 -4l4 -2q14 -7 14 -20q0 -5 -2 -11l-54 -154q-8 -21 -30 -21h-3zM212 788q-11 0 -17.5 6.5t-6.5 17.5v12
q0 11 6.5 17.5t17.5 6.5h226q11 0 17.5 -6.5t6.5 -17.5v-12q0 -11 -6.5 -17.5t-17.5 -6.5h-226z" />
    <glyph glyph-name="emacron" unicode="&#x113;" horiz-adv-x="508" 
d="M484 115q0 -8 -6 -22q-19 -42 -68.5 -72.5t-123.5 -30.5q-67 0 -121.5 31.5t-85.5 89.5t-31 134t29.5 134t80.5 89.5t113 31.5q73 0 125 -40t67 -111q1 -4 1 -10q0 -15 -18 -22l-304 -113q-10 -4 -7 -15q16 -58 59 -92.5t105 -34.5q47 0 81.5 16t56.5 42q13 16 26 16
q7 0 12 -4q9 -6 9 -17zM162.5 395.5q-42.5 -44.5 -42.5 -117.5q0 -8 1 -14q2 -9 13 -5l233 88q8 3 11 7t0 12q-12 36 -41 55t-67 19q-65 0 -107.5 -44.5zM154 595q-11 0 -17.5 6.5t-6.5 17.5v12q0 11 6.5 17.5t17.5 6.5h226q11 0 17.5 -6.5t6.5 -17.5v-12q0 -11 -6.5 -17.5
t-17.5 -6.5h-226z" />
    <glyph glyph-name="Ebreve" unicode="&#x114;" horiz-adv-x="649" 
d="M532 -18q-11 0 -27 8q-10 5 -16.5 7.5t-16.5 2.5h-396q-11 0 -17.5 6.5t-6.5 17.5v2q0 11 5 17t15 10l31 11q15 5 21 13t6 24v498q0 16 -6 24t-21 13l-31 11q-10 4 -15 10t-5 17v2q0 11 6.5 17.5t17.5 6.5h355q18 0 34 10q8 6 13.5 8t13.5 2h3q18 0 26 -18l62 -129
q3 -6 3 -10q0 -10 -12 -18l-3 -2q-8 -5 -15 -5q-10 0 -19 10q-39 42 -68.5 61.5t-74.5 27t-129 7.5q-35 0 -49 -10t-14 -31v-150q0 -5 3.5 -8.5t8.5 -3.5h120q25 0 40 3.5t18 4.5q14 4 20 4q9 0 13.5 -4t9.5 -15l59 -114q3 -6 3 -11q0 -10 -12 -17l-5 -3q-5 -4 -12 -4
q-10 0 -19 11q-43 52 -83 70.5t-100 18.5h-52q-5 0 -8.5 -3.5t-3.5 -8.5v-276q0 -20 17.5 -30.5t48.5 -10.5q92 0 143 9.5t86.5 35.5t71.5 81q8 12 19 12q7 0 15 -4l4 -2q14 -7 14 -20q0 -5 -2 -11l-54 -154q-8 -21 -30 -21h-3zM230.5 802q-35.5 28 -39.5 79q-1 12 4 19.5
t16 8.5h3q13 0 19 -18q6 -22 29 -35t63 -13t63 13t29 35q6 18 19 18q12 0 18 -7.5t5 -20.5q-4 -51 -39.5 -79t-94.5 -28t-94.5 28z" />
    <glyph glyph-name="ebreve" unicode="&#x115;" horiz-adv-x="508" 
d="M484 115q0 -8 -6 -22q-19 -42 -68.5 -72.5t-123.5 -30.5q-67 0 -121.5 31.5t-85.5 89.5t-31 134t29.5 134t80.5 89.5t113 31.5q73 0 125 -40t67 -111q1 -4 1 -10q0 -15 -18 -22l-304 -113q-10 -4 -7 -15q16 -58 59 -92.5t105 -34.5q47 0 81.5 16t56.5 42q13 16 26 16
q7 0 12 -4q9 -6 9 -17zM162.5 395.5q-42.5 -44.5 -42.5 -117.5q0 -8 1 -14q2 -9 13 -5l233 88q8 3 11 7t0 12q-12 36 -41 55t-67 19q-65 0 -107.5 -44.5zM176.5 599.5q-35.5 30.5 -39.5 89.5q-1 12 4 19.5t16 8.5h3q15 0 19 -18q13 -61 88 -61t88 61q4 18 19 18
q12 0 18 -7.5t5 -20.5q-4 -59 -39.5 -89.5t-90.5 -30.5t-90.5 30.5z" />
    <glyph glyph-name="Edotaccent" unicode="&#x116;" horiz-adv-x="649" 
d="M532 -18q-11 0 -27 8q-10 5 -16.5 7.5t-16.5 2.5h-396q-11 0 -17.5 6.5t-6.5 17.5v2q0 11 5 17t15 10l31 11q15 5 21 13t6 24v498q0 16 -6 24t-21 13l-31 11q-10 4 -15 10t-5 17v2q0 11 6.5 17.5t17.5 6.5h355q18 0 34 10q8 6 13.5 8t13.5 2h3q18 0 26 -18l62 -129
q3 -6 3 -10q0 -10 -12 -18l-3 -2q-8 -5 -15 -5q-10 0 -19 10q-39 42 -68.5 61.5t-74.5 27t-129 7.5q-35 0 -49 -10t-14 -31v-150q0 -5 3.5 -8.5t8.5 -3.5h120q25 0 40 3.5t18 4.5q14 4 20 4q9 0 13.5 -4t9.5 -15l59 -114q3 -6 3 -11q0 -10 -12 -17l-5 -3q-5 -4 -12 -4
q-10 0 -19 11q-43 52 -83 70.5t-100 18.5h-52q-5 0 -8.5 -3.5t-3.5 -8.5v-276q0 -20 17.5 -30.5t48.5 -10.5q92 0 143 9.5t86.5 35.5t71.5 81q8 12 19 12q7 0 15 -4l4 -2q14 -7 14 -20q0 -5 -2 -11l-54 -154q-8 -21 -30 -21h-3zM284 803.5q-17 16.5 -17 39.5t16.5 39.5
t41.5 16.5t41.5 -16.5t16.5 -39.5t-16.5 -39.5t-41.5 -16.5q-24 0 -41 16.5z" />
    <glyph glyph-name="edotaccent" unicode="&#x117;" horiz-adv-x="508" 
d="M484 115q0 -8 -6 -22q-19 -42 -68.5 -72.5t-123.5 -30.5q-67 0 -121.5 31.5t-85.5 89.5t-31 134t29.5 134t80.5 89.5t113 31.5q73 0 125 -40t67 -111q1 -4 1 -10q0 -15 -18 -22l-304 -113q-10 -4 -7 -15q16 -58 59 -92.5t105 -34.5q47 0 81.5 16t56.5 42q13 16 26 16
q7 0 12 -4q9 -6 9 -17zM162.5 395.5q-42.5 -44.5 -42.5 -117.5q0 -8 1 -14q2 -9 13 -5l233 88q8 3 11 7t0 12q-12 36 -41 55t-67 19q-65 0 -107.5 -44.5zM226 610.5q-17 16.5 -17 39.5t16.5 39.5t41.5 16.5t41.5 -16.5t16.5 -39.5t-16.5 -39.5t-41.5 -16.5q-24 0 -41 16.5z
" />
    <glyph glyph-name="Eogonek" unicode="&#x118;" horiz-adv-x="649" 
d="M607 188q14 -7 14 -20q0 -5 -2 -11l-54 -154q-8 -21 -30 -21h-3q-11 0 -27 8q-10 5 -16.5 7.5t-16.5 2.5t-20 -10q-32 -33 -43.5 -55.5t-11.5 -49.5q0 -22 12.5 -34.5t33.5 -12.5q16 0 29 5t17 5q8 0 13 -8q2 -4 2 -8q0 -11 -12 -23q-25 -25 -68 -25t-67 23.5t-24 60.5
q0 31 14.5 57.5t49.5 61.5q3 3 3 7q0 2 -2 4t-6 2h-316q-11 0 -17.5 6.5t-6.5 17.5v2q0 11 5 17t15 10l31 11q15 5 21 13t6 24v498q0 16 -6 24t-21 13l-31 11q-10 4 -15 10t-5 17v2q0 11 6.5 17.5t17.5 6.5h355q18 0 34 10q8 6 13.5 8t13.5 2h3q18 0 26 -18l62 -129
q3 -6 3 -10q0 -10 -12 -18l-3 -2q-8 -5 -15 -5q-10 0 -19 10q-39 42 -68.5 61.5t-74.5 27t-129 7.5q-35 0 -49 -10t-14 -31v-150q0 -5 3.5 -8.5t8.5 -3.5h120q25 0 40 3.5t18 4.5q14 4 20 4q9 0 13.5 -4t9.5 -15l59 -114q3 -6 3 -11q0 -10 -12 -17l-5 -3q-5 -4 -12 -4
q-10 0 -19 11q-43 52 -83 70.5t-100 18.5h-52q-5 0 -8.5 -3.5t-3.5 -8.5v-276q0 -20 17.5 -30.5t48.5 -10.5q92 0 143 9.5t86.5 35.5t71.5 81q8 12 19 12q7 0 15 -4z" />
    <glyph glyph-name="eogonek" unicode="&#x119;" horiz-adv-x="508" 
d="M244 -192.5q-24 23.5 -24 60.5q0 35 15 59.5t38 48.5q4 4 4 8q0 5 -9 7q-64 5 -114 37.5t-78 88t-28 128.5q0 76 29.5 134t80.5 89.5t113 31.5q73 0 125 -40t67 -111q1 -4 1 -10q0 -15 -18 -22l-304 -113q-10 -4 -7 -15q16 -58 59 -92.5t105 -34.5q47 0 81.5 16t56.5 42
q13 16 26 16q7 0 12 -4q9 -6 9 -17q0 -8 -6 -22q-26 -55 -93 -85q-22 -9 -34 -16t-27 -20q-40 -35 -40 -85q0 -23 12.5 -36t33.5 -13q16 0 29 5t17 5q8 0 13 -8q2 -4 2 -8q0 -11 -12 -23q-25 -25 -68 -25t-67 23.5zM367 347q8 3 11 7t0 12q-12 36 -41 55t-67 19
q-65 0 -107.5 -44.5t-42.5 -117.5q0 -8 1 -14q2 -9 13 -5z" />
    <glyph glyph-name="Ecaron" unicode="&#x11a;" horiz-adv-x="649" 
d="M532 -18q-11 0 -27 8q-10 5 -16.5 7.5t-16.5 2.5h-396q-11 0 -17.5 6.5t-6.5 17.5v2q0 11 5 17t15 10l31 11q15 5 21 13t6 24v498q0 16 -6 24t-21 13l-31 11q-10 4 -15 10t-5 17v2q0 11 6.5 17.5t17.5 6.5h355q18 0 34 10q8 6 13.5 8t13.5 2h3q18 0 26 -18l62 -129
q3 -6 3 -10q0 -10 -12 -18l-3 -2q-8 -5 -15 -5q-10 0 -19 10q-39 42 -68.5 61.5t-74.5 27t-129 7.5q-35 0 -49 -10t-14 -31v-150q0 -5 3.5 -8.5t8.5 -3.5h120q25 0 40 3.5t18 4.5q14 4 20 4q9 0 13.5 -4t9.5 -15l59 -114q3 -6 3 -11q0 -10 -12 -17l-5 -3q-5 -4 -12 -4
q-10 0 -19 11q-43 52 -83 70.5t-100 18.5h-52q-5 0 -8.5 -3.5t-3.5 -8.5v-276q0 -20 17.5 -30.5t48.5 -10.5q92 0 143 9.5t86.5 35.5t71.5 81q8 12 19 12q7 0 15 -4l4 -2q14 -7 14 -20q0 -5 -2 -11l-54 -154q-8 -21 -30 -21h-3zM318 769q-9 0 -16 3.5t-15 10.5l-104 97
q-9 9 -9 16q0 6 5 14l2 3q6 9 15 9q6 0 14 -5l107 -64q6 -2 8 -2l8 2l107 64q8 5 14 5q9 0 15 -9l2 -3q5 -8 5 -14q0 -7 -9 -16l-104 -97q-8 -7 -15 -10.5t-16 -3.5h-14z" />
    <glyph glyph-name="ecaron" unicode="&#x11b;" horiz-adv-x="508" 
d="M484 115q0 -8 -6 -22q-19 -42 -68.5 -72.5t-123.5 -30.5q-67 0 -121.5 31.5t-85.5 89.5t-31 134t29.5 134t80.5 89.5t113 31.5q73 0 125 -40t67 -111q1 -4 1 -10q0 -15 -18 -22l-304 -113q-10 -4 -7 -15q16 -58 59 -92.5t105 -34.5q47 0 81.5 16t56.5 42q13 16 26 16
q7 0 12 -4q9 -6 9 -17zM162.5 395.5q-42.5 -44.5 -42.5 -117.5q0 -8 1 -14q2 -9 13 -5l233 88q8 3 11 7t0 12q-12 36 -41 55t-67 19q-65 0 -107.5 -44.5zM260 560q-10 0 -16 3t-12 11l-100 116q-7 11 -7 16q0 8 8 16l1 1q7 7 15 7t16 -7l94 -79q4 -3 8 -3q5 0 8 3l94 79
q8 7 16 7t15 -7l1 -1q8 -7 8 -16q0 -8 -7 -16l-100 -116q-6 -8 -12 -11t-16 -3h-14z" />
    <glyph glyph-name="Gcircumflex" unicode="&#x11c;" horiz-adv-x="754" 
d="M213 32.5q-75 42.5 -119 125t-44 198.5q0 103 41 183t113.5 123.5t162.5 43.5q22 0 40.5 -3t23.5 -4q30 -7 53 -7q14 0 40 7q16 4 22 4h4q9 0 15 -6t12 -19l69 -150q4 -9 4 -16q0 -9 -12 -18l-3 -2q-12 -6 -17 -6q-12 0 -21 13q-50 74 -106 110t-128 36q-68 0 -121.5 -35
t-83 -96.5t-29.5 -137.5q0 -148 73 -231t203 -83q80 0 121.5 30t41.5 84v72q0 15 -6 23.5t-21 13.5l-55 20q-18 6 -18 26v2q0 11 6.5 17.5t17.5 6.5h208q11 0 17.5 -6.5t6.5 -17.5v-2q0 -11 -4 -16.5t-14 -9.5l-39 -16q-15 -6 -21 -14t-6 -23v-228q0 -11 -6.5 -17.5
t-17.5 -6.5h-3q-9 0 -15 4.5t-12 14.5l-9 17q-6 10 -12 10q-5 0 -22 -10q-32 -19 -68.5 -32.5t-93.5 -13.5q-93 0 -168 42.5zM250 770q-8 -5 -14 -5q-9 0 -15 9l-2 3q-5 8 -5 14q0 7 9 16l104 97q8 7 15 10.5t16 3.5h14q9 0 16 -3.5t15 -10.5l104 -97q9 -9 9 -16
q0 -6 -5 -14l-2 -3q-6 -9 -15 -9q-6 0 -14 5l-107 64q-3 2 -8 2t-8 -2z" />
    <glyph glyph-name="gcircumflex" unicode="&#x11d;" horiz-adv-x="548" 
d="M182 571q-8 -7 -16 -7t-15 7l-1 1q-8 8 -8 16q0 9 7 16l93 108q7 8 13 11t15 3h14q9 0 15 -3t13 -11l93 -108q7 -7 7 -16q0 -8 -8 -16l-1 -1q-7 -7 -15 -7t-16 7l-87 71q-3 3 -8 3q-3 0 -8 -3zM85 -192q-53 34 -53 91q0 27 15.5 52.5t38.5 43.5q7 6 7 9t-6 7
q-33 24 -33 69q0 32 21.5 56.5t60.5 37.5q7 4 7 7t-5 8q-25 25 -39.5 59t-14.5 69q0 49 24.5 91t68.5 67t99 25q49 0 91 -22q3 -2 8 -2q8 0 11 9q12 31 33.5 56t41.5 25q16 0 25 -18l14 -26q8 -16 8 -24t-5 -13.5t-17 -10.5l-56 -26q-8 -3 -8 -9q0 -4 4 -8q19 -22 30.5 -52
t11.5 -62q0 -49 -25.5 -91t-69.5 -67t-97 -25q-27 0 -48 3q-28 2 -45 2q-27 0 -44 -12t-17 -35t20.5 -35.5t57.5 -12.5q20 0 53 2t49 3q60 5 97 5q61 0 96 -30t35 -86q0 -71 -69.5 -117.5t-224.5 -46.5q-98 0 -151 34zM364.5 222.5q31.5 33.5 31.5 84.5q0 62 -35.5 100
t-92.5 38q-48 0 -79.5 -33.5t-31.5 -84.5q0 -63 34 -100.5t94 -37.5q48 0 79.5 33.5zM403 -143q52 27 52 74q0 35 -21.5 49.5t-68.5 14.5q-39 0 -91 -5q-60 -4 -87 -4q-20 0 -29 1h-5q-6 0 -11 -4q-19 -15 -27.5 -31.5t-8.5 -40.5q0 -36 35.5 -58.5t104.5 -22.5
q105 0 157 27z" />
    <glyph glyph-name="Gbreve" unicode="&#x11e;" horiz-adv-x="754" 
d="M213 32.5q-75 42.5 -119 125t-44 198.5q0 103 41 183t113.5 123.5t162.5 43.5q22 0 40.5 -3t23.5 -4q30 -7 53 -7q14 0 40 7q16 4 22 4h4q9 0 15 -6t12 -19l69 -150q4 -9 4 -16q0 -9 -12 -18l-3 -2q-12 -6 -17 -6q-12 0 -21 13q-50 74 -106 110t-128 36q-68 0 -121.5 -35
t-83 -96.5t-29.5 -137.5q0 -148 73 -231t203 -83q80 0 121.5 30t41.5 84v72q0 15 -6 23.5t-21 13.5l-55 20q-18 6 -18 26v2q0 11 6.5 17.5t17.5 6.5h208q11 0 17.5 -6.5t6.5 -17.5v-2q0 -11 -4 -16.5t-14 -9.5l-39 -16q-15 -6 -21 -14t-6 -23v-228q0 -11 -6.5 -17.5
t-17.5 -6.5h-3q-9 0 -15 4.5t-12 14.5l-9 17q-6 10 -12 10q-5 0 -22 -10q-32 -19 -68.5 -32.5t-93.5 -13.5q-93 0 -168 42.5zM270.5 802q-35.5 28 -39.5 79q-1 12 4 19.5t16 8.5h3q13 0 19 -18q6 -22 29 -35t63 -13t63 13t29 35q6 18 19 18q12 0 18 -7.5t5 -20.5
q-4 -51 -39.5 -79t-94.5 -28t-94.5 28z" />
    <glyph glyph-name="gbreve" unicode="&#x11f;" horiz-adv-x="548" 
d="M85 -192q-53 34 -53 91q0 27 15.5 52.5t38.5 43.5q7 6 7 9t-6 7q-33 24 -33 69q0 32 21.5 56.5t60.5 37.5q7 4 7 7t-5 8q-25 25 -39.5 59t-14.5 69q0 49 24.5 91t68.5 67t99 25q49 0 91 -22q3 -2 8 -2q8 0 11 9q12 31 33.5 56t41.5 25q16 0 25 -18l14 -26q8 -16 8 -24
t-5 -13.5t-17 -10.5l-56 -26q-8 -3 -8 -9q0 -4 4 -8q19 -22 30.5 -52t11.5 -62q0 -49 -25.5 -91t-69.5 -67t-97 -25q-27 0 -48 3q-28 2 -45 2q-27 0 -44 -12t-17 -35t20.5 -35.5t57.5 -12.5q20 0 53 2t49 3q60 5 97 5q61 0 96 -30t35 -86q0 -71 -69.5 -117.5t-224.5 -46.5
q-98 0 -151 34zM364.5 222.5q31.5 33.5 31.5 84.5q0 62 -35.5 100t-92.5 38q-48 0 -79.5 -33.5t-31.5 -84.5q0 -63 34 -100.5t94 -37.5q48 0 79.5 33.5zM403 -143q52 27 52 74q0 35 -21.5 49.5t-68.5 14.5q-39 0 -91 -5q-60 -4 -87 -4q-20 0 -29 1h-5q-6 0 -11 -4
q-19 -15 -27.5 -31.5t-8.5 -40.5q0 -36 35.5 -58.5t104.5 -22.5q105 0 157 27zM185.5 599.5q-35.5 30.5 -39.5 89.5q-1 12 4 19.5t16 8.5h3q15 0 19 -18q13 -61 88 -61t88 61q4 18 19 18q12 0 18 -7.5t5 -20.5q-4 -59 -39.5 -89.5t-90.5 -30.5t-90.5 30.5z" />
    <glyph glyph-name="Gdotaccent" unicode="&#x120;" horiz-adv-x="754" 
d="M213 32.5q-75 42.5 -119 125t-44 198.5q0 103 41 183t113.5 123.5t162.5 43.5q22 0 40.5 -3t23.5 -4q30 -7 53 -7q14 0 40 7q16 4 22 4h4q9 0 15 -6t12 -19l69 -150q4 -9 4 -16q0 -9 -12 -18l-3 -2q-12 -6 -17 -6q-12 0 -21 13q-50 74 -106 110t-128 36q-68 0 -121.5 -35
t-83 -96.5t-29.5 -137.5q0 -148 73 -231t203 -83q80 0 121.5 30t41.5 84v72q0 15 -6 23.5t-21 13.5l-55 20q-18 6 -18 26v2q0 11 6.5 17.5t17.5 6.5h208q11 0 17.5 -6.5t6.5 -17.5v-2q0 -11 -4 -16.5t-14 -9.5l-39 -16q-15 -6 -21 -14t-6 -23v-228q0 -11 -6.5 -17.5
t-17.5 -6.5h-3q-9 0 -15 4.5t-12 14.5l-9 17q-6 10 -12 10q-5 0 -22 -10q-32 -19 -68.5 -32.5t-93.5 -13.5q-93 0 -168 42.5zM324 803.5q-17 16.5 -17 39.5t16.5 39.5t41.5 16.5t41.5 -16.5t16.5 -39.5t-16.5 -39.5t-41.5 -16.5q-24 0 -41 16.5z" />
    <glyph glyph-name="gdotaccent" unicode="&#x121;" horiz-adv-x="548" 
d="M85 -192q-53 34 -53 91q0 27 15.5 52.5t38.5 43.5q7 6 7 9t-6 7q-33 24 -33 69q0 32 21.5 56.5t60.5 37.5q7 4 7 7t-5 8q-25 25 -39.5 59t-14.5 69q0 49 24.5 91t68.5 67t99 25q49 0 91 -22q3 -2 8 -2q8 0 11 9q12 31 33.5 56t41.5 25q16 0 25 -18l14 -26q8 -16 8 -24
t-5 -13.5t-17 -10.5l-56 -26q-8 -3 -8 -9q0 -4 4 -8q19 -22 30.5 -52t11.5 -62q0 -49 -25.5 -91t-69.5 -67t-97 -25q-27 0 -48 3q-28 2 -45 2q-27 0 -44 -12t-17 -35t20.5 -35.5t57.5 -12.5q20 0 53 2t49 3q60 5 97 5q61 0 96 -30t35 -86q0 -71 -69.5 -117.5t-224.5 -46.5
q-98 0 -151 34zM364.5 222.5q31.5 33.5 31.5 84.5q0 62 -35.5 100t-92.5 38q-48 0 -79.5 -33.5t-31.5 -84.5q0 -63 34 -100.5t94 -37.5q48 0 79.5 33.5zM403 -143q52 27 52 74q0 35 -21.5 49.5t-68.5 14.5q-39 0 -91 -5q-60 -4 -87 -4q-20 0 -29 1h-5q-6 0 -11 -4
q-19 -15 -27.5 -31.5t-8.5 -40.5q0 -36 35.5 -58.5t104.5 -22.5q105 0 157 27zM235 610.5q-17 16.5 -17 39.5t16.5 39.5t41.5 16.5t41.5 -16.5t16.5 -39.5t-16.5 -39.5t-41.5 -16.5q-24 0 -41 16.5z" />
    <glyph glyph-name="uni0122" unicode="&#x122;" horiz-adv-x="754" 
d="M213 32.5q-75 42.5 -119 125t-44 198.5q0 103 41 183t113.5 123.5t162.5 43.5q22 0 40.5 -3t23.5 -4q30 -7 53 -7q14 0 40 7q16 4 22 4h4q9 0 15 -6t12 -19l69 -150q4 -9 4 -16q0 -9 -12 -18l-3 -2q-12 -6 -17 -6q-12 0 -21 13q-50 74 -106 110t-128 36q-68 0 -121.5 -35
t-83 -96.5t-29.5 -137.5q0 -148 73 -231t203 -83q80 0 121.5 30t41.5 84v72q0 15 -6 23.5t-21 13.5l-55 20q-18 6 -18 26v2q0 11 6.5 17.5t17.5 6.5h208q11 0 17.5 -6.5t6.5 -17.5v-2q0 -11 -4 -16.5t-14 -9.5l-39 -16q-15 -6 -21 -14t-6 -23v-228q0 -11 -6.5 -17.5
t-17.5 -6.5h-3q-9 0 -15 4.5t-12 14.5l-9 17q-6 10 -12 10q-5 0 -22 -10q-32 -19 -68.5 -32.5t-93.5 -13.5q-93 0 -168 42.5zM345 -249q-14 0 -19 13q-2 6 -2 8q0 10 13 17q30 14 43 25t13 25q0 10 -8 10l-12 -1q-18 0 -32 14.5t-14 36.5q0 23 16.5 39t40.5 16q27 0 46 -20
t19 -54q0 -54 -24.5 -84t-68.5 -43q-8 -2 -11 -2z" />
    <glyph glyph-name="uni0123" unicode="&#x123;" horiz-adv-x="548" 
d="M85 -192q-53 34 -53 91q0 27 15.5 52.5t38.5 43.5q7 6 7 9t-6 7q-33 24 -33 69q0 32 21.5 56.5t60.5 37.5q7 4 7 7t-5 8q-25 25 -39.5 59t-14.5 69q0 49 24.5 91t68.5 67t99 25q49 0 91 -22q3 -2 8 -2q8 0 11 9q12 31 33.5 56t41.5 25q16 0 25 -18l14 -26q8 -16 8 -24
t-5 -13.5t-17 -10.5l-56 -26q-8 -3 -8 -9q0 -4 4 -8q19 -22 30.5 -52t11.5 -62q0 -49 -25.5 -91t-69.5 -67t-97 -25q-27 0 -48 3q-28 2 -45 2q-27 0 -44 -12t-17 -35t20.5 -35.5t57.5 -12.5q20 0 53 2t49 3q60 5 97 5q61 0 96 -30t35 -86q0 -71 -69.5 -117.5t-224.5 -46.5
q-98 0 -151 34zM364.5 222.5q31.5 33.5 31.5 84.5q0 62 -35.5 100t-92.5 38q-48 0 -79.5 -33.5t-31.5 -84.5q0 -63 34 -100.5t94 -37.5q48 0 79.5 33.5zM403 -143q52 27 52 74q0 35 -21.5 49.5t-68.5 14.5q-39 0 -91 -5q-60 -4 -87 -4q-20 0 -29 1h-5q-6 0 -11 -4
q-19 -15 -27.5 -31.5t-8.5 -40.5q0 -36 35.5 -58.5t104.5 -22.5q105 0 157 27zM318 750q14 0 19 -13q2 -6 2 -8q0 -10 -13 -17q-30 -14 -43 -25t-13 -25q0 -10 8 -10l12 1q18 0 32 -14.5t14 -36.5q0 -23 -16.5 -39t-40.5 -16q-27 0 -46 20t-19 54q0 54 24.5 84t68.5 43
q8 2 11 2z" />
    <glyph glyph-name="Hcircumflex" unicode="&#x124;" horiz-adv-x="770" 
d="M76 0q-11 0 -17.5 6.5t-6.5 17.5v2q0 11 5 17t15 10l31 11q15 5 21 13t6 24v498q0 16 -6 24t-21 13l-31 11q-10 4 -15 10t-5 17v2q0 11 6.5 17.5t17.5 6.5h180q11 0 17.5 -6.5t6.5 -17.5v-2q0 -11 -5 -17t-15 -10l-31 -11q-15 -5 -21 -13t-6 -24v-186q0 -5 3.5 -8.5
t8.5 -3.5h342q5 0 8.5 3.5t3.5 8.5v186q0 16 -6 24t-21 13l-31 11q-10 4 -15 10t-5 17v2q0 11 6.5 17.5t17.5 6.5h180q11 0 17.5 -6.5t6.5 -17.5v-2q0 -11 -5 -17t-15 -10l-31 -11q-15 -5 -21 -13t-6 -24v-498q0 -16 6 -24t21 -13l31 -11q10 -4 15 -10t5 -17v-2
q0 -11 -6.5 -17.5t-17.5 -6.5h-180q-11 0 -17.5 6.5t-6.5 17.5v2q0 11 5 17t15 10l31 11q15 5 21 13t6 24v230q0 5 -3.5 8.5t-8.5 3.5h-342q-5 0 -8.5 -3.5t-3.5 -8.5v-230q0 -16 6 -24t21 -13l31 -11q10 -4 15 -10t5 -17v-2q0 -11 -6.5 -17.5t-17.5 -6.5h-180zM270 770
q-8 -5 -14 -5q-9 0 -15 9l-2 3q-5 8 -5 14q0 7 9 16l104 97q8 7 15 10.5t16 3.5h14q9 0 16 -3.5t15 -10.5l104 -97q9 -9 9 -16q0 -6 -5 -14l-2 -3q-6 -9 -15 -9q-6 0 -14 5l-107 64q-3 2 -8 2t-8 -2z" />
    <glyph glyph-name="hcircumflex" unicode="&#x125;" horiz-adv-x="588" 
d="M61 0q-11 0 -17.5 6.5t-6.5 17.5v2q0 18 21 24l21 6q16 4 22 12.5t6 25.5v518q0 24 -9.5 35t-38.5 17q-21 4 -21 22v2q0 9 4.5 13.5t15.5 9.5l79 35q12 4 16 4q9 0 15 -7t6 -20v-272q0 -10 9 -10q3 0 8 3l14 9q75 48 154 48q61 0 93 -36t32 -103v-268q0 -17 6 -25.5
t22 -12.5l21 -6q21 -6 21 -24v-2q0 -11 -6.5 -17.5t-17.5 -6.5h-91q-11 0 -17.5 6.5t-6.5 17.5v318q0 51 -15.5 74t-56.5 23q-39 0 -78.5 -12.5t-66.5 -28.5q-14 -8 -19 -17t-5 -24v-263q0 -17 6 -25.5t22 -12.5l21 -6q21 -6 21 -24v-2q0 -11 -6.5 -17.5t-17.5 -6.5h-159z
M28 813q-8 -7 -16 -7t-15 7l-1 1q-8 10 -8 16q0 7 7 16l100 116q6 8 12 11t16 3h14q10 0 16 -3t12 -11l100 -116q7 -7 7 -16q0 -8 -8 -16l-1 -1q-7 -7 -15 -7t-16 7l-94 79q-3 3 -8 3q-4 0 -8 -3z" />
    <glyph glyph-name="Hbar" unicode="&#x126;" horiz-adv-x="782" 
d="M82 0q-11 0 -17.5 6.5t-6.5 17.5v2q0 11 5 17t15 10l31 11q15 5 21 13t6 24v371q0 5 -3.5 8.5t-8.5 3.5h-48q-11 0 -17.5 6.5t-6.5 17.5v4q0 11 6.5 17.5t17.5 6.5h48q5 0 8.5 3.5t3.5 8.5v51q0 16 -6 24t-21 13l-31 11q-10 4 -15 10t-5 17v2q0 11 6.5 17.5t17.5 6.5h180
q11 0 17.5 -6.5t6.5 -17.5v-2q0 -11 -5 -17t-15 -10l-31 -11q-15 -5 -21 -13t-6 -24v-51q0 -5 3.5 -8.5t8.5 -3.5h342q5 0 8.5 3.5t3.5 8.5v51q0 16 -6 24t-21 13l-31 11q-10 4 -15 10t-5 17v2q0 11 6.5 17.5t17.5 6.5h180q11 0 17.5 -6.5t6.5 -17.5v-2q0 -11 -5 -17
t-15 -10l-31 -11q-15 -5 -21 -13t-6 -24v-51q0 -5 3.5 -8.5t8.5 -3.5h48q11 0 17.5 -6.5t6.5 -17.5v-4q0 -11 -6.5 -17.5t-17.5 -6.5h-48q-5 0 -8.5 -3.5t-3.5 -8.5v-371q0 -16 6 -24t21 -13l31 -11q10 -4 15 -10t5 -17v-2q0 -11 -6.5 -17.5t-17.5 -6.5h-180
q-11 0 -17.5 6.5t-6.5 17.5v2q0 11 5 17t15 10l31 11q15 5 21 13t6 24v224q0 5 -3.5 8.5t-8.5 3.5h-342q-5 0 -8.5 -3.5t-3.5 -8.5v-224q0 -16 6 -24t21 -13l31 -11q10 -4 15 -10t5 -17v-2q0 -11 -6.5 -17.5t-17.5 -6.5h-180zM562 395q5 0 8.5 3.5t3.5 8.5v65q0 5 -3.5 8.5
t-8.5 3.5h-342q-5 0 -8.5 -3.5t-3.5 -8.5v-65q0 -5 3.5 -8.5t8.5 -3.5h342z" />
    <glyph glyph-name="hbar" unicode="&#x127;" horiz-adv-x="592" 
d="M537 50q21 -6 21 -24v-2q0 -11 -6.5 -17.5t-17.5 -6.5h-91q-11 0 -17.5 6.5t-6.5 17.5v318q0 51 -15.5 74t-56.5 23q-39 0 -78.5 -12.5t-66.5 -28.5q-14 -8 -19 -17t-5 -24v-263q0 -17 6 -25.5t22 -12.5l21 -6q21 -6 21 -24v-2q0 -11 -6.5 -17.5t-17.5 -6.5h-159
q-11 0 -17.5 6.5t-6.5 17.5v2q0 18 21 24l21 6q16 4 22 12.5t6 25.5v440q0 5 -3.5 8.5t-8.5 3.5h-36q-11 0 -17.5 6.5t-6.5 17.5v4q0 11 6.5 17.5t17.5 6.5h36q5 0 8.5 3.5t3.5 8.5v2q0 24 -9.5 35t-38.5 17q-21 4 -21 22v2q0 9 4.5 13.5t15.5 9.5l79 35q12 4 16 4
q9 0 15 -7t6 -20v-113q0 -5 3.5 -8.5t8.5 -3.5h123q11 0 17.5 -6.5t6.5 -17.5v-4q0 -11 -6.5 -17.5t-17.5 -6.5h-123q-5 0 -8.5 -3.5t-3.5 -8.5v-83q0 -10 9 -10q4 0 8 3l14 9q75 48 154 48q61 0 93 -36t32 -103v-268q0 -17 6 -25.5t22 -12.5z" />
    <glyph glyph-name="Itilde" unicode="&#x128;" horiz-adv-x="332" 
d="M76 0q-11 0 -17.5 6.5t-6.5 17.5v2q0 11 5 17t15 10l31 11q15 5 21 13t6 24v498q0 16 -6 24t-21 13l-31 11q-10 4 -15 10t-5 17v2q0 11 6.5 17.5t17.5 6.5h180q11 0 17.5 -6.5t6.5 -17.5v-2q0 -11 -5 -17t-15 -10l-31 -11q-15 -5 -21 -13t-6 -24v-498q0 -16 6 -24t21 -13
l31 -11q10 -4 15 -10t5 -17v-2q0 -11 -6.5 -17.5t-17.5 -6.5h-180zM7 807q0 7 2 12q13 37 38.5 58.5t56.5 21.5q30 0 58 -14l29 -15q24 -13 42 -13q28 0 45 29q11 18 25 18q3 0 9 -2q13 -4 13 -18q0 -7 -2 -12q-13 -37 -38.5 -58.5t-56.5 -21.5q-30 0 -58 14l-29 15
q-24 13 -42 13q-28 0 -45 -29q-10 -18 -25 -18q-22 0 -22 20z" />
    <glyph glyph-name="itilde" unicode="&#x129;" horiz-adv-x="294" 
d="M74 0q-11 0 -17.5 6.5t-6.5 17.5v2q0 18 21 24l21 6q16 4 22 12.5t6 25.5v269q0 24 -9.5 34t-38.5 17q-12 3 -17 8t-5 15v1q0 16 21 24l78 34q8 4 17 4q10 0 15.5 -7.5t5.5 -20.5v-378q0 -17 6 -25.5t22 -12.5l21 -6q21 -6 21 -24v-2q0 -11 -6.5 -17.5t-17.5 -6.5h-159z
M-17 614q0 7 2 12q13 37 38.5 58.5t56.5 21.5q30 0 58 -14l29 -15q24 -13 42 -13q28 0 45 29q11 18 25 18q3 0 9 -2q13 -4 13 -18q0 -7 -2 -12q-13 -37 -38.5 -58.5t-56.5 -21.5q-30 0 -58 14l-29 15q-24 13 -42 13q-28 0 -45 -29q-10 -18 -25 -18q-22 0 -22 20z" />
    <glyph glyph-name="Imacron" unicode="&#x12a;" horiz-adv-x="332" 
d="M76 0q-11 0 -17.5 6.5t-6.5 17.5v2q0 11 5 17t15 10l31 11q15 5 21 13t6 24v498q0 16 -6 24t-21 13l-31 11q-10 4 -15 10t-5 17v2q0 11 6.5 17.5t17.5 6.5h180q11 0 17.5 -6.5t6.5 -17.5v-2q0 -11 -5 -17t-15 -10l-31 -11q-15 -5 -21 -13t-6 -24v-498q0 -16 6 -24t21 -13
l31 -11q10 -4 15 -10t5 -17v-2q0 -11 -6.5 -17.5t-17.5 -6.5h-180zM53 788q-11 0 -17.5 6.5t-6.5 17.5v12q0 11 6.5 17.5t17.5 6.5h226q11 0 17.5 -6.5t6.5 -17.5v-12q0 -11 -6.5 -17.5t-17.5 -6.5h-226z" />
    <glyph glyph-name="imacron" unicode="&#x12b;" horiz-adv-x="294" 
d="M74 0q-11 0 -17.5 6.5t-6.5 17.5v2q0 18 21 24l21 6q16 4 22 12.5t6 25.5v269q0 24 -9.5 34t-38.5 17q-12 3 -17 8t-5 15v1q0 16 21 24l78 34q8 4 17 4q10 0 15.5 -7.5t5.5 -20.5v-378q0 -17 6 -25.5t22 -12.5l21 -6q21 -6 21 -24v-2q0 -11 -6.5 -17.5t-17.5 -6.5h-159z
M29 595q-11 0 -17.5 6.5t-6.5 17.5v12q0 11 6.5 17.5t17.5 6.5h226q11 0 17.5 -6.5t6.5 -17.5v-12q0 -11 -6.5 -17.5t-17.5 -6.5h-226z" />
    <glyph glyph-name="Ibreve" unicode="&#x12c;" horiz-adv-x="332" 
d="M76 0q-11 0 -17.5 6.5t-6.5 17.5v2q0 11 5 17t15 10l31 11q15 5 21 13t6 24v498q0 16 -6 24t-21 13l-31 11q-10 4 -15 10t-5 17v2q0 11 6.5 17.5t17.5 6.5h180q11 0 17.5 -6.5t6.5 -17.5v-2q0 -11 -5 -17t-15 -10l-31 -11q-15 -5 -21 -13t-6 -24v-498q0 -16 6 -24t21 -13
l31 -11q10 -4 15 -10t5 -17v-2q0 -11 -6.5 -17.5t-17.5 -6.5h-180zM71.5 802q-35.5 28 -39.5 79q-1 12 4 19.5t16 8.5h3q13 0 19 -18q6 -22 29 -35t63 -13t63 13t29 35q6 18 19 18q12 0 18 -7.5t5 -20.5q-4 -51 -39.5 -79t-94.5 -28t-94.5 28z" />
    <glyph glyph-name="ibreve" unicode="&#x12d;" horiz-adv-x="294" 
d="M74 0q-11 0 -17.5 6.5t-6.5 17.5v2q0 18 21 24l21 6q16 4 22 12.5t6 25.5v269q0 24 -9.5 34t-38.5 17q-12 3 -17 8t-5 15v1q0 16 21 24l78 34q8 4 17 4q10 0 15.5 -7.5t5.5 -20.5v-378q0 -17 6 -25.5t22 -12.5l21 -6q21 -6 21 -24v-2q0 -11 -6.5 -17.5t-17.5 -6.5h-159z
M51.5 599.5q-35.5 30.5 -39.5 89.5q-1 12 4 19.5t16 8.5h3q15 0 19 -18q13 -61 88 -61t88 61q4 18 19 18q12 0 18 -7.5t5 -20.5q-4 -59 -39.5 -89.5t-90.5 -30.5t-90.5 30.5z" />
    <glyph glyph-name="Iogonek" unicode="&#x12e;" horiz-adv-x="332" 
d="M76 0q-11 0 -17.5 6.5t-6.5 17.5v2q0 11 5 17t15 10l31 11q15 5 21 13t6 24v498q0 16 -6 24t-21 13l-31 11q-10 4 -15 10t-5 17v2q0 11 6.5 17.5t17.5 6.5h180q11 0 17.5 -6.5t6.5 -17.5v-2q0 -11 -5 -17t-15 -10l-31 -11q-15 -5 -21 -13t-6 -24v-498q0 -16 6 -24t21 -13
l31 -11q10 -4 15 -10t5 -17v-2q0 -11 -6.5 -17.5t-17.5 -6.5h-180zM254 -168q0 -11 -12 -23q-25 -25 -68 -25t-67 23.5t-24 60.5q0 31 14.5 57.5t49.5 61.5q3 3 3 7q0 2 -2 4t-6 2h80q-10 0 -20 -10q-32 -33 -43.5 -55.5t-11.5 -49.5q0 -22 12.5 -34.5t33.5 -12.5q16 0 29 5
t17 5q8 0 13 -8q2 -4 2 -8z" />
    <glyph glyph-name="iogonek" unicode="&#x12f;" horiz-adv-x="294" 
d="M74 0q-11 0 -17.5 6.5t-6.5 17.5v2q0 18 21 24l21 6q16 4 22 12.5t6 25.5v269q0 24 -9.5 34t-38.5 17q-12 3 -17 8t-5 15v1q0 16 21 24l78 34q8 4 17 4q10 0 15.5 -7.5t5.5 -20.5v-378q0 -17 6 -25.5t22 -12.5l21 -6q21 -6 21 -24v-2q0 -11 -6.5 -17.5t-17.5 -6.5h-159z
M101 610.5q-17 16.5 -17 39.5t16.5 39.5t41.5 16.5t41.5 -16.5t16.5 -39.5t-16.5 -39.5t-41.5 -16.5q-24 0 -41 16.5zM239 -168q0 -11 -12 -23q-25 -25 -68 -25t-67 23.5t-24 60.5q0 31 14.5 57.5t49.5 61.5q3 3 3 7q0 2 -2 4t-6 2h80q-10 0 -20 -10q-32 -33 -43.5 -55.5
t-11.5 -49.5q0 -22 12.5 -34.5t33.5 -12.5q16 0 29 5t17 5q8 0 13 -8q2 -4 2 -8z" />
    <glyph glyph-name="Idotaccent" unicode="&#x130;" horiz-adv-x="332" 
d="M76 0q-11 0 -17.5 6.5t-6.5 17.5v2q0 11 5 17t15 10l31 11q15 5 21 13t6 24v498q0 16 -6 24t-21 13l-31 11q-10 4 -15 10t-5 17v2q0 11 6.5 17.5t17.5 6.5h180q11 0 17.5 -6.5t6.5 -17.5v-2q0 -11 -5 -17t-15 -10l-31 -11q-15 -5 -21 -13t-6 -24v-498q0 -16 6 -24t21 -13
l31 -11q10 -4 15 -10t5 -17v-2q0 -11 -6.5 -17.5t-17.5 -6.5h-180zM125 803.5q-17 16.5 -17 39.5t16.5 39.5t41.5 16.5t41.5 -16.5t16.5 -39.5t-16.5 -39.5t-41.5 -16.5q-24 0 -41 16.5z" />
    <glyph glyph-name="dotlessi" unicode="&#x131;" horiz-adv-x="294" 
d="M74 0q-11 0 -17.5 6.5t-6.5 17.5v2q0 18 21 24l21 6q16 4 22 12.5t6 25.5v269q0 24 -9.5 34t-38.5 17q-12 3 -17 8t-5 15v1q0 16 21 24l78 34q8 4 17 4q10 0 15.5 -7.5t5.5 -20.5v-378q0 -17 6 -25.5t22 -12.5l21 -6q21 -6 21 -24v-2q0 -11 -6.5 -17.5t-17.5 -6.5h-159z
" />
    <glyph glyph-name="IJ" unicode="&#x132;" horiz-adv-x="648" 
d="M76 0q-11 0 -17.5 6.5t-6.5 17.5v2q0 11 5 17t15 10l31 11q15 5 21 13t6 24v498q0 16 -6 24t-21 13l-31 11q-10 4 -15 10t-5 17v2q0 11 6.5 17.5t17.5 6.5h180q11 0 17.5 -6.5t6.5 -17.5v-2q0 -11 -5 -17t-15 -10l-31 -11q-15 -5 -21 -13t-6 -24v-498q0 -16 6 -24t21 -13
l31 -11q10 -4 15 -10t5 -17v-2q0 -11 -6.5 -17.5t-17.5 -6.5h-180zM383 -164q-11 0 -20 14l-2 3q-5 8 -5 14q0 10 16 22q45 31 64.5 64t19.5 78v568q0 16 -6 24t-21 13l-31 11q-10 4 -15 10t-5 17v2q0 11 6.5 17.5t17.5 6.5h180q11 0 17.5 -6.5t6.5 -17.5v-2q0 -11 -5 -17
t-15 -10l-31 -11q-15 -5 -21 -13t-6 -24v-558q0 -53 -13 -87t-41 -59.5t-79 -54.5q-8 -4 -12 -4z" />
    <glyph glyph-name="ij" unicode="&#x133;" horiz-adv-x="575" 
d="M74 0q-11 0 -17.5 6.5t-6.5 17.5v2q0 18 21 24l21 6q16 4 22 12.5t6 25.5v269q0 24 -9.5 34t-38.5 17q-12 3 -17 8t-5 15v1q0 16 21 24l78 34q8 4 17 4q10 0 15.5 -7.5t5.5 -20.5v-378q0 -17 6 -25.5t22 -12.5l21 -6q21 -6 21 -24v-2q0 -11 -6.5 -17.5t-17.5 -6.5h-159z
M101 610.5q-17 16.5 -17 39.5t16.5 39.5t41.5 16.5t41.5 -16.5t16.5 -39.5t-16.5 -39.5t-41.5 -16.5q-24 0 -41 16.5zM309.5 -220q-9.5 6 -9.5 18q0 8 3.5 12t12.5 7q52 17 72 46.5t20 79.5v420q0 23 -9.5 33.5t-38.5 17.5q-12 3 -17 8t-5 15v1q0 16 21 24l78 34q8 4 17 4
q10 0 15.5 -7.5t5.5 -20.5v-540q0 -49 -19.5 -84.5t-52 -54.5t-70.5 -19q-14 0 -23.5 6zM389 610.5q-17 16.5 -17 39.5t16.5 39.5t41.5 16.5t41.5 -16.5t16.5 -39.5t-16.5 -39.5t-41.5 -16.5q-24 0 -41 16.5z" />
    <glyph glyph-name="Jcircumflex" unicode="&#x134;" horiz-adv-x="316" 
d="M51 -164q-11 0 -20 14l-2 3q-5 8 -5 14q0 10 16 22q45 31 64.5 64t19.5 78v568q0 16 -6 24t-21 13l-31 11q-10 4 -15 10t-5 17v2q0 11 6.5 17.5t17.5 6.5h180q11 0 17.5 -6.5t6.5 -17.5v-2q0 -11 -5 -17t-15 -10l-31 -11q-15 -5 -21 -13t-6 -24v-558q0 -53 -13 -87
t-41 -59.5t-79 -54.5q-8 -4 -12 -4zM45 770q-8 -5 -14 -5q-9 0 -15 9l-2 3q-5 8 -5 14q0 7 9 16l104 97q8 7 15 10.5t16 3.5h14q9 0 16 -3.5t15 -10.5l104 -97q9 -9 9 -16q0 -6 -5 -14l-2 -3q-6 -9 -15 -9q-6 0 -14 5l-107 64q-3 2 -8 2t-8 -2z" />
    <glyph glyph-name="jcircumflex" unicode="&#x135;" horiz-adv-x="281" 
d="M15.5 -220q-9.5 6 -9.5 18q0 8 3.5 12t12.5 7q52 17 72 46.5t20 79.5v420q0 23 -9.5 33.5t-38.5 17.5q-12 3 -17 8t-5 15v1q0 16 21 24l78 34q8 4 17 4q10 0 15.5 -7.5t5.5 -20.5v-540q0 -49 -19.5 -84.5t-52 -54.5t-70.5 -19q-14 0 -23.5 6zM34 563q-8 -7 -16 -7t-15 7
l-1 1q-8 10 -8 16q0 7 7 16l100 116q6 8 12 11t16 3h14q10 0 16 -3t12 -11l100 -116q7 -7 7 -16q0 -8 -8 -16l-1 -1q-7 -7 -15 -7t-16 7l-94 79q-3 3 -8 3q-4 0 -8 -3z" />
    <glyph glyph-name="uni0136" unicode="&#x136;" horiz-adv-x="673" 
d="M76 0q-11 0 -17.5 6.5t-6.5 17.5v2q0 11 5 17t15 10l31 11q15 5 21 13t6 24v498q0 16 -6 24t-21 13l-31 11q-10 4 -15 10t-5 17v2q0 11 6.5 17.5t17.5 6.5h180q11 0 17.5 -6.5t6.5 -17.5v-2q0 -11 -5 -17t-15 -10l-31 -11q-15 -5 -21 -13t-6 -24v-239q0 -11 7 -11
q3 0 8 5l247 264q5 5 5 11q0 8 -10 12l-24 11q-16 7 -16 22v2q0 11 6.5 17.5t17.5 6.5h183q24 0 24 -24v-2q0 -10 -3.5 -15t-12.5 -9l-34 -13q-31 -12 -49 -24t-39 -35l-146 -154q-4 -4 -4 -9q0 -2 2 -8l163 -272q17 -28 36.5 -44.5t43.5 -26.5l36 -14q20 -7 20 -24v-2
q0 -11 -6.5 -17.5t-17.5 -6.5h-98q-20 0 -29 16l-198 332q-3 6 -9 6q-4 0 -8 -4l-89 -95q-6 -7 -6 -15v-139q0 -16 6 -24t21 -13l31 -11q10 -4 15 -10t5 -17v-2q0 -11 -6.5 -17.5t-17.5 -6.5h-180zM324 -249q-14 0 -19 13q-2 6 -2 8q0 10 13 17q30 14 43 25t13 25
q0 10 -8 10l-12 -1q-18 0 -32 14.5t-14 36.5q0 23 16.5 39t40.5 16q27 0 46 -20t19 -54q0 -54 -24.5 -84t-68.5 -43q-8 -2 -11 -2z" />
    <glyph glyph-name="uni0137" unicode="&#x137;" horiz-adv-x="551" 
d="M62 0q-11 0 -18 6.5t-7 18.5v1q0 18 21 24l21 6q15 4 21.5 13t6.5 25v518q0 22 -9 34t-39 19q-13 3 -17.5 8t-4.5 14v1q0 9 4.5 13.5t15.5 9.5l79 35q8 4 16 4q22 0 22 -28v-448q0 -5 2.5 -8t6.5 -3t8 4l160 147q6 5 6 11q0 7 -9 10l-24 9q-15 5 -15 20v2q0 11 7 17.5
t18 6.5h168q24 0 24 -24v-2q0 -10 -3.5 -15.5t-12.5 -8.5l-35 -11q-24 -7 -46 -23.5t-47 -38.5l-69 -62q-4 -4 -4 -8q0 -3 3 -8l116 -169q23 -34 34.5 -45t31.5 -17l25 -7q22 -6 22 -25v-1q0 -12 -7 -18.5t-18 -6.5h-68q-17 0 -29 16l-156 226q-4 6 -9 6t-9 -4l-64 -58
q-7 -7 -7 -16v-76q0 -15 6 -24.5t22 -13.5l22 -6q20 -6 20 -24v-1q0 -11 -6.5 -18t-17.5 -7h-158zM273 -249q-14 0 -19 13q-2 6 -2 8q0 10 13 17q30 14 43 25t13 25q0 10 -8 10l-12 -1q-18 0 -32 14.5t-14 36.5q0 23 16.5 39t40.5 16q27 0 46 -20t19 -54q0 -54 -24.5 -84
t-68.5 -43q-8 -2 -11 -2z" />
    <glyph glyph-name="kgreenlandic" unicode="&#x138;" horiz-adv-x="564" 
d="M75 0q-11 0 -18 6.5t-7 18.5v1q0 18 21 24l21 6q15 4 21.5 13t6.5 25v268q0 24 -9.5 34.5t-38.5 17.5q-12 3 -17 8t-5 15v1q0 16 21 24l78 34q8 4 17 4q10 0 15.5 -7.5t5.5 -20.5v-198q0 -5 2.5 -8t6.5 -3t8 4l160 147q6 5 6 11q0 7 -9 10l-24 9q-15 5 -15 20v2
q0 11 7 17.5t18 6.5h168q24 0 24 -24v-2q0 -10 -3.5 -15.5t-12.5 -8.5l-35 -11q-24 -7 -46 -23.5t-47 -38.5l-69 -62q-4 -4 -4 -8q0 -3 3 -8l116 -169q23 -34 34.5 -45t31.5 -17l25 -7q22 -6 22 -25v-1q0 -12 -7 -18.5t-18 -6.5h-68q-17 0 -29 16l-156 226q-4 6 -9 6t-9 -4
l-64 -58q-7 -7 -7 -16v-76q0 -15 6 -24.5t22 -13.5l22 -6q20 -6 20 -24v-1q0 -11 -6.5 -18t-17.5 -7h-158z" />
    <glyph glyph-name="Lacute" unicode="&#x139;" horiz-adv-x="592" 
d="M493 -18q-11 0 -27 8q-10 5 -16.5 7.5t-16.5 2.5h-357q-11 0 -17.5 6.5t-6.5 17.5v2q0 11 5 17t15 10l31 11q15 5 21 13t6 24v498q0 16 -6 24t-21 13l-31 11q-10 4 -15 10t-5 17v2q0 11 6.5 17.5t17.5 6.5h180q11 0 17.5 -6.5t6.5 -17.5v-2q0 -11 -5 -17t-15 -10l-31 -11
q-15 -5 -21 -13t-6 -24v-502q0 -20 17.5 -30.5t48.5 -10.5q76 0 121.5 10.5t77 37t62.5 77.5q9 13 20 13q8 0 15 -4l4 -2q14 -7 14 -20q0 -5 -2 -11l-54 -154q-8 -21 -30 -21h-3zM105 768q-6 -3 -12 -3q-12 0 -18 12l-3 5q-4 7 -4 13q0 11 11 17l153 106q7 6 15 6
q9 0 17 -12l21 -37q4 -8 4 -12q0 -10 -13 -17z" />
    <glyph glyph-name="lacute" unicode="&#x13a;" horiz-adv-x="281" 
d="M62 0q-11 0 -18 6.5t-7 18.5v1q0 18 21 24l21 6q15 4 21.5 13t6.5 25v518q0 22 -9 34t-39 19q-13 3 -17.5 8t-4.5 14v1q0 9 4.5 13.5t15.5 9.5l79 35q8 4 16 4q22 0 22 -28v-628q0 -15 6 -24.5t22 -13.5l22 -6q20 -6 20 -24v-1q0 -11 -6.5 -18t-17.5 -7h-158zM94 810
q-7 -7 -16 -7q-8 0 -15 7l-4 4q-8 8 -8 16t6 15l118 144q7 10 17 10q8 0 15 -7l31 -30q7 -6 7 -14q0 -9 -8 -16z" />
    <glyph glyph-name="uni013B" unicode="&#x13b;" horiz-adv-x="592" 
d="M493 -18q-11 0 -27 8q-10 5 -16.5 7.5t-16.5 2.5h-357q-11 0 -17.5 6.5t-6.5 17.5v2q0 11 5 17t15 10l31 11q15 5 21 13t6 24v498q0 16 -6 24t-21 13l-31 11q-10 4 -15 10t-5 17v2q0 11 6.5 17.5t17.5 6.5h180q11 0 17.5 -6.5t6.5 -17.5v-2q0 -11 -5 -17t-15 -10l-31 -11
q-15 -5 -21 -13t-6 -24v-502q0 -20 17.5 -30.5t48.5 -10.5q76 0 121.5 10.5t77 37t62.5 77.5q9 13 20 13q8 0 15 -4l4 -2q14 -7 14 -20q0 -5 -2 -11l-54 -154q-8 -21 -30 -21h-3zM266 -249q-14 0 -19 13q-2 6 -2 8q0 10 13 17q30 14 43 25t13 25q0 10 -8 10l-12 -1
q-18 0 -32 14.5t-14 36.5q0 23 16.5 39t40.5 16q27 0 46 -20t19 -54q0 -54 -24.5 -84t-68.5 -43q-8 -2 -11 -2z" />
    <glyph glyph-name="uni013C" unicode="&#x13c;" horiz-adv-x="281" 
d="M62 0q-11 0 -18 6.5t-7 18.5v1q0 18 21 24l21 6q15 4 21.5 13t6.5 25v518q0 22 -9 34t-39 19q-13 3 -17.5 8t-4.5 14v1q0 9 4.5 13.5t15.5 9.5l79 35q8 4 16 4q22 0 22 -28v-628q0 -15 6 -24.5t22 -13.5l22 -6q20 -6 20 -24v-1q0 -11 -6.5 -18t-17.5 -7h-158zM99 -249
q-14 0 -19 13q-2 6 -2 8q0 10 13 17q30 14 43 25t13 25q0 10 -8 10l-12 -1q-18 0 -32 14.5t-14 36.5q0 23 16.5 39t40.5 16q27 0 46 -20t19 -54q0 -54 -24.5 -84t-68.5 -43q-8 -2 -11 -2z" />
    <glyph glyph-name="Lcaron" unicode="&#x13d;" horiz-adv-x="592" 
d="M493 -18q-11 0 -27 8q-10 5 -16.5 7.5t-16.5 2.5h-357q-11 0 -17.5 6.5t-6.5 17.5v2q0 11 5 17t15 10l31 11q15 5 21 13t6 24v498q0 16 -6 24t-21 13l-31 11q-10 4 -15 10t-5 17v2q0 11 6.5 17.5t17.5 6.5h180q11 0 17.5 -6.5t6.5 -17.5v-2q0 -11 -5 -17t-15 -10l-31 -11
q-15 -5 -21 -13t-6 -24v-502q0 -20 17.5 -30.5t48.5 -10.5q76 0 121.5 10.5t77 37t62.5 77.5q9 13 20 13q8 0 15 -4l4 -2q14 -7 14 -20q0 -5 -2 -11l-54 -154q-8 -21 -30 -21h-3zM450 502q-11 3 -14.5 9t-1.5 16l29 162q3 19 19 19q6 0 9 -1l36 -9q16 -3 16 -17q0 -2 -2 -10
l-59 -155q-5 -16 -20 -16q-5 0 -8 1z" />
    <glyph glyph-name="lcaron" unicode="&#x13e;" horiz-adv-x="288" 
d="M62 0q-11 0 -18 6.5t-7 18.5v1q0 18 21 24l21 6q15 4 21.5 13t6.5 25v518q0 22 -9 34t-39 19q-13 3 -17.5 8t-4.5 14v1q0 9 4.5 13.5t15.5 9.5l79 35q8 4 16 4q22 0 22 -28v-628q0 -15 6 -24.5t22 -13.5l22 -6q20 -6 20 -24v-1q0 -11 -6.5 -18t-17.5 -7h-158zM241 542
q-11 3 -14.5 9t-1.5 16l29 162q3 19 19 19q6 0 9 -1l36 -9q16 -3 16 -17q0 -2 -2 -10l-59 -155q-5 -16 -20 -16q-5 0 -8 1z" />
    <glyph glyph-name="Ldot" unicode="&#x13f;" horiz-adv-x="592" 
d="M493 -18q-11 0 -27 8q-10 5 -16.5 7.5t-16.5 2.5h-357q-11 0 -17.5 6.5t-6.5 17.5v2q0 11 5 17t15 10l31 11q15 5 21 13t6 24v498q0 16 -6 24t-21 13l-31 11q-10 4 -15 10t-5 17v2q0 11 6.5 17.5t17.5 6.5h180q11 0 17.5 -6.5t6.5 -17.5v-2q0 -11 -5 -17t-15 -10l-31 -11
q-15 -5 -21 -13t-6 -24v-502q0 -20 17.5 -30.5t48.5 -10.5q76 0 121.5 10.5t77 37t62.5 77.5q9 13 20 13q8 0 15 -4l4 -2q14 -7 14 -20q0 -5 -2 -11l-54 -154q-8 -21 -30 -21h-3zM427 352.5q-17 16.5 -17 41.5t17 41.5t43 16.5t43 -16.5t17 -41.5t-17 -41.5t-43 -16.5
t-43 16.5z" />
    <glyph glyph-name="ldot" unicode="&#x140;" horiz-adv-x="385" 
d="M62 0q-11 0 -18 6.5t-7 18.5v1q0 18 21 24l21 6q15 4 21.5 13t6.5 25v518q0 22 -9 34t-39 19q-13 3 -17.5 8t-4.5 14v1q0 9 4.5 13.5t15.5 9.5l79 35q8 4 16 4q22 0 22 -28v-628q0 -15 6 -24.5t22 -13.5l22 -6q20 -6 20 -24v-1q0 -11 -6.5 -18t-17.5 -7h-158zM288 322.5
q-17 16.5 -17 41.5t17 41.5t43 16.5t43 -16.5t17 -41.5t-17 -41.5t-43 -16.5t-43 16.5z" />
    <glyph glyph-name="Lslash" unicode="&#x141;" horiz-adv-x="598" 
d="M499 -18q-11 0 -27 8q-10 5 -16.5 7.5t-16.5 2.5h-357q-11 0 -17.5 6.5t-6.5 17.5v2q0 11 5 17t15 10l31 11q15 5 21 13t6 24v150q0 7 -4 9.5t-10 -0.5l-35 -16q-7 -3 -13 -3q-14 0 -20 15l-3 7q-2 4 -2 11q0 15 15 21l63 30q9 5 9 14v260q0 16 -6 24t-21 13l-31 11
q-10 4 -15 10t-5 17v2q0 11 6.5 17.5t17.5 6.5h180q11 0 17.5 -6.5t6.5 -17.5v-2q0 -11 -5 -17t-15 -10l-31 -11q-15 -5 -21 -13t-6 -24v-221q0 -7 4 -9.5t10 0.5l143 67q8 3 13 3q14 0 20 -15l3 -7q2 -4 2 -11q0 -15 -15 -21l-171 -80q-9 -4 -9 -14v-194q0 -20 17.5 -30.5
t48.5 -10.5q76 0 121.5 10.5t77 37t62.5 77.5q9 13 20 13q8 0 15 -4l4 -2q14 -7 14 -20q0 -5 -2 -11l-54 -154q-8 -21 -30 -21h-3z" />
    <glyph glyph-name="lslash" unicode="&#x142;" horiz-adv-x="297" 
d="M70 0q-11 0 -18 6.5t-7 18.5v1q0 18 21 24l21 6q15 4 21.5 13t6.5 25v215q0 7 -4 9.5t-10 -0.5l-35 -16q-8 -3 -12 -3q-12 0 -20 15l-3 6q-3 6 -3 12q0 14 15 20l63 30q9 5 9 14v216q0 22 -9 34t-39 19q-13 3 -17.5 8t-4.5 14v1q0 9 4.5 13.5t15.5 9.5l79 35q8 4 16 4
q22 0 22 -28v-289q0 -7 4 -9.5t10 0.5l35 16q7 3 12 3q13 0 20 -15l3 -6q3 -6 3 -12q0 -14 -15 -20l-63 -30q-9 -4 -9 -14v-252q0 -15 6 -24.5t22 -13.5l22 -6q20 -6 20 -24v-1q0 -11 -6.5 -18t-17.5 -7h-158z" />
    <glyph glyph-name="Nacute" unicode="&#x143;" horiz-adv-x="772" 
d="M74 0q-11 0 -17.5 6.5t-6.5 17.5v2q0 20 20 26l31 10q15 5 21 13t6 24v502q0 16 -6 24t-21 13l-31 10q-20 6 -20 26v2q0 11 6.5 17.5t17.5 6.5h90q19 0 36 -17l364 -398q5 -5 8 -5q7 0 7 11v310q0 16 -6 24t-21 13l-31 10q-20 6 -20 26v2q0 11 6.5 17.5t17.5 6.5h173
q11 0 17.5 -6.5t6.5 -17.5v-2q0 -20 -20 -26l-31 -10q-15 -5 -21 -13t-6 -24v-502q0 -16 6 -24t21 -13l31 -10q20 -6 20 -26v-2q0 -11 -6.5 -17.5t-17.5 -6.5h-173q-11 0 -17.5 6.5t-6.5 17.5v2q0 20 20 26l31 10q15 5 21 13t6 24v38q0 21 -15 37l-355 385q-5 5 -8 5
q-7 0 -7 -11v-454q0 -16 6 -24t21 -13l31 -10q20 -6 20 -26v-2q0 -11 -6.5 -17.5t-17.5 -6.5h-174zM325 768q-6 -3 -12 -3q-12 0 -18 12l-3 5q-4 7 -4 13q0 11 11 17l153 106q7 6 15 6q9 0 17 -12l21 -37q4 -8 4 -12q0 -10 -13 -17z" />
    <glyph glyph-name="nacute" unicode="&#x144;" horiz-adv-x="601" 
d="M74 0q-11 0 -17.5 6.5t-6.5 17.5v2q0 18 21 24l21 6q16 4 22 12.5t6 25.5v271q0 24 -9.5 34t-38.5 17q-12 3 -17 8t-5 15v1q0 16 21 24l74 32q8 4 17 4q10 0 15.5 -7.5t5.5 -20.5v-24q0 -7 5 -9.5t11 1.5l14 9q80 51 159 51q61 0 93 -36t32 -103v-267q0 -17 6 -25.5
t22 -12.5l21 -6q21 -6 21 -24v-2q0 -11 -6.5 -17.5t-17.5 -6.5h-91q-11 0 -17.5 6.5t-6.5 17.5v317q0 51 -15.5 74t-56.5 23q-39 0 -78.5 -12.5t-66.5 -28.5q-14 -8 -19 -17t-5 -24v-262q0 -17 6 -25.5t22 -12.5l21 -6q21 -6 21 -24v-2q0 -11 -6.5 -17.5t-17.5 -6.5h-159z
M273 560q-7 -7 -16 -7q-8 0 -15 7l-4 4q-8 8 -8 16t6 15l118 144q7 10 17 10q8 0 15 -7l31 -30q7 -6 7 -14q0 -9 -8 -16z" />
    <glyph glyph-name="uni0145" unicode="&#x145;" horiz-adv-x="772" 
d="M74 0q-11 0 -17.5 6.5t-6.5 17.5v2q0 20 20 26l31 10q15 5 21 13t6 24v502q0 16 -6 24t-21 13l-31 10q-20 6 -20 26v2q0 11 6.5 17.5t17.5 6.5h90q19 0 36 -17l364 -398q5 -5 8 -5q7 0 7 11v310q0 16 -6 24t-21 13l-31 10q-20 6 -20 26v2q0 11 6.5 17.5t17.5 6.5h173
q11 0 17.5 -6.5t6.5 -17.5v-2q0 -20 -20 -26l-31 -10q-15 -5 -21 -13t-6 -24v-502q0 -16 6 -24t21 -13l31 -10q20 -6 20 -26v-2q0 -11 -6.5 -17.5t-17.5 -6.5h-173q-11 0 -17.5 6.5t-6.5 17.5v2q0 20 20 26l31 10q15 5 21 13t6 24v38q0 21 -15 37l-355 385q-5 5 -8 5
q-7 0 -7 -11v-454q0 -16 6 -24t21 -13l31 -10q20 -6 20 -26v-2q0 -11 -6.5 -17.5t-17.5 -6.5h-174zM344 -249q-14 0 -19 13q-2 6 -2 8q0 10 13 17q30 14 43 25t13 25q0 10 -8 10l-12 -1q-18 0 -32 14.5t-14 36.5q0 23 16.5 39t40.5 16q27 0 46 -20t19 -54q0 -54 -24.5 -84
t-68.5 -43q-8 -2 -11 -2z" />
    <glyph glyph-name="uni0146" unicode="&#x146;" horiz-adv-x="601" 
d="M74 0q-11 0 -17.5 6.5t-6.5 17.5v2q0 18 21 24l21 6q16 4 22 12.5t6 25.5v271q0 24 -9.5 34t-38.5 17q-12 3 -17 8t-5 15v1q0 16 21 24l74 32q8 4 17 4q10 0 15.5 -7.5t5.5 -20.5v-24q0 -7 5 -9.5t11 1.5l14 9q80 51 159 51q61 0 93 -36t32 -103v-267q0 -17 6 -25.5
t22 -12.5l21 -6q21 -6 21 -24v-2q0 -11 -6.5 -17.5t-17.5 -6.5h-91q-11 0 -17.5 6.5t-6.5 17.5v317q0 51 -15.5 74t-56.5 23q-39 0 -78.5 -12.5t-66.5 -28.5q-14 -8 -19 -17t-5 -24v-262q0 -17 6 -25.5t22 -12.5l21 -6q21 -6 21 -24v-2q0 -11 -6.5 -17.5t-17.5 -6.5h-159z
M266 -249q-14 0 -19 13q-2 6 -2 8q0 10 13 17q30 14 43 25t13 25q0 10 -8 10l-12 -1q-18 0 -32 14.5t-14 36.5q0 23 16.5 39t40.5 16q27 0 46 -20t19 -54q0 -54 -24.5 -84t-68.5 -43q-8 -2 -11 -2z" />
    <glyph glyph-name="Ncaron" unicode="&#x147;" horiz-adv-x="772" 
d="M74 0q-11 0 -17.5 6.5t-6.5 17.5v2q0 20 20 26l31 10q15 5 21 13t6 24v502q0 16 -6 24t-21 13l-31 10q-20 6 -20 26v2q0 11 6.5 17.5t17.5 6.5h90q19 0 36 -17l364 -398q5 -5 8 -5q7 0 7 11v310q0 16 -6 24t-21 13l-31 10q-20 6 -20 26v2q0 11 6.5 17.5t17.5 6.5h173
q11 0 17.5 -6.5t6.5 -17.5v-2q0 -20 -20 -26l-31 -10q-15 -5 -21 -13t-6 -24v-502q0 -16 6 -24t21 -13l31 -10q20 -6 20 -26v-2q0 -11 -6.5 -17.5t-17.5 -6.5h-173q-11 0 -17.5 6.5t-6.5 17.5v2q0 20 20 26l31 10q15 5 21 13t6 24v38q0 21 -15 37l-355 385q-5 5 -8 5
q-7 0 -7 -11v-454q0 -16 6 -24t21 -13l31 -10q20 -6 20 -26v-2q0 -11 -6.5 -17.5t-17.5 -6.5h-174zM379 769q-9 0 -16 3.5t-15 10.5l-104 97q-9 9 -9 16q0 6 5 14l2 3q6 9 15 9q6 0 14 -5l107 -64q6 -2 8 -2l8 2l107 64q8 5 14 5q9 0 15 -9l2 -3q5 -8 5 -14q0 -7 -9 -16
l-104 -97q-8 -7 -15 -10.5t-16 -3.5h-14z" />
    <glyph glyph-name="ncaron" unicode="&#x148;" horiz-adv-x="601" 
d="M74 0q-11 0 -17.5 6.5t-6.5 17.5v2q0 18 21 24l21 6q16 4 22 12.5t6 25.5v271q0 24 -9.5 34t-38.5 17q-12 3 -17 8t-5 15v1q0 16 21 24l74 32q8 4 17 4q10 0 15.5 -7.5t5.5 -20.5v-24q0 -7 5 -9.5t11 1.5l14 9q80 51 159 51q61 0 93 -36t32 -103v-267q0 -17 6 -25.5
t22 -12.5l21 -6q21 -6 21 -24v-2q0 -11 -6.5 -17.5t-17.5 -6.5h-91q-11 0 -17.5 6.5t-6.5 17.5v317q0 51 -15.5 74t-56.5 23q-39 0 -78.5 -12.5t-66.5 -28.5q-14 -8 -19 -17t-5 -24v-262q0 -17 6 -25.5t22 -12.5l21 -6q21 -6 21 -24v-2q0 -11 -6.5 -17.5t-17.5 -6.5h-159z
M301 560q-10 0 -16 3t-12 11l-100 116q-7 11 -7 16q0 8 8 16l1 1q7 7 15 7t16 -7l94 -79q4 -3 8 -3q5 0 8 3l94 79q8 7 16 7t15 -7l1 -1q8 -7 8 -16q0 -8 -7 -16l-100 -116q-6 -8 -12 -11t-16 -3h-14z" />
    <glyph glyph-name="Eng" unicode="&#x14a;" horiz-adv-x="764" 
d="M481.5 -220q-9.5 6 -9.5 18q0 8 3.5 12t12.5 7q52 17 71.5 46t19.5 80v147q0 19 -15 37l-355 429q-5 5 -8 5q-7 0 -7 -11v-451q0 -16 6 -24t21 -13l31 -10q20 -6 20 -26v-2q0 -11 -6.5 -17.5t-17.5 -6.5h-174q-11 0 -17.5 6.5t-6.5 17.5v2q0 20 20 26l31 10q15 5 21 13
t6 24v502q0 16 -6 24t-21 13l-31 10q-20 6 -20 26v2q0 11 6.5 17.5t17.5 6.5h90q24 0 37 -15l363 -440q5 -5 8 -5q7 0 7 11v350q0 16 -6 24t-21 13l-31 10q-20 6 -20 26v2q0 11 6.5 17.5t17.5 6.5h173q11 0 17.5 -6.5t6.5 -17.5v-2q0 -20 -20 -26l-31 -10q-15 -5 -21 -13
t-6 -24v-663q0 -52 -19 -89t-50.5 -56t-69.5 -19q-14 0 -23.5 6z" />
    <glyph glyph-name="eng" unicode="&#x14b;" horiz-adv-x="597" 
d="M330.5 -220q-9.5 6 -9.5 18q0 8 3.5 12t12.5 7q52 17 71.5 46t19.5 80v398q0 51 -15.5 74t-56.5 23q-39 0 -78.5 -12.5t-66.5 -28.5q-14 -8 -19 -17t-5 -24v-262q0 -17 6 -25.5t22 -12.5l21 -6q21 -6 21 -24v-2q0 -11 -6.5 -17.5t-17.5 -6.5h-159q-11 0 -17.5 6.5
t-6.5 17.5v2q0 18 21 24l21 6q16 4 22 12.5t6 25.5v271q0 24 -9.5 34t-38.5 17q-12 3 -17 8t-5 15v1q0 16 21 24l74 32q8 4 17 4q10 0 15.5 -7.5t5.5 -20.5v-24q0 -7 5 -9.5t11 1.5l14 9q80 51 159 51q61 0 93 -36t32 -103v-427q0 -50 -20 -86t-52.5 -55t-70.5 -19
q-14 0 -23.5 6z" />
    <glyph glyph-name="Omacron" unicode="&#x14c;" horiz-adv-x="770" 
d="M214.5 35.5q-76.5 45.5 -120.5 127.5t-44 187t44 187t120.5 127.5t170.5 45.5t170.5 -45.5t120.5 -127.5t44 -187t-44 -187t-120.5 -127.5t-170.5 -45.5t-170.5 45.5zM528 92.5q54 32.5 83.5 92.5t29.5 138q0 85 -31.5 157.5t-93.5 116t-148 43.5q-67 0 -121.5 -30.5
t-86 -89.5t-31.5 -142q0 -86 31.5 -158.5t93.5 -116t148 -43.5q72 0 126 32.5zM272 788q-11 0 -17.5 6.5t-6.5 17.5v12q0 11 6.5 17.5t17.5 6.5h226q11 0 17.5 -6.5t6.5 -17.5v-12q0 -11 -6.5 -17.5t-17.5 -6.5h-226z" />
    <glyph glyph-name="omacron" unicode="&#x14d;" horiz-adv-x="564" 
d="M163.5 22q-53.5 32 -84.5 90.5t-31 132.5t31 132.5t84.5 90.5t118.5 32t118.5 -32t84.5 -90.5t31 -132.5t-31 -132.5t-84.5 -90.5t-118.5 -32t-118.5 32zM404 102.5q42 46.5 42 127.5q0 88 -45.5 146t-130.5 58q-68 0 -110 -46t-42 -127q0 -88 46 -146.5t130 -58.5
q68 0 110 46.5zM169 595q-11 0 -17.5 6.5t-6.5 17.5v12q0 11 6.5 17.5t17.5 6.5h226q11 0 17.5 -6.5t6.5 -17.5v-12q0 -11 -6.5 -17.5t-17.5 -6.5h-226z" />
    <glyph glyph-name="Obreve" unicode="&#x14e;" horiz-adv-x="770" 
d="M214.5 35.5q-76.5 45.5 -120.5 127.5t-44 187t44 187t120.5 127.5t170.5 45.5t170.5 -45.5t120.5 -127.5t44 -187t-44 -187t-120.5 -127.5t-170.5 -45.5t-170.5 45.5zM528 92.5q54 32.5 83.5 92.5t29.5 138q0 85 -31.5 157.5t-93.5 116t-148 43.5q-67 0 -121.5 -30.5
t-86 -89.5t-31.5 -142q0 -86 31.5 -158.5t93.5 -116t148 -43.5q72 0 126 32.5zM290.5 802q-35.5 28 -39.5 79q-1 12 4 19.5t16 8.5h3q13 0 19 -18q6 -22 29 -35t63 -13t63 13t29 35q6 18 19 18q12 0 18 -7.5t5 -20.5q-4 -51 -39.5 -79t-94.5 -28t-94.5 28z" />
    <glyph glyph-name="obreve" unicode="&#x14f;" horiz-adv-x="564" 
d="M163.5 22q-53.5 32 -84.5 90.5t-31 132.5t31 132.5t84.5 90.5t118.5 32t118.5 -32t84.5 -90.5t31 -132.5t-31 -132.5t-84.5 -90.5t-118.5 -32t-118.5 32zM404 102.5q42 46.5 42 127.5q0 88 -45.5 146t-130.5 58q-68 0 -110 -46t-42 -127q0 -88 46 -146.5t130 -58.5
q68 0 110 46.5zM191.5 599.5q-35.5 30.5 -39.5 89.5q-1 12 4 19.5t16 8.5h3q15 0 19 -18q13 -61 88 -61t88 61q4 18 19 18q12 0 18 -7.5t5 -20.5q-4 -59 -39.5 -89.5t-90.5 -30.5t-90.5 30.5z" />
    <glyph glyph-name="Ohungarumlaut" unicode="&#x150;" horiz-adv-x="770" 
d="M214.5 35.5q-76.5 45.5 -120.5 127.5t-44 187t44 187t120.5 127.5t170.5 45.5t170.5 -45.5t120.5 -127.5t44 -187t-44 -187t-120.5 -127.5t-170.5 -45.5t-170.5 45.5zM528 92.5q54 32.5 83.5 92.5t29.5 138q0 85 -31.5 157.5t-93.5 116t-148 43.5q-67 0 -121.5 -30.5
t-86 -89.5t-31.5 -142q0 -86 31.5 -158.5t93.5 -116t148 -43.5q72 0 126 32.5zM291 767q-7 -6 -16 -6q-10 0 -17 7l-3 3q-8 8 -8 16q0 6 7 15l110 127q9 10 18 10q8 0 15 -7l28 -27q7 -7 7 -15q0 -7 -8 -15zM461 767q-7 -6 -16 -6q-10 0 -17 7l-3 3q-8 8 -8 16q0 6 7 15
l110 127q9 10 18 10q8 0 15 -7l28 -27q7 -7 7 -15q0 -7 -8 -15z" />
    <glyph glyph-name="ohungarumlaut" unicode="&#x151;" horiz-adv-x="564" 
d="M163.5 22q-53.5 32 -84.5 90.5t-31 132.5t31 132.5t84.5 90.5t118.5 32t118.5 -32t84.5 -90.5t31 -132.5t-31 -132.5t-84.5 -90.5t-118.5 -32t-118.5 32zM404 102.5q42 46.5 42 127.5q0 88 -45.5 146t-130.5 58q-68 0 -110 -46t-42 -127q0 -88 46 -146.5t130 -58.5
q68 0 110 46.5zM155 563q-10 7 -10 17q0 3 4 13l81 143q9 14 18 14q5 0 13 -5l34 -23q10 -8 10 -16q0 -6 -6 -14l-109 -127q-7 -9 -17 -9q-7 0 -15 5zM321 563q-10 7 -10 17q0 3 4 13l81 143q9 14 18 14q5 0 13 -5l34 -23q10 -8 10 -16q0 -6 -6 -14l-109 -127q-7 -9 -17 -9
q-7 0 -15 5z" />
    <glyph glyph-name="OE" unicode="&#x152;" horiz-adv-x="1006" 
d="M889 -18q-11 0 -27 8q-10 5 -16.5 7.5t-16.5 2.5h-429q-103 0 -182.5 42t-123.5 121t-44 187q0 105 42 184t127.5 122.5t210.5 43.5h358q18 0 34 10q8 6 13.5 8t13.5 2h3q18 0 26 -18l62 -129q3 -6 3 -10q0 -10 -12 -18l-3 -2q-8 -5 -15 -5q-10 0 -19 10
q-39 42 -68.5 61.5t-74.5 27t-129 7.5q-35 0 -49 -10t-14 -31v-150q0 -5 3.5 -8.5t8.5 -3.5h120q25 0 40 3.5t18 4.5q14 4 20 4q9 0 13.5 -4t9.5 -15l59 -114q3 -6 3 -11q0 -10 -12 -17l-5 -3q-5 -4 -12 -4q-10 0 -19 11q-43 52 -83 70.5t-100 18.5h-52q-5 0 -8.5 -3.5
t-3.5 -8.5v-276q0 -20 17.5 -30.5t48.5 -10.5q88 0 138.5 10.5t85.5 37t76 79.5q8 11 19 11q8 0 16 -4l4 -2q14 -7 14 -20q0 -5 -2 -11l-54 -154q-8 -21 -30 -21h-3zM449 62q21 4 29.5 13.5t8.5 32.5v484q0 22 -10.5 33t-37.5 15q-24 4 -56 4q-74 0 -131.5 -32.5t-90 -92.5
t-32.5 -141q0 -91 33.5 -164t95.5 -114.5t144 -41.5q23 0 47 4z" />
    <glyph glyph-name="oe" unicode="&#x153;" horiz-adv-x="903" 
d="M163.5 22q-53.5 32 -84.5 90.5t-31 132.5t31 132.5t84.5 90.5t118.5 32q59 0 108 -26t81 -73q3 -6 8 -6q3 0 8 6q29 47 75 73t104 26q73 0 125 -40t67 -111q1 -4 1 -10q0 -15 -18 -22l-307 -114q-10 -4 -7 -15q17 -60 59 -93t108 -33q48 0 83 16t55 42q13 16 26 16
q7 0 12 -4q9 -6 9 -17q0 -8 -6 -22q-19 -42 -68.5 -72.5t-123.5 -30.5q-61 0 -111 26.5t-81 74.5q-3 6 -8 6q-3 0 -8 -6q-32 -48 -82 -74.5t-109 -26.5q-65 0 -118.5 32zM762 347q8 3 11 7t0 12q-12 36 -41 55t-67 19q-63 0 -106.5 -41.5t-43.5 -120.5q0 -8 1 -14
q2 -9 13 -5zM404 102.5q42 46.5 42 127.5q0 88 -45.5 146t-130.5 58q-68 0 -110 -46t-42 -127q0 -88 46 -146.5t130 -58.5q68 0 110 46.5z" />
    <glyph glyph-name="Racute" unicode="&#x154;" horiz-adv-x="670" 
d="M76 0q-11 0 -17.5 6.5t-6.5 17.5v2q0 11 5 17t15 10l31 11q15 5 21 13t6 24v493q0 16 -6 24t-21 13l-31 11q-10 4 -15 10t-5 17v2q0 10 6.5 16t17.5 8q97 13 182 13q152 0 232 -58t80 -158q0 -64 -39 -106.5t-114 -54.5q-8 -2 -8 -7q0 -3 3 -9l106 -184q19 -33 41.5 -49
t58.5 -26l14 -4q15 -4 19.5 -9.5t4.5 -18.5v-2q0 -22 -24 -22h-89q-21 0 -32 6.5t-18 20.5l-112 205q-32 59 -72 82t-95 23q-12 0 -12 -12v-224q0 -16 6 -24t21 -13l31 -11q10 -4 15 -10t5 -17v-2q0 -11 -6.5 -17.5t-17.5 -6.5h-180zM460 411q32 29 32 81q0 74 -58 117
t-164 43q-38 0 -53 -8.5t-15 -32.5v-203q0 -10 11 -12l61 -8q50 -6 95 -6q59 0 91 29zM258 768q-6 -3 -12 -3q-12 0 -18 12l-3 5q-4 7 -4 13q0 11 11 17l153 106q7 6 15 6q9 0 17 -12l21 -37q4 -8 4 -12q0 -10 -13 -17z" />
    <glyph glyph-name="racute" unicode="&#x155;" horiz-adv-x="391" 
d="M74 0q-11 0 -17.5 6.5t-6.5 17.5v2q0 18 21 24l21 6q16 4 22 12.5t6 25.5v271q0 24 -9.5 34t-38.5 17q-12 3 -17 8t-5 15v1q0 16 21 24l74 32q8 4 16 4q22 0 22 -28v-23q0 -5 2.5 -8t6.5 -3t11 5q27 24 62.5 39.5t68.5 15.5q35 0 32 -33l-5 -53q-3 -24 -21 -24
q-7 0 -13.5 2t-11.5 5t-8 4q-16 7 -28 11t-27 4q-33 0 -49 -17.5t-16 -54.5v-248q0 -16 6.5 -25.5t21.5 -12.5l32 -6q20 -4 20 -24v-2q0 -11 -6.5 -17.5t-17.5 -6.5h-169zM201 560q-7 -7 -16 -7q-8 0 -15 7l-4 4q-8 8 -8 16t6 15l118 144q7 10 17 10q8 0 15 -7l31 -30
q7 -6 7 -14q0 -9 -8 -16z" />
    <glyph glyph-name="uni0156" unicode="&#x156;" horiz-adv-x="670" 
d="M76 0q-11 0 -17.5 6.5t-6.5 17.5v2q0 11 5 17t15 10l31 11q15 5 21 13t6 24v493q0 16 -6 24t-21 13l-31 11q-10 4 -15 10t-5 17v2q0 10 6.5 16t17.5 8q97 13 182 13q152 0 232 -58t80 -158q0 -64 -39 -106.5t-114 -54.5q-8 -2 -8 -7q0 -3 3 -9l106 -184q19 -33 41.5 -49
t58.5 -26l14 -4q15 -4 19.5 -9.5t4.5 -18.5v-2q0 -22 -24 -22h-89q-21 0 -32 6.5t-18 20.5l-112 205q-32 59 -72 82t-95 23q-12 0 -12 -12v-224q0 -16 6 -24t21 -13l31 -11q10 -4 15 -10t5 -17v-2q0 -11 -6.5 -17.5t-17.5 -6.5h-180zM460 411q32 29 32 81q0 74 -58 117
t-164 43q-38 0 -53 -8.5t-15 -32.5v-203q0 -10 11 -12l61 -8q50 -6 95 -6q59 0 91 29zM329 -249q-14 0 -19 13q-2 6 -2 8q0 10 13 17q30 14 43 25t13 25q0 10 -8 10l-12 -1q-18 0 -32 14.5t-14 36.5q0 23 16.5 39t40.5 16q27 0 46 -20t19 -54q0 -54 -24.5 -84t-68.5 -43
q-8 -2 -11 -2z" />
    <glyph glyph-name="uni0157" unicode="&#x157;" horiz-adv-x="391" 
d="M74 0q-11 0 -17.5 6.5t-6.5 17.5v2q0 18 21 24l21 6q16 4 22 12.5t6 25.5v271q0 24 -9.5 34t-38.5 17q-12 3 -17 8t-5 15v1q0 16 21 24l74 32q8 4 16 4q22 0 22 -28v-23q0 -5 2.5 -8t6.5 -3t11 5q27 24 62.5 39.5t68.5 15.5q35 0 32 -33l-5 -53q-3 -24 -21 -24
q-7 0 -13.5 2t-11.5 5t-8 4q-16 7 -28 11t-27 4q-33 0 -49 -17.5t-16 -54.5v-248q0 -16 6.5 -25.5t21.5 -12.5l32 -6q20 -4 20 -24v-2q0 -11 -6.5 -17.5t-17.5 -6.5h-169zM112 -249q-14 0 -19 13q-2 6 -2 8q0 10 13 17q30 14 43 25t13 25q0 10 -8 10l-12 -1q-18 0 -32 14.5
t-14 36.5q0 23 16.5 39t40.5 16q27 0 46 -20t19 -54q0 -54 -24.5 -84t-68.5 -43q-8 -2 -11 -2z" />
    <glyph glyph-name="Rcaron" unicode="&#x158;" horiz-adv-x="670" 
d="M76 0q-11 0 -17.5 6.5t-6.5 17.5v2q0 11 5 17t15 10l31 11q15 5 21 13t6 24v493q0 16 -6 24t-21 13l-31 11q-10 4 -15 10t-5 17v2q0 10 6.5 16t17.5 8q97 13 182 13q152 0 232 -58t80 -158q0 -64 -39 -106.5t-114 -54.5q-8 -2 -8 -7q0 -3 3 -9l106 -184q19 -33 41.5 -49
t58.5 -26l14 -4q15 -4 19.5 -9.5t4.5 -18.5v-2q0 -22 -24 -22h-89q-21 0 -32 6.5t-18 20.5l-112 205q-32 59 -72 82t-95 23q-12 0 -12 -12v-224q0 -16 6 -24t21 -13l31 -11q10 -4 15 -10t5 -17v-2q0 -11 -6.5 -17.5t-17.5 -6.5h-180zM460 411q32 29 32 81q0 74 -58 117
t-164 43q-38 0 -53 -8.5t-15 -32.5v-203q0 -10 11 -12l61 -8q50 -6 95 -6q59 0 91 29zM312 769q-9 0 -16 3.5t-15 10.5l-104 97q-9 9 -9 16q0 6 5 14l2 3q6 9 15 9q6 0 14 -5l107 -64q6 -2 8 -2l8 2l107 64q8 5 14 5q9 0 15 -9l2 -3q5 -8 5 -14q0 -7 -9 -16l-104 -97
q-8 -7 -15 -10.5t-16 -3.5h-14z" />
    <glyph glyph-name="rcaron" unicode="&#x159;" horiz-adv-x="391" 
d="M74 0q-11 0 -17.5 6.5t-6.5 17.5v2q0 18 21 24l21 6q16 4 22 12.5t6 25.5v271q0 24 -9.5 34t-38.5 17q-12 3 -17 8t-5 15v1q0 16 21 24l74 32q8 4 16 4q22 0 22 -28v-23q0 -5 2.5 -8t6.5 -3t11 5q27 24 62.5 39.5t68.5 15.5q35 0 32 -33l-5 -53q-3 -24 -21 -24
q-7 0 -13.5 2t-11.5 5t-8 4q-16 7 -28 11t-27 4q-33 0 -49 -17.5t-16 -54.5v-248q0 -16 6.5 -25.5t21.5 -12.5l32 -6q20 -4 20 -24v-2q0 -11 -6.5 -17.5t-17.5 -6.5h-169zM229 560q-10 0 -16 3t-12 11l-100 116q-7 11 -7 16q0 8 8 16l1 1q7 7 15 7t16 -7l94 -79q4 -3 8 -3
q5 0 8 3l94 79q8 7 16 7t15 -7l1 -1q8 -7 8 -16q0 -8 -7 -16l-100 -116q-6 -8 -12 -11t-16 -3h-14z" />
    <glyph glyph-name="Sacute" unicode="&#x15a;" horiz-adv-x="633" 
d="M304 -5.5q-26 4.5 -31 5.5q-30 7 -48 7q-13 0 -38 -9q-16 -7 -28 -7h-5q-10 0 -17 6t-14 19l-79 163q-4 8 -4 16q0 15 16 23l4 2q10 5 17 5q12 0 23 -17q44 -74 111.5 -117t137.5 -43q72 0 110.5 33t38.5 91q0 55 -35.5 88.5t-107.5 57.5l-116 39q-83 28 -128 70t-45 112
q0 48 24.5 86.5t72 61.5t114.5 23q22 0 62 -7q30 -6 43 -6q18 0 35.5 6.5t23.5 6.5h4q10 0 14.5 -4.5t10.5 -16.5l72 -151q2 -6 2 -9q0 -11 -13 -20l-3 -2q-8 -5 -16 -5q-13 0 -20 10q-62 76 -110 109t-105 33q-65 0 -99.5 -29t-34.5 -79q0 -42 32.5 -70t95.5 -50l116 -39
q89 -29 140.5 -75t51.5 -132q0 -88 -60 -139t-156 -51q-33 0 -59 4.5zM228 768q-6 -3 -12 -3q-12 0 -18 12l-3 5q-4 7 -4 13q0 11 11 17l153 106q7 6 15 6q9 0 17 -12l21 -37q4 -8 4 -12q0 -10 -13 -17z" />
    <glyph glyph-name="sacute" unicode="&#x15b;" horiz-adv-x="480" 
d="M214 -3q-22 5 -35 5q-12 0 -26.5 -5.5t-20.5 -5.5q-10 0 -15 4t-10 13l-63 120q-4 7 -4 15q0 15 13 21l4 2q6 3 12 3q13 0 23 -14q73 -109 178 -109q49 0 73.5 20.5t24.5 57.5q0 32 -24 53.5t-74 36.5l-84 26q-64 20 -96 50t-32 81q0 56 42 91.5t114 35.5q17 0 43 -4
q24 -4 35 -4q13 0 26 4.5t17 4.5q7 0 10.5 -2.5t7.5 -9.5l55 -106q4 -10 4 -13q0 -12 -12 -18l-2 -1q-10 -4 -15 -4q-10 0 -20 11q-45 49 -78.5 70t-71.5 21q-44 0 -66 -18t-22 -47t22 -47t74 -34l84 -26q68 -21 101.5 -55.5t33.5 -89.5q0 -66 -46.5 -103t-118.5 -37
q-24 0 -61 7zM191 560q-7 -7 -16 -7q-8 0 -15 7l-4 4q-8 8 -8 16t6 15l118 144q7 10 17 10q8 0 15 -7l31 -30q7 -6 7 -14q0 -9 -8 -16z" />
    <glyph glyph-name="Scircumflex" unicode="&#x15c;" horiz-adv-x="633" 
d="M304 -5.5q-26 4.5 -31 5.5q-30 7 -48 7q-13 0 -38 -9q-16 -7 -28 -7h-5q-10 0 -17 6t-14 19l-79 163q-4 8 -4 16q0 15 16 23l4 2q10 5 17 5q12 0 23 -17q44 -74 111.5 -117t137.5 -43q72 0 110.5 33t38.5 91q0 55 -35.5 88.5t-107.5 57.5l-116 39q-83 28 -128 70t-45 112
q0 48 24.5 86.5t72 61.5t114.5 23q22 0 62 -7q30 -6 43 -6q18 0 35.5 6.5t23.5 6.5h4q10 0 14.5 -4.5t10.5 -16.5l72 -151q2 -6 2 -9q0 -11 -13 -20l-3 -2q-8 -5 -16 -5q-13 0 -20 10q-62 76 -110 109t-105 33q-65 0 -99.5 -29t-34.5 -79q0 -42 32.5 -70t95.5 -50l116 -39
q89 -29 140.5 -75t51.5 -132q0 -88 -60 -139t-156 -51q-33 0 -59 4.5zM174 770q-8 -5 -14 -5q-9 0 -15 9l-2 3q-5 8 -5 14q0 7 9 16l104 97q8 7 15 10.5t16 3.5h14q9 0 16 -3.5t15 -10.5l104 -97q9 -9 9 -16q0 -6 -5 -14l-2 -3q-6 -9 -15 -9q-6 0 -14 5l-107 64q-3 2 -8 2
t-8 -2z" />
    <glyph glyph-name="scircumflex" unicode="&#x15d;" horiz-adv-x="480" 
d="M214 -3q-22 5 -35 5q-12 0 -26.5 -5.5t-20.5 -5.5q-10 0 -15 4t-10 13l-63 120q-4 7 -4 15q0 15 13 21l4 2q6 3 12 3q13 0 23 -14q73 -109 178 -109q49 0 73.5 20.5t24.5 57.5q0 32 -24 53.5t-74 36.5l-84 26q-64 20 -96 50t-32 81q0 56 42 91.5t114 35.5q17 0 43 -4
q24 -4 35 -4q13 0 26 4.5t17 4.5q7 0 10.5 -2.5t7.5 -9.5l55 -106q4 -10 4 -13q0 -12 -12 -18l-2 -1q-10 -4 -15 -4q-10 0 -20 11q-45 49 -78.5 70t-71.5 21q-44 0 -66 -18t-22 -47t22 -47t74 -34l84 -26q68 -21 101.5 -55.5t33.5 -89.5q0 -66 -46.5 -103t-118.5 -37
q-24 0 -61 7zM124 563q-8 -7 -16 -7t-15 7l-1 1q-8 10 -8 16q0 7 7 16l100 116q6 8 12 11t16 3h14q10 0 16 -3t12 -11l100 -116q7 -7 7 -16q0 -8 -8 -16l-1 -1q-7 -7 -15 -7t-16 7l-94 79q-3 3 -8 3q-4 0 -8 -3z" />
    <glyph glyph-name="Scedilla" unicode="&#x15e;" horiz-adv-x="633" 
d="M288.5 -194q-24.5 11 -36.5 26q-7 10 -7 17q0 8 6 14q5 5 12 5q9 0 16 -6q27 -21 55 -21q19 0 28 9.5t9 25.5q0 15 -8 24.5t-26 16.5l-19 7q-9 3 -12.5 6.5t-3.5 10.5q0 3 2 11l10 28q1 2 1 5q0 8 -10 10l-30 5q-31 7 -50 7q-13 0 -38 -9q-16 -7 -28 -7h-5q-10 0 -17 6
t-14 19l-79 163q-4 8 -4 16q0 15 16 23l4 2q10 5 17 5q12 0 23 -17q44 -74 111.5 -117t137.5 -43q72 0 110.5 33t38.5 91q0 55 -35.5 88.5t-107.5 57.5l-116 39q-84 28 -128.5 68.5t-44.5 113.5q0 48 24.5 86.5t72 61.5t114.5 23q22 0 62 -7q30 -6 43 -6q18 0 35.5 6.5
t23.5 6.5h4q10 0 14.5 -4.5t10.5 -16.5l72 -151q2 -6 2 -9q0 -11 -13 -20l-3 -2q-8 -5 -16 -5q-13 0 -20 10q-62 76 -110 109t-105 33q-65 0 -99.5 -29t-34.5 -79q0 -42 32.5 -70t95.5 -50l116 -39q88 -29 140 -75t52 -132q0 -85 -54.5 -133.5t-146.5 -56.5q-8 -1 -11 -3
t-5 -7l-4 -12l-1 -4q0 -5 9 -8l7 -3q32 -14 47.5 -32.5t15.5 -46.5q0 -36 -25 -57.5t-69 -21.5q-29 0 -53.5 11z" />
    <glyph glyph-name="scedilla" unicode="&#x15f;" horiz-adv-x="480" 
d="M200.5 -194q-24.5 11 -36.5 26q-7 10 -7 17q0 8 6 14q5 5 12 5q9 0 16 -6q27 -21 55 -21q19 0 28 9.5t9 25.5q0 15 -8 24.5t-26 16.5l-19 7q-9 3 -12.5 6.5t-3.5 10.5q0 3 2 11l10 30l1 5q0 6 -9 9q-28 6 -39 6q-12 0 -26.5 -5.5t-20.5 -5.5q-10 0 -15 4t-10 13l-63 120
q-4 7 -4 15q0 15 13 21l4 2q6 3 12 3q13 0 23 -14q73 -109 178 -109q49 0 73.5 20.5t24.5 57.5q0 32 -24 53.5t-74 36.5l-84 26q-64 20 -96 50t-32 81q0 56 42 91.5t114 35.5q17 0 43 -4q24 -4 35 -4q13 0 26 4.5t17 4.5q7 0 10.5 -2.5t7.5 -9.5l55 -106q4 -10 4 -13
q0 -12 -12 -18l-2 -1q-10 -4 -15 -4q-10 0 -20 11q-45 49 -78.5 70t-71.5 21q-44 0 -66 -18t-22 -47t22 -47t74 -34l84 -26q68 -21 101.5 -55.5t33.5 -89.5q0 -63 -41 -98.5t-109 -41.5q-8 -1 -11 -3t-5 -7l-4 -12l-1 -4q0 -5 9 -8l7 -3q32 -14 47.5 -32.5t15.5 -46.5
q0 -36 -25 -57.5t-69 -21.5q-29 0 -53.5 11z" />
    <glyph glyph-name="Scaron" unicode="&#x160;" horiz-adv-x="633" 
d="M304 -5.5q-26 4.5 -31 5.5q-30 7 -48 7q-13 0 -38 -9q-16 -7 -28 -7h-5q-10 0 -17 6t-14 19l-79 163q-4 8 -4 16q0 15 16 23l4 2q10 5 17 5q12 0 23 -17q44 -74 111.5 -117t137.5 -43q72 0 110.5 33t38.5 91q0 55 -35.5 88.5t-107.5 57.5l-116 39q-83 28 -128 70t-45 112
q0 48 24.5 86.5t72 61.5t114.5 23q22 0 62 -7q30 -6 43 -6q18 0 35.5 6.5t23.5 6.5h4q10 0 14.5 -4.5t10.5 -16.5l72 -151q2 -6 2 -9q0 -11 -13 -20l-3 -2q-8 -5 -16 -5q-13 0 -20 10q-62 76 -110 109t-105 33q-65 0 -99.5 -29t-34.5 -79q0 -42 32.5 -70t95.5 -50l116 -39
q89 -29 140.5 -75t51.5 -132q0 -88 -60 -139t-156 -51q-33 0 -59 4.5zM282 769q-9 0 -16 3.5t-15 10.5l-104 97q-9 9 -9 16q0 6 5 14l2 3q6 9 15 9q6 0 14 -5l107 -64q6 -2 8 -2l8 2l107 64q8 5 14 5q9 0 15 -9l2 -3q5 -8 5 -14q0 -7 -9 -16l-104 -97q-8 -7 -15 -10.5
t-16 -3.5h-14z" />
    <glyph glyph-name="scaron" unicode="&#x161;" horiz-adv-x="480" 
d="M214 -3q-22 5 -35 5q-12 0 -26.5 -5.5t-20.5 -5.5q-10 0 -15 4t-10 13l-63 120q-4 7 -4 15q0 15 13 21l4 2q6 3 12 3q13 0 23 -14q73 -109 178 -109q49 0 73.5 20.5t24.5 57.5q0 32 -24 53.5t-74 36.5l-84 26q-64 20 -96 50t-32 81q0 56 42 91.5t114 35.5q17 0 43 -4
q24 -4 35 -4q13 0 26 4.5t17 4.5q7 0 10.5 -2.5t7.5 -9.5l55 -106q4 -10 4 -13q0 -12 -12 -18l-2 -1q-10 -4 -15 -4q-10 0 -20 11q-45 49 -78.5 70t-71.5 21q-44 0 -66 -18t-22 -47t22 -47t74 -34l84 -26q68 -21 101.5 -55.5t33.5 -89.5q0 -66 -46.5 -103t-118.5 -37
q-24 0 -61 7zM219 560q-10 0 -16 3t-12 11l-100 116q-7 11 -7 16q0 8 8 16l1 1q7 7 15 7t16 -7l94 -79q4 -3 8 -3q5 0 8 3l94 79q8 7 16 7t15 -7l1 -1q8 -7 8 -16q0 -8 -7 -16l-100 -116q-6 -8 -12 -11t-16 -3h-14z" />
    <glyph glyph-name="uni0162" unicode="&#x162;" horiz-adv-x="642" 
d="M267.5 -194q-24.5 11 -36.5 26q-7 10 -7 17q0 8 6 14q5 5 12 5q9 0 16 -6q27 -21 55 -21q19 0 28 9.5t9 25.5q0 15 -8 24.5t-26 16.5l-19 7q-9 3 -12.5 6.5t-3.5 10.5q0 3 2 11l11 34q1 2 1 5q0 9 -10 9h-68q-11 0 -17.5 6.5t-6.5 17.5v2q0 22 20 27l45 12q15 4 21 12
t6 24v499q0 24 -9 36.5t-31 13.5h-11q-47 0 -84 -30.5t-84 -114.5q-5 -11 -17 -11q-6 0 -13 3l-5 2q-13 6 -13 16q0 2 2 12l55 175q2 8 9 13t17 5h3q8 0 13.5 -2t13.5 -8q16 -10 34 -10h312q18 0 34 10q8 6 13.5 8t13.5 2h3q10 0 17 -5t9 -13l55 -175q2 -10 2 -12
q0 -10 -13 -16l-5 -2q-7 -3 -13 -3q-11 0 -17 11q-47 84 -84 114.5t-84 30.5h-7q-24 0 -34 -12.5t-10 -37.5v-499q0 -16 6 -24t21 -12l45 -12q20 -5 20 -27v-2q0 -11 -6.5 -17.5t-17.5 -6.5h-68q-10 0 -13 -10l-7 -22l-1 -4q0 -5 9 -8l7 -3q32 -14 47.5 -32.5t15.5 -46.5
q0 -36 -25 -57.5t-69 -21.5q-29 0 -53.5 11z" />
    <glyph glyph-name="uni0163" unicode="&#x163;" horiz-adv-x="338" 
d="M142.5 -194q-24.5 11 -36.5 26q-7 10 -7 17q0 8 6 14q5 5 12 5q9 0 16 -6q27 -21 55 -21q19 0 28 9.5t9 25.5q0 15 -8 24.5t-26 16.5l-19 7q-9 3 -12.5 6.5t-3.5 10.5q0 3 2 11l10 29q1 2 1 5q0 7 -9 10q-60 20 -60 90v334q0 5 -3.5 8.5t-8.5 3.5h-37q-11 0 -17.5 6
t-6.5 16v3q0 16 16 28q22 16 40 38.5t39 56.5q11 18 26 18q11 0 17 -6.5t6 -17.5v-72q0 -5 3.5 -8.5t8.5 -3.5h96q11 0 17.5 -6.5t6.5 -17.5v-10q0 -11 -6.5 -17.5t-17.5 -6.5h-100q-5 0 -8.5 -3.5t-3.5 -8.5v-320q0 -50 48 -50q22 0 35 4.5t24 12.5q14 8 22 8t13 -5t5 -14
q0 -22 -23 -41t-62 -24q-10 -1 -13 -10l-4 -13l-1 -4q0 -5 9 -8l7 -3q32 -14 47.5 -32.5t15.5 -46.5q0 -36 -25 -57.5t-69 -21.5q-29 0 -53.5 11z" />
    <glyph glyph-name="Tcaron" unicode="&#x164;" horiz-adv-x="642" 
d="M217 0q-11 0 -17.5 6.5t-6.5 17.5v2q0 22 20 27l45 12q15 4 21 12t6 24v499q0 24 -9 36.5t-31 13.5h-11q-47 0 -84 -30.5t-84 -114.5q-5 -11 -17 -11q-6 0 -13 3l-5 2q-13 6 -13 16q0 2 2 12l55 175q2 8 9 13t17 5h3q8 0 13.5 -2t13.5 -8q16 -10 34 -10h312q18 0 34 10
q8 6 13.5 8t13.5 2h3q10 0 17 -5t9 -13l55 -175q2 -10 2 -12q0 -10 -13 -16l-5 -2q-7 -3 -13 -3q-11 0 -17 11q-47 84 -84 114.5t-84 30.5h-7q-24 0 -34 -12.5t-10 -37.5v-499q0 -16 6 -24t21 -12l45 -12q20 -5 20 -27v-2q0 -11 -6.5 -17.5t-17.5 -6.5h-208zM314 769
q-9 0 -16 3.5t-15 10.5l-104 97q-9 9 -9 16q0 6 5 14l2 3q6 9 15 9q6 0 14 -5l107 -64q6 -2 8 -2l8 2l107 64q8 5 14 5q9 0 15 -9l2 -3q5 -8 5 -14q0 -7 -9 -16l-104 -97q-8 -7 -15 -10.5t-16 -3.5h-14z" />
    <glyph glyph-name="tcaron" unicode="&#x165;" horiz-adv-x="338" 
d="M126 15.5q-26 25.5 -26 70.5v334q0 5 -3.5 8.5t-8.5 3.5h-37q-11 0 -17.5 6t-6.5 16v3q0 16 16 28q22 16 40 38.5t39 56.5q11 18 26 18q11 0 17 -6.5t6 -17.5v-72q0 -5 3.5 -8.5t8.5 -3.5h96q11 0 17.5 -6.5t6.5 -17.5v-10q0 -11 -6.5 -17.5t-17.5 -6.5h-100
q-5 0 -8.5 -3.5t-3.5 -8.5v-320q0 -50 48 -50q22 0 35 4.5t24 12.5q14 8 22 8t13 -5t5 -14q0 -26 -30 -46t-78 -20q-54 0 -80 25.5zM238 542q-11 3 -14.5 9t-1.5 16l29 162q3 19 19 19q6 0 9 -1l36 -9q16 -3 16 -17q0 -2 -2 -10l-59 -155q-5 -16 -20 -16q-5 0 -8 1z" />
    <glyph glyph-name="Tbar" unicode="&#x166;" horiz-adv-x="642" 
d="M217 0q-11 0 -17.5 6.5t-6.5 17.5v2q0 22 20 27l45 12q15 4 21 12t6 24v215q0 5 -3.5 8.5t-8.5 3.5h-104q-11 0 -17.5 6.5t-6.5 17.5v4q0 11 6.5 17.5t17.5 6.5h104q5 0 8.5 3.5t3.5 8.5v208q0 24 -9 36.5t-31 13.5h-11q-47 0 -84 -30.5t-84 -114.5q-5 -11 -17 -11
q-6 0 -13 3l-5 2q-13 6 -13 16q0 2 2 12l55 175q2 8 9 13t17 5h3q8 0 13.5 -2t13.5 -8q16 -10 34 -10h312q18 0 34 10q8 6 13.5 8t13.5 2h3q10 0 17 -5t9 -13l55 -175q2 -10 2 -12q0 -10 -13 -16l-5 -2q-7 -3 -13 -3q-11 0 -17 11q-47 84 -84 114.5t-84 30.5h-7
q-24 0 -34 -12.5t-10 -37.5v-208q0 -5 3.5 -8.5t8.5 -3.5h104q11 0 17.5 -6.5t6.5 -17.5v-4q0 -11 -6.5 -17.5t-17.5 -6.5h-104q-5 0 -8.5 -3.5t-3.5 -8.5v-215q0 -16 6 -24t21 -12l45 -12q20 -5 20 -27v-2q0 -11 -6.5 -17.5t-17.5 -6.5h-208z" />
    <glyph glyph-name="tbar" unicode="&#x167;" horiz-adv-x="350" 
d="M132 15.5q-26 25.5 -26 70.5v140q0 5 -3.5 8.5t-8.5 3.5h-37q-11 0 -17.5 6.5t-6.5 17.5v4q0 11 6.5 17.5t17.5 6.5h37q5 0 8.5 3.5t3.5 8.5v118q0 5 -3.5 8.5t-8.5 3.5h-37q-11 0 -17.5 6t-6.5 16v3q0 16 16 28q22 16 40 38.5t39 56.5q11 18 26 18q11 0 17 -6.5t6 -17.5
v-72q0 -5 3.5 -8.5t8.5 -3.5h96q11 0 17.5 -6.5t6.5 -17.5v-10q0 -11 -6.5 -17.5t-17.5 -6.5h-100q-5 0 -8.5 -3.5t-3.5 -8.5v-118q0 -5 3.5 -8.5t8.5 -3.5h86q11 0 17.5 -6.5t6.5 -17.5v-4q0 -11 -6.5 -17.5t-17.5 -6.5h-86q-5 0 -8.5 -3.5t-3.5 -8.5v-126q0 -50 48 -50
q22 0 35 4.5t24 12.5q14 8 22 8t13 -5t5 -14q0 -26 -30 -46t-78 -20q-54 0 -80 25.5z" />
    <glyph glyph-name="Utilde" unicode="&#x168;" horiz-adv-x="727" 
d="M166 52q-66 62 -58 205l20 342q1 15 -5.5 23.5t-21.5 13.5l-31 11q-10 4 -15 10t-5 17v2q0 11 6.5 17.5t17.5 6.5h182q11 0 17.5 -6.5t6.5 -17.5v-2q0 -11 -5 -17t-15 -10l-31 -11q-15 -5 -20.5 -13t-6.5 -24l-19 -342q-6 -111 41.5 -157t150.5 -46q95 0 139 45t39 145
l-17 357q-1 16 -6.5 24t-20.5 13l-31 10q-20 6 -20 26v2q0 11 6.5 17.5t17.5 6.5h173q11 0 17.5 -6.5t6.5 -17.5v-2q0 -20 -20 -26l-31 -10q-15 -5 -21.5 -13.5t-5.5 -23.5l18 -357q6 -134 -59 -194t-194 -60q-134 0 -200 62zM216 807q0 7 2 12q13 37 38.5 58.5t56.5 21.5
q30 0 58 -14l29 -15q24 -13 42 -13q28 0 45 29q11 18 25 18q3 0 9 -2q13 -4 13 -18q0 -7 -2 -12q-13 -37 -38.5 -58.5t-56.5 -21.5q-30 0 -58 14l-29 15q-24 13 -42 13q-28 0 -45 -29q-10 -18 -25 -18q-22 0 -22 20z" />
    <glyph glyph-name="utilde" unicode="&#x169;" horiz-adv-x="584" 
d="M130 25q-31 35 -31 99v243q0 23 -9.5 32.5t-39.5 15.5q-21 4 -21 23v1q0 7 4 12.5t17 10.5l81 35q12 4 15 4q10 0 16 -7.5t6 -20.5v-329q0 -49 16.5 -71t63.5 -22q39 0 75.5 11.5t61.5 30.5q14 11 19 20t5 24v230q0 23 -9.5 32.5t-38.5 15.5q-12 2 -17 7.5t-5 15.5v1
q0 7 4 12t17 11l79 35q12 4 16 4q21 0 21 -28v-380q0 -16 6 -24.5t22 -12.5l19 -5q12 -3 18 -8.5t6 -16.5v-1q0 -12 -7 -18.5t-18 -6.5h-80q-12 0 -18 6t-8 18l-2 14q-3 19 -16 9l-13 -10q-29 -22 -69 -34.5t-82 -12.5q-73 0 -104 35zM129 614q0 7 2 12q13 37 38.5 58.5
t56.5 21.5q30 0 58 -14l29 -15q24 -13 42 -13q28 0 45 29q11 18 25 18q3 0 9 -2q13 -4 13 -18q0 -7 -2 -12q-13 -37 -38.5 -58.5t-56.5 -21.5q-30 0 -58 14l-29 15q-24 13 -42 13q-28 0 -45 -29q-10 -18 -25 -18q-22 0 -22 20z" />
    <glyph glyph-name="Umacron" unicode="&#x16a;" horiz-adv-x="727" 
d="M166 52q-66 62 -58 205l20 342q1 15 -5.5 23.5t-21.5 13.5l-31 11q-10 4 -15 10t-5 17v2q0 11 6.5 17.5t17.5 6.5h182q11 0 17.5 -6.5t6.5 -17.5v-2q0 -11 -5 -17t-15 -10l-31 -11q-15 -5 -20.5 -13t-6.5 -24l-19 -342q-6 -111 41.5 -157t150.5 -46q95 0 139 45t39 145
l-17 357q-1 16 -6.5 24t-20.5 13l-31 10q-20 6 -20 26v2q0 11 6.5 17.5t17.5 6.5h173q11 0 17.5 -6.5t6.5 -17.5v-2q0 -20 -20 -26l-31 -10q-15 -5 -21.5 -13.5t-5.5 -23.5l18 -357q6 -134 -59 -194t-194 -60q-134 0 -200 62zM262 788q-11 0 -17.5 6.5t-6.5 17.5v12
q0 11 6.5 17.5t17.5 6.5h226q11 0 17.5 -6.5t6.5 -17.5v-12q0 -11 -6.5 -17.5t-17.5 -6.5h-226z" />
    <glyph glyph-name="umacron" unicode="&#x16b;" horiz-adv-x="584" 
d="M130 25q-31 35 -31 99v243q0 23 -9.5 32.5t-39.5 15.5q-21 4 -21 23v1q0 7 4 12.5t17 10.5l81 35q12 4 15 4q10 0 16 -7.5t6 -20.5v-329q0 -49 16.5 -71t63.5 -22q39 0 75.5 11.5t61.5 30.5q14 11 19 20t5 24v230q0 23 -9.5 32.5t-38.5 15.5q-12 2 -17 7.5t-5 15.5v1
q0 7 4 12t17 11l79 35q12 4 16 4q21 0 21 -28v-380q0 -16 6 -24.5t22 -12.5l19 -5q12 -3 18 -8.5t6 -16.5v-1q0 -12 -7 -18.5t-18 -6.5h-80q-12 0 -18 6t-8 18l-2 14q-3 19 -16 9l-13 -10q-29 -22 -69 -34.5t-82 -12.5q-73 0 -104 35zM175 595q-11 0 -17.5 6.5t-6.5 17.5v12
q0 11 6.5 17.5t17.5 6.5h226q11 0 17.5 -6.5t6.5 -17.5v-12q0 -11 -6.5 -17.5t-17.5 -6.5h-226z" />
    </font>
</defs>
</svg>
