<?xml version="1.0" standalone="no"?>
<!DOCTYPE svg PUBLIC "-//W3C//DTD SVG 1.1//EN" "http://www.w3.org/Graphics/SVG/1.1/DTD/svg11.dtd" >
<svg xmlns="http://www.w3.org/2000/svg" xmlns:xlink="http://www.w3.org/1999/xlink" version="1.1">
<metadata>
Created by FontForge 20201107 at Mon Nov 29 18:22:50 2021
 By 
Copyright (c) 2020 by Colophon Foundry. All rights reserved.
</metadata>
<defs>
<font id="GrenettePro-Bold" horiz-adv-x="650" >
  <font-face 
    font-family="Grenette Pro"
    font-weight="700"
    font-stretch="normal"
    units-per-em="1000"
    panose-1="2 2 8 2 4 2 2 4 1 3"
    ascent="800"
    descent="-200"
    x-height="500"
    cap-height="700"
    bbox="-763 -293 2587 989"
    underline-thickness="50"
    underline-position="-100"
    unicode-range="U+000D-FB02"
  />
<missing-glyph horiz-adv-x="940" 
d="M124 0q-11 0 -17.5 6.5t-6.5 17.5v692q0 11 6.5 17.5t17.5 6.5h692q11 0 17.5 -6.5t6.5 -17.5v-692q0 -11 -6.5 -17.5t-17.5 -6.5h-692zM776 46q5 0 8.5 3.5t3.5 8.5v624q0 5 -3.5 8.5t-8.5 3.5h-612q-5 0 -8.5 -3.5t-3.5 -8.5v-624q0 -5 3.5 -8.5t8.5 -3.5h612zM622 215
q-7 -7 -17 -7q-9 0 -17 7l-110 110q-3 4 -8 4q-4 0 -8 -4l-110 -110q-7 -7 -17 -7q-9 0 -17 7l-3 3q-7 8 -7 17q0 10 7 17l110 110q5 5 5 8t-5 8l-110 110q-7 8 -7 17q0 10 7 17l3 3q10 8 17 8q9 0 17 -8l110 -110q6 -4 8 -4q4 0 8 4l110 110q10 8 17 8q9 0 17 -8l3 -3
q8 -8 8 -17q0 -7 -8 -17l-110 -110q-4 -4 -4 -8t4 -8l110 -110q8 -8 8 -17q0 -7 -8 -17z" />
    <glyph glyph-name="f_b" unicode="fb" horiz-adv-x="986" 
d="M645.5 -2q-31.5 9 -59.5 31q-7 6 -14 6q-5 0 -13 -5l-46 -29q-13 -9 -27 -9q-12 0 -20 7.5t-8 21.5v537q0 15 -4.5 25.5t-16.5 19.5q-30 25 -68 41t-72 16q-40 0 -60 -19t-20 -53q0 -39 32 -63.5t101 -24.5h13q25 0 25 -25v-44q0 -12 -6.5 -19t-18.5 -7h-96
q-5 0 -8.5 -3.5t-3.5 -8.5v-269q0 -16 5.5 -24.5t20.5 -12.5l25 -6q21 -5 21 -28v-28q0 -11 -7 -18t-18 -7h-241q-12 0 -19 7t-7 18v28q0 21 21 28l15 5q15 5 21 13.5t6 24.5v269q0 5 -3.5 8.5t-8.5 3.5h-37q-11 0 -18 7t-7 19v25q0 13 5 20.5t18 13.5l13 7q9 4 14 11.5
t8 19.5l9 40q22 96 82 139.5t159 43.5q34 0 70.5 -7t64.5 -18q4 -2 11 -2q6 0 9 1l81 23q10 3 19 3q27 0 27 -32v-237q0 -4 2 -6.5t5 -2.5q4 0 8 3q56 34 111 34q61 0 108.5 -30t74 -86t26.5 -132q0 -89 -32 -150.5t-84.5 -92t-114.5 -30.5q-41 0 -72.5 9zM755 120
q31 41 31 128q0 81 -32.5 124.5t-81.5 43.5q-27 0 -41 -10q-9 -5 -13 -13.5t-4 -24.5v-246q0 -23 16 -33q18 -10 39 -10q55 0 86 41z" />
    <glyph glyph-name="f_f" unicode="ff" horiz-adv-x="751" 
d="M61 0q-12 0 -19 7t-7 18v28q0 21 21 28l15 5q15 5 21 13.5t6 24.5v269q0 5 -3.5 8.5t-8.5 3.5h-37q-11 0 -18 7t-7 19v25q0 13 5 20.5t18 13.5l13 7q9 4 14 11.5t8 19.5l10 48q19 90 73.5 130t139.5 40q69 0 111 -21q14 -8 14 -21q0 -7 -3 -15l-33 -89q-7 -18 -24 -18
q-16 0 -29 16q-22 29 -40 42.5t-37 13.5q-22 0 -34.5 -16t-12.5 -45q0 -45 30.5 -69t100.5 -24h65q23 0 28 23l12 57q20 90 74.5 130.5t138.5 40.5q40 0 76.5 -7t57.5 -18q14 -8 14 -20q0 -4 -4 -16l-33 -93q-7 -18 -24 -18q-15 0 -29 17q-27 31 -49.5 47.5t-45.5 16.5
q-24 0 -38 -18t-14 -48q0 -46 30.5 -70t101.5 -24h14q11 0 18 -6.5t7 -18.5v-44q0 -12 -7 -19t-18 -7h-96q-5 0 -9 -3.5t-4 -8.5v-269q0 -16 6 -24.5t21 -12.5l22 -6q21 -6 21 -28v-28q0 -11 -6.5 -18t-18.5 -7h-239q-11 0 -18 7t-7 18v28q0 21 21 28l15 5q15 5 21 13.5
t6 24.5v269q0 5 -3.5 8.5t-8.5 3.5h-179q-5 0 -8.5 -3.5t-3.5 -8.5v-269q0 -16 5.5 -24.5t20.5 -12.5l23 -6q21 -6 21 -28v-28q0 -11 -7 -18t-19 -7h-238z" />
    <glyph glyph-name="f_f_b" unicode="ffb" horiz-adv-x="1346" 
d="M1005.5 -2q-31.5 9 -59.5 31q-7 6 -14 6q-6 0 -14 -5l-45 -29q-13 -9 -27 -9q-13 0 -21 7.5t-8 21.5v537q0 15 -4.5 25.5t-15.5 19.5q-30 25 -68 41t-72 16q-40 0 -60 -19t-20 -53q0 -39 31.5 -63.5t100.5 -24.5h14q11 0 18 -6.5t7 -18.5v-44q0 -12 -7 -19t-18 -7h-96
q-5 0 -9 -3.5t-4 -8.5v-269q0 -16 6 -24.5t21 -13.5l15 -5q21 -7 21 -28v-28q0 -11 -7 -18t-19 -7h-231q-11 0 -18 7t-7 18v28q0 21 21 28l15 5q15 5 21 13.5t6 24.5v269q0 5 -3.5 8.5t-8.5 3.5h-179q-5 0 -8.5 -3.5t-3.5 -8.5v-269q0 -16 5.5 -24.5t20.5 -12.5l23 -6
q21 -6 21 -28v-28q0 -11 -7 -18t-19 -7h-238q-12 0 -19 7t-7 18v28q0 21 21 28l15 5q15 5 21 13.5t6 24.5v269q0 5 -3.5 8.5t-8.5 3.5h-37q-11 0 -18 7t-7 19v25q0 13 5 20.5t18 13.5l13 7q9 4 14 11.5t8 19.5l10 48q19 90 73.5 130t139.5 40q69 0 111 -21q14 -8 14 -21
q0 -7 -3 -15l-33 -89q-7 -18 -24 -18q-16 0 -29 16q-22 29 -40 42.5t-37 13.5q-22 0 -34.5 -16t-12.5 -45q0 -45 30.5 -69t100.5 -24h65q23 0 28 23l9 45q23 96 83.5 139.5t158.5 43.5q33 0 70 -7t64 -18q4 -2 11 -2q6 0 10 1l81 23q10 3 19 3q27 0 27 -32v-237q0 -4 2 -6.5
t5 -2.5t8 3q56 34 111 34q61 0 108.5 -30t74 -86t26.5 -132q0 -89 -32 -150.5t-84.5 -92t-114.5 -30.5q-41 0 -72.5 9zM1115 120q31 41 31 128q0 81 -32.5 124.5t-81.5 43.5q-27 0 -41 -10q-10 -5 -13.5 -13.5t-3.5 -24.5v-246q0 -24 16 -33q18 -10 39 -10q55 0 86 41z" />
    <glyph glyph-name="f_f_h" unicode="ffh" horiz-adv-x="1363" 
d="M61 0q-12 0 -19 7t-7 18v28q0 21 21 28l15 5q15 5 21 13.5t6 24.5v269q0 5 -3.5 8.5t-8.5 3.5h-37q-11 0 -18 7t-7 19v25q0 13 5 20.5t18 13.5l13 7q9 4 14 11.5t8 19.5l10 48q19 90 73.5 130t139.5 40q69 0 111 -21q14 -8 14 -21q0 -7 -3 -15l-33 -89q-7 -18 -24 -18
q-16 0 -29 16q-22 29 -40 42.5t-37 13.5q-22 0 -34.5 -16t-12.5 -45q0 -45 30.5 -69t100.5 -24h65q23 0 28 23l9 45q23 96 83.5 139.5t158.5 43.5q33 0 70 -7t64 -18q4 -2 11 -2q6 0 10 1l81 23q10 3 19 3q27 0 27 -32v-252q0 -10 8 -10q5 0 9 3l16 9q69 43 141 43
q64 0 98 -39t34 -110v-239q0 -16 6 -24.5t20 -13.5l15 -5q21 -8 21 -28v-28q0 -11 -6.5 -18t-18.5 -7h-169q-12 0 -19 7t-7 18v320q0 28 -8.5 42.5t-31.5 14.5q-22 0 -46.5 -6.5t-43.5 -16.5q-10 -6 -14 -13t-4 -17v-225q0 -16 6 -24.5t21 -13.5l15 -5q21 -7 21 -28v-28
q0 -11 -7 -18t-19 -7h-231q-11 0 -18 7t-7 18v28q0 21 21 28l15 5q14 5 20 13.5t6 24.5v434q0 15 -4.5 25.5t-15.5 19.5q-30 25 -68 41t-72 16q-40 0 -60 -19t-20 -53q0 -39 31.5 -63.5t100.5 -24.5h14q11 0 18 -6.5t7 -18.5v-44q0 -12 -7 -19t-18 -7h-96q-5 0 -9 -3.5
t-4 -8.5v-269q0 -16 6 -24.5t21 -13.5l15 -5q21 -7 21 -28v-28q0 -11 -7 -18t-19 -7h-231q-11 0 -18 7t-7 18v28q0 21 21 28l15 5q15 5 21 13.5t6 24.5v269q0 5 -3.5 8.5t-8.5 3.5h-179q-5 0 -8.5 -3.5t-3.5 -8.5v-269q0 -16 5.5 -24.5t20.5 -12.5l23 -6q21 -6 21 -28v-28
q0 -11 -7 -18t-19 -7h-238z" />
    <glyph glyph-name="f_f_i" unicode="ffi" horiz-adv-x="1059" 
d="M61 0q-12 0 -19 7t-7 18v28q0 21 21 28l15 5q15 5 21 13.5t6 24.5v269q0 5 -3.5 8.5t-8.5 3.5h-37q-11 0 -18 7t-7 19v25q0 13 5 20.5t18 13.5l13 7q9 4 14 11.5t8 19.5l10 48q19 90 73.5 130t139.5 40q69 0 111 -21q14 -8 14 -21q0 -7 -3 -15l-33 -89q-7 -18 -24 -18
q-16 0 -29 16q-22 29 -40.5 42.5t-37.5 13.5q-22 0 -34 -16t-12 -45q0 -45 30.5 -69t100.5 -24h65q23 0 28 23l9 44q23 97 83 140.5t160 43.5q45 0 98 -11t76 -23q14 -8 14 -21q0 -3 -4 -15l-33 -93q-6 -18 -24 -18q-8 0 -14.5 3.5t-16.5 12.5q-36 33 -73.5 53.5t-70.5 20.5
q-32 0 -50 -18t-18 -51q0 -91 131 -91h181q11 0 20 3l19 6q10 3 18 3q28 0 28 -33v-355q0 -16 6 -24.5t21 -13.5l15 -5q21 -7 21 -28v-28q0 -11 -7 -18t-19 -7h-231q-11 0 -18 7t-7 18v28q0 21 21 28l15 5q14 5 20 13.5t6 24.5v269q0 5 -3.5 8.5t-8.5 3.5h-178q-5 0 -9 -3.5
t-4 -8.5v-269q0 -16 6 -24.5t21 -13.5l15 -5q21 -7 21 -28v-28q0 -11 -7 -18t-19 -7h-231q-11 0 -18 7t-7 18v28q0 21 21 28l15 5q15 5 21 13.5t6 24.5v269q0 5 -3.5 8.5t-8.5 3.5h-179q-5 0 -8.5 -3.5t-3.5 -8.5v-269q0 -16 6 -24.5t20 -13.5l15 -5q21 -7 21 -28v-28
q0 -11 -7 -18t-18 -7h-231z" />
    <glyph glyph-name="f_f_j" unicode="ffj" horiz-adv-x="1052" 
d="M752.5 -215q-20.5 12 -20.5 32q0 10 5.5 16.5t20.5 13.5q31 12 45 33.5t14 58.5v454q0 5 -3.5 8.5t-8.5 3.5h-178q-5 0 -9 -3.5t-4 -8.5v-269q0 -16 6 -24.5t21 -13.5l15 -5q21 -7 21 -28v-28q0 -11 -7 -18t-19 -7h-231q-11 0 -18 7t-7 18v28q0 21 21 28l15 5
q15 5 21 13.5t6 24.5v269q0 5 -3.5 8.5t-8.5 3.5h-179q-5 0 -8.5 -3.5t-3.5 -8.5v-269q0 -16 6 -24.5t20 -13.5l15 -5q21 -7 21 -28v-28q0 -11 -7 -18t-18 -7h-231q-12 0 -19 7t-7 18v28q0 21 21 28l15 5q15 5 21 13.5t6 24.5v269q0 5 -3.5 8.5t-8.5 3.5h-37q-11 0 -18 7
t-7 19v25q0 13 5 20.5t18 13.5l13 7q9 4 14 11.5t8 19.5l10 48q19 90 73.5 130t139.5 40q69 0 111 -21q14 -8 14 -21q0 -7 -3 -15l-33 -89q-7 -18 -24 -18q-16 0 -29 16q-22 29 -40 42.5t-37 13.5q-22 0 -34.5 -16t-12.5 -45q0 -45 30.5 -69t100.5 -24h65q23 0 28 23l9 44
q23 97 83 140.5t160 43.5q45 0 98 -11t76 -23q14 -8 14 -21q0 -3 -4 -15l-33 -93q-6 -18 -24 -18q-8 0 -14.5 3.5t-16.5 12.5q-36 34 -73.5 54t-70.5 20t-50.5 -18t-17.5 -51q0 -91 131 -91h181q11 0 20 3l19 6q10 3 18 3q28 0 28 -33v-532q0 -83 -45.5 -128.5t-122.5 -45.5
q-33 0 -53.5 12z" />
    <glyph glyph-name="f_f_k" unicode="ffk" horiz-adv-x="1353" 
d="M61 0q-12 0 -19 7t-7 18v28q0 21 21 28l15 5q15 5 21 13.5t6 24.5v269q0 5 -3.5 8.5t-8.5 3.5h-37q-11 0 -18 7t-7 19v25q0 13 5 20.5t18 13.5l13 7q9 4 14 11.5t8 19.5l10 48q19 90 73.5 130t139.5 40q69 0 111 -21q14 -8 14 -21q0 -7 -3 -15l-33 -89q-7 -18 -24 -18
q-16 0 -29 16q-22 29 -40 42.5t-37 13.5q-22 0 -34.5 -16t-12.5 -45q0 -45 30.5 -69t100.5 -24h65q23 0 28 23l9 45q23 96 83.5 139.5t158.5 43.5q33 0 70 -7t64 -18q4 -2 11 -2q6 0 10 1l81 23q10 3 19 3q27 0 27 -32v-423q0 -5 2.5 -8t6.5 -3q5 0 10 4l120 106q8 8 8 14
q0 8 -11 13l-19 6q-15 5 -15 23v24q0 12 7 18.5t19 6.5h199q25 0 25 -25v-24q0 -19 -17 -24l-30 -11q-22 -7 -39 -19t-45 -36l-30 -26q-7 -7 -7 -14q0 -4 3 -10l101 -173q15 -24 24.5 -34.5t24.5 -15.5l20 -9q21 -9 21 -28v-25q0 -12 -7 -19t-19 -7h-138q-15 0 -24 5.5
t-15 17.5l-104 182q-5 8 -10 8q-4 0 -11 -5l-43 -40q-7 -7 -7 -17v-27q0 -15 6 -24t21 -14l15 -5q21 -7 21 -28v-27q0 -12 -7 -19t-19 -7h-230q-12 0 -19 7t-7 19v27q0 21 21 28l15 5q14 5 20 13.5t6 24.5v434q0 15 -4.5 25.5t-15.5 19.5q-30 25 -68 41t-72 16
q-40 0 -60 -19t-20 -53q0 -39 31.5 -63.5t100.5 -24.5h14q11 0 18 -6.5t7 -18.5v-44q0 -12 -7 -19t-18 -7h-96q-5 0 -9 -3.5t-4 -8.5v-269q0 -16 6 -24.5t21 -13.5l15 -5q21 -7 21 -28v-28q0 -11 -7 -18t-19 -7h-231q-11 0 -18 7t-7 18v28q0 21 21 28l15 5q15 5 21 13.5
t6 24.5v269q0 5 -3.5 8.5t-8.5 3.5h-179q-5 0 -8.5 -3.5t-3.5 -8.5v-269q0 -16 5.5 -24.5t20.5 -12.5l23 -6q21 -6 21 -28v-28q0 -11 -7 -18t-19 -7h-238z" />
    <glyph glyph-name="f_f_l" unicode="ffl" horiz-adv-x="1059" 
d="M61 0q-12 0 -19 7t-7 18v28q0 21 21 28l15 5q15 5 21 13.5t6 24.5v269q0 5 -3.5 8.5t-8.5 3.5h-37q-11 0 -18 7t-7 19v25q0 13 5 20.5t18 13.5l13 7q9 4 14 11.5t8 19.5l10 48q19 90 73.5 130t139.5 40q69 0 111 -21q14 -8 14 -21q0 -7 -3 -15l-33 -89q-7 -18 -24 -18
q-16 0 -29 16q-22 29 -40 42.5t-37 13.5q-22 0 -34.5 -16t-12.5 -45q0 -45 30.5 -69t100.5 -24h65q23 0 28 23l9 45q23 96 83.5 139.5t158.5 43.5q33 0 70 -7t64 -18q4 -2 11 -2q6 0 10 1l81 23q10 3 19 3q27 0 27 -32v-595q0 -16 6 -24.5t21 -13.5l15 -5q21 -7 21 -28v-28
q0 -11 -7 -18t-19 -7h-231q-11 0 -18 7t-7 18v28q0 21 21 28l15 5q14 5 20 13.5t6 24.5v434q0 15 -4.5 25.5t-15.5 19.5q-30 25 -68 41t-72 16q-40 0 -60 -19t-20 -53q0 -39 31.5 -63.5t100.5 -24.5h14q11 0 18 -6.5t7 -18.5v-44q0 -12 -7 -19t-18 -7h-96q-5 0 -9 -3.5
t-4 -8.5v-269q0 -16 6 -24.5t21 -13.5l15 -5q21 -7 21 -28v-28q0 -11 -7 -18t-19 -7h-231q-11 0 -18 7t-7 18v28q0 21 21 28l15 5q15 5 21 13.5t6 24.5v269q0 5 -3.5 8.5t-8.5 3.5h-179q-5 0 -8.5 -3.5t-3.5 -8.5v-269q0 -16 5.5 -24.5t20.5 -12.5l23 -6q21 -6 21 -28v-28
q0 -11 -7 -18t-19 -7h-238z" />
    <glyph glyph-name="f_h" unicode="fh" horiz-adv-x="1003" 
d="M61 0q-12 0 -19 7t-7 18v28q0 21 21 28l15 5q15 5 21 13.5t6 24.5v269q0 5 -3.5 8.5t-8.5 3.5h-37q-11 0 -18 7t-7 19v25q0 13 5 20.5t18 13.5l13 7q9 4 14 11.5t8 19.5l9 40q22 96 82 139.5t159 43.5q34 0 70.5 -7t64.5 -18q4 -2 11 -2q6 0 9 1l81 23q10 3 19 3
q27 0 27 -32v-252q0 -10 9 -10q4 0 8 3l17 9q68 43 140 43q64 0 98 -39t34 -110v-239q0 -16 6 -24.5t20 -13.5l16 -5q21 -7 21 -28v-28q0 -11 -7 -18t-19 -7h-169q-12 0 -18.5 7t-6.5 18v320q0 28 -9 42.5t-31 14.5q-45 0 -91 -23q-10 -6 -14 -13t-4 -17v-225q0 -16 6 -24.5
t21 -13.5l15 -5q21 -7 21 -28v-28q0 -11 -7 -18t-19 -7h-231q-11 0 -18 7t-7 18v28q0 21 21 28l15 5q15 5 21 13.5t6 24.5v434q0 15 -4.5 25.5t-16.5 19.5q-30 25 -68 41t-72 16q-40 0 -60 -19t-20 -53q0 -39 32 -63.5t101 -24.5h13q25 0 25 -25v-44q0 -12 -6.5 -19
t-18.5 -7h-96q-5 0 -8.5 -3.5t-3.5 -8.5v-269q0 -16 5.5 -24.5t20.5 -12.5l25 -6q21 -5 21 -28v-28q0 -11 -7 -18t-18 -7h-241z" />
    <glyph glyph-name="f_i" unicode="fi" horiz-adv-x="699" 
d="M61 0q-12 0 -19 7t-7 18v28q0 21 21 28l15 5q15 5 21 13.5t6 24.5v269q0 5 -3.5 8.5t-8.5 3.5h-37q-11 0 -18 7t-7 19v25q0 13 5 20.5t18 13.5l13 7q9 4 14 11.5t8 19.5l8 39q23 98 83 141t160 43q45 0 98 -11t76 -23q14 -8 14 -21q0 -3 -4 -15l-33 -93q-6 -18 -24 -18
q-8 0 -14.5 3.5t-16.5 12.5q-36 34 -73.5 54t-70.5 20q-32 0 -50 -18.5t-18 -50.5q0 -91 131 -91h181q11 0 20 3l19 6q11 3 18 3q28 0 28 -33v-355q0 -16 6 -24.5t21 -13.5l15 -5q21 -7 21 -28v-28q0 -11 -7 -18t-19 -7h-231q-11 0 -18 7t-7 18v28q0 21 21 28l15 5
q15 5 21 13.5t6 24.5v269q0 5 -3.5 8.5t-8.5 3.5h-179q-5 0 -8.5 -3.5t-3.5 -8.5v-269q0 -16 6 -24.5t20 -13.5l15 -5q21 -7 21 -28v-28q0 -11 -7 -18t-18 -7h-231z" />
    <glyph glyph-name="f_j" unicode="fj" horiz-adv-x="692" 
d="M393 -215q-20 12 -20 32q0 10 5.5 16.5t19.5 13.5q31 12 45.5 33.5t14.5 58.5v454q0 5 -3.5 8.5t-8.5 3.5h-179q-5 0 -8.5 -3.5t-3.5 -8.5v-269q0 -16 6 -24.5t20 -13.5l15 -5q21 -7 21 -28v-28q0 -11 -7 -18t-18 -7h-231q-12 0 -19 7t-7 18v28q0 21 21 28l15 5
q15 5 21 13.5t6 24.5v269q0 5 -3.5 8.5t-8.5 3.5h-37q-11 0 -18 7t-7 19v25q0 13 5 20.5t18 13.5l13 7q9 4 14 11.5t8 19.5l8 39q23 98 83 141t160 43q45 0 98 -11t76 -23q14 -8 14 -21q0 -3 -4 -15l-33 -93q-6 -18 -24 -18q-8 0 -14.5 3.5t-16.5 12.5q-36 34 -73.5 54
t-70.5 20q-32 0 -50 -18.5t-18 -50.5q0 -91 131 -91h181q11 0 20 3l19 6q11 3 18 3q28 0 28 -33v-532q0 -83 -45.5 -128.5t-122.5 -45.5q-33 0 -53 12z" />
    <glyph glyph-name="f_k" unicode="fk" horiz-adv-x="993" 
d="M61 0q-12 0 -19 7t-7 18v28q0 21 21 28l15 5q15 5 21 13.5t6 24.5v269q0 5 -3.5 8.5t-8.5 3.5h-37q-11 0 -18 7t-7 19v25q0 13 5 20.5t18 13.5l13 7q9 4 14 11.5t8 19.5l9 40q22 96 82 139.5t159 43.5q33 0 69 -7t66 -18q4 -2 11 -2q6 0 9 1l81 23q10 3 19 3q27 0 27 -32
v-423q0 -5 2.5 -8t6.5 -3q6 0 10 4l121 106q7 7 7 13q0 9 -11 14l-19 6q-15 5 -15 23v24q0 12 7 18.5t19 6.5h199q25 0 25 -25v-24q0 -10 -3.5 -15.5t-12.5 -8.5l-31 -11q-22 -7 -39 -19t-45 -36l-30 -26q-7 -7 -7 -14q0 -4 3 -10l102 -173q14 -24 23.5 -34.5t24.5 -15.5
l20 -9q21 -9 21 -28v-25q0 -12 -7 -19t-19 -7h-138q-15 0 -23.5 5.5t-15.5 17.5l-104 182q-5 8 -10 8q-3 0 -10 -5l-44 -40q-7 -9 -7 -17v-27q0 -15 6 -24t21 -14l15 -5q21 -7 21 -28v-27q0 -12 -7 -19t-19 -7h-230q-12 0 -19 7t-7 19v27q0 21 21 28l15 5q15 5 21 13.5
t6 24.5v434q0 15 -4.5 25.5t-16.5 19.5q-30 25 -68 41t-72 16q-40 0 -60 -19t-20 -53q0 -39 32 -63.5t101 -24.5h13q25 0 25 -25v-44q0 -12 -6.5 -19t-18.5 -7h-96q-5 0 -8.5 -3.5t-3.5 -8.5v-269q0 -16 5.5 -24.5t20.5 -12.5l23 -6q21 -6 21 -28v-28q0 -11 -7 -18t-19 -7
h-238z" />
    <glyph glyph-name="f_l" unicode="fl" horiz-adv-x="699" 
d="M61 0q-12 0 -19 7t-7 18v28q0 21 21 28l15 5q15 5 21 13.5t6 24.5v269q0 5 -3.5 8.5t-8.5 3.5h-37q-11 0 -18 7t-7 19v25q0 13 5 20.5t18 13.5l13 7q9 4 14 11.5t8 19.5l9 40q22 96 82 139.5t159 43.5q34 0 70.5 -7t64.5 -18q4 -2 11 -2q6 0 9 1l81 23q10 3 19 3
q27 0 27 -32v-595q0 -16 6 -24.5t21 -13.5l15 -5q21 -7 21 -28v-28q0 -11 -7 -18t-19 -7h-231q-11 0 -18 7t-7 18v28q0 21 21 28l15 5q15 5 21 13.5t6 24.5v434q0 15 -4.5 25.5t-16.5 19.5q-30 25 -68 41t-72 16q-40 0 -60 -19t-20 -53q0 -39 32 -63.5t101 -24.5h13
q25 0 25 -25v-44q0 -12 -6.5 -19t-18.5 -7h-96q-5 0 -8.5 -3.5t-3.5 -8.5v-269q0 -16 6 -24.5t20 -13.5l15 -5q21 -7 21 -28v-28q0 -11 -7 -18t-18 -7h-231z" />
    <glyph glyph-name=".notdef" horiz-adv-x="940" 
d="M124 0q-11 0 -17.5 6.5t-6.5 17.5v692q0 11 6.5 17.5t17.5 6.5h692q11 0 17.5 -6.5t6.5 -17.5v-692q0 -11 -6.5 -17.5t-17.5 -6.5h-692zM776 46q5 0 8.5 3.5t3.5 8.5v624q0 5 -3.5 8.5t-8.5 3.5h-612q-5 0 -8.5 -3.5t-3.5 -8.5v-624q0 -5 3.5 -8.5t8.5 -3.5h612zM622 215
q-7 -7 -17 -7q-9 0 -17 7l-110 110q-3 4 -8 4q-4 0 -8 -4l-110 -110q-7 -7 -17 -7q-9 0 -17 7l-3 3q-7 8 -7 17q0 10 7 17l110 110q5 5 5 8t-5 8l-110 110q-7 8 -7 17q0 10 7 17l3 3q10 8 17 8q9 0 17 -8l110 -110q6 -4 8 -4q4 0 8 4l110 110q10 8 17 8q9 0 17 -8l3 -3
q8 -8 8 -17q0 -7 -8 -17l-110 -110q-4 -4 -4 -8t4 -8l110 -110q8 -8 8 -17q0 -7 -8 -17z" />
    <glyph glyph-name=".null" horiz-adv-x="0" 
 />
    <glyph glyph-name="nonmarkingreturn" unicode="&#xd;" horiz-adv-x="168" 
 />
    <glyph glyph-name="space" unicode=" " horiz-adv-x="168" 
 />
    <glyph glyph-name="exclam" unicode="!" horiz-adv-x="358" 
d="M165 236q-11 0 -17 5t-10 17q-27 100 -37 173.5t-10 150.5v93q0 11 6.5 18t18.5 7h127q11 0 18 -7t7 -18v-93q0 -76 -10 -149.5t-37 -174.5q-4 -12 -10 -17t-18 -5h-28zM109.5 14.5q-27.5 25.5 -27.5 64.5t27.5 65t69.5 26q43 0 70 -26t27 -65t-27 -64.5t-70 -25.5
q-42 0 -69.5 25.5z" />
    <glyph glyph-name="quotedbl" unicode="&#x22;" horiz-adv-x="425" 
d="M101 480q-23 0 -26 25l-18 210q-1 12 5.5 18.5t18.5 6.5h75q13 0 19.5 -6.5t5.5 -18.5l-18 -210q-3 -25 -26 -25h-36zM288 480q-23 0 -26 25l-18 210q-1 12 5.5 18.5t18.5 6.5h75q13 0 19.5 -6.5t5.5 -18.5l-18 -210q-3 -25 -26 -25h-36z" />
    <glyph glyph-name="numbersign" unicode="#" horiz-adv-x="686" 
d="M640 497q11 0 16.5 -6.5t4.5 -17.5l-6 -35q-3 -24 -25 -24h-97q-12 0 -13 -11l-18 -103v-2q0 -11 11 -11h93q11 0 16.5 -6.5t3.5 -17.5l-5 -35q-3 -24 -25 -24h-100q-12 0 -13 -11l-29 -168q-2 -12 -10.5 -18.5t-19.5 -6.5h-50q-11 0 -16 7t-3 19l29 165v2q0 11 -11 11
h-113q-12 0 -13 -11l-29 -168q-2 -12 -10.5 -18.5t-19.5 -6.5h-50q-11 0 -16 7t-3 19l29 165v2q0 11 -11 11h-90q-11 0 -16.5 6.5t-4.5 17.5l6 35q3 24 25 24h96q12 0 13 11l19 103v2q0 11 -11 11h-93q-11 0 -16.5 6.5t-4.5 17.5l6 35q3 24 25 24h99q12 0 13 11l30 167
q2 12 10 18.5t20 6.5h50q11 0 16 -7t3 -19l-29 -164v-2q0 -11 11 -11h112q12 0 13 11l30 167q2 12 10 18.5t20 6.5h50q11 0 16 -7t3 -19l-29 -164v-2q0 -11 11 -11h90zM389 287q12 0 13 11l19 103v2q0 11 -11 11h-113q-12 0 -13 -11l-18 -103v-2q0 -11 11 -11h112z" />
    <glyph glyph-name="dollar" unicode="$" horiz-adv-x="683" 
d="M329 -130q-11 0 -17.5 6.5t-6.5 17.5v91q0 10 -14 13q-6 1 -27.5 5.5t-37.5 4.5q-15 0 -33 -9q-3 -1 -11.5 -4t-15.5 -3h-13q-22 0 -33 25l-86 182q-4 8 -4 18q0 16 15 23l25 12q8 4 17 4q14 0 26 -16q114 -159 249 -159q52 0 80.5 21.5t28.5 60.5q0 38 -27 61.5
t-82 42.5l-127 42q-179 60 -179 201q0 88 57 140t160 60q16 1 16 13v83q0 11 6.5 17.5t17.5 6.5h44q11 0 17.5 -6.5t6.5 -17.5v-93q0 -11 11 -13q9 -2 28 -2q15 0 30.5 5.5t20.5 5.5h13q13 0 20 -6.5t14 -20.5l75 -151q4 -10 4 -15q0 -13 -16 -23l-16 -9q-10 -5 -18 -5
q-13 0 -23 12q-64 71 -112 100.5t-99 29.5q-45 0 -70 -18.5t-25 -50.5q0 -30 25 -50t76 -36l121 -37q96 -28 150 -79t54 -145q0 -95 -63.5 -150.5t-168.5 -63.5q-15 0 -15 -12v-85q0 -11 -6.5 -17.5t-17.5 -6.5h-44z" />
    <glyph glyph-name="percent" unicode="%" horiz-adv-x="910" 
d="M471 389q-12 8 -12 19q0 9 6 16l176 275q8 12 19 12q9 0 16 -6l45 -30q12 -7 12 -21q0 -8 -6 -16l-204 -254q-9 -11 -21 -11q-10 0 -16 5zM122.5 372.5q-42.5 23.5 -66 64.5t-23.5 93t23.5 93t66 64.5t97.5 23.5t97.5 -23.5t66 -64.5t23.5 -93t-23.5 -93t-66 -64.5
t-97.5 -23.5t-97.5 23.5zM276.5 447q13.5 16 13.5 44q0 34 -12.5 66t-33.5 52t-46 20q-21 0 -34.5 -16t-13.5 -44q0 -34 12.5 -66t33.5 -52t45 -20q22 0 35.5 16zM592.5 12.5q-42.5 23.5 -66 64.5t-23.5 93t23.5 93t66 64.5t97.5 23.5t97.5 -23.5t66 -64.5t23.5 -93
t-23.5 -93t-66 -64.5t-97.5 -23.5t-97.5 23.5zM189 26q-12 8 -12 20q0 9 6 16l204 255q9 11 20 11q9 0 16 -6l16 -10q12 -7 12 -20q0 -8 -6 -16l-176 -275q-7 -12 -19 -12q-8 0 -17 6zM746.5 87q13.5 16 13.5 44q0 34 -12.5 66t-33.5 52t-45 20q-22 0 -35.5 -16t-13.5 -44
q0 -34 12.5 -66t33.5 -52t45 -20q22 0 35.5 16z" />
    <glyph glyph-name="ampersand" unicode="&#x26;" horiz-adv-x="783" 
d="M107 41.5q-70 52.5 -70 150.5q0 66 37 118.5t108 90.5q11 6 5 13q-49 67 -49 129q0 81 53.5 124.5t143.5 43.5q76 0 143 -32q12 -6 17.5 -13t6.5 -20l9 -100q1 -15 -3.5 -22t-16.5 -9l-17 -4q-3 -1 -8 -1q-16 0 -26 19q-27 54 -50 77t-53 23q-27 0 -42.5 -16.5
t-15.5 -44.5q0 -25 14 -50.5t43 -56.5l197 -216q3 -4 6 -3.5t5 4.5q15 31 22 61q1 4 1 11q0 20 -20 27l-21 7q-11 4 -16 10t-5 18v21q0 12 7 18.5t19 6.5h188q26 0 26 -25v-21q0 -12 -4.5 -17.5t-16.5 -10.5l-21 -8q-28 -11 -37 -40q-23 -73 -57 -131q-3 -6 2 -11
q30 -33 51 -48t61 -30l20 -7q14 -5 19.5 -12t5.5 -18v-24q0 -23 -24 -23h-174q-22 0 -35 16l-29 33q-3 4 -8 4q-4 0 -9 -4q-79 -60 -191 -60q-121 0 -191 52.5zM433 115q9 6 3 13l-186 211q-3 4 -7 4q-6 0 -10 -6q-23 -25 -32.5 -50t-9.5 -58q0 -64 40.5 -102.5t108.5 -38.5
q57 0 93 27z" />
    <glyph glyph-name="quotesingle" unicode="'" horiz-adv-x="238" 
d="M101 480q-23 0 -26 25l-18 210q-1 12 5.5 18.5t18.5 6.5h75q13 0 19.5 -6.5t5.5 -18.5l-18 -210q-3 -25 -26 -25h-36z" />
    <glyph glyph-name="parenleft" unicode="(" horiz-adv-x="362" 
d="M284 -180q-14 0 -30 14q-82 79 -132.5 196t-50.5 255t50.5 255t132.5 196q16 14 30 14q9 0 17 -5q15 -9 15 -23q0 -10 -7 -21q-39 -70 -63 -178.5t-24 -237.5t24 -237.5t63 -178.5q7 -11 7 -21q0 -14 -15 -23q-8 -5 -17 -5z" />
    <glyph glyph-name="parenright" unicode=")" horiz-adv-x="362" 
d="M46 -152q0 7 7 21q39 69 63 178t24 238t-24 238t-63 178q-7 14 -7 21q0 14 15 23q8 5 17 5q14 0 30 -14q82 -79 132.5 -196t50.5 -255q0 -139 -50.5 -256t-132.5 -195q-16 -14 -30 -14q-9 0 -17 5q-15 9 -15 23z" />
    <glyph glyph-name="asterisk" unicode="*" horiz-adv-x="477" 
d="M210 329q-13 1 -18.5 8.5t-3.5 19.5l18 110v3q0 5 -3 6t-7 -3l-86 -71q-11 -7 -17 -7q-12 0 -18 13l-29 49q-4 7 -4 13q0 7 4.5 12.5t12.5 7.5l104 39q6 3 6 6q0 5 -6 6l-104 39q-17 5 -17 19q0 6 5 14l28 50q8 12 18 12q9 0 17 -7l86 -71q3 -3 6 -3q5 0 4 8l-19 111
q-2 12 4 19.5t19 7.5h57q13 0 18.5 -7.5t3.5 -19.5l-18 -111v-4q0 -4 3 -4.5t7 3.5l86 71q7 7 16 7q12 0 19 -13l29 -49q4 -10 4 -13q0 -7 -4.5 -12.5t-12.5 -7.5l-104 -39q-3 -1 -5 -2.5t-2 -3.5t7 -6l104 -39q16 -5 16 -19q0 -7 -4 -14l-28 -50q-7 -12 -18 -12q-8 0 -17 7
l-86 71q-3 3 -6 3q-5 0 -4 -9l18 -110q2 -12 -4 -19.5t-19 -7.5z" />
    <glyph glyph-name="plus" unicode="+" horiz-adv-x="647" 
d="M303 84q-11 0 -18 7t-7 18v158q0 5 -3.5 8.5t-8.5 3.5h-155q-12 0 -19 7t-7 18v36q0 11 7 18t19 7h155q5 0 8.5 3.5t3.5 8.5v158q0 11 7 18t18 7h40q12 0 19 -7t7 -18v-158q0 -5 3.5 -8.5t8.5 -3.5h155q12 0 18.5 -7t6.5 -18v-36q0 -11 -6.5 -18t-18.5 -7h-155
q-5 0 -8.5 -3.5t-3.5 -8.5v-158q0 -11 -7 -18t-19 -7h-40z" />
    <glyph glyph-name="comma" unicode="," horiz-adv-x="326" 
d="M90 -155q-20 0 -28 21q-2 8 -2 12q0 17 21 28q87 43 87 80q0 10 -8 10q-3 0 -9 -1t-13 -1q-33 0 -55 23.5t-22 62.5q0 37 27 63.5t68 26.5q46 0 77 -31t31 -91q0 -76 -42.5 -126t-117.5 -74q-8 -3 -14 -3z" />
    <glyph glyph-name="hyphen" unicode="-" horiz-adv-x="389" 
d="M66 251q-12 0 -18.5 7t-6.5 18v52q0 25 25 25h257q13 0 19.5 -6.5t6.5 -18.5v-52q0 -12 -7 -18.5t-19 -6.5h-257z" />
    <glyph glyph-name="period" unicode="." horiz-adv-x="317" 
d="M88.5 14.5q-27.5 25.5 -27.5 64.5t27.5 65t69.5 26q43 0 70 -26t27 -65t-27 -64.5t-70 -25.5q-42 0 -69.5 25.5z" />
    <glyph glyph-name="slash" unicode="/" horiz-adv-x="393" 
d="M45 -144q-22 0 -22 19q0 6 1 9l242 835q6 21 29 21h53q22 0 22 -19q0 -6 -1 -9l-242 -835q-6 -21 -29 -21h-53z" />
    <glyph glyph-name="zero" unicode="0" horiz-adv-x="704" 
d="M197 31q-70 42 -111 123.5t-41 195.5t41 195.5t111 123.5t155 42t155 -42t111 -123.5t41 -195.5t-41 -195.5t-111 -123.5t-155 -42t-155 42zM456 140q30 45 30 137q0 88 -20 163t-56 120t-84 45q-49 0 -79 -45t-30 -137q0 -88 20 -163t56.5 -120t83.5 -45q49 0 79 45z
" />
    <glyph glyph-name="one" unicode="1" horiz-adv-x="452" 
d="M78 0q-11 0 -18 7t-7 18v28q0 25 21 29l56 12q15 3 21.5 12.5t6.5 26.5v381q0 18 -15 18q-7 0 -11 -2l-58 -23q-7 -3 -13 -3q-14 0 -21 14l-16 31q-4 8 -4 16q0 12 12 19l167 107q15 9 31 9h72q13 0 19.5 -6.5t6.5 -18.5v-542q0 -17 6 -26t21 -13l47 -12q11 -3 15.5 -9.5
t4.5 -19.5v-28q0 -11 -6.5 -18t-18.5 -7h-319z" />
    <glyph glyph-name="two" unicode="2" horiz-adv-x="602" 
d="M470 -22q-14 0 -28 11q-16 11 -37 11h-348q-12 0 -19 7t-7 18v38q0 25 18 39q115 98 181 170t95 129.5t29 112.5q0 48 -22 74.5t-60 26.5q-43 0 -80.5 -35t-87.5 -120q-9 -15 -22 -15q-3 0 -11 2l-26 9q-17 6 -17 22q0 3 2 11l48 160q7 23 31 31q41 15 92.5 23t95.5 8
q108 0 167.5 -51t59.5 -144q0 -70 -39 -132.5t-103 -118.5t-164 -126q-6 -4 -6 -9q0 -6 9 -6h75q71 0 110.5 23t81.5 81q9 12 19 12q2 0 10 -2l26 -9q9 -3 12 -9t1 -17l-47 -206q-5 -19 -27 -19h-12z" />
    <glyph glyph-name="three" unicode="3" horiz-adv-x="589" 
d="M118.5 27q-61.5 38 -85.5 92q-5 13 -5 22q0 22 19 32q11 6 20 6q18 0 31 -15q30 -29 65.5 -44t83.5 -15q56 0 88.5 32t32.5 89q0 47 -24 81.5t-66 47.5q-2 1 -6 1q-9 0 -17 -7l-35 -28q-9 -6 -16 -6q-10 0 -19 10l-22 25q-7 7 -7 17t9 19l185 178q4 4 4 9q0 8 -9 8h-98
q-50 0 -78.5 -16t-66.5 -65q-9 -12 -20 -12q-5 0 -13 3l-19 9q-15 7 -15 18q0 5 3 11l63 174q8 19 27 19h13q8 0 13.5 -2.5t13.5 -8.5q16 -11 38 -11h297q11 0 18 -7t7 -18v-52q0 -11 -3 -18t-12 -16l-148 -147q-4 -4 -4 -8q0 -5 8 -7q85 -25 129 -78.5t44 -133.5
q0 -106 -70.5 -166t-195.5 -60q-96 0 -157.5 38z" />
    <glyph glyph-name="four" unicode="4" horiz-adv-x="633" 
d="M268 0q-11 0 -18 7t-7 18v29q0 12 4.5 18t16.5 11l22 8q15 5 21 14t6 26v57q0 5 -3.5 8.5t-8.5 3.5h-259q-25 0 -25 25v39q0 18 9 31l294 389q7 9 13.5 12.5t17.5 3.5h172q12 0 18.5 -7t6.5 -18v-29q0 -12 -5 -18.5t-15 -10.5l-23 -8q-14 -5 -20 -14t-6 -26v-266
q0 -5 3.5 -8.5t8.5 -3.5h77q13 0 19.5 -7t6.5 -19v-40q0 -12 -7 -18.5t-19 -6.5h-77q-5 0 -8.5 -3.5t-3.5 -8.5v-57q0 -17 6 -26t22 -14l22 -8q11 -5 15.5 -11t4.5 -18v-29q0 -11 -6.5 -18t-18.5 -7h-256zM301 291q5 0 8.5 3.5t3.5 8.5v196q0 9 -6 9q-4 0 -9 -5l-144 -197
q-3 -3 -3 -7t3 -6t8 -2h139z" />
    <glyph glyph-name="five" unicode="5" horiz-adv-x="590" 
d="M130 25q-64 36 -90 95q-5 13 -5 22q0 21 19 31q11 6 20 6q14 0 33 -17q27 -26 64.5 -43t79.5 -17q62 0 96 32.5t34 91.5t-37.5 94t-100.5 35q-38 0 -71 -9q-7 -2 -9.5 -5t-4.5 -9l-4 -15q-7 -23 -31 -19l-45 9q-25 5 -21 28l66 342q5 23 27 23h255q29 0 45 11
q14 11 29 11h17q21 0 18 -22l-17 -113q-3 -23 -27 -23h-250q-10 0 -13 -11l-21 -99v-3q0 -7 4.5 -9.5t11.5 -0.5q57 12 100 12q76 0 132.5 -28t86.5 -78.5t30 -116.5q0 -114 -71 -177.5t-192 -63.5q-94 0 -158 36z" />
    <glyph glyph-name="six" unicode="6" horiz-adv-x="628" 
d="M180.5 27q-65.5 38 -101.5 108.5t-36 164.5q0 117 54 205.5t144 140.5t196 65q37 4 45 -26q1 -3 1 -9q0 -12 -8 -21t-27 -16q-87 -36 -147 -87t-80 -113q-1 -2 -1 -6q0 -7 6 -7q2 0 8 4q27 20 63.5 31.5t73.5 11.5q62 0 113.5 -28.5t81.5 -83.5t30 -131
q0 -116 -72.5 -178.5t-192.5 -62.5q-85 0 -150.5 38zM411.5 112q21.5 24 21.5 70q0 49 -18 92.5t-48.5 69.5t-64.5 26q-39 0 -61 -24t-22 -68q0 -50 18.5 -94t49 -70t64.5 -26q39 0 60.5 24z" />
    <glyph glyph-name="seven" unicode="7" horiz-adv-x="577" 
d="M145 0q-10 0 -16.5 5t-6.5 12q0 4 3 10q74 159 148 303t119 221q2 2 2 7q0 7 -9 7h-106q-66 0 -105.5 -21t-78.5 -75q-7 -11 -19 -11q-8 0 -12 2l-26 9q-14 4 -14 16q0 4 2 12l58 206q5 19 27 19h13q14 0 28 -11t37 -11h335q11 0 18 -7t7 -18v-38q0 -9 -4 -18t-9 -18
q-63 -108 -116 -256.5t-89 -321.5q-5 -23 -27 -23h-159z" />
    <glyph glyph-name="eight" unicode="8" horiz-adv-x="632" 
d="M162.5 13q-61.5 24 -93.5 67t-32 100q0 112 118 168q8 5 8 9t-6 8q-77 61 -77 145q0 59 28.5 104.5t82.5 71t129 25.5q68 0 118 -21t77 -58.5t27 -85.5q0 -43 -21.5 -75t-64.5 -62q-5 -3 -5 -7q0 -5 8 -10q74 -37 106.5 -79.5t32.5 -107.5q0 -68 -38 -117t-103 -74
t-147 -25q-86 0 -147.5 24zM347 441q6 0 10 4q54 41 54 95q0 38 -25 61.5t-66 23.5q-39 0 -62.5 -21.5t-23.5 -55.5q0 -32 22.5 -55.5t80.5 -49.5q8 -2 10 -2zM390 108.5q29 24.5 29 63.5q0 41 -29.5 70t-112.5 61q-8 2 -10 2q-7 0 -19 -6q-70 -36 -70 -108q0 -49 34.5 -78
t97.5 -29q51 0 80 24.5z" />
    <glyph glyph-name="nine" unicode="9" horiz-adv-x="628" 
d="M145 25q0 12 8 20.5t26 15.5q88 35 147.5 86.5t80.5 113.5q1 2 1 6q0 7 -6 7q-2 0 -8 -4q-28 -20 -64.5 -31.5t-73.5 -11.5q-62 0 -113 28.5t-81 83.5t-30 131q0 117 72.5 179t192.5 62q85 0 150 -38t101 -108.5t36 -164.5q0 -117 -54 -205.5t-143.5 -140.5t-195.5 -65
q-46 -4 -46 36zM386.5 354q21.5 24 21.5 68q0 50 -18 94t-48.5 70t-64.5 26q-39 0 -61 -24t-22 -70q0 -49 18.5 -92.5t49 -69.5t64.5 -26q39 0 60.5 24z" />
    <glyph glyph-name="colon" unicode=":" horiz-adv-x="317" 
d="M88.5 351.5q-27.5 25.5 -27.5 64.5t27.5 65t69.5 26q43 0 70 -26t27 -65t-27 -64.5t-70 -25.5q-42 0 -69.5 25.5zM88.5 14.5q-27.5 25.5 -27.5 64.5t27.5 65t69.5 26q43 0 70 -26t27 -65t-27 -64.5t-70 -25.5q-42 0 -69.5 25.5z" />
    <glyph glyph-name="semicolon" unicode=";" horiz-adv-x="326" 
d="M93.5 351.5q-27.5 25.5 -27.5 64.5t27.5 65t69.5 26q43 0 70 -26t27 -65t-27 -64.5t-70 -25.5q-42 0 -69.5 25.5zM91 -155q-20 0 -28 21q-2 8 -2 12q0 17 21 28q87 43 87 80q0 10 -8 10q-3 0 -9 -1t-13 -1q-33 0 -55 23.5t-22 62.5q0 37 27 63.5t68 26.5q46 0 77 -31
t31 -91q0 -76 -42.5 -126t-117.5 -74q-8 -3 -14 -3z" />
    <glyph glyph-name="less" unicode="&#x3c;" horiz-adv-x="643" 
d="M550 124q0 -18 -15 -18q-5 0 -13 3l-418 167q-19 7 -19 27v38q0 20 19 27l418 167q8 3 13 3q15 0 15 -18v-53q0 -10 -4.5 -16t-14.5 -10l-304 -112q-6 -1 -6 -7q0 -4 6 -7l304 -112q10 -4 14.5 -10t4.5 -16v-53z" />
    <glyph glyph-name="equal" unicode="=" horiz-adv-x="647" 
d="M111 379q-12 0 -19 7t-7 18v36q0 11 7 18t19 7h425q12 0 18.5 -7t6.5 -18v-36q0 -11 -6.5 -18t-18.5 -7h-425zM111 179q-12 0 -19 7t-7 18v36q0 11 7 18t19 7h425q12 0 18.5 -7t6.5 -18v-36q0 -11 -6.5 -18t-18.5 -7h-425z" />
    <glyph glyph-name="greater" unicode="&#x3e;" horiz-adv-x="643" 
d="M93 177q0 10 4.5 16t14.5 10l304 112q6 3 6 7q0 6 -6 7l-304 112q-10 4 -14.5 10t-4.5 16v53q0 18 15 18q5 0 13 -3l418 -167q19 -7 19 -27v-38q0 -20 -19 -27l-418 -167q-7 -3 -13 -3q-15 0 -15 18v53z" />
    <glyph glyph-name="question" unicode="?" horiz-adv-x="539" 
d="M199 272q0 13 9 25l23 31q57 77 81 119t24 83t-21.5 63t-60.5 22q-37 0 -71 -28.5t-76 -97.5q-11 -17 -23 -17q-6 0 -12 3l-22 9q-9 4 -12.5 8.5t-3.5 11.5q0 6 1 10l38 139q5 23 31 31q40 14 86.5 20.5t80.5 6.5q113 0 173.5 -46.5t60.5 -128.5q0 -49 -25.5 -93t-77 -90
t-138.5 -107q-13 -8 -26 -8q-14 0 -27 9q-12 11 -12 25zM173.5 14.5q-27.5 25.5 -27.5 64.5t27.5 65t69.5 26t69.5 -26t27.5 -65t-27.5 -64.5t-69.5 -25.5t-69.5 25.5z" />
    <glyph glyph-name="at" unicode="@" horiz-adv-x="967" 
d="M237.5 -138q-89.5 45 -138.5 132t-49 208q0 135 61.5 243.5t173.5 170.5t257 62q117 0 205 -45.5t135 -125t47 -179.5q0 -90 -32 -163.5t-89 -115.5t-129 -42q-42 0 -72.5 18.5t-44.5 49.5q-3 7 -9 7t-11 -7q-52 -68 -131 -68q-66 0 -105.5 45.5t-39.5 136.5
q0 86 33.5 152.5t89 103.5t120.5 37q22 0 38 -5.5t19 -6.5q22 -8 32 -8t33 7l23 10q19 7 28 7q11 0 17 -7t5 -20l-35 -324q-2 -24 6.5 -36.5t30.5 -12.5q31 0 59 27.5t45 78t17 115.5q0 89 -36.5 157t-106.5 106t-166 38q-104 0 -186 -50.5t-127.5 -139t-45.5 -199.5
q0 -107 40 -179.5t110 -107.5t159 -35q100 0 186 42q13 5 22 5q16 0 24 -14q5 -8 5 -17q0 -17 -21 -33q-38 -27 -102.5 -45t-134.5 -18q-120 0 -209.5 45zM522 149.5q25 46.5 35 142.5l8 74q1 24 -15 31q-11 5 -25 5q-31 0 -58 -27t-43.5 -73.5t-16.5 -102.5q0 -94 56 -96
q34 0 59 46.5z" />
    <glyph glyph-name="A" unicode="A" horiz-adv-x="750" 
d="M36 0q-12 0 -18.5 7t-6.5 18v23q0 11 4 17.5t14 11.5l19 10q46 24 62 63l161 404q6 14 6 24q0 22 -30 35l-26 10q-24 8 -24 25q0 6 1 9l5 20q6 23 28 23h170q22 0 31 -21l222 -521q13 -30 23.5 -42t29.5 -22l23 -12q10 -5 14 -11.5t4 -16.5v-29q0 -12 -7 -18.5t-19 -6.5
h-267q-12 0 -19 7t-7 18v29q0 19 18 26l14 6q13 5 19.5 12t6.5 17q0 9 -4 20l-19 50q-3 10 -14 10h-213q-11 0 -14 -10l-11 -31q-7 -21 -7 -30q0 -26 30 -43l12 -6q10 -5 14 -11t4 -16v-23q0 -11 -7 -18t-19 -7h-203zM414 271q7 0 9 4t0 10l-75 189q-3 8 -8 8t-8 -8
l-71 -189q-1 -2 -1 -5q0 -9 11 -9h143z" />
    <glyph glyph-name="B" unicode="B" horiz-adv-x="714" 
d="M63 0q-12 0 -19 7t-7 18v29q0 12 4.5 18t16.5 11l22 8q16 5 22 14t6 26v437q0 15 -6 23.5t-21 14.5l-25 9q-10 4 -14.5 10t-4.5 18v29q0 22 24 25q89 10 233 10q170 0 252 -50.5t82 -139.5q0 -43 -23 -73t-57 -48q-6 -3 -6 -8q0 -4 7 -7q69 -29 101.5 -77t32.5 -109
q0 -90 -64.5 -142.5t-171.5 -52.5h-384zM356 420q51 -2 80 20.5t29 67.5q0 59 -39.5 91.5t-95.5 32.5q-10 0 -22 -2q-16 -2 -23 -11.5t-7 -26.5v-157q0 -5 3.5 -8.5t8.5 -3.5zM381 75q61 0 95 30t34 86q0 70 -46.5 111.5t-121.5 44.5l-52 2q-12 0 -12 -11v-217q0 -46 46 -46
h57z" />
    <glyph glyph-name="C" unicode="C" horiz-adv-x="712" 
d="M208 36q-82 47 -127 131t-45 192q0 103 45.5 182.5t123.5 123.5t174 44q38 0 93 -16q5 -1 18 -4.5t21 -3.5q13 0 27 8q5 3 10.5 5.5t12.5 2.5h15q15 0 22 -5t13 -17l75 -182q3 -7 3 -13q0 -12 -14 -21l-20 -10q-10 -5 -17 -5q-13 0 -22 12q-70 89 -122 125t-115 36
q-49 0 -89.5 -24.5t-63.5 -70.5t-23 -108q0 -83 33.5 -146.5t92.5 -98t133 -34.5q56 0 91.5 15.5t67.5 44.5q19 17 36 17q9 0 13 -2q21 -9 21 -35q0 -42 -34.5 -86t-101.5 -74t-159 -30q-106 0 -188 47z" />
    <glyph glyph-name="D" unicode="D" horiz-adv-x="781" 
d="M63 0q-12 0 -19 7t-7 18v29q0 12 4.5 18t16.5 11l22 8q16 5 22 14t6 26v437q0 15 -6 23.5t-21 14.5l-25 9q-10 4 -14.5 10t-4.5 18v29q0 22 24 25q57 6 100 8t120 2q151 0 255.5 -53t156 -141t51.5 -195q0 -154 -88 -236t-250 -82h-343zM345 78q221 0 221 250
q0 91 -34 159t-88.5 104.5t-113.5 36.5q-11 0 -21 -2q-16 -3 -23.5 -12.5t-7.5 -27.5v-474q0 -34 28 -34h39z" />
    <glyph glyph-name="E" unicode="E" horiz-adv-x="685" 
d="M569 -22q-17 0 -31 11q-10 6 -17.5 8.5t-21.5 2.5h-436q-12 0 -19 7t-7 18v29q0 12 4.5 18t16.5 11l22 8q16 5 22 14t6 26v438q0 17 -6 26t-22 14l-22 8q-12 5 -16.5 11t-4.5 18v29q0 11 7 18t19 7h385q26 0 42 11q8 6 13.5 8.5t13.5 2.5h13q19 0 27 -19l71 -152
q3 -6 3 -11q0 -11 -12 -19l-18 -11q-10 -5 -16 -5q-9 0 -18 9q-49 50 -103.5 78t-130.5 28q-30 0 -42.5 -11t-12.5 -36v-109q0 -5 3.5 -8.5t8.5 -3.5h74q24 0 53 9q15 5 27 5q15 0 23 -19l69 -151q3 -6 3 -11q0 -9 -12 -17l-17 -9q-8 -5 -13 -5q-9 0 -20 11q-52 55 -87 79.5
t-76 24.5h-24q-5 0 -8.5 -3.5t-3.5 -8.5v-227q0 -25 16 -37t42 -12q89 0 146.5 28.5t116.5 95.5q11 12 22 12q4 0 12 -4l24 -13q12 -6 12 -20q0 -2 -2 -10l-59 -167q-5 -14 -12 -19.5t-18 -5.5h-9z" />
    <glyph glyph-name="F" unicode="F" horiz-adv-x="626" 
d="M63 0q-12 0 -19 7t-7 18v29q0 12 4.5 18t16.5 11l22 8q16 5 22 14t6 26v438q0 17 -6 26t-22 14l-22 8q-12 5 -16.5 11t-4.5 18v29q0 11 7 18t19 7h381q18 0 34 11q14 11 28 11h12q20 0 28 -19l67 -153q2 -6 2 -9q0 -10 -11 -18l-21 -13q-7 -4 -14 -4q-11 0 -18 9
q-46 48 -102 76.5t-116 28.5q-30 0 -42.5 -11t-12.5 -36v-141q0 -5 3.5 -8.5t8.5 -3.5h66q28 0 44.5 3t38.5 8q17 5 25 5q18 0 26 -20l60 -140q2 -6 2 -9q0 -10 -12 -18l-20 -10q-7 -4 -12 -4q-10 0 -16 9q-40 47 -80 69.5t-96 22.5h-26q-5 0 -8.5 -3.5t-3.5 -8.5v-193
q0 -17 6 -26t21 -13l37 -9q11 -3 15.5 -9.5t4.5 -19.5v-29q0 -11 -6.5 -18t-18.5 -7h-274z" />
    <glyph glyph-name="G" unicode="G" horiz-adv-x="807" 
d="M204.5 35.5q-80.5 46.5 -124.5 129t-44 187.5q0 108 45.5 189t126 124.5t181.5 43.5q38 0 64.5 -5t53.5 -14q28 -8 36 -8q9 0 25 8q16 9 28 9h18q15 0 22 -5.5t12 -17.5l74 -175q3 -7 3 -13q0 -14 -13 -21l-21 -12q-10 -5 -18 -5q-11 0 -20 10q-83 89 -140.5 124.5
t-130.5 35.5q-53 0 -93.5 -26t-63 -73.5t-22.5 -111.5q0 -88 33 -157.5t90 -108.5t125 -39q48 1 74 20.5t26 54.5v28q0 20 -8.5 32t-27.5 22l-25 11q-19 10 -19 31v27q0 13 7 19.5t18 6.5h263q13 0 19.5 -7t6.5 -19v-27q0 -22 -20 -31l-22 -10q-18 -8 -26 -20.5t-8 -31.5
v-185q0 -12 -7 -18.5t-18 -6.5h-24q-18 0 -27.5 4t-16.5 14l-6 8q-9 11 -23 11q-7 0 -29 -10q-36 -17 -73.5 -27.5t-95.5 -10.5q-104 0 -184.5 46.5z" />
    <glyph glyph-name="H" unicode="H" horiz-adv-x="825" 
d="M63 0q-12 0 -19 7t-7 18v29q0 12 4.5 18t16.5 11l22 8q16 5 22 14t6 26v438q0 17 -6 26t-22 14l-22 8q-12 5 -16.5 11t-4.5 18v29q0 11 7 18t19 7h260q12 0 18.5 -7t6.5 -18v-29q0 -12 -4.5 -18t-15.5 -11l-23 -8q-15 -5 -21 -14t-6 -26v-141q0 -5 3.5 -8.5t8.5 -3.5h245
q5 0 8.5 3.5t3.5 8.5v141q0 17 -6 26t-22 14l-22 8q-11 5 -15.5 11t-4.5 18v29q0 11 6.5 18t18.5 7h260q13 0 19.5 -6.5t6.5 -18.5v-29q0 -12 -4.5 -18t-16.5 -11l-22 -8q-16 -5 -22 -14t-6 -26v-438q0 -17 6 -26t22 -14l22 -8q12 -5 16.5 -11t4.5 -18v-29q0 -11 -6.5 -18
t-19.5 -7h-260q-12 0 -18.5 7t-6.5 18v29q0 12 4.5 18t15.5 11l22 8q16 5 22 14t6 26v182q0 5 -3.5 8.5t-8.5 3.5h-245q-5 0 -8.5 -3.5t-3.5 -8.5v-182q0 -17 6 -26t21 -14l23 -8q11 -5 15.5 -11t4.5 -18v-29q0 -11 -6.5 -18t-18.5 -7h-260z" />
    <glyph glyph-name="I" unicode="I" horiz-adv-x="385" 
d="M63 0q-12 0 -19 7t-7 18v29q0 12 4.5 18t16.5 11l22 8q16 5 22 14t6 26v438q0 17 -6 26t-22 14l-22 8q-12 5 -16.5 11t-4.5 18v29q0 11 7 18t19 7h260q12 0 18.5 -7t6.5 -18v-29q0 -12 -4.5 -18t-15.5 -11l-23 -8q-15 -5 -21 -14t-6 -26v-438q0 -17 6 -26t21 -14l23 -8
q11 -5 15.5 -11t4.5 -18v-29q0 -11 -6.5 -18t-18.5 -7h-260z" />
    <glyph glyph-name="J" unicode="J" horiz-adv-x="375" 
d="M46 -154q-7 0 -12 4t-11 13l-13 24q-4 7 -4 14q0 12 14 21q47 33 66 61t19 70v516q0 17 -6 26t-21 14l-22 8q-12 5 -16.5 11t-4.5 18v29q0 11 7 18t18 7h261q12 0 18.5 -7t6.5 -18v-29q0 -12 -4.5 -18t-16.5 -11l-22 -8q-16 -5 -22 -14t-6 -26v-478q0 -95 -53.5 -150.5
t-157.5 -90.5q-14 -4 -18 -4z" />
    <glyph glyph-name="K" unicode="K" horiz-adv-x="743" 
d="M63 0q-12 0 -19 7t-7 18v29q0 12 4.5 18t16.5 11l22 8q16 5 22 14t6 26v438q0 17 -6 26t-22 14l-22 8q-12 5 -16.5 11t-4.5 18v29q0 11 7 18t19 7h260q12 0 18.5 -7t6.5 -18v-29q0 -12 -4.5 -18t-15.5 -11l-23 -8q-15 -5 -21 -14t-6 -26v-185q0 -11 7 -11q3 0 8 5
l203 216q8 8 8 16t-9 14l-13 9q-9 6 -12 11t-3 15v16q0 11 6.5 18t18.5 7h193q12 0 19 -7t7 -18v-22q0 -10 -4.5 -16t-13.5 -11l-26 -13q-24 -11 -38.5 -22.5t-34.5 -32.5l-116 -123q-4 -4 -4 -9q0 -2 2 -8l148 -253q15 -26 32.5 -42.5t41.5 -30.5l21 -10q11 -5 15.5 -12
t4.5 -17v-28q0 -11 -7 -18t-19 -7h-155q-21 0 -32.5 7.5t-23.5 27.5l-143 253q-3 6 -9 6q-4 0 -8 -4l-58 -62q-6 -7 -6 -15v-82q0 -17 6 -26t21 -14l23 -8q11 -5 15.5 -11t4.5 -18v-29q0 -11 -6.5 -18t-18.5 -7h-260z" />
    <glyph glyph-name="L" unicode="L" horiz-adv-x="657" 
d="M549 -22q-18 0 -32 11q-9 6 -15 8.5t-16 2.5h-423q-12 0 -19 7t-7 18v29q0 12 4.5 18t16.5 11l22 8q16 5 22 14t6 26v438q0 17 -6 26t-22 14l-22 8q-12 5 -16.5 11t-4.5 18v29q0 11 7 18t19 7h260q12 0 18.5 -7t6.5 -18v-29q0 -12 -4.5 -18t-15.5 -11l-23 -8
q-15 -5 -21 -14t-6 -26v-439q0 -49 58 -49q73 0 130.5 32.5t114.5 108.5q10 13 21 13q8 0 15 -4l23 -13q14 -8 14 -21q0 -5 -3 -13l-63 -181q-5 -14 -12 -19.5t-18 -5.5h-9z" />
    <glyph glyph-name="M" unicode="M" horiz-adv-x="904" 
d="M62 0q-12 0 -18.5 7t-6.5 18v23q0 12 4.5 17.5t15.5 10.5l22 8q16 5 22 14t6 26v453q0 16 -6 25t-22 14l-22 8q-11 5 -15.5 10.5t-4.5 17.5v23q0 11 6.5 18t18.5 7h171q24 0 35 -20l184 -303q5 -7 8 -7q5 0 8 7l198 303q13 20 35 20h141q12 0 18.5 -7t6.5 -18v-29
q0 -12 -4.5 -18t-16.5 -11l-22 -8q-15 -5 -21 -14t-6 -26v-438q0 -17 6 -26t21 -14l22 -8q12 -5 16.5 -11t4.5 -18v-29q0 -11 -6.5 -18t-18.5 -7h-242q-12 0 -18.5 7t-6.5 18v29q0 12 4.5 18t15.5 11l22 8q16 5 22 14t6 26v304q0 4 -2 7t-4 3q-4 0 -9 -6l-179 -270
q-9 -12 -15.5 -16.5t-17.5 -4.5q-10 0 -17 4.5t-15 16.5l-165 270q-5 6 -8 6q-7 0 -7 -10v-311q0 -17 6 -26t22 -14l22 -8q11 -5 15.5 -10.5t4.5 -17.5v-23q0 -11 -6.5 -18t-18.5 -7h-189z" />
    <glyph glyph-name="N" unicode="N" horiz-adv-x="781" 
d="M62 0q-12 0 -18.5 7t-6.5 18v23q0 12 4.5 17.5t15.5 10.5l22 8q16 5 22 14t6 26v446q0 17 -6 25.5t-22 14.5l-22 8q-11 4 -15.5 10t-4.5 18v29q0 11 6.5 18t18.5 7h141q19 0 33 -13l323 -275q4 -4 8 -4q7 0 7 11v158q0 16 -6 25t-22 14l-22 8q-12 5 -16.5 10.5t-4.5 17.5
v23q0 11 7 18t19 7h187q12 0 18.5 -7t6.5 -18v-23q0 -12 -4.5 -17.5t-15.5 -10.5l-23 -8q-15 -5 -21 -14t-6 -25v-453q0 -16 6 -25.5t21 -14.5l26 -8q11 -4 15.5 -10t4.5 -18v-23q0 -11 -6.5 -18t-18.5 -7h-193q-12 0 -19 7t-7 18v23q0 12 5 18t16 10l25 8q15 5 21.5 14.5
t6.5 25.5v15q0 30 -19 45l-336 273q-4 4 -7 4q-8 0 -8 -11v-326q0 -17 6 -26t22 -14l22 -8q12 -5 16.5 -10.5t4.5 -17.5v-23q0 -11 -6.5 -18t-19.5 -7h-187z" />
    <glyph glyph-name="O" unicode="O" horiz-adv-x="794" 
d="M211 36q-82 47 -128.5 129.5t-46.5 184.5t46.5 184.5t128.5 129.5t186 47t186 -47t128.5 -129.5t46.5 -184.5t-46.5 -184.5t-128.5 -129.5t-186 -47t-186 47zM553.5 143q39.5 48 39.5 127q0 81 -32.5 159t-89 127t-123.5 49q-66 0 -106.5 -47t-40.5 -126
q0 -81 32.5 -159.5t89 -128t123.5 -49.5q68 0 107.5 48z" />
    <glyph glyph-name="P" unicode="P" horiz-adv-x="660" 
d="M63 0q-12 0 -19 7t-7 18v29q0 12 4.5 18t16.5 11l22 8q16 5 22 14t6 26v437q0 15 -6 23.5t-21 14.5l-25 9q-10 4 -14.5 10t-4.5 18v29q0 22 24 25q102 11 218 11q178 0 269 -65.5t91 -184.5q0 -85 -57 -137.5t-166 -52.5q-39 0 -125 9h-2q-11 0 -11 -12v-134q0 -17 6 -26
t21 -13l37 -9q11 -3 15.5 -9.5t4.5 -19.5v-29q0 -11 -6.5 -18t-18.5 -7h-274zM442.5 383.5q28.5 28.5 28.5 87.5q0 72 -42 114.5t-108 42.5q-24 0 -33.5 -11t-9.5 -35v-208q0 -11 14 -13q31 -6 70 -6q52 0 80.5 28.5z" />
    <glyph glyph-name="Q" unicode="Q" horiz-adv-x="840" 
d="M646 -30.5q-32 14.5 -65 52.5q-8 8 -17 4q-80 -37 -167 -37q-104 0 -186 47t-128.5 129.5t-46.5 184.5t46.5 184.5t128.5 129.5t186 47t186 -47t128.5 -129.5t46.5 -184.5q0 -66 -20.5 -124.5t-57.5 -104.5q-3 -4 -3 -9q0 -6 6 -9q20 -13 42 -13q17 0 27.5 4t25.5 12
q7 4 14 7t14 3q14 0 23 -11t9 -30q0 -55 -35 -87.5t-89 -32.5q-36 0 -68 14.5zM570 205q5 0 6 6q17 23 17 59q0 81 -32.5 159t-89 127t-123.5 49q-66 0 -106.5 -47t-40.5 -126q0 -52 13.5 -104.5t39.5 -97.5q3 -5 8 -5q4 0 9 5q53 58 133 58q44 0 81 -19t76 -59q5 -5 9 -5z
M507 108q6 3 6 9q0 5 -3 8q-33 41 -59.5 57.5t-53.5 16.5q-42 0 -75 -39q-4 -4 -4 -8t6 -10q57 -47 122 -47q35 0 61 13z" />
    <glyph glyph-name="R" unicode="R" horiz-adv-x="721" 
d="M63 0q-12 0 -19 7t-7 18v29q0 12 4.5 18t16.5 11l22 8q16 5 22 14t6 26v437q0 15 -6 23.5t-21 14.5l-25 9q-10 4 -14.5 10t-4.5 18v29q0 22 24 25q92 11 225 11q178 0 266 -58.5t88 -165.5q0 -61 -34 -99.5t-98 -52.5q-9 -1 -9 -8q0 -3 3 -8l97 -160q18 -29 35 -42.5
t45 -26.5l12 -5q14 -8 19 -14t5 -19v-27q0 -22 -24 -22h-153q-24 0 -36.5 8.5t-24.5 29.5l-131 237q-12 22 -26 31t-32 9q-10 0 -10 -12v-172q0 -17 6 -26t21 -14l23 -8q11 -5 15.5 -11t4.5 -18v-29q0 -11 -6.5 -18t-18.5 -7h-260zM448.5 415q25.5 26 25.5 75q0 61 -40 99.5
t-108 38.5q-27 0 -37.5 -10.5t-10.5 -35.5v-174q0 -10 11 -12l31 -4q33 -3 59 -3q44 0 69.5 26z" />
    <glyph glyph-name="S" unicode="S" horiz-adv-x="683" 
d="M274 2q-36 6 -48 6q-10 0 -30 -8q-18 -8 -30 -8h-13q-22 0 -33 25l-86 182q-4 8 -4 18q0 16 15 23l25 12q8 4 17 4q14 0 26 -16q114 -159 249 -159q52 0 80.5 21t28.5 61q0 38 -26.5 61.5t-82.5 42.5l-127 42q-179 60 -179 201q0 92 66.5 146t180.5 54q25 0 72 -7
q28 -5 45 -5q13 0 29 6q2 1 8.5 3t15.5 2h11q13 0 20 -6.5t14 -20.5l75 -151q4 -10 4 -15q0 -13 -16 -23l-16 -9q-10 -5 -18 -5q-13 0 -23 12q-64 71 -112 100.5t-99 29.5q-45 0 -70 -18.5t-25 -50.5q0 -30 25 -50t76 -36l121 -37q96 -28 150 -79t54 -145q0 -102 -73 -158.5
t-193 -56.5q-54 0 -104 12z" />
    <glyph glyph-name="T" unicode="T" horiz-adv-x="712" 
d="M212 0q-12 0 -19 7t-7 18v29q0 13 5 19.5t16 9.5l36 9q16 4 22 13t6 26v442q0 43 -34 43h-4q-61 0 -144 -164q-7 -14 -20 -14q-7 0 -15 3l-28 11q-15 6 -15 21q0 4 2 12l60 213q4 13 11 18.5t18 5.5h9q7 0 14 -3t14 -8q17 -11 35 -11h364q18 0 35 11q16 11 28 11h9
q11 0 18 -5.5t11 -18.5l60 -213q2 -8 2 -12q0 -15 -15 -21l-28 -11q-8 -3 -15 -3q-13 0 -20 14q-85 164 -144 164h-3q-35 0 -35 -43v-442q0 -17 6 -26t22 -13l36 -9q11 -3 15.5 -9.5t4.5 -19.5v-29q0 -11 -6.5 -18t-18.5 -7h-288z" />
    <glyph glyph-name="U" unicode="U" horiz-adv-x="755" 
d="M163 50q-77 61 -77 188q0 22 1 33l22 298q1 16 -5.5 25.5t-22.5 14.5l-22 8q-12 5 -16.5 11t-4.5 18v29q0 11 7 18t19 7h260q13 0 19.5 -6.5t6.5 -18.5v-29q0 -12 -4.5 -18t-16.5 -11l-22 -8q-15 -5 -20.5 -14t-6.5 -26l-15 -298q-5 -91 32 -132.5t120 -41.5
q76 0 111.5 39.5t31.5 124.5l-14 313q-1 16 -7 25t-21 15l-22 7q-12 5 -16.5 11t-4.5 18v25q0 11 7 18t19 7h194q13 0 19.5 -6.5t6.5 -18.5v-25q0 -12 -5 -18t-16 -11l-22 -7q-16 -6 -22.5 -15.5t-5.5 -24.5l20 -313q1 -10 1 -28q0 -122 -72.5 -183t-207.5 -61
q-151 0 -228 61z" />
    <glyph glyph-name="V" unicode="V" horiz-adv-x="729" 
d="M335 0q-21 0 -30 21l-218 521q-13 31 -24 46t-28 23l-15 8q-10 5 -14 11t-4 16v29q0 25 25 25h267q12 0 19 -7t7 -18v-29q0 -20 -18 -27l-15 -6q-24 -8 -24 -29q0 -10 6 -27l128 -329q3 -8 8 -8t8 8l123 328q6 15 6 26q0 22 -30 35l-14 6q-18 8 -18 27v25q0 11 7 18t18 7
h197q12 0 19 -7t7 -18v-28q0 -18 -17 -27l-14 -7q-21 -10 -32.5 -23.5t-20.5 -37.5l-205 -531q-8 -21 -30 -21h-74z" />
    <glyph glyph-name="W" unicode="W" horiz-adv-x="1028" 
d="M285 0q-24 0 -30 21l-161 521q-10 30 -20.5 45t-27.5 23l-20 9q-9 5 -13.5 11t-4.5 16v29q0 12 7 18.5t19 6.5h253q13 0 19.5 -6.5t6.5 -18.5v-29q0 -20 -18 -27l-15 -6q-23 -9 -23 -30q0 -8 3 -20l90 -304q3 -8 8 -8q3 0 5 2t3 5l94 297q6 17 6 28q0 12 -7 19.5
t-23 14.5l-15 6q-18 8 -18 27v25q0 11 7 18t19 7h158q21 0 28 -21l124 -420q3 -7 8 -7q6 0 7 7l81 297q4 13 4 25q0 13 -6.5 21t-22.5 15l-14 6q-18 8 -18 27v25q0 11 7 18t19 7h191q12 0 18.5 -7t6.5 -18v-29q0 -11 -4 -17t-14 -11l-15 -7q-22 -11 -33 -24.5t-17 -36.5
l-150 -529q-6 -21 -30 -21h-80q-22 0 -30 21l-119 387q-1 8 -7 8q-5 0 -8 -8l-118 -387q-6 -21 -30 -21h-80z" />
    <glyph glyph-name="X" unicode="X" horiz-adv-x="741" 
d="M38 0q-12 0 -18.5 7t-6.5 18v28q0 10 4 16t14 11l14 7q23 11 38 23.5t33 37.5l153 205q3 5 3 8q0 5 -3 8l-130 173q-24 29 -40.5 45t-34.5 24l-14 6q-21 10 -21 29v29q0 11 7 18t18 7h273q12 0 18.5 -7t6.5 -18v-29q0 -9 -4 -15t-14 -10l-14 -8q-17 -8 -17 -21
q0 -11 11 -25l81 -110q5 -5 9 -5q5 0 8 5l83 119q10 13 10 21q0 10 -16 19l-13 8q-10 6 -14 11.5t-4 14.5v25q0 11 7 18t19 7h188q13 0 19.5 -6.5t6.5 -18.5v-28q0 -10 -4 -16t-14 -11l-15 -7q-23 -11 -38.5 -24t-32.5 -37l-124 -176q-3 -3 -3 -8q0 -3 3 -8l153 -202
q42 -55 74 -69l15 -6q21 -10 21 -29v-29q0 -11 -7 -18t-19 -7h-272q-12 0 -19 7t-7 18v29q0 9 4 15t14 10l15 8q17 9 17 21q0 11 -11 25l-103 138q-2 5 -8 5q-5 0 -9 -5l-108 -147q-9 -12 -9 -21q0 -10 15 -19l14 -8q10 -7 14 -12t4 -14v-25q0 -11 -7 -18t-19 -7h-194z" />
    <glyph glyph-name="Y" unicode="Y" horiz-adv-x="687" 
d="M207 0q-12 0 -18.5 7t-6.5 18v29q0 13 4.5 19.5t16.5 9.5l36 9q15 4 21 13t6 26v114q0 10 -2.5 18t-9.5 19l-160 259q-20 32 -32 46t-28 22l-16 9q-10 5 -14 11t-4 17v29q0 25 25 25h268q11 0 18 -7t7 -18v-28q0 -10 -4 -16t-14 -10l-17 -7q-25 -10 -25 -29q0 -10 8 -24
l108 -185q5 -6 8 -6q5 0 8 6l108 181q8 12 8 25q0 21 -24 32l-20 9q-10 5 -14 10.5t-4 15.5v26q0 11 7 18t18 7h194q12 0 18.5 -7t6.5 -18v-29q0 -11 -4 -16.5t-14 -11.5l-14 -8q-18 -9 -29.5 -21.5t-26.5 -39.5l-153 -264q-11 -17 -11 -34v-120q0 -17 6 -26t22 -13l36 -9
q12 -3 16.5 -9.5t4.5 -19.5v-29q0 -11 -6.5 -18t-18.5 -7h-289z" />
    <glyph glyph-name="Z" unicode="Z" horiz-adv-x="684" 
d="M541 -22q-14 0 -28 11t-37 11h-416q-12 0 -19 7t-7 18v42q0 18 11 34l380 503q3 5 3 7q0 8 -11 8h-67q-53 0 -88 -16t-65 -50t-74 -103q-7 -12 -19 -12q-4 0 -12 3l-23 9q-17 6 -17 18q0 2 2 10l70 225q6 19 26 19h13q14 0 28 -11t37 -11h380q12 0 19 -7t7 -18v-42
q0 -19 -12 -34l-376 -503q-3 -4 -3 -8q0 -7 10 -7h94q49 0 86.5 16t72 52t75.5 100q10 15 22 15q3 0 11 -2l28 -10q13 -4 13 -16q0 -7 -2 -12l-73 -227q-6 -19 -26 -19h-13z" />
    <glyph glyph-name="bracketleft" unicode="[" horiz-adv-x="392" 
d="M123 -170q-12 0 -18.5 7t-6.5 18v860q0 11 6.5 18t18.5 7h205q13 0 19.5 -6.5t6.5 -18.5v-34q0 -11 -7 -18t-19 -7h-72q-5 0 -8.5 -3.5t-3.5 -8.5v-718q0 -5 3.5 -8.5t8.5 -3.5h72q12 0 19 -7t7 -18v-34q0 -12 -6.5 -18.5t-19.5 -6.5h-205z" />
    <glyph glyph-name="backslash" unicode="\" horiz-adv-x="393" 
d="M295 -144q-23 0 -29 21l-242 835q-1 3 -1 9q0 19 22 19h53q23 0 29 -21l242 -835q1 -3 1 -9q0 -19 -22 -19h-53z" />
    <glyph glyph-name="bracketright" unicode="]" horiz-adv-x="392" 
d="M64 -170q-12 0 -19 6.5t-7 18.5v34q0 11 7 18t19 7h72q5 0 8.5 3.5t3.5 8.5v718q0 5 -3.5 8.5t-8.5 3.5h-72q-12 0 -19 7t-7 18v34q0 12 7 18.5t19 6.5h205q12 0 18.5 -7t6.5 -18v-860q0 -11 -6.5 -18t-18.5 -7h-205z" />
    <glyph glyph-name="asciicircum" unicode="^" horiz-adv-x="435" 
d="M40 472q-15 0 -15 11q0 3 4 9l140 195q5 7 10.5 10t13.5 3h49q8 0 13.5 -3t10.5 -10l140 -195q4 -6 4 -9q0 -11 -15 -11h-54q-16 0 -24 11l-92 111q-3 5 -8 5q-3 0 -8 -5l-91 -111q-8 -11 -24 -11h-54z" />
    <glyph glyph-name="underscore" unicode="_" horiz-adv-x="498" 
d="M-15 -156q-11 0 -18 7t-7 18v36q0 12 7 18.5t18 6.5h528q12 0 18.5 -7t6.5 -18v-36q0 -12 -7 -18.5t-18 -6.5h-528z" />
    <glyph glyph-name="grave" unicode="`" horiz-adv-x="363" 
d="M65 629q-15 6 -15 19q0 7 4 14l38 74q7 13 19 13q7 0 16 -6l173 -119q13 -9 13 -20q0 -7 -5 -15l-13 -27q-8 -14 -20 -14q-6 0 -13 3z" />
    <glyph glyph-name="a" unicode="a" horiz-adv-x="570" 
d="M77.5 28q-42.5 39 -42.5 106q0 77 56.5 120.5t175.5 43.5q4 0 49 -3h3q9 0 9 11v47q0 83 -68 83q-30 0 -53.5 -20t-54.5 -68q-7 -11 -14.5 -16t-18.5 -5t-17.5 6t-11.5 19l-36 80q-4 8 -4 16q0 14 18 23q34 17 86 29t109 12q116 0 166 -49.5t52 -147.5l3 -207
q0 -22 18 -22q12 0 25 13q1 1 7 6t14 5q11 0 17 -7t6 -19q0 -44 -32 -68.5t-80 -24.5q-37 0 -61 14t-44 43q-3 7 -9 7q-5 0 -11 -6q-54 -60 -139 -60q-75 0 -117.5 39zM316 117q14 15 14 36v56q0 13 -13 15q-17 3 -37 3q-90 0 -90 -71q0 -31 17 -47.5t48 -16.5q34 0 61 25z
" />
    <glyph glyph-name="b" unicode="b" horiz-adv-x="604" 
d="M263 -2q-31 9 -60 31q-7 6 -14 6q-5 0 -13 -5l-45 -29q-13 -9 -28 -9q-12 0 -20 7.5t-8 21.5v552q0 22 -8 33.5t-33 18.5q-12 4 -17 9.5t-5 16.5v24q0 22 22 29l151 44q11 3 19 3q28 0 28 -32v-237q0 -9 7 -9q3 0 8 3q21 14 49.5 24t60.5 10q61 0 108.5 -30t74 -86
t26.5 -132q0 -89 -32 -150.5t-84.5 -92t-114.5 -30.5q-41 0 -72 9zM372 120q31 41 31 128q0 81 -32 124.5t-81 43.5q-28 0 -42 -10q-9 -5 -12.5 -13.5t-3.5 -24.5v-246q0 -24 16 -33q6 -4 17 -7t21 -3q55 0 86 41z" />
    <glyph glyph-name="c" unicode="c" horiz-adv-x="517" 
d="M155.5 23q-59.5 34 -91 93.5t-31.5 133.5q0 78 32 137t88 91.5t127 32.5q20 0 48 -6q22 -5 39 -5q11 0 24 3.5t19 3.5q18 0 26 -18l56 -129q3 -7 3 -13q0 -14 -15 -23l-8 -4q-8 -4 -16 -4q-13 0 -25 12q-48 53 -81.5 76t-71.5 23q-40 0 -67 -29.5t-27 -82.5
q0 -59 23.5 -104t63.5 -69.5t89 -24.5t85 28q20 15 30 15q7 0 15 -5q14 -8 14 -24q0 -13 -7 -27q-24 -56 -76.5 -85.5t-124.5 -29.5q-81 0 -140.5 34z" />
    <glyph glyph-name="d" unicode="d" horiz-adv-x="613" 
d="M137 16.5q-46 27.5 -73 84t-27 138.5t32.5 143.5t89 94.5t126.5 33q37 0 74 -7l4 -1q9 0 9 10v61q0 22 -8.5 33.5t-35.5 18.5q-13 3 -17.5 9t-4.5 17v24q0 22 22 29l154 44q10 3 19 3q28 0 28 -32v-595q0 -15 5.5 -24t20.5 -14l15 -5q21 -6 21 -28v-27q0 -12 -7 -19
t-18 -7h-153q-23 0 -31 24l-2 7q-3 8 -8 8t-9 -4q-54 -46 -123 -46q-57 0 -103 27.5zM355 95q17 9 17 30v259q0 28 -23 33q-14 5 -32 5q-52 0 -84 -44t-32 -117q0 -78 32 -127t81 -49q21 0 41 10z" />
    <glyph glyph-name="e" unicode="e" horiz-adv-x="541" 
d="M524 139q0 -10 -6 -25q-21 -55 -76 -90t-143 -35q-78 0 -138.5 33.5t-94 92.5t-33.5 135t31.5 135.5t89 93t130.5 33.5q86 0 143.5 -44t78.5 -124q2 -8 2 -12q0 -17 -21 -25l-272 -99q-6 -2 -7 -7t2 -10q21 -36 59 -56.5t86 -20.5q32 0 60 10.5t48 28.5q16 14 31 14
q11 0 17 -5q13 -10 13 -23zM203 392q-27 -32 -27 -88v-6q0 -6 4 -8t10 1l150 60q14 5 8 18q-9 27 -29 41t-46 14q-43 0 -70 -32z" />
    <glyph glyph-name="f" unicode="f" horiz-adv-x="391" 
d="M61 0q-12 0 -19 7t-7 18v28q0 21 21 28l15 5q15 5 21 13.5t6 24.5v269q0 5 -3.5 8.5t-8.5 3.5h-37q-11 0 -18 7t-7 19v25q0 13 5 20.5t18 13.5l13 7q9 4 14 11.5t8 19.5l11 52q20 90 74.5 130.5t138.5 40.5q41 0 77 -7t57 -18q14 -8 14 -21q0 -7 -3 -15l-34 -93
q-7 -18 -23 -18q-9 0 -15.5 4t-14.5 13q-27 30 -50 47t-45 17q-24 0 -38 -18t-14 -46q0 -47 31.5 -71.5t101.5 -24.5h13q25 0 25 -25v-44q0 -12 -6.5 -19t-18.5 -7h-96q-5 0 -8.5 -3.5t-3.5 -8.5v-269q0 -16 5.5 -24.5t20.5 -12.5l25 -6q21 -5 21 -28v-28q0 -11 -7 -18
t-18 -7h-241z" />
    <glyph glyph-name="g" unicode="g" horiz-adv-x="591" 
d="M74.5 -195.5q-58.5 31.5 -58.5 87.5q0 27 16.5 50t51.5 38q7 3 7 8q0 4 -5 7q-20 14 -34 37.5t-14 50.5q0 33 19.5 59t55.5 42q5 2 6 6t-3 9q-57 54 -57 125q0 51 28 94t81 68.5t125 25.5q52 0 101 -18q2 -1 7 -1q9 0 12 11q16 46 41 76t49 30q10 0 16.5 -5t13.5 -17
l31 -55q9 -18 9 -28t-5 -16t-17 -11l-64 -28q-6 -1 -6 -7q0 -4 4 -8q42 -48 42 -111q0 -52 -27.5 -95t-80.5 -68.5t-126 -25.5q-22 0 -52 5q-5 1 -14 2t-16 1q-17 0 -28 -9.5t-11 -25.5q0 -19 16.5 -30t44.5 -11q22 0 54 2t47 3q74 6 111 6q67 0 105 -31.5t38 -80.5
q0 -52 -33.5 -95.5t-108.5 -70.5t-191 -27q-122 0 -180.5 31.5zM357 234q18 21 18 57q0 37 -13.5 70t-36.5 53.5t-48 20.5q-29 0 -47 -21t-18 -57q0 -37 13 -70.5t35.5 -53.5t48.5 -20q30 0 48 21zM383 -129q38 21 38 54q0 51 -72 51q-35 0 -85 -5l-52 -3q-9 0 -17 -9
q-18 -23 -18 -50q0 -28 25.5 -43.5t71.5 -15.5q71 0 109 21z" />
    <glyph glyph-name="h" unicode="h" horiz-adv-x="630" 
d="M48 0q-12 0 -19 7t-7 18v28q0 21 21 28l15 5q15 5 21 13.5t6 24.5v448q0 23 -8 34.5t-33 18.5q-12 3 -17 8.5t-5 16.5v25q0 22 22 29l152 44q11 3 18 3q28 0 28 -32v-252q0 -10 8 -10q4 0 9 3l16 9q69 43 140 43q64 0 98 -39t34 -110v-239q0 -16 6 -24.5t21 -13.5l15 -5
q21 -7 21 -28v-28q0 -11 -7 -18t-19 -7h-169q-11 0 -18 7t-7 18v320q0 28 -9 42.5t-31 14.5t-46 -6.5t-44 -16.5q-10 -6 -14 -12.5t-4 -17.5v-225q0 -16 6 -24.5t20 -13.5l15 -5q21 -8 21 -28v-28q0 -11 -7 -18t-18 -7h-231z" />
    <glyph glyph-name="i" unicode="i" horiz-adv-x="339" 
d="M61 0q-12 0 -19 7t-7 18v28q0 21 21 28l15 5q15 5 21 13.5t6 24.5v209q0 22 -8.5 33.5t-32.5 18.5q-12 4 -17 9.5t-5 16.5v25q0 22 22 28l151 45q11 3 18 3q29 0 29 -33v-355q0 -16 6 -24.5t20 -13.5l15 -5q21 -7 21 -28v-28q0 -11 -7 -18t-18 -7h-231zM94 585.5
q-28 23.5 -28 61.5t28 61t74 23t74 -23t28 -61t-28 -61.5t-74 -23.5t-74 23.5z" />
    <glyph glyph-name="j" unicode="j" horiz-adv-x="327" 
d="M27.5 -215q-20.5 12 -20.5 32q0 10 5.5 16.5t20.5 13.5q31 12 45 33.5t14 58.5v394q0 22 -8 33.5t-32 18.5q-12 4 -17 9.5t-5 16.5v25q0 22 22 28l151 45q11 3 18 3q28 0 28 -33v-532q0 -83 -45.5 -128.5t-122.5 -45.5q-33 0 -53.5 12zM89 585.5q-28 23.5 -28 61.5t28 61
t74 23t74 -23t28 -61t-28 -61.5t-74 -23.5t-74 23.5z" />
    <glyph glyph-name="k" unicode="k" horiz-adv-x="620" 
d="M48 0q-12 0 -19 7t-7 19v27q0 21 21 28l15 5q15 5 21 13.5t6 24.5v448q0 22 -8 34t-33 19q-12 4 -17 9.5t-5 16.5v24q0 22 22 29l151 44q10 3 19 3q28 0 28 -32v-423q0 -5 2.5 -8t6.5 -3q5 0 9 4l121 106q7 7 7 13q0 9 -11 14l-19 6q-15 5 -15 23v24q0 12 7 18.5t19 6.5
h199q12 0 19 -6.5t7 -18.5v-24q0 -19 -17 -24l-31 -11q-22 -7 -39 -19t-45 -36l-29 -26q-7 -7 -7 -14q0 -4 3 -10l101 -173q13 -24 23.5 -34.5t24.5 -15.5l20 -9q21 -9 21 -28v-25q0 -12 -7 -19t-19 -7h-138q-15 0 -23.5 5.5t-15.5 17.5l-104 182q-5 8 -10 8q-3 0 -10 -5
l-43 -40q-7 -7 -7 -17v-27q0 -15 5.5 -24t20.5 -14l15 -5q21 -8 21 -28v-27q0 -12 -7 -19t-18 -7h-231z" />
    <glyph glyph-name="l" unicode="l" horiz-adv-x="326" 
d="M48 0q-12 0 -19 7t-7 19v27q0 21 21 28l15 5q15 5 21 13.5t6 24.5v448q0 22 -8 34t-33 19q-12 4 -17 9.5t-5 16.5v24q0 22 22 29l151 44q10 3 19 3q28 0 28 -32v-595q0 -15 5.5 -24t20.5 -14l15 -5q21 -8 21 -28v-27q0 -12 -7 -19t-18 -7h-231z" />
    <glyph glyph-name="m" unicode="m" horiz-adv-x="925" 
d="M61 0q-12 0 -19 7t-7 18v28q0 21 21 28l15 5q15 5 21 13.5t6 24.5v211q0 22 -8.5 33.5t-32.5 18.5q-12 4 -17 9.5t-5 16.5v25q0 22 22 28l145 43q11 3 18 3q28 0 28 -33v-12q0 -8 5.5 -10.5t11.5 1.5l20 11q37 21 68.5 32t64.5 11q35 0 61.5 -13t48.5 -41q8 -9 13 -9
q2 0 10 4l19 13q71 46 141 46q64 0 97.5 -38.5t33.5 -107.5v-242q0 -16 6 -24.5t20 -13.5l15 -5q21 -7 21 -28v-28q0 -11 -6.5 -18t-18.5 -7h-169q-12 0 -19 7t-7 18v325q0 26 -8.5 39t-29.5 13q-37 0 -80 -24q-10 -5 -14 -12t-4 -17v-225q0 -16 6 -24.5t21 -13.5l15 -5
q21 -7 21 -28v-28q0 -11 -7 -18t-19 -7h-169q-12 0 -18.5 7t-6.5 18v325q0 26 -9 39t-29 13q-37 0 -80 -24q-10 -5 -14 -11.5t-4 -17.5v-225q0 -16 6 -24.5t20 -13.5l15 -5q21 -7 21 -28v-28q0 -11 -7 -18t-18 -7h-231z" />
    <glyph glyph-name="n" unicode="n" horiz-adv-x="643" 
d="M61 0q-12 0 -19 7t-7 18v28q0 21 21 28l15 5q15 5 21 13.5t6 24.5v211q0 22 -8.5 33.5t-32.5 18.5q-12 4 -17 9.5t-5 16.5v25q0 22 22 28l145 43q11 3 18 3q28 0 28 -33v-12q0 -8 5.5 -10.5t11.5 1.5l20 11q75 43 143 43q65 0 98.5 -38.5t33.5 -109.5v-240q0 -16 6 -24.5
t21 -13.5l15 -5q21 -7 21 -28v-28q0 -11 -7 -18t-19 -7h-169q-11 0 -18 7t-7 18v320q0 28 -9 42.5t-31 14.5q-23 0 -47 -6.5t-43 -17.5q-10 -5 -14 -11.5t-4 -17.5v-225q0 -16 6 -24.5t20 -13.5l15 -5q21 -7 21 -28v-28q0 -11 -7 -18t-18 -7h-231z" />
    <glyph glyph-name="o" unicode="o" horiz-adv-x="594" 
d="M160 22.5q-60 33.5 -93.5 93t-33.5 134.5t33.5 135t93.5 93.5t137 33.5t137 -33.5t93.5 -93.5t33.5 -135t-33.5 -134.5t-93.5 -93t-137 -33.5t-137 33.5zM385 118.5q22 28.5 22 79.5q0 55 -19 104.5t-50.5 79t-67.5 29.5q-38 0 -60.5 -28.5t-22.5 -79.5q0 -55 19 -104.5
t50.5 -79t67.5 -29.5q39 0 61 28.5z" />
    <glyph glyph-name="p" unicode="p" horiz-adv-x="620" 
d="M54 -216q-11 0 -18 7t-7 18v28q0 20 21 28l15 5q14 5 20 13.5t6 24.5v427q0 22 -8 33.5t-32 18.5q-12 4 -17 9.5t-5 16.5v25q0 22 21 28l146 43q9 3 18 3q28 0 28 -33v-12q0 -9 8 -9q5 0 9 4q27 24 55 36t63 12q59 0 106 -30t73.5 -87t26.5 -136q0 -84 -30 -144.5
t-82.5 -92t-116.5 -31.5q-46 0 -90 18q-2 1 -7 1q-9 0 -9 -10v-90q0 -16 6 -24.5t21 -12.5l25 -6q21 -5 21 -28v-28q0 -11 -7 -18t-19 -7h-241zM388 119q32 42 32 128q0 77 -31.5 122t-81.5 45q-26 0 -42 -10q-17 -12 -17 -41v-242q0 -25 15 -34q19 -10 42 -10q51 0 83 42z
" />
    <glyph glyph-name="q" unicode="q" horiz-adv-x="603" 
d="M325 -215q-12 0 -19 6.5t-7 18.5v27q0 23 21 29l25 6q15 4 21 12.5t6 24.5v108q0 7 -4.5 9t-9.5 -2q-20 -15 -49.5 -25t-63.5 -10q-93 0 -150.5 61.5t-57.5 186.5q0 84 33 146t88.5 94.5t121.5 32.5q36 0 63.5 -9.5t55.5 -28.5q9 -6 16 -6q9 0 17 7l39 26q14 10 29 10
q12 0 20.5 -7.5t8.5 -20.5v-572q0 -16 5.5 -24.5t20.5 -13.5l15 -5q21 -8 21 -29v-27q0 -12 -7 -18.5t-18 -6.5h-241zM355 94q17 11 17 34v251q0 15 -5.5 23t-17.5 13q-14 5 -32 5q-52 0 -84 -44.5t-32 -117.5q0 -81 31 -128t81 -47q26 0 42 11z" />
    <glyph glyph-name="r" unicode="r" horiz-adv-x="453" 
d="M61 0q-12 0 -19 7t-7 18v28q0 21 21 28l15 5q15 5 21 13.5t6 24.5v211q0 22 -8.5 33.5t-32.5 18.5q-12 4 -17 9.5t-5 16.5v25q0 22 22 28l145 43q11 3 18 3q28 0 28 -33v-23q0 -5 2.5 -8t6.5 -3q6 0 12 6q28 27 62.5 42.5t72.5 15.5q22 0 32 -10.5t8 -29.5l-15 -130
q-1 -13 -9 -20.5t-21 -7.5q-9 0 -16.5 4.5t-16.5 16.5q-20 27 -34.5 38t-31.5 11q-45 0 -45 -55v-202q0 -16 5.5 -24.5t20.5 -12.5l25 -6q21 -5 21 -28v-28q0 -11 -7 -18t-18 -7h-241z" />
    <glyph glyph-name="s" unicode="s" horiz-adv-x="516" 
d="M213 -1q-22 5 -34 5q-16 0 -30 -7q-2 -1 -9 -3t-14 -2q-18 0 -29 21l-63 129q-4 7 -4 14q0 15 15 23l18 10q7 4 14 4q13 0 23 -13q44 -53 90 -80.5t92 -27.5q30 0 46 12t16 35q0 22 -18.5 37.5t-60.5 27.5l-76 23q-70 21 -107 56.5t-37 98.5q0 69 48 108t134 39
q25 0 52 -5q30 -4 45 -4q13 0 27 3.5t20 3.5q17 0 26 -18l53 -111q4 -10 4 -14q0 -12 -12 -18l-10 -6q-8 -5 -17 -5q-11 0 -20 9q-47 46 -84.5 67.5t-71.5 21.5q-29 0 -43.5 -11t-14.5 -31t19 -33.5t64 -25.5l74 -20q75 -20 112.5 -57.5t37.5 -104.5q0 -77 -53 -119
t-146 -42q-36 0 -76 10z" />
    <glyph glyph-name="t" unicode="t" horiz-adv-x="388" 
d="M121 21.5q-36 32.5 -36 94.5v277q0 5 -3.5 8.5t-8.5 3.5h-31q-12 0 -19 6.5t-7 19.5v21q0 11 5 18.5t17 15.5q50 34 128 106q12 11 22 16t23 5q15 0 23.5 -9t8.5 -26v-66q0 -5 3.5 -8.5t8.5 -3.5h83q12 0 19 -6.5t7 -18.5v-44q0 -12 -7 -19t-19 -7h-84q-5 0 -8.5 -3.5
t-3.5 -8.5v-257q0 -20 9 -29t28 -9q14 0 23.5 3.5t19.5 9.5q14 9 26 9q11 0 17.5 -7t6.5 -20q0 -43 -39 -73.5t-109 -30.5q-67 0 -103 32.5z" />
    <glyph glyph-name="u" unicode="u" horiz-adv-x="627" 
d="M80 143v191q0 22 -8.5 33.5t-32.5 17.5q-12 4 -17 9.5t-5 16.5v25q0 21 22 28l152 45q10 3 18 3q28 0 28 -32v-325q0 -28 10 -41.5t33 -13.5q21 0 44.5 7t43.5 18q10 6 13.5 13t3.5 18v178q0 22 -8 33.5t-32 17.5q-12 4 -17 9.5t-5 16.5v25q0 21 21 28l152 45q10 3 18 3
q28 0 28 -32v-356q0 -16 6 -24.5t21 -13.5l14 -5q22 -6 22 -28v-27q0 -12 -7 -19t-19 -7h-152q-14 0 -21.5 6.5t-11.5 20.5l-2 9q-2 8 -6 10t-10 -2l-18 -14q-52 -41 -136 -41q-142 0 -142 154z" />
    <glyph glyph-name="v" unicode="v" horiz-adv-x="522" 
d="M230 0q-22 0 -31 20l-135 338q-10 24 -19 36.5t-21 17.5l-18 8q-10 5 -14.5 11t-4.5 18v26q0 25 25 25h154q21 0 28 -21l97 -288q3 -7 8 -7t8 7l64 187q4 16 4 19q0 7 -3.5 11.5t-11.5 8.5l-21 8q-8 4 -11.5 9.5t-3.5 15.5v25q0 25 25 25h157q25 0 25 -25v-25
q0 -17 -17 -26l-13 -8q-14 -9 -24 -21t-18 -35l-127 -339q-8 -21 -31 -21h-71z" />
    <glyph glyph-name="w" unicode="w" horiz-adv-x="793" 
d="M209 0q-21 0 -28 20l-114 340q-9 25 -17.5 36.5t-23.5 18.5l-15 7q-9 4 -13.5 10t-4.5 18v25q0 12 7 18.5t19 6.5h147q22 0 28 -21l79 -269q3 -9 8 -9t8 9l60 169q3 8 3 14q0 12 -14 20l-22 10q-10 6 -14 11.5t-4 15.5v25q0 12 7 18.5t19 6.5h124q22 0 29 -20l95 -272
q3 -8 8 -8q6 0 8 8l51 174q3 11 3 17q0 8 -3.5 13t-12.5 10l-13 6q-8 5 -11.5 10t-3.5 14v23q0 25 25 25h148q25 0 25 -25v-21q0 -11 -3.5 -16.5t-11.5 -10.5l-14 -7q-15 -8 -24.5 -20.5t-16.5 -36.5l-102 -343q-7 -20 -28 -20h-75q-10 0 -17 4.5t-11 15.5l-81 229
q-3 8 -8 8t-8 -8l-82 -229q-4 -11 -10 -15.5t-17 -4.5h-78z" />
    <glyph glyph-name="x" unicode="x" horiz-adv-x="548" 
d="M36 0q-12 0 -18.5 7t-6.5 19v23q0 9 3.5 14.5t12.5 9.5l17 8q21 10 35 21t30 33l77 108q3 5 3 8q0 5 -3 8l-69 103q-16 22 -27 33t-26 17l-24 10q-12 4 -16.5 9.5t-4.5 17.5v26q0 12 7 18.5t18 6.5h138q19 0 31 -16l93 -137q3 -6 8 -6q4 0 8 6l30 42q8 13 8 19
q0 7 -11 15l-13 7q-8 5 -11.5 11t-3.5 15v19q0 12 7 18.5t18 6.5h159q26 0 26 -25v-24q0 -16 -16 -23l-20 -11q-18 -10 -30 -20.5t-29 -32.5l-68 -94q-3 -3 -3 -8q0 -3 3 -8l79 -117q25 -38 53 -49l24 -9q12 -5 16.5 -10.5t4.5 -17.5v-26q0 -12 -7 -18.5t-19 -6.5h-137
q-19 0 -31 16l-101 149q-3 6 -8 6t-9 -6l-39 -53q-8 -9 -8 -19q0 -9 11 -15l13 -8q15 -8 15 -25v-20q0 -11 -7 -18t-18 -7h-164z" />
    <glyph glyph-name="y" unicode="y" horiz-adv-x="524" 
d="M108 -216q-10 0 -16 4.5t-6 11.5q0 6 5 14l94 154q13 20 13 40q0 14 -6 29l-127 322q-10 24 -19 36t-23 18l-15 7q-10 5 -14.5 11t-4.5 18v26q0 25 25 25h151q22 0 29 -20l98 -290q3 -6 7 -6q5 0 6 6l72 189q4 9 4 18q0 13 -16 21l-19 7q-15 6 -15 24v26q0 12 7 18.5
t18 6.5h151q12 0 19 -6.5t7 -18.5v-25q0 -9 -3.5 -14t-12.5 -12l-13 -8q-16 -11 -24.5 -22.5t-17.5 -34.5l-136 -346l-84 -208q-5 -11 -11 -16t-17 -5h-106z" />
    <glyph glyph-name="z" unicode="z" horiz-adv-x="511" 
d="M401 -3q-33 3 -40 3h-304q-11 0 -18 7t-7 19v39q0 15 9 28l247 313q2 2 2 6q0 7 -8 7h-30q-45 0 -72 -15.5t-53 -60.5l-22 -38q-8 -14 -24 -14q-6 0 -9 1l-15 4q-17 4 -17 20q0 7 1 11l35 152q3 13 10.5 20t17.5 7q6 0 22 -2q22 -4 50 -4h269q12 0 19 -6.5t7 -18.5v-40
q0 -13 -11 -29l-241 -313q-2 -2 -2 -6q0 -6 8 -6h32q45 0 78 17t57 58l27 45q11 15 24 15q4 0 10 -2l18 -5q15 -4 15 -21q0 -7 -1 -10l-38 -162q-5 -21 -26 -21q-6 0 -20 2z" />
    <glyph glyph-name="braceleft" unicode="{" horiz-adv-x="449" 
d="M354 -170q-106 0 -157 43t-51 124q0 34 15 85q7 26 10.5 43.5t3.5 36.5q0 36 -27.5 56.5t-80.5 20.5h-8q-12 0 -18.5 7t-6.5 18v42q0 11 6.5 18t18.5 7h8q53 0 80.5 20.5t27.5 56.5q0 19 -3.5 36.5t-10.5 43.5q-15 51 -15 85q0 81 51 124t157 43h33q13 0 20 -7t7 -18v-34
q0 -11 -7 -17.5t-20 -7.5l-23 -2q-72 -4 -72 -75q0 -28 12 -78q5 -20 8.5 -41.5t3.5 -42.5q0 -45 -24 -77.5t-74 -47.5q-7 -2 -7 -7q0 -3 7 -7q50 -15 74 -47.5t24 -77.5q0 -21 -3.5 -42.5t-8.5 -41.5q-12 -50 -12 -78q0 -71 72 -75l23 -2q13 -1 20 -7.5t7 -17.5v-34
q0 -11 -7 -18t-20 -7h-33z" />
    <glyph glyph-name="bar" unicode="|" horiz-adv-x="309" 
d="M133 -100q-12 0 -18.5 7t-6.5 18v790q0 11 6.5 18t18.5 7h43q12 0 18.5 -7t6.5 -18v-790q0 -11 -6.5 -18t-18.5 -7h-43z" />
    <glyph glyph-name="braceright" unicode="}" horiz-adv-x="449" 
d="M62 -170q-12 0 -19 6.5t-7 18.5v34q0 11 7 17.5t19 7.5l23 2q36 2 54.5 21.5t18.5 53.5q0 28 -12 78q-13 50 -13 84q0 45 24 77.5t74 47.5q8 3 8 7q0 5 -8 7q-50 15 -74 47.5t-24 77.5q0 34 13 84q12 50 12 78q0 34 -18.5 53.5t-54.5 21.5l-23 2q-12 1 -19 7.5t-7 17.5
v34q0 12 7 18.5t19 6.5h33q106 0 157.5 -43t51.5 -124q0 -34 -15 -85q-7 -26 -10.5 -43.5t-3.5 -36.5q0 -36 27.5 -56.5t79.5 -20.5h8q12 0 19 -7t7 -18v-42q0 -11 -7 -18t-19 -7h-8q-52 0 -79.5 -20.5t-27.5 -56.5q0 -19 3.5 -36.5t10.5 -43.5q15 -51 15 -85
q0 -81 -51.5 -124t-157.5 -43h-33z" />
    <glyph glyph-name="asciitilde" unicode="~" horiz-adv-x="627" 
d="M89.5 264q-8.5 8 -8.5 22q0 7 1 11q11 56 45 86t83 30q43 0 91 -20l52 -23q49 -21 75 -21q19 0 31.5 9.5t23.5 33.5q11 23 31 23q32 0 32 -28q0 -8 -1 -13q-10 -56 -44 -86t-84 -30q-42 0 -89 20l-53 23q-49 21 -74 21q-19 0 -31.5 -10.5t-24.5 -32.5q-11 -23 -31 -23
q-16 0 -24.5 8z" />
    <glyph glyph-name="uni00A0" unicode="&#xa0;" horiz-adv-x="168" 
 />
    <glyph glyph-name="exclamdown" unicode="&#xa1;" horiz-adv-x="358" 
d="M249 486q27 -26 27 -65t-27 -64.5t-70 -25.5q-42 0 -69.5 25.5t-27.5 64.5t27.5 65t69.5 26q43 0 70 -26zM193 264q12 0 18 -5t10 -17q27 -101 37 -174.5t10 -148.5v-93q0 -12 -7 -19t-19 -7h-126q-12 0 -19 7t-7 19v92q0 77 10.5 150t37.5 174q4 12 10 17t17 5h28z" />
    <glyph glyph-name="cent" unicode="&#xa2;" horiz-adv-x="522" 
d="M264 0q-11 0 -17.5 6.5t-6.5 17.5v78q0 10 -11 13q-93 21 -144.5 89.5t-51.5 165.5q0 103 53 170.5t142 85.5q12 2 12 13v77q0 11 6.5 17.5t17.5 6.5h40q11 0 17.5 -6.5t6.5 -17.5v-80q0 -10 11 -13q16 -4 28 -4q11 0 24 4t19 4q18 0 26 -18l56 -129q3 -7 3 -13
q0 -14 -15 -23l-8 -4q-10 -5 -17 -5q-14 0 -24 13q-47 52 -81.5 75t-72.5 23q-40 0 -66.5 -29t-26.5 -83q0 -59 23 -103.5t63 -69t90 -24.5q49 0 85 28q19 14 30 14q8 0 15 -4q14 -8 14 -24q0 -13 -7 -27q-21 -48 -61.5 -76.5t-97.5 -36.5q-10 -2 -10 -12v-75
q0 -11 -6.5 -17.5t-17.5 -6.5h-40z" />
    <glyph glyph-name="sterling" unicode="&#xa3;" horiz-adv-x="653" 
d="M524 -22q-8 0 -13.5 2.5t-13.5 8.5q-18 11 -34 11h-385q-12 0 -18.5 7t-6.5 18v34q0 13 3.5 21t12.5 17l55 51q39 35 54.5 61.5t15.5 55.5q0 7 -2 19q-2 11 -13 11h-88q-12 0 -18.5 7t-6.5 19v34q0 26 25 26h40q7 0 9.5 3.5t-1.5 10.5q-21 35 -32 63t-11 61q0 90 70 141
t191 51q37 0 76.5 -7t73.5 -18q23 -9 31 -32l39 -118q2 -4 2 -12q0 -15 -16 -21l-26 -9q-5 -2 -13 -2q-14 0 -22 15q-37 61 -68 84.5t-74 23.5q-44 0 -69 -24.5t-25 -66.5q0 -35 8 -62t25 -72q4 -9 14 -9h178q12 0 18.5 -7t6.5 -19v-34q0 -26 -25 -26h-166q-11 0 -11 -11
q0 -13 -3 -25q-6 -23 -21.5 -45t-46.5 -51l-28 -26q-4 -3 -4 -7q0 -6 9 -6h138q73 0 115 20t89 76q9 10 20 10q6 0 13 -3l25 -14q13 -6 13 -21q0 -8 -2 -13l-66 -181q-6 -20 -28 -20h-13z" />
    <glyph glyph-name="currency" unicode="&#xa4;" horiz-adv-x="619" 
d="M71 112q-9 9 -9 18q0 10 9 17l68 59q9 9 3 17q-27 46 -27 100t27 100q2 4 2 6q0 5 -5 10l-68 60q-9 7 -9 17q0 9 9 18l28 28q8 8 17 8t18 -9l61 -71q6 -8 17 -3q43 23 98 23q54 0 98 -23q4 -2 7 -2q5 0 10 5l61 71q7 9 17 9q8 0 18 -8l28 -28q8 -10 8 -18q0 -9 -9 -17
l-68 -60q-8 -8 -3 -16q28 -45 28 -100t-28 -100q-2 -4 -2 -7q0 -5 5 -10l68 -59q9 -9 9 -18t-8 -17l-28 -28q-9 -9 -18 -9q-10 0 -17 9l-61 71q-8 8 -17 3q-44 -23 -98 -23q-55 0 -98 23q-6 2 -7 2q-5 0 -10 -5l-61 -71q-8 -9 -17 -9t-18 9zM381.5 241q24.5 26 24.5 68
q0 51 -28.5 86t-74.5 35q-40 0 -64.5 -25.5t-24.5 -68.5q0 -51 29 -86t74 -35q40 0 64.5 26z" />
    <glyph glyph-name="yen" unicode="&#xa5;" horiz-adv-x="705" 
d="M227 0q-12 0 -18.5 7t-6.5 18v29q0 12 4.5 18t15.5 11l26 8q16 5 22 14t6 26v21q0 5 -3.5 8.5t-8.5 3.5h-128q-11 0 -18 6.5t-7 18.5v31q0 12 7 18.5t18 6.5h126q6 0 9 4t0 10l-3 11l-5 11q-4 7 -14 7h-113q-11 0 -18 7t-7 19v31q0 12 7 18.5t18 6.5h55q7 0 9.5 3.5
t-1.5 10.5l-96 157q-20 32 -32 46t-27 22l-17 9q-10 5 -14 11t-4 17v29q0 12 7 18.5t19 6.5h266q12 0 18.5 -7t6.5 -18v-28q0 -10 -4 -16t-14 -10l-17 -7q-25 -10 -25 -29q0 -10 8 -24l109 -186q5 -6 8 -6q5 0 8 6l109 182q7 13 7 25q0 21 -24 32l-20 9q-10 5 -14 10.5
t-4 15.5v26q0 11 7 18t19 7h193q13 0 19.5 -6.5t6.5 -18.5v-29q0 -10 -4.5 -16t-13.5 -12l-15 -8q-17 -9 -28 -21.5t-27 -39.5l-96 -165q-2 -6 -2 -7q0 -7 10 -7h61q25 0 25 -25v-31q0 -12 -6.5 -19t-18.5 -7h-115q-9 0 -13 -7q-1 -2 -5 -13l-2 -10l-1 -3q0 -10 11 -10h125
q25 0 25 -25v-31q0 -12 -7 -18.5t-18 -6.5h-125q-5 0 -8.5 -3.5t-3.5 -8.5v-21q0 -17 6 -26t22 -14l25 -8q12 -5 16.5 -11t4.5 -18v-29q0 -11 -7 -18t-18 -7h-268z" />
    <glyph glyph-name="brokenbar" unicode="&#xa6;" horiz-adv-x="309" 
d="M133 370q-12 0 -18.5 7t-6.5 18v320q0 11 6.5 18t18.5 7h43q12 0 18.5 -7t6.5 -18v-320q0 -11 -6.5 -18t-18.5 -7h-43zM133 -100q-12 0 -18.5 7t-6.5 18v320q0 11 6.5 18t18.5 7h43q12 0 18.5 -7t6.5 -18v-320q0 -11 -6.5 -18t-18.5 -7h-43z" />
    <glyph glyph-name="section" unicode="&#xa7;" horiz-adv-x="586" 
d="M265 -106q-25 5 -44 5q-12 0 -24.5 -5t-17.5 -5h-10q-12 0 -18 5t-12 17l-58 120q-4 7 -4 16q0 15 14 21l13 7q8 4 16 4q11 0 22 -11q50 -54 88.5 -78.5t77.5 -24.5q34 0 53 15t19 38q0 26 -20 41.5t-63 28.5l-97 29q-163 48 -164 172q0 84 69 139q5 4 5 8q0 5 -4 9
q-41 43 -41 107q0 74 52 117t144 43q15 0 58 -5q25 -5 44 -5q12 0 24.5 4.5t17.5 4.5h10q12 0 17.5 -5t12.5 -17l58 -119q4 -8 4 -16q0 -14 -14 -21l-13 -7q-7 -4 -16 -4q-11 0 -22 11q-51 54 -89 78.5t-77 24.5q-34 0 -53 -15t-19 -38q0 -26 20.5 -41.5t63.5 -28.5l96 -29
q81 -25 122 -67t42 -105q0 -86 -69 -139q-5 -5 -5 -9t4 -8q41 -43 41 -108q0 -73 -52 -116t-144 -43q-16 0 -58 5zM380 210q2 -1 5 -1q6 0 12 6q21 23 21 54q0 28 -18.5 45.5t-62.5 31.5l-133 45q-2 1 -5 1q-6 0 -12 -6q-9 -10 -15 -24.5t-6 -29.5q0 -28 18.5 -46t62.5 -32z
" />
    <glyph glyph-name="dieresis" unicode="&#xa8;" horiz-adv-x="482" 
d="M73 592.5q-23 20.5 -23 54.5t23 54.5t61 20.5t60.5 -20t22.5 -55t-22.5 -55t-60.5 -20t-61 20.5zM287 592.5q-23 20.5 -23 54.5t23 54.5t61 20.5t61 -20.5t23 -54.5t-23 -54.5t-61 -20.5t-61 20.5z" />
    <glyph glyph-name="copyright" unicode="&#xa9;" horiz-adv-x="799" 
d="M213.5 35q-82.5 46 -129 128.5t-46.5 186.5t46.5 186.5t129 128.5t186.5 46t186 -46t128.5 -128.5t46.5 -186.5t-46.5 -186.5t-128.5 -128.5t-186 -46t-186.5 46zM555.5 86.5q58.5 35.5 93 99t34.5 145.5q0 93 -37.5 165t-108 112.5t-165.5 40.5q-70 0 -128.5 -35.5
t-93 -99t-34.5 -145.5q0 -93 37.5 -165t108 -112.5t165.5 -40.5q70 0 128.5 35.5zM271.5 209.5q-52.5 54.5 -52.5 140.5q0 88 52.5 141.5t136.5 53.5q10 0 20 -2t13 -3q17 -5 31 -5q8 0 18 3.5t14 3.5q16 0 23 -16l41 -101q2 -6 2 -9q0 -12 -12 -18l-9 -5q-7 -4 -14 -4
q-11 0 -18 10q-36 44 -59.5 61t-51.5 17q-26 0 -42.5 -20t-16.5 -57q0 -64 33.5 -103.5t86.5 -39.5q33 0 65 25q11 8 19 8t13 -4q12 -6 12 -21q0 -7 -5 -19q-19 -44 -60 -67.5t-93 -23.5q-94 0 -146.5 54.5z" />
    <glyph glyph-name="ordfeminine" unicode="&#xaa;" horiz-adv-x="426" 
d="M64.5 359.5q-32.5 29.5 -32.5 80.5q0 116 165 116q19 0 31 -2h3q9 0 9 10v30q0 26 -12 39.5t-32 13.5q-19 0 -36 -14t-41 -47q-11 -16 -25 -16t-23 18l-26 57q-3 6 -3 12q0 12 16 21q23 11 63 19.5t80 8.5q84 0 122 -36.5t39 -105.5l2 -143q0 -15 12 -15q5 0 14 7t16 7
t11.5 -5.5t4.5 -13.5q0 -32 -21.5 -50.5t-58.5 -18.5q-47 0 -71 34l-4 5q-5 5 -9 5q-5 0 -9 -4q-42 -42 -98 -42q-54 0 -86.5 29.5zM232 425q10 10 10 23v35q0 13 -9 14q-14 2 -21 2q-29 0 -44 -13t-15 -34q0 -20 11 -31t29 -11q22 0 39 15zM71 205q-11 0 -18 6.5t-7 18.5
v26q0 13 7 19.5t18 6.5h296q12 0 18.5 -7t6.5 -19v-26q0 -12 -7 -18.5t-18 -6.5h-296z" />
    <glyph glyph-name="guillemotleft" unicode="&#xab;" horiz-adv-x="552" 
d="M246 35q-10 -4 -14 -4q-12 0 -19 10l-164 194q-7 8 -7 18q0 11 7 18l164 195q7 10 19 10q4 0 14 -4l19 -10q12 -7 12 -18q0 -4 -4 -14l-89 -168l-2 -8q0 -3 2 -9l89 -168q4 -10 4 -14q0 -12 -12 -18zM466 35q-10 -4 -14 -4q-12 0 -19 10l-164 194q-7 8 -7 18q0 11 7 18
l164 195q7 10 19 10q4 0 14 -4l19 -10q12 -7 12 -18q0 -4 -4 -14l-89 -168l-2 -8q0 -3 2 -9l89 -168q4 -10 4 -14q0 -12 -12 -18z" />
    <glyph glyph-name="logicalnot" unicode="&#xac;" horiz-adv-x="677" 
d="M498 166q-25 0 -25 25v126q0 5 -3.5 8.5t-8.5 3.5h-350q-12 0 -19 7t-7 18v36q0 11 7 18t19 7h425q12 0 18.5 -7t6.5 -18v-199q0 -25 -25 -25h-38z" />
    <glyph glyph-name="uni00AD" unicode="&#xad;" horiz-adv-x="389" 
d="M66 251q-12 0 -18.5 7t-6.5 18v52q0 25 25 25h257q13 0 19.5 -6.5t6.5 -18.5v-52q0 -12 -7 -18.5t-19 -6.5h-257z" />
    <glyph glyph-name="registered" unicode="&#xae;" horiz-adv-x="799" 
d="M213.5 35q-82.5 46 -129 128.5t-46.5 186.5t46.5 186.5t129 128.5t186.5 46t186 -46t128.5 -128.5t46.5 -186.5t-46.5 -186.5t-128.5 -128.5t-186 -46t-186.5 46zM555.5 86.5q58.5 35.5 93 99t34.5 145.5q0 93 -37.5 165t-108 112.5t-165.5 40.5q-70 0 -128.5 -35.5
t-93 -99t-34.5 -145.5q0 -93 37.5 -165t108 -112.5t165.5 -40.5q70 0 128.5 35.5zM236 166q-16 0 -16 17v15q0 14 13 19l10 3q8 3 11.5 7.5t3.5 13.5v221q0 18 -15 24l-10 5q-13 4 -13 18v14q0 14 16 17q42 7 126 7q101 0 150.5 -31t49.5 -88q0 -63 -70 -84q-10 -3 -4 -12
l52 -76q11 -16 19 -23.5t19 -13.5l7 -3q9 -4 11.5 -7.5t2.5 -11.5v-14q0 -17 -16 -17h-83q-27 0 -38 22l-57 118q-12 25 -30 25q-7 0 -7 -8v-82q0 -9 3.5 -13.5t11.5 -7.5l10 -3q13 -5 13 -19v-15q0 -17 -16 -17h-154zM441 392.5q12 12.5 12 34.5q0 30 -18.5 48.5
t-45.5 18.5q-11 0 -16 -5t-5 -17v-78q0 -8 11 -11q18 -3 30 -3q20 0 32 12.5z" />
    <glyph glyph-name="macron" unicode="&#xaf;" horiz-adv-x="396" 
d="M75 583q-12 0 -18.5 7t-6.5 19v46q0 12 7 18.5t18 6.5h246q25 0 25 -25v-46q0 -26 -25 -26h-246z" />
    <glyph glyph-name="degree" unicode="&#xb0;" horiz-adv-x="385" 
d="M82 451.5q-44 42.5 -44 108.5t44 108.5t111 42.5q66 0 110 -42.5t44 -108.5t-44 -108.5t-110 -42.5q-67 0 -111 42.5zM249.5 495.5q18.5 20.5 18.5 54.5q0 41 -22.5 68t-60.5 27q-30 0 -49 -20.5t-19 -54.5q0 -41 22.5 -68t60.5 -27q31 0 49.5 20.5z" />
    <glyph glyph-name="plusminus" unicode="&#xb1;" horiz-adv-x="647" 
d="M303 161q-11 0 -18 7t-7 18v158q0 5 -3.5 8.5t-8.5 3.5h-155q-12 0 -19 7t-7 18v36q0 11 7 18t19 7h155q5 0 8.5 3.5t3.5 8.5v158q0 11 7 18t18 7h40q12 0 19 -7t7 -18v-158q0 -5 3.5 -8.5t8.5 -3.5h155q12 0 18.5 -7t6.5 -18v-36q0 -11 -6.5 -18t-18.5 -7h-155
q-5 0 -8.5 -3.5t-3.5 -8.5v-158q0 -11 -7 -18t-19 -7h-40zM111 0q-12 0 -19 7t-7 18v36q0 11 7 18t19 7h425q12 0 18.5 -7t6.5 -18v-36q0 -11 -6.5 -18t-18.5 -7h-425z" />
    <glyph glyph-name="uni00B2" unicode="&#xb2;" horiz-adv-x="346" 
d="M264 394q-8 0 -20 6t-26 6h-175q-20 0 -20 20v29q0 16 12 26q86 69 118 109.5t32 80.5q0 19 -9 29t-25 10q-20 0 -37 -17t-42 -60q-7 -12 -16 -12q-3 0 -9 2l-15 5q-12 5 -12 16q0 5 1 8l25 87q3 9 8 13.5t15 8.5q18 7 47 11t53 4q65 0 99 -27t34 -77q0 -46 -42 -86.5
t-125 -88.5q-4 -4 -4 -5q0 -5 7 -5h37q38 0 55.5 9t38.5 41q8 11 16 11q3 0 9 -2l10 -3q17 -6 13 -24l-28 -110q-4 -15 -17 -15h-8z" />
    <glyph glyph-name="uni00B3" unicode="&#xb3;" horiz-adv-x="334" 
d="M72 422.5q-34 22.5 -47 56.5q-2 8 -2 12q0 12 11 19q8 4 12 4q8 0 17 -7q32 -30 71 -30q26 0 39.5 15t13.5 40q0 38 -29 49q-2 1 -5 1q-6 0 -10 -4l-10 -8q-6 -6 -13 -6q-6 0 -12 7l-12 13q-6 8 -6 13q0 7 7 13l79 76q4 3 3 6.5t-6 3.5h-30q-24 0 -38.5 -9t-34.5 -34
q-7 -10 -17 -10q-3 0 -9 2l-7 3q-16 8 -10 23l33 96q5 15 17 15h8q8 0 20 -6q11 -6 25 -6h149q20 0 20 -20v-24q0 -11 -11 -22l-74 -65l-2 -4q0 -4 6 -6q44 -15 65.5 -41.5t21.5 -68.5q0 -54 -37.5 -86.5t-104.5 -32.5q-57 0 -91 22.5z" />
    <glyph glyph-name="acute" unicode="&#xb4;" horiz-adv-x="363" 
d="M101 551q-8 -3 -13 -3q-12 0 -20 14l-13 27q-5 8 -5 15q0 11 13 20l173 119q9 6 16 6q12 0 19 -13l38 -74q4 -7 4 -14q0 -13 -15 -19z" />
    <glyph glyph-name="uni00B5" unicode="&#xb5;" horiz-adv-x="627" 
d="M99 -216q-16 0 -25 10t-8 27q3 72 8 166q6 134 6 151v196q0 22 -8.5 33.5t-32.5 17.5q-12 4 -17 9.5t-5 16.5v25q0 21 22 28l152 45q10 3 18 3q28 0 28 -32v-323q0 -28 11.5 -42t36.5 -14q41 0 83 24q10 6 13.5 13t3.5 18v178q0 22 -8 33.5t-32 17.5q-12 4 -17 9.5
t-5 16.5v25q0 21 21 28l152 45q10 3 18 3q28 0 28 -32v-356q0 -16 6 -24.5t21 -13.5l14 -5q22 -6 22 -28v-27q0 -12 -7 -19t-19 -7h-152q-14 0 -21.5 6.5t-11.5 20.5l-2 9q-2 8 -6.5 10t-9.5 -3l-16 -13q-50 -41 -107 -41q-37 0 -73 26q-4 3 -7 3q-5 0 -5 -9l9 -188
q1 -17 -8.5 -27t-25.5 -10h-44z" />
    <glyph glyph-name="paragraph" unicode="&#xb6;" horiz-adv-x="702" 
d="M263 -100q-12 0 -19 7t-7 18v23q0 12 5 18t16 10l24 8q16 5 22 14t6 26v262q0 13 -13 12q-51 -6 -90 -6q-87 0 -136.5 50.5t-49.5 128.5q0 116 74 172.5t209 56.5h335q12 0 18.5 -7t6.5 -18v-23q0 -12 -4.5 -18t-15.5 -10l-25 -8q-15 -5 -21 -14t-6 -26v-552q0 -17 6 -26
t21 -14l25 -8q11 -4 15.5 -10t4.5 -18v-23q0 -11 -6.5 -18t-18.5 -7h-376zM472 -18q15 7 20 15.5t5 26.5v552q0 18 -5 26.5t-20 15.5q-8 3 -21 3q-14 0 -21 -3q-15 -7 -20 -15.5t-5 -26.5v-552q0 -18 5 -26.5t20 -15.5q7 -3 21 -3q13 0 21 3z" />
    <glyph glyph-name="periodcentered" unicode="&#xb7;" horiz-adv-x="317" 
d="M88.5 298.5q-27.5 25.5 -27.5 64.5t27.5 65t69.5 26q43 0 70 -26t27 -65t-27 -64.5t-70 -25.5q-42 0 -69.5 25.5z" />
    <glyph glyph-name="cedilla" unicode="&#xb8;" horiz-adv-x="303" 
d="M93.5 -193q-25.5 12 -37.5 31q-6 12 -6 19q0 6 5 13q6 7 15 7t17 -5q23 -16 43 -16q12 0 19 7t7 18q0 12 -6 19t-21 13l-16 7q-16 6 -16 16l2 8l24 75l65 -6l-14 -43l-1 -4q0 -5 9 -8l4 -1q34 -12 50.5 -30.5t16.5 -47.5q0 -39 -26.5 -61.5t-72.5 -22.5q-35 0 -60.5 12z
" />
    <glyph glyph-name="uni00B9" unicode="&#xb9;" horiz-adv-x="290" 
d="M67 406q-20 0 -20 20v13q0 8 3.5 12.5t11.5 7.5l20 8q11 4 15 9t4 16v162q0 16 -17 11l-32 -11q-8 -2 -10 -2q-11 0 -15 11l-6 14q-4 10 -4 12q0 7 11 15l95 58q11 8 23 8h50q20 0 20 -20v-258q0 -11 4 -16t15 -9l20 -8q8 -3 11.5 -7.5t3.5 -12.5v-13q0 -20 -20 -20h-183
z" />
    <glyph glyph-name="ordmasculine" unicode="&#xba;" horiz-adv-x="435" 
d="M118.5 354.5q-43.5 24.5 -68 67t-24.5 96.5t24.5 97t68 67t99.5 24t99.5 -24t67.5 -67t24 -97t-24 -96.5t-67.5 -67t-99.5 -24.5t-99.5 24.5zM276.5 427q13.5 16 13.5 47q0 37 -13.5 72t-35.5 57t-46 22q-23 0 -36.5 -16t-13.5 -47q0 -37 13.5 -72t35.5 -57t46 -22
q23 0 36.5 16zM69 205q-11 0 -18 6.5t-7 18.5v26q0 13 7 19.5t18 6.5h297q13 0 19.5 -7t6.5 -19v-26q0 -12 -7 -18.5t-19 -6.5h-297z" />
    <glyph glyph-name="guillemotright" unicode="&#xbb;" horiz-adv-x="552" 
d="M67 45q-12 6 -12 18q0 4 4 14l89 168q2 3 2 9q0 5 -2 8l-89 168q-4 10 -4 14q0 11 12 18l19 10q10 4 14 4q12 0 19 -10l164 -195q8 -8 8 -18q0 -8 -8 -18l-164 -194q-7 -10 -19 -10q-4 0 -14 4zM287 45q-12 6 -12 18q0 4 4 14l89 168q2 3 2 9q0 5 -2 8l-89 168
q-4 10 -4 14q0 11 12 18l19 10q10 4 14 4q12 0 19 -10l164 -195q8 -8 8 -18q0 -8 -8 -18l-164 -194q-7 -10 -19 -10q-4 0 -14 4z" />
    <glyph glyph-name="onequarter" unicode="&#xbc;" horiz-adv-x="786" 
d="M67 336q-20 0 -20 20v13q0 8 3.5 12.5t11.5 7.5l20 8q11 4 15 9t4 16v162q0 16 -17 11l-32 -11q-8 -2 -10 -2q-11 0 -15 11l-6 14q-4 10 -4 12q0 7 11 15l95 58q11 8 23 8h50q20 0 20 -20v-258q0 -11 4 -16t15 -9l20 -8q8 -3 11.5 -7.5t3.5 -12.5v-13q0 -20 -20 -20h-183
zM400 389q-12 8 -12 19q0 9 6 16l176 275q8 12 19 12q8 0 17 -6l44 -30q12 -7 12 -21q0 -8 -6 -16l-204 -254q-9 -11 -21 -11q-9 0 -15 5zM118 26q-12 8 -12 20q0 9 6 16l204 255q9 11 21 11q8 0 16 -6l15 -10q12 -7 12 -20q0 -8 -6 -16l-176 -275q-8 -12 -19 -12
q-9 0 -16 6zM563 0q-21 0 -21 20v13q0 14 15 20l15 5q10 4 14.5 9.5t4.5 15.5v11q0 10 -10 10h-122q-20 0 -20 19v18q0 13 8 24l142 187q9 12 24 12h120q20 0 20 -20v-13q0 -14 -15 -20l-18 -7q-10 -4 -14 -10t-4 -18v-102q0 -10 10 -10h34q20 0 20 -20v-20q0 -20 -20 -20
h-34q-10 0 -10 -10v-11q0 -10 4 -15.5t15 -9.5l14 -5q15 -5 15 -20v-13q0 -20 -20 -20h-167zM581 164q10 0 10 10v77q0 6 -4 7t-7 -4l-57 -81q-2 -4 -0.5 -6.5t5.5 -2.5h53z" />
    <glyph glyph-name="onehalf" unicode="&#xbd;" horiz-adv-x="814" 
d="M67 336q-20 0 -20 20v13q0 8 3.5 12.5t11.5 7.5l20 8q11 4 15 9t4 16v162q0 16 -17 11l-32 -11q-8 -2 -10 -2q-11 0 -15 11l-6 14q-4 10 -4 12q0 7 11 15l95 58q11 8 23 8h50q20 0 20 -20v-258q0 -11 4 -16t15 -9l20 -8q8 -3 11.5 -7.5t3.5 -12.5v-13q0 -20 -20 -20h-183
zM400 389q-12 8 -12 19q0 9 6 16l176 275q8 12 19 12q8 0 17 -6l44 -30q12 -7 12 -21q0 -8 -6 -16l-204 -254q-9 -11 -21 -11q-9 0 -15 5zM118 26q-12 8 -12 20q0 9 6 16l204 255q9 11 21 11q8 0 16 -6l15 -10q12 -7 12 -20q0 -8 -6 -16l-176 -275q-8 -12 -19 -12
q-9 0 -16 6zM732 -12q-8 0 -20 6t-26 6h-175q-20 0 -20 20v29q0 16 12 26q86 69 118 109.5t32 80.5q0 19 -9 29t-25 10q-20 0 -37 -17t-42 -60q-7 -12 -16 -12q-3 0 -9 2l-15 5q-12 5 -12 16q0 5 1 8l25 87q3 9 8 13.5t15 8.5q18 7 47 11t53 4q65 0 99 -27t34 -77
q0 -46 -42 -86.5t-125 -88.5q-4 -4 -4 -5q0 -5 7 -5h37q38 0 55.5 9t38.5 41q8 11 16 11q3 0 9 -2l10 -3q17 -6 13 -24l-28 -110q-4 -15 -17 -15h-8z" />
    <glyph glyph-name="threequarters" unicode="&#xbe;" horiz-adv-x="812" 
d="M72 352.5q-34 22.5 -47 56.5q-2 8 -2 12q0 12 11 19q8 4 12 4q8 0 17 -7q32 -30 71 -30q26 0 39.5 15t13.5 40q0 38 -29 49q-2 1 -5 1q-6 0 -10 -4l-10 -8q-6 -6 -13 -6q-6 0 -12 7l-12 13q-6 8 -6 13q0 7 7 13l79 76q4 3 3 6.5t-6 3.5h-30q-24 0 -38.5 -9t-34.5 -34
q-7 -10 -17 -10q-3 0 -9 2l-7 3q-16 8 -10 23l33 96q5 15 17 15h8q8 0 20 -6q11 -6 25 -6h149q20 0 20 -20v-24q0 -11 -11 -22l-74 -65l-2 -4q0 -4 6 -6q44 -15 65.5 -41.5t21.5 -68.5q0 -54 -37.5 -86.5t-104.5 -32.5q-57 0 -91 22.5zM426 389q-12 8 -12 19q0 9 6 16
l176 275q8 12 19 12q8 0 17 -6l44 -30q12 -7 12 -21q0 -8 -6 -16l-204 -254q-9 -11 -21 -11q-9 0 -15 5zM144 26q-12 8 -12 20q0 9 6 16l204 255q9 11 21 11q8 0 16 -6l15 -10q12 -7 12 -20q0 -8 -6 -16l-176 -275q-8 -12 -19 -12q-9 0 -16 6zM589 0q-21 0 -21 20v13
q0 14 15 20l15 5q10 4 14.5 9.5t4.5 15.5v11q0 10 -10 10h-122q-20 0 -20 19v18q0 13 8 24l142 187q9 12 24 12h120q20 0 20 -20v-13q0 -14 -15 -20l-18 -7q-10 -4 -14 -10t-4 -18v-102q0 -10 10 -10h34q20 0 20 -20v-20q0 -20 -20 -20h-34q-10 0 -10 -10v-11q0 -10 4 -15.5
t15 -9.5l14 -5q15 -5 15 -20v-13q0 -20 -20 -20h-167zM607 164q10 0 10 10v77q0 6 -4 7t-7 -4l-57 -81q-2 -4 -0.5 -6.5t5.5 -2.5h53z" />
    <glyph glyph-name="questiondown" unicode="&#xbf;" horiz-adv-x="539" 
d="M366.5 486q27.5 -26 27.5 -65t-27.5 -64.5t-69.5 -25.5q-43 0 -70 25.5t-27 64.5t27 65t70 26q42 0 69.5 -26zM341 228q0 -12 -9 -24l-27 -36q-55 -75 -78 -116t-23 -81q0 -42 21 -63.5t60 -21.5q38 0 72 28.5t76 96.5q9 17 23 17q6 0 12 -3l22 -9q16 -6 16 -19
q0 -3 -2 -11l-37 -139q-7 -23 -31 -31q-42 -13 -88.5 -20t-78.5 -7q-114 0 -174.5 47t-60.5 129q0 71 56 135t186 154q14 9 26 9q15 0 26 -10q13 -10 13 -25z" />
    <glyph glyph-name="Agrave" unicode="&#xc0;" horiz-adv-x="750" 
d="M36 0q-12 0 -18.5 7t-6.5 18v23q0 11 4 17.5t14 11.5l19 10q46 24 62 63l161 404q6 14 6 24q0 22 -30 35l-26 10q-24 8 -24 25q0 6 1 9l5 20q6 23 28 23h170q22 0 31 -21l222 -521q13 -30 23.5 -42t29.5 -22l23 -12q10 -5 14 -11.5t4 -16.5v-29q0 -12 -7 -18.5t-19 -6.5
h-267q-12 0 -19 7t-7 18v29q0 19 18 26l14 6q13 5 19.5 12t6.5 17q0 9 -4 20l-19 50q-3 10 -14 10h-213q-11 0 -14 -10l-11 -31q-7 -21 -7 -30q0 -26 30 -43l12 -6q10 -5 14 -11t4 -16v-23q0 -11 -7 -18t-19 -7h-203zM414 271q7 0 9 4t0 10l-75 189q-3 8 -8 8t-8 -8
l-71 -189q-1 -2 -1 -5q0 -9 11 -9h143zM217 804q-18 3 -18 19q0 8 2 12l26 78q6 17 21 17q6 0 13 -4l191 -94q16 -7 16 -21q0 -5 -3 -13l-11 -28q-6 -17 -21 -17q-6 0 -9 1z" />
    <glyph glyph-name="Aacute" unicode="&#xc1;" horiz-adv-x="750" 
d="M36 0q-12 0 -18.5 7t-6.5 18v23q0 11 4 17.5t14 11.5l19 10q46 24 62 63l161 404q6 14 6 24q0 22 -30 35l-26 10q-24 8 -24 25q0 6 1 9l5 20q6 23 28 23h170q22 0 31 -21l222 -521q13 -30 23.5 -42t29.5 -22l23 -12q10 -5 14 -11.5t4 -16.5v-29q0 -12 -7 -18.5t-19 -6.5
h-267q-12 0 -19 7t-7 18v29q0 19 18 26l14 6q13 5 19.5 12t6.5 17q0 9 -4 20l-19 50q-3 10 -14 10h-213q-11 0 -14 -10l-11 -31q-7 -21 -7 -30q0 -26 30 -43l12 -6q10 -5 14 -11t4 -16v-23q0 -11 -7 -18t-19 -7h-203zM414 271q7 0 9 4t0 10l-75 189q-3 8 -8 8t-8 -8
l-71 -189q-1 -2 -1 -5q0 -9 11 -9h143zM263 754q-3 -1 -9 -1q-16 0 -22 17l-10 28q-3 8 -3 13q0 14 15 21l191 94q7 4 14 4q14 0 20 -17l27 -78q2 -8 2 -11q0 -17 -19 -20z" />
    <glyph glyph-name="Acircumflex" unicode="&#xc2;" horiz-adv-x="750" 
d="M36 0q-12 0 -18.5 7t-6.5 18v23q0 11 4 17.5t14 11.5l19 10q46 24 62 63l161 404q6 14 6 24q0 22 -30 35l-26 10q-24 8 -24 25q0 6 1 9l5 20q6 23 28 23h170q22 0 31 -21l222 -521q13 -30 23.5 -42t29.5 -22l23 -12q10 -5 14 -11.5t4 -16.5v-29q0 -12 -7 -18.5t-19 -6.5
h-267q-12 0 -19 7t-7 18v29q0 19 18 26l14 6q13 5 19.5 12t6.5 17q0 9 -4 20l-19 50q-3 10 -14 10h-213q-11 0 -14 -10l-11 -31q-7 -21 -7 -30q0 -26 30 -43l12 -6q10 -5 14 -11t4 -16v-23q0 -11 -7 -18t-19 -7h-203zM414 271q7 0 9 4t0 10l-75 189q-3 8 -8 8t-8 -8
l-71 -189q-1 -2 -1 -5q0 -9 11 -9h143zM211 754q-7 -3 -13 -3q-10 0 -16 10l-18 31q-4 7 -4 13q0 9 9 16l120 91q17 13 34 13h41q18 0 34 -13l120 -91q9 -7 9 -16q0 -6 -4 -13l-18 -31q-6 -10 -16 -10q-5 0 -13 3l-124 54q-6 2 -9 2l-8 -2z" />
    <glyph glyph-name="Atilde" unicode="&#xc3;" horiz-adv-x="750" 
d="M36 0q-12 0 -18.5 7t-6.5 18v23q0 11 4 17.5t14 11.5l19 10q46 24 62 63l161 404q6 14 6 24q0 22 -30 35l-26 10q-24 8 -24 25q0 6 1 9l5 20q6 23 28 23h170q22 0 31 -21l222 -521q13 -30 23.5 -42t29.5 -22l23 -12q10 -5 14 -11.5t4 -16.5v-29q0 -12 -7 -18.5t-19 -6.5
h-267q-12 0 -19 7t-7 18v29q0 19 18 26l14 6q13 5 19.5 12t6.5 17q0 9 -4 20l-19 50q-3 10 -14 10h-213q-11 0 -14 -10l-11 -31q-7 -21 -7 -30q0 -26 30 -43l12 -6q10 -5 14 -11t4 -16v-23q0 -11 -7 -18t-19 -7h-203zM414 271q7 0 9 4t0 10l-75 189q-3 8 -8 8t-8 -8
l-71 -189q-1 -2 -1 -5q0 -9 11 -9h143zM167.5 777q-7.5 9 -4.5 26q5 54 36.5 85t74.5 31q29 0 62 -12l42 -16q2 -1 17 -6.5t29 -5.5t23.5 6t16.5 19q11 20 30 20q33 0 30 -35q-5 -54 -36.5 -85t-74.5 -31q-29 0 -63 12l-41 16q-12 5 -24 8.5t-23 3.5q-25 0 -40 -25
q-10 -20 -29 -20q-18 0 -25.5 9z" />
    <glyph glyph-name="Adieresis" unicode="&#xc4;" horiz-adv-x="750" 
d="M36 0q-12 0 -18.5 7t-6.5 18v23q0 11 4 17.5t14 11.5l19 10q46 24 62 63l161 404q6 14 6 24q0 22 -30 35l-26 10q-24 8 -24 25q0 6 1 9l5 20q6 23 28 23h170q22 0 31 -21l222 -521q13 -30 23.5 -42t29.5 -22l23 -12q10 -5 14 -11.5t4 -16.5v-29q0 -12 -7 -18.5t-19 -6.5
h-267q-12 0 -19 7t-7 18v29q0 19 18 26l14 6q13 5 19.5 12t6.5 17q0 9 -4 20l-19 50q-3 10 -14 10h-213q-11 0 -14 -10l-11 -31q-7 -21 -7 -30q0 -26 30 -43l12 -6q10 -5 14 -11t4 -16v-23q0 -11 -7 -18t-19 -7h-203zM414 271q7 0 9 4t0 10l-75 189q-3 8 -8 8t-8 -8
l-71 -189q-1 -2 -1 -5q0 -9 11 -9h143zM176 785.5q-23 20.5 -23 54.5t23 54.5t61 20.5t60.5 -20t22.5 -55t-22.5 -55t-60.5 -20t-61 20.5zM390 785.5q-23 20.5 -23 54.5t23 54.5t61 20.5t61 -20.5t23 -54.5t-23 -54.5t-61 -20.5t-61 20.5z" />
    <glyph glyph-name="Aring" unicode="&#xc5;" horiz-adv-x="750" 
d="M36 0q-12 0 -18.5 7t-6.5 18v23q0 11 4 17.5t14 11.5l19 10q46 24 62 63l161 404q6 14 6 24q0 22 -30 35l-26 10q-24 8 -24 25q0 6 1 9l5 20q6 23 28 23h170q22 0 31 -21l222 -521q13 -30 23.5 -42t29.5 -22l23 -12q10 -5 14 -11.5t4 -16.5v-29q0 -12 -7 -18.5t-19 -6.5
h-267q-12 0 -19 7t-7 18v29q0 19 18 26l14 6q13 5 19.5 12t6.5 17q0 9 -4 20l-19 50q-3 10 -14 10h-213q-11 0 -14 -10l-11 -31q-7 -21 -7 -30q0 -26 30 -43l12 -6q10 -5 14 -11t4 -16v-23q0 -11 -7 -18t-19 -7h-203zM414 271q7 0 9 4t0 10l-75 189q-3 8 -8 8t-8 -8
l-71 -189q-1 -2 -1 -5q0 -9 11 -9h143zM261 764q-32 30 -32 75t32 75t83 30t82.5 -30t31.5 -75t-31.5 -75t-82.5 -30t-83 30zM374 798.5q9 10.5 9 30.5q0 25 -13 43t-32 18q-15 0 -24 -10.5t-9 -30.5q0 -25 13 -43t32 -18q15 0 24 10.5z" />
    <glyph glyph-name="AE" unicode="&#xc6;" horiz-adv-x="1058" 
d="M942 -22q-17 0 -31 11q-9 6 -16.5 8.5t-22.5 2.5h-436q-12 0 -18.5 7t-6.5 18v29q0 12 4.5 18t15.5 11l22 8q16 5 22 14t6 26v52q0 5 -3.5 8.5t-8.5 3.5h-219q-9 0 -14 -8l-26 -39q-12 -18 -12 -30q0 -20 29 -36l13 -7q10 -5 14 -11t4 -16v-23q0 -11 -6.5 -18t-18.5 -7
h-211q-12 0 -19 7t-7 18v23q0 11 4 17.5t14 11.5l20 13q34 20 64 60l292 404q13 17 13 31q0 19 -24 28l-25 10q-24 8 -24 25q0 6 1 9l5 20q6 23 28 23h457q26 0 42 11q14 11 28 11h12q20 0 28 -19l71 -152q3 -6 3 -11q0 -11 -12 -19l-19 -11q-10 -5 -16 -5q-9 0 -18 9
q-49 50 -103.5 78t-130.5 28q-30 0 -42.5 -11t-12.5 -36v-109q0 -5 3.5 -8.5t8.5 -3.5h74q26 0 53 9q15 5 27 5q9 0 14 -4.5t9 -14.5l70 -151q2 -3 2 -10q0 -11 -11 -18l-17 -9q-8 -5 -14 -5q-10 0 -19 11q-52 54 -87.5 79t-75.5 25h-25q-5 0 -8.5 -3.5t-3.5 -8.5v-227
q0 -25 16 -37t42 -12q88 0 144.5 28.5t118.5 95.5q11 12 21 12q7 0 14 -4l23 -13q12 -6 12 -20q0 -2 -2 -10l-59 -167q-4 -14 -11.5 -19.5t-18.5 -5.5h-9zM469 271q5 0 8.5 3.5t3.5 8.5v228q0 10 -7 10q-4 0 -8 -6l-160 -229q-3 -4 -3 -7q0 -8 10 -8h156z" />
    <glyph glyph-name="Ccedilla" unicode="&#xc7;" horiz-adv-x="712" 
d="M319.5 -193q-25.5 12 -37.5 31q-7 10 -7 18t6 14q6 7 15 7q7 0 17 -5q23 -16 43 -16q12 0 19 7t7 18q0 12 -6 19t-22 13l-16 7q-19 7 -14 24l12 36q1 2 1 5q0 9 -11 10q-88 15 -153.5 64.5t-101 126.5t-35.5 173q0 103 45.5 182.5t123.5 123.5t174 44q38 0 93 -16
q5 -1 18 -4.5t21 -3.5q13 0 27 8q5 3 10.5 5.5t12.5 2.5h15q15 0 22 -5t13 -17l75 -182q3 -7 3 -13q0 -12 -14 -21l-20 -10q-10 -5 -17 -5q-13 0 -22 12q-70 89 -122 125t-115 36q-49 0 -89.5 -24.5t-63.5 -70.5t-23 -108q0 -83 33.5 -146.5t92.5 -98t133 -34.5
q56 0 91.5 15.5t67.5 44.5q19 17 36 17q9 0 13 -2q21 -9 21 -35q0 -40 -32.5 -83t-94.5 -73.5t-148 -33.5q-11 0 -14 -10l-2 -9l-1 -4q0 -5 9 -8l4 -1q34 -12 50.5 -30.5t16.5 -47.5q0 -39 -27 -61.5t-73 -22.5q-34 0 -59.5 12z" />
    <glyph glyph-name="Egrave" unicode="&#xc8;" horiz-adv-x="685" 
d="M569 -22q-17 0 -31 11q-10 6 -17.5 8.5t-21.5 2.5h-436q-12 0 -19 7t-7 18v29q0 12 4.5 18t16.5 11l22 8q16 5 22 14t6 26v438q0 17 -6 26t-22 14l-22 8q-12 5 -16.5 11t-4.5 18v29q0 11 7 18t19 7h385q26 0 42 11q8 6 13.5 8.5t13.5 2.5h13q19 0 27 -19l71 -152
q3 -6 3 -11q0 -11 -12 -19l-18 -11q-10 -5 -16 -5q-9 0 -18 9q-49 50 -103.5 78t-130.5 28q-30 0 -42.5 -11t-12.5 -36v-109q0 -5 3.5 -8.5t8.5 -3.5h74q24 0 53 9q15 5 27 5q15 0 23 -19l69 -151q3 -6 3 -11q0 -9 -12 -17l-17 -9q-8 -5 -13 -5q-9 0 -20 11q-52 55 -87 79.5
t-76 24.5h-24q-5 0 -8.5 -3.5t-3.5 -8.5v-227q0 -25 16 -37t42 -12q89 0 146.5 28.5t116.5 95.5q11 12 22 12q4 0 12 -4l24 -13q12 -6 12 -20q0 -2 -2 -10l-59 -167q-5 -14 -12 -19.5t-18 -5.5h-9zM204 804q-18 3 -18 19q0 8 2 12l26 78q6 17 21 17q6 0 13 -4l191 -94
q16 -7 16 -21q0 -5 -3 -13l-11 -28q-6 -17 -21 -17q-6 0 -9 1z" />
    <glyph glyph-name="Eacute" unicode="&#xc9;" horiz-adv-x="685" 
d="M569 -22q-17 0 -31 11q-10 6 -17.5 8.5t-21.5 2.5h-436q-12 0 -19 7t-7 18v29q0 12 4.5 18t16.5 11l22 8q16 5 22 14t6 26v438q0 17 -6 26t-22 14l-22 8q-12 5 -16.5 11t-4.5 18v29q0 11 7 18t19 7h385q26 0 42 11q8 6 13.5 8.5t13.5 2.5h13q19 0 27 -19l71 -152
q3 -6 3 -11q0 -11 -12 -19l-18 -11q-10 -5 -16 -5q-9 0 -18 9q-49 50 -103.5 78t-130.5 28q-30 0 -42.5 -11t-12.5 -36v-109q0 -5 3.5 -8.5t8.5 -3.5h74q24 0 53 9q15 5 27 5q15 0 23 -19l69 -151q3 -6 3 -11q0 -9 -12 -17l-17 -9q-8 -5 -13 -5q-9 0 -20 11q-52 55 -87 79.5
t-76 24.5h-24q-5 0 -8.5 -3.5t-3.5 -8.5v-227q0 -25 16 -37t42 -12q89 0 146.5 28.5t116.5 95.5q11 12 22 12q4 0 12 -4l24 -13q12 -6 12 -20q0 -2 -2 -10l-59 -167q-5 -14 -12 -19.5t-18 -5.5h-9zM250 754q-3 -1 -9 -1q-16 0 -22 17l-10 28q-3 8 -3 13q0 14 15 21l191 94
q7 4 14 4q14 0 20 -17l27 -78q2 -8 2 -11q0 -17 -19 -20z" />
    <glyph glyph-name="Ecircumflex" unicode="&#xca;" horiz-adv-x="685" 
d="M569 -22q-17 0 -31 11q-10 6 -17.5 8.5t-21.5 2.5h-436q-12 0 -19 7t-7 18v29q0 12 4.5 18t16.5 11l22 8q16 5 22 14t6 26v438q0 17 -6 26t-22 14l-22 8q-12 5 -16.5 11t-4.5 18v29q0 11 7 18t19 7h385q26 0 42 11q8 6 13.5 8.5t13.5 2.5h13q19 0 27 -19l71 -152
q3 -6 3 -11q0 -11 -12 -19l-18 -11q-10 -5 -16 -5q-9 0 -18 9q-49 50 -103.5 78t-130.5 28q-30 0 -42.5 -11t-12.5 -36v-109q0 -5 3.5 -8.5t8.5 -3.5h74q24 0 53 9q15 5 27 5q15 0 23 -19l69 -151q3 -6 3 -11q0 -9 -12 -17l-17 -9q-8 -5 -13 -5q-9 0 -20 11q-52 55 -87 79.5
t-76 24.5h-24q-5 0 -8.5 -3.5t-3.5 -8.5v-227q0 -25 16 -37t42 -12q89 0 146.5 28.5t116.5 95.5q11 12 22 12q4 0 12 -4l24 -13q12 -6 12 -20q0 -2 -2 -10l-59 -167q-5 -14 -12 -19.5t-18 -5.5h-9zM198 754q-7 -3 -13 -3q-10 0 -16 10l-18 31q-4 7 -4 13q0 9 9 16l120 91
q17 13 34 13h41q18 0 34 -13l120 -91q9 -7 9 -16q0 -6 -4 -13l-18 -31q-6 -10 -16 -10q-5 0 -13 3l-124 54q-6 2 -9 2l-8 -2z" />
    <glyph glyph-name="Edieresis" unicode="&#xcb;" horiz-adv-x="685" 
d="M569 -22q-17 0 -31 11q-10 6 -17.5 8.5t-21.5 2.5h-436q-12 0 -19 7t-7 18v29q0 12 4.5 18t16.5 11l22 8q16 5 22 14t6 26v438q0 17 -6 26t-22 14l-22 8q-12 5 -16.5 11t-4.5 18v29q0 11 7 18t19 7h385q26 0 42 11q8 6 13.5 8.5t13.5 2.5h13q19 0 27 -19l71 -152
q3 -6 3 -11q0 -11 -12 -19l-18 -11q-10 -5 -16 -5q-9 0 -18 9q-49 50 -103.5 78t-130.5 28q-30 0 -42.5 -11t-12.5 -36v-109q0 -5 3.5 -8.5t8.5 -3.5h74q24 0 53 9q15 5 27 5q15 0 23 -19l69 -151q3 -6 3 -11q0 -9 -12 -17l-17 -9q-8 -5 -13 -5q-9 0 -20 11q-52 55 -87 79.5
t-76 24.5h-24q-5 0 -8.5 -3.5t-3.5 -8.5v-227q0 -25 16 -37t42 -12q89 0 146.5 28.5t116.5 95.5q11 12 22 12q4 0 12 -4l24 -13q12 -6 12 -20q0 -2 -2 -10l-59 -167q-5 -14 -12 -19.5t-18 -5.5h-9zM162 785.5q-23 20.5 -23 54.5t23 54.5t61 20.5t60.5 -20t22.5 -55
t-22.5 -55t-60.5 -20t-61 20.5zM376 785.5q-23 20.5 -23 54.5t23 54.5t61 20.5t61 -20.5t23 -54.5t-23 -54.5t-61 -20.5t-61 20.5z" />
    <glyph glyph-name="Igrave" unicode="&#xcc;" horiz-adv-x="385" 
d="M63 0q-12 0 -19 7t-7 18v29q0 12 4.5 18t16.5 11l22 8q16 5 22 14t6 26v438q0 17 -6 26t-22 14l-22 8q-12 5 -16.5 11t-4.5 18v29q0 11 7 18t19 7h260q12 0 18.5 -7t6.5 -18v-29q0 -12 -4.5 -18t-15.5 -11l-23 -8q-15 -5 -21 -14t-6 -26v-438q0 -17 6 -26t21 -14l23 -8
q11 -5 15.5 -11t4.5 -18v-29q0 -11 -6.5 -18t-18.5 -7h-260zM66 804q-18 3 -18 19q0 8 2 12l26 78q6 17 21 17q6 0 13 -4l191 -94q16 -7 16 -21q0 -5 -3 -13l-11 -28q-6 -17 -21 -17q-6 0 -9 1z" />
    <glyph glyph-name="Iacute" unicode="&#xcd;" horiz-adv-x="385" 
d="M63 0q-12 0 -19 7t-7 18v29q0 12 4.5 18t16.5 11l22 8q16 5 22 14t6 26v438q0 17 -6 26t-22 14l-22 8q-12 5 -16.5 11t-4.5 18v29q0 11 7 18t19 7h260q12 0 18.5 -7t6.5 -18v-29q0 -12 -4.5 -18t-15.5 -11l-23 -8q-15 -5 -21 -14t-6 -26v-438q0 -17 6 -26t21 -14l23 -8
q11 -5 15.5 -11t4.5 -18v-29q0 -11 -6.5 -18t-18.5 -7h-260zM113 754q-3 -1 -9 -1q-16 0 -22 17l-10 28q-3 8 -3 13q0 14 15 21l191 94q7 4 14 4q14 0 20 -17l27 -78q2 -8 2 -11q0 -17 -19 -20z" />
    <glyph glyph-name="Icircumflex" unicode="&#xce;" horiz-adv-x="385" 
d="M63 0q-12 0 -19 7t-7 18v29q0 12 4.5 18t16.5 11l22 8q16 5 22 14t6 26v438q0 17 -6 26t-22 14l-22 8q-12 5 -16.5 11t-4.5 18v29q0 11 7 18t19 7h260q12 0 18.5 -7t6.5 -18v-29q0 -12 -4.5 -18t-15.5 -11l-23 -8q-15 -5 -21 -14t-6 -26v-438q0 -17 6 -26t21 -14l23 -8
q11 -5 15.5 -11t4.5 -18v-29q0 -11 -6.5 -18t-18.5 -7h-260zM60 754q-7 -3 -13 -3q-10 0 -16 10l-18 31q-4 7 -4 13q0 9 9 16l120 91q17 13 34 13h41q18 0 34 -13l120 -91q9 -7 9 -16q0 -6 -4 -13l-18 -31q-6 -10 -16 -10q-5 0 -13 3l-124 54q-6 2 -9 2l-8 -2z" />
    <glyph glyph-name="Idieresis" unicode="&#xcf;" horiz-adv-x="385" 
d="M63 0q-12 0 -19 7t-7 18v29q0 12 4.5 18t16.5 11l22 8q16 5 22 14t6 26v438q0 17 -6 26t-22 14l-22 8q-12 5 -16.5 11t-4.5 18v29q0 11 7 18t19 7h260q12 0 18.5 -7t6.5 -18v-29q0 -12 -4.5 -18t-15.5 -11l-23 -8q-15 -5 -21 -14t-6 -26v-438q0 -17 6 -26t21 -14l23 -8
q11 -5 15.5 -11t4.5 -18v-29q0 -11 -6.5 -18t-18.5 -7h-260zM25 785.5q-23 20.5 -23 54.5t23 54.5t61 20.5t60.5 -20t22.5 -55t-22.5 -55t-60.5 -20t-61 20.5zM239 785.5q-23 20.5 -23 54.5t23 54.5t61 20.5t61 -20.5t23 -54.5t-23 -54.5t-61 -20.5t-61 20.5z" />
    <glyph glyph-name="Eth" unicode="&#xd0;" horiz-adv-x="785" 
d="M67 0q-12 0 -18.5 7t-6.5 18v29q0 12 4.5 18t15.5 11l22 8q16 5 22 14t6 26v172q0 5 -3.5 8.5t-8.5 3.5h-37q-12 0 -18.5 7t-6.5 19v26q0 25 25 25h37q5 0 8.5 3.5t3.5 8.5v164q0 15 -6 23.5t-20 14.5l-25 9q-10 4 -14.5 10t-4.5 18v29q0 22 24 25q51 7 91 8.5t128 1.5
q152 0 256 -53t155.5 -141t51.5 -195q0 -154 -88 -236t-250 -82h-343zM350 78q221 0 221 250q0 91 -34 159t-88.5 104.5t-114.5 36.5q-10 0 -21 -2q-16 -3 -23.5 -12.5t-7.5 -27.5v-182q0 -5 3.5 -8.5t8.5 -3.5h119q26 0 26 -25v-26q0 -12 -7 -19t-19 -7h-119
q-5 0 -8.5 -3.5t-3.5 -8.5v-191q0 -34 28 -34h40z" />
    <glyph glyph-name="Ntilde" unicode="&#xd1;" horiz-adv-x="781" 
d="M62 0q-12 0 -18.5 7t-6.5 18v23q0 12 4.5 17.5t15.5 10.5l22 8q16 5 22 14t6 26v446q0 17 -6 25.5t-22 14.5l-22 8q-11 4 -15.5 10t-4.5 18v29q0 11 6.5 18t18.5 7h141q19 0 33 -13l323 -275q4 -4 8 -4q7 0 7 11v158q0 16 -6 25t-22 14l-22 8q-12 5 -16.5 10.5t-4.5 17.5
v23q0 11 7 18t19 7h187q12 0 18.5 -7t6.5 -18v-23q0 -12 -4.5 -17.5t-15.5 -10.5l-23 -8q-15 -5 -21 -14t-6 -25v-453q0 -16 6 -25.5t21 -14.5l26 -8q11 -4 15.5 -10t4.5 -18v-23q0 -11 -6.5 -18t-18.5 -7h-193q-12 0 -19 7t-7 18v23q0 12 5 18t16 10l25 8q15 5 21.5 14.5
t6.5 25.5v15q0 30 -19 45l-336 273q-4 4 -7 4q-8 0 -8 -11v-326q0 -17 6 -26t22 -14l22 -8q12 -5 16.5 -10.5t4.5 -17.5v-23q0 -11 -6.5 -18t-19.5 -7h-187zM214.5 777q-7.5 9 -4.5 26q5 54 36.5 85t74.5 31q29 0 62 -12l42 -16q2 -1 17 -6.5t29 -5.5t23.5 6t16.5 19
q11 20 30 20q33 0 30 -35q-5 -54 -36.5 -85t-74.5 -31q-29 0 -63 12l-41 16q-12 5 -24 8.5t-23 3.5q-25 0 -40 -25q-10 -20 -29 -20q-18 0 -25.5 9z" />
    <glyph glyph-name="Ograve" unicode="&#xd2;" horiz-adv-x="794" 
d="M211 36q-82 47 -128.5 129.5t-46.5 184.5t46.5 184.5t128.5 129.5t186 47t186 -47t128.5 -129.5t46.5 -184.5t-46.5 -184.5t-128.5 -129.5t-186 -47t-186 47zM553.5 143q39.5 48 39.5 127q0 81 -32.5 159t-89 127t-123.5 49q-66 0 -106.5 -47t-40.5 -126
q0 -81 32.5 -159.5t89 -128t123.5 -49.5q68 0 107.5 48zM271 804q-18 3 -18 19q0 8 2 12l26 78q6 17 21 17q6 0 13 -4l191 -94q16 -7 16 -21q0 -5 -3 -13l-11 -28q-6 -17 -21 -17q-6 0 -9 1z" />
    <glyph glyph-name="Oacute" unicode="&#xd3;" horiz-adv-x="794" 
d="M211 36q-82 47 -128.5 129.5t-46.5 184.5t46.5 184.5t128.5 129.5t186 47t186 -47t128.5 -129.5t46.5 -184.5t-46.5 -184.5t-128.5 -129.5t-186 -47t-186 47zM553.5 143q39.5 48 39.5 127q0 81 -32.5 159t-89 127t-123.5 49q-66 0 -106.5 -47t-40.5 -126
q0 -81 32.5 -159.5t89 -128t123.5 -49.5q68 0 107.5 48zM317 754q-3 -1 -9 -1q-16 0 -22 17l-10 28q-3 8 -3 13q0 14 15 21l191 94q7 4 14 4q14 0 20 -17l27 -78q2 -8 2 -11q0 -17 -19 -20z" />
    <glyph glyph-name="Ocircumflex" unicode="&#xd4;" horiz-adv-x="794" 
d="M211 36q-82 47 -128.5 129.5t-46.5 184.5t46.5 184.5t128.5 129.5t186 47t186 -47t128.5 -129.5t46.5 -184.5t-46.5 -184.5t-128.5 -129.5t-186 -47t-186 47zM553.5 143q39.5 48 39.5 127q0 81 -32.5 159t-89 127t-123.5 49q-66 0 -106.5 -47t-40.5 -126
q0 -81 32.5 -159.5t89 -128t123.5 -49.5q68 0 107.5 48zM264 754q-7 -3 -13 -3q-10 0 -16 10l-18 31q-4 7 -4 13q0 9 9 16l120 91q17 13 34 13h41q18 0 34 -13l120 -91q9 -7 9 -16q0 -6 -4 -13l-18 -31q-6 -10 -16 -10q-5 0 -13 3l-124 54q-6 2 -9 2l-8 -2z" />
    <glyph glyph-name="Otilde" unicode="&#xd5;" horiz-adv-x="794" 
d="M211 36q-82 47 -128.5 129.5t-46.5 184.5t46.5 184.5t128.5 129.5t186 47t186 -47t128.5 -129.5t46.5 -184.5t-46.5 -184.5t-128.5 -129.5t-186 -47t-186 47zM553.5 143q39.5 48 39.5 127q0 81 -32.5 159t-89 127t-123.5 49q-66 0 -106.5 -47t-40.5 -126
q0 -81 32.5 -159.5t89 -128t123.5 -49.5q68 0 107.5 48zM221.5 777q-7.5 9 -4.5 26q5 54 36.5 85t74.5 31q29 0 62 -12l42 -16q2 -1 17 -6.5t29 -5.5t23.5 6t16.5 19q11 20 30 20q33 0 30 -35q-5 -54 -36.5 -85t-74.5 -31q-29 0 -63 12l-41 16q-12 5 -24 8.5t-23 3.5
q-25 0 -40 -25q-10 -20 -29 -20q-18 0 -25.5 9z" />
    <glyph glyph-name="Odieresis" unicode="&#xd6;" horiz-adv-x="794" 
d="M211 36q-82 47 -128.5 129.5t-46.5 184.5t46.5 184.5t128.5 129.5t186 47t186 -47t128.5 -129.5t46.5 -184.5t-46.5 -184.5t-128.5 -129.5t-186 -47t-186 47zM553.5 143q39.5 48 39.5 127q0 81 -32.5 159t-89 127t-123.5 49q-66 0 -106.5 -47t-40.5 -126
q0 -81 32.5 -159.5t89 -128t123.5 -49.5q68 0 107.5 48zM229 785.5q-23 20.5 -23 54.5t23 54.5t61 20.5t60.5 -20t22.5 -55t-22.5 -55t-60.5 -20t-61 20.5zM443 785.5q-23 20.5 -23 54.5t23 54.5t61 20.5t61 -20.5t23 -54.5t-23 -54.5t-61 -20.5t-61 20.5z" />
    <glyph glyph-name="multiply" unicode="&#xd7;" horiz-adv-x="542" 
d="M86 165q-9 9 -9 18q0 8 7 15l116 116q4 4 4 8q0 5 -4 8l-116 116q-7 7 -7 15q0 9 9 18l28 29q8 8 17 8t18 -9l114 -114q3 -4 8 -4q4 0 8 4l114 114q9 9 18 9t17 -8l28 -29q9 -9 9 -18q0 -8 -7 -15l-116 -116q-4 -4 -4 -8q0 -2 4 -8l116 -116q7 -7 7 -15q0 -9 -9 -18
l-28 -29q-8 -8 -17 -8t-18 9l-114 114q-3 4 -8 4q-4 0 -8 -4l-114 -114q-9 -9 -18 -9t-17 8z" />
    <glyph glyph-name="Oslash" unicode="&#xd8;" horiz-adv-x="794" 
d="M106 -9q-12 9 -12 20q0 7 7 16l36 49q3 5 3 9q0 5 -3 8q-48 50 -74.5 115.5t-26.5 141.5q0 102 46.5 184.5t128.5 129.5t186 47q97 0 177 -43q6 -2 7 -2q6 0 10 6l38 50q9 11 19 11q7 0 16 -6l24 -18q12 -9 12 -20q0 -5 -7 -16l-37 -49q-3 -4 -3 -8q0 -5 4 -9
q48 -50 74.5 -115.5t26.5 -141.5q0 -102 -46.5 -184.5t-128.5 -129.5t-186 -47q-98 0 -178 43q-4 2 -7 2q-5 0 -10 -6l-37 -50q-9 -11 -19 -11q-8 0 -16 6zM256 238q6 0 9 5l217 286q4 6 4 9q0 4 -5 9q-63 58 -133 58q-66 0 -106.5 -47t-40.5 -126q0 -48 12.5 -97.5
t34.5 -90.5q3 -6 8 -6zM553.5 143q39.5 48 39.5 127q0 97 -47 186q-3 7 -9 7q-5 0 -8 -5l-217 -287q-3 -4 -3 -8q0 -5 6 -11q62 -57 131 -57q68 0 107.5 48z" />
    <glyph glyph-name="Ugrave" unicode="&#xd9;" horiz-adv-x="755" 
d="M163 50q-77 61 -77 188q0 22 1 33l22 298q1 16 -5.5 25.5t-22.5 14.5l-22 8q-12 5 -16.5 11t-4.5 18v29q0 11 7 18t19 7h260q13 0 19.5 -6.5t6.5 -18.5v-29q0 -12 -4.5 -18t-16.5 -11l-22 -8q-15 -5 -20.5 -14t-6.5 -26l-15 -298q-5 -91 32 -132.5t120 -41.5
q76 0 111.5 39.5t31.5 124.5l-14 313q-1 16 -7 25t-21 15l-22 7q-12 5 -16.5 11t-4.5 18v25q0 11 7 18t19 7h194q13 0 19.5 -6.5t6.5 -18.5v-25q0 -12 -5 -18t-16 -11l-22 -7q-16 -6 -22.5 -15.5t-5.5 -24.5l20 -313q1 -10 1 -28q0 -122 -72.5 -183t-207.5 -61
q-151 0 -228 61zM286 804q-18 3 -18 19q0 8 2 12l26 78q6 17 21 17q6 0 13 -4l191 -94q16 -7 16 -21q0 -5 -3 -13l-11 -28q-6 -17 -21 -17q-6 0 -9 1z" />
    <glyph glyph-name="Uacute" unicode="&#xda;" horiz-adv-x="755" 
d="M163 50q-77 61 -77 188q0 22 1 33l22 298q1 16 -5.5 25.5t-22.5 14.5l-22 8q-12 5 -16.5 11t-4.5 18v29q0 11 7 18t19 7h260q13 0 19.5 -6.5t6.5 -18.5v-29q0 -12 -4.5 -18t-16.5 -11l-22 -8q-15 -5 -20.5 -14t-6.5 -26l-15 -298q-5 -91 32 -132.5t120 -41.5
q76 0 111.5 39.5t31.5 124.5l-14 313q-1 16 -7 25t-21 15l-22 7q-12 5 -16.5 11t-4.5 18v25q0 11 7 18t19 7h194q13 0 19.5 -6.5t6.5 -18.5v-25q0 -12 -5 -18t-16 -11l-22 -7q-16 -6 -22.5 -15.5t-5.5 -24.5l20 -313q1 -10 1 -28q0 -122 -72.5 -183t-207.5 -61
q-151 0 -228 61zM332 754q-3 -1 -9 -1q-16 0 -22 17l-10 28q-3 8 -3 13q0 14 15 21l191 94q7 4 14 4q14 0 20 -17l27 -78q2 -8 2 -11q0 -17 -19 -20z" />
    <glyph glyph-name="Ucircumflex" unicode="&#xdb;" horiz-adv-x="755" 
d="M163 50q-77 61 -77 188q0 22 1 33l22 298q1 16 -5.5 25.5t-22.5 14.5l-22 8q-12 5 -16.5 11t-4.5 18v29q0 11 7 18t19 7h260q13 0 19.5 -6.5t6.5 -18.5v-29q0 -12 -4.5 -18t-16.5 -11l-22 -8q-15 -5 -20.5 -14t-6.5 -26l-15 -298q-5 -91 32 -132.5t120 -41.5
q76 0 111.5 39.5t31.5 124.5l-14 313q-1 16 -7 25t-21 15l-22 7q-12 5 -16.5 11t-4.5 18v25q0 11 7 18t19 7h194q13 0 19.5 -6.5t6.5 -18.5v-25q0 -12 -5 -18t-16 -11l-22 -7q-16 -6 -22.5 -15.5t-5.5 -24.5l20 -313q1 -10 1 -28q0 -122 -72.5 -183t-207.5 -61
q-151 0 -228 61zM279 754q-7 -3 -13 -3q-10 0 -16 10l-18 31q-4 7 -4 13q0 9 9 16l120 91q17 13 34 13h41q18 0 34 -13l120 -91q9 -7 9 -16q0 -6 -4 -13l-18 -31q-6 -10 -16 -10q-5 0 -13 3l-124 54q-6 2 -9 2l-8 -2z" />
    <glyph glyph-name="Udieresis" unicode="&#xdc;" horiz-adv-x="755" 
d="M163 50q-77 61 -77 188q0 22 1 33l22 298q1 16 -5.5 25.5t-22.5 14.5l-22 8q-12 5 -16.5 11t-4.5 18v29q0 11 7 18t19 7h260q13 0 19.5 -6.5t6.5 -18.5v-29q0 -12 -4.5 -18t-16.5 -11l-22 -8q-15 -5 -20.5 -14t-6.5 -26l-15 -298q-5 -91 32 -132.5t120 -41.5
q76 0 111.5 39.5t31.5 124.5l-14 313q-1 16 -7 25t-21 15l-22 7q-12 5 -16.5 11t-4.5 18v25q0 11 7 18t19 7h194q13 0 19.5 -6.5t6.5 -18.5v-25q0 -12 -5 -18t-16 -11l-22 -7q-16 -6 -22.5 -15.5t-5.5 -24.5l20 -313q1 -10 1 -28q0 -122 -72.5 -183t-207.5 -61
q-151 0 -228 61zM244 785.5q-23 20.5 -23 54.5t23 54.5t61 20.5t60.5 -20t22.5 -55t-22.5 -55t-60.5 -20t-61 20.5zM458 785.5q-23 20.5 -23 54.5t23 54.5t61 20.5t61 -20.5t23 -54.5t-23 -54.5t-61 -20.5t-61 20.5z" />
    <glyph glyph-name="Yacute" unicode="&#xdd;" horiz-adv-x="687" 
d="M207 0q-12 0 -18.5 7t-6.5 18v29q0 13 4.5 19.5t16.5 9.5l36 9q15 4 21 13t6 26v114q0 10 -2.5 18t-9.5 19l-160 259q-20 32 -32 46t-28 22l-16 9q-10 5 -14 11t-4 17v29q0 25 25 25h268q11 0 18 -7t7 -18v-28q0 -10 -4 -16t-14 -10l-17 -7q-25 -10 -25 -29q0 -10 8 -24
l108 -185q5 -6 8 -6q5 0 8 6l108 181q8 12 8 25q0 21 -24 32l-20 9q-10 5 -14 10.5t-4 15.5v26q0 11 7 18t18 7h194q12 0 18.5 -7t6.5 -18v-29q0 -11 -4 -16.5t-14 -11.5l-14 -8q-18 -9 -29.5 -21.5t-26.5 -39.5l-153 -264q-11 -17 -11 -34v-120q0 -17 6 -26t22 -13l36 -9
q12 -3 16.5 -9.5t4.5 -19.5v-29q0 -11 -6.5 -18t-18.5 -7h-289zM295 754q-3 -1 -9 -1q-16 0 -22 17l-10 28q-3 8 -3 13q0 14 15 21l191 94q7 4 14 4q14 0 20 -17l27 -78q2 -8 2 -11q0 -17 -19 -20z" />
    <glyph glyph-name="Thorn" unicode="&#xde;" horiz-adv-x="657" 
d="M63 0q-12 0 -19 7t-7 18v29q0 12 4.5 18t16.5 11l22 8q16 5 22 14t6 26v438q0 17 -6 26t-22 14l-22 8q-12 5 -16.5 11t-4.5 18v29q0 11 7 18t19 7h260q12 0 18.5 -7t6.5 -18v-29q0 -12 -4.5 -18t-15.5 -11l-23 -8q-15 -5 -21 -14t-6 -26v-12q0 -12 11 -11q21 3 40 3
q145 0 226 -60.5t81 -165.5q0 -77 -55.5 -123.5t-167.5 -46.5q-46 0 -122 9h-2q-11 0 -11 -13v-18q0 -17 6 -26t21 -14l23 -8q11 -5 15.5 -11t4.5 -18v-29q0 -11 -6.5 -18t-18.5 -7h-260zM441 264.5q27 24.5 27 70.5q0 61 -40.5 97.5t-105.5 36.5q-23 0 -33.5 -10t-10.5 -34
v-164q0 -13 17 -16q26 -5 67 -5q52 0 79 24.5z" />
    <glyph glyph-name="germandbls" unicode="&#xdf;" horiz-adv-x="731" 
d="M517 -6.5q-15 3.5 -19 4.5q-22 6 -31 6q-12 0 -30 -6q-16 -6 -24 -6t-15 5t-11 13l-54 117q-6 11 -6 19q0 13 15 23l15 9q10 5 17 5q13 0 23 -13q34 -47 63.5 -70.5t63.5 -23.5q23 0 35.5 11t12.5 34t-13.5 40.5t-46.5 37.5l-71 43q-43 26 -64 55.5t-21 71.5
q0 36 16 64.5t48 67.5q26 31 38.5 51.5t12.5 43.5q0 34 -23.5 54.5t-66.5 20.5q-63 0 -94.5 -40t-31.5 -116v-391q0 -16 6 -24.5t20 -13.5l15 -5q21 -7 21 -28v-28q0 -11 -7 -18t-18 -7h-231q-12 0 -19 7t-7 18v28q0 21 21 28l15 5q15 5 21 13.5t6 24.5v269q0 5 -3.5 8.5
t-8.5 3.5h-37q-11 0 -18 7t-7 19v25q0 14 5 21.5t19 12.5l26 10q11 4 16 10.5t8 21.5l6 20q22 97 91 148t194 51q96 0 151.5 -37t55.5 -100q0 -34 -17 -60.5t-49 -59.5q-25 -26 -36.5 -42t-11.5 -34q0 -16 12 -28t45 -32l60 -35q59 -35 88 -72.5t29 -94.5q0 -49 -21.5 -86.5
t-59 -58.5t-83.5 -21q-20 0 -35 3.5z" />
    <glyph glyph-name="agrave" unicode="&#xe0;" horiz-adv-x="570" 
d="M77.5 28q-42.5 39 -42.5 106q0 77 56.5 120.5t175.5 43.5q4 0 49 -3h3q9 0 9 11v47q0 83 -68 83q-30 0 -53.5 -20t-54.5 -68q-7 -11 -14.5 -16t-18.5 -5t-17.5 6t-11.5 19l-36 80q-4 8 -4 16q0 14 18 23q34 17 86 29t109 12q116 0 166 -49.5t52 -147.5l3 -207
q0 -22 18 -22q12 0 25 13q1 1 7 6t14 5q11 0 17 -7t6 -19q0 -44 -32 -68.5t-80 -24.5q-37 0 -61 14t-44 43q-3 7 -9 7q-5 0 -11 -6q-54 -60 -139 -60q-75 0 -117.5 39zM316 117q14 15 14 36v56q0 13 -13 15q-17 3 -37 3q-90 0 -90 -71q0 -31 17 -47.5t48 -16.5q34 0 61 25z
M148 629q-15 6 -15 19q0 7 4 14l38 74q7 13 19 13q7 0 16 -6l173 -119q13 -9 13 -20q0 -7 -5 -15l-13 -27q-8 -14 -20 -14q-6 0 -13 3z" />
    <glyph glyph-name="aacute" unicode="&#xe1;" horiz-adv-x="570" 
d="M77.5 28q-42.5 39 -42.5 106q0 77 56.5 120.5t175.5 43.5q4 0 49 -3h3q9 0 9 11v47q0 83 -68 83q-30 0 -53.5 -20t-54.5 -68q-7 -11 -14.5 -16t-18.5 -5t-17.5 6t-11.5 19l-36 80q-4 8 -4 16q0 14 18 23q34 17 86 29t109 12q116 0 166 -49.5t52 -147.5l3 -207
q0 -22 18 -22q12 0 25 13q1 1 7 6t14 5q11 0 17 -7t6 -19q0 -44 -32 -68.5t-80 -24.5q-37 0 -61 14t-44 43q-3 7 -9 7q-5 0 -11 -6q-54 -60 -139 -60q-75 0 -117.5 39zM316 117q14 15 14 36v56q0 13 -13 15q-17 3 -37 3q-90 0 -90 -71q0 -31 17 -47.5t48 -16.5q34 0 61 25z
M199 551q-8 -3 -13 -3q-12 0 -20 14l-13 27q-5 8 -5 15q0 11 13 20l173 119q9 6 16 6q12 0 19 -13l38 -74q4 -7 4 -14q0 -13 -15 -19z" />
    <glyph glyph-name="acircumflex" unicode="&#xe2;" horiz-adv-x="570" 
d="M77.5 28q-42.5 39 -42.5 106q0 77 56.5 120.5t175.5 43.5q4 0 49 -3h3q9 0 9 11v47q0 83 -68 83q-30 0 -53.5 -20t-54.5 -68q-7 -11 -14.5 -16t-18.5 -5t-17.5 6t-11.5 19l-36 80q-4 8 -4 16q0 14 18 23q34 17 86 29t109 12q116 0 166 -49.5t52 -147.5l3 -207
q0 -22 18 -22q12 0 25 13q1 1 7 6t14 5q11 0 17 -7t6 -19q0 -44 -32 -68.5t-80 -24.5q-37 0 -61 14t-44 43q-3 7 -9 7q-5 0 -11 -6q-54 -60 -139 -60q-75 0 -117.5 39zM316 117q14 15 14 36v56q0 13 -13 15q-17 3 -37 3q-90 0 -90 -71q0 -31 17 -47.5t48 -16.5q34 0 61 25z
M147 550q-7 -4 -14 -4q-10 0 -15 8l-21 29q-7 11 -7 17q0 7 8 15l122 110q8 7 15 10.5t16 3.5h42q9 0 16 -3.5t15 -10.5l122 -110q8 -8 8 -16q0 -7 -6 -16l-21 -29q-5 -8 -15 -8q-7 0 -14 4l-117 71q-3 2 -9 2t-9 -2z" />
    <glyph glyph-name="atilde" unicode="&#xe3;" horiz-adv-x="570" 
d="M77.5 28q-42.5 39 -42.5 106q0 77 56.5 120.5t175.5 43.5q4 0 49 -3h3q9 0 9 11v47q0 83 -68 83q-30 0 -53.5 -20t-54.5 -68q-7 -11 -14.5 -16t-18.5 -5t-17.5 6t-11.5 19l-36 80q-4 8 -4 16q0 14 18 23q34 17 86 29t109 12q116 0 166 -49.5t52 -147.5l3 -207
q0 -22 18 -22q12 0 25 13q1 1 7 6t14 5q11 0 17 -7t6 -19q0 -44 -32 -68.5t-80 -24.5q-37 0 -61 14t-44 43q-3 7 -9 7q-5 0 -11 -6q-54 -60 -139 -60q-75 0 -117.5 39zM316 117q14 15 14 36v56q0 13 -13 15q-17 3 -37 3q-90 0 -90 -71q0 -31 17 -47.5t48 -16.5q34 0 61 25z
M96.5 584q-7.5 9 -4.5 26q5 54 36.5 85t74.5 31q29 0 62 -12l42 -16q2 -1 17 -6.5t29 -5.5t23.5 6t16.5 19q11 20 30 20q33 0 30 -35q-5 -54 -36.5 -85t-74.5 -31q-29 0 -63 12l-41 16q-12 5 -24 8.5t-23 3.5q-25 0 -40 -25q-10 -20 -29 -20q-18 0 -25.5 9z" />
    <glyph glyph-name="adieresis" unicode="&#xe4;" horiz-adv-x="570" 
d="M77.5 28q-42.5 39 -42.5 106q0 77 56.5 120.5t175.5 43.5q4 0 49 -3h3q9 0 9 11v47q0 83 -68 83q-30 0 -53.5 -20t-54.5 -68q-7 -11 -14.5 -16t-18.5 -5t-17.5 6t-11.5 19l-36 80q-4 8 -4 16q0 14 18 23q34 17 86 29t109 12q116 0 166 -49.5t52 -147.5l3 -207
q0 -22 18 -22q12 0 25 13q1 1 7 6t14 5q11 0 17 -7t6 -19q0 -44 -32 -68.5t-80 -24.5q-37 0 -61 14t-44 43q-3 7 -9 7q-5 0 -11 -6q-54 -60 -139 -60q-75 0 -117.5 39zM316 117q14 15 14 36v56q0 13 -13 15q-17 3 -37 3q-90 0 -90 -71q0 -31 17 -47.5t48 -16.5q34 0 61 25z
M105 592.5q-23 20.5 -23 54.5t23 54.5t61 20.5t60.5 -20t22.5 -55t-22.5 -55t-60.5 -20t-61 20.5zM319 592.5q-23 20.5 -23 54.5t23 54.5t61 20.5t61 -20.5t23 -54.5t-23 -54.5t-61 -20.5t-61 20.5z" />
    <glyph glyph-name="aring" unicode="&#xe5;" horiz-adv-x="570" 
d="M77.5 28q-42.5 39 -42.5 106q0 77 56.5 120.5t175.5 43.5q4 0 49 -3h3q9 0 9 11v47q0 83 -68 83q-30 0 -53.5 -20t-54.5 -68q-7 -11 -14.5 -16t-18.5 -5t-17.5 6t-11.5 19l-36 80q-4 8 -4 16q0 14 18 23q34 17 86 29t109 12q116 0 166 -49.5t52 -147.5l3 -207
q0 -22 18 -22q12 0 25 13q1 1 7 6t14 5q11 0 17 -7t6 -19q0 -44 -32 -68.5t-80 -24.5q-37 0 -61 14t-44 43q-3 7 -9 7q-5 0 -11 -6q-54 -60 -139 -60q-75 0 -117.5 39zM316 117q14 15 14 36v56q0 13 -13 15q-17 3 -37 3q-90 0 -90 -71q0 -31 17 -47.5t48 -16.5q34 0 61 25z
M190 574q-32 30 -32 75t32 75t83 30t82.5 -30t31.5 -75t-31.5 -75t-82.5 -30t-83 30zM303 608.5q9 10.5 9 30.5q0 25 -13 43t-32 18q-15 0 -24 -10.5t-9 -30.5q0 -25 13 -43t32 -18q15 0 24 10.5z" />
    <glyph glyph-name="ae" unicode="&#xe6;" horiz-adv-x="836" 
d="M77.5 28q-42.5 39 -42.5 107q0 75 55.5 118.5t173.5 44.5q27 0 51 -3h2q11 0 11 12v37q0 50 -17 71t-51 21q-30 0 -53 -20t-55 -68q-7 -11 -14.5 -16t-18.5 -5t-17.5 6t-11.5 19l-36 80q-4 8 -4 16q0 14 18 23q33 17 85 29t105 12q56 0 94.5 -11t64.5 -34q5 -3 8 -3
q4 0 10 3q60 45 143 45q86 0 143.5 -43.5t79.5 -124.5q1 -4 1 -10q0 -18 -21 -27l-272 -100q-8 -3 -8 -9q0 -3 3 -8q22 -36 59 -56t85 -20q66 0 109 39q16 14 32 14q10 0 16 -5q13 -9 13 -23q0 -12 -5 -25q-22 -56 -77 -90.5t-143 -34.5q-64 0 -116 22.5t-87 63.5q-5 5 -9 5
t-9 -6q-31 -37 -73 -61t-105 -24q-74 0 -116.5 39zM634 351q13 5 9 18q-10 27 -30 41t-46 14q-42 0 -69.5 -31t-27.5 -89v-7q2 -10 13 -6zM303 107q22 15 36 41q4 8 1 16q-3 12 -10 46q-1 12 -11 13q-17 4 -39 4q-90 0 -90 -71q0 -30 17 -47t46 -17q28 0 50 15z" />
    <glyph glyph-name="ccedilla" unicode="&#xe7;" horiz-adv-x="517" 
d="M223.5 -193q-25.5 12 -37.5 31q-6 12 -6 19q0 6 5 13q6 7 15 7t17 -5q23 -16 43 -16q12 0 19 7t7 18q0 12 -6 19t-21 13l-16 7q-16 6 -16 16l2 8l12 37l1 4q0 7 -11 10q-93 18 -145.5 88.5t-52.5 166.5q0 78 32 137t88 91.5t127 32.5q20 0 48 -6q30 -5 39 -5q11 0 24 3.5
t19 3.5q18 0 26 -18l56 -129q3 -7 3 -13q0 -14 -15 -23l-8 -4q-8 -4 -16 -4q-13 0 -25 12q-48 53 -81.5 76t-71.5 23q-40 0 -67 -29.5t-27 -82.5q0 -59 23.5 -104t63.5 -69.5t89 -24.5t85 28q20 15 30 15q7 0 15 -5q14 -8 14 -24q0 -13 -7 -27q-24 -54 -69 -81.5t-109 -33.5
q-9 0 -12 -10l-3 -9l-1 -4q0 -5 9 -8l4 -1q34 -12 50.5 -30.5t16.5 -47.5q0 -39 -26.5 -61.5t-72.5 -22.5q-35 0 -60.5 12z" />
    <glyph glyph-name="egrave" unicode="&#xe8;" horiz-adv-x="541" 
d="M524 139q0 -10 -6 -25q-21 -55 -76 -90t-143 -35q-78 0 -138.5 33.5t-94 92.5t-33.5 135t31.5 135.5t89 93t130.5 33.5q86 0 143.5 -44t78.5 -124q2 -8 2 -12q0 -17 -21 -25l-272 -99q-6 -2 -7 -7t2 -10q21 -36 59 -56.5t86 -20.5q32 0 60 10.5t48 28.5q16 14 31 14
q11 0 17 -5q13 -10 13 -23zM203 392q-27 -32 -27 -88v-6q0 -6 4 -8t10 1l150 60q14 5 8 18q-9 27 -29 41t-46 14q-43 0 -70 -32zM155 629q-15 6 -15 19q0 7 4 14l38 74q7 13 19 13q7 0 16 -6l173 -119q13 -9 13 -20q0 -7 -5 -15l-13 -27q-8 -14 -20 -14q-6 0 -13 3z" />
    <glyph glyph-name="eacute" unicode="&#xe9;" horiz-adv-x="541" 
d="M524 139q0 -10 -6 -25q-21 -55 -76 -90t-143 -35q-78 0 -138.5 33.5t-94 92.5t-33.5 135t31.5 135.5t89 93t130.5 33.5q86 0 143.5 -44t78.5 -124q2 -8 2 -12q0 -17 -21 -25l-272 -99q-6 -2 -7 -7t2 -10q21 -36 59 -56.5t86 -20.5q32 0 60 10.5t48 28.5q16 14 31 14
q11 0 17 -5q13 -10 13 -23zM203 392q-27 -32 -27 -88v-6q0 -6 4 -8t10 1l150 60q14 5 8 18q-9 27 -29 41t-46 14q-43 0 -70 -32zM206 551q-8 -3 -13 -3q-12 0 -20 14l-13 27q-5 8 -5 15q0 11 13 20l173 119q9 6 16 6q12 0 19 -13l38 -74q4 -7 4 -14q0 -13 -15 -19z" />
    <glyph glyph-name="ecircumflex" unicode="&#xea;" horiz-adv-x="541" 
d="M524 139q0 -10 -6 -25q-21 -55 -76 -90t-143 -35q-78 0 -138.5 33.5t-94 92.5t-33.5 135t31.5 135.5t89 93t130.5 33.5q86 0 143.5 -44t78.5 -124q2 -8 2 -12q0 -17 -21 -25l-272 -99q-6 -2 -7 -7t2 -10q21 -36 59 -56.5t86 -20.5q32 0 60 10.5t48 28.5q16 14 31 14
q11 0 17 -5q13 -10 13 -23zM203 392q-27 -32 -27 -88v-6q0 -6 4 -8t10 1l150 60q14 5 8 18q-9 27 -29 41t-46 14q-43 0 -70 -32zM154 550q-7 -4 -14 -4q-10 0 -15 8l-21 29q-7 11 -7 17q0 7 8 15l122 110q8 7 15 10.5t16 3.5h42q9 0 16 -3.5t15 -10.5l122 -110q8 -8 8 -16
q0 -7 -6 -16l-21 -29q-5 -8 -15 -8q-7 0 -14 4l-117 71q-3 2 -9 2t-9 -2z" />
    <glyph glyph-name="edieresis" unicode="&#xeb;" horiz-adv-x="541" 
d="M524 139q0 -10 -6 -25q-21 -55 -76 -90t-143 -35q-78 0 -138.5 33.5t-94 92.5t-33.5 135t31.5 135.5t89 93t130.5 33.5q86 0 143.5 -44t78.5 -124q2 -8 2 -12q0 -17 -21 -25l-272 -99q-6 -2 -7 -7t2 -10q21 -36 59 -56.5t86 -20.5q32 0 60 10.5t48 28.5q16 14 31 14
q11 0 17 -5q13 -10 13 -23zM203 392q-27 -32 -27 -88v-6q0 -6 4 -8t10 1l150 60q14 5 8 18q-9 27 -29 41t-46 14q-43 0 -70 -32zM111 592.5q-23 20.5 -23 54.5t23 54.5t61 20.5t60.5 -20t22.5 -55t-22.5 -55t-60.5 -20t-61 20.5zM325 592.5q-23 20.5 -23 54.5t23 54.5
t61 20.5t61 -20.5t23 -54.5t-23 -54.5t-61 -20.5t-61 20.5z" />
    <glyph glyph-name="igrave" unicode="&#xec;" horiz-adv-x="339" 
d="M61 0q-12 0 -19 7t-7 18v28q0 21 21 28l15 5q15 5 21 13.5t6 24.5v209q0 22 -8.5 33.5t-32.5 18.5q-12 4 -17 9.5t-5 16.5v25q0 22 22 28l151 45q11 3 18 3q29 0 29 -33v-355q0 -16 6 -24.5t20 -13.5l15 -5q21 -7 21 -28v-28q0 -11 -7 -18t-18 -7h-231zM44 629
q-15 6 -15 19q0 7 4 14l38 74q7 13 19 13q7 0 16 -6l173 -119q13 -9 13 -20q0 -7 -5 -15l-13 -27q-8 -14 -20 -14q-6 0 -13 3z" />
    <glyph glyph-name="iacute" unicode="&#xed;" horiz-adv-x="339" 
d="M61 0q-12 0 -19 7t-7 18v28q0 21 21 28l15 5q15 5 21 13.5t6 24.5v209q0 22 -8.5 33.5t-32.5 18.5q-12 4 -17 9.5t-5 16.5v25q0 22 22 28l151 45q11 3 18 3q29 0 29 -33v-355q0 -16 6 -24.5t20 -13.5l15 -5q21 -7 21 -28v-28q0 -11 -7 -18t-18 -7h-231zM95 551
q-8 -3 -13 -3q-12 0 -20 14l-13 27q-5 8 -5 15q0 11 13 20l173 119q9 6 16 6q12 0 19 -13l38 -74q4 -7 4 -14q0 -13 -15 -19z" />
    <glyph glyph-name="icircumflex" unicode="&#xee;" horiz-adv-x="339" 
d="M61 0q-12 0 -19 7t-7 18v28q0 21 21 28l15 5q15 5 21 13.5t6 24.5v209q0 22 -8.5 33.5t-32.5 18.5q-12 4 -17 9.5t-5 16.5v25q0 22 22 28l151 45q11 3 18 3q29 0 29 -33v-355q0 -16 6 -24.5t20 -13.5l15 -5q21 -7 21 -28v-28q0 -11 -7 -18t-18 -7h-231zM43 550
q-7 -4 -14 -4q-10 0 -15 8l-21 29q-7 11 -7 17q0 7 8 15l122 110q8 7 15 10.5t16 3.5h42q9 0 16 -3.5t15 -10.5l122 -110q8 -8 8 -16q0 -7 -6 -16l-21 -29q-5 -8 -15 -8q-7 0 -14 4l-117 71q-3 2 -9 2t-9 -2z" />
    <glyph glyph-name="idieresis" unicode="&#xef;" horiz-adv-x="339" 
d="M61 0q-12 0 -19 7t-7 18v28q0 21 21 28l15 5q15 5 21 13.5t6 24.5v209q0 22 -8.5 33.5t-32.5 18.5q-12 4 -17 9.5t-5 16.5v25q0 22 22 28l151 45q11 3 18 3q29 0 29 -33v-355q0 -16 6 -24.5t20 -13.5l15 -5q21 -7 21 -28v-28q0 -11 -7 -18t-18 -7h-231zM0 592.5
q-23 20.5 -23 54.5t23 54.5t61 20.5t60.5 -20t22.5 -55t-22.5 -55t-60.5 -20t-61 20.5zM214 592.5q-23 20.5 -23 54.5t23 54.5t61 20.5t61 -20.5t23 -54.5t-23 -54.5t-61 -20.5t-61 20.5z" />
    <glyph glyph-name="eth" unicode="&#xf0;" horiz-adv-x="596" 
d="M157 22q-58 33 -91 93.5t-33 138.5q0 75 29 130t77 83.5t103 28.5q37 0 63.5 -9.5t51.5 -26.5q3 -3 7 -3t6 3.5t1 8.5q-13 52 -50 104q-5 8 -16 3l-94 -46q-6 -3 -13 -3q-13 0 -21 15l-12 24q-3 6 -3 12q0 14 16 21l69 34q7 4 7 8q0 5 -6 9q-26 20 -52 34q-28 15 -28 36
q0 6 1 9q3 10 11.5 16t19.5 6q7 0 16 -3q62 -17 126 -58q8 -6 16 -2l82 40q6 3 13 3q13 0 20 -15l12 -23q3 -6 3 -12q0 -14 -15 -22l-45 -22q-7 -3 -7 -8q0 -4 4 -8q62 -65 97 -152t35 -191q0 -83 -31.5 -148.5t-92 -103t-144.5 -37.5q-74 0 -132 33zM376.5 115.5
q19.5 24.5 19.5 72.5q0 51 -18 100t-49 79.5t-66 30.5q-36 0 -55.5 -24t-19.5 -71q0 -51 18 -100.5t48 -80.5t66 -31q37 0 56.5 24.5z" />
    <glyph glyph-name="ntilde" unicode="&#xf1;" horiz-adv-x="643" 
d="M61 0q-12 0 -19 7t-7 18v28q0 21 21 28l15 5q15 5 21 13.5t6 24.5v211q0 22 -8.5 33.5t-32.5 18.5q-12 4 -17 9.5t-5 16.5v25q0 22 22 28l145 43q11 3 18 3q28 0 28 -33v-12q0 -8 5.5 -10.5t11.5 1.5l20 11q75 43 143 43q65 0 98.5 -38.5t33.5 -109.5v-240q0 -16 6 -24.5
t21 -13.5l15 -5q21 -7 21 -28v-28q0 -11 -7 -18t-19 -7h-169q-11 0 -18 7t-7 18v320q0 28 -9 42.5t-31 14.5q-23 0 -47 -6.5t-43 -17.5q-10 -5 -14 -11.5t-4 -17.5v-225q0 -16 6 -24.5t20 -13.5l15 -5q21 -7 21 -28v-28q0 -11 -7 -18t-18 -7h-231zM153.5 584q-7.5 9 -4.5 26
q5 54 36.5 85t74.5 31q29 0 62 -12l42 -16q2 -1 17 -6.5t29 -5.5t23.5 6t16.5 19q11 20 30 20q33 0 30 -35q-5 -54 -36.5 -85t-74.5 -31q-29 0 -63 12l-41 16q-12 5 -24 8.5t-23 3.5q-25 0 -40 -25q-10 -20 -29 -20q-18 0 -25.5 9z" />
    <glyph glyph-name="ograve" unicode="&#xf2;" horiz-adv-x="594" 
d="M160 22.5q-60 33.5 -93.5 93t-33.5 134.5t33.5 135t93.5 93.5t137 33.5t137 -33.5t93.5 -93.5t33.5 -135t-33.5 -134.5t-93.5 -93t-137 -33.5t-137 33.5zM385 118.5q22 28.5 22 79.5q0 55 -19 104.5t-50.5 79t-67.5 29.5q-38 0 -60.5 -28.5t-22.5 -79.5q0 -55 19 -104.5
t50.5 -79t67.5 -29.5q39 0 61 28.5zM173 629q-15 6 -15 19q0 7 4 14l38 74q7 13 19 13q7 0 16 -6l173 -119q13 -9 13 -20q0 -7 -5 -15l-13 -27q-8 -14 -20 -14q-6 0 -13 3z" />
    <glyph glyph-name="oacute" unicode="&#xf3;" horiz-adv-x="594" 
d="M160 22.5q-60 33.5 -93.5 93t-33.5 134.5t33.5 135t93.5 93.5t137 33.5t137 -33.5t93.5 -93.5t33.5 -135t-33.5 -134.5t-93.5 -93t-137 -33.5t-137 33.5zM385 118.5q22 28.5 22 79.5q0 55 -19 104.5t-50.5 79t-67.5 29.5q-38 0 -60.5 -28.5t-22.5 -79.5q0 -55 19 -104.5
t50.5 -79t67.5 -29.5q39 0 61 28.5zM224 551q-8 -3 -13 -3q-12 0 -20 14l-13 27q-5 8 -5 15q0 11 13 20l173 119q9 6 16 6q12 0 19 -13l38 -74q4 -7 4 -14q0 -13 -15 -19z" />
    <glyph glyph-name="ocircumflex" unicode="&#xf4;" horiz-adv-x="594" 
d="M160 22.5q-60 33.5 -93.5 93t-33.5 134.5t33.5 135t93.5 93.5t137 33.5t137 -33.5t93.5 -93.5t33.5 -135t-33.5 -134.5t-93.5 -93t-137 -33.5t-137 33.5zM385 118.5q22 28.5 22 79.5q0 55 -19 104.5t-50.5 79t-67.5 29.5q-38 0 -60.5 -28.5t-22.5 -79.5q0 -55 19 -104.5
t50.5 -79t67.5 -29.5q39 0 61 28.5zM172 550q-7 -4 -14 -4q-10 0 -15 8l-21 29q-7 11 -7 17q0 7 8 15l122 110q8 7 15 10.5t16 3.5h42q9 0 16 -3.5t15 -10.5l122 -110q8 -8 8 -16q0 -7 -6 -16l-21 -29q-5 -8 -15 -8q-7 0 -14 4l-117 71q-3 2 -9 2t-9 -2z" />
    <glyph glyph-name="otilde" unicode="&#xf5;" horiz-adv-x="594" 
d="M160 22.5q-60 33.5 -93.5 93t-33.5 134.5t33.5 135t93.5 93.5t137 33.5t137 -33.5t93.5 -93.5t33.5 -135t-33.5 -134.5t-93.5 -93t-137 -33.5t-137 33.5zM385 118.5q22 28.5 22 79.5q0 55 -19 104.5t-50.5 79t-67.5 29.5q-38 0 -60.5 -28.5t-22.5 -79.5q0 -55 19 -104.5
t50.5 -79t67.5 -29.5q39 0 61 28.5zM121.5 584q-7.5 9 -4.5 26q5 54 36.5 85t74.5 31q29 0 62 -12l42 -16q2 -1 17 -6.5t29 -5.5t23.5 6t16.5 19q11 20 30 20q33 0 30 -35q-5 -54 -36.5 -85t-74.5 -31q-29 0 -63 12l-41 16q-12 5 -24 8.5t-23 3.5q-25 0 -40 -25
q-10 -20 -29 -20q-18 0 -25.5 9z" />
    <glyph glyph-name="odieresis" unicode="&#xf6;" horiz-adv-x="594" 
d="M160 22.5q-60 33.5 -93.5 93t-33.5 134.5t33.5 135t93.5 93.5t137 33.5t137 -33.5t93.5 -93.5t33.5 -135t-33.5 -134.5t-93.5 -93t-137 -33.5t-137 33.5zM385 118.5q22 28.5 22 79.5q0 55 -19 104.5t-50.5 79t-67.5 29.5q-38 0 -60.5 -28.5t-22.5 -79.5q0 -55 19 -104.5
t50.5 -79t67.5 -29.5q39 0 61 28.5zM129 592.5q-23 20.5 -23 54.5t23 54.5t61 20.5t60.5 -20t22.5 -55t-22.5 -55t-60.5 -20t-61 20.5zM343 592.5q-23 20.5 -23 54.5t23 54.5t61 20.5t61 -20.5t23 -54.5t-23 -54.5t-61 -20.5t-61 20.5z" />
    <glyph glyph-name="divide" unicode="&#xf7;" horiz-adv-x="647" 
d="M270 452.5q-21 20.5 -21 50.5t21 50t54 20t54.5 -20t21.5 -50t-21.5 -50.5t-54.5 -20.5t-54 20.5zM111 279q-12 0 -19 7t-7 18v36q0 11 7 18t19 7h425q12 0 18.5 -7t6.5 -18v-36q0 -11 -6.5 -18t-18.5 -7h-425zM270 95.5q-21 20.5 -21 50.5t21 50t54 20t54.5 -20
t21.5 -50t-21.5 -50.5t-54.5 -20.5t-54 20.5z" />
    <glyph glyph-name="oslash" unicode="&#xf8;" horiz-adv-x="594" 
d="M87 -5q-12 9 -12 20q0 7 7 17l18 22q3 5 3 8q0 5 -4 9q-32 35 -49 80.5t-17 98.5q0 75 33.5 135t93.5 93.5t137 33.5q62 0 116 -24q6 -2 8 -2q4 0 9 6l19 25q9 10 19 10q8 0 17 -6l22 -16q11 -9 11 -20q0 -7 -6 -16l-18 -23q-3 -4 -3 -8q0 -5 4 -9q32 -33 49 -79t17 -100
q0 -75 -33.5 -134.5t-93.5 -93t-137 -33.5q-66 0 -117 24q-6 2 -7 2q-5 0 -10 -6l-19 -25q-8 -11 -19 -11q-7 0 -16 6zM209 207q4 0 9 5l118 154q3 5 3 9q0 5 -4 8q-31 28 -65 28q-38 0 -60.5 -28.5t-22.5 -79.5q0 -48 15 -89q3 -7 7 -7zM385 118.5q22 28.5 22 79.5
q0 49 -15 89q-3 7 -8 7t-9 -5l-116 -154q-3 -4 -3 -9t5 -10q31 -26 63 -26q39 0 61 28.5z" />
    <glyph glyph-name="ugrave" unicode="&#xf9;" horiz-adv-x="627" 
d="M80 143v191q0 22 -8.5 33.5t-32.5 17.5q-12 4 -17 9.5t-5 16.5v25q0 21 22 28l152 45q10 3 18 3q28 0 28 -32v-325q0 -28 10 -41.5t33 -13.5q21 0 44.5 7t43.5 18q10 6 13.5 13t3.5 18v178q0 22 -8 33.5t-32 17.5q-12 4 -17 9.5t-5 16.5v25q0 21 21 28l152 45q10 3 18 3
q28 0 28 -32v-356q0 -16 6 -24.5t21 -13.5l14 -5q22 -6 22 -28v-27q0 -12 -7 -19t-19 -7h-152q-14 0 -21.5 6.5t-11.5 20.5l-2 9q-2 8 -6 10t-10 -2l-18 -14q-52 -41 -136 -41q-142 0 -142 154zM187 629q-15 6 -15 19q0 7 4 14l38 74q7 13 19 13q7 0 16 -6l173 -119
q13 -9 13 -20q0 -7 -5 -15l-13 -27q-8 -14 -20 -14q-6 0 -13 3z" />
    <glyph glyph-name="uacute" unicode="&#xfa;" horiz-adv-x="627" 
d="M80 143v191q0 22 -8.5 33.5t-32.5 17.5q-12 4 -17 9.5t-5 16.5v25q0 21 22 28l152 45q10 3 18 3q28 0 28 -32v-325q0 -28 10 -41.5t33 -13.5q21 0 44.5 7t43.5 18q10 6 13.5 13t3.5 18v178q0 22 -8 33.5t-32 17.5q-12 4 -17 9.5t-5 16.5v25q0 21 21 28l152 45q10 3 18 3
q28 0 28 -32v-356q0 -16 6 -24.5t21 -13.5l14 -5q22 -6 22 -28v-27q0 -12 -7 -19t-19 -7h-152q-14 0 -21.5 6.5t-11.5 20.5l-2 9q-2 8 -6 10t-10 -2l-18 -14q-52 -41 -136 -41q-142 0 -142 154zM238 551q-8 -3 -13 -3q-12 0 -20 14l-13 27q-5 8 -5 15q0 11 13 20l173 119
q9 6 16 6q12 0 19 -13l38 -74q4 -7 4 -14q0 -13 -15 -19z" />
    <glyph glyph-name="ucircumflex" unicode="&#xfb;" horiz-adv-x="627" 
d="M80 143v191q0 22 -8.5 33.5t-32.5 17.5q-12 4 -17 9.5t-5 16.5v25q0 21 22 28l152 45q10 3 18 3q28 0 28 -32v-325q0 -28 10 -41.5t33 -13.5q21 0 44.5 7t43.5 18q10 6 13.5 13t3.5 18v178q0 22 -8 33.5t-32 17.5q-12 4 -17 9.5t-5 16.5v25q0 21 21 28l152 45q10 3 18 3
q28 0 28 -32v-356q0 -16 6 -24.5t21 -13.5l14 -5q22 -6 22 -28v-27q0 -12 -7 -19t-19 -7h-152q-14 0 -21.5 6.5t-11.5 20.5l-2 9q-2 8 -6 10t-10 -2l-18 -14q-52 -41 -136 -41q-142 0 -142 154zM186 550q-7 -4 -14 -4q-10 0 -15 8l-21 29q-7 11 -7 17q0 7 8 15l122 110
q8 7 15 10.5t16 3.5h42q9 0 16 -3.5t15 -10.5l122 -110q8 -8 8 -16q0 -7 -6 -16l-21 -29q-5 -8 -15 -8q-7 0 -14 4l-117 71q-3 2 -9 2t-9 -2z" />
    <glyph glyph-name="udieresis" unicode="&#xfc;" horiz-adv-x="627" 
d="M80 143v191q0 22 -8.5 33.5t-32.5 17.5q-12 4 -17 9.5t-5 16.5v25q0 21 22 28l152 45q10 3 18 3q28 0 28 -32v-325q0 -28 10 -41.5t33 -13.5q21 0 44.5 7t43.5 18q10 6 13.5 13t3.5 18v178q0 22 -8 33.5t-32 17.5q-12 4 -17 9.5t-5 16.5v25q0 21 21 28l152 45q10 3 18 3
q28 0 28 -32v-356q0 -16 6 -24.5t21 -13.5l14 -5q22 -6 22 -28v-27q0 -12 -7 -19t-19 -7h-152q-14 0 -21.5 6.5t-11.5 20.5l-2 9q-2 8 -6 10t-10 -2l-18 -14q-52 -41 -136 -41q-142 0 -142 154zM143 592.5q-23 20.5 -23 54.5t23 54.5t61 20.5t60.5 -20t22.5 -55t-22.5 -55
t-60.5 -20t-61 20.5zM357 592.5q-23 20.5 -23 54.5t23 54.5t61 20.5t61 -20.5t23 -54.5t-23 -54.5t-61 -20.5t-61 20.5z" />
    <glyph glyph-name="yacute" unicode="&#xfd;" horiz-adv-x="524" 
d="M108 -216q-10 0 -16 4.5t-6 11.5q0 6 5 14l94 154q13 20 13 40q0 14 -6 29l-127 322q-10 24 -19 36t-23 18l-15 7q-10 5 -14.5 11t-4.5 18v26q0 25 25 25h151q22 0 29 -20l98 -290q3 -6 7 -6q5 0 6 6l72 189q4 9 4 18q0 13 -16 21l-19 7q-15 6 -15 24v26q0 12 7 18.5
t18 6.5h151q12 0 19 -6.5t7 -18.5v-25q0 -9 -3.5 -14t-12.5 -12l-13 -8q-16 -11 -24.5 -22.5t-17.5 -34.5l-136 -346l-84 -208q-5 -11 -11 -16t-17 -5h-106zM188 551q-8 -3 -13 -3q-12 0 -20 14l-13 27q-5 8 -5 15q0 11 13 20l173 119q9 6 16 6q12 0 19 -13l38 -74
q4 -7 4 -14q0 -13 -15 -19z" />
    <glyph glyph-name="thorn" unicode="&#xfe;" horiz-adv-x="604" 
d="M38 -216q-12 0 -19 7t-7 18v28q0 20 21 28l15 5q15 5 21 13.5t6 24.5v665q0 22 -8 33.5t-33 18.5q-12 4 -17 9.5t-5 16.5v24q0 22 22 29l151 44q11 3 19 3q28 0 28 -32v-237q0 -9 7 -9q3 0 8 3q21 14 49.5 24t60.5 10q61 0 108.5 -30t74 -87t26.5 -136q0 -84 -30 -144.5
t-82 -92t-116 -31.5q-47 0 -91 18q-2 1 -6 1q-9 0 -9 -10v-90q0 -16 5.5 -24.5t20.5 -12.5l25 -6q21 -5 21 -28v-28q0 -11 -7 -18t-18 -7h-241zM371 119q32 42 32 128q0 77 -31 122t-82 45q-25 0 -41 -10q-10 -6 -13.5 -16t-3.5 -25v-242q0 -25 15 -34q17 -10 41 -10
q51 0 83 42z" />
    <glyph glyph-name="ydieresis" unicode="&#xff;" horiz-adv-x="524" 
d="M108 -216q-10 0 -16 4.5t-6 11.5q0 6 5 14l94 154q13 20 13 40q0 14 -6 29l-127 322q-10 24 -19 36t-23 18l-15 7q-10 5 -14.5 11t-4.5 18v26q0 25 25 25h151q22 0 29 -20l98 -290q3 -6 7 -6q5 0 6 6l72 189q4 9 4 18q0 13 -16 21l-19 7q-15 6 -15 24v26q0 12 7 18.5
t18 6.5h151q12 0 19 -6.5t7 -18.5v-25q0 -9 -3.5 -14t-12.5 -12l-13 -8q-16 -11 -24.5 -22.5t-17.5 -34.5l-136 -346l-84 -208q-5 -11 -11 -16t-17 -5h-106zM94 592.5q-23 20.5 -23 54.5t23 54.5t61 20.5t60.5 -20t22.5 -55t-22.5 -55t-60.5 -20t-61 20.5zM308 592.5
q-23 20.5 -23 54.5t23 54.5t61 20.5t61 -20.5t23 -54.5t-23 -54.5t-61 -20.5t-61 20.5z" />
    <glyph glyph-name="Amacron" unicode="&#x100;" horiz-adv-x="750" 
d="M36 0q-12 0 -18.5 7t-6.5 18v23q0 11 4 17.5t14 11.5l19 10q46 24 62 63l161 404q6 14 6 24q0 22 -30 35l-26 10q-24 8 -24 25q0 6 1 9l5 20q6 23 28 23h170q22 0 31 -21l222 -521q13 -30 23.5 -42t29.5 -22l23 -12q10 -5 14 -11.5t4 -16.5v-29q0 -12 -7 -18.5t-19 -6.5
h-267q-12 0 -19 7t-7 18v29q0 19 18 26l14 6q13 5 19.5 12t6.5 17q0 9 -4 20l-19 50q-3 10 -14 10h-213q-11 0 -14 -10l-11 -31q-7 -21 -7 -30q0 -26 30 -43l12 -6q10 -5 14 -11t4 -16v-23q0 -11 -7 -18t-19 -7h-203zM414 271q7 0 9 4t0 10l-75 189q-3 8 -8 8t-8 -8
l-71 -189q-1 -2 -1 -5q0 -9 11 -9h143zM220 776q-12 0 -18.5 7t-6.5 19v46q0 12 7 18.5t18 6.5h246q25 0 25 -25v-46q0 -26 -25 -26h-246z" />
    <glyph glyph-name="amacron" unicode="&#x101;" horiz-adv-x="570" 
d="M77.5 28q-42.5 39 -42.5 106q0 77 56.5 120.5t175.5 43.5q4 0 49 -3h3q9 0 9 11v47q0 83 -68 83q-30 0 -53.5 -20t-54.5 -68q-7 -11 -14.5 -16t-18.5 -5t-17.5 6t-11.5 19l-36 80q-4 8 -4 16q0 14 18 23q34 17 86 29t109 12q116 0 166 -49.5t52 -147.5l3 -207
q0 -22 18 -22q12 0 25 13q1 1 7 6t14 5q11 0 17 -7t6 -19q0 -44 -32 -68.5t-80 -24.5q-37 0 -61 14t-44 43q-3 7 -9 7q-5 0 -11 -6q-54 -60 -139 -60q-75 0 -117.5 39zM316 117q14 15 14 36v56q0 13 -13 15q-17 3 -37 3q-90 0 -90 -71q0 -31 17 -47.5t48 -16.5q34 0 61 25z
M149 583q-12 0 -18.5 7t-6.5 19v46q0 12 7 18.5t18 6.5h246q25 0 25 -25v-46q0 -26 -25 -26h-246z" />
    <glyph glyph-name="Abreve" unicode="&#x102;" horiz-adv-x="750" 
d="M36 0q-12 0 -18.5 7t-6.5 18v23q0 11 4 17.5t14 11.5l19 10q46 24 62 63l161 404q6 14 6 24q0 22 -30 35l-26 10q-24 8 -24 25q0 6 1 9l5 20q6 23 28 23h170q22 0 31 -21l222 -521q13 -30 23.5 -42t29.5 -22l23 -12q10 -5 14 -11.5t4 -16.5v-29q0 -12 -7 -18.5t-19 -6.5
h-267q-12 0 -19 7t-7 18v29q0 19 18 26l14 6q13 5 19.5 12t6.5 17q0 9 -4 20l-19 50q-3 10 -14 10h-213q-11 0 -14 -10l-11 -31q-7 -21 -7 -30q0 -26 30 -43l12 -6q10 -5 14 -11t4 -16v-23q0 -11 -7 -18t-19 -7h-203zM414 271q7 0 9 4t0 10l-75 189q-3 8 -8 8t-8 -8
l-71 -189q-1 -2 -1 -5q0 -9 11 -9h143zM228.5 795q-41.5 36 -44.5 95q-2 37 30 37q20 0 28 -20q12 -23 34 -34.5t67 -11.5t67.5 11.5t33.5 34.5q9 20 29 20q29 0 29 -33q0 -61 -42 -98t-117 -37q-73 0 -114.5 36z" />
    <glyph glyph-name="abreve" unicode="&#x103;" horiz-adv-x="570" 
d="M77.5 28q-42.5 39 -42.5 106q0 77 56.5 120.5t175.5 43.5q4 0 49 -3h3q9 0 9 11v47q0 83 -68 83q-30 0 -53.5 -20t-54.5 -68q-7 -11 -14.5 -16t-18.5 -5t-17.5 6t-11.5 19l-36 80q-4 8 -4 16q0 14 18 23q34 17 86 29t109 12q116 0 166 -49.5t52 -147.5l3 -207
q0 -22 18 -22q12 0 25 13q1 1 7 6t14 5q11 0 17 -7t6 -19q0 -44 -32 -68.5t-80 -24.5q-37 0 -61 14t-44 43q-3 7 -9 7q-5 0 -11 -6q-54 -60 -139 -60q-75 0 -117.5 39zM316 117q14 15 14 36v56q0 13 -13 15q-17 3 -37 3q-90 0 -90 -71q0 -31 17 -47.5t48 -16.5q34 0 61 25z
M160 593q-40 37 -43 106q-1 36 31 36q20 0 26 -21q9 -28 31.5 -42t66.5 -14t66.5 14t32.5 42q8 21 26 21q32 0 30 -34q-4 -71 -43.5 -108t-111.5 -37t-112 37z" />
    <glyph glyph-name="Aogonek" unicode="&#x104;" horiz-adv-x="750" 
d="M36 0q-12 0 -18.5 7t-6.5 18v23q0 11 4 17.5t14 11.5l19 10q46 24 62 63l161 404q6 14 6 24q0 22 -30 35l-26 10q-24 8 -24 25q0 6 1 9l5 20q6 23 28 23h170q22 0 31 -21l222 -521q13 -30 23.5 -42t29.5 -22l23 -12q10 -5 14 -11.5t4 -16.5v-29q0 -12 -7 -18.5t-19 -6.5
h-267q-12 0 -19 7t-7 18v29q0 19 18 26l14 6q13 5 19.5 12t6.5 17q0 9 -4 20l-19 50q-3 10 -14 10h-213q-11 0 -14 -10l-11 -31q-7 -21 -7 -30q0 -26 30 -43l12 -6q10 -5 14 -11t4 -16v-23q0 -11 -7 -18t-19 -7h-203zM414 271q7 0 9 4t0 10l-75 189q-3 8 -8 8t-8 -8
l-71 -189q-1 -2 -1 -5q0 -9 11 -9h143zM698 -148q0 -11 -8 -24q-12 -17 -34 -30.5t-57 -13.5q-50 0 -75 23t-25 61q0 31 15 58t50 59q5 4 5 8q0 7 -9 7h114q-15 0 -30 -17q-21 -23 -29 -42t-8 -40q0 -19 9 -29t23 -10q12 0 23 5t17 5q8 0 16 -8q3 -5 3 -12z" />
    <glyph glyph-name="aogonek" unicode="&#x105;" horiz-adv-x="570" 
d="M367 -193q-25 23 -25 61q0 31 15 58t50 59q5 5 5 8q0 4 -7 8q-15 7 -27 18t-24 29q-3 7 -9 7q-5 0 -11 -6q-54 -60 -139 -60q-75 0 -117.5 39t-42.5 106q0 77 56.5 120.5t175.5 43.5q4 0 49 -3h3q9 0 9 11v47q0 83 -68 83q-30 0 -53.5 -20t-54.5 -68q-7 -11 -14.5 -16
t-18.5 -5t-17.5 6t-11.5 19l-36 80q-4 8 -4 16q0 14 18 23q34 17 86 29t109 12q116 0 166 -49.5t52 -147.5l3 -207q0 -22 18 -22q12 0 25 13q1 1 7 6t14 5q11 0 17 -7t6 -19q0 -58 -56 -84q-20 -9 -30 -19q-20 -22 -28 -40.5t-8 -39.5q0 -19 9 -29t24 -10q11 0 22.5 5
t16.5 5q10 0 16 -8q4 -4 4 -13q0 -12 -8 -23q-12 -17 -34 -30.5t-57 -13.5q-50 0 -75 23zM316 117q14 15 14 36v56q0 13 -13 15q-17 3 -37 3q-90 0 -90 -71q0 -31 17 -47.5t48 -16.5q34 0 61 25z" />
    <glyph glyph-name="Cacute" unicode="&#x106;" horiz-adv-x="712" 
d="M208 36q-82 47 -127 131t-45 192q0 103 45.5 182.5t123.5 123.5t174 44q38 0 93 -16q5 -1 18 -4.5t21 -3.5q13 0 27 8q5 3 10.5 5.5t12.5 2.5h15q15 0 22 -5t13 -17l75 -182q3 -7 3 -13q0 -12 -14 -21l-20 -10q-10 -5 -17 -5q-13 0 -22 12q-70 89 -122 125t-115 36
q-49 0 -89.5 -24.5t-63.5 -70.5t-23 -108q0 -83 33.5 -146.5t92.5 -98t133 -34.5q56 0 91.5 15.5t67.5 44.5q19 17 36 17q9 0 13 -2q21 -9 21 -35q0 -42 -34.5 -86t-101.5 -74t-159 -30q-106 0 -188 47zM294 754q-3 -1 -9 -1q-16 0 -22 17l-10 28q-3 8 -3 13q0 14 15 21
l191 94q7 4 14 4q14 0 20 -17l27 -78q2 -8 2 -11q0 -17 -19 -20z" />
    <glyph glyph-name="cacute" unicode="&#x107;" horiz-adv-x="517" 
d="M155.5 23q-59.5 34 -91 93.5t-31.5 133.5q0 78 32 137t88 91.5t127 32.5q20 0 48 -6q22 -5 39 -5q11 0 24 3.5t19 3.5q18 0 26 -18l56 -129q3 -7 3 -13q0 -14 -15 -23l-8 -4q-8 -4 -16 -4q-13 0 -25 12q-48 53 -81.5 76t-71.5 23q-40 0 -67 -29.5t-27 -82.5
q0 -59 23.5 -104t63.5 -69.5t89 -24.5t85 28q20 15 30 15q7 0 15 -5q14 -8 14 -24q0 -13 -7 -27q-24 -56 -76.5 -85.5t-124.5 -29.5q-81 0 -140.5 34zM196 551q-8 -3 -13 -3q-12 0 -20 14l-13 27q-5 8 -5 15q0 11 13 20l173 119q9 6 16 6q12 0 19 -13l38 -74q4 -7 4 -14
q0 -13 -15 -19z" />
    <glyph glyph-name="Ccircumflex" unicode="&#x108;" horiz-adv-x="712" 
d="M208 36q-82 47 -127 131t-45 192q0 103 45.5 182.5t123.5 123.5t174 44q38 0 93 -16q5 -1 18 -4.5t21 -3.5q13 0 27 8q5 3 10.5 5.5t12.5 2.5h15q15 0 22 -5t13 -17l75 -182q3 -7 3 -13q0 -12 -14 -21l-20 -10q-10 -5 -17 -5q-13 0 -22 12q-70 89 -122 125t-115 36
q-49 0 -89.5 -24.5t-63.5 -70.5t-23 -108q0 -83 33.5 -146.5t92.5 -98t133 -34.5q56 0 91.5 15.5t67.5 44.5q19 17 36 17q9 0 13 -2q21 -9 21 -35q0 -42 -34.5 -86t-101.5 -74t-159 -30q-106 0 -188 47zM241 754q-7 -3 -13 -3q-10 0 -16 10l-18 31q-4 7 -4 13q0 9 9 16
l120 91q17 13 34 13h41q18 0 34 -13l120 -91q9 -7 9 -16q0 -6 -4 -13l-18 -31q-6 -10 -16 -10q-5 0 -13 3l-124 54q-6 2 -9 2l-8 -2z" />
    <glyph glyph-name="ccircumflex" unicode="&#x109;" horiz-adv-x="517" 
d="M155.5 23q-59.5 34 -91 93.5t-31.5 133.5q0 78 32 137t88 91.5t127 32.5q20 0 48 -6q22 -5 39 -5q11 0 24 3.5t19 3.5q18 0 26 -18l56 -129q3 -7 3 -13q0 -14 -15 -23l-8 -4q-8 -4 -16 -4q-13 0 -25 12q-48 53 -81.5 76t-71.5 23q-40 0 -67 -29.5t-27 -82.5
q0 -59 23.5 -104t63.5 -69.5t89 -24.5t85 28q20 15 30 15q7 0 15 -5q14 -8 14 -24q0 -13 -7 -27q-24 -56 -76.5 -85.5t-124.5 -29.5q-81 0 -140.5 34zM144 550q-7 -4 -14 -4q-10 0 -15 8l-21 29q-7 11 -7 17q0 7 8 15l122 110q8 7 15 10.5t16 3.5h42q9 0 16 -3.5t15 -10.5
l122 -110q8 -8 8 -16q0 -7 -6 -16l-21 -29q-5 -8 -15 -8q-7 0 -14 4l-117 71q-3 2 -9 2t-9 -2z" />
    <glyph glyph-name="Cdotaccent" unicode="&#x10a;" horiz-adv-x="712" 
d="M208 36q-82 47 -127 131t-45 192q0 103 45.5 182.5t123.5 123.5t174 44q38 0 93 -16q5 -1 18 -4.5t21 -3.5q13 0 27 8q5 3 10.5 5.5t12.5 2.5h15q15 0 22 -5t13 -17l75 -182q3 -7 3 -13q0 -12 -14 -21l-20 -10q-10 -5 -17 -5q-13 0 -22 12q-70 89 -122 125t-115 36
q-49 0 -89.5 -24.5t-63.5 -70.5t-23 -108q0 -83 33.5 -146.5t92.5 -98t133 -34.5q56 0 91.5 15.5t67.5 44.5q19 17 36 17q9 0 13 -2q21 -9 21 -35q0 -42 -34.5 -86t-101.5 -74t-159 -30q-106 0 -188 47zM300 778.5q-28 23.5 -28 61.5t28 61t74 23t74 -23t28 -61t-28 -61.5
t-74 -23.5t-74 23.5z" />
    <glyph glyph-name="cdotaccent" unicode="&#x10b;" horiz-adv-x="517" 
d="M155.5 23q-59.5 34 -91 93.5t-31.5 133.5q0 78 32 137t88 91.5t127 32.5q20 0 48 -6q22 -5 39 -5q11 0 24 3.5t19 3.5q18 0 26 -18l56 -129q3 -7 3 -13q0 -14 -15 -23l-8 -4q-8 -4 -16 -4q-13 0 -25 12q-48 53 -81.5 76t-71.5 23q-40 0 -67 -29.5t-27 -82.5
q0 -59 23.5 -104t63.5 -69.5t89 -24.5t85 28q20 15 30 15q7 0 15 -5q14 -8 14 -24q0 -13 -7 -27q-24 -56 -76.5 -85.5t-124.5 -29.5q-81 0 -140.5 34zM195 585.5q-28 23.5 -28 61.5t28 61t74 23t74 -23t28 -61t-28 -61.5t-74 -23.5t-74 23.5z" />
    <glyph glyph-name="Ccaron" unicode="&#x10c;" horiz-adv-x="712" 
d="M208 36q-82 47 -127 131t-45 192q0 103 45.5 182.5t123.5 123.5t174 44q38 0 93 -16q5 -1 18 -4.5t21 -3.5q13 0 27 8q5 3 10.5 5.5t12.5 2.5h15q15 0 22 -5t13 -17l75 -182q3 -7 3 -13q0 -12 -14 -21l-20 -10q-10 -5 -17 -5q-13 0 -22 12q-70 89 -122 125t-115 36
q-49 0 -89.5 -24.5t-63.5 -70.5t-23 -108q0 -83 33.5 -146.5t92.5 -98t133 -34.5q56 0 91.5 15.5t67.5 44.5q19 17 36 17q9 0 13 -2q21 -9 21 -35q0 -42 -34.5 -86t-101.5 -74t-159 -30q-106 0 -188 47zM353 753q-15 0 -34 14l-120 91q-9 8 -9 16q0 6 4 13l18 31q6 10 16 10
q6 0 13 -3l124 -54q3 -1 8 -1q6 0 9 1l124 54q8 3 13 3q10 0 16 -10l18 -31q4 -7 4 -13q0 -8 -9 -16l-120 -91q-17 -14 -34 -14h-41z" />
    <glyph glyph-name="ccaron" unicode="&#x10d;" horiz-adv-x="517" 
d="M155.5 23q-59.5 34 -91 93.5t-31.5 133.5q0 78 32 137t88 91.5t127 32.5q20 0 48 -6q22 -5 39 -5q11 0 24 3.5t19 3.5q18 0 26 -18l56 -129q3 -7 3 -13q0 -14 -15 -23l-8 -4q-8 -4 -16 -4q-13 0 -25 12q-48 53 -81.5 76t-71.5 23q-40 0 -67 -29.5t-27 -82.5
q0 -59 23.5 -104t63.5 -69.5t89 -24.5t85 28q20 15 30 15q7 0 15 -5q14 -8 14 -24q0 -13 -7 -27q-24 -56 -76.5 -85.5t-124.5 -29.5q-81 0 -140.5 34zM248 550q-10 0 -16.5 3t-14.5 11l-122 109q-8 8 -8 15t7 17l21 29q6 9 15 9q6 0 14 -5l116 -71q6 -2 9 -2t9 2l117 71
q8 5 14 5q9 0 15 -9l21 -29q6 -9 6 -16q0 -8 -8 -16l-122 -109q-8 -8 -14.5 -11t-16.5 -3h-42z" />
    <glyph glyph-name="Dcaron" unicode="&#x10e;" horiz-adv-x="781" 
d="M63 0q-12 0 -19 7t-7 18v29q0 12 4.5 18t16.5 11l22 8q16 5 22 14t6 26v437q0 15 -6 23.5t-21 14.5l-25 9q-10 4 -14.5 10t-4.5 18v29q0 22 24 25q57 6 100 8t120 2q151 0 255.5 -53t156 -141t51.5 -195q0 -154 -88 -236t-250 -82h-343zM345 78q221 0 221 250
q0 91 -34 159t-88.5 104.5t-113.5 36.5q-11 0 -21 -2q-16 -3 -23.5 -12.5t-7.5 -27.5v-474q0 -34 28 -34h39zM362 753q-15 0 -34 14l-120 91q-9 8 -9 16q0 6 4 13l18 31q6 10 16 10q6 0 13 -3l124 -54q3 -1 8 -1q6 0 9 1l124 54q8 3 13 3q10 0 16 -10l18 -31q4 -7 4 -13
q0 -8 -9 -16l-120 -91q-17 -14 -34 -14h-41z" />
    <glyph glyph-name="dcaron" unicode="&#x10f;" horiz-adv-x="646" 
d="M137 16.5q-46 27.5 -73 84t-27 138.5t32.5 143.5t89 94.5t126.5 33q37 0 74 -7l4 -1q9 0 9 10v61q0 22 -8.5 33.5t-35.5 18.5q-13 3 -17.5 9t-4.5 17v24q0 22 22 29l154 44q10 3 19 3q28 0 28 -32v-595q0 -15 5.5 -24t20.5 -14l15 -5q21 -6 21 -28v-27q0 -12 -7 -19
t-18 -7h-153q-23 0 -31 24l-2 7q-3 8 -8 8t-9 -4q-54 -46 -123 -46q-57 0 -103 27.5zM355 95q17 9 17 30v259q0 28 -23 33q-14 5 -32 5q-52 0 -84 -44t-32 -117q0 -78 32 -127t81 -49q21 0 41 10zM602 513q-12 3 -16 10t-2 19l32 188q3 20 21 20q6 0 9 -1l68 -18
q19 -3 19 -20q0 -6 -3 -12l-76 -176q-7 -16 -21 -16q-6 0 -10 1z" />
    <glyph glyph-name="Dcroat" unicode="&#x110;" horiz-adv-x="785" 
d="M67 0q-12 0 -18.5 7t-6.5 18v29q0 12 4.5 18t15.5 11l22 8q16 5 22 14t6 26v172q0 5 -3.5 8.5t-8.5 3.5h-37q-12 0 -18.5 7t-6.5 19v26q0 25 25 25h37q5 0 8.5 3.5t3.5 8.5v164q0 15 -6 23.5t-20 14.5l-25 9q-10 4 -14.5 10t-4.5 18v29q0 22 24 25q51 7 91 8.5t128 1.5
q152 0 256 -53t155.5 -141t51.5 -195q0 -154 -88 -236t-250 -82h-343zM350 78q221 0 221 250q0 91 -34 159t-88.5 104.5t-114.5 36.5q-10 0 -21 -2q-16 -3 -23.5 -12.5t-7.5 -27.5v-182q0 -5 3.5 -8.5t8.5 -3.5h119q26 0 26 -25v-26q0 -12 -7 -19t-19 -7h-119
q-5 0 -8.5 -3.5t-3.5 -8.5v-191q0 -34 28 -34h40z" />
    <glyph glyph-name="dcroat" unicode="&#x111;" horiz-adv-x="617" 
d="M93.5 52q-56.5 63 -56.5 186q0 82 32.5 143.5t89 95t126.5 33.5q37 0 74 -7l4 -1q9 0 9 10v31q0 5 -3.5 8.5t-8.5 3.5h-108q-12 0 -19 7t-7 18v27q0 11 7 18t19 7h108q5 0 8.5 3.5t3.5 8.5v44q0 28 28 37l82 23q10 3 19 3q28 0 28 -32v-75q0 -5 3.5 -8.5t8.5 -3.5h25
q12 0 18.5 -7t6.5 -18v-27q0 -11 -7 -18t-18 -7h-25q-5 0 -8.5 -3.5t-3.5 -8.5v-419q0 -15 5.5 -24t20.5 -14l15 -5q21 -6 21 -28v-27q0 -12 -7 -19t-18 -7h-153q-23 0 -31 24l-2 7q-3 8 -8 8t-9 -4q-54 -46 -123 -46q-90 0 -146.5 63zM355 95q17 9 17 30v259q0 28 -23 33
q-14 5 -32 5q-52 0 -84 -44t-32 -117q0 -80 30 -128t83 -48q21 0 41 10z" />
    <glyph glyph-name="Emacron" unicode="&#x112;" horiz-adv-x="685" 
d="M569 -22q-17 0 -31 11q-10 6 -17.5 8.5t-21.5 2.5h-436q-12 0 -19 7t-7 18v29q0 12 4.5 18t16.5 11l22 8q16 5 22 14t6 26v438q0 17 -6 26t-22 14l-22 8q-12 5 -16.5 11t-4.5 18v29q0 11 7 18t19 7h385q26 0 42 11q8 6 13.5 8.5t13.5 2.5h13q19 0 27 -19l71 -152
q3 -6 3 -11q0 -11 -12 -19l-18 -11q-10 -5 -16 -5q-9 0 -18 9q-49 50 -103.5 78t-130.5 28q-30 0 -42.5 -11t-12.5 -36v-109q0 -5 3.5 -8.5t8.5 -3.5h74q24 0 53 9q15 5 27 5q15 0 23 -19l69 -151q3 -6 3 -11q0 -9 -12 -17l-17 -9q-8 -5 -13 -5q-9 0 -20 11q-52 55 -87 79.5
t-76 24.5h-24q-5 0 -8.5 -3.5t-3.5 -8.5v-227q0 -25 16 -37t42 -12q89 0 146.5 28.5t116.5 95.5q11 12 22 12q4 0 12 -4l24 -13q12 -6 12 -20q0 -2 -2 -10l-59 -167q-5 -14 -12 -19.5t-18 -5.5h-9zM207 776q-12 0 -18.5 7t-6.5 19v46q0 12 7 18.5t18 6.5h246q25 0 25 -25
v-46q0 -26 -25 -26h-246z" />
    <glyph glyph-name="emacron" unicode="&#x113;" horiz-adv-x="541" 
d="M524 139q0 -10 -6 -25q-21 -55 -76 -90t-143 -35q-78 0 -138.5 33.5t-94 92.5t-33.5 135t31.5 135.5t89 93t130.5 33.5q86 0 143.5 -44t78.5 -124q2 -8 2 -12q0 -17 -21 -25l-272 -99q-6 -2 -7 -7t2 -10q21 -36 59 -56.5t86 -20.5q32 0 60 10.5t48 28.5q16 14 31 14
q11 0 17 -5q13 -10 13 -23zM203 392q-27 -32 -27 -88v-6q0 -6 4 -8t10 1l150 60q14 5 8 18q-9 27 -29 41t-46 14q-43 0 -70 -32zM156 583q-12 0 -18.5 7t-6.5 19v46q0 12 7 18.5t18 6.5h246q25 0 25 -25v-46q0 -26 -25 -26h-246z" />
    <glyph glyph-name="Ebreve" unicode="&#x114;" horiz-adv-x="685" 
d="M569 -22q-17 0 -31 11q-10 6 -17.5 8.5t-21.5 2.5h-436q-12 0 -19 7t-7 18v29q0 12 4.5 18t16.5 11l22 8q16 5 22 14t6 26v438q0 17 -6 26t-22 14l-22 8q-12 5 -16.5 11t-4.5 18v29q0 11 7 18t19 7h385q26 0 42 11q8 6 13.5 8.5t13.5 2.5h13q19 0 27 -19l71 -152
q3 -6 3 -11q0 -11 -12 -19l-18 -11q-10 -5 -16 -5q-9 0 -18 9q-49 50 -103.5 78t-130.5 28q-30 0 -42.5 -11t-12.5 -36v-109q0 -5 3.5 -8.5t8.5 -3.5h74q24 0 53 9q15 5 27 5q15 0 23 -19l69 -151q3 -6 3 -11q0 -9 -12 -17l-17 -9q-8 -5 -13 -5q-9 0 -20 11q-52 55 -87 79.5
t-76 24.5h-24q-5 0 -8.5 -3.5t-3.5 -8.5v-227q0 -25 16 -37t42 -12q89 0 146.5 28.5t116.5 95.5q11 12 22 12q4 0 12 -4l24 -13q12 -6 12 -20q0 -2 -2 -10l-59 -167q-5 -14 -12 -19.5t-18 -5.5h-9zM215.5 795q-41.5 36 -44.5 95q-2 37 30 37q20 0 28 -20q12 -23 34 -34.5
t67 -11.5t67.5 11.5t33.5 34.5q9 20 29 20q29 0 29 -33q0 -61 -42 -98t-117 -37q-73 0 -114.5 36z" />
    <glyph glyph-name="ebreve" unicode="&#x115;" horiz-adv-x="541" 
d="M524 139q0 -10 -6 -25q-21 -55 -76 -90t-143 -35q-78 0 -138.5 33.5t-94 92.5t-33.5 135t31.5 135.5t89 93t130.5 33.5q86 0 143.5 -44t78.5 -124q2 -8 2 -12q0 -17 -21 -25l-272 -99q-6 -2 -7 -7t2 -10q21 -36 59 -56.5t86 -20.5q32 0 60 10.5t48 28.5q16 14 31 14
q11 0 17 -5q13 -10 13 -23zM203 392q-27 -32 -27 -88v-6q0 -6 4 -8t10 1l150 60q14 5 8 18q-9 27 -29 41t-46 14q-43 0 -70 -32zM167 593q-40 37 -43 106q-1 36 31 36q20 0 26 -21q9 -28 31.5 -42t66.5 -14t66.5 14t32.5 42q8 21 26 21q32 0 30 -34q-4 -71 -43.5 -108
t-111.5 -37t-112 37z" />
    <glyph glyph-name="Edotaccent" unicode="&#x116;" horiz-adv-x="685" 
d="M569 -22q-17 0 -31 11q-10 6 -17.5 8.5t-21.5 2.5h-436q-12 0 -19 7t-7 18v29q0 12 4.5 18t16.5 11l22 8q16 5 22 14t6 26v438q0 17 -6 26t-22 14l-22 8q-12 5 -16.5 11t-4.5 18v29q0 11 7 18t19 7h385q26 0 42 11q8 6 13.5 8.5t13.5 2.5h13q19 0 27 -19l71 -152
q3 -6 3 -11q0 -11 -12 -19l-18 -11q-10 -5 -16 -5q-9 0 -18 9q-49 50 -103.5 78t-130.5 28q-30 0 -42.5 -11t-12.5 -36v-109q0 -5 3.5 -8.5t8.5 -3.5h74q24 0 53 9q15 5 27 5q15 0 23 -19l69 -151q3 -6 3 -11q0 -9 -12 -17l-17 -9q-8 -5 -13 -5q-9 0 -20 11q-52 55 -87 79.5
t-76 24.5h-24q-5 0 -8.5 -3.5t-3.5 -8.5v-227q0 -25 16 -37t42 -12q89 0 146.5 28.5t116.5 95.5q11 12 22 12q4 0 12 -4l24 -13q12 -6 12 -20q0 -2 -2 -10l-59 -167q-5 -14 -12 -19.5t-18 -5.5h-9zM256 778.5q-28 23.5 -28 61.5t28 61t74 23t74 -23t28 -61t-28 -61.5
t-74 -23.5t-74 23.5z" />
    <glyph glyph-name="edotaccent" unicode="&#x117;" horiz-adv-x="541" 
d="M524 139q0 -10 -6 -25q-21 -55 -76 -90t-143 -35q-78 0 -138.5 33.5t-94 92.5t-33.5 135t31.5 135.5t89 93t130.5 33.5q86 0 143.5 -44t78.5 -124q2 -8 2 -12q0 -17 -21 -25l-272 -99q-6 -2 -7 -7t2 -10q21 -36 59 -56.5t86 -20.5q32 0 60 10.5t48 28.5q16 14 31 14
q11 0 17 -5q13 -10 13 -23zM203 392q-27 -32 -27 -88v-6q0 -6 4 -8t10 1l150 60q14 5 8 18q-9 27 -29 41t-46 14q-43 0 -70 -32zM205 585.5q-28 23.5 -28 61.5t28 61t74 23t74 -23t28 -61t-28 -61.5t-74 -23.5t-74 23.5z" />
    <glyph glyph-name="Eogonek" unicode="&#x118;" horiz-adv-x="685" 
d="M657 200q12 -6 12 -20q0 -2 -2 -10l-59 -167q-5 -14 -12 -19.5t-18 -5.5h-9q-17 0 -31 11q-10 6 -17.5 8.5t-21.5 2.5q-15 0 -30 -17q-21 -23 -29 -42t-8 -40q0 -19 9 -29t23 -10q12 0 23 5t17 5q8 0 16 -8q3 -5 3 -12q0 -11 -8 -24q-12 -17 -34 -30.5t-57 -13.5
q-50 0 -75 23t-25 61q0 31 15 58t50 59q5 4 5 8q0 7 -9 7h-322q-12 0 -19 7t-7 18v29q0 12 4.5 18t16.5 11l22 8q16 5 22 14t6 26v438q0 17 -6 26t-22 14l-22 8q-12 5 -16.5 11t-4.5 18v29q0 11 7 18t19 7h385q26 0 42 11q8 6 13.5 8.5t13.5 2.5h13q19 0 27 -19l71 -152
q3 -6 3 -11q0 -11 -12 -19l-18 -11q-10 -5 -16 -5q-9 0 -18 9q-49 50 -103.5 78t-130.5 28q-30 0 -42.5 -11t-12.5 -36v-109q0 -5 3.5 -8.5t8.5 -3.5h74q24 0 53 9q15 5 27 5q15 0 23 -19l69 -151q3 -6 3 -11q0 -9 -12 -17l-17 -9q-8 -5 -13 -5q-9 0 -20 11q-52 55 -87 79.5
t-76 24.5h-24q-5 0 -8.5 -3.5t-3.5 -8.5v-227q0 -25 16 -37t42 -12q89 0 146.5 28.5t116.5 95.5q11 12 22 12q4 0 12 -4z" />
    <glyph glyph-name="eogonek" unicode="&#x119;" horiz-adv-x="541" 
d="M240 -193q-25 23 -25 61q0 30 13 55t41 52q5 4 5 9t-8 6q-69 7 -122 42t-82 91t-29 127q0 76 31.5 135.5t89 93t130.5 33.5q86 0 143.5 -44t78.5 -124q2 -8 2 -12q0 -17 -21 -25l-272 -99q-6 -2 -7 -7t2 -10q21 -36 59 -56.5t86 -20.5q32 0 60 10.5t48 28.5q16 14 31 14
q11 0 17 -5q13 -10 13 -23q0 -10 -6 -25q-30 -76 -112 -108q-19 -8 -31 -15t-21 -17q-17 -17 -24 -34.5t-7 -38.5q0 -19 8.5 -29t23.5 -10q12 0 23 5t17 5q8 0 16 -8q3 -5 3 -12q0 -11 -8 -24q-12 -17 -34 -30.5t-57 -13.5q-50 0 -75 23zM340 351q14 5 8 18q-9 27 -29 41
t-46 14q-43 0 -70 -32t-27 -88v-6q0 -6 4 -8t10 1z" />
    <glyph glyph-name="Ecaron" unicode="&#x11a;" horiz-adv-x="685" 
d="M569 -22q-17 0 -31 11q-10 6 -17.5 8.5t-21.5 2.5h-436q-12 0 -19 7t-7 18v29q0 12 4.5 18t16.5 11l22 8q16 5 22 14t6 26v438q0 17 -6 26t-22 14l-22 8q-12 5 -16.5 11t-4.5 18v29q0 11 7 18t19 7h385q26 0 42 11q8 6 13.5 8.5t13.5 2.5h13q19 0 27 -19l71 -152
q3 -6 3 -11q0 -11 -12 -19l-18 -11q-10 -5 -16 -5q-9 0 -18 9q-49 50 -103.5 78t-130.5 28q-30 0 -42.5 -11t-12.5 -36v-109q0 -5 3.5 -8.5t8.5 -3.5h74q24 0 53 9q15 5 27 5q15 0 23 -19l69 -151q3 -6 3 -11q0 -9 -12 -17l-17 -9q-8 -5 -13 -5q-9 0 -20 11q-52 55 -87 79.5
t-76 24.5h-24q-5 0 -8.5 -3.5t-3.5 -8.5v-227q0 -25 16 -37t42 -12q89 0 146.5 28.5t116.5 95.5q11 12 22 12q4 0 12 -4l24 -13q12 -6 12 -20q0 -2 -2 -10l-59 -167q-5 -14 -12 -19.5t-18 -5.5h-9zM310 753q-15 0 -34 14l-120 91q-9 8 -9 16q0 6 4 13l18 31q6 10 16 10
q6 0 13 -3l124 -54q3 -1 8 -1q6 0 9 1l124 54q8 3 13 3q10 0 16 -10l18 -31q4 -7 4 -13q0 -8 -9 -16l-120 -91q-17 -14 -34 -14h-41z" />
    <glyph glyph-name="ecaron" unicode="&#x11b;" horiz-adv-x="541" 
d="M524 139q0 -10 -6 -25q-21 -55 -76 -90t-143 -35q-78 0 -138.5 33.5t-94 92.5t-33.5 135t31.5 135.5t89 93t130.5 33.5q86 0 143.5 -44t78.5 -124q2 -8 2 -12q0 -17 -21 -25l-272 -99q-6 -2 -7 -7t2 -10q21 -36 59 -56.5t86 -20.5q32 0 60 10.5t48 28.5q16 14 31 14
q11 0 17 -5q13 -10 13 -23zM203 392q-27 -32 -27 -88v-6q0 -6 4 -8t10 1l150 60q14 5 8 18q-9 27 -29 41t-46 14q-43 0 -70 -32zM258 550q-10 0 -16.5 3t-14.5 11l-122 109q-8 8 -8 15t7 17l21 29q6 9 15 9q6 0 14 -5l116 -71q6 -2 9 -2t9 2l117 71q8 5 14 5q9 0 15 -9
l21 -29q6 -9 6 -16q0 -8 -8 -16l-122 -109q-8 -8 -14.5 -11t-16.5 -3h-42z" />
    <glyph glyph-name="Gcircumflex" unicode="&#x11c;" horiz-adv-x="807" 
d="M204.5 35.5q-80.5 46.5 -124.5 129t-44 187.5q0 108 45.5 189t126 124.5t181.5 43.5q38 0 64.5 -5t53.5 -14q28 -8 36 -8q9 0 25 8q16 9 28 9h18q15 0 22 -5.5t12 -17.5l74 -175q3 -7 3 -13q0 -14 -13 -21l-21 -12q-10 -5 -18 -5q-11 0 -20 10q-83 89 -140.5 124.5
t-130.5 35.5q-53 0 -93.5 -26t-63 -73.5t-22.5 -111.5q0 -88 33 -157.5t90 -108.5t125 -39q48 1 74 20.5t26 54.5v28q0 20 -8.5 32t-27.5 22l-25 11q-19 10 -19 31v27q0 13 7 19.5t18 6.5h263q13 0 19.5 -7t6.5 -19v-27q0 -22 -20 -31l-22 -10q-18 -8 -26 -20.5t-8 -31.5
v-185q0 -12 -7 -18.5t-18 -6.5h-24q-18 0 -27.5 4t-16.5 14l-6 8q-9 11 -23 11q-7 0 -29 -10q-36 -17 -73.5 -27.5t-95.5 -10.5q-104 0 -184.5 46.5zM262 754q-7 -3 -13 -3q-10 0 -16 10l-18 31q-4 7 -4 13q0 9 9 16l120 91q17 13 34 13h41q18 0 34 -13l120 -91q9 -7 9 -16
q0 -6 -4 -13l-18 -31q-6 -10 -16 -10q-5 0 -13 3l-124 54q-6 2 -9 2l-8 -2z" />
    <glyph glyph-name="gcircumflex" unicode="&#x11d;" horiz-adv-x="591" 
d="M177 566q-8 -5 -14 -5q-8 0 -16 9l-21 29q-7 9 -7 15q0 8 9 17l101 94q8 8 14.5 11t16.5 3h42q9 0 15.5 -3t15.5 -11l100 -94q9 -9 9 -17q0 -6 -7 -15l-20 -29q-7 -9 -16 -9q-6 0 -14 5l-96 57q-2 2 -8 2t-9 -2zM74.5 -195.5q-58.5 31.5 -58.5 87.5q0 27 16.5 50t51.5 38
q7 3 7 8q0 4 -5 7q-20 14 -34 37.5t-14 50.5q0 33 19.5 59t55.5 42q5 2 6 6t-3 9q-57 54 -57 125q0 51 28 94t81 68.5t125 25.5q52 0 101 -18q2 -1 7 -1q9 0 12 11q16 46 41 76t49 30q10 0 16.5 -5t13.5 -17l31 -55q9 -18 9 -28t-5 -16t-17 -11l-64 -28q-6 -1 -6 -7
q0 -4 4 -8q42 -48 42 -111q0 -52 -27.5 -95t-80.5 -68.5t-126 -25.5q-22 0 -52 5q-5 1 -14 2t-16 1q-17 0 -28 -9.5t-11 -25.5q0 -19 16.5 -30t44.5 -11q22 0 54 2t47 3q74 6 111 6q67 0 105 -31.5t38 -80.5q0 -52 -33.5 -95.5t-108.5 -70.5t-191 -27q-122 0 -180.5 31.5z
M357 234q18 21 18 57q0 37 -13.5 70t-36.5 53.5t-48 20.5q-29 0 -47 -21t-18 -57q0 -37 13 -70.5t35.5 -53.5t48.5 -20q30 0 48 21zM383 -129q38 21 38 54q0 51 -72 51q-35 0 -85 -5l-52 -3q-9 0 -17 -9q-18 -23 -18 -50q0 -28 25.5 -43.5t71.5 -15.5q71 0 109 21z" />
    <glyph glyph-name="Gbreve" unicode="&#x11e;" horiz-adv-x="807" 
d="M204.5 35.5q-80.5 46.5 -124.5 129t-44 187.5q0 108 45.5 189t126 124.5t181.5 43.5q38 0 64.5 -5t53.5 -14q28 -8 36 -8q9 0 25 8q16 9 28 9h18q15 0 22 -5.5t12 -17.5l74 -175q3 -7 3 -13q0 -14 -13 -21l-21 -12q-10 -5 -18 -5q-11 0 -20 10q-83 89 -140.5 124.5
t-130.5 35.5q-53 0 -93.5 -26t-63 -73.5t-22.5 -111.5q0 -88 33 -157.5t90 -108.5t125 -39q48 1 74 20.5t26 54.5v28q0 20 -8.5 32t-27.5 22l-25 11q-19 10 -19 31v27q0 13 7 19.5t18 6.5h263q13 0 19.5 -7t6.5 -19v-27q0 -22 -20 -31l-22 -10q-18 -8 -26 -20.5t-8 -31.5
v-185q0 -12 -7 -18.5t-18 -6.5h-24q-18 0 -27.5 4t-16.5 14l-6 8q-9 11 -23 11q-7 0 -29 -10q-36 -17 -73.5 -27.5t-95.5 -10.5q-104 0 -184.5 46.5zM279.5 795q-41.5 36 -44.5 95q-2 37 30 37q20 0 28 -20q12 -23 34 -34.5t67 -11.5t67.5 11.5t33.5 34.5q9 20 29 20
q29 0 29 -33q0 -61 -42 -98t-117 -37q-73 0 -114.5 36z" />
    <glyph glyph-name="gbreve" unicode="&#x11f;" horiz-adv-x="591" 
d="M74.5 -195.5q-58.5 31.5 -58.5 87.5q0 27 16.5 50t51.5 38q7 3 7 8q0 4 -5 7q-20 14 -34 37.5t-14 50.5q0 33 19.5 59t55.5 42q5 2 6 6t-3 9q-57 54 -57 125q0 51 28 94t81 68.5t125 25.5q52 0 101 -18q2 -1 7 -1q9 0 12 11q16 46 41 76t49 30q10 0 16.5 -5t13.5 -17
l31 -55q9 -18 9 -28t-5 -16t-17 -11l-64 -28q-6 -1 -6 -7q0 -4 4 -8q42 -48 42 -111q0 -52 -27.5 -95t-80.5 -68.5t-126 -25.5q-22 0 -52 5q-5 1 -14 2t-16 1q-17 0 -28 -9.5t-11 -25.5q0 -19 16.5 -30t44.5 -11q22 0 54 2t47 3q74 6 111 6q67 0 105 -31.5t38 -80.5
q0 -52 -33.5 -95.5t-108.5 -70.5t-191 -27q-122 0 -180.5 31.5zM357 234q18 21 18 57q0 37 -13.5 70t-36.5 53.5t-48 20.5q-29 0 -47 -21t-18 -57q0 -37 13 -70.5t35.5 -53.5t48.5 -20q30 0 48 21zM383 -129q38 21 38 54q0 51 -72 51q-35 0 -85 -5l-52 -3q-9 0 -17 -9
q-18 -23 -18 -50q0 -28 25.5 -43.5t71.5 -15.5q71 0 109 21zM172 593q-40 37 -43 106q-1 36 31 36q20 0 26 -21q9 -28 31.5 -42t66.5 -14t66.5 14t32.5 42q8 21 26 21q32 0 30 -34q-4 -71 -43.5 -108t-111.5 -37t-112 37z" />
    <glyph glyph-name="Gdotaccent" unicode="&#x120;" horiz-adv-x="807" 
d="M204.5 35.5q-80.5 46.5 -124.5 129t-44 187.5q0 108 45.5 189t126 124.5t181.5 43.5q38 0 64.5 -5t53.5 -14q28 -8 36 -8q9 0 25 8q16 9 28 9h18q15 0 22 -5.5t12 -17.5l74 -175q3 -7 3 -13q0 -14 -13 -21l-21 -12q-10 -5 -18 -5q-11 0 -20 10q-83 89 -140.5 124.5
t-130.5 35.5q-53 0 -93.5 -26t-63 -73.5t-22.5 -111.5q0 -88 33 -157.5t90 -108.5t125 -39q48 1 74 20.5t26 54.5v28q0 20 -8.5 32t-27.5 22l-25 11q-19 10 -19 31v27q0 13 7 19.5t18 6.5h263q13 0 19.5 -7t6.5 -19v-27q0 -22 -20 -31l-22 -10q-18 -8 -26 -20.5t-8 -31.5
v-185q0 -12 -7 -18.5t-18 -6.5h-24q-18 0 -27.5 4t-16.5 14l-6 8q-9 11 -23 11q-7 0 -29 -10q-36 -17 -73.5 -27.5t-95.5 -10.5q-104 0 -184.5 46.5zM321 778.5q-28 23.5 -28 61.5t28 61t74 23t74 -23t28 -61t-28 -61.5t-74 -23.5t-74 23.5z" />
    <glyph glyph-name="gdotaccent" unicode="&#x121;" horiz-adv-x="591" 
d="M74.5 -195.5q-58.5 31.5 -58.5 87.5q0 27 16.5 50t51.5 38q7 3 7 8q0 4 -5 7q-20 14 -34 37.5t-14 50.5q0 33 19.5 59t55.5 42q5 2 6 6t-3 9q-57 54 -57 125q0 51 28 94t81 68.5t125 25.5q52 0 101 -18q2 -1 7 -1q9 0 12 11q16 46 41 76t49 30q10 0 16.5 -5t13.5 -17
l31 -55q9 -18 9 -28t-5 -16t-17 -11l-64 -28q-6 -1 -6 -7q0 -4 4 -8q42 -48 42 -111q0 -52 -27.5 -95t-80.5 -68.5t-126 -25.5q-22 0 -52 5q-5 1 -14 2t-16 1q-17 0 -28 -9.5t-11 -25.5q0 -19 16.5 -30t44.5 -11q22 0 54 2t47 3q74 6 111 6q67 0 105 -31.5t38 -80.5
q0 -52 -33.5 -95.5t-108.5 -70.5t-191 -27q-122 0 -180.5 31.5zM357 234q18 21 18 57q0 37 -13.5 70t-36.5 53.5t-48 20.5q-29 0 -47 -21t-18 -57q0 -37 13 -70.5t35.5 -53.5t48.5 -20q30 0 48 21zM383 -129q38 21 38 54q0 51 -72 51q-35 0 -85 -5l-52 -3q-9 0 -17 -9
q-18 -23 -18 -50q0 -28 25.5 -43.5t71.5 -15.5q71 0 109 21zM210 585.5q-28 23.5 -28 61.5t28 61t74 23t74 -23t28 -61t-28 -61.5t-74 -23.5t-74 23.5z" />
    <glyph glyph-name="uni0122" unicode="&#x122;" horiz-adv-x="807" 
d="M204.5 35.5q-80.5 46.5 -124.5 129t-44 187.5q0 108 45.5 189t126 124.5t181.5 43.5q38 0 64.5 -5t53.5 -14q28 -8 36 -8q9 0 25 8q16 9 28 9h18q15 0 22 -5.5t12 -17.5l74 -175q3 -7 3 -13q0 -14 -13 -21l-21 -12q-10 -5 -18 -5q-11 0 -20 10q-83 89 -140.5 124.5
t-130.5 35.5q-53 0 -93.5 -26t-63 -73.5t-22.5 -111.5q0 -88 33 -157.5t90 -108.5t125 -39q48 1 74 20.5t26 54.5v28q0 20 -8.5 32t-27.5 22l-25 11q-19 10 -19 31v27q0 13 7 19.5t18 6.5h263q13 0 19.5 -7t6.5 -19v-27q0 -22 -20 -31l-22 -10q-18 -8 -26 -20.5t-8 -31.5
v-185q0 -12 -7 -18.5t-18 -6.5h-24q-18 0 -27.5 4t-16.5 14l-6 8q-9 11 -23 11q-7 0 -29 -10q-36 -17 -73.5 -27.5t-95.5 -10.5q-104 0 -184.5 46.5zM351 -293q-10 0 -16 4t-10 14q-2 8 -2 10q0 18 20 24q44 15 58.5 26t14.5 24q0 9 -8 9q-3 0 -8 -1t-13 -1q-27 0 -45.5 20
t-18.5 50q0 32 22.5 53.5t58.5 21.5q40 0 67 -27t27 -76q0 -62 -34.5 -99.5t-99.5 -50.5q-5 -1 -13 -1z" />
    <glyph glyph-name="uni0123" unicode="&#x123;" horiz-adv-x="591" 
d="M74.5 -195.5q-58.5 31.5 -58.5 87.5q0 27 16.5 50t51.5 38q7 3 7 8q0 4 -5 7q-20 14 -34 37.5t-14 50.5q0 33 19.5 59t55.5 42q5 2 6 6t-3 9q-57 54 -57 125q0 51 28 94t81 68.5t125 25.5q52 0 101 -18q2 -1 7 -1q9 0 12 11q16 46 41 76t49 30q10 0 16.5 -5t13.5 -17
l31 -55q9 -18 9 -28t-5 -16t-17 -11l-64 -28q-6 -1 -6 -7q0 -4 4 -8q42 -48 42 -111q0 -52 -27.5 -95t-80.5 -68.5t-126 -25.5q-22 0 -52 5q-5 1 -14 2t-16 1q-17 0 -28 -9.5t-11 -25.5q0 -19 16.5 -30t44.5 -11q22 0 54 2t47 3q74 6 111 6q67 0 105 -31.5t38 -80.5
q0 -52 -33.5 -95.5t-108.5 -70.5t-191 -27q-122 0 -180.5 31.5zM357 234q18 21 18 57q0 37 -13.5 70t-36.5 53.5t-48 20.5q-29 0 -47 -21t-18 -57q0 -37 13 -70.5t35.5 -53.5t48.5 -20q30 0 48 21zM383 -129q38 21 38 54q0 51 -72 51q-35 0 -85 -5l-52 -3q-9 0 -17 -9
q-18 -23 -18 -50q0 -28 25.5 -43.5t71.5 -15.5q71 0 109 21zM343 794q10 0 16 -4t10 -14q2 -8 2 -10q0 -18 -20 -24q-44 -15 -58.5 -26t-14.5 -24q0 -9 8 -9q3 0 8 1t13 1q27 0 45.5 -20t18.5 -50q0 -32 -22.5 -53.5t-58.5 -21.5q-40 0 -67 27t-27 76q0 62 34.5 99.5
t100.5 50.5q5 1 12 1z" />
    <glyph glyph-name="Hcircumflex" unicode="&#x124;" horiz-adv-x="825" 
d="M63 0q-12 0 -19 7t-7 18v29q0 12 4.5 18t16.5 11l22 8q16 5 22 14t6 26v438q0 17 -6 26t-22 14l-22 8q-12 5 -16.5 11t-4.5 18v29q0 11 7 18t19 7h260q12 0 18.5 -7t6.5 -18v-29q0 -12 -4.5 -18t-15.5 -11l-23 -8q-15 -5 -21 -14t-6 -26v-141q0 -5 3.5 -8.5t8.5 -3.5h245
q5 0 8.5 3.5t3.5 8.5v141q0 17 -6 26t-22 14l-22 8q-11 5 -15.5 11t-4.5 18v29q0 11 6.5 18t18.5 7h260q13 0 19.5 -6.5t6.5 -18.5v-29q0 -12 -4.5 -18t-16.5 -11l-22 -8q-16 -5 -22 -14t-6 -26v-438q0 -17 6 -26t22 -14l22 -8q12 -5 16.5 -11t4.5 -18v-29q0 -11 -6.5 -18
t-19.5 -7h-260q-12 0 -18.5 7t-6.5 18v29q0 12 4.5 18t15.5 11l22 8q16 5 22 14t6 26v182q0 5 -3.5 8.5t-8.5 3.5h-245q-5 0 -8.5 -3.5t-3.5 -8.5v-182q0 -17 6 -26t21 -14l23 -8q11 -5 15.5 -11t4.5 -18v-29q0 -11 -6.5 -18t-18.5 -7h-260zM280 754q-7 -3 -13 -3
q-10 0 -16 10l-18 31q-4 7 -4 13q0 9 9 16l120 91q17 13 34 13h41q18 0 34 -13l120 -91q9 -7 9 -16q0 -6 -4 -13l-18 -31q-6 -10 -16 -10q-5 0 -13 3l-124 54q-6 2 -9 2l-8 -2z" />
    <glyph glyph-name="hcircumflex" unicode="&#x125;" horiz-adv-x="630" 
d="M48 0q-12 0 -19 7t-7 18v28q0 21 21 28l15 5q15 5 21 13.5t6 24.5v448q0 23 -8 34.5t-33 18.5q-12 3 -17 8.5t-5 16.5v25q0 22 22 29l152 44q11 3 18 3q28 0 28 -32v-252q0 -10 8 -10q4 0 9 3l16 9q69 43 140 43q64 0 98 -39t34 -110v-239q0 -16 6 -24.5t21 -13.5l15 -5
q21 -7 21 -28v-28q0 -11 -7 -18t-19 -7h-169q-11 0 -18 7t-7 18v320q0 28 -9 42.5t-31 14.5t-46 -6.5t-44 -16.5q-10 -6 -14 -12.5t-4 -17.5v-225q0 -16 6 -24.5t20 -13.5l15 -5q21 -8 21 -28v-28q0 -11 -7 -18t-18 -7h-231zM30 790q-7 -4 -14 -4q-10 0 -15 8l-21 29
q-7 11 -7 17q0 7 8 15l122 110q8 7 15 10.5t16 3.5h42q9 0 16 -3.5t15 -10.5l122 -110q8 -8 8 -16q0 -7 -6 -16l-21 -29q-5 -8 -15 -8q-7 0 -14 4l-117 71q-3 2 -9 2t-9 -2z" />
    <glyph glyph-name="Hbar" unicode="&#x126;" horiz-adv-x="837" 
d="M69 0q-12 0 -19 7t-7 18v29q0 12 4.5 18t16.5 11l22 8q16 5 22 14t6 26v319q0 5 -3.5 8.5t-8.5 3.5h-39q-13 0 -19.5 7t-6.5 19v26q0 12 7 19t19 7h39q5 0 8.5 3.5t3.5 8.5v17q0 17 -6 26t-22 14l-22 8q-12 5 -16.5 11t-4.5 18v29q0 11 7 18t19 7h260q12 0 18.5 -7
t6.5 -18v-29q0 -12 -4.5 -18t-15.5 -11l-23 -8q-15 -5 -21 -14t-6 -26v-17q0 -5 3.5 -8.5t8.5 -3.5h245q5 0 8.5 3.5t3.5 8.5v17q0 17 -6 26t-22 14l-22 8q-11 5 -15.5 11t-4.5 18v29q0 11 6.5 18t18.5 7h260q13 0 19.5 -6.5t6.5 -18.5v-29q0 -12 -4.5 -18t-16.5 -11l-22 -8
q-16 -5 -22 -14t-6 -26v-17q0 -5 3.5 -8.5t8.5 -3.5h39q13 0 19.5 -7t6.5 -19v-26q0 -12 -7 -19t-19 -7h-39q-5 0 -8.5 -3.5t-3.5 -8.5v-319q0 -17 6 -26t22 -14l22 -8q12 -5 16.5 -11t4.5 -18v-29q0 -11 -6.5 -18t-19.5 -7h-260q-12 0 -18.5 7t-6.5 18v29q0 12 4.5 18
t15.5 11l22 8q16 5 22 14t6 26v170q0 5 -3.5 8.5t-8.5 3.5h-245q-5 0 -8.5 -3.5t-3.5 -8.5v-170q0 -17 6 -26t21 -14l23 -8q11 -5 15.5 -11t4.5 -18v-29q0 -11 -6.5 -18t-18.5 -7h-260zM541 403q5 0 8.5 3.5t3.5 8.5v35q0 5 -3.5 8.5t-8.5 3.5h-245q-5 0 -8.5 -3.5
t-3.5 -8.5v-35q0 -5 3.5 -8.5t8.5 -3.5h245z" />
    <glyph glyph-name="hbar" unicode="&#x127;" horiz-adv-x="630" 
d="M48 0q-12 0 -19 7t-7 18v28q0 21 21 28l15 5q15 5 21 13.5t6 24.5v420q0 5 -3.5 8.5t-8.5 3.5h-27q-12 0 -18.5 7t-6.5 19v26q0 12 7 19t18 7h27q5 0 8.5 3.5t3.5 8.5v40q0 17 7 26.5t23 13.5l80 22q10 3 19 3q28 0 28 -32v-73q0 -5 3.5 -8.5t8.5 -3.5h106q13 0 19.5 -7
t6.5 -19v-26q0 -12 -7 -19t-19 -7h-106q-5 0 -8.5 -3.5t-3.5 -8.5v-77q0 -10 8 -10q4 0 9 3l16 9q69 43 140 43q64 0 98 -39t34 -110v-239q0 -16 6 -24.5t21 -13.5l15 -5q21 -7 21 -28v-28q0 -11 -7 -18t-19 -7h-169q-11 0 -18 7t-7 18v320q0 28 -9 42.5t-31 14.5t-46 -6.5
t-44 -16.5q-10 -6 -14 -12.5t-4 -17.5v-225q0 -16 6 -24.5t20 -13.5l15 -5q21 -8 21 -28v-28q0 -11 -7 -18t-18 -7h-231z" />
    <glyph glyph-name="Itilde" unicode="&#x128;" horiz-adv-x="385" 
d="M63 0q-12 0 -19 7t-7 18v29q0 12 4.5 18t16.5 11l22 8q16 5 22 14t6 26v438q0 17 -6 26t-22 14l-22 8q-12 5 -16.5 11t-4.5 18v29q0 11 7 18t19 7h260q12 0 18.5 -7t6.5 -18v-29q0 -12 -4.5 -18t-15.5 -11l-23 -8q-15 -5 -21 -14t-6 -26v-438q0 -17 6 -26t21 -14l23 -8
q11 -5 15.5 -11t4.5 -18v-29q0 -11 -6.5 -18t-18.5 -7h-260zM16.5 777q-7.5 9 -4.5 26q5 54 36.5 85t74.5 31q29 0 62 -12l42 -16q2 -1 17 -6.5t29 -5.5t23.5 6t16.5 19q11 20 30 20q33 0 30 -35q-5 -54 -36.5 -85t-74.5 -31q-29 0 -63 12l-41 16q-12 5 -24 8.5t-23 3.5
q-25 0 -40 -25q-10 -20 -29 -20q-18 0 -25.5 9z" />
    <glyph glyph-name="itilde" unicode="&#x129;" horiz-adv-x="339" 
d="M61 0q-12 0 -19 7t-7 18v28q0 21 21 28l15 5q15 5 21 13.5t6 24.5v209q0 22 -8.5 33.5t-32.5 18.5q-12 4 -17 9.5t-5 16.5v25q0 22 22 28l151 45q11 3 18 3q29 0 29 -33v-355q0 -16 6 -24.5t20 -13.5l15 -5q21 -7 21 -28v-28q0 -11 -7 -18t-18 -7h-231zM-7.5 584
q-7.5 9 -4.5 26q5 54 36.5 85t74.5 31q29 0 62 -12l42 -16q2 -1 17 -6.5t29 -5.5t23.5 6t16.5 19q11 20 30 20q33 0 30 -35q-5 -54 -36.5 -85t-74.5 -31q-29 0 -63 12l-41 16q-12 5 -24 8.5t-23 3.5q-25 0 -40 -25q-10 -20 -29 -20q-18 0 -25.5 9z" />
    <glyph glyph-name="Imacron" unicode="&#x12a;" horiz-adv-x="385" 
d="M63 0q-12 0 -19 7t-7 18v29q0 12 4.5 18t16.5 11l22 8q16 5 22 14t6 26v438q0 17 -6 26t-22 14l-22 8q-12 5 -16.5 11t-4.5 18v29q0 11 7 18t19 7h260q12 0 18.5 -7t6.5 -18v-29q0 -12 -4.5 -18t-15.5 -11l-23 -8q-15 -5 -21 -14t-6 -26v-438q0 -17 6 -26t21 -14l23 -8
q11 -5 15.5 -11t4.5 -18v-29q0 -11 -6.5 -18t-18.5 -7h-260zM70 776q-12 0 -18.5 7t-6.5 19v46q0 12 7 18.5t18 6.5h246q25 0 25 -25v-46q0 -26 -25 -26h-246z" />
    <glyph glyph-name="imacron" unicode="&#x12b;" horiz-adv-x="339" 
d="M61 0q-12 0 -19 7t-7 18v28q0 21 21 28l15 5q15 5 21 13.5t6 24.5v209q0 22 -8.5 33.5t-32.5 18.5q-12 4 -17 9.5t-5 16.5v25q0 22 22 28l151 45q11 3 18 3q29 0 29 -33v-355q0 -16 6 -24.5t20 -13.5l15 -5q21 -7 21 -28v-28q0 -11 -7 -18t-18 -7h-231zM45 583
q-12 0 -18.5 7t-6.5 19v46q0 12 7 18.5t18 6.5h246q25 0 25 -25v-46q0 -26 -25 -26h-246z" />
    <glyph glyph-name="Ibreve" unicode="&#x12c;" horiz-adv-x="385" 
d="M63 0q-12 0 -19 7t-7 18v29q0 12 4.5 18t16.5 11l22 8q16 5 22 14t6 26v438q0 17 -6 26t-22 14l-22 8q-12 5 -16.5 11t-4.5 18v29q0 11 7 18t19 7h260q12 0 18.5 -7t6.5 -18v-29q0 -12 -4.5 -18t-15.5 -11l-23 -8q-15 -5 -21 -14t-6 -26v-438q0 -17 6 -26t21 -14l23 -8
q11 -5 15.5 -11t4.5 -18v-29q0 -11 -6.5 -18t-18.5 -7h-260zM77.5 795q-41.5 36 -44.5 95q-2 37 30 37q20 0 28 -20q12 -23 34 -34.5t67 -11.5t67.5 11.5t33.5 34.5q9 20 29 20q29 0 29 -33q0 -61 -42 -98t-117 -37q-73 0 -114.5 36z" />
    <glyph glyph-name="ibreve" unicode="&#x12d;" horiz-adv-x="339" 
d="M61 0q-12 0 -19 7t-7 18v28q0 21 21 28l15 5q15 5 21 13.5t6 24.5v209q0 22 -8.5 33.5t-32.5 18.5q-12 4 -17 9.5t-5 16.5v25q0 22 22 28l151 45q11 3 18 3q29 0 29 -33v-355q0 -16 6 -24.5t20 -13.5l15 -5q21 -7 21 -28v-28q0 -11 -7 -18t-18 -7h-231zM56 593
q-40 37 -43 106q-1 36 31 36q20 0 26 -21q9 -28 31.5 -42t66.5 -14t66.5 14t32.5 42q8 21 26 21q32 0 30 -34q-4 -71 -43.5 -108t-111.5 -37t-112 37z" />
    <glyph glyph-name="Iogonek" unicode="&#x12e;" horiz-adv-x="385" 
d="M63 0q-12 0 -19 7t-7 18v29q0 12 4.5 18t16.5 11l22 8q16 5 22 14t6 26v438q0 17 -6 26t-22 14l-22 8q-12 5 -16.5 11t-4.5 18v29q0 11 7 18t19 7h260q12 0 18.5 -7t6.5 -18v-29q0 -12 -4.5 -18t-15.5 -11l-23 -8q-15 -5 -21 -14t-6 -26v-438q0 -17 6 -26t21 -14l23 -8
q11 -5 15.5 -11t4.5 -18v-29q0 -11 -6.5 -18t-18.5 -7h-260zM301 -148q0 -11 -8 -24q-12 -17 -34 -30.5t-57 -13.5q-50 0 -75 23t-25 61q0 31 15 58t50 59q5 4 5 8q0 7 -9 7h114q-15 0 -30 -17q-21 -23 -29 -42t-8 -40q0 -19 9 -29t23 -10q12 0 23 5t17 5q8 0 16 -8
q3 -5 3 -12z" />
    <glyph glyph-name="iogonek" unicode="&#x12f;" horiz-adv-x="339" 
d="M61 0q-12 0 -19 7t-7 18v28q0 21 21 28l15 5q15 5 21 13.5t6 24.5v209q0 22 -8.5 33.5t-32.5 18.5q-12 4 -17 9.5t-5 16.5v25q0 22 22 28l151 45q11 3 18 3q29 0 29 -33v-355q0 -16 6 -24.5t20 -13.5l15 -5q21 -7 21 -28v-28q0 -11 -7 -18t-18 -7h-231zM94 585.5
q-28 23.5 -28 61.5t28 61t74 23t74 -23t28 -61t-28 -61.5t-74 -23.5t-74 23.5zM275 -148q0 -11 -8 -24q-12 -17 -34 -30.5t-57 -13.5q-50 0 -75 23t-25 61q0 31 15 58t50 59q5 4 5 8q0 7 -9 7h114q-15 0 -30 -17q-21 -23 -29 -42t-8 -40q0 -19 9 -29t23 -10q12 0 23 5t17 5
q8 0 16 -8q3 -5 3 -12z" />
    <glyph glyph-name="Idotaccent" unicode="&#x130;" horiz-adv-x="385" 
d="M63 0q-12 0 -19 7t-7 18v29q0 12 4.5 18t16.5 11l22 8q16 5 22 14t6 26v438q0 17 -6 26t-22 14l-22 8q-12 5 -16.5 11t-4.5 18v29q0 11 7 18t19 7h260q12 0 18.5 -7t6.5 -18v-29q0 -12 -4.5 -18t-15.5 -11l-23 -8q-15 -5 -21 -14t-6 -26v-438q0 -17 6 -26t21 -14l23 -8
q11 -5 15.5 -11t4.5 -18v-29q0 -11 -6.5 -18t-18.5 -7h-260zM119 778.5q-28 23.5 -28 61.5t28 61t74 23t74 -23t28 -61t-28 -61.5t-74 -23.5t-74 23.5z" />
    <glyph glyph-name="dotlessi" unicode="&#x131;" horiz-adv-x="339" 
d="M61 0q-12 0 -19 7t-7 18v28q0 21 21 28l15 5q15 5 21 13.5t6 24.5v209q0 22 -8.5 33.5t-32.5 18.5q-12 4 -17 9.5t-5 16.5v25q0 22 22 28l151 45q11 3 18 3q29 0 29 -33v-355q0 -16 6 -24.5t20 -13.5l15 -5q21 -7 21 -28v-28q0 -11 -7 -18t-18 -7h-231z" />
    <glyph glyph-name="IJ" unicode="&#x132;" horiz-adv-x="760" 
d="M63 0q-12 0 -19 7t-7 18v29q0 12 4.5 18t16.5 11l22 8q16 5 22 14t6 26v438q0 17 -6 26t-22 14l-22 8q-12 5 -16.5 11t-4.5 18v29q0 11 7 18t19 7h260q12 0 18.5 -7t6.5 -18v-29q0 -12 -4.5 -18t-15.5 -11l-23 -8q-15 -5 -21 -14t-6 -26v-438q0 -17 6 -26t21 -14l23 -8
q11 -5 15.5 -11t4.5 -18v-29q0 -11 -6.5 -18t-18.5 -7h-260zM431 -154q-7 0 -12 4t-11 13l-13 24q-4 7 -4 14q0 12 14 21q47 33 66 61t19 70v516q0 17 -6 26t-21 14l-22 8q-12 5 -16.5 11t-4.5 18v29q0 11 7 18t18 7h261q12 0 18.5 -7t6.5 -18v-29q0 -12 -4.5 -18t-16.5 -11
l-22 -8q-16 -5 -22 -14t-6 -26v-478q0 -95 -53.5 -150.5t-157.5 -90.5q-14 -4 -18 -4z" />
    <glyph glyph-name="ij" unicode="&#x133;" horiz-adv-x="666" 
d="M61 0q-12 0 -19 7t-7 18v28q0 21 21 28l15 5q15 5 21 13.5t6 24.5v209q0 22 -8.5 33.5t-32.5 18.5q-12 4 -17 9.5t-5 16.5v25q0 22 22 28l151 45q11 3 18 3q29 0 29 -33v-355q0 -16 6 -24.5t20 -13.5l15 -5q21 -7 21 -28v-28q0 -11 -7 -18t-18 -7h-231zM94 585.5
q-28 23.5 -28 61.5t28 61t74 23t74 -23t28 -61t-28 -61.5t-74 -23.5t-74 23.5zM366.5 -215q-20.5 12 -20.5 32q0 10 5.5 16.5t20.5 13.5q31 12 45 33.5t14 58.5v394q0 22 -8 33.5t-32 18.5q-12 4 -17 9.5t-5 16.5v25q0 22 22 28l151 45q11 3 18 3q28 0 28 -33v-532
q0 -83 -45.5 -128.5t-122.5 -45.5q-33 0 -53.5 12zM428 585.5q-28 23.5 -28 61.5t28 61t74 23t74 -23t28 -61t-28 -61.5t-74 -23.5t-74 23.5z" />
    <glyph glyph-name="Jcircumflex" unicode="&#x134;" horiz-adv-x="375" 
d="M46 -154q-7 0 -12 4t-11 13l-13 24q-4 7 -4 14q0 12 14 21q47 33 66 61t19 70v516q0 17 -6 26t-21 14l-22 8q-12 5 -16.5 11t-4.5 18v29q0 11 7 18t18 7h261q12 0 18.5 -7t6.5 -18v-29q0 -12 -4.5 -18t-16.5 -11l-22 -8q-16 -5 -22 -14t-6 -26v-478q0 -95 -53.5 -150.5
t-157.5 -90.5q-14 -4 -18 -4zM58 754q-7 -3 -13 -3q-10 0 -16 10l-18 31q-4 7 -4 13q0 9 9 16l120 91q17 13 34 13h41q18 0 34 -13l120 -91q9 -7 9 -16q0 -6 -4 -13l-18 -31q-6 -10 -16 -10q-5 0 -13 3l-124 54q-6 2 -9 2l-8 -2z" />
    <glyph glyph-name="jcircumflex" unicode="&#x135;" horiz-adv-x="327" 
d="M27.5 -215q-20.5 12 -20.5 32q0 10 5.5 16.5t20.5 13.5q31 12 45 33.5t14 58.5v394q0 22 -8 33.5t-32 18.5q-12 4 -17 9.5t-5 16.5v25q0 22 22 28l151 45q11 3 18 3q28 0 28 -33v-532q0 -83 -45.5 -128.5t-122.5 -45.5q-33 0 -53.5 12zM38 550q-7 -4 -14 -4q-10 0 -15 8
l-21 29q-7 11 -7 17q0 7 8 15l122 110q8 7 15 10.5t16 3.5h42q9 0 16 -3.5t15 -10.5l122 -110q8 -8 8 -16q0 -7 -6 -16l-21 -29q-5 -8 -15 -8q-7 0 -14 4l-117 71q-3 2 -9 2t-9 -2z" />
    <glyph glyph-name="uni0136" unicode="&#x136;" horiz-adv-x="743" 
d="M63 0q-12 0 -19 7t-7 18v29q0 12 4.5 18t16.5 11l22 8q16 5 22 14t6 26v438q0 17 -6 26t-22 14l-22 8q-12 5 -16.5 11t-4.5 18v29q0 11 7 18t19 7h260q12 0 18.5 -7t6.5 -18v-29q0 -12 -4.5 -18t-15.5 -11l-23 -8q-15 -5 -21 -14t-6 -26v-185q0 -11 7 -11q3 0 8 5
l203 216q8 8 8 16t-9 14l-13 9q-9 6 -12 11t-3 15v16q0 11 6.5 18t18.5 7h193q12 0 19 -7t7 -18v-22q0 -10 -4.5 -16t-13.5 -11l-26 -13q-24 -11 -38.5 -22.5t-34.5 -32.5l-116 -123q-4 -4 -4 -9q0 -2 2 -8l148 -253q15 -26 32.5 -42.5t41.5 -30.5l21 -10q11 -5 15.5 -12
t4.5 -17v-28q0 -11 -7 -18t-19 -7h-155q-21 0 -32.5 7.5t-23.5 27.5l-143 253q-3 6 -9 6q-4 0 -8 -4l-58 -62q-6 -7 -6 -15v-82q0 -17 6 -26t21 -14l23 -8q11 -5 15.5 -11t4.5 -18v-29q0 -11 -6.5 -18t-18.5 -7h-260zM342 -293q-10 0 -16 4t-10 14q-2 8 -2 10q0 18 20 24
q44 15 58.5 26t14.5 24q0 9 -8 9q-3 0 -8 -1t-13 -1q-27 0 -45.5 20t-18.5 50q0 32 22.5 53.5t58.5 21.5q40 0 67 -27t27 -76q0 -62 -34.5 -99.5t-99.5 -50.5q-5 -1 -13 -1z" />
    <glyph glyph-name="uni0137" unicode="&#x137;" horiz-adv-x="620" 
d="M48 0q-12 0 -19 7t-7 19v27q0 21 21 28l15 5q15 5 21 13.5t6 24.5v448q0 22 -8 34t-33 19q-12 4 -17 9.5t-5 16.5v24q0 22 22 29l151 44q10 3 19 3q28 0 28 -32v-423q0 -5 2.5 -8t6.5 -3q5 0 9 4l121 106q7 7 7 13q0 9 -11 14l-19 6q-15 5 -15 23v24q0 12 7 18.5t19 6.5
h199q12 0 19 -6.5t7 -18.5v-24q0 -19 -17 -24l-31 -11q-22 -7 -39 -19t-45 -36l-29 -26q-7 -7 -7 -14q0 -4 3 -10l101 -173q13 -24 23.5 -34.5t24.5 -15.5l20 -9q21 -9 21 -28v-25q0 -12 -7 -19t-19 -7h-138q-15 0 -23.5 5.5t-15.5 17.5l-104 182q-5 8 -10 8q-3 0 -10 -5
l-43 -40q-7 -7 -7 -17v-27q0 -15 5.5 -24t20.5 -14l15 -5q21 -8 21 -28v-27q0 -12 -7 -19t-18 -7h-231zM282 -293q-10 0 -16 4t-10 14q-2 8 -2 10q0 18 20 24q44 15 58.5 26t14.5 24q0 9 -8 9q-3 0 -8 -1t-13 -1q-27 0 -45.5 20t-18.5 50q0 32 22.5 53.5t58.5 21.5
q40 0 67 -27t27 -76q0 -62 -34.5 -99.5t-99.5 -50.5q-5 -1 -13 -1z" />
    <glyph glyph-name="kgreenlandic" unicode="&#x138;" horiz-adv-x="633" 
d="M61 0q-12 0 -19 7t-7 19v27q0 21 21 28l15 5q15 5 21 13.5t6 24.5v208q0 23 -8 34.5t-33 18.5q-12 4 -17 9.5t-5 16.5v25q0 22 22 28l151 45q11 3 18 3q29 0 29 -33v-183q0 -5 2.5 -8t6.5 -3q5 0 9 4l121 106q7 7 7 13q0 9 -11 14l-19 6q-15 5 -15 23v24q0 12 7 18.5
t19 6.5h199q12 0 19 -6.5t7 -18.5v-24q0 -19 -17 -24l-31 -11q-22 -7 -39 -19t-45 -36l-29 -26q-7 -7 -7 -14q0 -4 3 -10l101 -173q13 -24 23.5 -34.5t24.5 -15.5l20 -9q21 -9 21 -28v-25q0 -12 -7 -19t-19 -7h-138q-15 0 -23.5 5.5t-15.5 17.5l-104 182q-5 8 -10 8
q-3 0 -10 -5l-43 -40q-7 -7 -7 -17v-27q0 -15 5.5 -24t20.5 -14l15 -5q21 -7 21 -28v-27q0 -12 -7 -19t-18 -7h-231z" />
    <glyph glyph-name="Lacute" unicode="&#x139;" horiz-adv-x="657" 
d="M549 -22q-18 0 -32 11q-9 6 -15 8.5t-16 2.5h-423q-12 0 -19 7t-7 18v29q0 12 4.5 18t16.5 11l22 8q16 5 22 14t6 26v438q0 17 -6 26t-22 14l-22 8q-12 5 -16.5 11t-4.5 18v29q0 11 7 18t19 7h260q12 0 18.5 -7t6.5 -18v-29q0 -12 -4.5 -18t-15.5 -11l-23 -8
q-15 -5 -21 -14t-6 -26v-439q0 -49 58 -49q73 0 130.5 32.5t114.5 108.5q10 13 21 13q8 0 15 -4l23 -13q14 -8 14 -21q0 -5 -3 -13l-63 -181q-5 -14 -12 -19.5t-18 -5.5h-9zM113 754q-3 -1 -9 -1q-16 0 -22 17l-10 28q-3 8 -3 13q0 14 15 21l191 94q7 4 14 4q14 0 20 -17
l27 -78q2 -8 2 -11q0 -17 -19 -20z" />
    <glyph glyph-name="lacute" unicode="&#x13a;" horiz-adv-x="326" 
d="M48 0q-12 0 -19 7t-7 19v27q0 21 21 28l15 5q15 5 21 13.5t6 24.5v448q0 22 -8 34t-33 19q-12 4 -17 9.5t-5 16.5v24q0 22 22 29l151 44q10 3 19 3q28 0 28 -32v-595q0 -15 5.5 -24t20.5 -14l15 -5q21 -8 21 -28v-27q0 -12 -7 -19t-18 -7h-231zM82 791q-8 -3 -13 -3
q-12 0 -20 14l-13 27q-5 8 -5 15q0 11 13 20l173 119q9 6 16 6q12 0 19 -13l38 -74q4 -7 4 -14q0 -13 -15 -19z" />
    <glyph glyph-name="uni013B" unicode="&#x13b;" horiz-adv-x="657" 
d="M549 -22q-18 0 -32 11q-9 6 -15 8.5t-16 2.5h-423q-12 0 -19 7t-7 18v29q0 12 4.5 18t16.5 11l22 8q16 5 22 14t6 26v438q0 17 -6 26t-22 14l-22 8q-12 5 -16.5 11t-4.5 18v29q0 11 7 18t19 7h260q12 0 18.5 -7t6.5 -18v-29q0 -12 -4.5 -18t-15.5 -11l-23 -8
q-15 -5 -21 -14t-6 -26v-439q0 -49 58 -49q73 0 130.5 32.5t114.5 108.5q10 13 21 13q8 0 15 -4l23 -13q14 -8 14 -21q0 -5 -3 -13l-63 -181q-5 -14 -12 -19.5t-18 -5.5h-9zM272 -293q-10 0 -16 4t-10 14q-2 8 -2 10q0 18 20 24q44 15 58.5 26t14.5 24q0 9 -8 9q-3 0 -8 -1
t-13 -1q-27 0 -45.5 20t-18.5 50q0 32 22.5 53.5t58.5 21.5q40 0 67 -27t27 -76q0 -62 -34.5 -99.5t-99.5 -50.5q-5 -1 -13 -1z" />
    <glyph glyph-name="uni013C" unicode="&#x13c;" horiz-adv-x="326" 
d="M48 0q-12 0 -19 7t-7 19v27q0 21 21 28l15 5q15 5 21 13.5t6 24.5v448q0 22 -8 34t-33 19q-12 4 -17 9.5t-5 16.5v24q0 22 22 29l151 44q10 3 19 3q28 0 28 -32v-595q0 -15 5.5 -24t20.5 -14l15 -5q21 -8 21 -28v-27q0 -12 -7 -19t-18 -7h-231zM104 -293q-10 0 -16 4
t-10 14q-2 8 -2 10q0 18 20 24q44 15 58.5 26t14.5 24q0 9 -8 9q-3 0 -8 -1t-13 -1q-27 0 -45.5 20t-18.5 50q0 32 22.5 53.5t58.5 21.5q40 0 67 -27t27 -76q0 -62 -34.5 -99.5t-99.5 -50.5q-5 -1 -13 -1z" />
    <glyph glyph-name="Lcaron" unicode="&#x13d;" horiz-adv-x="657" 
d="M549 -22q-18 0 -32 11q-9 6 -15 8.5t-16 2.5h-423q-12 0 -19 7t-7 18v29q0 12 4.5 18t16.5 11l22 8q16 5 22 14t6 26v438q0 17 -6 26t-22 14l-22 8q-12 5 -16.5 11t-4.5 18v29q0 11 7 18t19 7h260q12 0 18.5 -7t6.5 -18v-29q0 -12 -4.5 -18t-15.5 -11l-23 -8
q-15 -5 -21 -14t-6 -26v-439q0 -49 58 -49q73 0 130.5 32.5t114.5 108.5q10 13 21 13q8 0 15 -4l23 -13q14 -8 14 -21q0 -5 -3 -13l-63 -181q-5 -14 -12 -19.5t-18 -5.5h-9zM474 473q-12 3 -16 10t-2 19l32 188q3 20 21 20q6 0 9 -1l68 -18q19 -3 19 -20q0 -6 -3 -12
l-76 -176q-7 -16 -21 -16q-6 0 -10 1z" />
    <glyph glyph-name="lcaron" unicode="&#x13e;" horiz-adv-x="360" 
d="M48 0q-12 0 -19 7t-7 19v27q0 21 21 28l15 5q15 5 21 13.5t6 24.5v448q0 22 -8 34t-33 19q-12 4 -17 9.5t-5 16.5v24q0 22 22 29l151 44q10 3 19 3q28 0 28 -32v-595q0 -15 5.5 -24t20.5 -14l15 -5q21 -8 21 -28v-27q0 -12 -7 -19t-18 -7h-231zM316 513q-12 3 -16 10
t-2 19l32 188q3 20 21 20q6 0 9 -1l68 -18q19 -3 19 -20q0 -6 -3 -12l-76 -176q-7 -16 -21 -16q-6 0 -10 1z" />
    <glyph glyph-name="Ldot" unicode="&#x13f;" horiz-adv-x="657" 
d="M549 -22q-18 0 -32 11q-9 6 -15 8.5t-16 2.5h-423q-12 0 -19 7t-7 18v29q0 12 4.5 18t16.5 11l22 8q16 5 22 14t6 26v438q0 17 -6 26t-22 14l-22 8q-12 5 -16.5 11t-4.5 18v29q0 11 7 18t19 7h260q12 0 18.5 -7t6.5 -18v-29q0 -12 -4.5 -18t-15.5 -11l-23 -8
q-15 -5 -21 -14t-6 -26v-439q0 -49 58 -49q73 0 130.5 32.5t114.5 108.5q10 13 21 13q8 0 15 -4l23 -13q14 -8 14 -21q0 -5 -3 -13l-63 -181q-5 -14 -12 -19.5t-18 -5.5h-9zM440.5 328.5q-27.5 25.5 -27.5 64.5t27.5 65t69.5 26q43 0 70 -26t27 -65t-27 -64.5t-70 -25.5
q-42 0 -69.5 25.5z" />
    <glyph glyph-name="ldot" unicode="&#x140;" horiz-adv-x="472" 
d="M48 0q-12 0 -19 7t-7 19v27q0 21 21 28l15 5q15 5 21 13.5t6 24.5v448q0 22 -8 34t-33 19q-12 4 -17 9.5t-5 16.5v24q0 22 22 29l151 44q10 3 19 3q28 0 28 -32v-595q0 -15 5.5 -24t20.5 -14l15 -5q21 -8 21 -28v-27q0 -12 -7 -19t-18 -7h-231zM328.5 298.5
q-27.5 25.5 -27.5 64.5t27.5 65t69.5 26q43 0 70 -26t27 -65t-27 -64.5t-70 -25.5q-42 0 -69.5 25.5z" />
    <glyph glyph-name="Lslash" unicode="&#x141;" horiz-adv-x="663" 
d="M555 -22q-18 0 -32 11q-9 6 -15 8.5t-16 2.5h-423q-12 0 -19 7t-7 18v29q0 12 4.5 18t16.5 11l22 8q16 5 22 14t6 26v84q0 7 -4 9.5t-10 -0.5l-18 -7q-6 -3 -13 -3q-15 0 -21 15l-11 27q-2 4 -2 11q0 15 16 22l54 26q9 5 9 14v240q0 17 -6 26t-22 14l-22 8
q-12 5 -16.5 11t-4.5 18v29q0 11 7 18t19 7h260q12 0 18.5 -7t6.5 -18v-29q0 -12 -4.5 -18t-15.5 -11l-23 -8q-15 -5 -21 -14t-6 -26v-156q0 -7 4 -9.5t10 0.5l132 61q6 3 12 3q15 0 21 -16l12 -26q2 -4 2 -11q0 -16 -16 -23l-168 -77q-9 -4 -9 -14v-177q0 -49 56 -49
q72 0 130.5 35t116.5 112q10 13 21 13q8 0 15 -4l23 -13q14 -8 14 -21q0 -5 -3 -13l-63 -181q-5 -14 -12 -19.5t-18 -5.5h-9z" />
    <glyph glyph-name="lslash" unicode="&#x142;" horiz-adv-x="342" 
d="M56 0q-12 0 -19 7t-7 19v27q0 21 21 28l15 5q15 5 21 13.5t6 24.5v152q0 7 -4 9.5t-10 -0.5l-17 -7q-6 -3 -12 -3q-14 0 -20 15l-12 27q-2 4 -2 11q0 15 16 22l52 24q9 5 9 14v184q0 22 -8 34t-33 19q-12 4 -17 9.5t-5 16.5v24q0 22 22 29l151 44q11 3 19 3q28 0 28 -32
v-255q0 -7 4 -9.5t10 0.5l16 8q6 3 12 3q14 0 21 -16l11 -27q2 -4 2 -11q0 -15 -16 -21l-51 -24q-9 -4 -9 -14v-229q0 -15 5.5 -24t20.5 -14l15 -5q21 -7 21 -28v-27q0 -12 -7 -19t-18 -7h-231z" />
    <glyph glyph-name="Nacute" unicode="&#x143;" horiz-adv-x="781" 
d="M62 0q-12 0 -18.5 7t-6.5 18v23q0 12 4.5 17.5t15.5 10.5l22 8q16 5 22 14t6 26v446q0 17 -6 25.5t-22 14.5l-22 8q-11 4 -15.5 10t-4.5 18v29q0 11 6.5 18t18.5 7h141q19 0 33 -13l323 -275q4 -4 8 -4q7 0 7 11v158q0 16 -6 25t-22 14l-22 8q-12 5 -16.5 10.5t-4.5 17.5
v23q0 11 7 18t19 7h187q12 0 18.5 -7t6.5 -18v-23q0 -12 -4.5 -17.5t-15.5 -10.5l-23 -8q-15 -5 -21 -14t-6 -25v-453q0 -16 6 -25.5t21 -14.5l26 -8q11 -4 15.5 -10t4.5 -18v-23q0 -11 -6.5 -18t-18.5 -7h-193q-12 0 -19 7t-7 18v23q0 12 5 18t16 10l25 8q15 5 21.5 14.5
t6.5 25.5v15q0 30 -19 45l-336 273q-4 4 -7 4q-8 0 -8 -11v-326q0 -17 6 -26t22 -14l22 -8q12 -5 16.5 -10.5t4.5 -17.5v-23q0 -11 -6.5 -18t-19.5 -7h-187zM310 754q-3 -1 -9 -1q-16 0 -22 17l-10 28q-3 8 -3 13q0 14 15 21l191 94q7 4 14 4q14 0 20 -17l27 -78q2 -8 2 -11
q0 -17 -19 -20z" />
    <glyph glyph-name="nacute" unicode="&#x144;" horiz-adv-x="643" 
d="M61 0q-12 0 -19 7t-7 18v28q0 21 21 28l15 5q15 5 21 13.5t6 24.5v211q0 22 -8.5 33.5t-32.5 18.5q-12 4 -17 9.5t-5 16.5v25q0 22 22 28l145 43q11 3 18 3q28 0 28 -33v-12q0 -8 5.5 -10.5t11.5 1.5l20 11q75 43 143 43q65 0 98.5 -38.5t33.5 -109.5v-240q0 -16 6 -24.5
t21 -13.5l15 -5q21 -7 21 -28v-28q0 -11 -7 -18t-19 -7h-169q-11 0 -18 7t-7 18v320q0 28 -9 42.5t-31 14.5q-23 0 -47 -6.5t-43 -17.5q-10 -5 -14 -11.5t-4 -17.5v-225q0 -16 6 -24.5t20 -13.5l15 -5q21 -7 21 -28v-28q0 -11 -7 -18t-18 -7h-231zM256 551q-8 -3 -13 -3
q-12 0 -20 14l-13 27q-5 8 -5 15q0 11 13 20l173 119q9 6 16 6q12 0 19 -13l38 -74q4 -7 4 -14q0 -13 -15 -19z" />
    <glyph glyph-name="uni0145" unicode="&#x145;" horiz-adv-x="781" 
d="M62 0q-12 0 -18.5 7t-6.5 18v23q0 12 4.5 17.5t15.5 10.5l22 8q16 5 22 14t6 26v446q0 17 -6 25.5t-22 14.5l-22 8q-11 4 -15.5 10t-4.5 18v29q0 11 6.5 18t18.5 7h141q19 0 33 -13l323 -275q4 -4 8 -4q7 0 7 11v158q0 16 -6 25t-22 14l-22 8q-12 5 -16.5 10.5t-4.5 17.5
v23q0 11 7 18t19 7h187q12 0 18.5 -7t6.5 -18v-23q0 -12 -4.5 -17.5t-15.5 -10.5l-23 -8q-15 -5 -21 -14t-6 -25v-453q0 -16 6 -25.5t21 -14.5l26 -8q11 -4 15.5 -10t4.5 -18v-23q0 -11 -6.5 -18t-18.5 -7h-193q-12 0 -19 7t-7 18v23q0 12 5 18t16 10l25 8q15 5 21.5 14.5
t6.5 25.5v15q0 30 -19 45l-336 273q-4 4 -7 4q-8 0 -8 -11v-326q0 -17 6 -26t22 -14l22 -8q12 -5 16.5 -10.5t4.5 -17.5v-23q0 -11 -6.5 -18t-19.5 -7h-187zM331 -293q-10 0 -16 4t-10 14q-2 8 -2 10q0 18 20 24q44 15 58.5 26t14.5 24q0 9 -8 9q-3 0 -8 -1t-13 -1
q-27 0 -45.5 20t-18.5 50q0 32 22.5 53.5t58.5 21.5q40 0 67 -27t27 -76q0 -62 -34.5 -99.5t-99.5 -50.5q-5 -1 -13 -1z" />
    <glyph glyph-name="uni0146" unicode="&#x146;" horiz-adv-x="643" 
d="M61 0q-12 0 -19 7t-7 18v28q0 21 21 28l15 5q15 5 21 13.5t6 24.5v211q0 22 -8.5 33.5t-32.5 18.5q-12 4 -17 9.5t-5 16.5v25q0 22 22 28l145 43q11 3 18 3q28 0 28 -33v-12q0 -8 5.5 -10.5t11.5 1.5l20 11q75 43 143 43q65 0 98.5 -38.5t33.5 -109.5v-240q0 -16 6 -24.5
t21 -13.5l15 -5q21 -7 21 -28v-28q0 -11 -7 -18t-19 -7h-169q-11 0 -18 7t-7 18v320q0 28 -9 42.5t-31 14.5q-23 0 -47 -6.5t-43 -17.5q-10 -5 -14 -11.5t-4 -17.5v-225q0 -16 6 -24.5t20 -13.5l15 -5q21 -7 21 -28v-28q0 -11 -7 -18t-18 -7h-231zM270 -293q-10 0 -16 4
t-10 14q-2 8 -2 10q0 18 20 24q44 15 58.5 26t14.5 24q0 9 -8 9q-3 0 -8 -1t-13 -1q-27 0 -45.5 20t-18.5 50q0 32 22.5 53.5t58.5 21.5q40 0 67 -27t27 -76q0 -62 -34.5 -99.5t-99.5 -50.5q-5 -1 -13 -1z" />
    <glyph glyph-name="Ncaron" unicode="&#x147;" horiz-adv-x="781" 
d="M62 0q-12 0 -18.5 7t-6.5 18v23q0 12 4.5 17.5t15.5 10.5l22 8q16 5 22 14t6 26v446q0 17 -6 25.5t-22 14.5l-22 8q-11 4 -15.5 10t-4.5 18v29q0 11 6.5 18t18.5 7h141q19 0 33 -13l323 -275q4 -4 8 -4q7 0 7 11v158q0 16 -6 25t-22 14l-22 8q-12 5 -16.5 10.5t-4.5 17.5
v23q0 11 7 18t19 7h187q12 0 18.5 -7t6.5 -18v-23q0 -12 -4.5 -17.5t-15.5 -10.5l-23 -8q-15 -5 -21 -14t-6 -25v-453q0 -16 6 -25.5t21 -14.5l26 -8q11 -4 15.5 -10t4.5 -18v-23q0 -11 -6.5 -18t-18.5 -7h-193q-12 0 -19 7t-7 18v23q0 12 5 18t16 10l25 8q15 5 21.5 14.5
t6.5 25.5v15q0 30 -19 45l-336 273q-4 4 -7 4q-8 0 -8 -11v-326q0 -17 6 -26t22 -14l22 -8q12 -5 16.5 -10.5t4.5 -17.5v-23q0 -11 -6.5 -18t-19.5 -7h-187zM370 753q-15 0 -34 14l-120 91q-9 8 -9 16q0 6 4 13l18 31q6 10 16 10q6 0 13 -3l124 -54q3 -1 8 -1q6 0 9 1
l124 54q8 3 13 3q10 0 16 -10l18 -31q4 -7 4 -13q0 -8 -9 -16l-120 -91q-17 -14 -34 -14h-41z" />
    <glyph glyph-name="ncaron" unicode="&#x148;" horiz-adv-x="643" 
d="M61 0q-12 0 -19 7t-7 18v28q0 21 21 28l15 5q15 5 21 13.5t6 24.5v211q0 22 -8.5 33.5t-32.5 18.5q-12 4 -17 9.5t-5 16.5v25q0 22 22 28l145 43q11 3 18 3q28 0 28 -33v-12q0 -8 5.5 -10.5t11.5 1.5l20 11q75 43 143 43q65 0 98.5 -38.5t33.5 -109.5v-240q0 -16 6 -24.5
t21 -13.5l15 -5q21 -7 21 -28v-28q0 -11 -7 -18t-19 -7h-169q-11 0 -18 7t-7 18v320q0 28 -9 42.5t-31 14.5q-23 0 -47 -6.5t-43 -17.5q-10 -5 -14 -11.5t-4 -17.5v-225q0 -16 6 -24.5t20 -13.5l15 -5q21 -7 21 -28v-28q0 -11 -7 -18t-18 -7h-231zM308 550q-10 0 -16.5 3
t-14.5 11l-122 109q-8 8 -8 15t7 17l21 29q6 9 15 9q6 0 14 -5l116 -71q6 -2 9 -2t9 2l117 71q8 5 14 5q9 0 15 -9l21 -29q6 -9 6 -16q0 -8 -8 -16l-122 -109q-8 -8 -14.5 -11t-16.5 -3h-42z" />
    <glyph glyph-name="Eng" unicode="&#x14a;" horiz-adv-x="770" 
d="M482 -217q-15 10 -15 25q0 9 4.5 15.5t17.5 12.5q47 17 66 43.5t19 73.5v127q0 26 -19 45l-336 324q-4 4 -7 4q-8 0 -8 -11v-318q0 -17 6 -26t22 -14l22 -8q12 -5 16.5 -10.5t4.5 -17.5v-23q0 -11 -6.5 -18t-19.5 -7h-187q-12 0 -18.5 7t-6.5 18v23q0 12 4.5 17.5
t15.5 10.5l22 8q16 5 22 14t6 26v446q0 17 -6 25.5t-22 14.5l-22 8q-11 4 -15.5 10t-4.5 18v29q0 11 6.5 18t18.5 7h141q21 0 33 -12l323 -323q4 -4 8 -4q7 0 7 10v206q0 16 -6 25t-22 14l-22 8q-12 5 -16.5 10.5t-4.5 17.5v23q0 11 7 18t19 7h187q12 0 18.5 -7t6.5 -18v-23
q0 -12 -4.5 -17.5t-15.5 -10.5l-23 -8q-15 -5 -21 -14t-6 -25v-635q0 -52 -20 -90t-54 -58.5t-76 -20.5q-24 0 -39 10z" />
    <glyph glyph-name="eng" unicode="&#x14b;" horiz-adv-x="638" 
d="M338 -215q-20 12 -20 32q0 10 5.5 16.5t20.5 13.5q31 12 45 33.5t14 58.5v406q0 28 -9 42.5t-31 14.5q-23 0 -47 -6.5t-43 -17.5q-10 -5 -14 -11.5t-4 -17.5v-225q0 -16 6 -24.5t20 -13.5l15 -5q21 -7 21 -28v-28q0 -11 -7 -18t-18 -7h-231q-12 0 -19 7t-7 18v28
q0 21 21 28l15 5q15 5 21 13.5t6 24.5v211q0 22 -8.5 33.5t-32.5 18.5q-12 4 -17 9.5t-5 16.5v25q0 22 22 28l145 43q11 3 18 3q28 0 28 -33v-12q0 -8 5.5 -10.5t11.5 1.5l20 11q75 43 143 43q65 0 98.5 -38.5t33.5 -109.5v-417q0 -83 -45.5 -128.5t-122.5 -45.5
q-34 0 -54 12z" />
    <glyph glyph-name="Omacron" unicode="&#x14c;" horiz-adv-x="794" 
d="M211 36q-82 47 -128.5 129.5t-46.5 184.5t46.5 184.5t128.5 129.5t186 47t186 -47t128.5 -129.5t46.5 -184.5t-46.5 -184.5t-128.5 -129.5t-186 -47t-186 47zM553.5 143q39.5 48 39.5 127q0 81 -32.5 159t-89 127t-123.5 49q-66 0 -106.5 -47t-40.5 -126
q0 -81 32.5 -159.5t89 -128t123.5 -49.5q68 0 107.5 48zM274 776q-12 0 -18.5 7t-6.5 19v46q0 12 7 18.5t18 6.5h246q25 0 25 -25v-46q0 -26 -25 -26h-246z" />
    <glyph glyph-name="omacron" unicode="&#x14d;" horiz-adv-x="594" 
d="M160 22.5q-60 33.5 -93.5 93t-33.5 134.5t33.5 135t93.5 93.5t137 33.5t137 -33.5t93.5 -93.5t33.5 -135t-33.5 -134.5t-93.5 -93t-137 -33.5t-137 33.5zM385 118.5q22 28.5 22 79.5q0 55 -19 104.5t-50.5 79t-67.5 29.5q-38 0 -60.5 -28.5t-22.5 -79.5q0 -55 19 -104.5
t50.5 -79t67.5 -29.5q39 0 61 28.5zM174 583q-12 0 -18.5 7t-6.5 19v46q0 12 7 18.5t18 6.5h246q25 0 25 -25v-46q0 -26 -25 -26h-246z" />
    <glyph glyph-name="Obreve" unicode="&#x14e;" horiz-adv-x="794" 
d="M211 36q-82 47 -128.5 129.5t-46.5 184.5t46.5 184.5t128.5 129.5t186 47t186 -47t128.5 -129.5t46.5 -184.5t-46.5 -184.5t-128.5 -129.5t-186 -47t-186 47zM553.5 143q39.5 48 39.5 127q0 81 -32.5 159t-89 127t-123.5 49q-66 0 -106.5 -47t-40.5 -126
q0 -81 32.5 -159.5t89 -128t123.5 -49.5q68 0 107.5 48zM282.5 795q-41.5 36 -44.5 95q-2 37 30 37q20 0 28 -20q12 -23 34 -34.5t67 -11.5t67.5 11.5t33.5 34.5q9 20 29 20q29 0 29 -33q0 -61 -42 -98t-117 -37q-73 0 -114.5 36z" />
    <glyph glyph-name="obreve" unicode="&#x14f;" horiz-adv-x="594" 
d="M160 22.5q-60 33.5 -93.5 93t-33.5 134.5t33.5 135t93.5 93.5t137 33.5t137 -33.5t93.5 -93.5t33.5 -135t-33.5 -134.5t-93.5 -93t-137 -33.5t-137 33.5zM385 118.5q22 28.5 22 79.5q0 55 -19 104.5t-50.5 79t-67.5 29.5q-38 0 -60.5 -28.5t-22.5 -79.5q0 -55 19 -104.5
t50.5 -79t67.5 -29.5q39 0 61 28.5zM185 593q-40 37 -43 106q-1 36 31 36q20 0 26 -21q9 -28 31.5 -42t66.5 -14t66.5 14t32.5 42q8 21 26 21q32 0 30 -34q-4 -71 -43.5 -108t-111.5 -37t-112 37z" />
    <glyph glyph-name="Ohungarumlaut" unicode="&#x150;" horiz-adv-x="794" 
d="M211 36q-82 47 -128.5 129.5t-46.5 184.5t46.5 184.5t128.5 129.5t186 47t186 -47t128.5 -129.5t46.5 -184.5t-46.5 -184.5t-128.5 -129.5t-186 -47t-186 47zM553.5 143q39.5 48 39.5 127q0 81 -32.5 159t-89 127t-123.5 49q-66 0 -106.5 -47t-40.5 -126
q0 -81 32.5 -159.5t89 -128t123.5 -49.5q68 0 107.5 48zM260 763q-9 -6 -17 -6q-9 0 -18 10l-18 21q-7 8 -7 17t8 19l127 130q9 9 18 9q10 0 18 -9l46 -56q7 -7 7 -17q0 -12 -11 -19zM482 763q-9 -6 -17 -6q-9 0 -18 10l-18 21q-7 8 -7 18t8 18l127 130q9 9 18 9q10 0 18 -9
l46 -56q7 -7 7 -17q0 -12 -11 -19z" />
    <glyph glyph-name="ohungarumlaut" unicode="&#x151;" horiz-adv-x="594" 
d="M160 22.5q-60 33.5 -93.5 93t-33.5 134.5t33.5 135t93.5 93.5t137 33.5t137 -33.5t93.5 -93.5t33.5 -135t-33.5 -134.5t-93.5 -93t-137 -33.5t-137 33.5zM385 118.5q22 28.5 22 79.5q0 55 -19 104.5t-50.5 79t-67.5 29.5q-38 0 -60.5 -28.5t-22.5 -79.5q0 -55 19 -104.5
t50.5 -79t67.5 -29.5q39 0 61 28.5zM124 574q-9 9 -9 19q0 9 6 16l108 145q8 11 19 11q9 0 16 -7l54 -51q9 -7 9 -18q0 -10 -10 -17l-138 -117q-10 -8 -17 -8q-9 0 -18 9zM328 574q-9 9 -9 20q0 9 5 15l109 145q8 11 19 11q10 0 17 -7l53 -51q9 -7 9 -18q0 -10 -11 -18
l-138 -116q-10 -8 -17 -8q-9 0 -18 9z" />
    <glyph glyph-name="OE" unicode="&#x152;" horiz-adv-x="1068" 
d="M953 -22q-16 0 -32 11q-9 6 -16.5 8.5t-22.5 2.5h-508q-92 0 -169.5 45t-123 124.5t-45.5 180.5t45 180.5t129 124.5t196 45h426q27 0 41 11t28 11h13q19 0 27 -19l71 -152q3 -6 3 -11q0 -11 -12 -19l-19 -11q-8 -5 -15 -5q-10 0 -19 9q-49 51 -103.5 78.5t-130.5 27.5
q-30 0 -42.5 -11t-12.5 -36v-109q0 -5 3.5 -8.5t8.5 -3.5h74q25 0 54 9q15 5 27 5q8 0 13 -4.5t10 -14.5l69 -151q3 -6 3 -11q0 -9 -12 -17l-17 -9q-8 -5 -14 -5q-10 0 -19 11q-52 54 -87.5 79t-75.5 25h-25q-5 0 -8.5 -3.5t-3.5 -8.5v-227q0 -25 16 -37t42 -12
q88 0 144.5 28.5t118.5 95.5q12 12 21 12q7 0 14 -4l23 -13q12 -6 12 -19q0 -3 -2 -11l-58 -167q-5 -14 -12 -19.5t-18 -5.5h-9zM473 96q10 5 14 12.5t4 20.5v442q0 19 -7.5 28.5t-23.5 13.5q-22 7 -62 7q-89 0 -143.5 -55t-54.5 -159q0 -90 35 -162.5t91 -113t116 -40.5
q18 0 31 6z" />
    <glyph glyph-name="oe" unicode="&#x153;" horiz-adv-x="917" 
d="M160 22.5q-60 33.5 -93.5 93t-33.5 134.5t33.5 135t93.5 93.5t137 33.5q54 0 99.5 -19t78.5 -53q6 -4 8 -4q4 0 8 4q67 72 168 72q87 0 144.5 -44t78.5 -124q2 -8 2 -11q0 -16 -21 -26l-273 -100q-12 -4 -5 -16q22 -37 59 -57t86 -20q33 0 61 10.5t48 28.5q16 14 31 14
q10 0 16 -5q14 -9 14 -24q0 -9 -6 -24q-22 -56 -77 -90.5t-143 -34.5q-54 0 -100 19t-80 54q-3 5 -8 5q-3 0 -8 -5q-34 -35 -80 -54t-101 -19q-77 0 -137 33.5zM715 351q13 5 9 18q-9 27 -29 41t-46 14q-43 0 -70.5 -31t-27.5 -89q0 -4 1 -6q0 -5 3.5 -7.5t9.5 0.5z
M385 118.5q22 28.5 22 79.5q0 55 -19 104.5t-50.5 79t-67.5 29.5q-38 0 -60.5 -28.5t-22.5 -79.5q0 -55 19 -104.5t50.5 -79t67.5 -29.5q39 0 61 28.5z" />
    <glyph glyph-name="Racute" unicode="&#x154;" horiz-adv-x="721" 
d="M63 0q-12 0 -19 7t-7 18v29q0 12 4.5 18t16.5 11l22 8q16 5 22 14t6 26v437q0 15 -6 23.5t-21 14.5l-25 9q-10 4 -14.5 10t-4.5 18v29q0 22 24 25q92 11 225 11q178 0 266 -58.5t88 -165.5q0 -61 -34 -99.5t-98 -52.5q-9 -1 -9 -8q0 -3 3 -8l97 -160q18 -29 35 -42.5
t45 -26.5l12 -5q14 -8 19 -14t5 -19v-27q0 -22 -24 -22h-153q-24 0 -36.5 8.5t-24.5 29.5l-131 237q-12 22 -26 31t-32 9q-10 0 -10 -12v-172q0 -17 6 -26t21 -14l23 -8q11 -5 15.5 -11t4.5 -18v-29q0 -11 -6.5 -18t-18.5 -7h-260zM448.5 415q25.5 26 25.5 75q0 61 -40 99.5
t-108 38.5q-27 0 -37.5 -10.5t-10.5 -35.5v-174q0 -10 11 -12l31 -4q33 -3 59 -3q44 0 69.5 26zM269 754q-3 -1 -9 -1q-16 0 -22 17l-10 28q-3 8 -3 13q0 14 15 21l191 94q7 4 14 4q14 0 20 -17l27 -78q2 -8 2 -11q0 -17 -19 -20z" />
    <glyph glyph-name="racute" unicode="&#x155;" horiz-adv-x="453" 
d="M61 0q-12 0 -19 7t-7 18v28q0 21 21 28l15 5q15 5 21 13.5t6 24.5v211q0 22 -8.5 33.5t-32.5 18.5q-12 4 -17 9.5t-5 16.5v25q0 22 22 28l145 43q11 3 18 3q28 0 28 -33v-23q0 -5 2.5 -8t6.5 -3q6 0 12 6q28 27 62.5 42.5t72.5 15.5q22 0 32 -10.5t8 -29.5l-15 -130
q-1 -13 -9 -20.5t-21 -7.5q-9 0 -16.5 4.5t-16.5 16.5q-20 27 -34.5 38t-31.5 11q-45 0 -45 -55v-202q0 -16 5.5 -24.5t20.5 -12.5l25 -6q21 -5 21 -28v-28q0 -11 -7 -18t-18 -7h-241zM187 551q-8 -3 -13 -3q-12 0 -20 14l-13 27q-5 8 -5 15q0 11 13 20l173 119q9 6 16 6
q12 0 19 -13l38 -74q4 -7 4 -14q0 -13 -15 -19z" />
    <glyph glyph-name="uni0156" unicode="&#x156;" horiz-adv-x="721" 
d="M63 0q-12 0 -19 7t-7 18v29q0 12 4.5 18t16.5 11l22 8q16 5 22 14t6 26v437q0 15 -6 23.5t-21 14.5l-25 9q-10 4 -14.5 10t-4.5 18v29q0 22 24 25q92 11 225 11q178 0 266 -58.5t88 -165.5q0 -61 -34 -99.5t-98 -52.5q-9 -1 -9 -8q0 -3 3 -8l97 -160q18 -29 35 -42.5
t45 -26.5l12 -5q14 -8 19 -14t5 -19v-27q0 -22 -24 -22h-153q-24 0 -36.5 8.5t-24.5 29.5l-131 237q-12 22 -26 31t-32 9q-10 0 -10 -12v-172q0 -17 6 -26t21 -14l23 -8q11 -5 15.5 -11t4.5 -18v-29q0 -11 -6.5 -18t-18.5 -7h-260zM448.5 415q25.5 26 25.5 75q0 61 -40 99.5
t-108 38.5q-27 0 -37.5 -10.5t-10.5 -35.5v-174q0 -10 11 -12l31 -4q33 -3 59 -3q44 0 69.5 26zM347 -293q-10 0 -16 4t-10 14q-2 8 -2 10q0 18 20 24q44 15 58.5 26t14.5 24q0 9 -8 9q-3 0 -8 -1t-13 -1q-27 0 -45.5 20t-18.5 50q0 32 22.5 53.5t58.5 21.5q40 0 67 -27
t27 -76q0 -62 -34.5 -99.5t-99.5 -50.5q-5 -1 -13 -1z" />
    <glyph glyph-name="uni0157" unicode="&#x157;" horiz-adv-x="453" 
d="M61 0q-12 0 -19 7t-7 18v28q0 21 21 28l15 5q15 5 21 13.5t6 24.5v211q0 22 -8.5 33.5t-32.5 18.5q-12 4 -17 9.5t-5 16.5v25q0 22 22 28l145 43q11 3 18 3q28 0 28 -33v-23q0 -5 2.5 -8t6.5 -3q6 0 12 6q28 27 62.5 42.5t72.5 15.5q22 0 32 -10.5t8 -29.5l-15 -130
q-1 -13 -9 -20.5t-21 -7.5q-9 0 -16.5 4.5t-16.5 16.5q-20 27 -34.5 38t-31.5 11q-45 0 -45 -55v-202q0 -16 5.5 -24.5t20.5 -12.5l25 -6q21 -5 21 -28v-28q0 -11 -7 -18t-18 -7h-241zM117 -293q-10 0 -16 4t-10 14q-2 8 -2 10q0 18 20 24q44 15 58.5 26t14.5 24q0 9 -8 9
q-3 0 -8 -1t-13 -1q-27 0 -45.5 20t-18.5 50q0 32 22.5 53.5t58.5 21.5q40 0 67 -27t27 -76q0 -62 -34.5 -99.5t-99.5 -50.5q-5 -1 -13 -1z" />
    <glyph glyph-name="Rcaron" unicode="&#x158;" horiz-adv-x="721" 
d="M63 0q-12 0 -19 7t-7 18v29q0 12 4.5 18t16.5 11l22 8q16 5 22 14t6 26v437q0 15 -6 23.5t-21 14.5l-25 9q-10 4 -14.5 10t-4.5 18v29q0 22 24 25q92 11 225 11q178 0 266 -58.5t88 -165.5q0 -61 -34 -99.5t-98 -52.5q-9 -1 -9 -8q0 -3 3 -8l97 -160q18 -29 35 -42.5
t45 -26.5l12 -5q14 -8 19 -14t5 -19v-27q0 -22 -24 -22h-153q-24 0 -36.5 8.5t-24.5 29.5l-131 237q-12 22 -26 31t-32 9q-10 0 -10 -12v-172q0 -17 6 -26t21 -14l23 -8q11 -5 15.5 -11t4.5 -18v-29q0 -11 -6.5 -18t-18.5 -7h-260zM448.5 415q25.5 26 25.5 75q0 61 -40 99.5
t-108 38.5q-27 0 -37.5 -10.5t-10.5 -35.5v-174q0 -10 11 -12l31 -4q33 -3 59 -3q44 0 69.5 26zM328 753q-15 0 -34 14l-120 91q-9 8 -9 16q0 6 4 13l18 31q6 10 16 10q6 0 13 -3l124 -54q3 -1 8 -1q6 0 9 1l124 54q8 3 13 3q10 0 16 -10l18 -31q4 -7 4 -13q0 -8 -9 -16
l-120 -91q-17 -14 -34 -14h-41z" />
    <glyph glyph-name="rcaron" unicode="&#x159;" horiz-adv-x="453" 
d="M61 0q-12 0 -19 7t-7 18v28q0 21 21 28l15 5q15 5 21 13.5t6 24.5v211q0 22 -8.5 33.5t-32.5 18.5q-12 4 -17 9.5t-5 16.5v25q0 22 22 28l145 43q11 3 18 3q28 0 28 -33v-23q0 -5 2.5 -8t6.5 -3q6 0 12 6q28 27 62.5 42.5t72.5 15.5q22 0 32 -10.5t8 -29.5l-15 -130
q-1 -13 -9 -20.5t-21 -7.5q-9 0 -16.5 4.5t-16.5 16.5q-20 27 -34.5 38t-31.5 11q-45 0 -45 -55v-202q0 -16 5.5 -24.5t20.5 -12.5l25 -6q21 -5 21 -28v-28q0 -11 -7 -18t-18 -7h-241zM239 550q-10 0 -16.5 3t-14.5 11l-122 109q-8 8 -8 15t7 17l21 29q6 9 15 9q6 0 14 -5
l116 -71q6 -2 9 -2t9 2l117 71q8 5 14 5q9 0 15 -9l21 -29q6 -9 6 -16q0 -8 -8 -16l-122 -109q-8 -8 -14.5 -11t-16.5 -3h-42z" />
    <glyph glyph-name="Sacute" unicode="&#x15a;" horiz-adv-x="683" 
d="M274 2q-36 6 -48 6q-10 0 -30 -8q-18 -8 -30 -8h-13q-22 0 -33 25l-86 182q-4 8 -4 18q0 16 15 23l25 12q8 4 17 4q14 0 26 -16q114 -159 249 -159q52 0 80.5 21t28.5 61q0 38 -26.5 61.5t-82.5 42.5l-127 42q-179 60 -179 201q0 92 66.5 146t180.5 54q25 0 72 -7
q28 -5 45 -5q13 0 29 6q2 1 8.5 3t15.5 2h11q13 0 20 -6.5t14 -20.5l75 -151q4 -10 4 -15q0 -13 -16 -23l-16 -9q-10 -5 -18 -5q-13 0 -23 12q-64 71 -112 100.5t-99 29.5q-45 0 -70 -18.5t-25 -50.5q0 -30 25 -50t76 -36l121 -37q96 -28 150 -79t54 -145q0 -102 -73 -158.5
t-193 -56.5q-54 0 -104 12zM237 754q-3 -1 -9 -1q-16 0 -22 17l-10 28q-3 8 -3 13q0 14 15 21l191 94q7 4 14 4q14 0 20 -17l27 -78q2 -8 2 -11q0 -17 -19 -20z" />
    <glyph glyph-name="sacute" unicode="&#x15b;" horiz-adv-x="516" 
d="M213 -1q-22 5 -34 5q-16 0 -30 -7q-2 -1 -9 -3t-14 -2q-18 0 -29 21l-63 129q-4 7 -4 14q0 15 15 23l18 10q7 4 14 4q13 0 23 -13q44 -53 90 -80.5t92 -27.5q30 0 46 12t16 35q0 22 -18.5 37.5t-60.5 27.5l-76 23q-70 21 -107 56.5t-37 98.5q0 69 48 108t134 39
q25 0 52 -5q30 -4 45 -4q13 0 27 3.5t20 3.5q17 0 26 -18l53 -111q4 -10 4 -14q0 -12 -12 -18l-10 -6q-8 -5 -17 -5q-11 0 -20 9q-47 46 -84.5 67.5t-71.5 21.5q-29 0 -43.5 -11t-14.5 -31t19 -33.5t64 -25.5l74 -20q75 -20 112.5 -57.5t37.5 -104.5q0 -77 -53 -119
t-146 -42q-36 0 -76 10zM174 551q-8 -3 -13 -3q-12 0 -20 14l-13 27q-5 8 -5 15q0 11 13 20l173 119q9 6 16 6q12 0 19 -13l38 -74q4 -7 4 -14q0 -13 -15 -19z" />
    <glyph glyph-name="Scircumflex" unicode="&#x15c;" horiz-adv-x="683" 
d="M274 2q-36 6 -48 6q-10 0 -30 -8q-18 -8 -30 -8h-13q-22 0 -33 25l-86 182q-4 8 -4 18q0 16 15 23l25 12q8 4 17 4q14 0 26 -16q114 -159 249 -159q52 0 80.5 21t28.5 61q0 38 -26.5 61.5t-82.5 42.5l-127 42q-179 60 -179 201q0 92 66.5 146t180.5 54q25 0 72 -7
q28 -5 45 -5q13 0 29 6q2 1 8.5 3t15.5 2h11q13 0 20 -6.5t14 -20.5l75 -151q4 -10 4 -15q0 -13 -16 -23l-16 -9q-10 -5 -18 -5q-13 0 -23 12q-64 71 -112 100.5t-99 29.5q-45 0 -70 -18.5t-25 -50.5q0 -30 25 -50t76 -36l121 -37q96 -28 150 -79t54 -145q0 -102 -73 -158.5
t-193 -56.5q-54 0 -104 12zM185 754q-7 -3 -13 -3q-10 0 -16 10l-18 31q-4 7 -4 13q0 9 9 16l120 91q17 13 34 13h41q18 0 34 -13l120 -91q9 -7 9 -16q0 -6 -4 -13l-18 -31q-6 -10 -16 -10q-5 0 -13 3l-124 54q-6 2 -9 2l-8 -2z" />
    <glyph glyph-name="scircumflex" unicode="&#x15d;" horiz-adv-x="516" 
d="M213 -1q-22 5 -34 5q-16 0 -30 -7q-2 -1 -9 -3t-14 -2q-18 0 -29 21l-63 129q-4 7 -4 14q0 15 15 23l18 10q7 4 14 4q13 0 23 -13q44 -53 90 -80.5t92 -27.5q30 0 46 12t16 35q0 22 -18.5 37.5t-60.5 27.5l-76 23q-70 21 -107 56.5t-37 98.5q0 69 48 108t134 39
q25 0 52 -5q30 -4 45 -4q13 0 27 3.5t20 3.5q17 0 26 -18l53 -111q4 -10 4 -14q0 -12 -12 -18l-10 -6q-8 -5 -17 -5q-11 0 -20 9q-47 46 -84.5 67.5t-71.5 21.5q-29 0 -43.5 -11t-14.5 -31t19 -33.5t64 -25.5l74 -20q75 -20 112.5 -57.5t37.5 -104.5q0 -77 -53 -119
t-146 -42q-36 0 -76 10zM122 550q-7 -4 -14 -4q-10 0 -15 8l-21 29q-7 11 -7 17q0 7 8 15l122 110q8 7 15 10.5t16 3.5h42q9 0 16 -3.5t15 -10.5l122 -110q8 -8 8 -16q0 -7 -6 -16l-21 -29q-5 -8 -15 -8q-7 0 -14 4l-117 71q-3 2 -9 2t-9 -2z" />
    <glyph glyph-name="Scedilla" unicode="&#x15e;" horiz-adv-x="683" 
d="M302.5 -193q-25.5 12 -37.5 31q-6 12 -6 19q0 6 5 13q6 7 15 7t17 -5q23 -16 43 -16q13 0 19.5 6.5t6.5 18.5t-6 19t-21 13l-16 7q-16 6 -16 16l2 8l12 36l1 4q0 8 -11 11q2 0 -38 7q-34 6 -46 6q-15 0 -33 -9q-3 -1 -11.5 -4t-15.5 -3h-13q-22 0 -33 25l-86 182
q-4 8 -4 18q0 16 15 23l25 12q8 4 17 4q14 0 26 -16q114 -159 249 -159q52 0 80.5 21.5t28.5 60.5q0 38 -27 61.5t-82 42.5l-127 42q-179 60 -179 201q0 92 64.5 146t175.5 54q33 0 70 -7q7 -1 23.5 -3t30.5 -2q15 0 30.5 5.5t20.5 5.5h13q13 0 20 -6.5t14 -20.5l75 -151
q4 -10 4 -15q0 -13 -16 -23l-16 -9q-10 -5 -18 -5q-13 0 -23 12q-64 71 -112 100.5t-99 29.5q-45 0 -70 -18.5t-25 -50.5q0 -30 25 -50t76 -36l121 -37q96 -28 150 -79t54 -145q0 -97 -65 -151.5t-174 -63.5q-10 -1 -13 -3t-5 -7l-4 -10l-1 -4q0 -5 9 -8l4 -1
q34 -12 50.5 -30.5t16.5 -47.5q0 -39 -26.5 -61.5t-72.5 -22.5q-35 0 -60.5 12z" />
    <glyph glyph-name="scedilla" unicode="&#x15f;" horiz-adv-x="516" 
d="M213.5 -193q-25.5 12 -37.5 31q-7 10 -7 18t6 14q6 7 15 7q7 0 17 -5q23 -16 43 -16q12 0 19 7t7 18q0 12 -6 19t-22 13l-16 7q-19 7 -14 24l12 38l1 5q0 7 -9 10q-6 1 -20 4t-23 3q-16 0 -30 -7q-2 -1 -9 -3t-14 -2q-18 0 -29 21l-63 129q-4 7 -4 14q0 15 15 23l18 10
q7 4 14 4q13 0 23 -13q44 -53 90 -80.5t92 -27.5q30 0 46 12t16 35q0 22 -18.5 37.5t-60.5 27.5l-76 23q-70 21 -107 56.5t-37 98.5q0 69 48 108t134 39q25 0 52 -5q30 -4 45 -4q13 0 27 3.5t20 3.5q17 0 26 -18l53 -111q4 -10 4 -14q0 -12 -12 -18l-10 -6q-8 -5 -17 -5
q-11 0 -20 9q-47 46 -84.5 67.5t-71.5 21.5q-29 0 -43.5 -11t-14.5 -31t19 -33.5t64 -25.5l74 -20q75 -20 112.5 -57.5t37.5 -104.5q0 -71 -46.5 -112.5t-126.5 -47.5q-9 -1 -12.5 -3t-5.5 -7l-3 -10l-1 -4q0 -5 9 -8l4 -1q34 -12 50.5 -30.5t16.5 -47.5q0 -39 -27 -61.5
t-73 -22.5q-34 0 -59.5 12z" />
    <glyph glyph-name="Scaron" unicode="&#x160;" horiz-adv-x="683" 
d="M274 2q-36 6 -48 6q-10 0 -30 -8q-18 -8 -30 -8h-13q-22 0 -33 25l-86 182q-4 8 -4 18q0 16 15 23l25 12q8 4 17 4q14 0 26 -16q114 -159 249 -159q52 0 80.5 21t28.5 61q0 38 -26.5 61.5t-82.5 42.5l-127 42q-179 60 -179 201q0 92 66.5 146t180.5 54q25 0 72 -7
q28 -5 45 -5q13 0 29 6q2 1 8.5 3t15.5 2h11q13 0 20 -6.5t14 -20.5l75 -151q4 -10 4 -15q0 -13 -16 -23l-16 -9q-10 -5 -18 -5q-13 0 -23 12q-64 71 -112 100.5t-99 29.5q-45 0 -70 -18.5t-25 -50.5q0 -30 25 -50t76 -36l121 -37q96 -28 150 -79t54 -145q0 -102 -73 -158.5
t-193 -56.5q-54 0 -104 12zM297 753q-15 0 -34 14l-120 91q-9 8 -9 16q0 6 4 13l18 31q6 10 16 10q6 0 13 -3l124 -54q3 -1 8 -1q6 0 9 1l124 54q8 3 13 3q10 0 16 -10l18 -31q4 -7 4 -13q0 -8 -9 -16l-120 -91q-17 -14 -34 -14h-41z" />
    <glyph glyph-name="scaron" unicode="&#x161;" horiz-adv-x="516" 
d="M213 -1q-22 5 -34 5q-16 0 -30 -7q-2 -1 -9 -3t-14 -2q-18 0 -29 21l-63 129q-4 7 -4 14q0 15 15 23l18 10q7 4 14 4q13 0 23 -13q44 -53 90 -80.5t92 -27.5q30 0 46 12t16 35q0 22 -18.5 37.5t-60.5 27.5l-76 23q-70 21 -107 56.5t-37 98.5q0 69 48 108t134 39
q25 0 52 -5q30 -4 45 -4q13 0 27 3.5t20 3.5q17 0 26 -18l53 -111q4 -10 4 -14q0 -12 -12 -18l-10 -6q-8 -5 -17 -5q-11 0 -20 9q-47 46 -84.5 67.5t-71.5 21.5q-29 0 -43.5 -11t-14.5 -31t19 -33.5t64 -25.5l74 -20q75 -20 112.5 -57.5t37.5 -104.5q0 -77 -53 -119
t-146 -42q-36 0 -76 10zM226 550q-10 0 -16.5 3t-14.5 11l-122 109q-8 8 -8 15t7 17l21 29q6 9 15 9q6 0 14 -5l116 -71q6 -2 9 -2t9 2l117 71q8 5 14 5q9 0 15 -9l21 -29q6 -9 6 -16q0 -8 -8 -16l-122 -109q-8 -8 -14.5 -11t-16.5 -3h-42z" />
    <glyph glyph-name="uni0162" unicode="&#x162;" horiz-adv-x="712" 
d="M297.5 -193q-25.5 12 -37.5 31q-7 10 -7 18t6 14q6 7 15 7q7 0 17 -5q23 -16 43 -16q12 0 19 7t7 18q0 12 -6 19t-22 13l-16 7q-19 7 -14 24l14 42q1 2 1 5q0 9 -10 9h-95q-12 0 -19 7t-7 18v29q0 13 5 19.5t16 9.5l36 9q16 4 22 13t6 26v442q0 43 -34 43h-4
q-61 0 -144 -164q-7 -14 -20 -14q-7 0 -15 3l-28 11q-15 6 -15 21q0 4 2 12l60 213q4 13 11 18.5t18 5.5h9q7 0 14 -3t14 -8q17 -11 35 -11h364q18 0 35 11q16 11 28 11h9q11 0 18 -5.5t11 -18.5l60 -213q2 -8 2 -12q0 -15 -15 -21l-28 -11q-8 -3 -15 -3q-13 0 -20 14
q-85 164 -144 164h-3q-35 0 -35 -43v-442q0 -17 6 -26t22 -13l36 -9q11 -3 15.5 -9.5t4.5 -19.5v-29q0 -11 -6.5 -18t-18.5 -7h-103q-10 0 -13 -10l-6 -20l-1 -4q0 -5 9 -8l4 -1q34 -12 50.5 -30.5t16.5 -47.5q0 -39 -27 -61.5t-73 -22.5q-34 0 -59.5 12z" />
    <glyph glyph-name="uni0163" unicode="&#x163;" horiz-adv-x="388" 
d="M159.5 -193q-25.5 12 -37.5 31q-6 12 -6 19q0 6 5 13q6 7 15 7t17 -5q23 -16 43 -16q13 0 19.5 6.5t6.5 18.5t-6 19t-21 13l-16 7q-16 6 -16 16l2 8l12 36q1 2 1 5q0 6 -9 10q-84 24 -84 121v277q0 5 -3.5 8.5t-8.5 3.5h-31q-12 0 -19 6.5t-7 19.5v21q0 11 5 18.5
t17 15.5q50 34 128 106q12 11 22 16t23 5q15 0 23.5 -9t8.5 -26v-66q0 -5 3.5 -8.5t8.5 -3.5h83q12 0 19 -6.5t7 -18.5v-44q0 -12 -7 -19t-19 -7h-84q-5 0 -8.5 -3.5t-3.5 -8.5v-257q0 -20 9 -29t28 -9q14 0 23.5 3.5t19.5 9.5q14 9 26 9q11 0 17.5 -7t6.5 -20
q0 -38 -30 -66.5t-86 -36.5q-11 -2 -13 -10l-3 -10l-1 -4q0 -5 9 -8l4 -1q34 -12 50.5 -30.5t16.5 -47.5q0 -39 -26.5 -61.5t-72.5 -22.5q-35 0 -60.5 12z" />
    <glyph glyph-name="Tcaron" unicode="&#x164;" horiz-adv-x="712" 
d="M212 0q-12 0 -19 7t-7 18v29q0 13 5 19.5t16 9.5l36 9q16 4 22 13t6 26v442q0 43 -34 43h-4q-61 0 -144 -164q-7 -14 -20 -14q-7 0 -15 3l-28 11q-15 6 -15 21q0 4 2 12l60 213q4 13 11 18.5t18 5.5h9q7 0 14 -3t14 -8q17 -11 35 -11h364q18 0 35 11q16 11 28 11h9
q11 0 18 -5.5t11 -18.5l60 -213q2 -8 2 -12q0 -15 -15 -21l-28 -11q-8 -3 -15 -3q-13 0 -20 14q-85 164 -144 164h-3q-35 0 -35 -43v-442q0 -17 6 -26t22 -13l36 -9q11 -3 15.5 -9.5t4.5 -19.5v-29q0 -11 -6.5 -18t-18.5 -7h-288zM335 753q-15 0 -34 14l-120 91q-9 8 -9 16
q0 6 4 13l18 31q6 10 16 10q6 0 13 -3l124 -54q3 -1 8 -1q6 0 9 1l124 54q8 3 13 3q10 0 16 -10l18 -31q4 -7 4 -13q0 -8 -9 -16l-120 -91q-17 -14 -34 -14h-41z" />
    <glyph glyph-name="tcaron" unicode="&#x165;" horiz-adv-x="388" 
d="M121 21.5q-36 32.5 -36 94.5v277q0 5 -3.5 8.5t-8.5 3.5h-31q-12 0 -19 6.5t-7 19.5v21q0 11 5 18.5t17 15.5q50 34 128 106q12 11 22 16t23 5q15 0 23.5 -9t8.5 -26v-66q0 -5 3.5 -8.5t8.5 -3.5h83q12 0 19 -6.5t7 -18.5v-44q0 -12 -7 -19t-19 -7h-84q-5 0 -8.5 -3.5
t-3.5 -8.5v-257q0 -20 9 -29t28 -9q14 0 23.5 3.5t19.5 9.5q14 9 26 9q11 0 17.5 -7t6.5 -20q0 -43 -39 -73.5t-109 -30.5q-67 0 -103 32.5zM305 561q-12 3 -16 10t-2 19l32 188q3 20 21 20q6 0 9 -1l68 -18q19 -3 19 -20q0 -6 -3 -12l-76 -176q-7 -16 -21 -16q-6 0 -10 1z
" />
    <glyph glyph-name="Tbar" unicode="&#x166;" horiz-adv-x="712" 
d="M212 0q-12 0 -19 7t-7 18v29q0 13 5 19.5t16 9.5l36 9q16 4 22 13t6 26v166q0 5 -3.5 8.5t-8.5 3.5h-78q-13 0 -19.5 7t-6.5 19v26q0 12 7 19t19 7h78q5 0 8.5 3.5t3.5 8.5v174q0 43 -34 43h-4q-61 0 -144 -164q-7 -14 -20 -14q-7 0 -15 3l-28 11q-15 6 -15 21q0 4 2 12
l60 213q4 13 11 18.5t18 5.5h9q7 0 14 -3t14 -8q17 -11 35 -11h364q18 0 35 11q16 11 28 11h9q11 0 18 -5.5t11 -18.5l60 -213q2 -8 2 -12q0 -15 -15 -21l-28 -11q-8 -3 -15 -3q-13 0 -20 14q-85 164 -144 164h-3q-35 0 -35 -43v-174q0 -5 3.5 -8.5t8.5 -3.5h78
q12 0 18.5 -7t6.5 -19v-26q0 -12 -6.5 -19t-18.5 -7h-78q-5 0 -8.5 -3.5t-3.5 -8.5v-166q0 -17 6 -26t22 -13l36 -9q11 -3 15.5 -9.5t4.5 -19.5v-29q0 -11 -6.5 -18t-18.5 -7h-288z" />
    <glyph glyph-name="tbar" unicode="&#x167;" horiz-adv-x="400" 
d="M127 21.5q-36 32.5 -36 94.5v94q0 5 -3.5 8.5t-8.5 3.5h-32q-12 0 -18.5 7t-6.5 19v26q0 12 7 19t18 7h32q5 0 8.5 3.5t3.5 8.5v81q0 5 -3.5 8.5t-8.5 3.5h-31q-12 0 -19 6.5t-7 19.5v21q0 11 5 18.5t17 15.5q50 34 128 106q12 11 22 16t23 5q15 0 23.5 -9t8.5 -26v-66
q0 -5 3.5 -8.5t8.5 -3.5h83q12 0 19 -6.5t7 -18.5v-44q0 -12 -7 -19t-19 -7h-84q-5 0 -8.5 -3.5t-3.5 -8.5v-81q0 -5 3.5 -8.5t8.5 -3.5h71q13 0 19.5 -7t6.5 -19v-26q0 -12 -7 -19t-19 -7h-71q-5 0 -8.5 -3.5t-3.5 -8.5v-74q0 -20 9 -29t28 -9q14 0 23.5 3.5t19.5 9.5
q14 9 26 9q11 0 17.5 -7t6.5 -20q0 -43 -39 -73.5t-109 -30.5q-67 0 -103 32.5z" />
    <glyph glyph-name="Utilde" unicode="&#x168;" horiz-adv-x="755" 
d="M163 50q-77 61 -77 188q0 22 1 33l22 298q1 16 -5.5 25.5t-22.5 14.5l-22 8q-12 5 -16.5 11t-4.5 18v29q0 11 7 18t19 7h260q13 0 19.5 -6.5t6.5 -18.5v-29q0 -12 -4.5 -18t-16.5 -11l-22 -8q-15 -5 -20.5 -14t-6.5 -26l-15 -298q-5 -91 32 -132.5t120 -41.5
q76 0 111.5 39.5t31.5 124.5l-14 313q-1 16 -7 25t-21 15l-22 7q-12 5 -16.5 11t-4.5 18v25q0 11 7 18t19 7h194q13 0 19.5 -6.5t6.5 -18.5v-25q0 -12 -5 -18t-16 -11l-22 -7q-16 -6 -22.5 -15.5t-5.5 -24.5l20 -313q1 -10 1 -28q0 -122 -72.5 -183t-207.5 -61
q-151 0 -228 61zM236.5 777q-7.5 9 -4.5 26q5 54 36.5 85t74.5 31q29 0 62 -12l42 -16q2 -1 17 -6.5t29 -5.5t23.5 6t16.5 19q11 20 30 20q33 0 30 -35q-5 -54 -36.5 -85t-74.5 -31q-29 0 -63 12l-41 16q-12 5 -24 8.5t-23 3.5q-25 0 -40 -25q-10 -20 -29 -20q-18 0 -25.5 9
z" />
    <glyph glyph-name="utilde" unicode="&#x169;" horiz-adv-x="627" 
d="M80 143v191q0 22 -8.5 33.5t-32.5 17.5q-12 4 -17 9.5t-5 16.5v25q0 21 22 28l152 45q10 3 18 3q28 0 28 -32v-325q0 -28 10 -41.5t33 -13.5q21 0 44.5 7t43.5 18q10 6 13.5 13t3.5 18v178q0 22 -8 33.5t-32 17.5q-12 4 -17 9.5t-5 16.5v25q0 21 21 28l152 45q10 3 18 3
q28 0 28 -32v-356q0 -16 6 -24.5t21 -13.5l14 -5q22 -6 22 -28v-27q0 -12 -7 -19t-19 -7h-152q-14 0 -21.5 6.5t-11.5 20.5l-2 9q-2 8 -6 10t-10 -2l-18 -14q-52 -41 -136 -41q-142 0 -142 154zM135.5 584q-7.5 9 -4.5 26q5 54 36.5 85t74.5 31q29 0 62 -12l42 -16
q2 -1 17 -6.5t29 -5.5t23.5 6t16.5 19q11 20 30 20q33 0 30 -35q-5 -54 -36.5 -85t-74.5 -31q-29 0 -63 12l-41 16q-12 5 -24 8.5t-23 3.5q-25 0 -40 -25q-10 -20 -29 -20q-18 0 -25.5 9z" />
    <glyph glyph-name="Umacron" unicode="&#x16a;" horiz-adv-x="755" 
d="M163 50q-77 61 -77 188q0 22 1 33l22 298q1 16 -5.5 25.5t-22.5 14.5l-22 8q-12 5 -16.5 11t-4.5 18v29q0 11 7 18t19 7h260q13 0 19.5 -6.5t6.5 -18.5v-29q0 -12 -4.5 -18t-16.5 -11l-22 -8q-15 -5 -20.5 -14t-6.5 -26l-15 -298q-5 -91 32 -132.5t120 -41.5
q76 0 111.5 39.5t31.5 124.5l-14 313q-1 16 -7 25t-21 15l-22 7q-12 5 -16.5 11t-4.5 18v25q0 11 7 18t19 7h194q13 0 19.5 -6.5t6.5 -18.5v-25q0 -12 -5 -18t-16 -11l-22 -7q-16 -6 -22.5 -15.5t-5.5 -24.5l20 -313q1 -10 1 -28q0 -122 -72.5 -183t-207.5 -61
q-151 0 -228 61zM289 776q-12 0 -18.5 7t-6.5 19v46q0 12 7 18.5t18 6.5h246q25 0 25 -25v-46q0 -26 -25 -26h-246z" />
    <glyph glyph-name="umacron" unicode="&#x16b;" horiz-adv-x="627" 
d="M80 143v191q0 22 -8.5 33.5t-32.5 17.5q-12 4 -17 9.5t-5 16.5v25q0 21 22 28l152 45q10 3 18 3q28 0 28 -32v-325q0 -28 10 -41.5t33 -13.5q21 0 44.5 7t43.5 18q10 6 13.5 13t3.5 18v178q0 22 -8 33.5t-32 17.5q-12 4 -17 9.5t-5 16.5v25q0 21 21 28l152 45q10 3 18 3
q28 0 28 -32v-356q0 -16 6 -24.5t21 -13.5l14 -5q22 -6 22 -28v-27q0 -12 -7 -19t-19 -7h-152q-14 0 -21.5 6.5t-11.5 20.5l-2 9q-2 8 -6 10t-10 -2l-18 -14q-52 -41 -136 -41q-142 0 -142 154zM188 583q-12 0 -18.5 7t-6.5 19v46q0 12 7 18.5t18 6.5h246q25 0 25 -25v-46
q0 -26 -25 -26h-246z" />
    <glyph glyph-name="Ubreve" unicode="&#x16c;" horiz-adv-x="755" 
d="M163 50q-77 61 -77 188q0 22 1 33l22 298q1 16 -5.5 25.5t-22.5 14.5l-22 8q-12 5 -16.5 11t-4.5 18v29q0 11 7 18t19 7h260q13 0 19.5 -6.5t6.5 -18.5v-29q0 -12 -4.5 -18t-16.5 -11l-22 -8q-15 -5 -20.5 -14t-6.5 -26l-15 -298q-5 -91 32 -132.5t120 -41.5
q76 0 111.5 39.5t31.5 124.5l-14 313q-1 16 -7 25t-21 15l-22 7q-12 5 -16.5 11t-4.5 18v25q0 11 7 18t19 7h194q13 0 19.5 -6.5t6.5 -18.5v-25q0 -12 -5 -18t-16 -11l-22 -7q-16 -6 -22.5 -15.5t-5.5 -24.5l20 -313q1 -10 1 -28q0 -122 -72.5 -183t-207.5 -61
q-151 0 -228 61zM297.5 795q-41.5 36 -44.5 95q-2 37 30 37q20 0 28 -20q12 -23 34 -34.5t67 -11.5t67.5 11.5t33.5 34.5q9 20 29 20q29 0 29 -33q0 -61 -42 -98t-117 -37q-73 0 -114.5 36z" />
    <glyph glyph-name="ubreve" unicode="&#x16d;" horiz-adv-x="627" 
d="M80 143v191q0 22 -8.5 33.5t-32.5 17.5q-12 4 -17 9.5t-5 16.5v25q0 21 22 28l152 45q10 3 18 3q28 0 28 -32v-325q0 -28 10 -41.5t33 -13.5q21 0 44.5 7t43.5 18q10 6 13.5 13t3.5 18v178q0 22 -8 33.5t-32 17.5q-12 4 -17 9.5t-5 16.5v25q0 21 21 28l152 45q10 3 18 3
q28 0 28 -32v-356q0 -16 6 -24.5t21 -13.5l14 -5q22 -6 22 -28v-27q0 -12 -7 -19t-19 -7h-152q-14 0 -21.5 6.5t-11.5 20.5l-2 9q-2 8 -6 10t-10 -2l-18 -14q-52 -41 -136 -41q-142 0 -142 154zM199 593q-40 37 -43 106q-1 36 31 36q20 0 26 -21q9 -28 31.5 -42t66.5 -14
t66.5 14t32.5 42q8 21 26 21q32 0 30 -34q-4 -71 -43.5 -108t-111.5 -37t-112 37z" />
    <glyph glyph-name="Uring" unicode="&#x16e;" horiz-adv-x="755" 
d="M163 50q-77 61 -77 188q0 22 1 33l22 298q1 16 -5.5 25.5t-22.5 14.5l-22 8q-12 5 -16.5 11t-4.5 18v29q0 11 7 18t19 7h260q13 0 19.5 -6.5t6.5 -18.5v-29q0 -12 -4.5 -18t-16.5 -11l-22 -8q-15 -5 -20.5 -14t-6.5 -26l-15 -298q-5 -91 32 -132.5t120 -41.5
q76 0 111.5 39.5t31.5 124.5l-14 313q-1 16 -7 25t-21 15l-22 7q-12 5 -16.5 11t-4.5 18v25q0 11 7 18t19 7h194q13 0 19.5 -6.5t6.5 -18.5v-25q0 -12 -5 -18t-16 -11l-22 -7q-16 -6 -22.5 -15.5t-5.5 -24.5l20 -313q1 -10 1 -28q0 -122 -72.5 -183t-207.5 -61
q-151 0 -228 61zM330 764q-32 30 -32 75t32 75t83 30t82.5 -30t31.5 -75t-31.5 -75t-82.5 -30t-83 30zM443 798.5q9 10.5 9 30.5q0 25 -13 43t-32 18q-15 0 -24 -10.5t-9 -30.5q0 -25 13 -43t32 -18q15 0 24 10.5z" />
    <glyph glyph-name="uring" unicode="&#x16f;" horiz-adv-x="627" 
d="M80 143v191q0 22 -8.5 33.5t-32.5 17.5q-12 4 -17 9.5t-5 16.5v25q0 21 22 28l152 45q10 3 18 3q28 0 28 -32v-325q0 -28 10 -41.5t33 -13.5q21 0 44.5 7t43.5 18q10 6 13.5 13t3.5 18v178q0 22 -8 33.5t-32 17.5q-12 4 -17 9.5t-5 16.5v25q0 21 21 28l152 45q10 3 18 3
q28 0 28 -32v-356q0 -16 6 -24.5t21 -13.5l14 -5q22 -6 22 -28v-27q0 -12 -7 -19t-19 -7h-152q-14 0 -21.5 6.5t-11.5 20.5l-2 9q-2 8 -6 10t-10 -2l-18 -14q-52 -41 -136 -41q-142 0 -142 154zM228 574q-32 30 -32 75t32 75t83 30t82.5 -30t31.5 -75t-31.5 -75t-82.5 -30
t-83 30zM341 608.5q9 10.5 9 30.5q0 25 -13 43t-32 18q-15 0 -24 -10.5t-9 -30.5q0 -25 13 -43t32 -18q15 0 24 10.5z" />
    <glyph glyph-name="Uhungarumlaut" unicode="&#x170;" horiz-adv-x="755" 
d="M163 50q-77 61 -77 188q0 22 1 33l22 298q1 16 -5.5 25.5t-22.5 14.5l-22 8q-12 5 -16.5 11t-4.5 18v29q0 11 7 18t19 7h260q13 0 19.5 -6.5t6.5 -18.5v-29q0 -12 -4.5 -18t-16.5 -11l-22 -8q-15 -5 -20.5 -14t-6.5 -26l-15 -298q-5 -91 32 -132.5t120 -41.5
q76 0 111.5 39.5t31.5 124.5l-14 313q-1 16 -7 25t-21 15l-22 7q-12 5 -16.5 11t-4.5 18v25q0 11 7 18t19 7h194q13 0 19.5 -6.5t6.5 -18.5v-25q0 -12 -5 -18t-16 -11l-22 -7q-16 -6 -22.5 -15.5t-5.5 -24.5l20 -313q1 -10 1 -28q0 -122 -72.5 -183t-207.5 -61
q-151 0 -228 61zM275 763q-9 -6 -17 -6q-9 0 -18 10l-18 21q-7 8 -7 17t8 19l127 130q9 9 18 9q10 0 18 -9l46 -56q7 -7 7 -17q0 -12 -11 -19zM497 763q-9 -6 -17 -6q-9 0 -18 10l-18 21q-7 8 -7 18t8 18l127 130q9 9 18 9q10 0 18 -9l46 -56q7 -7 7 -17q0 -12 -11 -19z" />
    </font>
</defs>
</svg>
