<svg width="24" height="24" viewBox="0 0 24 24" fill="none" xmlns="http://www.w3.org/2000/svg">
<g id="Frame 60">
<g id="Group">
<g id="Group_2">
<path id="Vector" d="M6.9325 8.10376H2.93359V21.0338H6.9325V8.10376Z" fill="white"/>
<path id="Vector_2" d="M4.90345 6.40966C6.20567 6.40966 7.26588 5.33791 7.26588 4.02416C7.26588 2.71041 6.20567 1.63867 4.90345 1.63867C3.60122 1.63867 2.54102 2.71041 2.54102 4.02416C2.54102 5.33791 3.60122 6.40966 4.90345 6.40966Z" fill="white"/>
</g>
<path id="Vector_3" d="M13.328 14.2461C13.328 12.4253 14.1692 11.342 15.7711 11.342C17.2462 11.342 17.9492 12.3792 17.9492 14.2461V21.0338H21.9365V12.8517C21.9365 9.39443 19.9774 7.71191 17.2347 7.71191C14.4919 7.71191 13.3395 9.84387 13.3395 9.84387V8.10374H9.50195V21.0338H13.3395V14.2461H13.328Z" fill="white"/>
</g>
</g>
</svg>
