<svg width="24" height="24" viewBox="0 0 24 24" fill="none" xmlns="http://www.w3.org/2000/svg">
<g id="Frame 58">
<g id="Group">
<path id="Vector" d="M12 2.1673C15.2053 2.1673 15.5817 2.17871 16.8479 2.23574C18.0228 2.29277 18.6502 2.48669 19.0722 2.64639C19.6311 2.86312 20.0304 3.12548 20.4525 3.54753C20.8745 3.96958 21.1368 4.36882 21.3536 4.92776C21.5133 5.34981 21.7186 5.9886 21.7642 7.1521C21.8212 8.41826 21.8327 8.79468 21.8327 12C21.8327 15.2053 21.8212 15.5818 21.7642 16.8479C21.7072 18.0228 21.5133 18.6502 21.3536 19.0722C21.1368 19.6312 20.8745 20.0304 20.4525 20.4525C20.0304 20.8745 19.6311 21.1369 19.0722 21.3536C18.6502 21.5133 18.0114 21.7186 16.8479 21.7643C15.5817 21.8213 15.2053 21.8327 12 21.8327C8.79463 21.8327 8.4182 21.8213 7.15204 21.7643C5.97714 21.7072 5.34982 21.5133 4.92776 21.3536C4.36883 21.1369 3.96956 20.8745 3.54751 20.4525C3.12546 20.0304 2.86313 19.6312 2.6464 19.0722C2.4867 18.6502 2.28132 18.0114 2.2357 16.8479C2.17866 15.5818 2.16726 15.2053 2.16726 12C2.16726 8.79468 2.17866 8.41826 2.2357 7.1521C2.29273 5.97719 2.4867 5.34981 2.6464 4.92776C2.86313 4.36882 3.12546 3.96958 3.54751 3.54753C3.96956 3.12548 4.36883 2.86312 4.92776 2.64639C5.34982 2.48669 5.98855 2.28137 7.15204 2.23574C8.4182 2.17871 8.79463 2.1673 12 2.1673ZM12 0C8.73759 0 8.32699 0.0114128 7.04942 0.068447C5.77185 0.125481 4.89353 0.330802 4.12927 0.62738C3.3422 0.935365 2.66921 1.34601 2.00762 2.00761C1.34602 2.6692 0.92394 3.34221 0.627362 4.12928C0.330785 4.89354 0.125473 5.76046 0.0684383 7.04943C0.0114041 8.327 0 8.73765 0 12C0 15.2624 0.0114041 15.673 0.0684383 16.9506C0.125473 18.2281 0.330785 19.1065 0.627362 19.8707C0.935347 20.6578 1.34602 21.3308 2.00762 21.9924C2.68062 22.6654 3.3422 23.076 4.12927 23.3726C4.89353 23.6692 5.76045 23.8745 7.04942 23.9316C8.32699 23.9886 8.73759 24 12 24C15.2623 24 15.673 23.9886 16.9506 23.9316C18.2281 23.8745 19.1064 23.6692 19.8707 23.3726C20.6578 23.0646 21.3308 22.654 21.9924 21.9924C22.654 21.3308 23.076 20.6578 23.3726 19.8707C23.6692 19.1065 23.8745 18.2395 23.9315 16.9506C23.9886 15.673 24 15.2624 24 12C24 8.73765 23.9886 8.327 23.9315 7.04943C23.8745 5.77186 23.6692 4.89354 23.3726 4.12928C23.0646 3.34221 22.654 2.6692 21.9924 2.00761C21.3194 1.3346 20.6578 0.923958 19.8707 0.62738C19.1064 0.330802 18.2395 0.125481 16.9506 0.068447C15.673 0.0114128 15.2623 0 12 0Z" fill="white"/>
<path id="Vector_2" d="M12.0012 5.84033C8.5905 5.84033 5.83008 8.60078 5.83008 12.0114C5.83008 15.4221 8.5905 18.1825 12.0012 18.1825C15.4118 18.1825 18.1723 15.4221 18.1723 12.0114C18.1723 8.60078 15.4118 5.84033 12.0012 5.84033ZM12.0012 16.0038C9.78822 16.0038 7.99741 14.213 7.99741 12C7.99741 9.7871 9.78822 7.99622 12.0012 7.99622C14.2141 7.99622 16.005 9.7871 16.005 12C16.005 14.213 14.2141 16.0038 12.0012 16.0038Z" fill="white"/>
<path id="Vector_3" d="M19.8471 5.60059C19.8471 6.39907 19.197 7.03785 18.4099 7.03785C17.6229 7.03785 16.9727 6.38767 16.9727 5.60059C16.9727 4.81352 17.6229 4.16333 18.4099 4.16333C19.197 4.16333 19.8471 4.81352 19.8471 5.60059Z" fill="white"/>
</g>
</g>
</svg>
