<svg width="272" height="109" viewBox="0 0 272 109" fill="none" xmlns="http://www.w3.org/2000/svg">
<path d="M124.644 56.0184C122.362 56.0184 120.276 55.4768 118.421 54.3935C116.254 53.1374 114.802 51.3511 114.053 49.0348C114.007 48.885 114.099 48.7121 114.249 48.666L116.6 47.9746C116.75 47.9285 116.899 48.0207 116.957 48.1705C117.487 49.7723 118.513 50.9939 120.034 51.8582C121.382 52.6188 122.927 52.9991 124.667 52.9991C124.943 52.9991 125.174 52.9991 125.37 52.976C125.566 52.953 125.796 52.9299 126.073 52.8838C126.833 52.7686 127.525 52.5727 128.147 52.2846C129.956 51.4549 130.936 50.0374 131.097 48.0437C131.178 46.995 130.867 46.0616 130.164 45.2549C129.08 43.9872 127.329 43.2727 124.932 43.1229C120.898 42.8463 117.983 41.9129 116.173 40.288C114.802 39.0549 114.122 37.4876 114.122 35.5631C114.122 32.9702 115.148 30.8843 117.199 29.317C119.043 27.8996 121.29 27.1851 123.929 27.1851C127.041 27.1851 129.645 28.2914 131.742 30.504C132.399 31.2185 132.976 32.0021 133.471 32.8549C133.598 33.0739 133.748 33.3735 133.921 33.7538C133.99 33.9036 133.921 34.088 133.759 34.1456L131.466 35.0099C131.328 35.0676 131.166 35.0099 131.109 34.8716C130.97 34.5835 130.797 34.2724 130.625 33.9497C130.394 33.5464 130.025 33.0969 129.541 32.6014C128.032 31.0111 126.165 30.2159 123.941 30.2159C123.272 30.2159 122.581 30.2966 121.889 30.4694C121.06 30.6538 120.322 30.9304 119.677 31.2992C117.994 32.2672 117.153 33.6847 117.153 35.5631C117.153 38.2367 119.827 39.7464 125.162 40.1036C128.389 40.3226 130.832 41.3828 132.468 43.2842C133.725 44.7363 134.278 46.3958 134.139 48.2857C133.932 50.8095 132.849 52.7686 130.901 54.1745C129.184 55.4192 127.121 56.0299 124.713 56.0299H124.678L124.644 56.0184Z" fill="#F2E9D2"/>
<path d="M148.694 27.7383C151.379 27.7383 153.684 28.6948 155.597 30.6078C157.51 32.5093 158.467 34.8026 158.467 37.5107C158.467 40.2189 157.51 42.5007 155.597 44.4137C153.684 46.3267 151.379 47.2832 148.694 47.2832H142.252C142.091 47.2832 141.964 47.41 141.964 47.5713V55.2464C141.964 55.4077 141.837 55.5345 141.676 55.5345H139.198C139.037 55.5345 138.91 55.4077 138.91 55.2464V28.0264C138.91 27.865 139.037 27.7383 139.198 27.7383H148.694ZM148.395 44.2178C150.515 44.2178 152.578 43.3535 153.926 41.717C154.917 40.5185 155.401 39.1126 155.401 37.5107C155.401 35.9089 154.906 34.5145 153.926 33.3044C152.578 31.668 150.515 30.8037 148.395 30.8037H142.252C142.091 30.8037 141.964 30.9305 141.964 31.0918V43.9297C141.964 44.091 142.091 44.2178 142.252 44.2178H148.395Z" fill="#F2E9D2"/>
<path d="M162.789 55.2464V28.0264C162.789 27.865 162.916 27.7383 163.077 27.7383H165.555C165.716 27.7383 165.843 27.865 165.843 28.0264V55.2464C165.843 55.4077 165.716 55.5345 165.555 55.5345H163.077C162.916 55.5345 162.789 55.4077 162.789 55.2464Z" fill="#F2E9D2"/>
<path d="M186.252 45.8891C186.067 46.0043 186.056 46.2463 186.229 46.3731C187.6 47.3526 188.706 48.5972 189.536 50.1069C190.458 51.7894 190.907 53.5872 190.907 55.5117V55.5347H187.842V55.5117C187.842 53.253 187.035 51.3169 185.433 49.692C183.82 48.0786 181.872 47.272 179.602 47.272H174.774C174.612 47.272 174.486 47.3987 174.486 47.5601V55.2351C174.486 55.3965 174.359 55.5232 174.197 55.5232H171.72C171.558 55.5232 171.432 55.3965 171.432 55.2351V28.0152C171.432 27.8538 171.558 27.7271 171.72 27.7271H180.904C183.82 27.7271 186.655 28.9025 188.58 31.0806C190.181 32.8899 190.988 35.0333 190.988 37.488C190.988 39.3088 190.504 41.0028 189.559 42.5701C188.718 43.9415 187.612 45.0363 186.252 45.866V45.8891ZM174.497 31.0921V43.93C174.497 44.0913 174.624 44.2181 174.785 44.2181H181.204C183.059 44.2181 184.65 43.5612 185.952 42.259C187.254 40.9452 187.911 39.3549 187.911 37.511C187.911 35.6672 187.254 34.0884 185.952 32.7861C184.65 31.4724 183.059 30.804 181.204 30.804H174.785C174.624 30.804 174.497 30.9308 174.497 31.0921Z" fill="#F2E9D2"/>
<path d="M195.943 55.2464V28.0264C195.943 27.865 196.07 27.7383 196.231 27.7383H198.709C198.87 27.7383 198.997 27.865 198.997 28.0264V55.2464C198.997 55.4077 198.87 55.5345 198.709 55.5345H196.231C196.07 55.5345 195.943 55.4077 195.943 55.2464Z" fill="#F2E9D2"/>
<path d="M225.594 28.0264V30.5156C225.594 30.6769 225.468 30.8037 225.306 30.8037H216.041C215.88 30.8037 215.753 30.9305 215.753 31.0918V55.2464C215.753 55.4077 215.626 55.5345 215.465 55.5345H212.975C212.814 55.5345 212.687 55.4077 212.687 55.2464V31.0918C212.687 30.9305 212.561 30.8037 212.399 30.8037H203.019C202.857 30.8037 202.73 30.6769 202.73 30.5156V28.0264C202.73 27.865 202.857 27.7383 203.019 27.7383H225.318C225.479 27.7383 225.606 27.865 225.606 28.0264H225.594Z" fill="#F2E9D2"/>
<path d="M238.169 56.0184C235.887 56.0184 233.801 55.4768 231.946 54.3935C229.779 53.1374 228.327 51.3511 227.578 49.0348C227.532 48.885 227.624 48.7121 227.774 48.666L230.125 47.9746C230.275 47.9285 230.425 48.0207 230.482 48.1705C231.013 49.7723 232.038 50.9939 233.559 51.8582C234.908 52.6188 236.452 52.9991 238.192 52.9991C238.469 52.9991 238.699 52.9991 238.895 52.976C239.091 52.953 239.321 52.9299 239.598 52.8838C240.359 52.7686 241.05 52.5727 241.672 52.2846C243.482 51.4549 244.461 50.0374 244.622 48.0437C244.703 46.995 244.392 46.0616 243.689 45.2549C242.606 43.9872 240.854 43.2727 238.457 43.1229C234.424 42.8463 231.508 41.9129 229.699 40.288C228.327 39.0549 227.647 37.4876 227.647 35.5631C227.647 32.9702 228.673 30.8843 230.724 29.317C232.568 27.8996 234.815 27.1851 237.454 27.1851C240.566 27.1851 243.17 28.2914 245.268 30.504C245.925 31.2185 246.501 32.0021 246.996 32.8549C247.123 33.0739 247.273 33.3735 247.446 33.7538C247.515 33.9036 247.446 34.088 247.285 34.1456L244.991 35.0099C244.853 35.0676 244.692 35.0099 244.634 34.8716C244.496 34.5835 244.323 34.2724 244.15 33.9497C243.92 33.5464 243.551 33.0969 243.067 32.6014C241.557 31.0111 239.69 30.2159 237.466 30.2159C236.798 30.2159 236.106 30.2966 235.415 30.4694C234.585 30.6538 233.847 30.9304 233.202 31.2992C231.52 32.2672 230.678 33.6847 230.678 35.5631C230.678 38.2367 233.352 39.7464 238.688 40.1036C241.914 40.3226 244.357 41.3828 245.994 43.2842C247.25 44.7363 247.803 46.3958 247.665 48.2857C247.457 50.8095 246.374 52.7686 244.427 54.1745C242.709 55.4192 240.647 56.0299 238.238 56.0299H238.204L238.169 56.0184Z" fill="#F2E9D2"/>
<path d="M128.424 88.92C130.579 88.92 132.584 88.3554 134.417 87.2145C136.122 86.1542 137.459 84.7483 138.416 83.0082C138.485 82.8814 138.646 82.8238 138.784 82.8814L141.043 83.8609C141.204 83.9301 141.262 84.1145 141.181 84.2643C139.971 86.5345 138.277 88.3669 136.088 89.7382C133.748 91.2133 131.19 91.9509 128.413 91.9509C126.465 91.9509 124.598 91.5706 122.812 90.8215C121.083 90.084 119.551 89.0468 118.214 87.7215C116.877 86.3963 115.851 84.8635 115.114 83.1234C114.365 81.3372 113.984 79.4703 113.984 77.5227C113.984 75.5751 114.353 73.6967 115.114 71.8989C115.851 70.1818 116.888 68.6606 118.214 67.3238C119.551 65.9986 121.072 64.9614 122.812 64.2238C124.598 63.4748 126.465 63.0945 128.413 63.0945C131.19 63.0945 133.748 63.832 136.088 65.3071C138.277 66.69 139.971 68.5108 141.181 70.7811C141.262 70.9309 141.193 71.1153 141.043 71.1844L138.784 72.164C138.646 72.2216 138.496 72.164 138.416 72.0372C137.459 70.2855 136.122 68.8796 134.405 67.8309C132.573 66.69 130.568 66.1253 128.413 66.1253C125.266 66.1253 122.581 67.2316 120.346 69.4558C118.122 71.6915 117.015 74.3766 117.015 77.5227C117.015 80.6688 118.122 83.3539 120.346 85.5896C122.581 87.8137 125.266 88.92 128.413 88.92H128.424Z" fill="#F2E9D2"/>
<path d="M192.417 91.5245L173.471 71.3804C173.287 71.1844 172.976 71.3112 172.976 71.5763V91.1673C172.976 91.3286 172.849 91.4554 172.688 91.4554H170.21C170.049 91.4554 169.922 91.3286 169.922 91.1673V63.8436C169.922 63.5785 170.245 63.4518 170.417 63.6477L189.363 83.8034C189.547 83.9993 189.859 83.8725 189.859 83.6074V63.9473C189.859 63.786 189.985 63.6592 190.147 63.6592H192.636C192.797 63.6592 192.924 63.786 192.924 63.9473V91.3286C192.924 91.5937 192.601 91.7204 192.428 91.5245H192.417Z" fill="#F2E9D2"/>
<path d="M221.17 91.1668V63.9468C221.17 63.7855 221.297 63.6587 221.458 63.6587H230.493C232.383 63.6587 234.181 64.0275 235.898 64.765C237.557 65.468 239.021 66.4475 240.323 67.7267C241.602 69.0174 242.593 70.4925 243.285 72.152C244.022 73.8691 244.391 75.6784 244.391 77.5568C244.391 79.4352 244.022 81.233 243.285 82.9616C242.582 84.6211 241.591 86.0846 240.3 87.3638C239.021 88.6545 237.557 89.6456 235.898 90.3486C234.169 91.0861 232.36 91.4549 230.493 91.4549H221.458C221.297 91.4549 221.17 91.3281 221.17 91.1668ZM230.516 88.3895C233.489 88.3779 236.036 87.3177 238.156 85.2088C240.277 83.0884 241.337 80.5415 241.337 77.5568C241.337 74.572 240.277 72.0137 238.156 69.9048C236.036 67.7843 233.489 66.7241 230.516 66.7241H224.351C224.189 66.7241 224.062 66.8509 224.062 67.0122V88.1014C224.062 88.2627 224.189 88.3895 224.351 88.3895H230.516Z" fill="#F2E9D2"/>
<path d="M266.125 91.4895C266.125 91.4895 266.091 91.3858 266.079 91.3282C266.125 91.2475 266.148 91.1553 266.114 91.0516L255.304 64.2926C255.212 64.0506 254.866 64.0506 254.763 64.2926L243.953 91.0516C243.872 91.2475 244.011 91.4549 244.218 91.4549H246.892C247.007 91.4549 247.111 91.3858 247.157 91.2706L249.081 86.4996C249.127 86.3843 249.231 86.3152 249.346 86.3152H256.71C258.347 86.6033 259.799 87.3639 261.043 88.6085C261.873 89.4497 262.484 90.3717 262.887 91.3858C262.922 91.3858 262.956 91.3858 262.991 91.3858C263.037 91.4204 263.095 91.4549 263.164 91.4549H265.008C265.376 91.4665 265.745 91.478 266.125 91.4895ZM250.545 82.881L254.751 72.4632C254.843 72.2212 255.189 72.2212 255.293 72.4632L259.499 82.881C259.58 83.0769 259.441 83.2843 259.234 83.2843H250.821C250.614 83.2843 250.476 83.0769 250.556 82.881H250.545Z" fill="#F2E9D2"/>
<path d="M218.116 91.4897C218.116 91.4897 218.081 91.386 218.07 91.3284C218.116 91.2477 218.139 91.1556 218.104 91.0518L207.295 64.2928C207.202 64.0508 206.857 64.0508 206.753 64.2928L195.943 91.0518C195.863 91.2477 196.001 91.4552 196.208 91.4552H198.882C198.997 91.4552 199.101 91.386 199.147 91.2708L201.071 86.4998C201.118 86.3846 201.221 86.3154 201.337 86.3154H208.7C210.337 86.6035 211.789 87.3641 213.034 88.6087C213.863 89.45 214.474 90.3719 214.877 91.386C214.912 91.386 214.947 91.386 214.981 91.386C215.027 91.4206 215.085 91.4552 215.154 91.4552H216.998C217.367 91.4667 217.735 91.4782 218.116 91.4897ZM202.535 82.8812L206.741 72.4634C206.834 72.2214 207.179 72.2214 207.283 72.4634L211.489 82.8812C211.57 83.0771 211.432 83.2846 211.224 83.2846H202.812C202.604 83.2846 202.466 83.0771 202.547 82.8812H202.535Z" fill="#F2E9D2"/>
<path d="M166.016 91.4897C166.016 91.4897 165.981 91.386 165.97 91.3284C166.016 91.2477 166.039 91.1556 166.005 91.0518L155.195 64.2928C155.103 64.0508 154.757 64.0508 154.653 64.2928L143.844 91.0518C143.763 91.2477 143.901 91.4552 144.109 91.4552H146.782C146.898 91.4552 147.001 91.386 147.047 91.2708L148.972 86.4998C149.018 86.3846 149.122 86.3154 149.237 86.3154H156.601C158.237 86.6035 159.689 87.3641 160.934 88.6087C161.764 89.45 162.374 90.3719 162.778 91.386C162.812 91.386 162.847 91.386 162.881 91.386C162.928 91.4206 162.985 91.4552 163.054 91.4552H164.898C165.267 91.4667 165.636 91.4782 166.016 91.4897ZM150.435 82.8812L154.642 72.4634C154.734 72.2214 155.08 72.2214 155.183 72.4634L159.39 82.8812C159.47 83.0771 159.332 83.2846 159.125 83.2846H150.712C150.505 83.2846 150.366 83.0771 150.447 82.8812H150.435Z" fill="#F2E9D2"/>
<path d="M36.7405 50.1763C32.419 50.1763 28.8926 53.6911 28.8926 58.0242C28.8926 62.3573 32.4074 65.8721 36.7405 65.8721C41.0736 65.8721 44.5884 62.3573 44.5884 58.0242C44.5884 53.6911 41.0736 50.1763 36.7405 50.1763ZM36.7405 63.6595C33.629 63.6595 31.1052 61.1242 31.1052 58.0242C31.1052 54.9242 33.6405 52.3774 36.7405 52.3774C39.8405 52.3774 42.3758 54.9127 42.3758 58.0242C42.3758 61.1357 39.8405 63.6595 36.7405 63.6595Z" fill="#F2E9D2"/>
<path d="M104.006 43.6305C103.868 42.8353 103.522 42.6048 102.727 42.8008C102.105 42.9621 101.471 43.0658 100.837 43.3078C101.206 42.6394 101.413 41.971 101.586 41.2796C102.208 38.8365 101.817 36.4971 101.033 34.1692C100.722 33.2357 100.399 33.132 99.5118 33.593C99.0854 33.8119 98.4861 34.4688 97.9445 34.4227C97.933 34.296 97.9791 34.2268 98.1289 33.858C99.2006 31.1153 98.2672 28.4071 96.9649 25.9064C96.1006 24.2469 95.6281 24.2354 94.2222 25.5492C93.888 25.4454 94.0839 25.1112 93.9456 24.9153C93.9571 23.9243 93.8534 22.9217 93.5192 21.9997C92.8047 20.0406 91.8367 18.2198 90.4308 16.641C90.1772 16.3644 89.9813 16.3644 89.7508 16.5603C89.3014 16.9522 88.852 17.3555 88.5178 17.8165C88.3103 17.7704 88.2873 17.6551 88.2873 17.5629C88.1951 16.4912 87.8955 15.4886 87.3999 14.5436C86.5817 12.9533 85.4869 11.5704 84.1501 10.3949C82.6635 9.08119 81.0386 7.96335 79.4483 6.77637C76.6133 4.66745 73.5364 2.97341 70.3558 1.46375C69.9985 1.30241 69.6643 1.21022 69.2725 1.24479C68.8346 1.27936 68.5926 1.50984 68.4543 1.90166C68.316 2.30501 68.581 2.54701 68.8461 2.75445C69.0305 2.90426 69.2494 3.00798 69.4569 3.1117C71.6349 4.17191 73.7554 5.32433 75.7836 6.66113C77.639 7.88268 79.4367 9.18491 81.1077 10.66C81.3036 10.8329 81.5457 10.9596 81.442 11.3284C81.1999 12.1927 81.1999 13.0916 81.2691 14.1864C80.278 12.6652 79.2754 11.4436 78.0308 10.4295C76.0717 8.81613 73.8936 7.68677 71.3699 7.29495C70.6669 7.17971 70.0792 6.85703 69.5375 6.44217C66.6796 4.29868 63.568 2.60464 60.3528 1.08345C59.984 0.910591 59.6383 0.899066 59.258 0.933638C58.8662 0.968211 58.6818 1.24479 58.5435 1.57899C58.4052 1.90167 58.6357 2.1091 58.797 2.29348C58.993 2.52397 59.2811 2.66226 59.5576 2.78902C62.8305 4.34478 65.9074 6.23473 68.8346 8.37822C69.3877 8.78156 69.8602 9.25405 70.2636 9.83026C72.1074 12.4808 74.3777 14.705 77.0974 16.4566C77.2126 16.5373 77.5583 16.5373 77.3855 16.8945C76.913 16.9176 76.4174 16.86 75.9219 16.9291C75.5646 16.9752 75.1959 16.8484 74.8271 16.5949C73.7093 15.8113 72.6721 14.9239 71.5543 14.1288C68.6617 12.0429 65.5732 10.3143 62.358 8.79309C61.9892 8.62022 61.632 8.6087 61.2632 8.6548C60.8714 8.68937 60.6985 8.97747 60.5603 9.31167C60.4335 9.63435 60.6524 9.84178 60.8253 10.0262C61.0558 10.2797 61.3785 10.4065 61.6896 10.5563C65.6309 12.4808 69.3416 14.7511 72.6951 17.5975C73.0063 17.8626 73.5134 18.07 73.1215 18.6462C73.0293 18.773 73.2022 18.8652 73.2944 18.9574C74.4468 20.1098 75.6108 21.2507 76.9821 22.1495C77.6851 22.6105 78.4687 22.9332 79.2408 23.3135C78.9988 23.6938 78.607 23.6822 78.342 23.8897C77.7888 24.3045 77.7542 24.5927 78.1921 25.1458C78.2959 25.2841 78.4226 25.3993 78.5148 25.5376C79.5866 27.1971 80.9925 28.5109 82.6866 29.525C82.8479 29.6172 83.1014 29.6402 83.0669 29.9168C82.9631 30.0205 82.8249 30.032 82.6866 30.0551C81.5457 30.251 81.246 30.7465 81.7416 31.7376C82.6866 33.616 83.9081 35.2755 85.6252 36.5316C85.752 36.6238 85.9479 36.6815 85.8442 36.8889C85.3371 36.9696 84.8531 37.0387 84.3691 37.1309C84.0233 37.2 83.8966 37.3498 83.9427 37.7762C84.0234 38.5829 85.775 41.9249 85.994 42.19L87.4806 43.9762C86.9966 44.1952 86.4895 43.9647 85.994 44.0915C85.314 44.2758 85.1297 44.4141 85.3141 45.0595C85.4754 45.6357 85.8903 47.7907 86.1207 48.2632C86.6739 49.4386 87.3653 50.5334 88.2297 51.4899C89.8776 53.3223 91.8828 54.4977 94.349 54.8665C94.8099 54.9357 95.2478 54.855 95.7318 54.9356C95.7549 54.9356 95.7779 54.9356 95.801 54.9356C96.769 69.5598 93.2772 81.4757 85.3947 90.3493C81.6955 94.5095 77.3163 97.6556 72.868 99.995C75.7721 96.9756 78.1691 92.827 79.552 87.1225C79.9208 87.2262 80.3241 87.3069 80.7736 87.353C81.3613 87.4106 81.9605 87.3184 82.5022 87.0879C83.1129 86.8229 84.4613 86.1084 84.7839 85.901C87.3077 84.2876 88.172 81.4872 88.5984 78.6523C88.8865 76.7623 88.5062 76.4742 86.5471 76.7047C86.3282 76.4166 86.6969 76.2553 86.7085 76.0133C87.3192 75.2066 87.8263 74.3192 88.1144 73.3512C88.7137 71.3114 89.0018 69.214 88.7943 67.0821C88.7598 66.7018 88.5869 66.5865 88.2757 66.6096C87.665 66.6557 87.0542 66.7248 86.5126 66.8977C86.3743 66.7364 86.4204 66.6326 86.4665 66.552C87.0312 65.6185 87.3884 64.6044 87.5497 63.5326C87.8263 61.7349 87.7572 59.9371 87.3653 58.1624C86.9274 56.1918 86.259 54.2903 85.6598 52.3543C84.588 48.9085 83.0784 45.6703 81.3613 42.5127C81.1769 42.1669 80.9464 41.8904 80.6007 41.6829C80.2204 41.4524 79.8747 41.487 79.5405 41.729C79.1832 41.9825 79.2639 42.3398 79.3446 42.674C79.4022 42.9045 79.5174 43.1234 79.6327 43.3424C80.7966 45.5205 81.8453 47.7561 82.7096 50.0725C83.5048 52.1929 84.2077 54.3479 84.6917 56.5606C84.7494 56.8256 84.8761 57.0791 84.565 57.3096C83.839 57.8743 83.3088 58.6119 82.7096 59.5684C82.8018 57.7245 82.7096 56.1111 82.3063 54.5208C81.6609 52.02 80.5431 49.7844 78.7107 47.9405C78.2037 47.4219 77.9156 46.7996 77.7081 46.1312C76.6479 42.6509 75.0922 39.3896 73.3635 36.1974C73.1676 35.8287 72.8795 35.6097 72.5568 35.4138C72.2111 35.2064 71.9 35.3216 71.5773 35.5175C71.2662 35.7019 71.3353 36.0131 71.3583 36.2666C71.3814 36.5777 71.5312 36.8543 71.681 37.1424C73.4442 40.3922 74.8386 43.7918 75.9565 47.3182C76.1639 47.9866 76.2791 48.655 76.2676 49.3695C76.1985 52.6654 76.7286 55.8576 77.9156 58.9345C77.9732 59.0728 78.2498 59.2802 77.8925 59.4762C77.4892 59.2111 77.1204 58.8654 76.671 58.6234C76.3483 58.4505 76.1178 58.1278 75.968 57.6899C75.5186 56.3646 75.1959 55.0163 74.758 53.6911C73.6286 50.2338 72.1305 46.9494 70.3903 43.7688C70.1944 43.4 69.9063 43.181 69.5721 42.9967C69.2264 42.7892 68.9152 42.916 68.6041 43.1119C68.3045 43.3078 68.3621 43.6074 68.3966 43.861C68.4312 44.2067 68.6156 44.5063 68.7885 44.8175C70.8743 48.7702 72.5684 52.8728 73.6171 57.229C73.7208 57.6438 74.0089 58.1163 73.329 58.3468C73.1791 58.3929 73.2713 58.5658 73.2829 58.704C73.5364 60.352 73.813 61.9884 74.4007 63.5557C74.7003 64.3624 75.1498 65.0884 75.5531 65.872C75.1267 66.0449 74.8041 65.8029 74.4699 65.8029C73.7669 65.8144 73.5595 66.0219 73.594 66.7479C73.594 66.9207 73.6286 67.0936 73.6171 67.2665C73.5018 69.2832 73.8591 71.2077 74.6543 73.0516C74.7349 73.2244 74.9308 73.3973 74.7349 73.6047C74.5851 73.6278 74.4699 73.5586 74.3431 73.4895C73.2944 72.9709 72.7412 73.2014 72.5568 74.3077C72.2111 76.4166 71.9922 78.6292 72.6375 80.7036C72.9487 81.6947 74.3085 83.9188 75.3687 84.8177C75.7029 85.0943 76.0371 85.3708 76.3713 85.6359C76.7632 85.8318 77.1665 86.0738 77.6159 86.3158C76.0256 93.1266 72.9371 97.5749 69.2725 100.491C69.2725 100.467 69.2725 100.444 69.2725 100.421L71.3583 60.4327C71.5312 57.229 70.1829 54.0829 67.7513 51.997L63.787 49.2082L63.7409 49.1736L63.764 49.116C63.9599 48.5859 64.1673 48.0442 64.2941 47.4565C65.1468 43.7112 65.1353 40.4844 64.2364 36.6815L64.1212 32.7978C64.1212 31.3227 62.9227 30.1127 61.4361 30.1127H56.0543C54.5792 30.1127 53.3807 31.3112 53.3807 32.7978L53.4038 36.7967C53.0696 38.3985 52.8045 39.8736 52.6432 41.3026C52.574 41.2796 52.5049 41.245 52.4473 41.222C50.7186 40.5766 49.2551 40.0811 47.9183 39.7123C48.4715 39.113 48.9324 38.4792 49.2896 37.7762C49.8774 36.6123 50.1655 35.3562 50.1424 34.0424C50.0733 30.5276 47.6648 27.3123 44.4034 26.4019C43.6774 26.1945 42.9744 26.0793 42.2715 26.0101L40.2202 9.55368C39.9321 7.2719 38.6644 5.25518 36.7399 4.01058C34.8154 2.76597 32.4414 2.4433 30.2518 3.12322L5.54411 10.7983C2.36345 11.8124 -0.0566129 12.9302 0.00100773 17.2864V74.0081L0.058623 74.1809C0.277581 74.8148 5.53258 89.7039 19.9608 99.9719C27.6128 105.411 37.5811 108.223 47.8146 108.223C49.4395 108.223 51.0759 108.143 52.7123 108.004C55.4435 107.831 58.8662 107.428 62.381 106.299C64.5706 105.699 66.7372 104.973 68.8346 104.098L68.8115 104.028C75.0691 101.482 81.6263 97.5403 86.8698 91.64C95.0865 82.3861 98.7512 70.0553 97.8062 54.9817C98.8434 54.8896 99.8344 54.5438 100.745 53.8754C102.842 52.3543 103.799 50.1877 104.144 47.6985C104.34 46.3041 104.179 44.9212 103.937 43.5383L104.006 43.6305ZM82.7096 78.5486C81.1538 80.0467 80.0936 81.7523 79.1026 83.5155C79.4137 81.395 79.0334 79.4129 78.342 77.4768C79.771 77.9263 81.0847 78.5255 82.7096 78.5486ZM79.2408 69.0527C80.6122 69.5943 81.9029 69.4906 83.3204 69.4906C82.3063 71.0925 81.5457 72.7289 80.9234 74.446C80.8081 72.533 80.1743 70.8274 79.2408 69.0527ZM86.939 78.3757C87.0888 78.5601 87.0311 78.7675 86.9851 78.975C86.5356 80.9917 85.7981 82.8701 84.2769 84.3567C83.3089 85.3132 82.1334 85.7166 80.7966 85.6705C80.1858 85.6474 80.0821 85.4861 80.3126 84.979C81.2691 82.8932 82.3639 80.8995 84.1962 79.4359C84.9453 78.8367 85.8787 78.4679 86.939 78.3757ZM87.1464 68.4189C87.2155 68.6263 87.3193 68.7992 87.3077 68.949C87.1003 70.7122 86.9735 72.4984 86.0977 74.0887C85.6252 74.9415 85.0605 75.7482 84.2308 76.3014C83.6431 76.6932 82.9977 76.9352 82.1104 76.8891C82.6059 74.2731 83.4471 71.8876 85.1066 69.8479C85.6482 69.191 86.3282 68.73 87.1464 68.4189ZM82.6866 67.0129C82.8249 65.9758 82.9286 64.9386 83.1245 63.9129C83.401 62.4839 83.7468 61.055 84.5419 59.8104C84.8416 59.3494 85.1412 58.8769 85.752 58.6234C86.1438 59.3379 86.0516 60.0524 86.0977 60.7208C86.2129 62.6107 85.994 64.4546 84.9683 66.1256C84.6111 66.7133 84.1616 67.1628 83.597 67.52C83.3665 67.6583 83.1245 67.9233 82.8479 67.7735C82.5598 67.6237 82.6404 67.278 82.675 67.0129H82.6866ZM82.4676 60.7553C82.2371 62.2304 81.9029 63.6133 81.465 65.0308C81.1423 63.959 80.8427 62.9103 80.0706 61.781C81.4419 62.4379 81.6609 61.1587 82.4676 60.7553ZM77.9156 49.6576C80.3241 51.5015 81.8453 57.2635 80.6468 60.2944C78.5724 56.9639 77.9156 53.426 77.9156 49.6576ZM75.1843 59.9256C75.5762 59.8449 75.8873 60.0178 76.21 60.2252C77.4661 61.0204 78.2498 62.1958 78.8375 63.4981C79.3791 64.7196 79.7364 66.0219 79.794 67.3817C77.662 66.8862 75.6799 63.5787 75.1843 59.9141V59.9256ZM75.2996 67.7389C76.1178 67.7735 76.6018 68.3613 77.0628 68.8798C78.5724 70.5854 79.1602 72.6598 79.2293 74.8954C79.2293 75.2066 79.2293 75.5177 79.2293 75.9096C76.6249 74.9992 75.1037 70.6315 75.2996 67.7389ZM77.5007 82.801C77.4316 83.2389 77.42 83.6883 77.3855 84.1263C77.0858 84.2069 76.9245 84.0686 76.7286 83.8842C75.2881 82.5474 74.5736 80.8534 74.1818 78.975C73.9628 77.9493 74.055 76.9122 74.0204 75.875C74.0204 75.6791 73.9859 75.4371 74.2279 75.3334C74.4583 75.2412 74.6082 75.4255 74.781 75.5408C75.8643 76.3129 76.5672 77.3616 77.0052 78.6062C77.4776 79.966 77.7312 81.3489 77.5122 82.7895L77.5007 82.801ZM33.1789 79.6434C33.3288 79.6088 33.5016 79.5742 33.6745 79.5281L33.7551 79.5051H33.7667C33.9741 79.459 34.1815 79.4129 34.389 79.3783C35.138 79.2515 35.9678 79.1363 36.9704 79.0326C39.5863 78.7906 42.2254 78.7099 44.8529 78.756C45.6941 78.7791 46.6161 78.8252 47.6993 78.8713C48.4484 78.9174 49.1859 78.9634 49.935 79.0326C50.5343 79.0902 51.4101 79.217 51.9748 79.2976C52.4012 79.3668 52.8045 79.4475 53.1272 79.5051C53.496 79.5973 53.9569 79.7125 54.4179 79.8508C54.5792 79.8969 54.729 79.9545 54.8673 80.0121C54.2796 80.2541 53.6919 80.4501 53.1041 80.5883C52.2859 80.7958 51.3871 80.9686 50.3845 81.1185C45.7863 81.7292 41.1191 81.7292 36.5325 81.1185C35.5068 80.9686 34.6194 80.7958 33.8012 80.5883C33.1905 80.4385 32.5682 80.2311 32.0035 80.0006C32.2224 79.9084 32.5105 79.8162 32.8793 79.7125C32.9715 79.6895 33.0637 79.6664 33.1674 79.6318L33.1789 79.6434ZM68.1546 80.9341H57.7368V80.669C57.7368 80.5422 57.7368 80.4155 57.7368 80.2887C57.7368 80.2772 57.7368 80.2657 57.7368 80.2426C57.7368 80.0698 57.7138 79.9199 57.6677 79.7701C57.6562 79.7125 57.6446 79.6664 57.6216 79.6088L57.5985 79.5627C57.564 79.482 57.5294 79.4014 57.4833 79.3092C57.4487 79.2285 57.3911 79.1593 57.345 79.0902C57.322 79.0556 57.2874 79.0211 57.2644 78.9865C57.2413 78.9634 57.2182 78.9404 57.1952 78.9174C56.4 78.0415 54.9365 77.6843 54.3026 77.5229C54.1298 77.4768 53.8993 77.4192 53.6112 77.3616C53.3461 77.304 53.0926 77.2464 52.8967 77.2118C52.8737 77.2118 52.6432 77.1772 52.3205 77.1311C51.2257 76.9467 50.0042 76.7854 49.3012 76.7508L48.8287 68.2921L58.6242 62.7605L68.7885 68.4995L68.1431 80.9341H68.1546ZM55.5357 100.733C55.5357 101.309 55.3283 101.862 54.948 102.3L53.8071 103.614C53.738 103.683 53.6458 103.786 53.6112 103.809C53.4844 103.89 53.3577 103.948 53.2079 104.005C52.9774 104.098 52.7469 104.167 52.5164 104.224C52.2283 104.305 51.9171 104.374 51.5599 104.443C50.7763 104.593 49.9235 104.72 48.8863 104.812C47.3306 104.985 45.4521 105.089 43.4815 105.089C41.5109 105.089 39.7131 105.008 38.0652 104.835C37.0395 104.731 36.1983 104.616 35.4031 104.466C35.1035 104.409 33.6284 103.936 33.3057 103.798C33.2827 103.775 33.2596 103.752 33.2366 103.729L33.1444 103.625C33.1444 103.625 32.5221 102.968 31.9689 102.357C31.6117 101.966 31.4273 101.459 31.4273 100.928V89.2084C32.0957 89.4734 32.7641 89.7039 33.4325 89.8768C34.2968 90.0957 35.2418 90.2801 36.325 90.4415C37.8116 90.6374 39.2982 90.7641 40.7964 90.8448C40.4737 90.8794 40.151 91.0061 39.886 91.2136L34.9306 95.005C34.1124 95.6388 33.9511 96.8143 34.5734 97.6325L38.3648 102.588C38.7336 103.072 39.2982 103.325 39.8629 103.325C40.2547 103.325 40.6581 103.199 41.0038 102.945L45.9592 99.1537C46.3625 98.8541 46.6161 98.4046 46.6852 97.9091C46.7543 97.4136 46.6161 96.918 46.3164 96.5262L45.9592 96.0537L49.958 96.5492C50.0387 96.5492 50.1079 96.5608 50.1885 96.5608C50.6034 96.5608 51.0068 96.4225 51.341 96.1574C51.7328 95.8463 51.9863 95.4084 52.0439 94.9128L52.6317 90.0957C52.9428 90.0266 53.2424 89.9575 53.5305 89.8883C54.1989 89.727 54.8673 89.4965 55.5357 89.2199V100.756V100.733ZM33.2942 82.7318C34.1815 82.9508 35.1496 83.1352 36.2559 83.308C38.6529 83.6307 41.0614 83.792 43.4815 83.792C45.9016 83.792 48.3216 83.6307 50.7302 83.308C51.825 83.1467 52.7815 82.9623 53.6804 82.7434C54.3027 82.5935 54.9249 82.3746 55.5473 82.1326V87.9984C55.4666 88.0329 55.3859 88.079 55.2937 88.1136C54.6253 88.3902 53.9454 88.6207 53.277 88.7935C53.1157 88.8396 52.9543 88.8742 52.7815 88.9088L52.8045 88.6898C52.9313 87.6642 52.1937 86.7192 51.1681 86.6039L44.9681 85.8433C44.4726 85.7857 43.977 85.924 43.5852 86.2236C43.1934 86.5348 42.9399 86.9727 42.8822 87.4798L42.5941 89.7961C40.5544 89.7615 38.5146 89.6117 36.4864 89.3467C35.4377 89.1969 34.5273 89.0125 33.6975 88.805C33.0176 88.6322 32.3377 88.4132 31.6923 88.1366C31.6232 88.1021 31.5195 88.0444 31.4157 87.9868V82.1326C32.038 82.3746 32.6719 82.5935 33.3057 82.7434L33.2942 82.7318ZM41.4302 90.8448C41.7759 90.8563 42.1101 90.8679 42.4559 90.8679L42.3867 91.3864C42.1332 91.1099 41.799 90.9255 41.4302 90.8333V90.8448ZM44.3573 97.5634L39.9206 100.951L36.5325 96.5147L40.9692 93.1266L44.3573 97.5634ZM44.68 90.8679C46.5815 90.8218 48.4714 90.6835 50.3614 90.4415L49.8889 94.279L44.3458 93.5991L44.68 90.8679ZM50.4882 89.3236C48.6097 89.5772 46.7083 89.7154 44.8183 89.7731L45.0257 88.0675L50.5688 88.7474L50.4997 89.3352H50.4882V89.3236ZM64.6283 103.441C61.4707 104.478 58.1863 105.204 54.8673 105.619C55.0978 105.457 55.3398 105.227 55.4666 105.077L56.6305 103.752C57.3565 102.911 57.7599 101.839 57.7599 100.733V83.1352H68.0624L67.1636 100.387C67.1636 100.387 67.1751 100.352 67.1981 100.352V102.081C66.3569 102.599 65.5041 103.049 64.6283 103.441ZM56.1465 32.4175H61.5283C61.7933 32.4175 62.0008 32.625 62.0008 32.9246L62.0929 35.9093H55.6971L55.674 32.89C55.674 32.625 55.8815 32.4175 56.1465 32.4175ZM54.7751 51.2479C56.5383 50.2338 55.9852 48.8855 55.7777 48.3669L55.6164 47.9751C55.3168 47.1914 54.971 46.3041 54.8904 45.6011C54.6484 43.2387 54.9365 40.8647 55.4896 38.122H62.3465C62.9803 41.222 62.9342 43.9532 62.2312 47.0647C62.1275 47.5141 61.9662 47.9636 61.7818 48.4476L61.6896 48.7011C61.4246 49.4271 61.5398 50.4412 62.6461 51.1327L66.4491 53.7948C68.339 55.4427 69.3877 57.9089 69.2494 60.4096L68.9498 66.0449L59.742 60.8475C59.0736 60.4672 58.2324 60.4672 57.564 60.8475L48.725 65.8375L48.4253 60.4096C48.287 57.9089 49.3358 55.4312 51.2257 53.7948L54.7751 51.2595V51.2479ZM52.5971 43.7342C52.5971 44.4372 52.6201 45.1286 52.7008 45.8316C52.8045 46.8342 53.2309 47.9175 53.5651 48.7818L53.738 49.2197L53.761 49.2888C53.761 49.2888 53.6919 49.3349 53.6458 49.358L49.9004 52.0316L49.8198 52.0892C47.3882 54.1751 46.0398 57.3327 46.2127 60.5364L46.835 71.7839C35.6105 65.9297 22.0697 65.1115 8.81695 69.4445C8.80543 69.41 8.78238 69.3754 8.77085 69.3408C7.65301 66.8055 6.67347 62.0691 7.14596 59.9947C7.58387 58.0241 8.18313 56.3762 8.95524 54.9472C9.7965 53.4145 10.6608 52.0661 11.6288 50.8215C12.7467 49.3695 14.118 48.0442 15.9389 46.6268C17.0452 45.774 18.3013 45.071 19.4883 44.4257C20.5024 43.884 21.6894 43.2732 22.8879 42.8814C24.7318 42.2937 26.5641 41.8443 28.7537 41.3141C28.892 41.2796 29.0303 41.268 29.1685 41.2335C29.6065 41.1874 30.0329 41.1528 30.4708 41.1067C31.4042 41.003 32.2916 40.9108 33.1905 40.8762C35.5644 40.7725 37.3737 40.7379 39.0562 40.784C40.151 40.8071 41.2228 40.9223 42.3752 41.0491C42.5596 41.0721 42.7555 41.0837 42.9399 41.1067C43.5622 41.245 44.1729 41.3372 44.7722 41.4294C45.5097 41.5331 46.2012 41.6368 46.8811 41.8212C48.3101 42.2015 49.8659 42.7086 51.7789 43.4231C52.0554 43.5268 52.3436 43.642 52.6201 43.7688L52.5971 43.7342ZM7.169 22.4492V21.9652C7.23815 18.6462 7.36492 17.5514 9.58907 16.883L31.4273 10.2912C32.1187 10.0838 32.8332 10.2336 33.3864 10.7061C33.9395 11.1786 34.1931 11.8585 34.0893 12.5845L32.1533 26.0793C31.9459 26.0793 31.7499 26.0793 31.5425 26.0793C30.8856 26.0908 30.0674 26.1023 29.2838 26.3443C26.5641 27.1856 24.7779 28.7644 23.8098 31.1499C23.3373 32.3253 23.1299 33.4086 23.1645 34.4803C23.2336 36.5201 23.9827 38.3179 25.4002 39.8506C24.363 40.1156 23.2797 40.4268 22.2195 40.761C20.8481 41.1989 19.5459 41.8673 18.4396 42.455C17.1719 43.1465 15.8236 43.8955 14.5905 44.852C12.6199 46.3848 11.1218 47.8368 9.88869 49.4386C8.90914 50.6948 8.02179 52.0661 7.18053 53.5873V22.4376L7.169 22.4492ZM48.0335 34.1922C48.0566 35.1487 47.8491 36.0246 47.4112 36.8889C46.9848 37.7417 46.351 38.4907 45.4867 39.1591C45.2101 39.1361 44.922 39.1015 44.6454 39.0554C44.3804 39.0208 44.1153 38.9863 43.8503 38.9632C43.6428 38.9402 43.4469 38.9171 43.2395 38.9056C42.1101 38.6521 40.9923 38.5945 39.9206 38.5368C39.4826 38.5138 39.0447 38.4907 38.6068 38.4562C36.5901 38.2948 34.6425 38.4331 32.7525 38.5829L32.3377 38.606C31.992 38.629 31.6347 38.6521 31.289 38.6982C31.0585 38.7327 30.828 38.7558 30.5975 38.7788C29.9868 38.848 29.3645 38.9286 28.7422 39.0439H28.6845L28.454 39.0669C27.9009 39.1246 27.8087 39.113 27.6243 38.9517C26.1607 37.6725 25.4117 36.1744 25.3541 34.3997C25.331 33.6391 25.4923 32.8439 25.8496 31.9681C26.5641 30.2049 27.8548 29.0871 29.9407 28.4417C30.4247 28.2919 31.047 28.2804 31.5886 28.2688C32.7871 28.2458 33.9856 28.2573 35.1841 28.2688H41.3841C42.2254 28.2688 43.0436 28.3841 43.9079 28.6261C46.2473 29.2714 47.9874 31.6108 48.0335 34.1807V34.1922ZM6.30469 13.0109L31.0009 5.34737C32.5682 4.86336 34.2622 5.09385 35.6451 5.9812C37.028 6.86856 37.9269 8.3206 38.1343 9.9455L40.1395 26.0793H35.1841C34.9191 26.0793 34.654 26.0793 34.389 26.0793L36.2789 12.9072C36.4864 11.4436 35.9447 10.0031 34.8269 9.04662C33.709 8.09012 32.1994 7.76744 30.7934 8.19383L8.95524 14.7856C5.09466 15.9611 5.04857 18.7269 4.97943 21.9421V59.6605C4.42627 62.4379 5.61325 67.5776 6.74262 70.1705C5.95898 70.4586 5.18686 70.7583 4.40322 71.0809C3.78092 71.3114 3.06642 71.6341 2.30583 72.049V17.3555C2.27126 14.6589 3.13556 14.002 6.30469 12.9879V13.0109ZM2.55935 74.3999C3.36604 73.9389 4.31102 73.4434 5.15228 73.1438C5.2099 73.1207 5.24448 73.1092 5.26753 73.0977C19.7303 67.0705 34.896 67.543 46.9964 74.3538L47.1231 76.6356C46.4086 76.601 45.6941 76.578 44.9796 76.5664C42.502 76.4858 40.6696 76.5203 37.3852 76.7739C35.4031 76.9467 33.8934 77.2233 33.3057 77.3731C33.0867 77.4192 32.8793 77.4653 32.6604 77.5229C32.5336 77.5575 32.4184 77.5806 32.3031 77.6151C32.1533 77.6612 32.0035 77.6843 31.8537 77.7304C31.8537 77.7304 31.289 77.9263 31.0354 78.03C30.7819 78.1452 30.5399 78.272 30.344 78.4103C30.125 78.5486 29.9522 78.7214 29.7908 78.9058C29.7678 78.9289 29.7448 78.9634 29.7102 78.9865C29.6987 78.998 29.6756 79.0211 29.6641 79.0326C29.6526 79.0556 29.641 79.0787 29.618 79.1017C29.5834 79.1478 29.5373 79.2055 29.5027 79.2515C29.2838 79.5973 29.2377 79.9199 29.2262 80.1619V100.905C29.2262 101.528 29.3529 102.138 29.6065 102.692C26.6102 101.516 23.8214 100.041 21.3321 98.2663C9.38163 89.7615 3.8731 77.6382 2.55935 74.3884V74.3999ZM97.1724 38.3755C97.1608 38.2026 97.9791 36.7852 98.6936 35.8402C98.9817 35.5406 99.166 35.3908 99.4081 35.3562C99.627 35.3216 99.8575 35.4599 99.9266 35.6789C100.192 36.4625 100.307 37.1655 100.434 38.0067C100.526 38.7212 100.388 39.6547 100.157 40.3576C99.7999 42.2707 99.0393 43.884 97.0687 44.6331C96.4694 44.8636 96.4694 44.8751 96.2159 44.1721C96.1006 41.3372 96.6077 39.4127 97.1609 38.3755H97.1724ZM93.8995 29.064C94.1415 28.1651 94.6716 27.3239 95.4668 26.6439C95.6973 26.7131 95.7664 26.909 95.8471 27.0934C96.6538 28.9603 97.1608 30.8618 96.8151 32.9246C96.5962 34.2383 95.9047 35.2525 94.8099 35.99C94.3144 36.3242 94.13 36.2551 94.0263 35.7249C93.5768 33.5238 93.2887 31.3112 93.8995 29.0871V29.064ZM91.0185 38.5945C92.6088 38.3179 93.9917 38.0759 95.4783 37.8223C94.8445 39.816 94.6371 41.8097 94.6601 43.8725C93.9917 41.7982 92.7241 40.1502 91.0185 38.5945ZM93.4731 46.2465C93.4731 46.2465 93.404 46.2926 93.3579 46.3156C93.3579 46.3156 93.427 46.2695 93.4731 46.2465ZM89.0825 20.9395C89.1285 20.1098 89.4051 19.3492 89.8776 18.6347C90.0505 18.7614 90.2348 18.8306 90.3155 18.9689C91.1683 20.4901 92.1018 21.9767 92.3322 23.7514C92.459 24.7079 92.459 25.6644 92.1248 26.5863C91.8828 27.2317 91.514 27.8079 90.788 28.2688C89.6586 25.9064 88.9557 23.5324 89.094 20.951L89.0825 20.9395ZM92.217 29.2369C91.8482 31.3227 91.998 33.2934 92.217 35.2525C91.2374 33.3971 89.7969 32.0372 88.1259 30.9079C89.5204 30.4354 90.9148 30.1588 92.2055 29.2253L92.217 29.2369ZM87.4575 21.7116C87.5728 23.567 87.93 25.2956 88.4256 27.0242C87.2271 25.5722 85.7404 24.5811 83.9773 23.7283C85.3832 23.3596 86.3397 22.5298 87.4575 21.7231V21.7116ZM83.1129 11.6741C83.839 12.0198 84.1847 12.6306 84.5996 13.1377C85.7866 14.5782 86.6739 16.157 86.8352 18.0815C86.8929 18.7499 86.7891 19.3722 86.5471 19.983C86.4549 20.225 86.4088 20.5823 86.0977 20.6168C85.7865 20.6629 85.6482 20.3403 85.5215 20.1098C85.0259 19.2109 84.5074 18.3235 84.081 17.4016C83.4817 16.1109 82.917 14.7856 82.8364 13.3221C82.8018 12.7804 82.7672 12.2388 83.1129 11.6741ZM81.7416 15.2696C82.41 16.5719 82.9516 17.8626 83.4126 19.2339C82.5367 18.5771 81.684 17.9087 80.4278 17.4592C81.8914 17.1942 81.3267 16.0418 81.7301 15.2696H81.7416ZM71.7156 9.10424C74.7003 9.17338 79.2293 12.8611 80.0245 15.9611C76.452 14.5206 73.8821 12.1005 71.7156 9.10424ZM75.4955 18.8191C75.7606 18.531 76.1063 18.4964 76.4751 18.4618C77.9271 18.3696 79.2408 18.8421 80.4509 19.5451C81.5918 20.202 82.6174 21.0202 83.4587 22.0689C81.4881 22.9101 78.0078 21.435 75.4955 18.8191ZM80.1051 24.9384C80.7736 24.5005 81.4996 24.6733 82.1564 24.8231C84.3345 25.3071 86.0055 26.5978 87.3538 28.338C87.5382 28.58 87.7111 28.8335 87.9416 29.1332C85.3486 29.9168 81.6263 27.3354 80.1051 24.9269V24.9384ZM85.7059 34.4919C84.9453 33.8004 84.4152 32.9246 83.7813 32.1294C83.6661 31.9796 83.4932 31.7952 83.6315 31.5878C83.7583 31.3919 83.9888 31.438 84.1962 31.438C85.4984 31.438 86.6624 31.8528 87.7226 32.5789C88.8865 33.374 89.8891 34.3305 90.546 35.5982C90.7419 35.9785 90.9954 36.3473 91.2144 36.7045C91.0185 36.935 90.8111 36.9235 90.5575 36.9004C88.6445 36.6815 87.1003 35.748 85.7059 34.4919ZM85.9248 38.5368C87.0542 38.4446 88.1029 38.6636 89.0363 39.2744C90.6958 40.3461 91.952 41.7866 92.8624 43.5383C92.8163 43.9647 93.185 44.345 93.0698 44.806C92.1824 44.8405 91.4795 44.345 90.6728 44.2643C90.0505 43.6996 89.2668 43.3539 88.6676 42.7201C87.5152 41.487 86.5126 40.1963 85.9363 38.5484L85.9248 38.5368ZM93.5077 53.0457C91.6178 52.4695 90.1657 51.3286 88.9211 49.8189C88.0914 48.8163 87.8148 47.5833 87.3308 46.4424C87.0888 45.8662 87.2732 45.6818 87.8839 45.8316C90.1772 46.4078 91.9289 47.6985 92.9661 49.865C93.404 50.787 93.8534 51.6974 93.9456 52.965C93.9456 53.0342 93.8304 53.1379 93.4962 53.0457H93.5077ZM95.4783 52.7461C95.4553 51.1788 94.7638 49.842 94.0609 48.5167C93.7151 47.8714 93.3118 47.226 92.6434 46.8342C92.6664 46.6959 92.2055 46.3617 92.7356 46.4193C93.3925 46.5 94.0263 46.6268 94.6947 46.5115C95.582 46.6268 96.4348 46.3963 97.2991 46.2695C97.4489 46.2465 97.5527 46.258 97.6564 46.3617C97.7486 46.4654 97.6679 46.5461 97.6218 46.6268C96.5385 48.4361 95.9047 50.3951 95.7318 52.5041C95.7318 52.5963 95.6858 52.7115 95.4783 52.7461ZM101.448 51.1096C100.595 52.3658 99.5002 53.2762 97.9099 53.4375H97.7947C97.7832 53.2877 97.7716 53.1264 97.7601 52.965L97.253 53.0111C97.253 53.0111 97.253 52.9074 97.253 52.8383C97.3337 51.5015 97.6794 50.2108 98.1519 48.9662C98.682 47.5717 99.4657 46.3617 100.653 45.4167C101.114 45.048 101.655 44.8405 102.174 44.5985C102.427 44.4718 102.589 44.6331 102.612 44.852C102.669 45.29 102.669 45.7279 102.692 46.1658C102.831 47.952 102.473 49.6346 101.448 51.1212V51.1096Z" fill="#F2E9D2"/>
</svg>
