<svg width="24" height="24" viewBox="0 0 24 24" fill="none" xmlns="http://www.w3.org/2000/svg">
<g id="Frame 59">
<path id="Vector" d="M1 1.11702C1.12934 1.08191 1.24694 1.0117 1.37628 1.0117C3.45752 1.0117 5.52698 1.0117 7.60822 1.0117C7.67877 1.14042 7.72585 1.26914 7.80816 1.38616C9.325 3.53936 10.8536 5.69255 12.3704 7.84575C12.6526 8.25532 12.9465 8.65319 13.2758 9.09787L20.3897 1C21.0364 1 21.6948 1 22.3415 1L14.1342 10.2798C14.1812 10.3734 14.1929 10.4202 14.2282 10.467C16.3918 13.533 18.5553 16.5989 20.7189 19.6766C21.4949 20.7766 22.2357 21.9 23 23H16.4976C14.5222 20.1915 12.5468 17.383 10.5714 14.5862C10.5478 14.5511 10.5008 14.5277 10.4303 14.4809C9.70124 15.3 8.99572 16.1074 8.27845 16.9149C6.50294 18.9394 4.72745 20.9755 2.95194 23H1.10586C1.16465 22.8947 1.19995 22.766 1.28226 22.684C3.44581 20.2266 5.62108 17.7809 7.78462 15.3234C8.39606 14.6213 9.00749 13.9191 9.61893 13.2287C9.50135 13.0649 9.43082 12.9362 9.34851 12.8192C7.11441 9.64787 4.8803 6.4649 2.64621 3.30532C2.11708 2.56809 1.56441 1.85426 1.01177 1.12872L1 1.11702ZM3.62217 2.41596C4.62164 3.80851 5.52699 5.08404 6.44415 6.34787C9.86584 11.1223 13.3111 15.8851 16.6975 20.683C17.2149 21.4202 17.744 21.7596 18.6259 21.6426C19.1786 21.5723 19.7429 21.6309 20.4014 21.6309C20.225 21.3734 20.1427 21.2447 20.0486 21.116C18.179 18.5064 16.2977 15.8851 14.4281 13.2755C11.9001 9.75319 9.38379 6.23085 6.85573 2.72021C6.76167 2.59149 6.58525 2.43936 6.44415 2.42766C5.55051 2.40426 4.65691 2.41596 3.62217 2.41596Z" fill="white"/>
</g>
</svg>
