<svg width="26" height="27" viewBox="0 0 26 27" fill="none" xmlns="http://www.w3.org/2000/svg">
<g id="&#240;&#159;&#166;&#134; icon &#34;facebook&#34;">
<path id="Vector" d="M18.3979 4.50419C18.3979 4.36384 18.3421 4.22924 18.2429 4.13C18.1436 4.03076 18.009 3.97501 17.8687 3.97501H15.2228C13.8904 3.90864 12.586 4.37231 11.5944 5.26471C10.6029 6.15711 10.0048 7.40569 9.93095 8.73765V11.5952H7.28504C7.14469 11.5952 7.01009 11.651 6.91085 11.7502C6.81161 11.8495 6.75586 11.9841 6.75586 12.1244V14.8762C6.75586 15.0165 6.81161 15.1511 6.91085 15.2504C7.01009 15.3496 7.14469 15.4053 7.28504 15.4053H9.93095V22.4964C9.93095 22.6367 9.98671 22.7713 10.0859 22.8706C10.1852 22.9698 10.3198 23.0256 10.4601 23.0256H13.6352C13.7756 23.0256 13.9102 22.9698 14.0094 22.8706C14.1087 22.7713 14.1644 22.6367 14.1644 22.4964V15.4053H16.9373C17.055 15.407 17.1699 15.3695 17.2638 15.2985C17.3577 15.2276 17.4253 15.1274 17.4559 15.0138L18.218 12.262C18.239 12.1838 18.2418 12.1018 18.2262 12.0224C18.2106 11.9429 18.177 11.8681 18.1279 11.8037C18.0788 11.7393 18.0156 11.687 17.9432 11.6509C17.8707 11.6147 17.7909 11.5957 17.7099 11.5952H14.1644V8.73765C14.1907 8.47568 14.3138 8.23293 14.5095 8.0568C14.7052 7.88067 14.9595 7.7838 15.2228 7.78512H17.8687C18.009 7.78512 18.1436 7.72937 18.2429 7.63013C18.3421 7.53089 18.3979 7.39629 18.3979 7.25594V4.50419Z" fill="#5C3F2D"/>
</g>
</svg>
