<svg width="26" height="27" viewBox="0 0 26 27" fill="none" xmlns="http://www.w3.org/2000/svg">
<g id="&#240;&#159;&#166;&#134; icon &#34;linkedin&#34;">
<g id="Group">
<path id="Vector" d="M16.2422 9.69095C15.431 9.68817 14.6273 9.84536 13.8769 10.1535C13.1265 10.4617 12.4443 10.9148 11.8692 11.4869C11.2942 12.0591 10.8376 12.739 10.5255 13.4877C10.2135 14.2365 10.0522 15.0395 10.0508 15.8506V22.0738C10.0508 22.3265 10.1511 22.5687 10.3298 22.7474C10.5084 22.926 10.7507 23.0264 11.0033 23.0264H13.2259C13.4785 23.0264 13.7208 22.926 13.8994 22.7474C14.078 22.5687 14.1784 22.3265 14.1784 22.0738V15.8506C14.1782 15.5621 14.2388 15.2768 14.3562 15.0133C14.4737 14.7498 14.6454 14.514 14.8601 14.3212C15.0748 14.1285 15.3277 13.9832 15.6023 13.8948C15.8769 13.8063 16.1671 13.7768 16.4539 13.808C16.9683 13.8728 17.441 14.1241 17.7824 14.5143C18.1238 14.9044 18.3101 15.4063 18.306 15.9247V22.0738C18.306 22.3265 18.4064 22.5687 18.585 22.7474C18.7637 22.926 19.0059 23.0264 19.2586 23.0264H21.4811C21.7337 23.0264 21.976 22.926 22.1547 22.7474C22.3333 22.5687 22.4337 22.3265 22.4337 22.0738V15.8506C22.4323 15.0395 22.2709 14.2365 21.9589 13.4877C21.6469 12.739 21.1903 12.0591 20.6152 11.4869C20.0401 10.9148 19.3579 10.4617 18.6075 10.1535C17.8572 9.84536 17.0534 9.68817 16.2422 9.69095Z" fill="#5C3F2D"/>
<path id="Vector_2" d="M7.19293 10.6431H4.33534C3.80927 10.6431 3.38281 11.0695 3.38281 11.5956V22.0734C3.38281 22.5995 3.80927 23.0259 4.33534 23.0259H7.19293C7.71899 23.0259 8.14545 22.5995 8.14545 22.0734V11.5956C8.14545 11.0695 7.71899 10.6431 7.19293 10.6431Z" fill="#5C3F2D"/>
<path id="Vector_3" d="M5.76413 8.73774C7.0793 8.73774 8.14545 7.67159 8.14545 6.35642C8.14545 5.04125 7.0793 3.9751 5.76413 3.9751C4.44897 3.9751 3.38281 5.04125 3.38281 6.35642C3.38281 7.67159 4.44897 8.73774 5.76413 8.73774Z" fill="#5C3F2D"/>
</g>
</g>
</svg>
