<svg width="204" height="49" viewBox="0 0 204 49" fill="none" xmlns="http://www.w3.org/2000/svg">
<g id="Group 1">
<g id="Group">
<path id="Vector" d="M16.5587 22.479C14.6128 22.479 13.0332 24.0748 13.0332 26.0371C13.0332 27.9993 14.6128 29.5952 16.5587 29.5952C18.5047 29.5952 20.0842 27.9993 20.0842 26.0371C20.0842 24.0748 18.5047 22.479 16.5587 22.479ZM16.5587 28.5937C15.1583 28.5937 14.0265 27.4457 14.0265 26.0371C14.0265 24.6285 15.1664 23.4805 16.5587 23.4805C17.951 23.4805 19.0909 24.6285 19.0909 26.0371C19.0909 27.4457 17.951 28.5937 16.5587 28.5937Z" fill="#5C3F2D"/>
<path id="Vector_2" d="M46.7586 19.5148C46.6935 19.1566 46.5469 19.0507 46.1886 19.1403C45.9118 19.2136 45.6268 19.2624 45.3419 19.3683C45.5047 19.067 45.6024 18.7658 45.6757 18.4482C45.9525 17.3409 45.7734 16.2743 45.4233 15.224C45.2849 14.8006 45.1383 14.7517 44.7394 14.9634C44.5439 15.0611 44.2753 15.3624 44.0391 15.338C44.0391 15.281 44.0554 15.2484 44.1206 15.0856C44.6009 13.8398 44.1857 12.6104 43.5995 11.4786C43.2086 10.7296 43.0051 10.7214 42.37 11.3158C42.2153 11.2669 42.3049 11.1204 42.2479 11.0308C42.2479 10.583 42.2072 10.127 42.0606 9.7118C41.7431 8.82431 41.3034 7.99382 40.6765 7.27732C40.5625 7.14705 40.4729 7.15519 40.3671 7.24475C40.1635 7.42388 39.9681 7.603 39.8134 7.8147C39.7239 7.79027 39.7157 7.74142 39.7076 7.70071C39.6669 7.22032 39.5284 6.75623 39.3086 6.33284C38.9422 5.61634 38.4537 4.98126 37.8512 4.45202C37.1835 3.85765 36.4507 3.3447 35.7424 2.81547C34.4722 1.86285 33.0881 1.08935 31.6632 0.405419C31.5085 0.33214 31.3538 0.29143 31.1747 0.307714C30.9793 0.323998 30.8653 0.429845 30.8083 0.600829C30.7513 0.779954 30.8653 0.893943 30.9793 0.991647C31.0607 1.05678 31.1584 1.10564 31.2561 1.15449C32.2332 1.63487 33.1858 2.1641 34.0977 2.76662C34.9282 3.32028 35.7424 3.90651 36.4914 4.57415C36.581 4.65558 36.6869 4.71257 36.6461 4.87541C36.5322 5.26623 36.5403 5.67333 36.5729 6.17C36.1251 5.47792 35.6772 4.92426 35.1154 4.46831C34.2361 3.73552 33.259 3.23071 32.1273 3.04345C31.8098 2.99459 31.5492 2.8399 31.305 2.66077C30.0267 1.69186 28.6262 0.918369 27.1851 0.234436C27.0222 0.153015 26.8594 0.153015 26.6966 0.161157C26.5174 0.177441 26.436 0.299572 26.379 0.454271C26.3139 0.600829 26.4197 0.698533 26.493 0.779954C26.5826 0.885801 26.7128 0.942795 26.835 1.00793C28.3087 1.71629 29.6847 2.57121 30.9956 3.54011C31.248 3.72738 31.4597 3.93907 31.6388 4.19962C32.4693 5.3965 33.487 6.40612 34.7083 7.20404C34.7653 7.23661 34.9119 7.24475 34.8386 7.40759C34.6269 7.41573 34.4071 7.39131 34.1791 7.42388C34.0163 7.4483 33.8534 7.39131 33.6906 7.26918C33.1858 6.91093 32.7217 6.51197 32.225 6.14557C30.9223 5.20109 29.5381 4.41131 28.097 3.72738C27.9341 3.64596 27.7713 3.64596 27.6085 3.66224C27.4293 3.67853 27.3561 3.8088 27.2909 3.9635C27.2339 4.11006 27.3316 4.19962 27.4131 4.28918C27.5189 4.40317 27.6573 4.46017 27.7957 4.53344C29.5626 5.40464 31.2317 6.43869 32.738 7.72513C32.8764 7.84726 33.1044 7.93683 32.9252 8.20551C32.8845 8.26251 32.9578 8.30322 33.0066 8.34393C33.5277 8.86502 34.0488 9.38611 34.6595 9.79322C34.977 10.0049 35.3271 10.1515 35.6691 10.3225C35.5633 10.4934 35.3841 10.4934 35.2701 10.583C35.0259 10.7703 35.0015 10.9005 35.205 11.1529C35.2539 11.2099 35.3109 11.2669 35.3516 11.3321C35.8319 12.0893 36.4589 12.6836 37.2242 13.1396C37.2975 13.1803 37.4115 13.1885 37.3952 13.3187C37.3464 13.3676 37.2894 13.3676 37.2242 13.3839C36.7113 13.4734 36.581 13.7014 36.8008 14.1492C37.2242 14.996 37.7698 15.7532 38.5432 16.3232C38.6002 16.3639 38.6898 16.3883 38.641 16.486C38.413 16.5186 38.1931 16.5511 37.9733 16.5918C37.8186 16.6244 37.7616 16.6895 37.7779 16.885C37.8186 17.2513 38.6002 18.7658 38.6979 18.8879C38.9178 19.1566 39.1458 19.4253 39.3656 19.694C39.1539 19.7917 38.9178 19.694 38.6979 19.751C38.3885 19.8405 38.3071 19.8975 38.3885 20.1906C38.4618 20.4512 38.6491 21.4282 38.7468 21.6481C38.9992 22.1854 39.3086 22.674 39.6994 23.1136C40.4403 23.9441 41.3441 24.4815 42.4514 24.6443C42.655 24.6769 42.8585 24.6443 43.0702 24.6769C43.0784 24.6769 43.0865 24.6769 43.1028 24.6769C43.5343 31.3045 41.9711 36.7109 38.4293 40.733C36.7683 42.622 34.7979 44.0469 32.8031 45.1053C34.1058 43.7375 35.1806 41.8567 35.7994 39.2675C35.9704 39.3163 36.1495 39.3489 36.353 39.3733C36.6136 39.3978 36.8823 39.357 37.1265 39.2512C37.3952 39.1291 38.0059 38.8115 38.1524 38.7138C39.2842 37.981 39.675 36.7109 39.8704 35.4244C40.0007 34.5695 39.8297 34.4392 38.9504 34.5451C38.8526 34.4148 39.0155 34.3415 39.0236 34.2357C39.3005 33.8693 39.5284 33.4703 39.6506 33.0307C39.9193 32.1025 40.0495 31.158 39.9518 30.1891C39.9355 30.0181 39.8623 29.9611 39.7239 29.9774C39.447 30.0018 39.1783 30.0344 38.9341 30.1077C38.8689 30.0344 38.8934 29.9855 38.9178 29.953C39.1702 29.5296 39.333 29.0736 39.4063 28.5851C39.5284 27.7709 39.504 26.9567 39.3249 26.1506C39.1295 25.255 38.8282 24.3919 38.5595 23.5207C38.0792 21.9575 37.3952 20.4919 36.6299 19.0589C36.5484 18.9042 36.4426 18.7739 36.2879 18.6843C36.1169 18.5785 35.9622 18.5948 35.8075 18.7088C35.6528 18.8228 35.6854 18.9856 35.718 19.1322C35.7424 19.238 35.7994 19.3357 35.8482 19.4334C36.3693 20.4186 36.8416 21.4364 37.2324 22.4867C37.5906 23.4475 37.9082 24.4245 38.1199 25.426C38.1443 25.54 38.2013 25.6621 38.0629 25.7679C37.7372 26.0203 37.5011 26.3623 37.2324 26.7938C37.2731 25.9552 37.2324 25.2306 37.0533 24.5059C36.7601 23.3742 36.2635 22.3564 35.4411 21.5178C35.2131 21.2817 35.0829 20.9967 34.9933 20.7036C34.5211 19.124 33.8209 17.6422 33.0392 16.201C32.9497 16.0382 32.8275 15.9323 32.6728 15.8428C32.5181 15.7451 32.3797 15.8021 32.2332 15.8916C32.0947 15.973 32.1273 16.1115 32.1354 16.2336C32.1436 16.372 32.2169 16.5023 32.282 16.6325C33.0718 18.1063 33.6987 19.6533 34.2035 21.2491C34.3012 21.5504 34.3501 21.8516 34.3419 22.1773C34.3094 23.6673 34.5455 25.1166 35.0829 26.517C35.1073 26.5821 35.2294 26.6717 35.0747 26.7613C34.8956 26.6391 34.7246 26.4844 34.5211 26.3786C34.3745 26.2972 34.2768 26.1506 34.2035 25.9552C34 25.3527 33.8534 24.742 33.658 24.1395C33.1532 22.5681 32.4774 21.0863 31.6958 19.637C31.6062 19.4741 31.4759 19.3764 31.3294 19.2869C31.1747 19.1973 31.0363 19.2543 30.8897 19.3439C30.7513 19.4334 30.7839 19.5718 30.792 19.6858C30.8083 19.8405 30.8897 19.9789 30.963 20.1174C31.8993 21.9086 32.6647 23.7731 33.1288 25.7435C33.1695 25.9308 33.3079 26.1425 32.9985 26.2483C32.9334 26.2727 32.9741 26.346 32.9822 26.4112C33.0962 27.1521 33.2183 27.9012 33.487 28.6095C33.6254 28.9759 33.8209 29.3097 34.0081 29.6598C33.8209 29.7413 33.6743 29.6273 33.5196 29.6273C33.2021 29.6273 33.1125 29.725 33.1206 30.0588C33.1206 30.1402 33.1369 30.2135 33.1288 30.2949C33.0799 31.2068 33.2428 32.078 33.5929 32.9167C33.6254 32.9981 33.715 33.0714 33.6254 33.1691C33.5603 33.1772 33.5033 33.1446 33.4463 33.1202C32.9741 32.8841 32.7298 32.9899 32.6484 33.4948C32.4937 34.4555 32.396 35.457 32.6891 36.3933C32.8275 36.8411 33.4382 37.8508 33.9186 38.2579C34.0651 38.3881 34.2198 38.5103 34.3664 38.6324C34.5374 38.722 34.7246 38.8278 34.92 38.9418C34.2117 42.0276 32.8194 44.0469 31.1747 45.3659C31.1747 45.3577 31.1747 45.3415 31.1747 45.3333L32.111 27.2009C32.1843 25.7517 31.5818 24.3187 30.4907 23.3742L28.7158 22.1122L28.6914 22.0959V22.0714C28.7891 21.8353 28.8786 21.5911 28.9356 21.3224C29.3183 19.6288 29.3102 18.1633 28.9112 16.4371L28.8623 14.6785C28.8623 14.0108 28.325 13.4653 27.6573 13.4653H25.2391C24.5796 13.4653 24.0341 14.0108 24.0341 14.6866V16.5023C23.8957 17.2269 23.7736 17.8946 23.7084 18.5459C23.6758 18.5378 23.6514 18.5215 23.6189 18.5052C22.8372 18.2121 22.1858 17.9923 21.5833 17.8213C21.8276 17.5526 22.0393 17.2595 22.2021 16.9419C22.4708 16.4127 22.6011 15.8428 22.5848 15.2484C22.5522 13.6526 21.4693 12.1951 20.0038 11.788C19.6781 11.6985 19.3606 11.6415 19.043 11.6089L18.123 4.15077C17.9927 3.11673 17.4227 2.19667 16.5597 1.63487C15.6966 1.07307 14.63 0.926511 13.6448 1.23591L2.57976 4.66372C1.1549 5.11967 0.0638666 5.63262 0.0882928 7.603V33.3238L0.112719 33.4052C0.210424 33.6902 2.57162 40.4399 9.0527 45.0972C12.4887 47.5642 16.9668 48.8425 21.5589 48.8425C22.2917 48.8425 23.0245 48.81 23.7573 48.7448C24.9867 48.6716 26.5174 48.4843 28.097 47.9713C29.0822 47.7027 30.0511 47.3688 30.9956 46.9699L30.9793 46.9373C33.7883 45.7811 36.7357 43.998 39.0888 41.3193C42.7771 37.1261 44.4218 31.5325 43.9984 24.6932C44.4625 24.6525 44.9103 24.4896 45.3174 24.1965C46.2538 23.5044 46.6853 22.5274 46.8482 21.3957C46.9377 20.7606 46.8644 20.1336 46.7586 19.5148ZM37.1917 35.343C36.4915 36.0269 36.0192 36.8004 35.5714 37.5984C35.7098 36.6376 35.5388 35.742 35.2294 34.8626C35.8727 35.0662 36.4589 35.343 37.1917 35.3511V35.343ZM35.6365 31.0359C36.2553 31.2801 36.8334 31.2313 37.4685 31.2394C37.0125 31.964 36.6706 32.705 36.3937 33.4866C36.3368 32.6154 36.0599 31.8419 35.6365 31.044V31.0359ZM39.0969 35.2616C39.162 35.3511 39.1376 35.4407 39.1213 35.5303C38.9178 36.4422 38.5921 37.2971 37.9082 37.9729C37.4685 38.4044 36.9474 38.5917 36.3449 38.5673C36.0762 38.5591 36.0192 38.4777 36.1251 38.2497C36.5566 37.3052 37.0451 36.4015 37.8675 35.7338C38.2013 35.4651 38.6247 35.2942 39.0969 35.2534V35.2616ZM39.1946 30.7427C39.2272 30.8323 39.276 30.9137 39.2679 30.987C39.1702 31.7849 39.1132 32.5991 38.7224 33.3238C38.5107 33.7146 38.2583 34.0728 37.8837 34.3252C37.6232 34.5044 37.3301 34.6102 36.9311 34.5858C37.151 33.3971 37.5336 32.3142 38.2746 31.3941C38.5188 31.0928 38.8282 30.8893 39.1946 30.7509V30.7427ZM37.1917 30.1077C37.2487 29.6354 37.2975 29.1632 37.3871 28.6991C37.5173 28.0477 37.6639 27.4045 38.0222 26.8345C38.1524 26.6229 38.2908 26.4112 38.5677 26.2972C38.7387 26.6229 38.7061 26.9485 38.7224 27.2498C38.7712 28.1047 38.6735 28.9433 38.2176 29.7006C38.0547 29.9692 37.8512 30.1728 37.5988 30.3356C37.5011 30.4008 37.3871 30.5229 37.2649 30.4496C37.1347 30.3763 37.1754 30.2298 37.1917 30.1077ZM37.094 27.2742C36.9881 27.9419 36.8416 28.5688 36.6461 29.212C36.4996 28.7317 36.3693 28.2513 36.0192 27.7383C36.638 28.0396 36.7357 27.4533 37.094 27.2742ZM35.0503 22.2424C36.1332 23.0811 36.809 25.6947 36.2716 27.0707C35.3353 25.5562 35.0422 23.9523 35.0503 22.2424ZM33.829 26.8997C34.0081 26.8671 34.1465 26.9404 34.285 27.0381C34.8468 27.3964 35.205 27.9337 35.4655 28.52C35.7098 29.0736 35.8645 29.6598 35.8971 30.2786C34.9445 30.0588 34.0488 28.5525 33.829 26.8915V26.8997ZM33.8778 30.4415C34.2442 30.4578 34.4641 30.7183 34.6676 30.9626C35.3434 31.7361 35.6121 32.6724 35.6365 33.6902C35.6365 33.8286 35.6365 33.9751 35.6365 34.1461C34.4641 33.7309 33.7883 31.7524 33.8697 30.4415H33.8778ZM34.863 37.2727C34.8305 37.4681 34.8305 37.6716 34.8142 37.867C34.6839 37.8996 34.6025 37.8426 34.5211 37.7612C33.8778 37.1587 33.5522 36.3852 33.373 35.5384C33.2753 35.0743 33.316 34.6021 33.2998 34.1298C33.2998 34.0403 33.2835 33.9263 33.3893 33.8856C33.4952 33.8449 33.5603 33.9263 33.6336 33.9833C34.114 34.3334 34.4315 34.8056 34.6269 35.3756C34.8386 35.9944 34.9526 36.6213 34.8549 37.2727H34.863ZM14.9638 35.8397C15.0371 35.8234 15.1104 35.8071 15.1918 35.7908H15.2325V35.7827C15.3221 35.7664 15.4198 35.742 15.5094 35.7257C15.8432 35.6687 16.2177 35.6198 16.6655 35.571C17.838 35.4651 19.0267 35.4244 20.2073 35.4489C20.5819 35.457 20.9971 35.4814 21.4856 35.4977C21.8195 35.514 22.1533 35.5384 22.4871 35.571C22.7558 35.5954 23.1466 35.6524 23.4072 35.6931C23.6026 35.7257 23.7817 35.7582 23.9283 35.7908C24.0911 35.8315 24.3028 35.8885 24.5063 35.9455C24.5796 35.9699 24.6448 35.9944 24.7099 36.0188C24.4493 36.1246 24.1807 36.2142 23.9201 36.2793C23.5537 36.3689 23.1466 36.4503 22.6988 36.5155C20.6307 36.7923 18.5382 36.7923 16.4783 36.5155C16.0223 36.4503 15.6152 36.3689 15.2488 36.2793C14.972 36.2061 14.6952 36.1165 14.4427 36.0107C14.5405 35.9699 14.6707 35.9211 14.8336 35.8804C14.8743 35.8722 14.915 35.856 14.9638 35.8478V35.8397ZM30.6617 36.4259H25.98V36.3119C25.98 36.2549 25.98 36.1979 25.98 36.1409V36.1246C25.98 36.0514 25.9719 35.9781 25.9475 35.9129C25.9475 35.8885 25.9393 35.8641 25.9312 35.8397C25.9312 35.8397 25.9312 35.8234 25.9231 35.8152C25.9068 35.7745 25.8905 35.742 25.8742 35.7013C25.8579 35.6687 25.8335 35.6361 25.8091 35.6035C25.7928 35.5873 25.7846 35.571 25.7684 35.5547C25.7602 35.5466 25.7521 35.5303 25.7358 35.5221C25.3775 35.1232 24.7262 34.9603 24.4331 34.887C24.3598 34.8626 24.2539 34.8382 24.1237 34.8138C24.0015 34.7812 23.8957 34.7568 23.8061 34.7486C23.798 34.7486 23.6921 34.7323 23.5456 34.7079C23.057 34.6265 22.5034 34.5532 22.194 34.5369L21.9823 30.702L26.379 28.1943L30.9467 30.7997L30.6536 36.434L30.6617 36.4259ZM24.9949 45.4066C24.9949 45.6671 24.9053 45.9195 24.7343 46.115L24.2214 46.7093C24.2214 46.7093 24.1481 46.7907 24.1318 46.7989C24.0748 46.8315 24.0178 46.864 23.9527 46.8884C23.8468 46.9292 23.7491 46.9617 23.6433 46.9862C23.513 47.0187 23.3746 47.0513 23.2117 47.0839C22.8616 47.1571 22.479 47.206 22.0067 47.2548C21.3065 47.3363 20.4679 47.377 19.5804 47.377C18.6929 47.377 17.8868 47.3363 17.1459 47.263C16.69 47.2223 16.3073 47.1653 15.949 47.092C15.8188 47.0676 15.1511 46.8559 15.0045 46.7907C14.9964 46.7907 14.9801 46.7745 14.972 46.7582L14.9313 46.7093C14.9313 46.7093 14.6463 46.4081 14.402 46.1312C14.2473 45.9521 14.1578 45.7241 14.1578 45.4799V40.1631C14.459 40.2852 14.7603 40.3911 15.0615 40.4644C15.4524 40.5621 15.8758 40.6435 16.3643 40.7168C17.0319 40.8063 17.6996 40.8633 18.3754 40.8959C18.2288 40.9122 18.0904 40.9692 17.9683 41.0587L15.7373 42.7767C15.3709 43.0617 15.2977 43.5991 15.5826 43.9736L17.2843 46.2208C17.4472 46.4406 17.6996 46.5546 17.952 46.5546C18.1311 46.5546 18.3102 46.4976 18.4649 46.3836L20.6959 44.6657C20.875 44.5273 20.989 44.3237 21.0215 44.1039C21.0541 43.8759 20.989 43.6561 20.8587 43.4769L20.6959 43.2652L22.4871 43.4851C22.4871 43.4851 22.5604 43.4851 22.593 43.4851C22.7802 43.4851 22.9593 43.4199 23.114 43.3059C23.2932 43.1675 23.4072 42.964 23.4316 42.736L23.7003 40.5539C23.8387 40.5214 23.9771 40.4969 24.1074 40.4644C24.4086 40.3911 24.7099 40.2852 25.0111 40.1631V45.3985L24.9949 45.4066ZM15.0127 37.2401C15.4117 37.3378 15.8432 37.4274 16.3398 37.5007C17.4146 37.6472 18.4975 37.7205 19.5804 37.7205C20.6633 37.7205 21.7543 37.6472 22.8291 37.5007C23.3176 37.4274 23.7491 37.346 24.1562 37.2401C24.4331 37.1668 24.718 37.0773 24.9949 36.9633V39.6257C24.9949 39.6257 24.9216 39.6583 24.8809 39.6827C24.5796 39.813 24.2784 39.9107 23.9771 39.9921C23.9038 40.0084 23.8305 40.0247 23.7573 40.041V39.9433C23.8224 39.4792 23.4967 39.0558 23.0326 38.9988L20.248 38.6568C20.0282 38.6324 19.8002 38.6894 19.6292 38.8278C19.4501 38.9662 19.3361 39.1698 19.3117 39.3978L19.1814 40.4481C18.2614 40.4318 17.3495 40.3667 16.4376 40.2445C15.9653 40.1712 15.5582 40.098 15.1837 40.0003C14.8824 39.927 14.573 39.8211 14.288 39.699C14.2555 39.6827 14.2148 39.6583 14.1659 39.6339V36.9796C14.4427 37.0935 14.7277 37.1831 15.0127 37.2564V37.2401ZM18.6603 40.9203C18.815 40.9203 18.9697 40.9285 19.1163 40.9285L19.0837 41.1646C18.9697 41.0424 18.8232 40.9529 18.6522 40.9203H18.6603ZM19.9712 43.9654L17.9764 45.5043L16.4538 43.4932L18.4486 41.9544L19.9712 43.9654ZM20.1178 40.9285C20.9727 40.9122 21.8195 40.847 22.6662 40.733L22.4545 42.4755L19.9631 42.1661L20.1096 40.9285H20.1178ZM22.7232 40.2282C21.8764 40.3422 21.0297 40.4074 20.1748 40.4318L20.2725 39.6583L22.7639 39.9677L22.7314 40.2282H22.7232ZM29.0659 46.6279C27.6492 47.1001 26.1755 47.4258 24.6855 47.6131C24.7913 47.5398 24.8972 47.434 24.9542 47.3688L25.4752 46.7663C25.8009 46.3836 25.98 45.9033 25.98 45.3985V37.4192H30.6047L30.1976 45.2438C30.1976 45.2438 30.1976 45.2275 30.2139 45.2275V46.0091C29.8394 46.2452 29.4486 46.4488 29.0659 46.6198V46.6279ZM25.2554 14.4179H27.6736C27.7876 14.4179 27.8853 14.5156 27.8853 14.6459L27.926 15.9975H25.0519V14.6296C25.0437 14.5075 25.1414 14.4179 25.2554 14.4179ZM24.6448 22.9508C25.4345 22.4867 25.1903 21.876 25.0926 21.6481L25.0193 21.4689C24.8809 21.1188 24.7262 20.7117 24.6936 20.3942C24.5796 19.3194 24.718 18.2447 24.9623 16.9989H28.04C28.325 18.4075 28.3087 19.6451 27.983 21.0537C27.9341 21.2572 27.8609 21.4608 27.7794 21.6806L27.7387 21.7946C27.6166 22.1203 27.6736 22.5844 28.1703 22.8938L29.8801 24.107C30.7269 24.856 31.1991 25.9715 31.1421 27.1032L31.0118 29.6598L26.8757 27.2986C26.5744 27.1277 26.1999 27.1277 25.8986 27.2986L21.9334 29.5621L21.795 27.1032C21.738 25.9715 22.2021 24.8479 23.057 24.0988L24.6529 22.9508H24.6448ZM23.6677 19.5474C23.6677 19.8649 23.6758 20.1825 23.7166 20.5C23.7654 20.956 23.9527 21.4445 24.1074 21.8353L24.1888 22.0307C24.1888 22.0307 24.1969 22.047 24.2051 22.0633C24.1888 22.0714 24.1725 22.0796 24.1481 22.0959L22.4708 23.309L22.4383 23.3335C21.3472 24.2779 20.7447 25.7109 20.818 27.1602L21.0948 32.2572C16.0549 29.6028 9.9809 29.2365 4.02905 31.1987C4.02905 31.1824 4.01277 31.1661 4.00462 31.1498C3.49982 30.0018 3.06015 27.8523 3.27184 26.9078C3.46725 26.0122 3.73594 25.2631 4.08605 24.6199C4.46058 23.9197 4.8514 23.309 5.28293 22.7472C5.78774 22.0877 6.39839 21.4852 7.22074 20.8501C7.7174 20.4593 8.27921 20.1418 8.81658 19.8487C9.27254 19.6044 9.80177 19.3276 10.3473 19.1484C11.1778 18.8798 11.992 18.6762 12.9853 18.4401C13.0423 18.4238 13.1074 18.4157 13.1726 18.4075C13.368 18.3912 13.5634 18.3668 13.7588 18.3505C14.1822 18.3017 14.5812 18.261 14.9801 18.2447C16.0467 18.1958 16.8528 18.1795 17.61 18.204C18.0985 18.2121 18.5871 18.2691 19.1 18.3261C19.1814 18.3342 19.271 18.3424 19.3524 18.3505C19.6292 18.4157 19.9061 18.4564 20.1748 18.4971C20.5086 18.5459 20.818 18.5948 21.1192 18.6762C21.7625 18.8472 22.4545 19.0752 23.3176 19.4008C23.4397 19.4497 23.57 19.4986 23.6921 19.5555L23.6677 19.5474ZM3.27184 9.89906V9.67923C3.30441 8.17295 3.3614 7.67628 4.35473 7.37502L14.1578 4.38689C14.4672 4.28918 14.7929 4.36246 15.0371 4.57415C15.2814 4.78585 15.4035 5.09525 15.3547 5.42907L14.4835 11.5519C14.3939 11.5519 14.2962 11.5519 14.2066 11.5519C13.9135 11.5519 13.539 11.56 13.1889 11.674C11.9676 12.0567 11.1615 12.7651 10.73 13.8561C10.5183 14.3853 10.4206 14.882 10.4369 15.3624C10.4694 16.2824 10.8032 17.1048 11.4383 17.7969C10.9661 17.919 10.4857 18.0574 10.0135 18.2121C9.39467 18.4075 8.80844 18.7169 8.31992 18.9856C7.74997 19.295 7.14746 19.637 6.5938 20.0766C5.70632 20.7687 5.03867 21.4282 4.48501 22.1529C4.04534 22.7228 3.64637 23.3416 3.27184 24.0337V9.89906ZM21.624 15.224C21.6322 15.6555 21.5426 16.0545 21.3472 16.4453C21.1518 16.828 20.875 17.1699 20.4842 17.4793C20.3539 17.4712 20.2318 17.4549 20.1096 17.4386C19.9875 17.4223 19.8735 17.406 19.7514 17.3979C19.6618 17.3898 19.5722 17.3816 19.4745 17.3735C18.9697 17.2595 18.4649 17.2351 17.9845 17.2106C17.7891 17.2025 17.5937 17.1944 17.3983 17.1781C16.4945 17.1048 15.6152 17.1699 14.7684 17.2351L14.5812 17.2513C14.4265 17.2595 14.2636 17.2758 14.1089 17.2921C14.0031 17.3083 13.9054 17.3165 13.7995 17.3328C13.5308 17.3653 13.2459 17.3979 12.9609 17.4549C12.9528 17.4549 12.9446 17.4549 12.9365 17.4549H12.8306C12.5864 17.4875 12.5375 17.4875 12.4561 17.4142C11.7966 16.828 11.4628 16.1603 11.4383 15.3542C11.4302 15.0123 11.4953 14.654 11.6582 14.2551C11.9757 13.4571 12.5619 12.9523 13.4901 12.6592C13.71 12.5941 13.9868 12.5859 14.2311 12.5778C14.7684 12.5697 15.3058 12.5778 15.8432 12.5778H18.6278C19.0023 12.5778 19.3768 12.6348 19.7595 12.7406C20.8098 13.0338 21.5915 14.0922 21.6159 15.2565L21.624 15.224ZM2.87288 5.61634L13.9624 2.13968C14.6707 1.91984 15.4279 2.02569 16.0467 2.42465C16.6655 2.83175 17.0726 3.48312 17.1622 4.22405L18.066 11.5438H16.4945H15.8432C15.7211 11.5438 15.6071 11.5438 15.4849 11.5438L16.3317 5.56749C16.4294 4.90798 16.1851 4.24847 15.6803 3.81694C15.1755 3.38541 14.4997 3.23886 13.8647 3.42612L4.06162 6.41426C2.32736 6.94349 2.30293 8.20551 2.27851 9.6548V9.88278V26.7613C2.03425 28.0233 2.56348 30.3519 3.06829 31.5244C2.71818 31.6547 2.36807 31.7931 2.01796 31.9396C1.74113 32.0455 1.41545 32.192 1.07348 32.3793V7.603C1.0572 6.38169 1.43988 6.08044 2.87288 5.62448V5.61634ZM1.19561 33.454C1.55386 33.2424 1.97725 33.0225 2.35993 32.8841C2.38435 32.876 2.40064 32.8678 2.40878 32.8678C8.90615 30.1402 15.7048 30.3519 21.1437 33.4378L21.2007 34.4718C20.8831 34.4555 20.5574 34.4474 20.2399 34.4392C19.1244 34.4067 18.3102 34.4148 16.8284 34.5369C15.9409 34.6184 15.2651 34.7405 14.9964 34.8056C14.8987 34.8301 14.801 34.8463 14.7033 34.8708C14.6463 34.8871 14.5974 34.9033 14.5405 34.9115C14.4753 34.9278 14.4102 34.944 14.3369 34.9685C14.3369 34.9685 14.0845 35.058 13.9705 35.1069C13.8565 35.1557 13.7507 35.2209 13.6611 35.2779C13.5634 35.343 13.482 35.4163 13.4168 35.4977C13.4087 35.514 13.3924 35.5221 13.3843 35.5384C13.3843 35.5384 13.368 35.5547 13.368 35.5628C13.368 35.571 13.3517 35.5873 13.3517 35.5954C13.3354 35.6198 13.3191 35.6443 13.3029 35.6687C13.2052 35.8315 13.1807 35.9699 13.1807 36.0839V36.1165V45.488C13.1807 45.773 13.2459 46.0498 13.3517 46.3022C12.0083 45.773 10.7544 45.1053 9.63893 44.2993C4.27331 40.4399 1.79813 34.944 1.2119 33.4703L1.19561 33.454ZM43.6727 17.1211C43.6727 17.0397 44.0391 16.3964 44.3567 15.973C44.487 15.8346 44.5684 15.7695 44.6742 15.7532C44.7719 15.7369 44.8778 15.8021 44.9103 15.8998C45.0325 16.258 45.0813 16.5756 45.1383 16.9582C45.179 17.2839 45.1139 17.7073 45.0162 18.0248C44.8533 18.8879 44.5195 19.6288 43.632 19.9627C43.3633 20.0685 43.3633 20.0685 43.2494 19.7591C43.2005 18.4727 43.4285 17.6015 43.6727 17.1292V17.1211ZM42.2072 12.9035C42.3212 12.4964 42.5491 12.1137 42.9074 11.8043C43.0132 11.8369 43.0458 11.9183 43.0784 12.0079C43.4448 12.8546 43.6646 13.7177 43.5099 14.654C43.4122 15.2484 43.1028 15.7044 42.6143 16.0382C42.3944 16.1929 42.313 16.1603 42.256 15.916C42.0525 14.9146 41.9222 13.9131 42.199 12.9035H42.2072ZM40.9126 17.2269C41.6291 17.1048 42.2479 16.9908 42.9155 16.8768C42.6306 17.7806 42.5329 18.6843 42.5491 19.6207C42.2479 18.6843 41.6779 17.9353 40.9126 17.2269ZM42.0199 20.6954C42.0199 20.6954 41.9873 20.7199 41.9711 20.728C41.9711 20.728 42.0036 20.7036 42.0199 20.6954ZM40.0495 9.22327C40.074 8.84874 40.1961 8.49863 40.4078 8.17295C40.4811 8.22994 40.5706 8.26251 40.6032 8.3195C40.9859 9.00344 41.4011 9.67923 41.507 10.4853C41.564 10.9168 41.564 11.3565 41.4174 11.7717C41.3116 12.0649 41.1406 12.3254 40.8149 12.5371C40.3101 11.4705 39.9925 10.3876 40.0577 9.22327H40.0495ZM41.4581 12.9849C41.2953 13.9294 41.3604 14.825 41.4581 15.7125C41.0184 14.8739 40.3752 14.2551 39.618 13.7421C40.2449 13.5304 40.8719 13.4002 41.45 12.9849H41.4581ZM39.3249 9.57338C39.3819 10.412 39.5366 11.2018 39.7564 11.9834C39.219 11.3239 38.5514 10.8761 37.7616 10.4853C38.3885 10.3225 38.8201 9.93977 39.3249 9.57338ZM37.3789 5.02197C37.7046 5.17667 37.8593 5.4535 38.0466 5.68962C38.5758 6.34098 38.9748 7.05748 39.0481 7.92868C39.0725 8.22994 39.0318 8.51491 38.9178 8.79174C38.8771 8.90573 38.8526 9.06043 38.7142 9.07672C38.5758 9.093 38.5107 8.95458 38.4537 8.84874C38.2338 8.44163 37.9977 8.04267 37.8023 7.61929C37.5336 7.03306 37.2812 6.43054 37.2405 5.77104C37.2242 5.52678 37.208 5.28251 37.3626 5.03011L37.3789 5.02197ZM36.7601 6.65852C37.0614 7.24475 37.2975 7.83912 37.5092 8.45792C37.1184 8.15666 36.7357 7.85541 36.1739 7.65185C36.8334 7.52972 36.5729 7.00863 36.7601 6.65852ZM32.2576 3.8658C33.5929 3.89836 35.6284 5.56749 35.9866 6.97606C34.3827 6.3247 33.2346 5.22552 32.2576 3.8658ZM33.9511 8.27065C34.0733 8.14038 34.228 8.12409 34.3908 8.10781C35.0422 8.0671 35.6284 8.27879 36.1739 8.59633C36.6869 8.88945 37.1428 9.26398 37.5255 9.73622C36.638 10.1189 35.0747 9.45125 33.9511 8.26251V8.27065ZM36.0192 11.0471C36.3205 10.8435 36.6461 10.925 36.9393 10.9982C37.9163 11.2181 38.6654 11.8043 39.2679 12.5941C39.3493 12.6999 39.4307 12.8139 39.5284 12.9605C38.3641 13.3106 36.695 12.1463 36.0111 11.0552L36.0192 11.0471ZM38.5351 15.3787C38.1931 15.0693 37.957 14.6703 37.6721 14.3121C37.6232 14.2469 37.5418 14.1655 37.6069 14.0678C37.6639 13.9782 37.7698 14.0027 37.8593 13.9945C38.4455 13.9945 38.9666 14.1818 39.447 14.5156C39.9681 14.882 40.4159 15.3135 40.7172 15.8835C40.8067 16.0545 40.9207 16.2254 41.0184 16.3883C40.9289 16.4941 40.8393 16.486 40.7253 16.4778C39.8704 16.3801 39.1702 15.9568 38.5432 15.3868L38.5351 15.3787ZM38.6328 17.2188C39.1376 17.1781 39.6099 17.2758 40.0251 17.5526C40.766 18.0411 41.336 18.6925 41.7431 19.4904C41.7268 19.6858 41.8896 19.8568 41.8326 20.0685C41.4337 20.0848 41.1161 19.8568 40.7579 19.8242C40.4729 19.5637 40.1228 19.409 39.8541 19.124C39.3412 18.5704 38.8852 17.976 38.6247 17.2269L38.6328 17.2188ZM42.0362 23.7976C41.1894 23.537 40.5299 23.0159 39.9763 22.332C39.6017 21.876 39.4796 21.3142 39.2598 20.8013C39.1458 20.5407 39.2353 20.4593 39.5122 20.5245C40.5462 20.785 41.3278 21.3712 41.7919 22.3564C41.9873 22.7717 42.1909 23.1869 42.2316 23.7569C42.2316 23.7894 42.1828 23.8383 42.028 23.7894L42.0362 23.7976ZM42.9237 23.6673C42.9155 22.9589 42.6061 22.3483 42.2886 21.7458C42.1339 21.4527 41.9548 21.1595 41.6535 20.9804C41.6698 20.9153 41.4581 20.7606 41.6942 20.7931C41.9873 20.8257 42.2723 20.8908 42.5736 20.8339C42.9725 20.8827 43.3552 20.785 43.746 20.728C43.8193 20.7199 43.86 20.728 43.9089 20.7687C43.9496 20.8176 43.9089 20.8501 43.8926 20.8908C43.4041 21.7132 43.1191 22.6007 43.0458 23.5533C43.0458 23.594 43.0295 23.6429 42.9318 23.6673H42.9237ZM45.6024 22.9264C45.2197 23.4963 44.7312 23.9116 44.0147 23.9848C43.9984 23.9848 43.9821 23.9848 43.9659 23.9848C43.9659 23.9116 43.9577 23.8383 43.9496 23.765L43.7216 23.7894C43.7216 23.7894 43.7216 23.7406 43.7216 23.708C43.7542 23.0973 43.9089 22.5193 44.1287 21.9493C44.3648 21.3142 44.7231 20.7687 45.2523 20.3372C45.464 20.1662 45.7001 20.0766 45.9362 19.9627C46.0502 19.9057 46.1235 19.9789 46.1316 20.0766C46.1561 20.272 46.1561 20.4756 46.1642 20.671C46.2212 21.4771 46.0665 22.2424 45.6106 22.9182L45.6024 22.9264Z" fill="#5C3F2D"/>
</g>
<g id="Group_2">
<g id="Group_3">
<path id="Vector_3" d="M61.8646 33.5372C60.7206 33.5372 59.6865 33.2656 58.7563 32.7168C57.6759 32.087 56.9479 31.1857 56.5724 30.0187C56.5493 29.9378 56.5955 29.8569 56.6706 29.8338L57.8434 29.4872C57.9185 29.464 57.9936 29.5103 58.0225 29.5854C58.2883 30.3942 58.8025 31.0124 59.5594 31.4457C60.2295 31.8328 61.0037 32.0235 61.8704 32.0235C62.0032 32.0235 62.1246 32.0235 62.217 32.0119C62.3094 32.0004 62.4308 31.9888 62.5637 31.9657C62.945 31.9079 63.2916 31.8039 63.5978 31.6653C64.4991 31.2493 64.9902 30.5329 65.0711 29.5218C65.1115 28.9961 64.9555 28.5223 64.6089 28.1121C64.0658 27.4708 63.1934 27.1126 61.9975 27.0375C59.9869 26.8988 58.5252 26.4251 57.6239 25.6104C56.9421 24.9923 56.5955 24.195 56.5955 23.2243C56.5955 21.9128 57.1097 20.8671 58.1323 20.0756C59.0567 19.3592 60.1718 19.001 61.489 19.001C63.0432 19.001 64.3431 19.5556 65.3889 20.6707C65.7182 21.0289 66.0071 21.4218 66.2497 21.8551C66.3133 21.9648 66.3884 22.1151 66.475 22.3115C66.5097 22.3866 66.475 22.479 66.3941 22.5079L65.2502 22.9412C65.1809 22.9701 65.1058 22.9412 65.0711 22.8719C65.0018 22.7275 64.9209 22.5715 64.8284 22.4097C64.7129 22.2017 64.5338 21.9764 64.2854 21.728C63.5285 20.9249 62.5983 20.5262 61.489 20.5262C61.1539 20.5262 60.8131 20.5667 60.4606 20.6533C60.0504 20.7458 59.6807 20.8844 59.3571 21.0751C58.5194 21.5662 58.0976 22.2826 58.0976 23.2243C58.0976 24.5705 59.4322 25.3331 62.0957 25.5122C63.7076 25.622 64.9267 26.1593 65.7471 27.1126C66.371 27.8406 66.6484 28.6841 66.579 29.6374C66.475 30.9084 65.9377 31.8964 64.9613 32.607C64.1005 33.231 63.0721 33.543 61.8761 33.543H61.8588L61.8646 33.5372Z" fill="#5C3F2D"/>
<path id="Vector_4" d="M73.878 19.2782C75.2184 19.2782 76.3681 19.7577 77.3214 20.7225C78.2747 21.6816 78.7542 22.8429 78.7542 24.2006C78.7542 25.5583 78.2747 26.7138 77.3214 27.6786C76.3681 28.6435 75.2184 29.123 73.878 29.123H70.6657C70.5848 29.123 70.5213 29.1866 70.5213 29.2675V33.1384C70.5213 33.2193 70.4577 33.2828 70.3768 33.2828H69.1347C69.0538 33.2828 68.9902 33.2193 68.9902 33.1384V19.411C68.9902 19.3302 69.0538 19.2666 69.1347 19.2666H73.878V19.2782ZM73.7278 27.5862C74.7851 27.5862 75.8192 27.1471 76.4894 26.3209C76.9805 25.7143 77.229 25.0094 77.229 24.2006C77.229 23.3917 76.9805 22.6869 76.4894 22.0802C75.8192 21.2541 74.7851 20.815 73.7278 20.815H70.6657C70.5848 20.815 70.5213 20.8785 70.5213 20.9594V27.4302C70.5213 27.5111 70.5848 27.5747 70.6657 27.5747H73.7278V27.5862Z" fill="#5C3F2D"/>
<path id="Vector_5" d="M80.9141 33.1496V19.4223C80.9141 19.3414 80.9776 19.2778 81.0585 19.2778H82.3007C82.3815 19.2778 82.4451 19.3414 82.4451 19.4223V33.1496C82.4451 33.2305 82.3815 33.2941 82.3007 33.2941H81.0585C80.9776 33.2941 80.9141 33.2305 80.9141 33.1496Z" fill="#5C3F2D"/>
<path id="Vector_6" d="M92.6236 28.4298C92.5312 28.4876 92.5312 28.6147 92.6121 28.6725C93.2996 29.1693 93.8485 29.7991 94.2645 30.5559C94.7209 31.4052 94.952 32.3123 94.952 33.2829V33.2945H93.4209V33.2829C93.4209 32.1447 93.0223 31.1626 92.2192 30.3479C91.4104 29.5333 90.4397 29.1289 89.3074 29.1289H86.8981C86.8172 29.1289 86.7537 29.1924 86.7537 29.2733V33.1443C86.7537 33.2251 86.6901 33.2887 86.6093 33.2887H85.3671C85.2862 33.2887 85.2227 33.2251 85.2227 33.1443V19.4169C85.2227 19.336 85.2862 19.2725 85.3671 19.2725H89.9544C91.4104 19.2725 92.8259 19.8675 93.7907 20.9653C94.5938 21.8781 94.9924 22.9585 94.9924 24.2007C94.9924 25.1193 94.7555 25.9744 94.276 26.7601C93.86 27.4534 93.3054 28.0081 92.6236 28.424V28.4298ZM86.7537 20.9653V27.4361C86.7537 27.517 86.8172 27.5805 86.8981 27.5805H90.1046C91.0348 27.5805 91.8263 27.2512 92.4734 26.5926C93.1263 25.9281 93.4498 25.1309 93.4498 24.1949C93.4498 23.2589 93.1263 22.4674 92.4734 21.8088C91.8206 21.1444 91.029 20.8093 90.1046 20.8093H86.8981C86.8172 20.8093 86.7537 20.8728 86.7537 20.9537V20.9653Z" fill="#5C3F2D"/>
<path id="Vector_7" d="M97.4609 33.1496V19.4223C97.4609 19.3414 97.5245 19.2778 97.6054 19.2778H98.8475C98.9284 19.2778 98.992 19.3414 98.992 19.4223V33.1496C98.992 33.2305 98.9284 33.2941 98.8475 33.2941H97.6054C97.5245 33.2941 97.4609 33.2305 97.4609 33.1496Z" fill="#5C3F2D"/>
<path id="Vector_8" d="M112.266 19.4223V20.676C112.266 20.7569 112.202 20.8204 112.121 20.8204H107.494C107.413 20.8204 107.349 20.884 107.349 20.9649V33.1438C107.349 33.2247 107.286 33.2883 107.205 33.2883H105.963C105.882 33.2883 105.818 33.2247 105.818 33.1438V20.9649C105.818 20.884 105.755 20.8204 105.674 20.8204H100.988C100.907 20.8204 100.844 20.7569 100.844 20.676V19.4223C100.844 19.3414 100.907 19.2778 100.988 19.2778H112.121C112.202 19.2778 112.266 19.3414 112.266 19.4223Z" fill="#5C3F2D"/>
<path id="Vector_9" d="M118.542 33.5372C117.398 33.5372 116.364 33.2656 115.434 32.7168C114.354 32.087 113.626 31.1857 113.25 30.0187C113.227 29.9378 113.273 29.8569 113.348 29.8338L114.521 29.4872C114.596 29.464 114.671 29.5103 114.7 29.5854C114.966 30.3942 115.48 31.0124 116.237 31.4457C116.907 31.8328 117.681 32.0235 118.548 32.0235C118.681 32.0235 118.802 32.0235 118.895 32.0119C118.987 32.0004 119.109 31.9888 119.241 31.9657C119.623 31.9079 119.969 31.8039 120.276 31.6653C121.177 31.2493 121.668 30.5329 121.749 29.5218C121.789 28.9961 121.633 28.5223 121.287 28.1121C120.744 27.4708 119.871 27.1126 118.675 27.0375C116.665 26.8988 115.203 26.4251 114.302 25.6104C113.62 24.9923 113.273 24.195 113.273 23.2243C113.273 21.9128 113.787 20.8671 114.81 20.0756C115.734 19.3592 116.85 19.001 118.167 19.001C119.721 19.001 121.021 19.5556 122.067 20.6707C122.396 21.0289 122.685 21.4218 122.927 21.8551C122.991 21.9648 123.066 22.1151 123.153 22.3115C123.187 22.3866 123.153 22.479 123.072 22.5079L121.928 22.9412C121.859 22.9701 121.783 22.9412 121.749 22.8719C121.68 22.7275 121.599 22.5715 121.506 22.4097C121.391 22.2017 121.212 21.9764 120.963 21.728C120.206 20.9249 119.276 20.5262 118.167 20.5262C117.832 20.5262 117.491 20.5667 117.138 20.6533C116.728 20.7458 116.358 20.8844 116.035 21.0751C115.197 21.5662 114.775 22.2826 114.775 23.2243C114.775 24.5705 116.11 25.3331 118.773 25.5122C120.385 25.622 121.604 26.1593 122.425 27.1126C123.049 27.8406 123.326 28.6841 123.257 29.6374C123.153 30.9084 122.615 31.8964 121.639 32.607C120.778 33.231 119.75 33.543 118.554 33.543H118.537L118.542 33.5372Z" fill="#5C3F2D"/>
</g>
<g id="Group_4">
<path id="Vector_10" d="M179.488 33.3118C179.488 33.3118 179.47 33.2598 179.464 33.2309C179.488 33.1904 179.499 33.1442 179.476 33.0922L174.074 19.6017C174.028 19.4804 173.854 19.4804 173.808 19.6017L168.412 33.0922C168.372 33.1904 168.441 33.2944 168.545 33.2944H169.88C169.937 33.2944 169.989 33.2598 170.012 33.202L170.977 30.7928C171 30.735 171.052 30.7003 171.11 30.7003H174.79C175.611 30.8448 176.333 31.2261 176.951 31.8558C177.367 32.2776 177.673 32.7456 177.87 33.254C177.887 33.254 177.905 33.254 177.922 33.254C177.945 33.2713 177.974 33.2887 178.009 33.2887H178.933C179.118 33.2944 179.303 33.3002 179.488 33.306V33.3118ZM171.711 28.9671L173.808 23.7153C173.854 23.594 174.028 23.594 174.074 23.7153L176.171 28.9671C176.212 29.0653 176.142 29.1693 176.038 29.1693H171.838C171.734 29.1693 171.665 29.0653 171.705 28.9671H171.711Z" fill="#5C3F2D"/>
<path id="Vector_11" d="M153.476 33.3118C153.476 33.3118 153.459 33.2598 153.453 33.2309C153.476 33.1904 153.487 33.1442 153.464 33.0922L148.062 19.6017C148.016 19.4804 147.843 19.4804 147.797 19.6017L142.4 33.0922C142.36 33.1904 142.429 33.2944 142.533 33.2944H143.868C143.926 33.2944 143.978 33.2598 144.001 33.202L144.966 30.7928C144.989 30.735 145.041 30.7003 145.098 30.7003H148.779C149.599 30.8448 150.321 31.2261 150.94 31.8558C151.356 32.2776 151.662 32.7456 151.858 33.254C151.875 33.254 151.893 33.254 151.91 33.254C151.933 33.2713 151.962 33.2887 151.997 33.2887H152.921C153.106 33.2944 153.291 33.3002 153.476 33.306V33.3118ZM145.699 28.9671L147.797 23.7153C147.843 23.594 148.016 23.594 148.062 23.7153L150.16 28.9671C150.2 29.0653 150.131 29.1693 150.027 29.1693H145.826C145.722 29.1693 145.653 29.0653 145.694 28.9671H145.699Z" fill="#5C3F2D"/>
<path id="Vector_12" d="M134.654 32.0118C135.734 32.0118 136.728 31.7229 137.647 31.1509C138.502 30.6136 139.166 29.9087 139.646 29.0306C139.68 28.967 139.761 28.9381 139.831 28.967L140.963 29.4581C141.038 29.4928 141.073 29.5852 141.032 29.6603C140.431 30.8043 139.582 31.7287 138.49 32.422C137.323 33.1673 136.046 33.537 134.66 33.537C133.683 33.537 132.753 33.3464 131.863 32.9708C130.997 32.6011 130.234 32.0753 129.57 31.4051C128.905 30.7349 128.391 29.9607 128.021 29.0883C127.646 28.187 127.461 27.2453 127.461 26.2631C127.461 25.281 127.646 24.3335 128.021 23.4264C128.391 22.5598 128.905 21.7913 129.57 21.1212C130.234 20.451 130.997 19.931 131.863 19.5555C132.753 19.1799 133.683 18.9893 134.66 18.9893C136.046 18.9893 137.323 19.359 138.49 20.1043C139.582 20.7976 140.426 21.722 141.032 22.866C141.073 22.9411 141.038 23.0335 140.963 23.0682L139.836 23.5593C139.767 23.5882 139.692 23.5593 139.651 23.4957C139.172 22.6118 138.508 21.9069 137.652 21.3754C136.734 20.8034 135.74 20.5145 134.66 20.5145C133.094 20.5145 131.748 21.0749 130.633 22.1958C129.524 23.3224 128.969 24.6801 128.969 26.2631C128.969 27.8462 129.524 29.2039 130.633 30.3305C131.748 31.4513 133.088 32.0118 134.66 32.0118H134.654Z" fill="#5C3F2D"/>
<path id="Vector_13" d="M166.602 33.3294L157.145 23.1726C157.052 23.0743 156.896 23.1379 156.896 23.2708V33.1445C156.896 33.2254 156.833 33.289 156.752 33.289H155.51C155.429 33.289 155.365 33.2254 155.365 33.1445V19.3652C155.365 19.2323 155.527 19.1687 155.614 19.267L165.071 29.4354C165.164 29.5336 165.32 29.47 165.32 29.3372V19.423C165.32 19.3421 165.383 19.2785 165.464 19.2785H166.706C166.787 19.2785 166.851 19.3421 166.851 19.423V33.2312C166.851 33.3641 166.689 33.4276 166.602 33.3294Z" fill="#5C3F2D"/>
<path id="Vector_14" d="M180.961 33.1496V19.4223C180.961 19.3414 181.024 19.2778 181.105 19.2778H185.618C186.559 19.2778 187.461 19.4627 188.316 19.8325C189.142 20.1849 189.876 20.6818 190.523 21.3288C191.164 21.9817 191.655 22.7212 192.002 23.559C192.372 24.4256 192.556 25.3327 192.556 26.2859C192.556 27.2392 192.372 28.1405 192.002 29.0129C191.655 29.8449 191.158 30.5844 190.511 31.2315C189.87 31.8844 189.142 32.387 188.316 32.7394C187.449 33.1092 186.554 33.2941 185.618 33.2941H181.105C181.024 33.2941 180.961 33.2305 180.961 33.1496ZM185.623 31.7515C187.108 31.7457 188.379 31.2084 189.437 30.1511C190.494 29.0823 191.025 27.7939 191.025 26.2917C191.025 24.7896 190.494 23.5012 189.437 22.4324C188.379 21.3635 187.108 20.832 185.623 20.832H182.544C182.463 20.832 182.4 20.8955 182.4 20.9764V31.6128C182.4 31.6937 182.463 31.7572 182.544 31.7572H185.623V31.7515Z" fill="#5C3F2D"/>
<path id="Vector_15" d="M203.406 33.3118C203.406 33.3118 203.388 33.2598 203.382 33.2309C203.406 33.1904 203.417 33.1442 203.394 33.0922L197.992 19.6017C197.946 19.4804 197.772 19.4804 197.726 19.6017L192.33 33.0922C192.29 33.1904 192.359 33.2944 192.463 33.2944H193.798C193.855 33.2944 193.907 33.2598 193.93 33.202L194.895 30.7928C194.918 30.735 194.97 30.7003 195.028 30.7003H198.708C199.529 30.8448 200.251 31.2261 200.869 31.8558C201.285 32.2776 201.591 32.7456 201.788 33.254C201.805 33.254 201.822 33.254 201.84 33.254C201.863 33.2713 201.892 33.2887 201.927 33.2887H202.851C203.036 33.2944 203.221 33.3002 203.406 33.306V33.3118ZM195.629 28.9671L197.726 23.7153C197.772 23.594 197.946 23.594 197.992 23.7153L200.089 28.9671C200.13 29.0653 200.06 29.1693 199.956 29.1693H195.756C195.652 29.1693 195.583 29.0653 195.623 28.9671H195.629Z" fill="#5C3F2D"/>
</g>
</g>
</g>
</svg>
