<svg width="204" height="49" viewBox="0 0 204 49" fill="none" xmlns="http://www.w3.org/2000/svg">
<g id="Group 1">
<g id="Group">
<path id="Vector" d="M17.0587 22.479C15.1128 22.479 13.5332 24.0748 13.5332 26.0371C13.5332 27.9993 15.1128 29.5952 17.0587 29.5952C19.0047 29.5952 20.5842 27.9993 20.5842 26.0371C20.5842 24.0748 19.0047 22.479 17.0587 22.479ZM17.0587 28.5937C15.6583 28.5937 14.5265 27.4457 14.5265 26.0371C14.5265 24.6285 15.6664 23.4805 17.0587 23.4805C18.451 23.4805 19.5909 24.6285 19.5909 26.0371C19.5909 27.4457 18.451 28.5937 17.0587 28.5937Z" fill="url(#paint0_linear_606_4821)"/>
<path id="Vector_2" d="M47.2586 19.5148C47.1935 19.1566 47.0469 19.0507 46.6886 19.1403C46.4118 19.2136 46.1268 19.2624 45.8419 19.3683C46.0047 19.067 46.1024 18.7658 46.1757 18.4482C46.4525 17.3409 46.2734 16.2743 45.9233 15.224C45.7849 14.8006 45.6383 14.7517 45.2394 14.9634C45.0439 15.0611 44.7753 15.3624 44.5391 15.338C44.5391 15.281 44.5554 15.2484 44.6206 15.0856C45.1009 13.8398 44.6857 12.6104 44.0995 11.4786C43.7086 10.7296 43.5051 10.7214 42.87 11.3158C42.7153 11.2669 42.8049 11.1204 42.7479 11.0308C42.7479 10.583 42.7072 10.127 42.5606 9.7118C42.2431 8.82431 41.8034 7.99382 41.1765 7.27732C41.0625 7.14705 40.9729 7.15519 40.8671 7.24475C40.6635 7.42388 40.4681 7.603 40.3134 7.8147C40.2238 7.79027 40.2157 7.74142 40.2076 7.70071C40.1669 7.22032 40.0284 6.75623 39.8086 6.33284C39.4422 5.61634 38.9537 4.98126 38.3512 4.45202C37.6835 3.85765 36.9507 3.3447 36.2424 2.81547C34.9722 1.86285 33.5881 1.08935 32.1632 0.405419C32.0085 0.33214 31.8538 0.29143 31.6747 0.307714C31.4793 0.323998 31.3653 0.429845 31.3083 0.600829C31.2513 0.779954 31.3653 0.893943 31.4793 0.991647C31.5607 1.05678 31.6584 1.10564 31.7561 1.15449C32.7332 1.63487 33.6858 2.1641 34.5977 2.76662C35.4282 3.32028 36.2424 3.90651 36.9914 4.57415C37.081 4.65558 37.1869 4.71257 37.1462 4.87541C37.0322 5.26623 37.0403 5.67333 37.0729 6.17C36.6251 5.47792 36.1772 4.92426 35.6154 4.46831C34.7361 3.73552 33.759 3.23071 32.6273 3.04345C32.3098 2.99459 32.0492 2.8399 31.805 2.66077C30.5267 1.69186 29.1262 0.918369 27.6851 0.234436C27.5222 0.153015 27.3594 0.153015 27.1965 0.161157C27.0174 0.177441 26.936 0.299572 26.879 0.454271C26.8139 0.600829 26.9197 0.698533 26.993 0.779954C27.0826 0.885801 27.2128 0.942795 27.335 1.00793C28.8087 1.71629 30.1847 2.57121 31.4956 3.54011C31.748 3.72738 31.9597 3.93907 32.1388 4.19962C32.9693 5.3965 33.987 6.40612 35.2083 7.20404C35.2653 7.23661 35.4119 7.24475 35.3386 7.40759C35.1269 7.41573 34.9071 7.39131 34.6791 7.42388C34.5163 7.4483 34.3534 7.39131 34.1906 7.26918C33.6858 6.91093 33.2217 6.51197 32.725 6.14557C31.4223 5.20109 30.0381 4.41131 28.597 3.72738C28.4341 3.64596 28.2713 3.64596 28.1085 3.66224C27.9293 3.67853 27.8561 3.8088 27.7909 3.9635C27.7339 4.11006 27.8316 4.19962 27.9131 4.28918C28.0189 4.40317 28.1573 4.46017 28.2957 4.53344C30.0626 5.40464 31.7317 6.43869 33.238 7.72513C33.3764 7.84726 33.6044 7.93683 33.4252 8.20551C33.3845 8.26251 33.4578 8.30322 33.5066 8.34393C34.0277 8.86502 34.5488 9.38611 35.1595 9.79322C35.477 10.0049 35.8271 10.1515 36.1691 10.3225C36.0633 10.4934 35.8841 10.4934 35.7701 10.583C35.5259 10.7703 35.5015 10.9005 35.705 11.1529C35.7539 11.2099 35.8109 11.2669 35.8516 11.3321C36.3319 12.0893 36.9589 12.6836 37.7242 13.1396C37.7975 13.1803 37.9115 13.1885 37.8952 13.3187C37.8464 13.3676 37.7894 13.3676 37.7242 13.3839C37.2113 13.4734 37.081 13.7014 37.3008 14.1492C37.7242 14.996 38.2698 15.7532 39.0432 16.3232C39.1002 16.3639 39.1898 16.3883 39.141 16.486C38.913 16.5186 38.6931 16.5511 38.4733 16.5918C38.3186 16.6244 38.2616 16.6895 38.2779 16.885C38.3186 17.2513 39.1002 18.7658 39.1979 18.8879C39.4178 19.1566 39.6458 19.4253 39.8656 19.694C39.6539 19.7917 39.4178 19.694 39.1979 19.751C38.8885 19.8405 38.8071 19.8975 38.8886 20.1906C38.9618 20.4512 39.1491 21.4282 39.2468 21.6481C39.4992 22.1854 39.8086 22.674 40.1994 23.1136C40.9404 23.9441 41.8441 24.4815 42.9514 24.6443C43.155 24.6769 43.3585 24.6443 43.5702 24.6769C43.5784 24.6769 43.5865 24.6769 43.6028 24.6769C44.0343 31.3045 42.4711 36.7109 38.9293 40.733C37.2683 42.622 35.2979 44.0469 33.3031 45.1053C34.6058 43.7375 35.6806 41.8567 36.2994 39.2675C36.4704 39.3163 36.6495 39.3489 36.853 39.3733C37.1136 39.3978 37.3823 39.357 37.6265 39.2512C37.8952 39.1291 38.5059 38.8115 38.6524 38.7138C39.7842 37.981 40.175 36.7109 40.3704 35.4244C40.5007 34.5695 40.3297 34.4392 39.4504 34.5451C39.3526 34.4148 39.5155 34.3415 39.5236 34.2357C39.8005 33.8693 40.0284 33.4703 40.1506 33.0307C40.4193 32.1025 40.5495 31.158 40.4518 30.1891C40.4355 30.0181 40.3623 29.9611 40.2238 29.9774C39.947 30.0018 39.6783 30.0344 39.4341 30.1077C39.3689 30.0344 39.3934 29.9855 39.4178 29.953C39.6702 29.5296 39.833 29.0736 39.9063 28.5851C40.0284 27.7709 40.004 26.9567 39.8249 26.1506C39.6295 25.255 39.3282 24.3919 39.0595 23.5207C38.5792 21.9575 37.8952 20.4919 37.1299 19.0589C37.0484 18.9042 36.9426 18.7739 36.7879 18.6843C36.6169 18.5785 36.4622 18.5948 36.3075 18.7088C36.1528 18.8228 36.1854 18.9856 36.218 19.1322C36.2424 19.238 36.2994 19.3357 36.3482 19.4334C36.8693 20.4186 37.3416 21.4364 37.7324 22.4867C38.0906 23.4475 38.4082 24.4245 38.6199 25.426C38.6443 25.54 38.7013 25.6621 38.5629 25.7679C38.2372 26.0203 38.0011 26.3623 37.7324 26.7938C37.7731 25.9552 37.7324 25.2306 37.5533 24.5059C37.2601 23.3742 36.7635 22.3564 35.9411 21.5178C35.7131 21.2817 35.5829 20.9967 35.4933 20.7036C35.0211 19.124 34.3209 17.6422 33.5392 16.201C33.4497 16.0382 33.3275 15.9323 33.1728 15.8428C33.0181 15.7451 32.8797 15.8021 32.7332 15.8916C32.5947 15.973 32.6273 16.1115 32.6354 16.2336C32.6436 16.372 32.7169 16.5023 32.782 16.6325C33.5718 18.1063 34.1987 19.6533 34.7035 21.2491C34.8012 21.5504 34.8501 21.8516 34.8419 22.1773C34.8094 23.6673 35.0455 25.1166 35.5829 26.517C35.6073 26.5821 35.7294 26.6717 35.5747 26.7613C35.3956 26.6391 35.2246 26.4844 35.0211 26.3786C34.8745 26.2972 34.7768 26.1506 34.7035 25.9552C34.5 25.3527 34.3534 24.742 34.158 24.1395C33.6532 22.5681 32.9774 21.0863 32.1958 19.637C32.1062 19.4741 31.9759 19.3764 31.8294 19.2869C31.6747 19.1973 31.5363 19.2543 31.3897 19.3439C31.2513 19.4334 31.2839 19.5718 31.292 19.6858C31.3083 19.8405 31.3897 19.9789 31.463 20.1174C32.3993 21.9086 33.1647 23.7731 33.6288 25.7435C33.6695 25.9308 33.8079 26.1425 33.4985 26.2483C33.4334 26.2727 33.4741 26.346 33.4822 26.4112C33.5962 27.1521 33.7183 27.9012 33.987 28.6095C34.1254 28.9759 34.3209 29.3097 34.5081 29.6598C34.3209 29.7413 34.1743 29.6273 34.0196 29.6273C33.7021 29.6273 33.6125 29.725 33.6206 30.0588C33.6206 30.1402 33.6369 30.2135 33.6288 30.2949C33.5799 31.2068 33.7428 32.078 34.0929 32.9167C34.1254 32.9981 34.215 33.0714 34.1254 33.1691C34.0603 33.1772 34.0033 33.1446 33.9463 33.1202C33.4741 32.8841 33.2298 32.9899 33.1484 33.4948C32.9937 34.4555 32.896 35.457 33.1891 36.3933C33.3275 36.8411 33.9382 37.8508 34.4186 38.2579C34.5651 38.3881 34.7198 38.5103 34.8664 38.6324C35.0374 38.722 35.2246 38.8278 35.42 38.9418C34.7117 42.0276 33.3194 44.0469 31.6747 45.3659C31.6747 45.3577 31.6747 45.3415 31.6747 45.3333L32.611 27.2009C32.6843 25.7517 32.0818 24.3187 30.9908 23.3742L29.2158 22.1122L29.1914 22.0959V22.0714C29.2891 21.8353 29.3786 21.5911 29.4356 21.3224C29.8183 19.6288 29.8102 18.1633 29.4112 16.4371L29.3623 14.6785C29.3623 14.0108 28.825 13.4653 28.1573 13.4653H25.7391C25.0796 13.4653 24.5341 14.0108 24.5341 14.6866V16.5023C24.3957 17.2269 24.2736 17.8946 24.2084 18.5459C24.1758 18.5378 24.1514 18.5215 24.1189 18.5052C23.3372 18.2121 22.6858 17.9923 22.0833 17.8213C22.3276 17.5526 22.5393 17.2595 22.7021 16.9419C22.9708 16.4127 23.1011 15.8428 23.0848 15.2484C23.0522 13.6526 21.9693 12.1951 20.5038 11.788C20.1781 11.6985 19.8606 11.6415 19.543 11.6089L18.623 4.15077C18.4927 3.11673 17.9227 2.19667 17.0597 1.63487C16.1966 1.07307 15.13 0.926511 14.1448 1.23591L3.07976 4.66372C1.6549 5.11967 0.563867 5.63262 0.588293 7.603V33.3238L0.612719 33.4052C0.710424 33.6902 3.07162 40.4399 9.5527 45.0972C12.9887 47.5642 17.4668 48.8425 22.0589 48.8425C22.7917 48.8425 23.5245 48.81 24.2573 48.7448C25.4867 48.6716 27.0174 48.4843 28.597 47.9713C29.5822 47.7027 30.5511 47.3688 31.4956 46.9699L31.4793 46.9373C34.2883 45.7811 37.2357 43.998 39.5888 41.3193C43.2771 37.1261 44.9218 31.5325 44.4984 24.6932C44.9625 24.6525 45.4103 24.4896 45.8174 24.1965C46.7538 23.5044 47.1853 22.5274 47.3482 21.3957C47.4377 20.7606 47.3644 20.1336 47.2586 19.5148ZM37.6917 35.343C36.9914 36.0269 36.5192 36.8004 36.0714 37.5984C36.2098 36.6376 36.0388 35.742 35.7294 34.8626C36.3727 35.0662 36.9589 35.343 37.6917 35.3511V35.343ZM36.1365 31.0359C36.7553 31.2801 37.3334 31.2313 37.9685 31.2394C37.5125 31.964 37.1706 32.705 36.8937 33.4866C36.8368 32.6154 36.5599 31.8419 36.1365 31.044V31.0359ZM39.5969 35.2616C39.662 35.3511 39.6376 35.4407 39.6213 35.5303C39.4178 36.4422 39.0921 37.2971 38.4082 37.9729C37.9685 38.4044 37.4474 38.5917 36.8449 38.5673C36.5762 38.5591 36.5192 38.4777 36.6251 38.2497C37.0566 37.3052 37.5451 36.4015 38.3675 35.7338C38.7013 35.4651 39.1247 35.2942 39.5969 35.2534V35.2616ZM39.6946 30.7427C39.7272 30.8323 39.776 30.9137 39.7679 30.987C39.6702 31.7849 39.6132 32.5991 39.2224 33.3238C39.0107 33.7146 38.7583 34.0728 38.3837 34.3252C38.1232 34.5044 37.8301 34.6102 37.4311 34.5858C37.651 33.3971 38.0336 32.3142 38.7746 31.3941C39.0188 31.0928 39.3282 30.8893 39.6946 30.7509V30.7427ZM37.6917 30.1077C37.7487 29.6354 37.7975 29.1632 37.8871 28.6991C38.0174 28.0477 38.1639 27.4045 38.5222 26.8345C38.6524 26.6229 38.7908 26.4112 39.0677 26.2972C39.2387 26.6229 39.2061 26.9485 39.2224 27.2498C39.2712 28.1047 39.1735 28.9433 38.7176 29.7006C38.5547 29.9692 38.3512 30.1728 38.0988 30.3356C38.0011 30.4008 37.8871 30.5229 37.7649 30.4496C37.6347 30.3763 37.6754 30.2298 37.6917 30.1077ZM37.594 27.2742C37.4881 27.9419 37.3416 28.5688 37.1462 29.212C36.9996 28.7317 36.8693 28.2513 36.5192 27.7383C37.138 28.0396 37.2357 27.4533 37.594 27.2742ZM35.5503 22.2424C36.6332 23.0811 37.309 25.6947 36.7716 27.0707C35.8353 25.5562 35.5422 23.9523 35.5503 22.2424ZM34.329 26.8997C34.5081 26.8671 34.6465 26.9404 34.785 27.0381C35.3468 27.3964 35.705 27.9337 35.9656 28.52C36.2098 29.0736 36.3645 29.6598 36.3971 30.2786C35.4445 30.0588 34.5488 28.5525 34.329 26.8915V26.8997ZM34.3778 30.4415C34.7442 30.4578 34.9641 30.7183 35.1676 30.9626C35.8434 31.7361 36.1121 32.6724 36.1365 33.6902C36.1365 33.8286 36.1365 33.9751 36.1365 34.1461C34.9641 33.7309 34.2883 31.7524 34.3697 30.4415H34.3778ZM35.363 37.2727C35.3305 37.4681 35.3305 37.6716 35.3142 37.867C35.1839 37.8996 35.1025 37.8426 35.0211 37.7612C34.3778 37.1587 34.0522 36.3852 33.873 35.5384C33.7753 35.0743 33.816 34.6021 33.7998 34.1298C33.7998 34.0403 33.7835 33.9263 33.8893 33.8856C33.9952 33.8449 34.0603 33.9263 34.1336 33.9833C34.614 34.3334 34.9315 34.8056 35.1269 35.3756C35.3386 35.9944 35.4526 36.6213 35.3549 37.2727H35.363ZM15.4638 35.8397C15.5371 35.8234 15.6104 35.8071 15.6918 35.7908H15.7325V35.7827C15.8221 35.7664 15.9198 35.742 16.0094 35.7257C16.3432 35.6687 16.7177 35.6198 17.1655 35.571C18.338 35.4651 19.5267 35.4244 20.7073 35.4489C21.0819 35.457 21.4971 35.4814 21.9856 35.4977C22.3195 35.514 22.6533 35.5384 22.9871 35.571C23.2558 35.5954 23.6466 35.6524 23.9072 35.6931C24.1026 35.7257 24.2817 35.7582 24.4283 35.7908C24.5911 35.8315 24.8028 35.8885 25.0063 35.9455C25.0796 35.9699 25.1448 35.9944 25.2099 36.0188C24.9493 36.1246 24.6807 36.2142 24.4201 36.2793C24.0537 36.3689 23.6466 36.4503 23.1988 36.5155C21.1307 36.7923 19.0382 36.7923 16.9783 36.5155C16.5223 36.4503 16.1152 36.3689 15.7488 36.2793C15.472 36.2061 15.1952 36.1165 14.9427 36.0107C15.0405 35.9699 15.1707 35.9211 15.3336 35.8804C15.3743 35.8722 15.415 35.856 15.4638 35.8478V35.8397ZM31.1617 36.4259H26.48V36.3119C26.48 36.2549 26.48 36.1979 26.48 36.1409V36.1246C26.48 36.0514 26.4719 35.9781 26.4475 35.9129C26.4475 35.8885 26.4393 35.8641 26.4312 35.8397C26.4312 35.8397 26.4312 35.8234 26.4231 35.8152C26.4068 35.7745 26.3905 35.742 26.3742 35.7013C26.3579 35.6687 26.3335 35.6361 26.3091 35.6036C26.2928 35.5873 26.2846 35.571 26.2684 35.5547C26.2602 35.5466 26.2521 35.5303 26.2358 35.5221C25.8775 35.1232 25.2262 34.9603 24.9331 34.887C24.8598 34.8626 24.7539 34.8382 24.6237 34.8138C24.5015 34.7812 24.3957 34.7568 24.3061 34.7486C24.298 34.7486 24.1921 34.7324 24.0456 34.7079C23.557 34.6265 23.0034 34.5532 22.694 34.5369L22.4823 30.702L26.879 28.1943L31.4467 30.7997L31.1536 36.434L31.1617 36.4259ZM25.4949 45.4066C25.4949 45.6671 25.4053 45.9195 25.2343 46.115L24.7214 46.7093C24.7214 46.7093 24.6481 46.7907 24.6318 46.7989C24.5748 46.8315 24.5178 46.864 24.4527 46.8884C24.3468 46.9292 24.2491 46.9617 24.1433 46.9862C24.013 47.0187 23.8746 47.0513 23.7117 47.0839C23.3616 47.1571 22.979 47.206 22.5067 47.2548C21.8065 47.3363 20.9679 47.377 20.0804 47.377C19.1929 47.377 18.3868 47.3363 17.6459 47.263C17.19 47.2223 16.8073 47.1653 16.449 47.092C16.3188 47.0676 15.6511 46.8559 15.5045 46.7907C15.4964 46.7907 15.4801 46.7745 15.472 46.7582L15.4313 46.7093C15.4313 46.7093 15.1463 46.4081 14.902 46.1312C14.7473 45.9521 14.6578 45.7241 14.6578 45.4799V40.1631C14.959 40.2852 15.2603 40.3911 15.5615 40.4644C15.9524 40.5621 16.3758 40.6435 16.8643 40.7168C17.5319 40.8063 18.1996 40.8633 18.8754 40.8959C18.7288 40.9122 18.5904 40.9692 18.4683 41.0587L16.2373 42.7767C15.8709 43.0617 15.7977 43.5991 16.0826 43.9736L17.7843 46.2208C17.9472 46.4406 18.1996 46.5546 18.452 46.5546C18.6311 46.5546 18.8102 46.4976 18.9649 46.3836L21.1959 44.6657C21.375 44.5273 21.489 44.3237 21.5215 44.1039C21.5541 43.8759 21.489 43.6561 21.3587 43.4769L21.1959 43.2652L22.9871 43.4851C22.9871 43.4851 23.0604 43.4851 23.093 43.4851C23.2802 43.4851 23.4593 43.4199 23.614 43.3059C23.7932 43.1675 23.9072 42.964 23.9316 42.736L24.2003 40.5539C24.3387 40.5214 24.4771 40.4969 24.6074 40.4644C24.9086 40.3911 25.2099 40.2852 25.5111 40.1631V45.3985L25.4949 45.4066ZM15.5127 37.2401C15.9117 37.3378 16.3432 37.4274 16.8398 37.5007C17.9146 37.6472 18.9975 37.7205 20.0804 37.7205C21.1633 37.7205 22.2543 37.6472 23.3291 37.5007C23.8176 37.4274 24.2491 37.346 24.6562 37.2401C24.9331 37.1668 25.218 37.0773 25.4949 36.9633V39.6257C25.4949 39.6257 25.4216 39.6583 25.3809 39.6827C25.0796 39.813 24.7784 39.9107 24.4771 39.9921C24.4038 40.0084 24.3305 40.0247 24.2573 40.041V39.9433C24.3224 39.4792 23.9967 39.0558 23.5326 38.9988L20.748 38.6568C20.5282 38.6324 20.3002 38.6894 20.1292 38.8278C19.9501 38.9662 19.8361 39.1698 19.8117 39.3978L19.6814 40.4481C18.7614 40.4318 17.8495 40.3667 16.9376 40.2445C16.4653 40.1712 16.0582 40.098 15.6837 40.0003C15.3824 39.927 15.073 39.8211 14.788 39.699C14.7555 39.6827 14.7148 39.6583 14.6659 39.6339V36.9796C14.9427 37.0935 15.2277 37.1831 15.5127 37.2564V37.2401ZM19.1603 40.9203C19.315 40.9203 19.4697 40.9285 19.6163 40.9285L19.5837 41.1646C19.4697 41.0424 19.3232 40.9529 19.1522 40.9203H19.1603ZM20.4712 43.9654L18.4764 45.5043L16.9538 43.4932L18.9486 41.9544L20.4712 43.9654ZM20.6178 40.9285C21.4727 40.9122 22.3195 40.847 23.1662 40.733L22.9545 42.4755L20.4631 42.1661L20.6096 40.9285H20.6178ZM23.2232 40.2282C22.3764 40.3422 21.5297 40.4074 20.6748 40.4318L20.7725 39.6583L23.2639 39.9677L23.2314 40.2282H23.2232ZM29.5659 46.6279C28.1492 47.1001 26.6755 47.4258 25.1855 47.6131C25.2913 47.5398 25.3972 47.434 25.4542 47.3688L25.9752 46.7663C26.3009 46.3836 26.48 45.9033 26.48 45.3985V37.4192H31.1047L30.6976 45.2438C30.6976 45.2438 30.6976 45.2275 30.7139 45.2275V46.0091C30.3394 46.2452 29.9486 46.4488 29.5659 46.6198V46.6279ZM25.7554 14.4179H28.1736C28.2876 14.4179 28.3853 14.5156 28.3853 14.6459L28.426 15.9975H25.5519V14.6296C25.5437 14.5075 25.6414 14.4179 25.7554 14.4179ZM25.1448 22.9508C25.9345 22.4867 25.6903 21.876 25.5926 21.6481L25.5193 21.4689C25.3809 21.1188 25.2262 20.7117 25.1936 20.3942C25.0796 19.3194 25.218 18.2447 25.4623 16.9989H28.54C28.825 18.4075 28.8087 19.6451 28.483 21.0537C28.4341 21.2572 28.3609 21.4608 28.2794 21.6806L28.2387 21.7946C28.1166 22.1203 28.1736 22.5844 28.6703 22.8938L30.3801 24.107C31.2269 24.856 31.6991 25.9715 31.6421 27.1032L31.5118 29.6598L27.3757 27.2986C27.0744 27.1277 26.6999 27.1277 26.3986 27.2986L22.4334 29.5621L22.295 27.1032C22.238 25.9715 22.7021 24.8479 23.557 24.0988L25.1529 22.9508H25.1448ZM24.1677 19.5474C24.1677 19.8649 24.1758 20.1825 24.2166 20.5C24.2654 20.956 24.4527 21.4445 24.6074 21.8353L24.6888 22.0307C24.6888 22.0307 24.6969 22.047 24.7051 22.0633C24.6888 22.0714 24.6725 22.0796 24.6481 22.0959L22.9708 23.309L22.9383 23.3335C21.8472 24.2779 21.2447 25.7109 21.318 27.1602L21.5948 32.2572C16.5549 29.6029 10.4809 29.2365 4.52905 31.1987C4.52905 31.1824 4.51277 31.1661 4.50462 31.1498C3.99982 30.0018 3.56015 27.8523 3.77184 26.9078C3.96725 26.0122 4.23594 25.2631 4.58605 24.6199C4.96058 23.9197 5.3514 23.309 5.78293 22.7472C6.28774 22.0877 6.89839 21.4852 7.72074 20.8501C8.2174 20.4593 8.77921 20.1418 9.31658 19.8487C9.77254 19.6044 10.3018 19.3276 10.8473 19.1484C11.6778 18.8798 12.492 18.6762 13.4853 18.4401C13.5423 18.4238 13.6074 18.4157 13.6726 18.4075C13.868 18.3912 14.0634 18.3668 14.2588 18.3505C14.6822 18.3017 15.0812 18.261 15.4801 18.2447C16.5467 18.1958 17.3528 18.1795 18.11 18.204C18.5985 18.2121 19.0871 18.2691 19.6 18.3261C19.6814 18.3342 19.771 18.3424 19.8524 18.3505C20.1292 18.4157 20.4061 18.4564 20.6748 18.4971C21.0086 18.5459 21.318 18.5948 21.6192 18.6762C22.2625 18.8472 22.9545 19.0752 23.8176 19.4008C23.9397 19.4497 24.07 19.4986 24.1921 19.5555L24.1677 19.5474ZM3.77184 9.89906V9.67923C3.80441 8.17295 3.8614 7.67628 4.85473 7.37502L14.6578 4.38689C14.9672 4.28918 15.2929 4.36246 15.5371 4.57415C15.7814 4.78585 15.9035 5.09525 15.8547 5.42907L14.9835 11.5519C14.8939 11.5519 14.7962 11.5519 14.7066 11.5519C14.4135 11.5519 14.039 11.56 13.6889 11.674C12.4676 12.0567 11.6615 12.7651 11.23 13.8561C11.0183 14.3853 10.9206 14.882 10.9369 15.3624C10.9694 16.2824 11.3032 17.1048 11.9383 17.7969C11.4661 17.919 10.9857 18.0574 10.5135 18.2121C9.89467 18.4075 9.30844 18.7169 8.81992 18.9856C8.24997 19.295 7.64746 19.637 7.0938 20.0766C6.20632 20.7687 5.53867 21.4282 4.98501 22.1529C4.54533 22.7228 4.14637 23.3416 3.77184 24.0337V9.89906ZM22.124 15.224C22.1322 15.6555 22.0426 16.0545 21.8472 16.4453C21.6518 16.828 21.375 17.1699 20.9842 17.4793C20.8539 17.4712 20.7318 17.4549 20.6096 17.4386C20.4875 17.4223 20.3735 17.406 20.2514 17.3979C20.1618 17.3898 20.0722 17.3816 19.9745 17.3735C19.4697 17.2595 18.9649 17.2351 18.4845 17.2106C18.2891 17.2025 18.0937 17.1944 17.8983 17.1781C16.9945 17.1048 16.1152 17.1699 15.2684 17.2351L15.0812 17.2513C14.9265 17.2595 14.7636 17.2758 14.6089 17.2921C14.5031 17.3083 14.4054 17.3165 14.2995 17.3328C14.0308 17.3653 13.7459 17.3979 13.4609 17.4549C13.4528 17.4549 13.4446 17.4549 13.4365 17.4549H13.3306C13.0864 17.4875 13.0375 17.4875 12.9561 17.4142C12.2966 16.828 11.9628 16.1603 11.9383 15.3542C11.9302 15.0123 11.9953 14.654 12.1582 14.2551C12.4757 13.4571 13.0619 12.9523 13.9901 12.6592C14.21 12.5941 14.4868 12.5859 14.7311 12.5778C15.2684 12.5697 15.8058 12.5778 16.3432 12.5778H19.1278C19.5023 12.5778 19.8768 12.6348 20.2595 12.7406C21.3098 13.0338 22.0915 14.0922 22.1159 15.2565L22.124 15.224ZM3.37288 5.61634L14.4624 2.13968C15.1707 1.91984 15.9279 2.02569 16.5467 2.42465C17.1655 2.83175 17.5726 3.48312 17.6622 4.22405L18.566 11.5438H16.9945H16.3432C16.2211 11.5438 16.1071 11.5438 15.9849 11.5438L16.8317 5.56749C16.9294 4.90798 16.6851 4.24847 16.1803 3.81694C15.6755 3.38541 14.9997 3.23886 14.3647 3.42612L4.56162 6.41426C2.82736 6.94349 2.80293 8.20551 2.77851 9.6548V9.88278V26.7613C2.53425 28.0233 3.06348 30.3519 3.56829 31.5244C3.21818 31.6547 2.86807 31.7931 2.51796 31.9396C2.24113 32.0455 1.91545 32.192 1.57348 32.3793V7.603C1.5572 6.38169 1.93988 6.08044 3.37288 5.62448V5.61634ZM1.69561 33.454C2.05386 33.2424 2.47725 33.0225 2.85993 32.8841C2.88435 32.876 2.90064 32.8678 2.90878 32.8678C9.40615 30.1402 16.2048 30.3519 21.6437 33.4378L21.7007 34.4718C21.3831 34.4555 21.0574 34.4474 20.7399 34.4392C19.6244 34.4067 18.8102 34.4148 17.3284 34.5369C16.4409 34.6184 15.7651 34.7405 15.4964 34.8056C15.3987 34.8301 15.301 34.8463 15.2033 34.8708C15.1463 34.8871 15.0974 34.9033 15.0405 34.9115C14.9753 34.9278 14.9102 34.944 14.8369 34.9685C14.8369 34.9685 14.5845 35.058 14.4705 35.1069C14.3565 35.1557 14.2507 35.2209 14.1611 35.2779C14.0634 35.343 13.982 35.4163 13.9168 35.4977C13.9087 35.514 13.8924 35.5221 13.8843 35.5384C13.8843 35.5384 13.868 35.5547 13.868 35.5628C13.868 35.571 13.8517 35.5873 13.8517 35.5954C13.8354 35.6198 13.8191 35.6443 13.8029 35.6687C13.7052 35.8315 13.6807 35.9699 13.6807 36.0839V36.1165V45.488C13.6807 45.773 13.7459 46.0498 13.8517 46.3022C12.5083 45.773 11.2544 45.1053 10.1389 44.2993C4.77331 40.4399 2.29813 34.944 1.7119 33.4703L1.69561 33.454ZM44.1727 17.1211C44.1727 17.0397 44.5391 16.3964 44.8567 15.973C44.987 15.8346 45.0684 15.7695 45.1742 15.7532C45.2719 15.7369 45.3778 15.8021 45.4103 15.8998C45.5325 16.258 45.5813 16.5756 45.6383 16.9582C45.679 17.2839 45.6139 17.7073 45.5162 18.0248C45.3533 18.8879 45.0195 19.6288 44.132 19.9627C43.8633 20.0685 43.8633 20.0685 43.7494 19.7591C43.7005 18.4727 43.9285 17.6015 44.1727 17.1292V17.1211ZM42.7072 12.9035C42.8212 12.4964 43.0491 12.1137 43.4074 11.8043C43.5132 11.8369 43.5458 11.9183 43.5784 12.0079C43.9448 12.8546 44.1646 13.7177 44.0099 14.654C43.9122 15.2484 43.6028 15.7044 43.1143 16.0382C42.8944 16.1929 42.813 16.1603 42.756 15.916C42.5525 14.9146 42.4222 13.9131 42.699 12.9035H42.7072ZM41.4126 17.2269C42.1291 17.1048 42.7479 16.9908 43.4155 16.8768C43.1306 17.7806 43.0329 18.6843 43.0491 19.6207C42.7479 18.6843 42.1779 17.9353 41.4126 17.2269ZM42.5199 20.6954C42.5199 20.6954 42.4873 20.7199 42.4711 20.728C42.4711 20.728 42.5036 20.7036 42.5199 20.6954ZM40.5495 9.22327C40.574 8.84874 40.6961 8.49863 40.9078 8.17295C40.9811 8.22994 41.0706 8.26251 41.1032 8.3195C41.4859 9.00344 41.9011 9.67923 42.007 10.4853C42.064 10.9168 42.064 11.3565 41.9174 11.7717C41.8115 12.0649 41.6406 12.3254 41.3149 12.5371C40.8101 11.4705 40.4925 10.3876 40.5577 9.22327H40.5495ZM41.9581 12.9849C41.7953 13.9294 41.8604 14.825 41.9581 15.7125C41.5184 14.8739 40.8752 14.2551 40.118 13.7421C40.7449 13.5304 41.3719 13.4002 41.95 12.9849H41.9581ZM39.8249 9.57338C39.8819 10.412 40.0366 11.2018 40.2564 11.9834C39.719 11.3239 39.0514 10.8761 38.2616 10.4853C38.8886 10.3225 39.3201 9.93977 39.8249 9.57338ZM37.8789 5.02197C38.2046 5.17667 38.3593 5.4535 38.5466 5.68962C39.0758 6.34098 39.4748 7.05748 39.5481 7.92868C39.5725 8.22994 39.5318 8.51491 39.4178 8.79174C39.3771 8.90573 39.3526 9.06043 39.2142 9.07672C39.0758 9.093 39.0107 8.95458 38.9537 8.84874C38.7339 8.44163 38.4977 8.04267 38.3023 7.61929C38.0336 7.03306 37.7812 6.43054 37.7405 5.77104C37.7242 5.52678 37.708 5.28251 37.8626 5.03011L37.8789 5.02197ZM37.2601 6.65852C37.5614 7.24475 37.7975 7.83912 38.0092 8.45792C37.6184 8.15666 37.2357 7.85541 36.6739 7.65185C37.3334 7.52972 37.0729 7.00863 37.2601 6.65852ZM32.7576 3.8658C34.0929 3.89836 36.1284 5.56749 36.4866 6.97606C34.8827 6.3247 33.7346 5.22552 32.7576 3.8658ZM34.4511 8.27065C34.5733 8.14038 34.728 8.12409 34.8908 8.10781C35.5422 8.0671 36.1284 8.27879 36.6739 8.59633C37.1869 8.88945 37.6428 9.26398 38.0255 9.73622C37.138 10.1189 35.5747 9.45125 34.4511 8.26251V8.27065ZM36.5192 11.0471C36.8205 10.8435 37.1461 10.925 37.4393 10.9982C38.4163 11.2181 39.1654 11.8043 39.7679 12.5941C39.8493 12.6999 39.9307 12.8139 40.0284 12.9605C38.8641 13.3106 37.195 12.1463 36.5111 11.0552L36.5192 11.0471ZM39.0351 15.3787C38.6931 15.0693 38.457 14.6703 38.172 14.3121C38.1232 14.2469 38.0418 14.1655 38.1069 14.0678C38.1639 13.9782 38.2698 14.0027 38.3593 13.9945C38.9455 13.9945 39.4666 14.1818 39.947 14.5156C40.4681 14.882 40.9159 15.3135 41.2172 15.8835C41.3067 16.0545 41.4207 16.2254 41.5184 16.3883C41.4289 16.4941 41.3393 16.486 41.2253 16.4778C40.3704 16.3801 39.6702 15.9568 39.0432 15.3868L39.0351 15.3787ZM39.1328 17.2188C39.6376 17.1781 40.1099 17.2758 40.5251 17.5526C41.266 18.0411 41.836 18.6925 42.2431 19.4904C42.2268 19.6858 42.3896 19.8568 42.3326 20.0685C41.9337 20.0848 41.6161 19.8568 41.2579 19.8242C40.9729 19.5637 40.6228 19.409 40.3541 19.124C39.8412 18.5704 39.3852 17.976 39.1247 17.2269L39.1328 17.2188ZM42.5362 23.7976C41.6894 23.537 41.0299 23.0159 40.4763 22.332C40.1017 21.876 39.9796 21.3142 39.7598 20.8013C39.6458 20.5407 39.7353 20.4593 40.0122 20.5245C41.0462 20.785 41.8278 21.3712 42.2919 22.3564C42.4873 22.7717 42.6909 23.1869 42.7316 23.7569C42.7316 23.7894 42.6827 23.8383 42.5281 23.7894L42.5362 23.7976ZM43.4237 23.6673C43.4155 22.9589 43.1061 22.3483 42.7886 21.7458C42.6339 21.4526 42.4548 21.1595 42.1535 20.9804C42.1698 20.9153 41.9581 20.7606 42.1942 20.7931C42.4873 20.8257 42.7723 20.8908 43.0736 20.8339C43.4725 20.8827 43.8552 20.785 44.246 20.728C44.3193 20.7199 44.36 20.728 44.4089 20.7687C44.4496 20.8176 44.4089 20.8501 44.3926 20.8908C43.9041 21.7132 43.6191 22.6007 43.5458 23.5533C43.5458 23.594 43.5295 23.6429 43.4318 23.6673H43.4237ZM46.1024 22.9264C45.7197 23.4963 45.2312 23.9116 44.5147 23.9848C44.4984 23.9848 44.4821 23.9848 44.4659 23.9848C44.4659 23.9116 44.4577 23.8383 44.4496 23.765L44.2216 23.7894C44.2216 23.7894 44.2216 23.7406 44.2216 23.708C44.2542 23.0973 44.4089 22.5193 44.6287 21.9493C44.8648 21.3142 45.2231 20.7687 45.7523 20.3372C45.964 20.1662 46.2001 20.0766 46.4362 19.9627C46.5502 19.9057 46.6235 19.9789 46.6317 20.0766C46.6561 20.272 46.6561 20.4756 46.6642 20.671C46.7212 21.4771 46.5665 22.2424 46.1106 22.9182L46.1024 22.9264Z" fill="url(#paint1_linear_606_4821)"/>
</g>
<g id="Group_2">
<g id="Group_3">
<path id="Vector_3" d="M62.3646 33.5372C61.2206 33.5372 60.1865 33.2656 59.2563 32.7168C58.1759 32.087 57.4479 31.1857 57.0724 30.0187C57.0493 29.9378 57.0955 29.8569 57.1706 29.8338L58.3434 29.4872C58.4185 29.464 58.4936 29.5103 58.5225 29.5854C58.7883 30.3942 59.3025 31.0124 60.0594 31.4457C60.7295 31.8328 61.5037 32.0235 62.3704 32.0235C62.5032 32.0235 62.6246 32.0235 62.717 32.0119C62.8094 32.0004 62.9308 31.9888 63.0637 31.9657C63.445 31.9079 63.7916 31.8039 64.0978 31.6653C64.9991 31.2493 65.4902 30.5329 65.5711 29.5218C65.6115 28.9961 65.4555 28.5223 65.1089 28.1121C64.5658 27.4708 63.6934 27.1126 62.4975 27.0375C60.4869 26.8988 59.0252 26.4251 58.1239 25.6104C57.4421 24.9923 57.0955 24.195 57.0955 23.2243C57.0955 21.9128 57.6097 20.8671 58.6323 20.0756C59.5567 19.3592 60.6718 19.001 61.989 19.001C63.5432 19.001 64.8431 19.5556 65.8889 20.6707C66.2182 21.0289 66.5071 21.4218 66.7497 21.8551C66.8133 21.9648 66.8884 22.1151 66.975 22.3115C67.0097 22.3866 66.975 22.479 66.8941 22.5079L65.7502 22.9412C65.6809 22.9701 65.6058 22.9412 65.5711 22.8719C65.5018 22.7275 65.4209 22.5715 65.3284 22.4097C65.2129 22.2017 65.0338 21.9764 64.7854 21.728C64.0285 20.9249 63.0983 20.5262 61.989 20.5262C61.6539 20.5262 61.3131 20.5667 60.9606 20.6533C60.5504 20.7458 60.1807 20.8844 59.8571 21.0751C59.0194 21.5662 58.5976 22.2826 58.5976 23.2243C58.5976 24.5705 59.9322 25.3331 62.5957 25.5122C64.2076 25.622 65.4267 26.1593 66.2471 27.1126C66.871 27.8406 67.1484 28.6841 67.079 29.6374C66.975 30.9084 66.4377 31.8964 65.4613 32.607C64.6005 33.231 63.5721 33.543 62.3761 33.543H62.3588L62.3646 33.5372Z" fill="url(#paint2_linear_606_4821)"/>
<path id="Vector_4" d="M74.378 19.2782C75.7184 19.2782 76.8681 19.7577 77.8214 20.7225C78.7747 21.6816 79.2542 22.8429 79.2542 24.2006C79.2542 25.5583 78.7747 26.7138 77.8214 27.6787C76.8681 28.6435 75.7184 29.123 74.378 29.123H71.1657C71.0848 29.123 71.0213 29.1866 71.0213 29.2675V33.1384C71.0213 33.2193 70.9577 33.2828 70.8768 33.2828H69.6347C69.5538 33.2828 69.4902 33.2193 69.4902 33.1384V19.411C69.4902 19.3302 69.5538 19.2666 69.6347 19.2666H74.378V19.2782ZM74.2278 27.5862C75.2851 27.5862 76.3192 27.1471 76.9894 26.3209C77.4805 25.7143 77.729 25.0094 77.729 24.2006C77.729 23.3917 77.4805 22.6869 76.9894 22.0802C76.3192 21.2541 75.2851 20.815 74.2278 20.815H71.1657C71.0848 20.815 71.0213 20.8785 71.0213 20.9594V27.4302C71.0213 27.5111 71.0848 27.5747 71.1657 27.5747H74.2278V27.5862Z" fill="url(#paint3_linear_606_4821)"/>
<path id="Vector_5" d="M81.4141 33.1496V19.4223C81.4141 19.3414 81.4776 19.2778 81.5585 19.2778H82.8007C82.8815 19.2778 82.9451 19.3414 82.9451 19.4223V33.1496C82.9451 33.2305 82.8815 33.2941 82.8007 33.2941H81.5585C81.4776 33.2941 81.4141 33.2305 81.4141 33.1496Z" fill="url(#paint4_linear_606_4821)"/>
<path id="Vector_6" d="M93.1236 28.4298C93.0312 28.4876 93.0312 28.6147 93.1121 28.6725C93.7996 29.1693 94.3485 29.7991 94.7645 30.5559C95.2209 31.4052 95.452 32.3123 95.452 33.2829V33.2945H93.9209V33.2829C93.9209 32.1447 93.5223 31.1626 92.7192 30.3479C91.9104 29.5333 90.9397 29.1289 89.8074 29.1289H87.3981C87.3172 29.1289 87.2537 29.1924 87.2537 29.2733V33.1443C87.2537 33.2251 87.1901 33.2887 87.1093 33.2887H85.8671C85.7862 33.2887 85.7227 33.2251 85.7227 33.1443V19.4169C85.7227 19.336 85.7862 19.2725 85.8671 19.2725H90.4544C91.9104 19.2725 93.3259 19.8675 94.2907 20.9653C95.0938 21.8781 95.4924 22.9585 95.4924 24.2007C95.4924 25.1193 95.2555 25.9744 94.776 26.7601C94.36 27.4534 93.8054 28.0081 93.1236 28.424V28.4298ZM87.2537 20.9653V27.4361C87.2537 27.517 87.3172 27.5805 87.3981 27.5805H90.6046C91.5348 27.5805 92.3263 27.2512 92.9734 26.5926C93.6263 25.9281 93.9498 25.1309 93.9498 24.1949C93.9498 23.2589 93.6263 22.4674 92.9734 21.8088C92.3206 21.1444 91.529 20.8093 90.6046 20.8093H87.3981C87.3172 20.8093 87.2537 20.8728 87.2537 20.9537V20.9653Z" fill="url(#paint5_linear_606_4821)"/>
<path id="Vector_7" d="M97.9609 33.1496V19.4223C97.9609 19.3414 98.0245 19.2778 98.1054 19.2778H99.3475C99.4284 19.2778 99.492 19.3414 99.492 19.4223V33.1496C99.492 33.2305 99.4284 33.2941 99.3475 33.2941H98.1054C98.0245 33.2941 97.9609 33.2305 97.9609 33.1496Z" fill="url(#paint6_linear_606_4821)"/>
<path id="Vector_8" d="M112.766 19.4223V20.676C112.766 20.7569 112.702 20.8204 112.621 20.8204H107.994C107.913 20.8204 107.849 20.884 107.849 20.9649V33.1438C107.849 33.2247 107.786 33.2883 107.705 33.2883H106.463C106.382 33.2883 106.318 33.2247 106.318 33.1438V20.9649C106.318 20.884 106.255 20.8204 106.174 20.8204H101.488C101.407 20.8204 101.344 20.7569 101.344 20.676V19.4223C101.344 19.3414 101.407 19.2778 101.488 19.2778H112.621C112.702 19.2778 112.766 19.3414 112.766 19.4223Z" fill="url(#paint7_linear_606_4821)"/>
<path id="Vector_9" d="M119.042 33.5372C117.898 33.5372 116.864 33.2656 115.934 32.7168C114.854 32.087 114.126 31.1857 113.75 30.0187C113.727 29.9378 113.773 29.8569 113.848 29.8338L115.021 29.4872C115.096 29.464 115.171 29.5103 115.2 29.5854C115.466 30.3942 115.98 31.0124 116.737 31.4457C117.407 31.8328 118.181 32.0235 119.048 32.0235C119.181 32.0235 119.302 32.0235 119.395 32.0119C119.487 32.0004 119.609 31.9888 119.741 31.9657C120.123 31.9079 120.469 31.8039 120.776 31.6653C121.677 31.2493 122.168 30.5329 122.249 29.5218C122.289 28.9961 122.133 28.5223 121.787 28.1121C121.244 27.4708 120.371 27.1126 119.175 27.0375C117.165 26.8988 115.703 26.4251 114.802 25.6104C114.12 24.9923 113.773 24.195 113.773 23.2243C113.773 21.9128 114.287 20.8671 115.31 20.0756C116.234 19.3592 117.35 19.001 118.667 19.001C120.221 19.001 121.521 19.5556 122.567 20.6707C122.896 21.0289 123.185 21.4218 123.427 21.8551C123.491 21.9648 123.566 22.1151 123.653 22.3115C123.687 22.3866 123.653 22.479 123.572 22.5079L122.428 22.9412C122.359 22.9701 122.283 22.9412 122.249 22.8719C122.18 22.7275 122.099 22.5715 122.006 22.4097C121.891 22.2017 121.712 21.9764 121.463 21.728C120.706 20.9249 119.776 20.5262 118.667 20.5262C118.332 20.5262 117.991 20.5667 117.638 20.6533C117.228 20.7458 116.858 20.8844 116.535 21.0751C115.697 21.5662 115.275 22.2826 115.275 23.2243C115.275 24.5705 116.61 25.3331 119.273 25.5122C120.885 25.622 122.104 26.1593 122.925 27.1126C123.549 27.8406 123.826 28.6841 123.757 29.6374C123.653 30.9084 123.115 31.8964 122.139 32.607C121.278 33.231 120.25 33.543 119.054 33.543H119.037L119.042 33.5372Z" fill="url(#paint8_linear_606_4821)"/>
</g>
<g id="Group_4">
<path id="Vector_10" d="M179.988 33.3118C179.988 33.3118 179.97 33.2598 179.964 33.2309C179.988 33.1904 179.999 33.1442 179.976 33.0922L174.574 19.6017C174.528 19.4804 174.354 19.4804 174.308 19.6017L168.912 33.0922C168.872 33.1904 168.941 33.2944 169.045 33.2944H170.38C170.437 33.2944 170.489 33.2598 170.512 33.202L171.477 30.7928C171.5 30.735 171.552 30.7003 171.61 30.7003H175.29C176.111 30.8448 176.833 31.2261 177.451 31.8558C177.867 32.2776 178.173 32.7456 178.37 33.254C178.387 33.254 178.405 33.254 178.422 33.254C178.445 33.2713 178.474 33.2887 178.509 33.2887H179.433C179.618 33.2944 179.803 33.3002 179.988 33.306V33.3118ZM172.211 28.9671L174.308 23.7153C174.354 23.594 174.528 23.594 174.574 23.7153L176.671 28.9671C176.712 29.0653 176.642 29.1693 176.538 29.1693H172.338C172.234 29.1693 172.165 29.0653 172.205 28.9671H172.211Z" fill="url(#paint9_linear_606_4821)"/>
<path id="Vector_11" d="M153.976 33.3118C153.976 33.3118 153.959 33.2598 153.953 33.2309C153.976 33.1904 153.987 33.1442 153.964 33.0922L148.562 19.6017C148.516 19.4804 148.343 19.4804 148.297 19.6017L142.9 33.0922C142.86 33.1904 142.929 33.2944 143.033 33.2944H144.368C144.426 33.2944 144.478 33.2598 144.501 33.202L145.466 30.7928C145.489 30.735 145.541 30.7003 145.598 30.7003H149.279C150.099 30.8448 150.821 31.2261 151.44 31.8558C151.856 32.2776 152.162 32.7456 152.358 33.254C152.375 33.254 152.393 33.254 152.41 33.254C152.433 33.2713 152.462 33.2887 152.497 33.2887H153.421C153.606 33.2944 153.791 33.3002 153.976 33.306V33.3118ZM146.199 28.9671L148.297 23.7153C148.343 23.594 148.516 23.594 148.562 23.7153L150.66 28.9671C150.7 29.0653 150.631 29.1693 150.527 29.1693H146.326C146.222 29.1693 146.153 29.0653 146.194 28.9671H146.199Z" fill="url(#paint10_linear_606_4821)"/>
<path id="Vector_12" d="M135.154 32.0118C136.234 32.0118 137.228 31.7229 138.147 31.1509C139.002 30.6136 139.666 29.9087 140.146 29.0306C140.18 28.967 140.261 28.9381 140.331 28.967L141.463 29.4581C141.538 29.4928 141.573 29.5852 141.532 29.6603C140.931 30.8043 140.082 31.7287 138.99 32.422C137.823 33.1673 136.546 33.537 135.16 33.537C134.183 33.537 133.253 33.3464 132.363 32.9708C131.497 32.6011 130.734 32.0753 130.07 31.4051C129.405 30.7349 128.891 29.9607 128.521 29.0883C128.146 28.187 127.961 27.2453 127.961 26.2631C127.961 25.281 128.146 24.3335 128.521 23.4264C128.891 22.5598 129.405 21.7913 130.07 21.1212C130.734 20.451 131.497 19.931 132.363 19.5555C133.253 19.1799 134.183 18.9893 135.16 18.9893C136.546 18.9893 137.823 19.359 138.99 20.1043C140.082 20.7976 140.926 21.722 141.532 22.866C141.573 22.9411 141.538 23.0335 141.463 23.0682L140.336 23.5593C140.267 23.5882 140.192 23.5593 140.151 23.4957C139.672 22.6118 139.008 21.9069 138.152 21.3754C137.234 20.8034 136.24 20.5145 135.16 20.5145C133.594 20.5145 132.248 21.0749 131.133 22.1958C130.024 23.3224 129.469 24.6801 129.469 26.2631C129.469 27.8462 130.024 29.2039 131.133 30.3305C132.248 31.4513 133.588 32.0118 135.16 32.0118H135.154Z" fill="url(#paint11_linear_606_4821)"/>
<path id="Vector_13" d="M167.102 33.3294L157.645 23.1726C157.552 23.0743 157.396 23.1379 157.396 23.2708V33.1445C157.396 33.2254 157.333 33.289 157.252 33.289H156.01C155.929 33.289 155.865 33.2254 155.865 33.1445V19.3652C155.865 19.2323 156.027 19.1687 156.114 19.267L165.571 29.4354C165.664 29.5336 165.82 29.47 165.82 29.3372V19.423C165.82 19.3421 165.883 19.2785 165.964 19.2785H167.206C167.287 19.2785 167.351 19.3421 167.351 19.423V33.2312C167.351 33.3641 167.189 33.4276 167.102 33.3294Z" fill="url(#paint12_linear_606_4821)"/>
<path id="Vector_14" d="M181.461 33.1496V19.4223C181.461 19.3414 181.524 19.2778 181.605 19.2778H186.118C187.059 19.2778 187.961 19.4627 188.816 19.8325C189.642 20.1849 190.376 20.6818 191.023 21.3288C191.664 21.9817 192.155 22.7212 192.502 23.559C192.872 24.4256 193.056 25.3327 193.056 26.2859C193.056 27.2392 192.872 28.1405 192.502 29.0129C192.155 29.8449 191.658 30.5844 191.011 31.2315C190.37 31.8844 189.642 32.387 188.816 32.7394C187.949 33.1092 187.054 33.2941 186.118 33.2941H181.605C181.524 33.2941 181.461 33.2305 181.461 33.1496ZM186.123 31.7515C187.608 31.7457 188.879 31.2084 189.937 30.1511C190.994 29.0823 191.525 27.7939 191.525 26.2917C191.525 24.7896 190.994 23.5012 189.937 22.4324C188.879 21.3635 187.608 20.832 186.123 20.832H183.044C182.963 20.832 182.9 20.8955 182.9 20.9764V31.6128C182.9 31.6937 182.963 31.7572 183.044 31.7572H186.123V31.7515Z" fill="url(#paint13_linear_606_4821)"/>
<path id="Vector_15" d="M203.906 33.3118C203.906 33.3118 203.888 33.2598 203.882 33.2309C203.906 33.1904 203.917 33.1442 203.894 33.0922L198.492 19.6017C198.446 19.4804 198.272 19.4804 198.226 19.6017L192.83 33.0922C192.79 33.1904 192.859 33.2944 192.963 33.2944H194.298C194.355 33.2944 194.407 33.2598 194.43 33.202L195.395 30.7928C195.418 30.735 195.47 30.7003 195.528 30.7003H199.208C200.029 30.8448 200.751 31.2261 201.369 31.8558C201.785 32.2776 202.091 32.7456 202.288 33.254C202.305 33.254 202.322 33.254 202.34 33.254C202.363 33.2713 202.392 33.2887 202.427 33.2887H203.351C203.536 33.2944 203.721 33.3002 203.906 33.306V33.3118ZM196.129 28.9671L198.226 23.7153C198.272 23.594 198.446 23.594 198.492 23.7153L200.589 28.9671C200.63 29.0653 200.56 29.1693 200.456 29.1693H196.256C196.152 29.1693 196.083 29.0653 196.123 28.9671H196.129Z" fill="url(#paint14_linear_606_4821)"/>
</g>
</g>
</g>
<defs>
<linearGradient id="paint0_linear_606_4821" x1="14.033" y1="31.3722" x2="21.7966" y2="29.084" gradientUnits="userSpaceOnUse">
<stop stop-color="#EDDCC4"/>
<stop offset="0.3" stop-color="#C47E04"/>
<stop offset="0.63" stop-color="#EDC480"/>
<stop offset="0.99" stop-color="#965D15"/>
</linearGradient>
<linearGradient id="paint1_linear_606_4821" x1="3.90532" y1="61" x2="55.6783" y2="46.1959" gradientUnits="userSpaceOnUse">
<stop stop-color="#EDDCC4"/>
<stop offset="0.3" stop-color="#C47E04"/>
<stop offset="0.63" stop-color="#EDC480"/>
<stop offset="0.99" stop-color="#965D15"/>
</linearGradient>
<linearGradient id="paint2_linear_606_4821" x1="57.7769" y1="37.1743" x2="69.2876" y2="34.8144" gradientUnits="userSpaceOnUse">
<stop stop-color="#EDDCC4"/>
<stop offset="0.3" stop-color="#C47E04"/>
<stop offset="0.63" stop-color="#EDC480"/>
<stop offset="0.99" stop-color="#965D15"/>
</linearGradient>
<linearGradient id="paint3_linear_606_4821" x1="70.1823" y1="36.7829" x2="81.3858" y2="34.4614" gradientUnits="userSpaceOnUse">
<stop stop-color="#EDDCC4"/>
<stop offset="0.3" stop-color="#C47E04"/>
<stop offset="0.63" stop-color="#EDC480"/>
<stop offset="0.99" stop-color="#965D15"/>
</linearGradient>
<linearGradient id="paint4_linear_606_4821" x1="81.5226" y1="36.7942" x2="83.3529" y2="36.7347" gradientUnits="userSpaceOnUse">
<stop stop-color="#EDDCC4"/>
<stop offset="0.3" stop-color="#C47E04"/>
<stop offset="0.63" stop-color="#EDC480"/>
<stop offset="0.99" stop-color="#965D15"/>
</linearGradient>
<linearGradient id="paint5_linear_606_4821" x1="86.4152" y1="36.796" x2="97.6251" y2="34.4727" gradientUnits="userSpaceOnUse">
<stop stop-color="#EDDCC4"/>
<stop offset="0.3" stop-color="#C47E04"/>
<stop offset="0.63" stop-color="#EDC480"/>
<stop offset="0.99" stop-color="#965D15"/>
</linearGradient>
<linearGradient id="paint6_linear_606_4821" x1="98.0695" y1="36.7942" x2="99.8997" y2="36.7347" gradientUnits="userSpaceOnUse">
<stop stop-color="#EDDCC4"/>
<stop offset="0.3" stop-color="#C47E04"/>
<stop offset="0.63" stop-color="#EDC480"/>
<stop offset="0.99" stop-color="#965D15"/>
</linearGradient>
<linearGradient id="paint7_linear_606_4821" x1="102.153" y1="36.7869" x2="115.063" y2="33.6563" gradientUnits="userSpaceOnUse">
<stop stop-color="#EDDCC4"/>
<stop offset="0.3" stop-color="#C47E04"/>
<stop offset="0.63" stop-color="#EDC480"/>
<stop offset="0.99" stop-color="#965D15"/>
</linearGradient>
<linearGradient id="paint8_linear_606_4821" x1="114.455" y1="37.1743" x2="125.965" y2="34.8144" gradientUnits="userSpaceOnUse">
<stop stop-color="#EDDCC4"/>
<stop offset="0.3" stop-color="#C47E04"/>
<stop offset="0.63" stop-color="#EDC480"/>
<stop offset="0.99" stop-color="#965D15"/>
</linearGradient>
<linearGradient id="paint9_linear_606_4821" x1="169.686" y1="36.7581" x2="182.239" y2="33.7583" gradientUnits="userSpaceOnUse">
<stop stop-color="#EDDCC4"/>
<stop offset="0.3" stop-color="#C47E04"/>
<stop offset="0.63" stop-color="#EDC480"/>
<stop offset="0.99" stop-color="#965D15"/>
</linearGradient>
<linearGradient id="paint10_linear_606_4821" x1="143.675" y1="36.7581" x2="156.227" y2="33.7583" gradientUnits="userSpaceOnUse">
<stop stop-color="#EDDCC4"/>
<stop offset="0.3" stop-color="#C47E04"/>
<stop offset="0.63" stop-color="#EDC480"/>
<stop offset="0.99" stop-color="#965D15"/>
</linearGradient>
<linearGradient id="paint11_linear_606_4821" x1="128.924" y1="37.1698" x2="144.02" y2="32.9756" gradientUnits="userSpaceOnUse">
<stop stop-color="#EDDCC4"/>
<stop offset="0.3" stop-color="#C47E04"/>
<stop offset="0.63" stop-color="#EDC480"/>
<stop offset="0.99" stop-color="#965D15"/>
</linearGradient>
<linearGradient id="paint12_linear_606_4821" x1="156.679" y1="36.9126" x2="169.668" y2="33.7783" gradientUnits="userSpaceOnUse">
<stop stop-color="#EDDCC4"/>
<stop offset="0.3" stop-color="#C47E04"/>
<stop offset="0.63" stop-color="#EDC480"/>
<stop offset="0.99" stop-color="#965D15"/>
</linearGradient>
<linearGradient id="paint13_linear_606_4821" x1="182.283" y1="36.7942" x2="195.367" y2="33.5744" gradientUnits="userSpaceOnUse">
<stop stop-color="#EDDCC4"/>
<stop offset="0.3" stop-color="#C47E04"/>
<stop offset="0.63" stop-color="#EDC480"/>
<stop offset="0.99" stop-color="#965D15"/>
</linearGradient>
<linearGradient id="paint14_linear_606_4821" x1="193.604" y1="36.7581" x2="206.157" y2="33.7583" gradientUnits="userSpaceOnUse">
<stop stop-color="#EDDCC4"/>
<stop offset="0.3" stop-color="#C47E04"/>
<stop offset="0.63" stop-color="#EDC480"/>
<stop offset="0.99" stop-color="#965D15"/>
</linearGradient>
</defs>
</svg>
