<svg width="27" height="27" viewBox="0 0 27 27" fill="none" xmlns="http://www.w3.org/2000/svg">
<g id="&#240;&#159;&#166;&#134; icon &#34;share&#34;">
<path id="Vector" d="M19.6591 16.6756C18.8277 16.6763 18.0297 17.0031 17.4365 17.5858L9.07547 13.8604C9.07547 13.7334 9.07547 13.6275 9.07547 13.5005C9.07547 13.3735 9.07547 13.2677 9.07547 13.1513L17.4365 9.41523C17.9602 9.92855 18.6455 10.2448 19.3759 10.3102C20.1063 10.3756 20.8368 10.1862 21.4434 9.77408C22.05 9.36199 22.4952 8.75263 22.7035 8.0495C22.9117 7.34638 22.8702 6.59284 22.5859 5.91686C22.3016 5.24089 21.7921 4.68416 21.1439 4.34123C20.4957 3.9983 19.7488 3.89031 19.03 4.03561C18.3112 4.18091 17.6649 4.57053 17.2008 5.13831C16.7367 5.70608 16.4834 6.417 16.484 7.15033V7.51017L8.12294 11.2356C7.67669 10.7972 7.11087 10.5004 6.49651 10.3824C5.88215 10.2644 5.24663 10.3306 4.66973 10.5725C4.09284 10.8145 3.60027 11.2214 3.25386 11.7424C2.90746 12.2633 2.72266 12.8749 2.72266 13.5005C2.72266 14.1261 2.90746 14.7377 3.25386 15.2587C3.60027 15.7796 4.09284 16.1866 4.66973 16.4285C5.24663 16.6705 5.88215 16.7366 6.49651 16.6186C7.11087 16.5007 7.67669 16.2038 8.12294 15.7654L16.484 19.5014V19.8507C16.484 20.4787 16.6702 21.0926 17.0191 21.6147C17.368 22.1368 17.8639 22.5438 18.4441 22.7841C19.0242 23.0244 19.6626 23.0873 20.2785 22.9648C20.8945 22.8423 21.4602 22.5399 21.9042 22.0958C22.3483 21.6518 22.6507 21.086 22.7732 20.4701C22.8957 19.8542 22.8328 19.2158 22.5925 18.6356C22.3522 18.0555 21.9452 17.5596 21.4231 17.2107C20.901 16.8618 20.2871 16.6756 19.6591 16.6756Z" fill="#5C3F2D"/>
</g>
</svg>
