<svg width="27" height="27" viewBox="0 0 27 27" fill="none" xmlns="http://www.w3.org/2000/svg">
<g id="&#240;&#159;&#166;&#134; icon &#34;twitter&#34;">
<path id="Vector" d="M9.35899 21.9671C10.924 22.0195 12.4836 21.7576 13.9457 21.197C15.4077 20.6363 16.7426 19.7883 17.8713 18.703C19 17.6176 19.8998 16.3171 20.5173 14.8781C21.1348 13.4391 21.4577 11.891 21.4667 10.3251C22.1839 9.4376 22.7164 8.41566 23.0331 7.31938C23.0567 7.23276 23.0548 7.14116 23.0276 7.0556C23.0004 6.97005 22.949 6.89418 22.8796 6.83715C22.8103 6.78011 22.726 6.74434 22.6368 6.73413C22.5476 6.72392 22.4573 6.73972 22.3769 6.77961C22.0017 6.96022 21.5792 7.01857 21.1691 6.94642C20.759 6.87426 20.3819 6.67526 20.0908 6.37743C19.7193 5.97057 19.2699 5.64243 18.7692 5.41244C18.2685 5.18246 17.7267 5.05531 17.176 5.03853C16.6253 5.02175 16.0768 5.11569 15.5631 5.31477C15.0493 5.51385 14.5808 5.81402 14.1851 6.19751C13.6435 6.7221 13.2467 7.37789 13.0334 8.10116C12.8202 8.82443 12.7976 9.59058 12.968 10.3251C9.42249 10.5368 6.98825 8.85401 5.04086 6.54677C4.98236 6.48052 4.90583 6.43273 4.82062 6.40926C4.73541 6.38578 4.64521 6.38762 4.56102 6.41456C4.47684 6.4415 4.40233 6.49236 4.34658 6.56095C4.29083 6.62953 4.25626 6.71287 4.24709 6.80078C3.8761 8.85869 4.14372 10.9808 5.014 12.8822C5.88428 14.7836 7.31555 16.3731 9.11557 17.4373C7.90865 18.8215 6.21375 19.686 4.38467 19.8504C4.28668 19.8667 4.19622 19.9131 4.12596 19.9834C4.05569 20.0536 4.00914 20.144 3.99281 20.242C3.97648 20.3399 3.99119 20.4406 4.03489 20.5298C4.07859 20.619 4.14908 20.6923 4.2365 20.7394C5.82778 21.5347 7.58012 21.9546 9.35899 21.9671Z" fill="#5C3F2D"/>
</g>
</svg>
